<svg width="23" height="23" viewBox="0 0 23 23" fill="none" xmlns="http://www.w3.org/2000/svg">
<path d="M6.65747 21.0654H3.65747C3.12704 21.0654 2.61833 20.8547 2.24326 20.4796C1.86818 20.1046 1.65747 19.5959 1.65747 19.0654V12.0654C1.65747 11.535 1.86818 11.0263 2.24326 10.6512C2.61833 10.2761 3.12704 10.0654 3.65747 10.0654H6.65747M13.6575 8.06543V4.06543C13.6575 3.26978 13.3414 2.50672 12.7788 1.94411C12.2162 1.3815 11.4531 1.06543 10.6575 1.06543L6.65747 10.0654V21.0654H17.9375C18.4198 21.0709 18.8878 20.9018 19.2554 20.5894C19.6229 20.277 19.8651 19.8423 19.9375 19.3654L21.3175 10.3654C21.361 10.0788 21.3416 9.78611 21.2608 9.50768C21.18 9.22925 21.0396 8.97172 20.8493 8.75294C20.6591 8.53416 20.4236 8.35936 20.159 8.24065C19.8945 8.12193 19.6074 8.06215 19.3175 8.06543H13.6575Z" stroke="black" stroke-width="2" stroke-linecap="round" stroke-linejoin="round"/>
</svg>
