<svg width="50" height="50" viewBox="0 0 50 50" fill="none" xmlns="http://www.w3.org/2000/svg">
<g clip-path="url(#clip0_1185_59112)">
<path d="M25 46.8814C38.8063 46.8814 50 36.3867 50 23.4407C50 10.4947 38.8063 0 25 0C11.1937 0 0 10.4947 0 23.4407C0 29.3344 2.32188 34.7257 6.15625 38.8446C5.85313 42.2469 4.85313 45.9773 3.74688 48.7768C3.5 49.3996 3.97813 50.0962 4.6 49.989C11.65 48.75 15.8406 46.8479 17.6625 45.8567C20.056 46.5408 22.5229 46.8853 25 46.8814Z" fill="url(#paint0_linear_1185_59112)"/>
<path d="M14.338 24.1263C14.338 24.9879 14.0701 25.6626 13.5326 26.1526C12.986 26.6369 12.231 26.8791 11.2656 26.8791H6.41699V24.8658H10.4332C10.9042 24.8658 11.2476 24.7845 11.4615 24.6237C11.6755 24.4573 11.7833 24.2003 11.7833 23.849C11.7833 23.5255 11.6809 23.2722 11.4759 23.0892C11.262 22.9136 10.915 22.8267 10.435 22.8267L7.15767 22.8396V20.8282H10.3739C10.8593 20.8282 11.208 20.7505 11.422 20.5934C11.6269 20.4418 11.7294 20.1904 11.7294 19.8391C11.7294 19.5063 11.6269 19.2586 11.422 19.0922C11.3177 19.0016 11.1793 18.9369 11.0085 18.8962C10.8287 18.8611 10.6184 18.8426 10.3739 18.8426H6.41699V16.8312H11.0624C12.1375 16.8312 12.9519 17.053 13.5056 17.4967C14.0521 17.946 14.3254 18.643 14.3254 19.5895C14.3254 20.0646 14.2229 20.4862 14.018 20.8541C13.804 21.222 13.5272 21.5455 13.1856 21.8228C13.5613 22.0613 13.8346 22.346 14.0054 22.6769C14.2265 23.0652 14.338 23.5477 14.338 24.1263Z" fill="white"/>
<path d="M24.0272 23.7946C24.0272 24.8484 23.655 25.647 22.9126 26.1906C22.1701 26.7341 21.1004 27.004 19.7017 27.004C18.0514 27.004 16.8307 26.5954 16.0397 25.7783C15.2541 24.9667 14.8604 23.6929 14.8604 21.9551C14.8604 20.2006 15.281 18.9065 16.1242 18.0727C16.9548 17.2426 18.2491 16.8285 20.0092 16.8285H23.5202L23.513 18.8399H19.9588C19.0761 18.8399 18.4361 19.0156 18.0388 19.365C17.8518 19.5314 17.7098 19.7421 17.6127 19.9972C17.5031 20.2672 17.4491 20.5759 17.4491 20.9253H20.6204C21.7638 20.9253 22.6177 21.1601 23.1822 21.6278C23.7449 22.1011 24.0272 22.8221 24.0272 23.7946ZM21.4905 23.9018C21.4905 23.5783 21.4096 23.3342 21.2478 23.1679C21.086 23.0163 20.8397 22.9386 20.5071 22.9386H17.4617C17.4617 23.6245 17.6487 24.144 18.0244 24.4934C18.3912 24.8521 18.979 25.0314 19.7862 25.0314C20.4029 25.0314 20.8379 24.939 21.0968 24.7559C21.3611 24.5729 21.4905 24.2882 21.4905 23.9018Z" fill="white"/>
<path d="M32.9374 23.8361C32.9374 24.8178 32.6372 25.5721 32.0403 26.0971C31.4381 26.6185 30.5877 26.8773 29.4911 26.8773H24.3477V24.8658H29.0452C29.5073 24.8658 29.8345 24.7845 30.0214 24.6237C30.2012 24.4665 30.2893 24.204 30.2893 23.8361C30.2893 23.4589 30.1994 23.1872 30.0214 23.0226C29.8345 22.8655 29.5073 22.7878 29.0452 22.7878H24.3477V16.8312H32.4592L32.452 18.8426H26.7513V20.7875H29.9279C30.8502 20.7875 31.5873 21.05 32.1428 21.5751C32.3999 21.8487 32.5994 22.1704 32.7396 22.5383C32.8709 22.9136 32.9374 23.348 32.9374 23.8361Z" fill="white"/>
<path fill-rule="evenodd" clip-rule="evenodd" d="M34.1074 30.0581L37.6976 26.7303L41.6059 27.8969C41.6059 27.8969 44.1839 29.008 42.7439 30.8678C42.0949 31.526 41.4801 32.149 39.2113 31.5205C38.5677 31.3005 34.1074 30.0581 34.1074 30.0581Z" fill="white"/>
<path fill-rule="evenodd" clip-rule="evenodd" d="M13.3152 27.7049C13.353 27.7936 13.3853 27.8842 13.4249 27.9729C13.495 28.1301 13.5723 28.2817 13.6568 28.4314C13.8689 28.8049 14.126 29.1506 14.4208 29.4593C14.7912 29.8457 15.2208 30.1711 15.6865 30.4244C16.2743 30.7461 16.9143 30.955 17.5669 31.0733C18.4281 31.2304 19.3108 31.236 20.1809 31.1509C21.3566 31.0363 22.5162 30.7609 23.6434 30.404C26.8884 29.3761 29.8852 27.862 32.4237 25.5178C32.4614 25.4827 32.4992 25.4476 32.5387 25.4124C34.2952 23.7689 36.4543 21.4617 36.1882 18.7939C36.0192 17.1079 34.0291 16.165 32.625 15.8211C32.0264 15.6751 32.1396 14.7581 32.7545 14.7729C35.5896 14.8431 38.4858 15.6325 39.4548 18.1321C39.4602 18.1468 39.4655 18.1616 39.4709 18.1783C39.7136 18.9825 39.7658 19.8532 39.6993 20.687C39.5734 22.2806 38.9766 23.7985 38.1208 25.124C36.6916 27.3407 34.6062 29.0508 32.4219 30.4281C30.5792 31.5909 28.6771 32.495 26.6205 33.1531C25.1715 33.6172 23.6955 33.998 22.1908 34.2162C20.5063 34.4602 18.7517 34.5138 17.0905 34.0868C15.4186 33.6578 13.939 32.6891 12.9898 31.1898C12.4109 30.2765 12.0478 29.2375 11.8302 28.1745C11.7655 27.862 11.8464 27.4387 12.1125 27.2353C12.4523 26.9765 13.0006 27.2076 13.2217 27.5237C13.2595 27.5847 13.29 27.6439 13.3152 27.7049Z" fill="white"/>
<path fill-rule="evenodd" clip-rule="evenodd" d="M14.3965 27.5288C14.3965 27.5288 19.3745 32.1599 27.9211 27.1979C26.9683 28.3552 16.3273 33.6482 14.3965 27.5288Z" fill="white"/>
</g>
<defs>
<linearGradient id="paint0_linear_1185_59112" x1="4.16667" y1="39.8492" x2="49.1421" y2="15.1581" gradientUnits="userSpaceOnUse">
<stop stop-color="#4250C2"/>
<stop offset="1" stop-color="#00A1FF"/>
</linearGradient>
<clipPath id="clip0_1185_59112">
<rect width="50" height="50" fill="white"/>
</clipPath>
</defs>
</svg>
