<svg width="16" height="15" viewBox="0 0 16 15" fill="none" xmlns="http://www.w3.org/2000/svg">
<g clip-path="url(#clip0_1683_77183)">
<path d="M4.15592 13.3407C3.23162 13.3397 2.34546 12.9897 1.69188 12.3675C1.0383 11.7453 0.670668 10.9017 0.669654 10.0218C0.669654 10.0163 0.669654 10.0107 0.669654 10.0052C0.669654 9.99424 0.668163 9.97782 0.666886 9.95613C0.595342 8.75086 0.802308 5.49667 4.26089 1.32687C4.29204 1.28942 4.33608 1.26365 4.38524 1.2541C4.43441 1.24454 4.48553 1.25182 4.52961 1.27466C4.57368 1.29749 4.60787 1.33441 4.62614 1.37889C4.64441 1.42338 4.64559 1.47258 4.62947 1.51782C4.61968 1.54539 3.67449 4.24073 4.3203 6.70701C5.22992 6.74764 6.08673 7.12548 6.70751 7.75971C7.32829 8.39395 7.66375 9.23424 7.64217 10.1009C7.62058 10.9675 7.24366 11.7917 6.592 12.3973C5.94035 13.0028 5.06569 13.3415 4.15507 13.3411L4.15592 13.3407ZM1.09551 10.0334C1.09787 10.6091 1.27936 11.1713 1.61707 11.6489C1.95478 12.1265 2.43357 12.4982 2.99299 12.7169C3.55241 12.9357 4.16738 12.9918 4.76025 12.8781C5.35313 12.7644 5.89732 12.486 6.32414 12.0781C6.75095 11.6702 7.04124 11.1511 7.15837 10.5862C7.27549 10.0214 7.21419 9.43618 6.98221 8.90448C6.75023 8.37277 6.35797 7.91843 5.85495 7.59879C5.35193 7.27916 4.7607 7.10857 4.15592 7.10856C4.10929 7.10855 4.06395 7.09397 4.02687 7.06705C3.98979 7.04014 3.96301 7.00238 3.95066 6.95958C3.46092 5.26296 3.70111 3.48323 3.94448 2.40323C1.20112 6.0616 1.02886 8.85404 1.09295 9.93343C1.09585 9.96666 1.0967 10 1.09551 10.0334Z" fill="#474747" stroke="#474747"/>
<path d="M12.0739 13.3407C11.1496 13.3397 10.2634 12.9897 9.60985 12.3675C8.95626 11.7453 8.58864 10.9017 8.58762 10.0218C8.58762 10.0163 8.58762 10.0107 8.58762 10.0052C8.58762 9.99424 8.58613 9.97782 8.58485 9.95613C8.51331 8.75086 8.72028 5.49667 12.1789 1.32687C12.21 1.28942 12.254 1.26365 12.3032 1.2541C12.3524 1.24454 12.4035 1.25182 12.4476 1.27466C12.4917 1.29749 12.5258 1.33441 12.5441 1.37889C12.5624 1.42338 12.5636 1.47258 12.5474 1.51782C12.5376 1.54539 11.5925 4.24073 12.2383 6.70701C13.1479 6.74764 14.0047 7.12548 14.6255 7.75971C15.2463 8.39395 15.5817 9.23424 15.5601 10.1009C15.5386 10.9675 15.1616 11.7917 14.51 12.3973C13.8583 13.0028 12.9837 13.3415 12.073 13.3411L12.0739 13.3407ZM9.01348 10.0334C9.01583 10.6091 9.19733 11.1713 9.53504 11.6489C9.87275 12.1265 10.3515 12.4982 10.911 12.7169C11.4704 12.9357 12.0853 12.9918 12.6782 12.8781C13.2711 12.7644 13.8153 12.486 14.2421 12.0781C14.6689 11.6702 14.9592 11.1511 15.0763 10.5862C15.1935 10.0214 15.1322 9.43618 14.9002 8.90448C14.6682 8.37277 14.2759 7.91843 13.7729 7.59879C13.2699 7.27916 12.6787 7.10857 12.0739 7.10856C12.0273 7.10855 11.9819 7.09397 11.9448 7.06705C11.9078 7.04014 11.881 7.00238 11.8686 6.95958C11.3789 5.26296 11.6191 3.48323 11.8625 2.40323C9.11909 6.0616 8.94662 8.85404 9.01071 9.93343C9.01367 9.96666 9.0146 10 9.01348 10.0334Z" fill="#474747" stroke="#474747"/>
</g>
<defs>
<clipPath id="clip0_1683_77183">
<rect width="16" height="15" fill="white"/>
</clipPath>
</defs>
</svg>
