<svg width="45" height="44" viewBox="0 0 45 44" fill="none" xmlns="http://www.w3.org/2000/svg">
<rect x="0.416016" width="44" height="44" rx="8" fill="#D9D9D9"/>
<path d="M20.416 29C20.416 30.1 21.316 31 22.416 31C23.516 31 24.416 30.1 24.416 29C24.416 27.9 23.516 27 22.416 27C21.316 27 20.416 27.9 20.416 29Z" stroke="#474747" stroke-width="1.5"/>
<path d="M20.416 14.998C20.416 16.098 21.316 16.998 22.416 16.998C23.516 16.998 24.416 16.098 24.416 14.998C24.416 13.898 23.516 12.998 22.416 12.998C21.316 12.998 20.416 13.898 20.416 14.998Z" stroke="#474747" stroke-width="1.5"/>
<path d="M20.416 22.001C20.416 23.101 21.316 24.001 22.416 24.001C23.516 24.001 24.416 23.101 24.416 22.001C24.416 20.901 23.516 20.001 22.416 20.001C21.316 20.001 20.416 20.901 20.416 22.001Z" stroke="#474747" stroke-width="1.5"/>
</svg>
