<svg width="40" height="40" viewBox="0 0 40 40" fill="none" xmlns="http://www.w3.org/2000/svg">
<rect width="40" height="40" rx="8" fill="#EAECFA"/>
<path d="M18 27.0005C18 28.1005 18.9 29.0005 20 29.0005C21.1 29.0005 22 28.1005 22 27.0005C22 25.9005 21.1 25.0005 20 25.0005C18.9 25.0005 18 25.9005 18 27.0005Z" stroke="#474747" stroke-width="1.5"/>
<path d="M18 12.9985C18 14.0985 18.9 14.9985 20 14.9985C21.1 14.9985 22 14.0985 22 12.9985C22 11.8985 21.1 10.9985 20 10.9985C18.9 10.9985 18 11.8985 18 12.9985Z" stroke="#474747" stroke-width="1.5"/>
<path d="M18 20.001C18 21.101 18.9 22.001 20 22.001C21.1 22.001 22 21.101 22 20.001C22 18.901 21.1 18.001 20 18.001C18.9 18.001 18 18.901 18 20.001Z" stroke="#474747" stroke-width="1.5"/>
</svg>
