<svg width="28" height="28" viewBox="0 0 28 28" fill="none" xmlns="http://www.w3.org/2000/svg">
<path d="M24.0488 7.24349H22.9361V6.13075C22.9361 5.83563 22.8188 5.55261 22.6102 5.34393C22.4015 5.13525 22.1185 5.01801 21.8233 5.01801C21.5282 5.01801 21.2452 5.13525 21.0365 5.34393C20.8278 5.55261 20.7106 5.83563 20.7106 6.13075V7.24349H19.5979C19.3027 7.24349 19.0197 7.36072 18.811 7.5694C18.6024 7.77808 18.4851 8.06111 18.4851 8.35623C18.4851 8.65134 18.6024 8.93437 18.811 9.14305C19.0197 9.35173 19.3027 9.46896 19.5979 9.46896H20.7106V10.5817C20.7106 10.8768 20.8278 11.1598 21.0365 11.3685C21.2452 11.5772 21.5282 11.6944 21.8233 11.6944C22.1185 11.6944 22.4015 11.5772 22.6102 11.3685C22.8188 11.1598 22.9361 10.8768 22.9361 10.5817V9.46896H24.0488C24.3439 9.46896 24.627 9.35173 24.8356 9.14305C25.0443 8.93437 25.1616 8.65134 25.1616 8.35623C25.1616 8.06111 25.0443 7.77808 24.8356 7.5694C24.627 7.36072 24.3439 7.24349 24.0488 7.24349ZM11.8087 12.8072C12.689 12.8072 13.5496 12.5461 14.2815 12.0571C15.0135 11.568 15.584 10.8728 15.9208 10.0595C16.2577 9.24623 16.3459 8.35129 16.1741 7.48789C16.0024 6.62449 15.5785 5.83141 14.956 5.20893C14.3335 4.58645 13.5404 4.16254 12.677 3.9908C11.8136 3.81906 10.9187 3.9072 10.1054 4.24408C9.29209 4.58097 8.59694 5.15146 8.10787 5.88341C7.61879 6.61537 7.35775 7.47591 7.35775 8.35623C7.35775 9.53669 7.82668 10.6688 8.6614 11.5035C9.49611 12.3382 10.6282 12.8072 11.8087 12.8072ZM18.4851 23.9346C18.7802 23.9346 19.0633 23.8173 19.272 23.6086C19.4806 23.4 19.5979 23.1169 19.5979 22.8218C19.5979 20.756 18.7772 18.7748 17.3165 17.314C15.8557 15.8533 13.8745 15.0327 11.8087 15.0327C9.74288 15.0327 7.76168 15.8533 6.30093 17.314C4.84017 18.7748 4.01953 20.756 4.01953 22.8218C4.01953 23.1169 4.13677 23.4 4.34544 23.6086C4.55412 23.8173 4.83715 23.9346 5.13227 23.9346" fill="white"/>
</svg>
