<svg width="28" height="29" viewBox="0 0 28 29" fill="none" xmlns="http://www.w3.org/2000/svg">
<path d="M10.4997 2.3645C7.44301 2.3645 4.95801 4.8495 4.95801 7.90617C4.95801 10.9045 7.30301 13.3312 10.3597 13.4362C10.453 13.4245 10.5463 13.4245 10.6163 13.4362C10.6397 13.4362 10.6513 13.4362 10.6747 13.4362C10.6863 13.4362 10.6863 13.4362 10.698 13.4362C13.6847 13.3312 16.0297 10.9045 16.0413 7.90617C16.0413 4.8495 13.5563 2.3645 10.4997 2.3645Z" fill="#666666"/>
<path d="M16.4271 16.5396C13.1721 14.3696 7.86378 14.3696 4.58544 16.5396C3.10378 17.5313 2.28711 18.8729 2.28711 20.3079C2.28711 21.7429 3.10378 23.0729 4.57378 24.0529C6.20711 25.1496 8.35378 25.6979 10.5004 25.6979C12.6471 25.6979 14.7938 25.1496 16.4271 24.0529C17.8971 23.0613 18.7138 21.7313 18.7138 20.2846C18.7021 18.8496 17.8971 17.5196 16.4271 16.5396Z" fill="#666666"/>
<path d="M23.3219 8.59462C23.5086 10.858 21.8986 12.8413 19.6702 13.1096C19.6586 13.1096 19.6586 13.1096 19.6469 13.1096H19.6119C19.5419 13.1096 19.4719 13.1096 19.4136 13.133C18.2819 13.1913 17.2436 12.8296 16.4619 12.1646C17.6636 11.0913 18.3519 9.48128 18.2119 7.73128C18.1302 6.78628 17.8036 5.92295 17.3136 5.18795C17.7569 4.96629 18.2702 4.82629 18.7952 4.77962C21.0819 4.58129 23.1236 6.28462 23.3219 8.59462Z" fill="#666666"/>
<path d="M25.6546 19.3861C25.5613 20.5178 24.838 21.4978 23.6246 22.1628C22.458 22.8045 20.988 23.1078 19.5296 23.0728C20.3696 22.3145 20.8596 21.3695 20.953 20.3661C21.0696 18.9195 20.3813 17.5311 19.0046 16.4228C18.223 15.8045 17.313 15.3145 16.3213 14.9528C18.8996 14.2061 22.143 14.7078 24.138 16.3178C25.2113 17.1811 25.7596 18.2661 25.6546 19.3861Z" fill="#666666"/>
</svg>
