<svg width="25" height="25" viewBox="0 0 25 25" fill="none" xmlns="http://www.w3.org/2000/svg">
<path d="M21.7695 9.67981C21.4795 9.21981 21.1695 8.78981 20.8495 8.38981C20.4795 7.91981 19.7795 7.87981 19.3595 8.29981L16.3595 11.2998C16.5795 11.9598 16.6195 12.7198 16.4195 13.5098C16.0695 14.9198 14.9295 16.0598 13.5195 16.4098C12.7295 16.6098 11.9695 16.5698 11.3095 16.3498C11.3095 16.3498 9.87946 17.7798 8.84946 18.8098C8.34946 19.3098 8.50946 20.1898 9.17946 20.4498C10.2495 20.8598 11.3595 21.0698 12.4995 21.0698C14.2795 21.0698 16.0095 20.5498 17.5895 19.5798C19.1995 18.5798 20.6495 17.1098 21.8195 15.2398C22.7695 13.7298 22.7195 11.1898 21.7695 9.67981Z" fill="#474747"/>
<path d="M14.5206 10.4801L10.4806 14.5201C9.97062 14.0001 9.64062 13.2801 9.64062 12.5001C9.64062 10.9301 10.9206 9.64014 12.5006 9.64014C13.2806 9.64014 14.0006 9.97014 14.5206 10.4801Z" fill="#474747"/>
<path d="M18.75 6.25018L15.36 9.64018C14.63 8.90018 13.62 8.46018 12.5 8.46018C10.26 8.46018 8.46 10.2702 8.46 12.5002C8.46 13.6202 8.91 14.6302 9.64 15.3602L6.26 18.7502H6.25C5.14 17.8502 4.12 16.7002 3.25 15.3402C2.25 13.7702 2.25 11.2202 3.25 9.65018C4.41 7.83017 5.83 6.40018 7.41 5.42018C8.99 4.46018 10.72 3.93018 12.5 3.93018C14.73 3.93018 16.89 4.75018 18.75 6.25018Z" fill="#474747"/>
<path d="M15.3601 12.5001C15.3601 14.0701 14.0801 15.3601 12.5001 15.3601C12.4401 15.3601 12.3901 15.3601 12.3301 15.3401L15.3401 12.3301C15.3601 12.3901 15.3601 12.4401 15.3601 12.5001Z" fill="#474747"/>
<path d="M22.2709 2.72988C21.9709 2.42988 21.4809 2.42988 21.1809 2.72988L2.73086 21.1899C2.43086 21.4899 2.43086 21.9799 2.73086 22.2799C2.88086 22.4199 3.07086 22.4999 3.27086 22.4999C3.47086 22.4999 3.66086 22.4199 3.81086 22.2699L22.2709 3.80988C22.5809 3.50988 22.5809 3.02988 22.2709 2.72988Z" fill="#474747"/>
</svg>
