<svg width="18" height="22" viewBox="0 0 18 22" fill="none" xmlns="http://www.w3.org/2000/svg">
<path d="M9 0.740234C8.60231 0.740657 0.721048 4.00305 0.439842 4.26454C0.158636 4.52603 0.000454817 4.88055 0 5.25035V10.3647C0 18.1628 7.1087 20.7494 8.53372 21.1887C8.83612 21.2841 9.16388 21.2841 9.46628 21.1887C10.8913 20.7494 18 18.1628 18 10.3647V5.25035C17.9995 4.88055 17.8414 4.52603 17.5602 4.26454C17.279 4.00305 9.39769 0.740657 9 0.740234ZM8.25 8.73737C8.25 8.55241 8.32902 8.37502 8.46967 8.24423C8.61032 8.11344 8.80109 8.03997 9 8.03997C9.19891 8.03997 9.38968 8.11344 9.53033 8.24423C9.67098 8.37502 9.75 8.55241 9.75 8.73737V12.2244C9.75 12.4093 9.67098 12.5867 9.53033 12.7175C9.38968 12.8483 9.19891 12.9218 9 12.9218C8.80109 12.9218 8.61032 12.8483 8.46967 12.7175C8.32902 12.5867 8.25 12.4093 8.25 12.2244V8.73737ZM9 16.4088C8.7775 16.4088 8.55999 16.3474 8.37498 16.2325C8.18998 16.1176 8.04578 15.9542 7.96064 15.763C7.87549 15.5719 7.85321 15.3615 7.89662 15.1586C7.94003 14.9557 8.04717 14.7693 8.2045 14.623C8.36184 14.4767 8.56229 14.3771 8.78052 14.3367C8.99875 14.2963 9.22495 14.317 9.43052 14.3962C9.63609 14.4754 9.81179 14.6095 9.9354 14.7815C10.059 14.9535 10.125 15.1558 10.125 15.3627C10.125 15.6401 10.0065 15.9062 9.7955 16.1024C9.58452 16.2986 9.29837 16.4088 9 16.4088Z" fill="#474747"/>
</svg>
