<svg width="21" height="21" viewBox="0 0 21 21" fill="none" xmlns="http://www.w3.org/2000/svg">
<path d="M5.94141 19.7879C5.76617 19.7879 5.59812 19.7183 5.47421 19.5944C5.3503 19.4705 5.28069 19.3025 5.28069 19.1272V16.4844H4.28962C3.50134 16.4835 2.7456 16.17 2.18821 15.6126C1.63081 15.0552 1.31728 14.2994 1.31641 13.5112V5.58259C1.31728 4.79431 1.63081 4.03857 2.18821 3.48118C2.7456 2.92378 3.50134 2.61025 4.28962 2.60938H16.8432C17.6315 2.61025 18.3872 2.92378 18.9446 3.48118C19.502 4.03857 19.8155 4.79431 19.8164 5.58259V13.5112C19.8155 14.2994 19.502 15.0552 18.9446 15.6126C18.3872 16.17 17.6315 16.4835 16.8432 16.4844H10.1427L6.36468 19.6347C6.24578 19.7336 6.09605 19.7878 5.94141 19.7879Z" fill="#474747"/>
</svg>
