<svg width="20" height="20" viewBox="0 0 20 20" fill="none" xmlns="http://www.w3.org/2000/svg">
<g clip-path="url(#clip0_2474_36237)">
<path d="M4.94922 11.9216C4.94922 12.7605 7.11481 13.2057 9.43861 13.268L9.43749 13.2812V16.5625C9.43749 17.1662 9.68884 18.75 9.99853 18.75C10.3082 18.75 10.5596 17.1662 10.5596 16.5625V13.2812L10.5584 13.268C12.8822 13.2057 15.0478 12.7605 15.0478 11.9216C15.0478 11.0313 14.2209 10.3816 12.8037 10.0316V4.36696C14.2209 3.89883 15.0478 3.14522 15.0478 2.60928C15.0478 0.796907 4.94922 0.796907 4.94922 2.60928C4.94922 3.19882 5.77618 3.93602 7.19336 4.38665V10.0316C5.77618 10.3827 4.94922 11.0313 4.94922 11.9216Z" fill="#474747"/>
<line y1="-0.5" x2="27.4874" y2="-0.5" transform="matrix(0.707287 0.706926 -0.707287 0.706926 0.5 0.600586)" stroke="#474747"/>
<line y1="-0.5" x2="27.4561" y2="-0.5" transform="matrix(0.707287 0.706926 -0.707287 0.706926 1.20703 -0.0629883)" stroke="white"/>
</g>
<defs>
<clipPath id="clip0_2474_36237">
<rect width="20" height="20" fill="white"/>
</clipPath>
</defs>
</svg>
