<svg width="44" height="41" viewBox="0 0 44 41" fill="none" xmlns="http://www.w3.org/2000/svg">
<rect y="0.921875" width="44" height="40" rx="5" fill="#4C5BD4"/>
<path d="M20 27.9224C20 29.0224 20.9 29.9224 22 29.9224C23.1 29.9224 24 29.0224 24 27.9224C24 26.8224 23.1 25.9224 22 25.9224C20.9 25.9224 20 26.8224 20 27.9224Z" stroke="white" stroke-width="1.5"/>
<path d="M20 13.9204C20 15.0204 20.9 15.9204 22 15.9204C23.1 15.9204 24 15.0204 24 13.9204C24 12.8204 23.1 11.9204 22 11.9204C20.9 11.9204 20 12.8204 20 13.9204Z" stroke="white" stroke-width="1.5"/>
<path d="M20 20.9229C20 22.0229 20.9 22.9229 22 22.9229C23.1 22.9229 24 22.0229 24 20.9229C24 19.8229 23.1 18.9229 22 18.9229C20.9 18.9229 20 19.8229 20 20.9229Z" stroke="white" stroke-width="1.5"/>
</svg>
