<svg width="21" height="20" viewBox="0 0 21 20" fill="none" xmlns="http://www.w3.org/2000/svg">
<path d="M10.7499 18.334C15.3416 18.334 19.0833 14.5923 19.0833 10.0007C19.0833 5.40898 15.3416 1.66732 10.7499 1.66732C6.15825 1.66732 2.41659 5.40898 2.41659 10.0007C2.41659 14.5923 6.15825 18.334 10.7499 18.334ZM11.3749 13.334C11.3749 13.6757 11.0916 13.959 10.7499 13.959C10.4083 13.959 10.1249 13.6757 10.1249 13.334L10.1249 9.16732C10.1249 8.82565 10.4083 8.54232 10.7499 8.54232C11.0916 8.54232 11.3749 8.82565 11.3749 9.16732V13.334ZM9.98325 6.35065C10.0249 6.24232 10.0833 6.15899 10.1583 6.07565C10.2416 6.00065 10.3333 5.94232 10.4333 5.90065C10.5333 5.85898 10.6416 5.83398 10.7499 5.83398C10.8583 5.83398 10.9666 5.85898 11.0666 5.90065C11.1666 5.94232 11.2583 6.00065 11.3416 6.07565C11.4166 6.15899 11.4749 6.24232 11.5166 6.35065C11.5583 6.45065 11.5833 6.55898 11.5833 6.66732C11.5833 6.77565 11.5583 6.88398 11.5166 6.98398C11.4749 7.08398 11.4166 7.17565 11.3416 7.25898C11.2583 7.33398 11.1666 7.39232 11.0666 7.43398C10.8666 7.51732 10.6333 7.51732 10.4333 7.43398C10.3333 7.39232 10.2416 7.33398 10.1583 7.25898C10.0833 7.17565 10.0249 7.08398 9.98325 6.98398C9.94159 6.88398 9.91659 6.77565 9.91659 6.66732C9.91659 6.55898 9.94159 6.45065 9.98325 6.35065Z" fill="#474747"/>
</svg>
