<svg width="20" height="20" viewBox="0 0 20 20" fill="none" xmlns="http://www.w3.org/2000/svg">
<path d="M2.04372 17.2127C1.97785 17.213 1.91238 17.2024 1.84997 17.1814C1.71944 17.139 1.60648 17.0549 1.52854 16.9419C1.4506 16.8289 1.41201 16.6935 1.41872 16.5564C1.41872 16.4627 2.06247 7.38766 11.1625 6.67516V3.41266C11.1624 3.2884 11.1993 3.16693 11.2685 3.06376C11.3378 2.96059 11.4362 2.88041 11.5513 2.83345C11.6663 2.7865 11.7928 2.7749 11.9144 2.80014C12.0361 2.82538 12.1475 2.88631 12.2343 2.97516L18.4031 9.27516C18.5176 9.39199 18.5818 9.54906 18.5818 9.71266C18.5818 9.87625 18.5176 10.0333 18.4031 10.1502L12.2343 16.4502C12.1475 16.539 12.0361 16.5999 11.9144 16.6252C11.7928 16.6504 11.6663 16.6388 11.5513 16.5919C11.4362 16.5449 11.3378 16.4647 11.2685 16.3616C11.1993 16.2584 11.1624 16.1369 11.1625 16.0127V12.8127C5.08747 13.0439 2.59684 16.8752 2.57184 16.922C2.51546 17.0111 2.43747 17.0844 2.34513 17.1352C2.2528 17.186 2.14911 17.2127 2.04372 17.2127Z" fill="#474747"/>
</svg>
