<svg width="20" height="20" viewBox="0 0 20 20" fill="none" xmlns="http://www.w3.org/2000/svg">
<path d="M16.9928 13.6828C15.8571 12.7229 15.2066 11.3235 15.2066 9.83963V7.74752C15.2066 5.10688 13.2446 2.92334 10.7059 2.55766V1.74894C10.7059 1.33404 10.3684 1 9.957 1C9.54561 1 9.20806 1.33052 9.20806 1.74543V2.55414C6.66588 2.92334 4.70737 5.10688 4.70737 7.74752V9.83963C4.70737 11.3235 4.05688 12.7264 2.91765 13.6898C2.62581 13.9395 2.45703 14.3016 2.45703 14.6849C2.45703 15.4092 3.04423 15.9964 3.76856 15.9964H16.1454C16.8698 15.9964 17.457 15.4092 17.457 14.6849C17.4605 14.3016 17.2917 13.9395 16.9928 13.6828Z" fill="#474747"/>
<path d="M9.95628 18.9994C11.3135 18.9994 12.4528 18.0324 12.713 16.749H7.20312C7.46332 18.0324 8.59904 18.9994 9.95628 18.9994Z" fill="#474747"/>
</svg>
