<svg width="25" height="25" viewBox="0 0 25 25" fill="none" xmlns="http://www.w3.org/2000/svg">
<circle cx="12.5" cy="12.5" r="12.5" fill="#4C5BD4"/>
<path d="M6.56248 10.25C5.70125 10.25 5 10.9512 5 11.8125V16.8125C5 17.6737 5.70125 18.3749 6.56248 18.3749H8.43747C8.78935 18.3749 9.11308 18.2562 9.37496 18.0587V10.25H6.56248Z" fill="white"/>
<path d="M19.9999 12.5937C19.9999 12.2181 19.8512 11.8681 19.5931 11.6099C19.8849 11.2906 20.0337 10.8624 19.993 10.4168C19.9199 9.62245 19.2043 8.99995 18.3631 8.99995H14.5025C14.6937 8.41932 15 7.35497 15 6.49998C15 5.14436 13.8481 4 13.125 4C12.4756 4 12.0118 4.36562 11.9919 4.38062C11.9181 4.44001 11.875 4.53001 11.875 4.62499V6.74434L10.075 10.6437L10 10.6818V17.3805C10.5087 17.6205 11.1525 17.7499 11.5625 17.7499H17.2993C17.98 17.7499 18.5756 17.2912 18.7156 16.6581C18.7874 16.3324 18.7456 16.0043 18.6024 15.7193C19.0643 15.4868 19.3749 15.0112 19.3749 14.4687C19.3749 14.2474 19.3243 14.0356 19.2281 13.8437C19.6899 13.6112 19.9999 13.1356 19.9999 12.5937Z" fill="white"/>
</svg>
