<svg width="28" height="29" viewBox="0 0 28 29" fill="none" xmlns="http://www.w3.org/2000/svg">
<path d="M19.5413 4.1845V2.3645C19.5413 1.88617 19.1446 1.4895 18.6663 1.4895C18.1879 1.4895 17.7913 1.88617 17.7913 2.3645V4.1145H10.2079V2.3645C10.2079 1.88617 9.81128 1.4895 9.33295 1.4895C8.85462 1.4895 8.45795 1.88617 8.45795 2.3645V4.1845C5.30795 4.47617 3.77962 6.3545 3.54628 9.14284C3.52295 9.48117 3.80295 9.76117 4.12962 9.76117H23.8696C24.2079 9.76117 24.4879 9.4695 24.4529 9.14284C24.2196 6.3545 22.6913 4.47617 19.5413 4.1845Z" fill="#666666"/>
<path d="M22.1667 17.5312C19.5883 17.5312 17.5 19.6196 17.5 22.1979C17.5 23.0729 17.745 23.9012 18.1767 24.6012C18.9817 25.9546 20.4633 26.8646 22.1667 26.8646C23.87 26.8646 25.3517 25.9546 26.1567 24.6012C26.5883 23.9012 26.8333 23.0729 26.8333 22.1979C26.8333 19.6196 24.745 17.5312 22.1667 17.5312ZM24.5817 21.6962L22.0967 23.9946C21.9333 24.1463 21.7117 24.2279 21.5017 24.2279C21.28 24.2279 21.0583 24.1463 20.8833 23.9713L19.7283 22.8163C19.39 22.4779 19.39 21.9179 19.7283 21.5796C20.0667 21.2412 20.6267 21.2412 20.965 21.5796L21.525 22.1396L23.3917 20.4129C23.7417 20.0862 24.3017 20.1096 24.6283 20.4596C24.955 20.8096 24.9317 21.3579 24.5817 21.6962Z" fill="#666666"/>
<path d="M23.3333 11.5112H4.66667C4.025 11.5112 3.5 12.0362 3.5 12.6779V19.8646C3.5 23.3646 5.25 25.6979 9.33333 25.6979H15.085C15.89 25.6979 16.45 24.9162 16.1933 24.1579C15.96 23.4812 15.7617 22.7346 15.7617 22.1979C15.7617 18.6629 18.6433 15.7812 22.1783 15.7812C22.5167 15.7812 22.855 15.8046 23.1817 15.8629C23.8817 15.9679 24.5117 15.4196 24.5117 14.7196V12.6896C24.5 12.0362 23.975 11.5112 23.3333 11.5112ZM10.745 21.2762C10.5233 21.4862 10.22 21.6146 9.91667 21.6146C9.61333 21.6146 9.31 21.4862 9.08833 21.2762C8.87833 21.0546 8.75 20.7512 8.75 20.4479C8.75 20.1446 8.87833 19.8412 9.08833 19.6196C9.205 19.5146 9.32167 19.4329 9.47333 19.3746C9.905 19.1879 10.4183 19.2929 10.745 19.6196C10.955 19.8412 11.0833 20.1446 11.0833 20.4479C11.0833 20.7512 10.955 21.0546 10.745 21.2762ZM10.745 17.1929C10.6867 17.2396 10.6283 17.2862 10.57 17.3329C10.5 17.3796 10.43 17.4146 10.36 17.4379C10.29 17.4729 10.22 17.4962 10.15 17.5079C10.0683 17.5196 9.98667 17.5312 9.91667 17.5312C9.61333 17.5312 9.31 17.4029 9.08833 17.1929C8.87833 16.9712 8.75 16.6679 8.75 16.3646C8.75 16.0612 8.87833 15.7579 9.08833 15.5362C9.35667 15.2679 9.765 15.1396 10.15 15.2212C10.22 15.2329 10.29 15.2562 10.36 15.2912C10.43 15.3146 10.5 15.3496 10.57 15.3962C10.6283 15.4429 10.6867 15.4896 10.745 15.5362C10.955 15.7579 11.0833 16.0612 11.0833 16.3646C11.0833 16.6679 10.955 16.9712 10.745 17.1929ZM14.8283 17.1929C14.6067 17.4029 14.3033 17.5312 14 17.5312C13.6967 17.5312 13.3933 17.4029 13.1717 17.1929C12.9617 16.9712 12.8333 16.6679 12.8333 16.3646C12.8333 16.0612 12.9617 15.7579 13.1717 15.5362C13.615 15.1046 14.3967 15.1046 14.8283 15.5362C15.0383 15.7579 15.1667 16.0612 15.1667 16.3646C15.1667 16.6679 15.0383 16.9712 14.8283 17.1929Z" fill="#666666"/>
</svg>
