<svg width="24" height="25" viewBox="0 0 24 25" fill="none" xmlns="http://www.w3.org/2000/svg">
<path d="M12.0016 2.52197C6.26159 2.52197 1.60156 7.182 1.60156 12.922C1.60156 18.6619 6.26159 23.322 12.0016 23.322C17.7311 23.322 22.3831 18.6786 22.3999 12.9528C22.401 12.9425 22.4015 12.9323 22.4016 12.922C22.4016 12.9127 22.4011 12.9035 22.4003 12.8943C22.3853 7.16703 17.7324 2.52197 12.0016 2.52197ZM12.0016 3.14597C12.0952 3.14597 12.1873 3.15013 12.2803 3.15284C12.4452 3.1884 12.5896 3.22564 12.6553 3.26744C12.8983 3.20484 12.9567 3.1988 12.9436 3.19194C14.1254 3.30437 15.2767 3.63247 16.3402 4.15997C16.3398 4.19034 16.3402 4.22196 16.3452 4.26148C15.975 4.353 16.822 5.0629 16.4833 5.50428C16.4386 6.11309 15.7196 6.85253 15.3799 6.81634C15.8179 7.39874 15.7397 8.42584 14.9774 8.34431C14.4065 8.36448 14.1517 8.93856 13.7456 9.24412C13.9291 8.68293 13.4076 8.64528 13.4721 8.2322C13.1102 8.48845 13.1479 8.65236 12.8327 8.1933C13.1531 7.95784 12.6655 7.3769 12.5428 7.31554C12.2564 7.47674 11.9571 7.39354 12.4022 7.73362C11.2721 8.0685 12.8727 8.8381 12.2445 9.56402C11.8555 10.4855 10.92 11.0132 9.96379 11.1276C10.2404 11.7632 8.98244 12.1149 9.46771 11.3304C9.76993 10.7222 8.28169 11.5918 9.11993 11.9458C9.6262 12.3604 9.78199 13.4122 9.0099 13.6414C8.5731 14.1421 8.37966 13.8713 8.0687 13.4278C7.72945 12.4569 7.11086 13.4728 7.58718 13.9957C8.25132 14.5207 8.26796 15.1453 8.48678 15.8221C8.31684 16.2951 9.67051 16.3991 9.03319 16.6437C8.17977 16.6604 9.60374 17.534 9.77201 17.1352C10.2508 17.3954 11.2883 17.3328 10.769 17.5959C11.3435 17.6637 12.3296 17.7811 11.6473 17.0115C11.4025 16.6192 11.5874 15.8768 12.1372 15.5634C12.5969 16.0517 13.307 14.9144 13.1302 15.6844C12.7614 15.9777 12.4989 16.2464 13.1813 16.2708C13.4563 16.8729 14.1985 16.3342 14.0628 15.9261C14.4593 15.8144 15.2817 15.9436 15.6607 16.0875C16.2882 16.0869 17.317 16.2244 17.5843 16.6616C17.8002 16.3995 18.5007 16.5792 18.3013 16.0977C17.9321 15.9636 18.1197 15.4696 18.4525 15.9274C18.9036 15.9573 19.1796 16.7153 19.7458 16.7065C20.1764 17.4703 19.2281 16.9788 19.3552 16.7951C19.0315 17.5335 18.903 15.788 18.5787 16.475C18.222 16.6674 17.3917 17.2301 18.1172 17.2001C18.5929 17.026 18.0209 18.1715 17.4969 17.5797C16.8401 16.844 16.4045 18.2486 17.0069 18.4467C17.026 18.9396 17.4445 19.2331 17.6413 19.6402C18.1598 20.1568 16.9811 20.9838 16.5597 21.3967C16.3579 21.482 16.152 21.6931 15.9573 21.8631C15.7863 21.9388 15.6135 22.0105 15.4377 22.0765C15.3732 22.044 15.3135 21.9779 15.2601 21.8612C14.6981 21.8333 14.3366 21.4321 13.6847 21.4354C12.8119 21.5022 11.7788 22.0761 10.9911 21.6819C11.0564 21.1178 9.85999 20.1635 11.0161 19.9062C11.914 19.969 12.3439 19.2518 12.9875 18.8094C13.4245 18.5779 14.0691 19.0827 14.0539 18.3795C14.0824 17.9468 15.3697 18.159 15.5286 18.1873C15.3512 18.7537 15.226 18.9881 15.9787 18.9317C16.1025 19.3421 16.7188 17.717 16.3733 17.7066C16.0844 17.4501 15.2588 17.7684 15.9011 17.2538C15.6 16.5376 14.5173 17.2089 14.4934 16.3677C13.9135 16.3053 15.0338 17.2361 14.1494 16.7644C13.376 17.0776 12.995 16.3989 12.3367 16.4137C12.6844 16.7585 13.1033 17.5464 12.34 17.2448C11.9053 16.5487 12.0321 17.4707 12.1917 17.6488C12.2915 17.1319 12.3231 17.9934 12.7811 17.6041C13.146 17.2891 14.3694 17.7621 13.5478 17.6789C13.6425 17.7409 12.0213 18.7749 12.5975 17.9701C12.6016 17.7205 11.7923 18.0542 12.3367 18.1646C11.7513 18.2599 11.0805 17.7769 10.3806 17.7962C9.58107 17.706 8.72057 17.5982 8.18206 16.9447C7.76668 16.3427 7.12001 16.4748 7.02495 15.6443C6.88393 15.2345 6.39659 14.7052 6.44859 14.2769C7.0158 14.2145 7.76959 15.6497 7.39228 14.5076C6.99375 14.0136 6.87228 13.2633 7.0834 12.6713C7.14414 12.0698 6.89953 12.0769 6.5087 12.1578C6.40553 11.6887 6.5139 10.4391 5.62782 10.7954C5.12695 11.332 4.22985 11.6324 4.21217 12.4427C3.97713 12.7604 4.68641 14.1991 3.99065 13.7837C4.03662 13.1774 3.92305 13.3061 3.67387 13.3078C3.41948 12.4203 3.43279 11.4514 3.54262 10.5597C3.08855 10.1344 3.81676 9.58274 2.97478 9.47292C2.78404 9.09332 2.82252 10.266 2.49492 10.644C3.52036 6.34231 7.38355 3.14597 12.0016 3.14597ZM15.5153 4.1165C15.4947 4.11444 15.4739 4.11514 15.4535 4.11858C15.3599 4.1348 15.3004 4.21426 15.3807 4.36506C14.8237 4.1321 13.4035 4.6702 14.5897 4.972C14.545 4.66271 15.6744 5.82772 15.1625 5.72247C15.3951 6.01845 15.4331 6.12952 15.2455 6.10935C15.331 6.30071 15.5735 6.36519 15.7572 6.28594C16.6995 5.9078 16.2377 5.04085 15.711 4.52917C15.8408 4.27687 15.6655 4.13085 15.5153 4.1165ZM17.8767 5.10616C17.9267 5.1436 17.9745 5.18354 18.0238 5.22181C17.8499 5.19831 17.8395 5.1592 17.8767 5.10616ZM14.7484 5.34058C14.7239 5.33205 14.7314 5.42607 14.7963 5.68503C14.7509 6.4538 14.087 6.65805 13.6094 6.86605C12.9656 7.31367 13.8644 7.5953 13.7151 8.20744C13.6562 8.31768 13.8544 8.32039 13.8586 8.23344C14.1831 7.72197 14.6819 7.93809 14.936 7.54912C15.3841 7.50337 14.847 6.74957 15.1378 6.49519C15.1806 6.31423 14.8212 5.36616 14.7482 5.34058H14.7484ZM12.2029 10.2136C12.3387 10.2225 12.414 10.3675 12.2354 10.7274C12.1549 10.8902 12.3194 11.1184 11.9132 10.9354C11.5816 10.561 11.9764 10.1984 12.2029 10.2136ZM12.1395 11.5311C12.3464 11.5103 12.5526 11.7645 12.4669 12.2067C11.9595 12.5894 13.0667 12.6004 13.011 13.0033C13.386 13.3785 13.7758 14.8753 12.8841 14.7347C12.5122 13.8811 12.283 15.0099 11.685 14.9764C11.0531 15.1744 11.9623 15.6538 11.5325 15.902C11.1569 15.9411 11.161 17.1088 10.8711 16.9451C10.6639 16.7531 9.62599 16.9091 9.48996 16.3479C9.01739 16.0655 9.3974 15.2757 9.09102 14.815C9.39054 14.8676 9.55735 15.9611 9.93279 15.1815C10.7756 14.9843 11.0231 14.0901 11.5542 13.5545C12.0877 13.1212 11.7387 12.7048 11.7934 12.1197C11.8175 11.7297 11.9785 11.5471 12.1395 11.5311ZM12.0321 13.2945C11.8791 13.7789 10.7288 14.2929 11.6906 14.6923L11.8462 14.6933L11.8953 14.6475C12.4169 14.463 12.2971 13.8226 12.293 13.4241C12.045 13.5021 12.1147 13.5422 12.0321 13.2945ZM13.8444 15.4036C13.9582 15.4155 14.0063 15.581 13.8303 15.9777C13.9522 16.2159 13.6265 16.6063 13.4659 16.2687C13.2839 15.7924 13.6552 15.3843 13.8444 15.4038V15.4036Z" fill="#474747"/>
</svg>
