<svg width="20" height="20" viewBox="0 0 20 20" fill="none" xmlns="http://www.w3.org/2000/svg">
<path d="M9.9987 1.3335C5.21539 1.3335 1.33203 5.21686 1.33203 10.0002C1.33203 14.7835 5.21539 18.6668 9.9987 18.6668C14.7733 18.6668 18.6499 14.7973 18.664 10.0258C18.6649 10.0173 18.6653 10.0087 18.6654 10.0002C18.6654 9.99247 18.665 9.98477 18.6643 9.97711C18.6518 5.20438 14.7744 1.3335 9.9987 1.3335ZM9.9987 1.8535C10.0767 1.8535 10.1535 1.85696 10.231 1.85922C10.3684 1.88886 10.4887 1.91988 10.5435 1.95472C10.7459 1.90255 10.7946 1.89752 10.7837 1.8918C11.7686 1.98549 12.728 2.25891 13.6143 2.6985C13.6139 2.7238 13.6143 2.75015 13.6184 2.78308C13.3099 2.85935 14.0157 3.45094 13.7335 3.81875C13.6962 4.3261 13.097 4.9423 12.814 4.91214C13.179 5.39747 13.1138 6.25339 12.4786 6.18544C12.0028 6.20226 11.7904 6.68066 11.4521 6.93528C11.605 6.46763 11.1704 6.43626 11.2242 6.09202C10.9226 6.30556 10.9539 6.44215 10.6913 6.0596C10.9583 5.86339 10.552 5.37927 10.4497 5.32814C10.211 5.46247 9.9616 5.39314 10.3325 5.67654C9.39082 5.9556 10.7246 6.59694 10.2012 7.20187C9.87702 7.96974 9.09736 8.40948 8.30055 8.50482C8.53108 9.03452 7.48276 9.32763 7.88715 8.67382C8.139 8.16699 6.8988 8.8917 7.59734 9.18671C8.01923 9.53216 8.14906 10.4087 7.50564 10.5997C7.14164 11.0169 6.98044 10.7913 6.72131 10.4217C6.4386 9.61259 5.92311 10.4591 6.32004 10.8949C6.8735 11.3324 6.88736 11.8529 7.06971 12.4169C6.9281 12.8111 8.05615 12.8978 7.52506 13.1016C6.81387 13.1155 8.00051 13.8435 8.14074 13.5112C8.53975 13.728 9.40434 13.6759 8.97152 13.8951C9.45027 13.9516 10.272 14.0494 9.70351 13.4081C9.4995 13.0812 9.65359 12.4625 10.1117 12.2013C10.4948 12.6083 11.0865 11.6605 10.9392 12.3022C10.6319 12.5466 10.4131 12.7705 10.9818 12.7908C11.211 13.2926 11.8294 12.8437 11.7164 12.5036C12.0468 12.4105 12.7322 12.5182 13.048 12.6381C13.5709 12.6376 14.4282 12.7522 14.651 13.1165C14.8309 12.8981 15.4147 13.0479 15.2484 12.6466C14.9408 12.5348 15.0971 12.1231 15.3745 12.5047C15.7504 12.5296 15.9804 13.1612 16.4522 13.154C16.811 13.7904 16.0208 13.3809 16.1267 13.2278C15.857 13.8431 15.7499 12.3885 15.4797 12.961C15.1824 13.1214 14.4905 13.5902 15.095 13.5653C15.4915 13.4202 15.0148 14.3747 14.5782 13.8816C14.0308 13.2685 13.6678 14.4391 14.1698 14.6041C14.1857 15.0149 14.5345 15.2594 14.6985 15.5987C15.1306 16.0292 14.1483 16.7184 13.7971 17.0625C13.629 17.1335 13.4574 17.3095 13.2951 17.4511C13.1527 17.5142 13.0086 17.574 12.8622 17.6289C12.8084 17.6019 12.7587 17.5467 12.7141 17.4495C12.2458 17.4263 11.9445 17.0919 11.4013 17.0947C10.674 17.1503 9.81306 17.6286 9.15664 17.3001C9.21107 16.83 8.21406 16.0348 9.17744 15.8203C9.92572 15.8727 10.284 15.275 10.8203 14.9064C11.1845 14.7134 11.7216 15.1341 11.709 14.5481C11.7327 14.1875 12.8055 14.3643 12.9379 14.3879C12.7901 14.8599 12.6857 15.0553 13.313 15.0083C13.4161 15.3503 13.9297 13.996 13.6418 13.9873C13.4011 13.7736 12.7131 14.0388 13.2484 13.61C12.9974 13.0132 12.0952 13.5726 12.0752 12.8716C11.592 12.8196 12.5256 13.5953 11.7885 13.2021C11.1441 13.4632 10.8265 12.8976 10.2779 12.9099C10.5678 13.1973 10.9168 13.8539 10.2807 13.6025C9.91844 13.0224 10.0242 13.7908 10.1571 13.9392C10.2403 13.5084 10.2667 14.2264 10.6484 13.9019C10.9524 13.6395 11.9719 14.0336 11.2873 13.9643C11.3661 14.0159 10.0152 14.8776 10.4953 14.207C10.4988 13.999 9.82432 14.277 10.2779 14.369C9.79018 14.4484 9.23118 14.0459 8.64791 14.0621C7.98162 13.9868 7.26454 13.897 6.81578 13.3524C6.46963 12.8508 5.93074 12.9609 5.85152 12.2687C5.734 11.9273 5.32788 11.4861 5.37122 11.1293C5.8439 11.0773 6.47206 12.2733 6.15763 11.3215C5.82552 10.9098 5.7243 10.2846 5.90023 9.79129C5.95084 9.29002 5.747 9.29591 5.42131 9.36334C5.33534 8.97247 5.42564 7.93108 4.68724 8.228C4.26986 8.6752 3.52227 8.9255 3.50754 9.6008C3.31167 9.86548 3.90274 11.0644 3.32294 10.7183C3.36124 10.213 3.2666 10.3203 3.05895 10.3217C2.84696 9.58208 2.85806 8.7747 2.94958 8.03162C2.57119 7.67715 3.17803 7.21747 2.47638 7.12595C2.31743 6.80962 2.3495 7.78687 2.0765 8.10182C2.93103 4.51711 6.15035 1.8535 9.9987 1.8535ZM12.9268 2.66227C12.9097 2.66055 12.8923 2.66114 12.8753 2.664C12.7973 2.67752 12.7478 2.74374 12.8147 2.8694C12.3505 2.67527 11.167 3.12368 12.1555 3.37519C12.1182 3.11744 13.0594 4.08828 12.6328 4.00058C12.8266 4.24723 12.8584 4.33979 12.702 4.32298C12.7732 4.48244 12.9754 4.53618 13.1284 4.47014C13.9136 4.15502 13.5288 3.43256 13.0899 3.00616C13.1981 2.79591 13.052 2.67423 12.9268 2.66227V2.66227ZM14.8947 3.48699C14.9363 3.51819 14.9761 3.55147 15.0172 3.58336C14.8723 3.56378 14.8636 3.53119 14.8947 3.48699ZM12.2877 3.68234C12.2673 3.67523 12.2735 3.75358 12.3276 3.96938C12.2898 4.61002 11.7365 4.78023 11.3386 4.95356C10.8021 5.32658 11.5511 5.56127 11.4266 6.07139C11.3776 6.16326 11.5428 6.16551 11.5462 6.09306C11.8166 5.66683 12.2323 5.84692 12.4441 5.52279C12.8174 5.48466 12.3699 4.8565 12.6122 4.64451C12.6479 4.49371 12.3484 3.70366 12.2876 3.68234H12.2877ZM10.1665 7.74319C10.2797 7.75064 10.3424 7.87146 10.1935 8.17132C10.1264 8.30704 10.2636 8.49719 9.92503 8.34466C9.64874 8.03266 9.97772 7.73054 10.1665 7.74319ZM10.1136 8.84108C10.2861 8.82375 10.4579 9.03556 10.3864 9.40407C9.96368 9.723 10.8863 9.73219 10.8399 10.0679C11.1524 10.3806 11.4772 11.6279 10.7342 11.5108C10.4242 10.7994 10.2332 11.7401 9.73488 11.7122C9.2083 11.8772 9.96594 12.2767 9.60783 12.4835C9.29479 12.5161 9.29826 13.4892 9.05663 13.3528C8.88399 13.1928 8.01906 13.3228 7.9057 12.8551C7.51188 12.6197 7.82856 11.9616 7.57324 11.5777C7.82284 11.6215 7.96186 12.5327 8.27472 11.8831C8.97707 11.7188 9.18334 10.9736 9.62586 10.5273C10.0705 10.1662 9.7796 9.8192 9.82519 9.33162C9.8453 9.00662 9.97946 8.85443 10.1136 8.84108ZM10.0242 10.3106C9.8966 10.7143 8.93807 11.1426 9.73956 11.4754L9.86922 11.4763L9.91012 11.4381C10.3448 11.2844 10.245 10.7507 10.2415 10.4186C10.0349 10.4836 10.093 10.517 10.0242 10.3106V10.3106ZM11.5344 12.0682C11.6292 12.0781 11.6693 12.2161 11.5226 12.5466C11.6242 12.7451 11.3528 13.0704 11.219 12.7891C11.0673 12.3922 11.3767 12.0521 11.5344 12.0684V12.0682Z" fill="#666666"/>
</svg>
