<svg width="21" height="20" viewBox="0 0 21 20" fill="none" xmlns="http://www.w3.org/2000/svg">
<path fill-rule="evenodd" clip-rule="evenodd" d="M4.91634 16.666H16.583C16.804 16.666 17.016 16.7538 17.1723 16.9101C17.3285 17.0664 17.4163 17.2783 17.4163 17.4993C17.4163 17.7204 17.3285 17.9323 17.1723 18.0886C17.016 18.2449 16.804 18.3327 16.583 18.3327H4.91634C4.69533 18.3327 4.48337 18.2449 4.32709 18.0886C4.17081 17.9323 4.08301 17.7204 4.08301 17.4993C4.08301 17.2783 4.17081 17.0664 4.32709 16.9101C4.48337 16.7538 4.69533 16.666 4.91634 16.666ZM4.08301 12.4993L12.4163 4.16602L14.9163 6.66602L6.58301 14.9993H4.08301V12.4993ZM13.2497 3.33268L14.9163 1.66602L17.4163 4.16602L15.7488 5.83352L13.2497 3.33268Z" fill="#4C5BD4"/>
</svg>
