<svg width="20" height="20" viewBox="0 0 20 20" fill="none" xmlns="http://www.w3.org/2000/svg">
<path fill-rule="evenodd" clip-rule="evenodd" d="M4.16536 16.6665H15.832C16.053 16.6665 16.265 16.7543 16.4213 16.9106C16.5776 17.0669 16.6654 17.2788 16.6654 17.4998C16.6654 17.7209 16.5776 17.9328 16.4213 18.0891C16.265 18.2454 16.053 18.3332 15.832 18.3332H4.16536C3.94435 18.3332 3.73239 18.2454 3.57611 18.0891C3.41983 17.9328 3.33203 17.7209 3.33203 17.4998C3.33203 17.2788 3.41983 17.0669 3.57611 16.9106C3.73239 16.7543 3.94435 16.6665 4.16536 16.6665ZM3.33203 12.4998L11.6654 4.1665L14.1654 6.6665L5.83203 14.9998H3.33203V12.4998ZM12.4987 3.33317L14.1654 1.6665L16.6654 4.1665L14.9979 5.834L12.4987 3.33317Z" fill="#474747"/>
</svg>
