<svg width="37" height="36" viewBox="0 0 37 36" fill="none" xmlns="http://www.w3.org/2000/svg">
<path d="M22.4448 17.2689L9.99219 15.0752V31.2853C9.99234 31.4614 10.0272 31.6358 10.0947 31.7984C10.1622 31.9611 10.2611 32.1088 10.3858 32.2332C10.5104 32.3576 10.6583 32.4563 10.821 32.5235C10.9838 32.5908 11.1582 32.6253 11.3343 32.6252H32.8218C32.9981 32.6256 33.1728 32.5913 33.3358 32.5242C33.4988 32.4571 33.647 32.3585 33.7718 32.234C33.8967 32.1096 33.9958 31.9617 34.0635 31.7989C34.1311 31.6361 34.166 31.4616 34.1662 31.2853V25.3127L22.4448 17.2689Z" fill="#185C37"/>
<path d="M22.4448 3.375H11.3343C11.1582 3.37485 10.9838 3.40939 10.821 3.47665C10.6583 3.5439 10.5104 3.64256 10.3858 3.76697C10.2611 3.89139 10.1622 4.03914 10.0947 4.20178C10.0272 4.36442 9.99234 4.53877 9.99219 4.71488V10.6875L22.4448 18L29.0384 20.1938L34.1662 18V10.6875L22.4448 3.375Z" fill="#21A366"/>
<path d="M9.99219 10.6875H22.4448V18H9.99219V10.6875Z" fill="#107C41"/>
<path opacity="0.1" d="M18.9044 9.22461H9.99219V27.5059H18.9044C19.2596 27.5041 19.5997 27.3625 19.8511 27.1117C20.1025 26.8609 20.245 26.5211 20.2477 26.166V10.5645C20.245 10.2094 20.1025 9.8696 19.8511 9.6188C19.5997 9.368 19.2596 9.22638 18.9044 9.22461Z" fill="black"/>
<path opacity="0.2" d="M18.1721 9.95605H9.99219V28.2373H18.1721C18.5272 28.2355 18.8673 28.0939 19.1187 27.8431C19.3702 27.5923 19.5127 27.2525 19.5153 26.8974V11.2959C19.5127 10.9408 19.3702 10.601 19.1187 10.3502C18.8673 10.0994 18.5272 9.95782 18.1721 9.95605Z" fill="black"/>
<path opacity="0.2" d="M18.1721 9.95605H9.99219V26.7748H18.1721C18.5272 26.773 18.8673 26.6314 19.1187 26.3806C19.3702 26.1298 19.5127 25.79 19.5153 25.4349V11.2959C19.5127 10.9408 19.3702 10.601 19.1187 10.3502C18.8673 10.0994 18.5272 9.95782 18.1721 9.95605Z" fill="black"/>
<path opacity="0.2" d="M17.4397 9.95605H9.99219V26.7748H17.4397C17.7948 26.773 18.1349 26.6314 18.3864 26.3806C18.6378 26.1298 18.7803 25.79 18.7829 25.4349V11.2959C18.7803 10.9408 18.6378 10.601 18.3864 10.3502C18.1349 10.0994 17.7948 9.95782 17.4397 9.95605Z" fill="black"/>
<path d="M4.00927 9.95606H17.4395C17.7953 9.95576 18.1366 10.0967 18.3885 10.348C18.6403 10.5992 18.7822 10.9402 18.7828 11.2959V24.7037C18.7822 25.0594 18.6403 25.4004 18.3885 25.6517C18.1366 25.9029 17.7953 26.0439 17.4395 26.0436H4.00927C3.83307 26.0439 3.65854 26.0094 3.49566 25.9422C3.33277 25.875 3.18473 25.7764 3.05998 25.652C2.93523 25.5275 2.83623 25.3797 2.76863 25.217C2.70103 25.0543 2.66616 24.8799 2.66602 24.7037V11.2959C2.66616 11.1197 2.70103 10.9453 2.76863 10.7826C2.83623 10.6199 2.93523 10.4721 3.05998 10.3476C3.18473 10.2232 3.33277 10.1246 3.49566 10.0574C3.65854 9.99019 3.83307 9.95576 4.00927 9.95606Z" fill="url(#paint0_linear_2075_46573)"/>
<path d="M6.82861 22.3568L9.65349 17.9873L7.06599 13.6426H9.14386L10.5557 16.4247C10.6862 16.688 10.7807 16.8837 10.8235 17.0142H10.8426C10.9349 16.8027 11.0327 16.5991 11.1351 16.4L12.6449 13.6471H14.5574L11.9035 17.9671L14.6249 22.3602H12.5897L10.9585 19.3103C10.8827 19.1792 10.8184 19.0418 10.7661 18.8997H10.7391C10.6915 19.0382 10.6281 19.1707 10.5501 19.2946L8.87049 22.3568H6.82861Z" fill="white"/>
<path d="M32.8225 3.375H22.4443V10.6875H34.1657V4.71488C34.1656 4.53868 34.1307 4.36424 34.0631 4.20152C33.9955 4.03881 33.8965 3.89101 33.7718 3.76658C33.647 3.64214 33.499 3.54351 33.3361 3.47633C33.1732 3.40914 32.9987 3.37471 32.8225 3.375Z" fill="#33C481"/>
<path d="M22.4443 18H34.1657V25.3125H22.4443V18Z" fill="#107C41"/>
<defs>
<linearGradient id="paint0_linear_2075_46573" x1="5.47177" y1="8.90306" x2="15.977" y2="27.0966" gradientUnits="userSpaceOnUse">
<stop stop-color="#18884F"/>
<stop offset="0.5" stop-color="#117E43"/>
<stop offset="1" stop-color="#0B6631"/>
</linearGradient>
</defs>
</svg>
