<svg width="24" height="25" viewBox="0 0 24 25" fill="none" xmlns="http://www.w3.org/2000/svg">
<path d="M9.28065 12.9219C9.28065 13.6181 9.55721 14.2857 10.0495 14.778C10.5418 15.2703 11.2095 15.5469 11.9057 15.5469C12.6018 15.5469 13.2695 15.2703 13.7618 14.778C14.2541 14.2857 14.5307 13.6181 14.5307 12.9219C14.5307 12.2257 14.2541 11.558 13.7618 11.0657C13.2695 10.5734 12.6018 10.2969 11.9057 10.2969C11.2095 10.2969 10.5418 10.5734 10.0495 11.0657C9.55721 11.558 9.28065 12.2257 9.28065 12.9219ZM22.0822 12.3172C19.8603 7.63672 16.5017 5.28125 11.9994 5.28125C7.49472 5.28125 4.13847 7.63672 1.91659 12.3195C1.82747 12.5082 1.78125 12.7143 1.78125 12.923C1.78125 13.1317 1.82747 13.3379 1.91659 13.5266C4.13847 18.207 7.49706 20.5625 11.9994 20.5625C16.5041 20.5625 19.8603 18.207 22.0822 13.5242C22.2627 13.1445 22.2627 12.7039 22.0822 12.3172ZM11.9057 17.0469C9.62753 17.0469 7.78065 15.2 7.78065 12.9219C7.78065 10.6438 9.62753 8.79688 11.9057 8.79688C14.1838 8.79688 16.0307 10.6438 16.0307 12.9219C16.0307 15.2 14.1838 17.0469 11.9057 17.0469Z" fill="#474747"/>
</svg>
