<svg width="40" height="40" viewBox="0 0 40 40" fill="none" xmlns="http://www.w3.org/2000/svg">
<rect width="40" height="40" rx="20" fill="#666666" fill-opacity="0.5"/>
<path d="M30 12.8497V24.7397C30 25.7097 29.21 26.5997 28.24 26.7197L27.93 26.7597C26.29 26.9797 23.98 27.6597 22.12 28.4397C21.47 28.7097 20.75 28.2197 20.75 27.5097V13.5997C20.75 13.2297 20.96 12.8897 21.29 12.7097C23.12 11.7197 25.89 10.8397 27.77 10.6797H27.83C29.03 10.6797 30 11.6497 30 12.8497Z" fill="white"/>
<path d="M18.7102 12.7097C16.8802 11.7197 14.1102 10.8397 12.2302 10.6797H12.1602C10.9602 10.6797 9.99023 11.6497 9.99023 12.8497V24.7397C9.99023 25.7097 10.7802 26.5997 11.7502 26.7197L12.0602 26.7597C13.7002 26.9797 16.0102 27.6597 17.8702 28.4397C18.5202 28.7097 19.2402 28.2197 19.2402 27.5097V13.5997C19.2402 13.2197 19.0402 12.8897 18.7102 12.7097ZM13.0002 15.7397H15.2502C15.6602 15.7397 16.0002 16.0797 16.0002 16.4897C16.0002 16.9097 15.6602 17.2397 15.2502 17.2397H13.0002C12.5902 17.2397 12.2502 16.9097 12.2502 16.4897C12.2502 16.0797 12.5902 15.7397 13.0002 15.7397ZM16.0002 20.2397H13.0002C12.5902 20.2397 12.2502 19.9097 12.2502 19.4897C12.2502 19.0797 12.5902 18.7397 13.0002 18.7397H16.0002C16.4102 18.7397 16.7502 19.0797 16.7502 19.4897C16.7502 19.9097 16.4102 20.2397 16.0002 20.2397Z" fill="white"/>
</svg>
