<svg width="40" height="40" viewBox="0 0 40 40" fill="none" xmlns="http://www.w3.org/2000/svg">
<rect width="40" height="40" rx="20" fill="#666666" fill-opacity="0.5"/>
<g clip-path="url(#clip0_2057_18966)">
<path d="M13.0723 8C10.2624 8 8 10.2624 8 13.0723V26.9277C8 29.7376 10.2624 32 13.0723 32H26.9277C29.7376 32 32 29.7376 32 26.9277V13.0723C32 10.2624 29.7376 8 26.9277 8H13.0723ZM14 13H26V27H14V13ZM15 14V14.5V18H19V14H15ZM20 14V15H25V14H20ZM16 15H18V17H16V15ZM20 16V17H25V16H20ZM15 19V20H25V19H15ZM15 21V22H20V21H15ZM23 22C21.9014 22 21 22.9014 21 24C21 25.0987 21.9014 26 23 26C24.0986 26 25 25.0987 25 24C25 22.9014 24.0986 22 23 22ZM15 23V24H20V23H15ZM23 23C23.5582 23 24 23.4418 24 24C24 24.5582 23.5582 25 23 25C22.4418 25 22 24.5582 22 24C22 23.4418 22.4418 23 23 23ZM15 25V26H20V25H15Z" fill="white"/>
</g>
<defs>
<clipPath id="clip0_2057_18966">
<rect width="24" height="24" fill="white" transform="translate(8 8)"/>
</clipPath>
</defs>
</svg>
