<svg width="40" height="40" viewBox="0 0 40 40" fill="none" xmlns="http://www.w3.org/2000/svg">
<rect width="40" height="40" rx="20" fill="#666666" fill-opacity="0.5"/>
<path d="M15.05 30.8643C14.8397 30.8643 14.6381 30.7808 14.4894 30.6321C14.3407 30.4834 14.2571 30.2817 14.2571 30.0714V26.9H13.0679C12.1219 26.899 11.215 26.5227 10.5462 25.8538C9.87728 25.185 9.50105 24.2781 9.5 23.3321V13.8179C9.50105 12.8719 9.87728 11.965 10.5462 11.2962C11.215 10.6273 12.1219 10.251 13.0679 10.25H28.1321C29.0781 10.251 29.985 10.6273 30.6538 11.2962C31.3227 11.965 31.699 12.8719 31.7 13.8179V23.3321C31.699 24.2781 31.3227 25.185 30.6538 25.8538C29.985 26.5227 29.0781 26.899 28.1321 26.9H20.0916L15.5579 30.6804C15.4152 30.7991 15.2356 30.8641 15.05 30.8643Z" fill="white"/>
</svg>
