<svg width="40" height="40" viewBox="0 0 40 40" fill="none" xmlns="http://www.w3.org/2000/svg">
<rect width="40" height="40" rx="20" fill="#666666" fill-opacity="0.5"/>
<path d="M30.5295 21.4197L29.0795 19.9697L30.4795 18.5697C30.7695 18.2797 30.7695 17.7997 30.4795 17.5097C30.1895 17.2197 29.7095 17.2197 29.4195 17.5097L28.0195 18.9097L26.5695 17.4597C26.2795 17.1697 25.7995 17.1697 25.5095 17.4597C25.2195 17.7497 25.2195 18.2297 25.5095 18.5197L26.9595 19.9697L25.4695 21.4597C25.1795 21.7497 25.1795 22.2297 25.4695 22.5197C25.6195 22.6697 25.8095 22.7397 25.9995 22.7397C26.1895 22.7397 26.3795 22.6697 26.5295 22.5197L28.0195 21.0297L29.4695 22.4797C29.6195 22.6297 29.8095 22.6997 29.9995 22.6997C30.1895 22.6997 30.3795 22.6297 30.5295 22.4797C30.8195 22.1897 30.8195 21.7197 30.5295 21.4197Z" fill="white"/>
<path d="M22.02 11.7797C20.9 11.1597 19.47 11.3197 18.01 12.2297L15.09 14.0597C14.89 14.1797 14.66 14.2497 14.43 14.2497H13.5H13C10.58 14.2497 9.25 15.5797 9.25 17.9997V21.9997C9.25 24.4197 10.58 25.7497 13 25.7497H13.5H14.43C14.66 25.7497 14.89 25.8197 15.09 25.9397L18.01 27.7697C18.89 28.3197 19.75 28.5897 20.55 28.5897C21.07 28.5897 21.57 28.4697 22.02 28.2197C23.13 27.5997 23.75 26.3097 23.75 24.5897V15.4097C23.75 13.6897 23.13 12.3997 22.02 11.7797Z" fill="white"/>
</svg>
