<svg width="20" height="22" viewBox="0 0 20 22" fill="none" xmlns="http://www.w3.org/2000/svg">
<g clip-path="url(#clip0_2011_111392)">
<path d="M5 12.9376C5 13.8964 7.4125 14.4051 10.0013 14.4764L10 14.4914V18.2414C10 18.9314 10.28 20.7414 10.625 20.7414C10.97 20.7414 11.25 18.9314 11.25 18.2414V14.4914L11.2487 14.4764C13.8375 14.4051 16.25 13.8964 16.25 12.9376C16.25 11.9201 15.3287 11.1776 13.75 10.7776V4.30389C15.3287 3.76889 16.25 2.90764 16.25 2.29514C16.25 0.223887 5 0.223887 5 2.29514C5 2.96889 5.92125 3.81139 7.5 4.32639V10.7776C5.92125 11.1789 5 11.9201 5 12.9376Z" fill="#474747"/>
</g>
<defs>
<clipPath id="clip0_2011_111392">
<rect width="20" height="20.5175" fill="white" transform="translate(0 0.741211)"/>
</clipPath>
</defs>
</svg>
