<svg width="44" height="45" viewBox="0 0 44 45" fill="none" xmlns="http://www.w3.org/2000/svg">
<rect y="0.929688" width="44" height="44" rx="22" fill="#4C5BD4"/>
<path d="M31.3786 16.8863L24.6586 12.1847C22.827 10.9013 20.0153 10.9713 18.2536 12.3363L12.4086 16.898C11.242 17.808 10.3203 19.6747 10.3203 21.1447V29.1947C10.3203 32.1697 12.7353 34.5963 15.7103 34.5963H28.287C31.262 34.5963 33.677 32.1813 33.677 29.2063V21.2963C33.677 19.7213 32.662 17.7847 31.3786 16.8863ZM22.8736 29.9297C22.8736 30.408 22.477 30.8047 21.9986 30.8047C21.5203 30.8047 21.1236 30.408 21.1236 29.9297V26.4297C21.1236 25.9513 21.5203 25.5547 21.9986 25.5547C22.477 25.5547 22.8736 25.9513 22.8736 26.4297V29.9297Z" fill="white"/>
</svg>
