<svg width="44" height="45" viewBox="0 0 44 45" fill="none" xmlns="http://www.w3.org/2000/svg">
<rect y="0.929688" width="44" height="44" rx="22" fill="#666666" fill-opacity="0.5"/>
<path d="M29 11.2632H15C13.0633 11.2632 11.5 12.8148 11.5 14.7282V27.4565C11.5 29.3699 13.0633 30.9215 15 30.9215H15.8867C16.82 30.9215 17.7067 31.2832 18.36 31.9365L20.355 33.9082C21.265 34.8065 22.7467 34.8065 23.6567 33.9082L25.6517 31.9365C26.305 31.2832 27.2033 30.9215 28.125 30.9215H29C30.9367 30.9215 32.5 29.3699 32.5 27.4565V14.7282C32.5 12.8148 30.9367 11.2632 29 11.2632ZM27.46 21.1798L26.095 25.3332C25.92 26.0215 25.185 26.5815 24.4383 26.5815H22.28C21.9067 26.5815 21.3817 26.4532 21.1483 26.2198L19.4333 24.8782C19.3983 25.6249 19.06 25.9398 18.2317 25.9398H17.6717C16.8083 25.9398 16.4583 25.6015 16.4583 24.7849V19.2198C16.4583 18.4032 16.8083 18.0648 17.6717 18.0648H18.2433C19.1067 18.0648 19.4567 18.4032 19.4567 19.2198V19.6399L21.72 16.2799C21.9533 15.9182 22.5483 15.6615 23.05 15.8599C23.5983 16.0465 23.9483 16.6532 23.8317 17.1898L23.5517 19.0099C23.5167 19.1615 23.5517 19.3249 23.6567 19.4298C23.75 19.5349 23.89 19.6048 24.0417 19.6048H26.3167C26.76 19.6048 27.1333 19.7799 27.355 20.0948C27.565 20.3982 27.6 20.7832 27.46 21.1798Z" fill="white"/>
</svg>
