<svg width="44" height="45" viewBox="0 0 44 45" fill="none" xmlns="http://www.w3.org/2000/svg">
<rect y="0.929688" width="44" height="44" rx="22" fill="#666666" fill-opacity="0.5"/>
<path d="M26.887 11.2632H17.1104C12.8637 11.2632 10.332 13.7949 10.332 18.0415V27.8065C10.332 32.0649 12.8637 34.5965 17.1104 34.5965H26.8754C31.122 34.5965 33.6537 32.0649 33.6537 27.8182V18.0415C33.6654 13.7949 31.1337 11.2632 26.887 11.2632ZM16.9004 30.1049C16.9004 30.5832 16.5037 30.9799 16.0254 30.9799C15.547 30.9799 15.1504 30.5832 15.1504 30.1049V27.6899C15.1504 27.2115 15.547 26.8149 16.0254 26.8149C16.5037 26.8149 16.9004 27.2115 16.9004 27.6899V30.1049ZM22.8737 30.1049C22.8737 30.5832 22.477 30.9799 21.9987 30.9799C21.5204 30.9799 21.1237 30.5832 21.1237 30.1049V25.2632C21.1237 24.7849 21.5204 24.3882 21.9987 24.3882C22.477 24.3882 22.8737 24.7849 22.8737 25.2632V30.1049ZM28.847 30.1049C28.847 30.5832 28.4504 30.9799 27.972 30.9799C27.4937 30.9799 27.097 30.5832 27.097 30.1049V22.8482C27.097 22.3699 27.4937 21.9732 27.972 21.9732C28.4504 21.9732 28.847 22.3699 28.847 22.8482V30.1049ZM28.847 19.1615C28.847 19.6399 28.4504 20.0365 27.972 20.0365C27.4937 20.0365 27.097 19.6399 27.097 19.1615V18.0299C24.122 21.0865 20.4004 23.2449 16.2354 24.2832C16.1654 24.3065 16.0954 24.3065 16.0254 24.3065C15.6287 24.3065 15.2787 24.0382 15.1737 23.6415C15.057 23.1749 15.337 22.6965 15.8154 22.5799C19.747 21.5999 23.247 19.5349 26.0237 16.6182H24.5654C24.087 16.6182 23.6904 16.2215 23.6904 15.7432C23.6904 15.2649 24.087 14.8682 24.5654 14.8682H27.9837C28.0304 14.8682 28.0654 14.8915 28.112 14.8915C28.1704 14.9032 28.2287 14.9032 28.287 14.9265C28.3454 14.9499 28.392 14.9849 28.4504 15.0199C28.4854 15.0432 28.5204 15.0549 28.5554 15.0782C28.567 15.0899 28.567 15.1015 28.5787 15.1015C28.6254 15.1482 28.6604 15.1949 28.6954 15.2415C28.7304 15.2882 28.7654 15.3232 28.777 15.3699C28.8004 15.4165 28.8004 15.4632 28.812 15.5215C28.8237 15.5799 28.847 15.6382 28.847 15.7082C28.847 15.7199 28.8587 15.7315 28.8587 15.7432V19.1615H28.847Z" fill="white"/>
</svg>
