<svg width="44" height="45" viewBox="0 0 44 45" fill="none" xmlns="http://www.w3.org/2000/svg">
<rect y="0.929688" width="44" height="44" rx="22" fill="" fill-opacity="0.5"/>
<path d="M30.598 14.6348L23.7613 11.5898C22.758 11.1465 21.2413 11.1465 20.238 11.5898L13.4013 14.6348C11.6746 15.4048 11.418 16.4548 11.418 17.0148C11.418 17.5748 11.6746 18.6248 13.4013 19.3948L20.238 22.4398C20.7396 22.6615 21.3696 22.7782 21.9996 22.7782C22.6296 22.7782 23.2596 22.6615 23.7613 22.4398L30.598 19.3948C32.3246 18.6248 32.5813 17.5748 32.5813 17.0148C32.5813 16.4548 32.3363 15.4048 30.598 14.6348Z" fill="white"/>
<path d="M22.0004 28.8099C21.557 28.8099 21.1137 28.7165 20.7054 28.5415L12.842 25.0415C11.6404 24.5049 10.707 23.0698 10.707 21.7515C10.707 21.2732 11.092 20.8882 11.5704 20.8882C12.0487 20.8882 12.4337 21.2732 12.4337 21.7515C12.4337 22.3815 12.9587 23.1982 13.542 23.4548L21.4054 26.9548C21.7787 27.1182 22.2104 27.1182 22.5837 26.9548L30.447 23.4548C31.0304 23.1982 31.5554 22.3932 31.5554 21.7515C31.5554 21.2732 31.9404 20.8882 32.4187 20.8882C32.897 20.8882 33.282 21.2732 33.282 21.7515C33.282 23.0582 32.3487 24.5049 31.147 25.0415L23.2837 28.5415C22.887 28.7165 22.4437 28.8099 22.0004 28.8099Z" fill="white"/>
<path d="M22.0004 34.5965C21.557 34.5965 21.1137 34.5031 20.7054 34.3281L12.842 30.8281C11.547 30.2565 10.707 28.9615 10.707 27.5381C10.707 27.0598 11.092 26.6748 11.5704 26.6748C12.0487 26.6748 12.4337 27.0598 12.4337 27.5381C12.4337 28.2731 12.8654 28.9381 13.542 29.2415L21.4054 32.7415C21.7787 32.9048 22.2104 32.9048 22.5837 32.7415L30.447 29.2415C31.112 28.9498 31.5554 28.2731 31.5554 27.5381C31.5554 27.0598 31.9404 26.6748 32.4187 26.6748C32.897 26.6748 33.282 27.0598 33.282 27.5381C33.282 28.9615 32.442 30.2448 31.147 30.8281L23.2837 34.3281C22.887 34.5031 22.4437 34.5965 22.0004 34.5965Z" fill="white"/>
</svg>
