<svg width="44" height="44" viewBox="0 0 44 44" fill="none" xmlns="http://www.w3.org/2000/svg">
<rect width="44" height="44" rx="8" fill="#D9D9D9"/>
<path d="M20 29.0005C20 30.1005 20.9 31.0005 22 31.0005C23.1 31.0005 24 30.1005 24 29.0005C24 27.9005 23.1 27.0005 22 27.0005C20.9 27.0005 20 27.9005 20 29.0005Z" stroke="#474747" stroke-width="1.5"/>
<path d="M20 14.9985C20 16.0985 20.9 16.9985 22 16.9985C23.1 16.9985 24 16.0985 24 14.9985C24 13.8985 23.1 12.9985 22 12.9985C20.9 12.9985 20 13.8985 20 14.9985Z" stroke="#474747" stroke-width="1.5"/>
<path d="M20 22.001C20 23.101 20.9 24.001 22 24.001C23.1 24.001 24 23.101 24 22.001C24 20.901 23.1 20.001 22 20.001C20.9 20.001 20 20.901 20 22.001Z" stroke="#474747" stroke-width="1.5"/>
</svg>
