<svg width="44" height="45" viewBox="0 0 44 45" fill="none" xmlns="http://www.w3.org/2000/svg">
<rect y="0.929688" width="44" height="44" rx="22" fill="#666666" fill-opacity="0.5"/>
<path d="M33.6317 11.6479C32.7917 10.6912 31.5433 10.0962 30.1667 10.0962C28.86 10.0962 27.67 10.6329 26.8183 11.5079C26.3283 12.0095 25.955 12.6162 25.7333 13.2929C25.5817 13.7595 25.5 14.2495 25.5 14.7629C25.5 15.6379 25.745 16.4662 26.1767 17.1662C26.41 17.5629 26.7133 17.9245 27.0633 18.2279C27.88 18.9745 28.965 19.4295 30.1667 19.4295C30.68 19.4295 31.17 19.3479 31.625 19.1845C32.6983 18.8462 33.5967 18.1112 34.1567 17.1662C34.4017 16.7695 34.5883 16.3145 34.6933 15.8479C34.7867 15.4979 34.8333 15.1362 34.8333 14.7629C34.8333 13.5729 34.3783 12.4762 33.6317 11.6479ZM31.905 15.6145H31.0417V16.5245C31.0417 17.0029 30.645 17.3995 30.1667 17.3995C29.6883 17.3995 29.2917 17.0029 29.2917 16.5245V15.6145H28.4283C27.95 15.6145 27.5533 15.2179 27.5533 14.7395C27.5533 14.2612 27.95 13.8645 28.4283 13.8645H29.2917V13.0362C29.2917 12.5579 29.6883 12.1612 30.1667 12.1612C30.645 12.1612 31.0417 12.5579 31.0417 13.0362V13.8645H31.905C32.3833 13.8645 32.78 14.2612 32.78 14.7395C32.78 15.2179 32.395 15.6145 31.905 15.6145Z" fill="white"/>
<path d="M33.6654 22.9299C33.6654 21.4015 33.3737 19.9315 32.8254 18.5899C32.4637 18.8465 32.0554 19.0449 31.6237 19.1849C31.4954 19.2315 31.367 19.2665 31.227 19.3015C31.6704 20.4215 31.9154 21.6465 31.9154 22.9299C31.9154 25.6365 30.8187 28.0982 29.0454 29.8948C28.707 29.4632 28.2754 29.0665 27.762 28.7282C24.6004 26.6049 19.4204 26.6049 16.2354 28.7282C15.722 29.0665 15.302 29.4632 14.952 29.8948C13.1787 28.0982 12.082 25.6365 12.082 22.9299C12.082 17.4582 16.527 13.0132 21.9987 13.0132C23.2704 13.0132 24.4954 13.2582 25.6154 13.7015C25.6504 13.5615 25.6854 13.4332 25.732 13.2932C25.872 12.8615 26.0704 12.4649 26.3387 12.1032C24.997 11.5549 23.527 11.2632 21.9987 11.2632C15.5704 11.2632 10.332 16.5015 10.332 22.9299C10.332 26.3132 11.7904 29.3582 14.1004 31.4932C14.1004 31.5049 14.1004 31.5049 14.0887 31.5165C14.2054 31.6332 14.3454 31.7265 14.462 31.8315C14.532 31.8899 14.5904 31.9482 14.6604 31.9949C14.8704 32.1699 15.1037 32.3332 15.3254 32.4965C15.407 32.5549 15.477 32.6015 15.5587 32.6599C15.7804 32.8115 16.0137 32.9515 16.2587 33.0799C16.3404 33.1265 16.4337 33.1849 16.5154 33.2315C16.7487 33.3599 16.9937 33.4765 17.2504 33.5815C17.3437 33.6282 17.437 33.6749 17.5304 33.7099C17.787 33.8149 18.0437 33.9082 18.3004 33.9899C18.3937 34.0249 18.487 34.0599 18.5804 34.0832C18.8604 34.1649 19.1404 34.2349 19.4204 34.3049C19.502 34.3282 19.5837 34.3515 19.677 34.3632C20.0037 34.4332 20.3304 34.4799 20.6687 34.5149C20.7154 34.5149 20.762 34.5265 20.8087 34.5382C21.2054 34.5732 21.602 34.5965 21.9987 34.5965C22.3954 34.5965 22.792 34.5732 23.177 34.5382C23.2237 34.5382 23.2704 34.5265 23.317 34.5149C23.6554 34.4799 23.982 34.4332 24.3087 34.3632C24.3904 34.3515 24.472 34.3165 24.5654 34.3049C24.8454 34.2349 25.137 34.1765 25.4054 34.0832C25.4987 34.0482 25.592 34.0132 25.6854 33.9899C25.942 33.8965 26.2104 33.8149 26.4554 33.7099C26.5487 33.6749 26.642 33.6282 26.7354 33.5815C26.9804 33.4765 27.2254 33.3599 27.4704 33.2315C27.5637 33.1849 27.6454 33.1265 27.727 33.0799C27.9604 32.9399 28.1937 32.8115 28.427 32.6599C28.5087 32.6132 28.5787 32.5549 28.6604 32.4965C28.8937 32.3332 29.1154 32.1699 29.3254 31.9949C29.3954 31.9365 29.4537 31.8782 29.5237 31.8315C29.652 31.7265 29.7804 31.6215 29.897 31.5165C29.897 31.5049 29.897 31.5049 29.8854 31.4932C32.207 29.3582 33.6654 26.3132 33.6654 22.9299Z" fill="white"/>
<path d="M22 17.0146C19.585 17.0146 17.625 18.9746 17.625 21.3896C17.625 23.758 19.48 25.683 21.9417 25.753C21.9767 25.753 22.0233 25.753 22.0467 25.753C22.07 25.753 22.105 25.753 22.1283 25.753C22.14 25.753 22.1517 25.753 22.1517 25.753C24.5083 25.6713 26.3633 23.758 26.375 21.3896C26.375 18.9746 24.415 17.0146 22 17.0146Z" fill="white"/>
</svg>
