<svg width="44" height="45" viewBox="0 0 44 45" fill="none" xmlns="http://www.w3.org/2000/svg">
<rect y="0.929688" width="44" height="44" rx="22" fill="#666666" fill-opacity="0.5"/>
<path d="M21.9995 25.2632C16.1545 25.2632 11.3945 29.1832 11.3945 34.0132C11.3945 34.3399 11.6512 34.5965 11.9779 34.5965H32.0212C32.3479 34.5965 32.6045 34.3399 32.6045 34.0132C32.6045 29.1832 27.8445 25.2632 21.9995 25.2632Z" fill="white"/>
<path d="M22.0013 11.2632C20.6246 11.2632 19.3646 11.7415 18.3613 12.5465C17.0196 13.6082 16.168 15.2532 16.168 17.0965C16.168 18.1932 16.4713 19.2199 17.0196 20.0949C18.023 21.7865 19.8663 22.9299 22.0013 22.9299C23.4713 22.9299 24.813 22.3932 25.8396 21.4715C26.2946 21.0865 26.6913 20.6199 26.9946 20.0949C27.5313 19.2199 27.8346 18.1932 27.8346 17.0965C27.8346 13.8765 25.2213 11.2632 22.0013 11.2632ZM25.023 16.4665L21.908 19.3365C21.698 19.5349 21.4296 19.6282 21.1613 19.6282C20.8813 19.6282 20.6013 19.5232 20.3913 19.3132L18.9563 17.8665C18.5246 17.4349 18.5246 16.7465 18.9563 16.3149C19.388 15.8832 20.0763 15.8832 20.508 16.3149L21.1963 17.0032L23.5413 14.8449C23.9846 14.4365 24.673 14.4599 25.0813 14.9032C25.4896 15.3582 25.4663 16.0582 25.023 16.4665Z" fill="white"/>
</svg>
