<svg width="44" height="45" viewBox="0 0 44 45" fill="none" xmlns="http://www.w3.org/2000/svg">
<rect y="0.929688" width="44" height="44" rx="22" fill="#666666" fill-opacity="0.5"/>
<path d="M27.8346 35.4712H16.168C15.6896 35.4712 15.293 35.0745 15.293 34.5962C15.293 34.1179 15.6896 33.7212 16.168 33.7212H27.8346C28.313 33.7212 28.7096 34.1179 28.7096 34.5962C28.7096 35.0745 28.313 35.4712 27.8346 35.4712Z" fill="white"/>
<path d="M28.9987 11.2632H14.9987C12.4204 11.2632 10.332 13.3515 10.332 15.9299V26.4299C10.332 29.0082 12.4204 31.0965 14.9987 31.0965H28.9987C31.577 31.0965 33.6654 29.0082 33.6654 26.4299V15.9299C33.6654 13.3515 31.577 11.2632 28.9987 11.2632ZM19.6537 17.4699C20.307 17.4699 20.832 17.9949 20.832 18.6365C20.832 19.2782 20.307 19.8032 19.6654 19.8032C19.0237 19.8032 18.4987 19.2782 18.4987 18.6365C18.4987 17.9949 19.012 17.4699 19.6537 17.4699ZM15.9787 17.4699C16.632 17.4699 17.157 17.9949 17.157 18.6365C17.157 19.2782 16.632 19.8032 15.9904 19.8032C15.3487 19.8032 14.8237 19.2782 14.8237 18.6365C14.8237 17.9949 15.3254 17.4699 15.9787 17.4699ZM28.1354 26.2665H15.8854C15.3954 26.2665 14.9987 25.8699 14.9987 25.3915C14.9987 24.9132 15.3837 24.5165 15.862 24.5165H28.147C28.6254 24.5165 29.022 24.9132 29.022 25.3915C29.022 25.8699 28.6254 26.2665 28.1354 26.2665ZM28.1354 19.5115H23.842C23.3637 19.5115 22.967 19.1149 22.967 18.6365C22.967 18.1582 23.3637 17.7615 23.842 17.7615H28.1354C28.6137 17.7615 29.0104 18.1582 29.0104 18.6365C29.0104 19.1149 28.6254 19.5115 28.1354 19.5115Z" fill="white"/>
</svg>
