<svg width="44" height="45" viewBox="0 0 44 45" fill="none" xmlns="http://www.w3.org/2000/svg">
<rect y="0.929688" width="44" height="44" rx="22" fill="#666666" fill-opacity="0.5"/>
<path d="M27.5432 13.0832V11.2632C27.5432 10.7849 27.1466 10.3882 26.6682 10.3882C26.1899 10.3882 25.7932 10.7849 25.7932 11.2632V13.0132H18.2099V11.2632C18.2099 10.7849 17.8132 10.3882 17.3349 10.3882C16.8566 10.3882 16.4599 10.7849 16.4599 11.2632V13.0832C13.3099 13.3749 11.7816 15.2532 11.5482 18.0415C11.5249 18.3798 11.8049 18.6599 12.1316 18.6599H31.8716C32.2099 18.6599 32.4899 18.3682 32.4549 18.0415C32.2216 15.2532 30.6932 13.3749 27.5432 13.0832Z" fill="white"/>
<path d="M31.3333 20.4097H12.6667C12.025 20.4097 11.5 20.9347 11.5 21.5763V28.763C11.5 32.263 13.25 34.5963 17.3333 34.5963H26.6667C30.75 34.5963 32.5 32.263 32.5 28.763V21.5763C32.5 20.9347 31.975 20.4097 31.3333 20.4097ZM18.745 30.1747C18.6867 30.2213 18.6283 30.2797 18.57 30.3147C18.5 30.3613 18.43 30.3963 18.36 30.4197C18.29 30.4547 18.22 30.478 18.15 30.4897C18.0683 30.5013 17.9983 30.513 17.9167 30.513C17.765 30.513 17.6133 30.478 17.4733 30.4197C17.3217 30.3613 17.205 30.2797 17.0883 30.1747C16.8783 29.953 16.75 29.6497 16.75 29.3463C16.75 29.043 16.8783 28.7397 17.0883 28.518C17.205 28.413 17.3217 28.3313 17.4733 28.273C17.6833 28.1797 17.9167 28.1563 18.15 28.203C18.22 28.2147 18.29 28.238 18.36 28.273C18.43 28.2963 18.5 28.3313 18.57 28.378C18.6283 28.4247 18.6867 28.4713 18.745 28.518C18.955 28.7397 19.0833 29.043 19.0833 29.3463C19.0833 29.6497 18.955 29.953 18.745 30.1747ZM18.745 26.0913C18.5233 26.3013 18.22 26.4297 17.9167 26.4297C17.6133 26.4297 17.31 26.3013 17.0883 26.0913C16.8783 25.8697 16.75 25.5663 16.75 25.263C16.75 24.9597 16.8783 24.6563 17.0883 24.4347C17.415 24.108 17.9283 24.003 18.36 24.1897C18.5117 24.248 18.64 24.3297 18.745 24.4347C18.955 24.6563 19.0833 24.9597 19.0833 25.263C19.0833 25.5663 18.955 25.8697 18.745 26.0913ZM22.8283 30.1747C22.6067 30.3847 22.3033 30.513 22 30.513C21.6967 30.513 21.3933 30.3847 21.1717 30.1747C20.9617 29.953 20.8333 29.6497 20.8333 29.3463C20.8333 29.043 20.9617 28.7397 21.1717 28.518C21.6033 28.0863 22.3967 28.0863 22.8283 28.518C23.0383 28.7397 23.1667 29.043 23.1667 29.3463C23.1667 29.6497 23.0383 29.953 22.8283 30.1747ZM22.8283 26.0913C22.77 26.138 22.7117 26.1847 22.6533 26.2313C22.5833 26.278 22.5133 26.313 22.4433 26.3363C22.3733 26.3713 22.3033 26.3947 22.2333 26.4063C22.1517 26.418 22.0817 26.4297 22 26.4297C21.6967 26.4297 21.3933 26.3013 21.1717 26.0913C20.9617 25.8697 20.8333 25.5663 20.8333 25.263C20.8333 24.9597 20.9617 24.6563 21.1717 24.4347C21.2767 24.3297 21.405 24.248 21.5567 24.1897C21.9883 24.003 22.5017 24.108 22.8283 24.4347C23.0383 24.6563 23.1667 24.9597 23.1667 25.263C23.1667 25.5663 23.0383 25.8697 22.8283 26.0913ZM26.9117 30.1747C26.69 30.3847 26.3867 30.513 26.0833 30.513C25.78 30.513 25.4767 30.3847 25.255 30.1747C25.045 29.953 24.9167 29.6497 24.9167 29.3463C24.9167 29.043 25.045 28.7397 25.255 28.518C25.6867 28.0863 26.48 28.0863 26.9117 28.518C27.1217 28.7397 27.25 29.043 27.25 29.3463C27.25 29.6497 27.1217 29.953 26.9117 30.1747ZM26.9117 26.0913C26.8533 26.138 26.795 26.1847 26.7367 26.2313C26.6667 26.278 26.5967 26.313 26.5267 26.3363C26.4567 26.3713 26.3867 26.3947 26.3167 26.4063C26.235 26.418 26.1533 26.4297 26.0833 26.4297C25.78 26.4297 25.4767 26.3013 25.255 26.0913C25.045 25.8697 24.9167 25.5663 24.9167 25.263C24.9167 24.9597 25.045 24.6563 25.255 24.4347C25.3717 24.3297 25.4883 24.248 25.64 24.1897C25.85 24.0963 26.0833 24.073 26.3167 24.1197C26.3867 24.1313 26.4567 24.1547 26.5267 24.1897C26.5967 24.213 26.6667 24.248 26.7367 24.2947C26.795 24.3413 26.8533 24.388 26.9117 24.4347C27.1217 24.6563 27.25 24.9597 27.25 25.263C27.25 25.5663 27.1217 25.8697 26.9117 26.0913Z" fill="white"/>
</svg>
