<svg width="44" height="45" viewBox="0 0 44 45" fill="none" xmlns="http://www.w3.org/2000/svg">
<rect y="0.929688" width="44" height="44" rx="22" fill="#666666" fill-opacity="0.5"/>
<path d="M33.6667 14.5878V28.4595C33.6667 29.5912 32.745 30.6295 31.6133 30.7695L31.2517 30.8162C29.3383 31.0728 26.6433 31.8662 24.4733 32.7762C23.715 33.0912 22.875 32.5195 22.875 31.6912V15.4628C22.875 15.0312 23.12 14.6345 23.505 14.4245C25.64 13.2695 28.8717 12.2428 31.065 12.0562H31.135C32.535 12.0562 33.6667 13.1878 33.6667 14.5878Z" fill="white"/>
<path d="M20.4936 14.4245C18.3586 13.2695 15.127 12.2428 12.9336 12.0562H12.852C11.452 12.0562 10.3203 13.1878 10.3203 14.5878V28.4595C10.3203 29.5912 11.242 30.6295 12.3736 30.7695L12.7353 30.8162C14.6486 31.0728 17.3436 31.8662 19.5136 32.7762C20.272 33.0912 21.112 32.5195 21.112 31.6912V15.4628C21.112 15.0195 20.8786 14.6345 20.4936 14.4245ZM13.832 17.9595H16.457C16.9353 17.9595 17.332 18.3562 17.332 18.8345C17.332 19.3245 16.9353 19.7095 16.457 19.7095H13.832C13.3536 19.7095 12.957 19.3245 12.957 18.8345C12.957 18.3562 13.3536 17.9595 13.832 17.9595ZM17.332 23.2095H13.832C13.3536 23.2095 12.957 22.8245 12.957 22.3345C12.957 21.8562 13.3536 21.4595 13.832 21.4595H17.332C17.8103 21.4595 18.207 21.8562 18.207 22.3345C18.207 22.8245 17.8103 23.2095 17.332 23.2095Z" fill="white"/>
</svg>
