<svg width="44" height="45" viewBox="0 0 44 45" fill="none" xmlns="http://www.w3.org/2000/svg">
<rect y="0.929688" width="44" height="44" rx="22" fill="#666666" fill-opacity="0.5"/>
<path d="M21.9987 11.2632C15.5704 11.2632 10.332 16.5015 10.332 22.9299C10.332 29.3582 15.5704 34.5965 21.9987 34.5965C28.427 34.5965 33.6654 29.3582 33.6654 22.9299C33.6654 16.5015 28.427 11.2632 21.9987 11.2632ZM21.1237 18.2632C21.1237 17.7849 21.5204 17.3882 21.9987 17.3882C22.477 17.3882 22.8737 17.7849 22.8737 18.2632V24.0965C22.8737 24.5749 22.477 24.9715 21.9987 24.9715C21.5204 24.9715 21.1237 24.5749 21.1237 24.0965V18.2632ZM23.072 28.0399C23.0137 28.1915 22.932 28.3082 22.827 28.4249C22.7104 28.5299 22.582 28.6115 22.442 28.6699C22.302 28.7282 22.1504 28.7632 21.9987 28.7632C21.847 28.7632 21.6954 28.7282 21.5554 28.6699C21.4154 28.6115 21.287 28.5299 21.1704 28.4249C21.0654 28.3082 20.9837 28.1915 20.9254 28.0399C20.867 27.8999 20.832 27.7482 20.832 27.5965C20.832 27.4449 20.867 27.2932 20.9254 27.1532C20.9837 27.0132 21.0654 26.8849 21.1704 26.7682C21.287 26.6632 21.4154 26.5815 21.5554 26.5232C21.8354 26.4065 22.162 26.4065 22.442 26.5232C22.582 26.5815 22.7104 26.6632 22.827 26.7682C22.932 26.8849 23.0137 27.0132 23.072 27.1532C23.1304 27.2932 23.1654 27.4449 23.1654 27.5965C23.1654 27.7482 23.1304 27.8999 23.072 28.0399Z" fill="white"/>
</svg>
