<svg width="44" height="45" viewBox="0 0 44 45" fill="none" xmlns="http://www.w3.org/2000/svg">
<rect y="0.929688" width="44" height="44" rx="22" fill="#666666" fill-opacity="0.5"/>
<path d="M31.4487 19.6862C29.337 19.6862 28.4737 18.1929 29.5237 16.3612C30.1304 15.2995 29.7687 13.9462 28.707 13.3395L26.6887 12.1845C25.767 11.6362 24.577 11.9629 24.0287 12.8845L23.9004 13.1062C22.8504 14.9379 21.1237 14.9379 20.062 13.1062L19.9337 12.8845C19.4087 11.9629 18.2187 11.6362 17.297 12.1845L15.2787 13.3395C14.217 13.9462 13.8554 15.3112 14.462 16.3729C15.5237 18.1929 14.6604 19.6862 12.5487 19.6862C11.3354 19.6862 10.332 20.6779 10.332 21.9029V23.9562C10.332 25.1695 11.3237 26.1729 12.5487 26.1729C14.6604 26.1729 15.5237 27.6662 14.462 29.4979C13.8554 30.5595 14.217 31.9129 15.2787 32.5195L17.297 33.6745C18.2187 34.2229 19.4087 33.8962 19.957 32.9745L20.0854 32.7529C21.1354 30.9212 22.862 30.9212 23.9237 32.7529L24.052 32.9745C24.6004 33.8962 25.7904 34.2229 26.712 33.6745L28.7304 32.5195C29.792 31.9129 30.1537 30.5479 29.547 29.4979C28.4854 27.6662 29.3487 26.1729 31.4604 26.1729C32.6737 26.1729 33.677 25.1812 33.677 23.9562V21.9029C33.6654 20.6895 32.6737 19.6862 31.4487 19.6862ZM21.9987 26.7212C19.9104 26.7212 18.207 25.0179 18.207 22.9295C18.207 20.8412 19.9104 19.1379 21.9987 19.1379C24.087 19.1379 25.7904 20.8412 25.7904 22.9295C25.7904 25.0179 24.087 26.7212 21.9987 26.7212Z" fill="white"/>
</svg>
