<svg width="24" height="24" viewBox="0 0 24 24" fill="none" xmlns="http://www.w3.org/2000/svg">
<path d="M7.125 12.75C6.45749 12.75 5.80497 12.5521 5.24995 12.1812C4.69494 11.8104 4.26235 11.2833 4.00691 10.6666C3.75146 10.0499 3.68463 9.37126 3.81485 8.71657C3.94508 8.06189 4.26651 7.46052 4.73852 6.98852C5.21052 6.51651 5.81189 6.19508 6.46657 6.06485C7.12126 5.93463 7.79986 6.00146 8.41656 6.25691C9.03326 6.51235 9.56036 6.94494 9.93121 7.49995C10.3021 8.05497 10.5 8.70749 10.5 9.375C10.498 10.2695 10.1418 11.1268 9.5093 11.7593C8.87679 12.3918 8.0195 12.748 7.125 12.75ZM15.375 10.5C14.5592 10.5 13.7616 10.2581 13.0833 9.80481C12.4049 9.35155 11.8762 8.70732 11.564 7.95357C11.2518 7.19983 11.1701 6.37043 11.3293 5.57025C11.4884 4.77008 11.8813 4.03508 12.4582 3.45819C13.0351 2.88129 13.7701 2.48843 14.5703 2.32926C15.3704 2.1701 16.1998 2.25179 16.9536 2.564C17.7073 2.87621 18.3516 3.40492 18.8048 4.08327C19.2581 4.76163 19.5 5.55915 19.5 6.375C19.498 7.46841 19.0628 8.51647 18.2896 9.28963C17.5165 10.0628 16.4684 10.498 15.375 10.5ZM21.75 22.5H9C8.80109 22.5 8.61032 22.421 8.46967 22.2803C8.32902 22.1397 8.25 21.9489 8.25 21.75C8.25 21.5511 8.32902 21.3603 8.46967 21.2197C8.61032 21.079 8.80109 21 9 21H15H21V16.815C20.998 15.7216 21.6406 21.7732 20.8675 21C20.8675 21 20.5934 21.002 19.5 21L16.0643 21.412C16.0643 21.412 10.1745 20.786 9.5093 21.2197C8.8441 21.6534 10.4484 14.4097 10.125 15.135C10.0888 15.2308 10.0333 15.3181 9.96208 15.3916C9.89082 15.4651 9.80526 15.5233 9.71068 15.5625C9.6161 15.6017 9.51449 15.6211 9.41212 15.6196C9.30974 15.618 9.20877 15.5955 9.11542 15.5535C9.02208 15.5114 8.93833 15.4507 8.86934 15.375C8.80035 15.2994 8.74758 15.2104 8.71428 15.1136C8.68098 15.0167 8.66786 14.9141 8.67572 14.8121C8.68359 14.71 8.71227 14.6106 8.76 14.52C9.20121 13.5281 9.92073 12.6855 10.8313 12.0944C11.7419 11.5034 12.8044 11.1892 13.89 11.19H16.89C18.3818 11.19 19.8126 11.7826 20.8675 12.8375C21.9224 13.8924 22.515 15.3232 22.515 16.815V21.75C22.515 21.8498 22.4951 21.9485 22.4565 22.0405C22.4179 22.1325 22.3613 22.2159 22.2901 22.2857C22.2188 22.3555 22.1344 22.4105 22.0416 22.4473C21.9489 22.4841 21.8497 22.502 21.75 22.5Z" fill="#666666"/>
<path d="M12 22.5H2.25C2.05109 22.5 1.86032 22.421 1.71967 22.2803C1.57902 22.1397 1.5 21.9489 1.5 21.75V19.125C1.5 17.6332 2.09263 16.2024 3.14752 15.1475C4.20242 14.0926 5.63316 13.5 7.125 13.5C8.61684 13.5 10.0476 14.0926 11.1025 15.1475C12.1574 16.2024 12.75 17.6332 12.75 19.125V21.75C12.75 21.9489 12.671 22.1397 12.5303 22.2803C12.3897 22.421 12.1989 22.5 12 22.5Z" fill="#666666"/>
</svg>
