<svg width="20" height="20" viewBox="0 0 20 20" fill="none" xmlns="http://www.w3.org/2000/svg">
<path d="M16.9916 13.6828C15.8559 12.7229 15.2054 11.3235 15.2054 9.83963V7.74752C15.2054 5.10688 13.2434 2.92334 10.7047 2.55766V1.74894C10.7047 1.33404 10.3672 1 9.95578 1C9.54439 1 9.20684 1.33052 9.20684 1.74543V2.55414C6.66466 2.92334 4.70615 5.10688 4.70615 7.74752V9.83963C4.70615 11.3235 4.05566 12.7264 2.91643 13.6898C2.62459 13.9395 2.45581 14.3016 2.45581 14.6849C2.45581 15.4092 3.04301 15.9964 3.76734 15.9964H16.1442C16.8686 15.9964 17.4558 15.4092 17.4558 14.6849C17.4593 14.3016 17.2905 13.9395 16.9916 13.6828Z" fill="#474747"/>
<path d="M9.95579 18.9994C11.313 18.9994 12.4523 18.0324 12.7125 16.749H7.20264C7.46283 18.0324 8.59855 18.9994 9.95579 18.9994Z" fill="#474747"/>
</svg>
