<svg width="24" height="25" viewBox="0 0 24 25" fill="none" xmlns="http://www.w3.org/2000/svg">
<path d="M19 11.0628H7.14L10.77 6.70278C10.9397 6.49856 11.0214 6.23528 10.997 5.97085C10.9726 5.70643 10.8442 5.46251 10.64 5.29278C10.4358 5.12304 10.1725 5.04138 9.90808 5.06575C9.64365 5.09013 9.39974 5.21856 9.23 5.42278L4.23 11.4228C4.19636 11.4705 4.16628 11.5206 4.14 11.5728C4.14 11.6228 4.14 11.6528 4.07 11.7028C4.02467 11.8174 4.00094 11.9395 4 12.0628C4.00094 12.1861 4.02467 12.3081 4.07 12.4228C4.07 12.4728 4.07 12.5028 4.14 12.5528C4.16628 12.6049 4.19636 12.6551 4.23 12.7028L9.23 18.7028C9.32402 18.8157 9.44176 18.9064 9.57485 18.9687C9.70793 19.0309 9.85309 19.063 10 19.0628C10.2337 19.0632 10.4601 18.9819 10.64 18.8328C10.7413 18.7488 10.825 18.6457 10.8863 18.5294C10.9477 18.413 10.9855 18.2857 10.9975 18.1547C11.0096 18.0238 10.9957 17.8917 10.9567 17.7661C10.9176 17.6405 10.8542 17.5238 10.77 17.4228L7.14 13.0628H19C19.2652 13.0628 19.5196 12.9574 19.7071 12.7699C19.8946 12.5823 20 12.328 20 12.0628C20 11.7976 19.8946 11.5432 19.7071 11.3557C19.5196 11.1681 19.2652 11.0628 19 11.0628Z" fill="white"/>
</svg>
