<svg width="20" height="20" viewBox="0 0 20 20" fill="none" xmlns="http://www.w3.org/2000/svg">
<path fill-rule="evenodd" clip-rule="evenodd" d="M4.16732 16.6665H15.834C16.055 16.6665 16.267 16.7543 16.4232 16.9106C16.5795 17.0669 16.6673 17.2788 16.6673 17.4998C16.6673 17.7209 16.5795 17.9328 16.4232 18.0891C16.267 18.2454 16.055 18.3332 15.834 18.3332H4.16732C3.9463 18.3332 3.73434 18.2454 3.57806 18.0891C3.42178 17.9328 3.33398 17.7209 3.33398 17.4998C3.33398 17.2788 3.42178 17.0669 3.57806 16.9106C3.73434 16.7543 3.9463 16.6665 4.16732 16.6665ZM3.33398 12.4998L11.6673 4.1665L14.1673 6.6665L5.83398 14.9998H3.33398V12.4998ZM12.5007 3.33317L14.1673 1.6665L16.6673 4.1665L14.9998 5.834L12.5007 3.33317Z" fill="#474747"/>
</svg>
