<svg width="24" height="24" viewBox="0 0 24 24" fill="none" xmlns="http://www.w3.org/2000/svg">
<path d="M9.9375 3.0625C9.39049 3.0625 8.86589 3.2798 8.47909 3.66659C8.0923 4.05339 7.875 4.57799 7.875 5.125V5.8125H3.0625C2.51549 5.8125 1.99089 6.0298 1.60409 6.41659C1.2173 6.80339 1 7.32799 1 7.875L1 9.778L11.4692 12.5692C11.817 12.6619 12.183 12.6619 12.5307 12.5692L23 9.778V7.875C23 7.32799 22.7827 6.80339 22.3959 6.41659C22.0091 6.0298 21.4845 5.8125 20.9375 5.8125H16.125V5.125C16.125 4.57799 15.9077 4.05339 15.5209 3.66659C15.1341 3.2798 14.6095 3.0625 14.0625 3.0625H9.9375ZM9.9375 4.4375H14.0625C14.2448 4.4375 14.4197 4.50993 14.5486 4.63886C14.6776 4.7678 14.75 4.94266 14.75 5.125V5.8125H9.25V5.125C9.25 4.94266 9.32243 4.7678 9.45136 4.63886C9.5803 4.50993 9.75516 4.4375 9.9375 4.4375Z" fill="#666666"/>
<path d="M1 18.8757C1 19.4227 1.2173 19.9473 1.60409 20.3341C1.99089 20.7209 2.51549 20.9382 3.0625 20.9382H20.9375C21.4845 20.9382 22.0091 20.7209 22.3959 20.3341C22.7827 19.9473 23 19.4227 23 18.8757V11.1069L12.1774 13.9903C12.0612 14.0213 11.9388 14.0213 11.8226 13.9903L1 11.1069V18.8757Z" fill="#666666"/>
</svg>
