<svg width="28" height="24" viewBox="0 0 28 24" fill="none" xmlns="http://www.w3.org/2000/svg">
<path d="M23.45 0.00141133C24.0475 0.00141133 24.6392 0.120062 25.1912 0.350588C25.7432 0.581114 26.2448 0.919001 26.6673 1.34496C27.0898 1.77091 27.425 2.2766 27.6537 2.83314C27.8823 3.38968 28 3.98617 28 4.58857V19.4128C28 20.0152 27.8823 20.6117 27.6537 21.1683C27.425 21.7248 27.0898 22.2305 26.6673 22.6565C26.2448 23.0824 25.7432 23.4203 25.1912 23.6508C24.6392 23.8814 24.0475 24 23.45 24H4.55C3.34326 24 2.18595 23.5167 1.33266 22.6565C0.479373 21.7962 0 20.6294 0 19.4128V4.58716C0 3.37057 0.479373 2.20381 1.33266 1.34355C2.18595 0.483288 3.34326 0 4.55 0H23.45V0.00141133ZM23.45 2.11856H4.55C3.90022 2.11856 3.27705 2.37879 2.81759 2.84201C2.35812 3.30522 2.1 3.93348 2.1 4.58857V19.4128C2.1 20.7763 3.1976 21.8829 4.55 21.8829H23.45C24.0998 21.8829 24.7229 21.6226 25.1824 21.1594C25.6419 20.6962 25.9 20.0679 25.9 19.4128V4.58716C25.9 3.93207 25.6419 3.30381 25.1824 2.8406C24.7229 2.37738 24.0998 2.11715 23.45 2.11715V2.11856ZM8.421 7.58222C9.2554 7.58222 9.8476 7.69795 10.5238 8.02541C10.6274 8.07554 10.7202 8.14576 10.7969 8.23205C10.8736 8.31834 10.9326 8.41902 10.9707 8.52832C11.0088 8.63763 11.0252 8.75343 11.0189 8.86911C11.0126 8.9848 10.9837 9.0981 10.934 9.20254C10.8843 9.30699 10.8146 9.40053 10.729 9.47784C10.6434 9.55515 10.5436 9.61471 10.4352 9.65311C10.3267 9.69151 10.2119 9.70801 10.0971 9.70165C9.98238 9.6953 9.87 9.66623 9.7664 9.61609C9.3464 9.41284 9.0104 9.34792 8.421 9.34792C7.2072 9.34792 6.3154 10.4714 6.3154 11.9901C6.3154 13.5102 7.2086 14.638 8.421 14.638C9.0202 14.638 9.5284 14.3839 9.793 13.9308L9.8 13.9097V12.8737H9.2736C9.06411 12.8737 8.86157 12.7979 8.7028 12.6601C8.54404 12.5223 8.43957 12.3316 8.4084 12.1228L8.4 11.9929C8.4 11.5498 8.7234 11.1828 9.1462 11.1193L9.275 11.1108H10.6778C11.1174 11.1108 11.48 11.4354 11.543 11.8617L11.5528 11.9929L11.55 14.1764L11.5416 14.2555L11.5122 14.3825L11.4842 14.4601C10.9564 15.7163 9.7468 16.4023 8.421 16.4023C6.1446 16.4023 4.5654 14.4079 4.5654 11.9901C4.5654 9.57234 6.1432 7.58222 8.421 7.58222ZM14.8806 7.75441C15.3202 7.75441 15.6842 8.08186 15.7458 8.50671L15.7556 8.63656V15.3592C15.7552 15.5816 15.6714 15.7956 15.5211 15.9584C15.3709 16.1212 15.1652 16.2207 14.9452 16.2372C14.7252 16.2536 14.5072 16.1856 14.3348 16.0469C14.1624 15.9082 14.0483 15.709 14.0154 15.4891L14.0056 15.3592V8.63656C14.0056 8.14961 14.3976 7.75441 14.8806 7.75441ZM19.075 7.75441L21.8708 7.76429C22.0926 7.76371 22.3063 7.84805 22.4687 8.00025C22.6312 8.15245 22.7302 8.36116 22.7459 8.58419C22.7615 8.80721 22.6926 9.0279 22.553 9.20164C22.4134 9.37538 22.2136 9.48921 21.994 9.52011L21.8652 9.52858L19.9458 9.52152V11.9972H21.518C21.9576 11.9972 22.3216 12.3246 22.3832 12.7509L22.393 12.8807C22.3929 13.0921 22.3176 13.2965 22.1806 13.4566C22.0436 13.6167 21.8542 13.7219 21.6468 13.753L21.518 13.7629L19.9458 13.7615V15.3352C19.9461 15.5467 19.8711 15.7512 19.7344 15.9115C19.5977 16.0719 19.4084 16.1774 19.201 16.2089L19.0722 16.2174C18.8625 16.2177 18.6596 16.142 18.5005 16.0042C18.3415 15.8664 18.2368 15.6756 18.2056 15.4665L18.1972 15.3352V8.63373C18.198 8.4226 18.2739 8.21875 18.411 8.05921C18.5482 7.89967 18.7376 7.79503 18.9448 7.76429L19.075 7.75441Z" fill="#666666"/>
</svg>
