<svg width="101" height="100" viewBox="0 0 101 100" fill="none" xmlns="http://www.w3.org/2000/svg">
<path d="M87.6562 3.125H13.3438C10.7687 3.13324 8.3015 4.15982 6.48066 5.98066C4.65982 7.8015 3.63324 10.2687 3.625 12.8438V87.1562C3.63324 89.7313 4.65982 92.1985 6.48066 94.0193C8.3015 95.8402 10.7687 96.8668 13.3438 96.875H87.6562C90.2313 96.8668 92.6985 95.8402 94.5193 94.0193C96.3402 92.1985 97.3668 89.7313 97.375 87.1562V12.8438C97.3668 10.2687 96.3402 7.8015 94.5193 5.98066C92.6985 4.15982 90.2313 3.13324 87.6562 3.125ZM39.2812 10.375C40.0057 10.3688 40.7156 10.578 41.321 10.9759C41.9264 11.3739 42.3998 11.9428 42.6814 12.6103C42.9629 13.2778 43.0398 14.0139 42.9023 14.7252C42.7647 15.4365 42.419 16.0909 41.9089 16.6054C41.3989 17.1198 40.7475 17.4712 40.0374 17.6148C39.3273 17.7584 38.5905 17.6879 37.9206 17.4121C37.2507 17.1363 36.6778 16.6677 36.2747 16.0658C35.8715 15.4638 35.6563 14.7557 35.6562 14.0312C35.6562 13.0669 36.0371 12.1417 36.7161 11.4569C37.395 10.7721 38.317 10.3832 39.2812 10.375ZM28.625 10.4375C29.3453 10.4498 30.046 10.6747 30.639 11.0838C31.232 11.493 31.6909 12.0682 31.958 12.7373C32.2252 13.4064 32.2888 14.1395 32.1407 14.8446C31.9927 15.5497 31.6396 16.1953 31.1259 16.7004C30.6121 17.2055 29.9606 17.5476 29.2531 17.6836C28.5456 17.8197 27.8137 17.7438 27.1493 17.4653C26.4848 17.1868 25.9174 16.7182 25.5184 16.1184C25.1193 15.5186 24.9064 14.8142 24.9062 14.0938C24.9019 13.6071 24.9956 13.1245 25.1817 12.6749C25.3678 12.2252 25.6426 11.8176 25.9897 11.4764C26.3367 11.1352 26.7489 10.8674 27.2017 10.6889C27.6544 10.5104 28.1385 10.4249 28.625 10.4375ZM18 10.4375C18.7203 10.4498 19.421 10.6747 20.014 11.0838C20.607 11.493 21.0659 12.0682 21.333 12.7373C21.6002 13.4064 21.6638 14.1395 21.5157 14.8446C21.3677 15.5497 21.0146 16.1953 20.5009 16.7004C19.9871 17.2055 19.3356 17.5476 18.6281 17.6836C17.9206 17.8197 17.1887 17.7438 16.5243 17.4653C15.8598 17.1868 15.2924 16.7182 14.8934 16.1184C14.4943 15.5186 14.2814 14.8142 14.2812 14.0938C14.2812 13.1241 14.6665 12.1941 15.3521 11.5084C16.0378 10.8227 16.9678 10.4375 17.9375 10.4375H18ZM91.125 87.1562C91.125 88.0762 90.7595 88.9585 90.109 89.609C89.4585 90.2595 88.5762 90.625 87.6562 90.625H13.3438C12.4238 90.625 11.5415 90.2595 10.891 89.609C10.2405 88.9585 9.875 88.0762 9.875 87.1562V25H91.125V87.1562Z" fill="#4C5BD4"/>
<path d="M36.875 78.125H64.125C65.2107 78.125 66.252 77.6937 67.0197 76.926C67.7874 76.1582 68.2188 75.117 68.2188 74.0312V55.6562C68.2188 54.5705 67.7874 53.5293 67.0197 52.7615C66.252 51.9938 65.2107 51.5625 64.125 51.5625H63V46.875C63 43.5598 61.683 40.3804 59.3388 38.0362C56.9946 35.692 53.8152 34.375 50.5 34.375C47.1848 34.375 44.0054 35.692 41.6612 38.0362C39.317 40.3804 38 43.5598 38 46.875V51.5625H36.875C35.7893 51.5625 34.748 51.9938 33.9803 52.7615C33.2126 53.5293 32.7813 54.5705 32.7812 55.6562V74.0312C32.7813 75.117 33.2126 76.1582 33.9803 76.926C34.748 77.6937 35.7893 78.125 36.875 78.125ZM44.25 46.875C44.25 45.2174 44.9085 43.6277 46.0806 42.4556C47.2527 41.2835 48.8424 40.625 50.5 40.625C52.1576 40.625 53.7473 41.2835 54.9194 42.4556C56.0915 43.6277 56.75 45.2174 56.75 46.875V51.5625H44.25V46.875Z" fill="#4C5BD4"/>
</svg>
