<svg width="24" height="24" viewBox="0 0 24 24" fill="none" xmlns="http://www.w3.org/2000/svg">
<path d="M4.2 0C1.872 0 0 1.872 0 4.2V19.8C0 22.128 1.872 24 4.2 24H16.8L24 16.8V4.2C24 1.872 22.128 0 19.8 0H4.2ZM4.5 2.4H19.5C20.057 2.4 20.5911 2.62125 20.9849 3.01508C21.3787 3.4089 21.6 3.94305 21.6 4.5V15.6H19.8C17.472 15.6 15.6 17.472 15.6 19.8V21.6H4.5C3.94305 21.6 3.4089 21.3787 3.01508 20.9849C2.62125 20.5911 2.4 20.057 2.4 19.5V4.5C2.4 3.94305 2.62125 3.4089 3.01508 3.01508C3.4089 2.62125 3.94305 2.4 4.5 2.4ZM14.928 5.724C14.736 5.724 14.544 5.748 14.364 5.796C13.236 6.108 12.6 7.26 12.888 8.4C12.948 8.58 13.032 8.76 13.14 8.928L17.016 7.872C17.016 7.668 16.992 7.464 16.944 7.26C16.692 6.36 15.864 5.724 14.928 5.724ZM7.404 7.8C7.2 7.8 7.02 7.8 6.84 7.86C5.724 8.172 5.064 9.324 5.364 10.44C5.4 10.632 5.508 10.8 5.616 10.992L9.492 9.936C9.492 9.732 9.468 9.528 9.42 9.336C9.3026 8.89226 9.04064 8.50031 8.67552 8.22213C8.31041 7.94395 7.86299 7.79541 7.404 7.8ZM17.664 11.112L6.708 14.124C7.48605 15.0244 8.50251 15.6867 9.6404 16.0349C10.7783 16.383 11.9914 16.4028 13.14 16.092C14.2861 15.7714 15.3185 15.134 16.1187 14.2531C16.919 13.3722 17.4546 12.2835 17.664 11.112Z" fill="#666666"/>
</svg>
