<svg width="29" height="26" viewBox="0 0 29 26" fill="none" xmlns="http://www.w3.org/2000/svg">
<path d="M11.125 8.71401C11.125 9.39599 10.8583 10.05 10.3836 10.5323C9.90891 11.0145 9.26508 11.2854 8.59375 11.2854C7.92242 11.2854 7.27859 11.0145 6.80389 10.5323C6.32918 10.05 6.0625 9.39599 6.0625 8.71401C6.0625 8.03202 6.32918 7.37797 6.80389 6.89573C7.27859 6.4135 7.92242 6.14258 8.59375 6.14258C9.26508 6.14258 9.90891 6.4135 10.3836 6.89573C10.8583 7.37797 11.125 8.03202 11.125 8.71401Z" fill="#666666"/>
<path d="M4.375 1C3.47989 1 2.62145 1.36122 1.98851 2.00421C1.35558 2.64719 1 3.51926 1 4.42857V21.5714C1 22.4807 1.35558 23.3528 1.98851 23.9958C2.62145 24.6388 3.47989 25 4.375 25H24.625C25.5201 25 26.3786 24.6388 27.0115 23.9958C27.6444 23.3528 28 22.4807 28 21.5714V4.42857C28 3.51926 27.6444 2.64719 27.0115 2.00421C26.3786 1.36122 25.5201 1 24.625 1H4.375ZM24.625 2.71429C25.0726 2.71429 25.5018 2.8949 25.8182 3.21639C26.1347 3.53788 26.3125 3.97391 26.3125 4.42857V15.5714L19.9388 12.2337C19.7806 12.1532 19.6014 12.1252 19.4267 12.1539C19.2519 12.1825 19.0905 12.2662 18.9651 12.3931L12.7045 18.7531L8.21575 15.7154C8.05368 15.6058 7.85929 15.5565 7.66552 15.5759C7.47176 15.5953 7.29055 15.6821 7.15263 15.8217L2.6875 19.8571V4.42857C2.6875 3.97391 2.86529 3.53788 3.18176 3.21639C3.49822 2.8949 3.92745 2.71429 4.375 2.71429H24.625Z" fill="#666666" stroke="#666666" stroke-width="0.5"/>
</svg>
