<svg width="24" height="24" viewBox="0 0 24 24" fill="none" xmlns="http://www.w3.org/2000/svg">
<path fill-rule="evenodd" clip-rule="evenodd" d="M5.53696 15.7695C5.29053 15.7341 5.02857 15.7143 4.75 15.7143C2.69821 15.7143 1.55232 16.797 1.11303 17.3364C1.04178 17.4291 1.00375 17.5427 1.00375 17.66C1.00375 17.6632 1.00375 17.6664 1.00321 17.6691C0.999998 17.8673 1 18.1298 1 18.3929C1 18.6886 1.24 18.9286 1.53571 18.9286H5.37786C5.31732 18.7582 5.28571 18.5771 5.28571 18.3929C5.28571 17.7832 5.28571 17.0568 5.28786 16.6277C5.28786 16.3223 5.37518 16.025 5.53696 15.7695ZM17.6071 18.9286H6.89286C6.75089 18.9286 6.61428 18.8723 6.51411 18.7716C6.41339 18.6714 6.35714 18.5348 6.35714 18.3929C6.35714 17.7848 6.35714 17.0616 6.35928 16.6309C6.35928 16.6298 6.35928 16.6288 6.35928 16.6277C6.35928 16.5045 6.40214 16.3855 6.47982 16.2902C7.14464 15.5311 9.15357 13.5714 12.25 13.5714C15.7546 13.5714 17.5145 15.5273 18.0529 16.265C18.1123 16.3555 18.1429 16.4579 18.1429 16.5623V18.3929C18.1429 18.5348 18.0866 18.6714 17.9859 18.7716C17.8857 18.8723 17.7491 18.9286 17.6071 18.9286ZM19.1221 18.9286H22.9643C23.26 18.9286 23.5 18.6886 23.5 18.3929V17.6595C23.5 17.5411 23.4609 17.4264 23.3891 17.3327C22.9477 16.797 21.8012 15.7143 19.75 15.7143C19.4859 15.7143 19.2368 15.732 19.0021 15.7641C19.1409 16.0068 19.2143 16.2821 19.2143 16.5634V18.3929C19.2143 18.5771 19.1827 18.7582 19.1221 18.9286ZM4.75 9.28571C3.27143 9.28571 2.07143 10.4857 2.07143 11.9643C2.07143 13.4429 3.27143 14.6429 4.75 14.6429C6.22857 14.6429 7.42857 13.4429 7.42857 11.9643C7.42857 10.4857 6.22857 9.28571 4.75 9.28571ZM19.75 9.28571C18.2714 9.28571 17.0714 10.4857 17.0714 11.9643C17.0714 13.4429 18.2714 14.6429 19.75 14.6429C21.2286 14.6429 22.4286 13.4429 22.4286 11.9643C22.4286 10.4857 21.2286 9.28571 19.75 9.28571ZM12.25 5C10.1805 5 8.5 6.68054 8.5 8.75C8.5 10.8195 10.1805 12.5 12.25 12.5C14.3195 12.5 16 10.8195 16 8.75C16 6.68054 14.3195 5 12.25 5Z" fill="#666666"/>
</svg>
