<svg width="24" height="24" viewBox="0 0 24 24" fill="none" xmlns="http://www.w3.org/2000/svg">
<path d="M2.45402 20.6554C2.37498 20.6558 2.29642 20.6431 2.22152 20.6179C2.06489 20.567 1.92934 20.466 1.83582 20.3305C1.74229 20.1949 1.69597 20.0324 1.70402 19.8679C1.70402 19.7554 2.47652 8.86538 13.3965 8.01038V4.09538C13.3964 3.94627 13.4407 3.80051 13.5238 3.67671C13.6069 3.55291 13.725 3.45669 13.8631 3.40034C14.0012 3.34399 14.1529 3.33007 14.2989 3.36036C14.4449 3.39065 14.5785 3.46377 14.6828 3.57038L22.0853 11.1304C22.2227 11.2706 22.2997 11.4591 22.2997 11.6554C22.2997 11.8517 22.2227 12.0402 22.0853 12.1804L14.6828 19.7404C14.5785 19.847 14.4449 19.9201 14.2989 19.9504C14.1529 19.9807 14.0012 19.9668 13.8631 19.9104C13.725 19.8541 13.6069 19.7579 13.5238 19.6341C13.4407 19.5103 13.3964 19.3645 13.3965 19.2154V15.3754C6.10652 15.6529 3.11777 20.2504 3.08777 20.3066C3.02011 20.4135 2.92652 20.5015 2.81572 20.5625C2.70492 20.6234 2.58049 20.6554 2.45402 20.6554V20.6554ZM14.8965 5.93288V8.71163C14.8966 8.90608 14.8212 9.09297 14.6862 9.2329C14.5512 9.37282 14.3671 9.45483 14.1728 9.46163C7.10777 9.72038 4.58027 14.4266 3.67277 17.4529C5.54777 15.8329 8.88902 13.8529 14.1015 13.8529H14.1353C14.3342 13.8529 14.5249 13.9319 14.6656 14.0726C14.8063 14.2132 14.8853 14.404 14.8853 14.6029V17.3816L20.5103 11.6591L14.8965 5.93288Z" fill="#666666"/>
</svg>
