<svg width="40" height="40" viewBox="0 0 40 40" fill="none" xmlns="http://www.w3.org/2000/svg">
<rect width="40" height="40" rx="20" fill="#666666" fill-opacity="0.5"/>
<path d="M30 14.5H24" stroke="white" stroke-width="1.5" stroke-miterlimit="10" stroke-linecap="round" stroke-linejoin="round"/>
<path d="M14 14.5H10" stroke="white" stroke-width="1.5" stroke-miterlimit="10" stroke-linecap="round" stroke-linejoin="round"/>
<path d="M18 18C19.933 18 21.5 16.433 21.5 14.5C21.5 12.567 19.933 11 18 11C16.067 11 14.5 12.567 14.5 14.5C14.5 16.433 16.067 18 18 18Z" stroke="white" stroke-width="1.5" stroke-miterlimit="10" stroke-linecap="round" stroke-linejoin="round"/>
<path d="M30 25.5H26" stroke="white" stroke-width="1.5" stroke-miterlimit="10" stroke-linecap="round" stroke-linejoin="round"/>
<path d="M16 25.5H10" stroke="white" stroke-width="1.5" stroke-miterlimit="10" stroke-linecap="round" stroke-linejoin="round"/>
<path d="M22 29C23.933 29 25.5 27.433 25.5 25.5C25.5 23.567 23.933 22 22 22C20.067 22 18.5 23.567 18.5 25.5C18.5 27.433 20.067 29 22 29Z" stroke="white" stroke-width="1.5" stroke-miterlimit="10" stroke-linecap="round" stroke-linejoin="round"/>
</svg>
