<svg width="24" height="24" viewBox="0 0 24 24" fill="none" xmlns="http://www.w3.org/2000/svg">
<path d="M22.8902 8.22741L12.3902 4.31994C12.1426 4.22994 11.8576 4.22994 11.6101 4.31994L1.11013 8.22741C0.675164 8.39243 0.382656 8.79742 0.375149 9.26242C0.367641 9.72742 0.645141 10.1474 1.07264 10.3199L4.76263 11.8499V16.9874C4.76263 17.4149 5.00263 17.8049 5.38514 17.9924L6.13514 18.3674C7.97265 19.2899 9.98265 19.7474 12.0001 19.7474C14.0176 19.7474 16.0276 19.2899 17.8652 18.3674L18.6152 17.9924C18.9977 17.8049 19.2377 17.4149 19.2377 16.9874V11.8499L20.5952 11.2874V15.6449C20.5952 16.2674 21.0977 16.7699 21.7202 16.7699C22.3426 16.7699 22.8452 16.2674 22.8452 15.6449V10.3574L22.9277 10.3199C23.3552 10.1474 23.6327 9.72741 23.6252 9.26242C23.6176 8.79743 23.3251 8.39243 22.8902 8.22741ZM16.9877 16.2899L16.8601 16.3574C13.8151 17.8799 10.1852 17.8799 7.14016 16.3574L7.01263 16.2899V12.7799L11.5726 14.6624C11.7076 14.7224 11.8576 14.7449 12.0001 14.7449C12.1426 14.7449 12.2927 14.7224 12.4277 14.6624L16.9877 12.7799V16.2899H16.9877Z" fill="#666666"/>
</svg>
