<svg width="24" height="24" viewBox="0 0 24 24" fill="none" xmlns="http://www.w3.org/2000/svg">
<path d="M3.2 22.4498H4.3V8.14981H3.2C2.61652 8.14981 2.05694 8.38159 1.64437 8.79417C1.23178 9.20675 1 9.76633 1 10.3498V20.2498C1 20.8333 1.23178 21.3929 1.64437 21.8054C2.05694 22.218 2.61652 22.4498 3.2 22.4498ZM20.8 8.14981H13.1L14.3342 4.445C14.4443 4.11436 14.4743 3.76228 14.4217 3.41778C14.3691 3.07327 14.2354 2.74618 14.0317 2.46346C13.8279 2.18074 13.5599 1.95047 13.2497 1.79162C12.9395 1.63278 12.596 1.5499 12.2475 1.5498H12L6.5 7.53161V22.4498H18.6L22.9032 12.9942L23 12.5498V10.3498C23 9.76633 22.7682 9.20675 22.3556 8.79417C21.9431 8.38159 21.3835 8.14981 20.8 8.14981Z" fill="#4C5BD4"/>
</svg>
