<svg width="24" height="25" viewBox="0 0 24 25" fill="none" xmlns="http://www.w3.org/2000/svg">
<path d="M20.6211 9.40117C19.5711 4.78117 15.5411 2.70117 12.0011 2.70117C12.0011 2.70117 12.0011 2.70117 11.9911 2.70117C8.46107 2.70117 4.42107 4.77117 3.37107 9.39117C2.20107 14.5512 5.36107 18.9212 8.22107 21.6712C9.28107 22.6912 10.6411 23.2012 12.0011 23.2012C13.3611 23.2012 14.7211 22.6912 15.7711 21.6712C18.6311 18.9212 21.7911 14.5612 20.6211 9.40117ZM12.0011 14.4112C10.2611 14.4112 8.85107 13.0012 8.85107 11.2612C8.85107 9.52117 10.2611 8.11117 12.0011 8.11117C13.7411 8.11117 15.1511 9.52117 15.1511 11.2612C15.1511 13.0012 13.7411 14.4112 12.0011 14.4112Z" fill="#474747"/>
</svg>
