<svg width="20" height="21" viewBox="0 0 20 21" fill="none" xmlns="http://www.w3.org/2000/svg">
<path d="M16.6673 10.9139C16.6673 9.99473 15.9198 9.24723 15.0007 9.24723H14.1673V6.74723C14.1673 4.44973 12.2982 2.58057 10.0007 2.58057C7.70315 2.58057 5.83398 4.44973 5.83398 6.74723V9.24723H5.00065C4.08148 9.24723 3.33398 9.99473 3.33398 10.9139V17.5806C3.33398 18.4997 4.08148 19.2472 5.00065 19.2472H15.0007C15.9198 19.2472 16.6673 18.4997 16.6673 17.5806V10.9139ZM7.50065 6.74723C7.50065 5.3689 8.62232 4.24723 10.0007 4.24723C11.379 4.24723 12.5007 5.3689 12.5007 6.74723V9.24723H7.50065V6.74723Z" fill="#666666"/>
</svg>
