<svg width="20" height="20" viewBox="0 0 20 20" fill="none" xmlns="http://www.w3.org/2000/svg">
<path d="M14.1654 1.6665H5.83203C4.41536 1.6665 3.33203 2.74984 3.33203 4.1665V9.1665H10.4987L8.58203 7.24984C8.2487 6.9165 8.2487 6.4165 8.58203 6.08317C8.91536 5.74984 9.41536 5.74984 9.7487 6.08317L13.082 9.4165C13.4154 9.74984 13.4154 10.2498 13.082 10.5832L9.7487 13.9165C9.41536 14.2498 8.91536 14.2498 8.58203 13.9165C8.2487 13.5832 8.2487 13.0832 8.58203 12.7498L10.4987 10.8332H3.33203V15.8332C3.33203 17.2498 4.41536 18.3332 5.83203 18.3332H14.1654C15.582 18.3332 16.6654 17.2498 16.6654 15.8332V4.1665C16.6654 2.74984 15.582 1.6665 14.1654 1.6665Z" fill="#474747"/>
</svg>
