<svg width="16" height="20" viewBox="0 0 16 20" fill="none" xmlns="http://www.w3.org/2000/svg">
<path d="M12.5714 0H3.42858C2.51926 0 1.64719 0.316008 1.00421 0.878505C0.361232 1.441 9.00904e-06 2.20391 9.00904e-06 2.9994V18.9962C-0.000790496 19.1724 0.0516371 19.3456 0.151984 19.4984C0.25233 19.6511 0.397032 19.778 0.571437 19.8661C0.745173 19.9538 0.942252 20 1.14286 20C1.34348 20 1.54056 19.9538 1.71429 19.8661L8 16.6867L14.2857 19.8661C14.4599 19.9524 14.6569 19.9972 14.8571 19.996C15.0573 19.9972 15.2544 19.9524 15.4286 19.8661C15.603 19.778 15.7477 19.6511 15.848 19.4984C15.9484 19.3456 16.0008 19.1724 16 18.9962V2.9994C16 2.20391 15.6388 1.441 14.9958 0.878505C14.3528 0.316008 13.4807 0 12.5714 0Z" fill="#474747"/>
</svg>
