<svg width="44" height="44" viewBox="0 0 44 44" fill="none" xmlns="http://www.w3.org/2000/svg">
<rect width="44" height="44" rx="22" fill="url(#paint0_linear_2057_19688)"/>
<path d="M22.0007 10.3335C15.5723 10.3335 10.334 15.5718 10.334 22.0002C10.334 28.4285 15.5723 33.6668 22.0007 33.6668C28.429 33.6668 33.6673 28.4285 33.6673 22.0002C33.6673 15.5718 28.429 10.3335 22.0007 10.3335ZM21.1257 17.3335C21.1257 16.8552 21.5223 16.4585 22.0007 16.4585C22.479 16.4585 22.8757 16.8552 22.8757 17.3335V23.1668C22.8757 23.6452 22.479 24.0418 22.0007 24.0418C21.5223 24.0418 21.1257 23.6452 21.1257 23.1668V17.3335ZM23.074 27.1102C23.0157 27.2618 22.934 27.3785 22.829 27.4952C22.7123 27.6002 22.584 27.6818 22.444 27.7402C22.304 27.7985 22.1523 27.8335 22.0007 27.8335C21.849 27.8335 21.6973 27.7985 21.5573 27.7402C21.4173 27.6818 21.289 27.6002 21.1723 27.4952C21.0673 27.3785 20.9857 27.2618 20.9273 27.1102C20.869 26.9702 20.834 26.8185 20.834 26.6668C20.834 26.5152 20.869 26.3635 20.9273 26.2235C20.9857 26.0835 21.0673 25.9552 21.1723 25.8385C21.289 25.7335 21.4173 25.6518 21.5573 25.5935C21.8373 25.4768 22.164 25.4768 22.444 25.5935C22.584 25.6518 22.7123 25.7335 22.829 25.8385C22.934 25.9552 23.0157 26.0835 23.074 26.2235C23.1323 26.3635 23.1673 26.5152 23.1673 26.6668C23.1673 26.8185 23.1323 26.9702 23.074 27.1102Z" fill="white"/>
<defs>
<linearGradient id="paint0_linear_2057_19688" x1="8.17461" y1="7.01367" x2="23.2418" y2="40.9928" gradientUnits="userSpaceOnUse">
<stop stop-color="#F65034"/>
<stop offset="1" stop-color="#FE9618"/>
</linearGradient>
</defs>
</svg>
