<svg width="20" height="20" viewBox="0 0 20 20" fill="none" xmlns="http://www.w3.org/2000/svg">
<g clip-path="url(#clip0_2011_111387)">
<path d="M4.22689 0C1.88531 0 0 1.88531 0 4.22689V15.7731C0 18.1147 1.88531 20 4.22689 20H15.7731C18.1147 20 20 18.1147 20 15.7731V4.22689C20 1.88531 18.1147 0 15.7731 0H4.22689ZM5 4.16667H15V15.8333H5V4.16667ZM5.83333 5V5.41667V8.33333H9.16667V5H5.83333ZM10 5V5.83333H14.1667V5H10ZM6.66667 5.83333H8.33333V7.5H6.66667V5.83333ZM10 6.66667V7.5H14.1667V6.66667H10ZM5.83333 9.16667V10H14.1667V9.16667H5.83333ZM5.83333 10.8333V11.6667H10V10.8333H5.83333ZM12.5 11.6667C11.5845 11.6667 10.8333 12.4178 10.8333 13.3333C10.8333 14.2489 11.5845 15 12.5 15C13.4155 15 14.1667 14.2489 14.1667 13.3333C14.1667 12.4178 13.4155 11.6667 12.5 11.6667ZM5.83333 12.5V13.3333H10V12.5H5.83333ZM12.5 12.5C12.9652 12.5 13.3333 12.8682 13.3333 13.3333C13.3333 13.7985 12.9652 14.1667 12.5 14.1667C12.0348 14.1667 11.6667 13.7985 11.6667 13.3333C11.6667 12.8682 12.0348 12.5 12.5 12.5ZM5.83333 14.1667V15H10V14.1667H5.83333Z" fill="#474747"/>
</g>
<defs>
<clipPath id="clip0_2011_111387">
<rect width="20" height="20" fill="white"/>
</clipPath>
</defs>
</svg>
