<svg width="24" height="25" viewBox="0 0 24 25" fill="none" xmlns="http://www.w3.org/2000/svg">
<path d="M16.7502 4.55219V2.99219C16.7502 2.58219 16.4102 2.24219 16.0002 2.24219C15.5902 2.24219 15.2502 2.58219 15.2502 2.99219V4.49219H8.75023V2.99219C8.75023 2.58219 8.41023 2.24219 8.00023 2.24219C7.59023 2.24219 7.25023 2.58219 7.25023 2.99219V4.55219C4.55023 4.80219 3.24023 6.41219 3.04023 8.80219C3.02023 9.09219 3.26023 9.33219 3.54023 9.33219H20.4602C20.7502 9.33219 20.9902 9.08219 20.9602 8.80219C20.7602 6.41219 19.4502 4.80219 16.7502 4.55219Z" fill="white"/>
<path d="M20 10.832H4C3.45 10.832 3 11.282 3 11.832V17.992C3 20.992 4.5 22.992 8 22.992H16C19.5 22.992 21 20.992 21 17.992V11.832C21 11.282 20.55 10.832 20 10.832ZM9.21 19.202C9.16 19.242 9.11 19.292 9.06 19.322C9 19.362 8.94 19.392 8.88 19.412C8.82 19.442 8.76 19.462 8.7 19.472C8.63 19.482 8.57 19.492 8.5 19.492C8.37 19.492 8.24 19.462 8.12 19.412C7.99 19.362 7.89 19.292 7.79 19.202C7.61 19.012 7.5 18.752 7.5 18.492C7.5 18.232 7.61 17.972 7.79 17.782C7.89 17.692 7.99 17.622 8.12 17.572C8.3 17.492 8.5 17.472 8.7 17.512C8.76 17.522 8.82 17.542 8.88 17.572C8.94 17.592 9 17.622 9.06 17.662C9.11 17.702 9.16 17.742 9.21 17.782C9.39 17.972 9.5 18.232 9.5 18.492C9.5 18.752 9.39 19.012 9.21 19.202ZM9.21 15.702C9.02 15.882 8.76 15.992 8.5 15.992C8.24 15.992 7.98 15.882 7.79 15.702C7.61 15.512 7.5 15.252 7.5 14.992C7.5 14.732 7.61 14.472 7.79 14.282C8.07 14.002 8.51 13.912 8.88 14.072C9.01 14.122 9.12 14.192 9.21 14.282C9.39 14.472 9.5 14.732 9.5 14.992C9.5 15.252 9.39 15.512 9.21 15.702ZM12.71 19.202C12.52 19.382 12.26 19.492 12 19.492C11.74 19.492 11.48 19.382 11.29 19.202C11.11 19.012 11 18.752 11 18.492C11 18.232 11.11 17.972 11.29 17.782C11.66 17.412 12.34 17.412 12.71 17.782C12.89 17.972 13 18.232 13 18.492C13 18.752 12.89 19.012 12.71 19.202ZM12.71 15.702C12.66 15.742 12.61 15.782 12.56 15.822C12.5 15.862 12.44 15.892 12.38 15.912C12.32 15.942 12.26 15.962 12.2 15.972C12.13 15.982 12.07 15.992 12 15.992C11.74 15.992 11.48 15.882 11.29 15.702C11.11 15.512 11 15.252 11 14.992C11 14.732 11.11 14.472 11.29 14.282C11.38 14.192 11.49 14.122 11.62 14.072C11.99 13.912 12.43 14.002 12.71 14.282C12.89 14.472 13 14.732 13 14.992C13 15.252 12.89 15.512 12.71 15.702ZM16.21 19.202C16.02 19.382 15.76 19.492 15.5 19.492C15.24 19.492 14.98 19.382 14.79 19.202C14.61 19.012 14.5 18.752 14.5 18.492C14.5 18.232 14.61 17.972 14.79 17.782C15.16 17.412 15.84 17.412 16.21 17.782C16.39 17.972 16.5 18.232 16.5 18.492C16.5 18.752 16.39 19.012 16.21 19.202ZM16.21 15.702C16.16 15.742 16.11 15.782 16.06 15.822C16 15.862 15.94 15.892 15.88 15.912C15.82 15.942 15.76 15.962 15.7 15.972C15.63 15.982 15.56 15.992 15.5 15.992C15.24 15.992 14.98 15.882 14.79 15.702C14.61 15.512 14.5 15.252 14.5 14.992C14.5 14.732 14.61 14.472 14.79 14.282C14.89 14.192 14.99 14.122 15.12 14.072C15.3 13.992 15.5 13.972 15.7 14.012C15.76 14.022 15.82 14.042 15.88 14.072C15.94 14.092 16 14.122 16.06 14.162C16.11 14.202 16.16 14.242 16.21 14.282C16.39 14.472 16.5 14.732 16.5 14.992C16.5 15.252 16.39 15.512 16.21 15.702Z" fill="white"/>
</svg>
