<svg width="28" height="29" viewBox="0 0 28 29" fill="none" xmlns="http://www.w3.org/2000/svg">
<path d="M19.8337 26.573H8.16699C7.68866 26.573 7.29199 26.1763 7.29199 25.698C7.29199 25.2197 7.68866 24.823 8.16699 24.823H19.8337C20.312 24.823 20.7087 25.2197 20.7087 25.698C20.7087 26.1763 20.312 26.573 19.8337 26.573Z" fill="#666666"/>
<path d="M20.9997 2.3645H6.99967C4.42134 2.3645 2.33301 4.45284 2.33301 7.03117V17.5312C2.33301 20.1095 4.42134 22.1978 6.99967 22.1978H20.9997C23.578 22.1978 25.6663 20.1095 25.6663 17.5312V7.03117C25.6663 4.45284 23.578 2.3645 20.9997 2.3645ZM11.6547 8.57117C12.308 8.57117 12.833 9.09617 12.833 9.73784C12.833 10.3795 12.308 10.9045 11.6663 10.9045C11.0247 10.9045 10.4997 10.3795 10.4997 9.73784C10.4997 9.09617 11.013 8.57117 11.6547 8.57117ZM7.97968 8.57117C8.63301 8.57117 9.15801 9.09617 9.15801 9.73784C9.15801 10.3795 8.63301 10.9045 7.99134 10.9045C7.34967 10.9045 6.82467 10.3795 6.82467 9.73784C6.82467 9.09617 7.32634 8.57117 7.97968 8.57117ZM20.1363 17.3678H7.88634C7.39634 17.3678 6.99967 16.9712 6.99967 16.4928C6.99967 16.0145 7.38467 15.6178 7.86301 15.6178H20.148C20.6263 15.6178 21.023 16.0145 21.023 16.4928C21.023 16.9712 20.6263 17.3678 20.1363 17.3678ZM20.1363 10.6128H15.843C15.3647 10.6128 14.968 10.2162 14.968 9.73784C14.968 9.2595 15.3647 8.86284 15.843 8.86284H20.1363C20.6147 8.86284 21.0113 9.2595 21.0113 9.73784C21.0113 10.2162 20.6263 10.6128 20.1363 10.6128Z" fill="#666666"/>
</svg>
