<svg width="24" height="24" viewBox="0 0 24 24" fill="none" xmlns="http://www.w3.org/2000/svg">
<path d="M12.0002 14C6.99016 14 2.91016 17.36 2.91016 21.5C2.91016 21.78 3.13016 22 3.41016 22H20.5902C20.8702 22 21.0902 21.78 21.0902 21.5C21.0902 17.36 17.0102 14 12.0002 14Z" fill="#474747"/>
<path d="M16.8496 5.80008C16.7296 5.31008 16.5296 4.83008 16.2496 4.39008C16.0596 4.07008 15.8096 3.75008 15.5396 3.47008C14.6396 2.57008 13.4696 2.08008 12.2696 2.02008C10.9096 1.93008 9.5196 2.43008 8.4696 3.47008C7.4796 4.45008 6.9796 5.76008 6.9996 7.08008C7.0096 8.33008 7.5096 9.58008 8.4596 10.5401C9.1196 11.2001 9.9296 11.6401 10.7996 11.8401C11.2696 11.9601 11.7696 12.0201 12.2696 11.9801C13.4596 11.9301 14.6196 11.4601 15.5296 10.5401C16.8196 9.25008 17.2596 7.44008 16.8496 5.80008ZM13.9996 9.00008C13.6396 9.36008 13.0396 9.36008 12.6796 9.00008L11.9896 8.31008L11.3296 8.97008C10.9696 9.33008 10.3696 9.33008 10.0096 8.97008C9.6396 8.60008 9.6396 8.01008 9.9996 7.65008L10.6596 6.99008L10.0196 6.37008C9.6596 6.00008 9.6596 5.41008 10.0196 5.03008C10.3896 4.67008 10.9796 4.67008 11.3596 5.03008L11.9796 5.67008L12.6496 5.00008C13.0096 4.64008 13.5996 4.64008 13.9696 5.00008C14.3296 5.36008 14.3296 5.96008 13.9696 6.32008L13.3096 6.98008L13.9996 7.68008C14.3596 8.04008 14.3596 8.64008 13.9996 9.00008Z" fill="#474747"/>
</svg>
