<svg width="21" height="21" viewBox="0 0 21 21" fill="none" xmlns="http://www.w3.org/2000/svg">
<path d="M6.72568 9.52193C7.9353 8.31231 10.0449 8.31231 11.2545 9.52193L12.0093 10.2767L13.519 8.76712L12.7642 8.01231C11.7574 7.00447 10.4165 6.44824 8.99011 6.44824C7.56376 6.44824 6.22283 7.00447 5.21606 8.01231L2.95056 10.2767C1.95158 11.2789 1.39063 12.6363 1.39062 14.0513C1.39063 15.4664 1.95158 16.8237 2.95056 17.8259C3.4458 18.3219 4.03416 18.7151 4.68184 18.9829C5.32951 19.2508 6.02373 19.388 6.72461 19.3868C7.42568 19.3882 8.12012 19.2511 8.76799 18.9832C9.41587 18.7153 10.0044 18.322 10.4997 17.8259L11.2545 17.0711L9.74492 15.5615L8.99011 16.3163C8.38847 16.9152 7.57409 17.2515 6.72514 17.2515C5.8762 17.2515 5.06182 16.9152 4.46018 16.3163C3.86071 15.7149 3.52409 14.9004 3.52409 14.0513C3.52409 13.2022 3.86071 12.3877 4.46018 11.7864L6.72568 9.52193Z" fill="#474747"/>
<path d="M10.4958 2.72781L9.74099 3.48262L11.2506 4.99224L12.0054 4.23743C12.6071 3.63848 13.4214 3.30222 14.2704 3.30222C15.1193 3.30222 15.9337 3.63848 16.5354 4.23743C17.1348 4.83879 17.4714 5.65328 17.4714 6.50239C17.4714 7.35151 17.1348 8.16599 16.5354 8.76735L14.2699 11.0318C13.0602 12.2414 10.9506 12.2414 9.74099 11.0318L8.98618 10.277L7.47656 11.7866L8.23137 12.5414C9.23814 13.5492 10.5791 14.1055 12.0054 14.1055C13.4318 14.1055 14.7727 13.5492 15.7795 12.5414L18.045 10.277C19.044 9.27478 19.6049 7.91744 19.6049 6.50239C19.6049 5.08734 19.044 3.73 18.045 2.72781C17.0431 1.7283 15.6856 1.16699 14.2704 1.16699C12.8552 1.16699 11.4977 1.7283 10.4958 2.72781Z" fill="#474747"/>
</svg>
