<svg width="20" height="20" viewBox="0 0 20 20" fill="none" xmlns="http://www.w3.org/2000/svg">
<path d="M19 9.99164C19 14.968 14.968 19 10.0084 19C5.032 19 1 14.968 1 9.99164C1 5.032 5.032 1 10.0084 1C14.968 1 19 5.032 19 9.99164Z" fill="#474747"/>
<path d="M11.3334 11.8805C9.56107 11.8805 8.11914 10.4385 8.11914 8.66619C8.11914 6.89383 9.56107 5.4519 11.3334 5.4519C13.1058 5.4519 14.5477 6.89383 14.5477 8.66619C14.5477 10.4385 13.1058 11.8805 11.3334 11.8805ZM11.3334 6.09476C9.91528 6.09476 8.762 7.24805 8.762 8.66619C8.762 10.0843 9.91528 11.2376 11.3334 11.2376C12.7516 11.2376 13.9049 10.0843 13.9049 8.66619C13.9049 7.24805 12.7509 6.09476 11.3334 6.09476Z" fill="white" stroke="white"/>
<path d="M5.6595 14.5483C5.61871 14.5483 5.57883 14.5356 5.54491 14.5117C5.51098 14.4878 5.48453 14.4539 5.46889 14.4142C5.45325 14.3746 5.44913 14.3309 5.45705 14.2887C5.46496 14.2466 5.48456 14.2079 5.51336 14.1774L7.76956 11.8013C7.80849 11.7617 7.86063 11.7397 7.91476 11.7402C7.96888 11.7407 8.02065 11.7636 8.05892 11.8039C8.0972 11.8442 8.11891 11.8987 8.11938 11.9557C8.11985 12.0127 8.09904 12.0677 8.06144 12.1087L5.80565 14.4844C5.78648 14.5046 5.7637 14.5207 5.73862 14.5317C5.71355 14.5427 5.68666 14.5483 5.6595 14.5483Z" fill="white" stroke="white"/>
</svg>
