<svg width="27" height="28" viewBox="0 0 27 28" fill="none" xmlns="http://www.w3.org/2000/svg">
<path d="M13.6484 26.3633C20.2855 26.3633 25.666 20.9828 25.666 14.3457C25.666 7.70857 20.2855 2.32812 13.6484 2.32812C7.01131 2.32812 1.63086 7.70857 1.63086 14.3457C1.63086 20.9828 7.01131 26.3633 13.6484 26.3633Z" fill="#474747"/>
<path d="M13.6484 6.9375C9.5842 6.9375 6.28711 10.0058 6.28711 13.8008C6.28711 15.954 7.36371 17.8785 9.03244 19.1435V21.7542L11.5355 20.3681C12.2084 20.5565 12.9082 20.6507 13.6484 20.6507C17.7125 20.6507 21.0096 17.5824 21.0096 13.7874C21.0096 10.0058 17.7125 6.9375 13.6484 6.9375ZM14.3885 16.1694L12.5045 14.1642L8.84404 16.1694L12.8813 11.8764L14.8057 13.8816L18.4123 11.8764L14.3885 16.1694Z" fill="white"/>
</svg>
