<svg width="28" height="29" viewBox="0 0 28 29" fill="none" xmlns="http://www.w3.org/2000/svg">
<path d="M23.4487 11.7492C21.337 11.7492 20.4737 10.2559 21.5237 8.42419C22.1304 7.36252 21.7687 6.00919 20.707 5.40252L18.6887 4.24752C17.767 3.69919 16.577 4.02585 16.0287 4.94752L15.9004 5.16919C14.8504 7.00085 13.1237 7.00085 12.062 5.16919L11.9337 4.94752C11.4087 4.02585 10.2187 3.69919 9.29703 4.24752L7.2787 5.40252C6.21703 6.00919 5.85536 7.37419 6.46203 8.43585C7.5237 10.2559 6.66037 11.7492 4.5487 11.7492C3.33536 11.7492 2.33203 12.7409 2.33203 13.9659V16.0192C2.33203 17.2325 3.3237 18.2359 4.5487 18.2359C6.66037 18.2359 7.5237 19.7292 6.46203 21.5609C5.85536 22.6225 6.21703 23.9759 7.2787 24.5825L9.29703 25.7375C10.2187 26.2859 11.4087 25.9592 11.957 25.0375L12.0854 24.8159C13.1354 22.9842 14.862 22.9842 15.9237 24.8159L16.052 25.0375C16.6004 25.9592 17.7904 26.2859 18.712 25.7375L20.7304 24.5825C21.792 23.9759 22.1537 22.6109 21.547 21.5609C20.4854 19.7292 21.3487 18.2359 23.4604 18.2359C24.6737 18.2359 25.677 17.2442 25.677 16.0192V13.9659C25.6654 12.7525 24.6737 11.7492 23.4487 11.7492ZM13.9987 18.7842C11.9104 18.7842 10.207 17.0809 10.207 14.9925C10.207 12.9042 11.9104 11.2009 13.9987 11.2009C16.087 11.2009 17.7904 12.9042 17.7904 14.9925C17.7904 17.0809 16.087 18.7842 13.9987 18.7842Z" fill="#474747"/>
</svg>
