<svg width="26" height="27" viewBox="0 0 26 27" fill="none" xmlns="http://www.w3.org/2000/svg">
<g clip-path="url(#clip0_2055_20899)">
<path d="M13.4733 22.6827C12.717 22.6701 11.9878 22.355 11.4094 21.7909L7.5997 17.9056C7.30952 17.5963 6.93461 17.415 6.54057 17.3933C6.14654 17.3716 5.75846 17.511 5.44426 17.7871L0.00177323 22.3959V25.3956C-0.0158848 25.7807 0.0988975 26.1583 0.321035 26.4458C0.543173 26.7333 0.854603 26.9073 1.18727 26.9298H20.5054C20.8835 26.951 21.254 26.8027 21.54 26.5158C21.8261 26.2289 22.0055 25.8255 22.0412 25.3894V17.5376L15.1545 22.1339C14.6493 22.4947 14.0669 22.6847 13.4733 22.6827Z" fill="#33A348"/>
<path d="M13.1896 14.831C14.0407 14.831 14.7307 14.0324 14.7307 13.0473C14.7307 12.0622 14.0407 11.2637 13.1896 11.2637C12.3384 11.2637 11.6484 12.0622 11.6484 13.0473C11.6484 14.0324 12.3384 14.831 13.1896 14.831Z" fill="#33A348"/>
<path d="M25.6781 4.10411C25.5705 3.92603 25.4301 3.77774 25.267 3.66991C25.104 3.56208 24.9223 3.49738 24.7351 3.48046L5.67561 0.92973C5.30766 0.873005 4.93529 0.987601 4.64028 1.24835C4.34526 1.50911 4.15172 1.8947 4.10214 2.32047L3.77344 5.47614H20.4781C21.2455 5.49784 21.9769 5.85783 22.5227 6.48258C23.0685 7.10734 23.3877 7.94971 23.4149 8.83762V23.1255C23.4149 23.0444 23.7328 22.9633 23.8729 22.8012C24.0153 22.6698 24.13 22.5028 24.2084 22.3126C24.2868 22.1225 24.3269 21.9142 24.3256 21.7035L25.996 5.29529C26.0154 5.08217 25.9972 4.86672 25.9426 4.66198C25.8879 4.45723 25.798 4.26745 25.6781 4.10411Z" fill="#33A348"/>
<path d="M8.50329 16.6894L12.3507 20.5747C12.6331 20.8543 12.9839 21.0245 13.3541 21.0614C13.7243 21.0983 14.0951 21.0001 14.4146 20.7806L22.0395 15.6417V8.83764C22.0116 8.37505 21.8363 7.94092 21.5476 7.61943C21.2588 7.29793 20.8772 7.11199 20.4768 7.09766H1.29873C1.11505 7.11108 0.935493 7.16658 0.770487 7.26094C0.605482 7.35531 0.458307 7.48665 0.3375 7.64735C0.216694 7.80805 0.12466 7.99491 0.0667371 8.1971C0.00881437 8.39928 -0.0138442 8.61277 7.57859e-05 8.82517V20.3752L4.6235 16.521C5.18844 16.0288 5.88262 15.7769 6.58924 15.8076C7.29585 15.8382 7.97178 16.1496 8.50329 16.6894ZM13.1914 9.66086C13.772 9.66456 14.3386 9.86736 14.8196 10.2436C15.3007 10.6199 15.6746 11.1528 15.8941 11.7749C16.1135 12.397 16.1688 13.0804 16.0528 13.7388C15.9367 14.3973 15.6547 15.0011 15.2423 15.4741C14.8298 15.9471 14.3055 16.2679 13.7356 16.3961C13.1656 16.5244 12.5757 16.4542 12.0402 16.1945C11.5047 15.9348 11.0477 15.4972 10.727 14.937C10.4063 14.3769 10.2363 13.7192 10.2384 13.0473C10.2398 12.6004 10.3174 12.1582 10.4666 11.7461C10.6158 11.3339 10.8338 10.9599 11.1081 10.6453C11.3824 10.3308 11.7076 10.0819 12.065 9.91301C12.4225 9.74408 12.8053 9.6584 13.1914 9.66086Z" fill="#33A348"/>
</g>
<defs>
<clipPath id="clip0_2055_20899">
<rect width="26" height="26" fill="white" transform="translate(0 0.929688)"/>
</clipPath>
</defs>
</svg>
