<svg width="20" height="21" viewBox="0 0 20 21" fill="none" xmlns="http://www.w3.org/2000/svg">
<path d="M10 0.5C15.5228 0.5 20 4.97715 20 10.5C20 16.0228 15.5228 20.5 10 20.5C4.47715 20.5 0 16.0228 0 10.5C0 4.97715 4.47715 0.5 10 0.5ZM9.16921 5.5C8.70897 5.5 8.33588 5.8731 8.33588 6.33333V11.3333C8.33588 11.7936 8.70897 12.1667 9.16921 12.1667H12.5C12.9602 12.1667 13.3333 11.7936 13.3333 11.3333C13.3333 10.8731 12.9602 10.5 12.5 10.5H10.0025V6.33333C10.0025 5.8731 9.62945 5.5 9.16921 5.5Z" fill="#474747"/>
</svg>
