<svg width="40" height="41" viewBox="0 0 40 41" fill="none" xmlns="http://www.w3.org/2000/svg">
<rect y="0.0625" width="40" height="40" rx="20" fill="#666666" fill-opacity="0.5"/>
<g clip-path="url(#clip0_2057_19519)">
<path d="M20 18.4829C21.0156 18.4829 22.0084 18.1817 22.8529 17.6175C23.6973 17.0532 24.3555 16.2513 24.7441 15.313C25.1328 14.3747 25.2345 13.3422 25.0363 12.3461C24.8382 11.35 24.3491 10.435 23.631 9.7169C22.9128 8.99876 21.9979 8.5097 21.0018 8.31156C20.0057 8.11343 18.9732 8.21512 18.0349 8.60377C17.0966 8.99243 16.2946 9.65059 15.7304 10.495C15.1662 11.3395 14.865 12.3323 14.865 13.3479C14.865 14.7098 15.406 16.0159 16.369 16.9789C17.332 17.9419 18.6381 18.4829 20 18.4829ZM23.16 19.6679H16.84C15.0591 19.6679 13.3511 20.3754 12.0918 21.6347C10.8325 22.894 10.125 24.602 10.125 26.3829V31.5179C10.125 31.6227 10.1666 31.7231 10.2407 31.7972C10.3148 31.8713 10.4152 31.9129 10.52 31.9129H29.48C29.5848 31.9129 29.6852 31.8713 29.7593 31.7972C29.8334 31.7231 29.875 31.6227 29.875 31.5179V26.3829C29.875 24.602 29.1675 22.894 27.9082 21.6347C26.6489 20.3754 24.9409 19.6679 23.16 19.6679Z" fill="white"/>
<ellipse cx="20" cy="25.8086" rx="3.44727" ry="3.44727" fill="#A79B88"/>
<path d="M22.0281 28.6492L17.1601 23.7813L17.9727 22.9688L22.8406 27.8367L22.0281 28.6492Z" fill="white"/>
</g>
<defs>
<clipPath id="clip0_2057_19519">
<rect width="24" height="24" fill="white" transform="translate(8 8.0625)"/>
</clipPath>
</defs>
</svg>
