<svg width="40" height="41" viewBox="0 0 40 41" fill="none" xmlns="http://www.w3.org/2000/svg">
<rect y="0.0625" width="40" height="40" rx="20" fill="#666666" fill-opacity="0.5"/>
<g clip-path="url(#clip0_2057_19633)">
<path d="M20 18.4829C21.0156 18.4829 22.0084 18.1817 22.8529 17.6175C23.6973 17.0532 24.3555 16.2513 24.7441 15.313C25.1328 14.3747 25.2345 13.3422 25.0363 12.3461C24.8382 11.35 24.3491 10.435 23.631 9.7169C22.9128 8.99876 21.9979 8.5097 21.0018 8.31156C20.0057 8.11343 18.9732 8.21512 18.0349 8.60377C17.0966 8.99243 16.2946 9.65059 15.7304 10.495C15.1662 11.3395 14.865 12.3323 14.865 13.3479C14.865 14.7098 15.406 16.0159 16.369 16.9789C17.332 17.9419 18.6381 18.4829 20 18.4829ZM23.16 19.6679H16.84C15.0591 19.6679 13.3511 20.3754 12.0918 21.6347C10.8325 22.894 10.125 24.602 10.125 26.3829V31.5179C10.125 31.6227 10.1666 31.7231 10.2407 31.7972C10.3148 31.8713 10.4152 31.9129 10.52 31.9129H29.48C29.5848 31.9129 29.6852 31.8713 29.7593 31.7972C29.8334 31.7231 29.875 31.6227 29.875 31.5179V26.3829C29.875 24.602 29.1675 22.894 27.9082 21.6347C26.6489 20.3754 24.9409 19.6679 23.16 19.6679Z" fill="white"/>
<path d="M16.9724 23.0222C17.0144 22.9802 17.0642 22.9469 17.119 22.9241C17.1738 22.9014 17.2326 22.8896 17.292 22.8896C17.3513 22.8896 17.4101 22.9014 17.465 22.9241C17.5198 22.9469 17.5696 22.9802 17.6115 23.0222L20 25.4116L22.3884 23.0222C22.4304 22.9803 22.4802 22.947 22.535 22.9243C22.5898 22.9016 22.6486 22.8899 22.7079 22.8899C22.7673 22.8899 22.8261 22.9016 22.8809 22.9243C22.9357 22.947 22.9855 22.9803 23.0275 23.0222C23.0694 23.0642 23.1027 23.114 23.1254 23.1689C23.1482 23.2237 23.1598 23.2824 23.1598 23.3418C23.1598 23.4011 23.1482 23.4599 23.1254 23.5147C23.1027 23.5695 23.0694 23.6194 23.0275 23.6613L20.6381 26.0498L23.0275 28.4382C23.0694 28.4802 23.1027 28.53 23.1254 28.5848C23.1482 28.6396 23.1598 28.6984 23.1598 28.7577C23.1598 28.8171 23.1482 28.8759 23.1254 28.9307C23.1027 28.9855 23.0694 29.0353 23.0275 29.0773C22.9855 29.1193 22.9357 29.1525 22.8809 29.1752C22.8261 29.198 22.7673 29.2096 22.7079 29.2096C22.6486 29.2096 22.5898 29.198 22.535 29.1752C22.4802 29.1525 22.4304 29.1193 22.3884 29.0773L20 26.6879L17.6115 29.0773C17.5696 29.1193 17.5197 29.1525 17.4649 29.1752C17.4101 29.198 17.3513 29.2096 17.292 29.2096C17.2326 29.2096 17.1739 29.198 17.119 29.1752C17.0642 29.1525 17.0144 29.1193 16.9724 29.0773C16.9305 29.0353 16.8972 28.9855 16.8745 28.9307C16.8518 28.8759 16.8401 28.8171 16.8401 28.7577C16.8401 28.6984 16.8518 28.6396 16.8745 28.5848C16.8972 28.53 16.9305 28.4802 16.9724 28.4382L19.3618 26.0498L16.9724 23.6613C16.9304 23.6194 16.8971 23.5696 16.8743 23.5148C16.8516 23.4599 16.8398 23.4012 16.8398 23.3418C16.8398 23.2824 16.8516 23.2236 16.8743 23.1688C16.8971 23.114 16.9304 23.0642 16.9724 23.0222Z" fill="#B3B3B3"/>
</g>
<defs>
<clipPath id="clip0_2057_19633">
<rect width="24" height="24" fill="white" transform="translate(8 8.0625)"/>
</clipPath>
</defs>
</svg>
