<svg width="40" height="41" viewBox="0 0 40 41" fill="none" xmlns="http://www.w3.org/2000/svg">
<rect y="0.0625" width="40" height="40" rx="20" fill="#666666" fill-opacity="0.5"/>
<path d="M12.6373 10.5176C11.6969 10.5176 10.7951 10.8911 10.1302 11.556C9.46533 12.2209 9.0918 13.1227 9.0918 14.063V23.3358C9.0918 23.9867 9.3504 24.6111 9.81072 25.0714C10.271 25.5317 10.8954 25.7903 11.5463 25.7903H11.8191V16.7903C11.8191 15.85 12.1926 14.9482 12.8575 14.2833C13.5224 13.6184 14.4242 13.2449 15.3645 13.2449H27.6372V12.9721C27.6372 12.6498 27.5738 12.3306 27.4504 12.0328C27.3271 11.735 27.1463 11.4644 26.9183 11.2365C26.6904 11.0086 26.4198 10.8278 26.122 10.7044C25.8242 10.5811 25.505 10.5176 25.1827 10.5176H12.6373Z" fill="white"/>
<path d="M28.4547 14.3359H27.9136L27.8024 14.3436C27.597 14.3718 27.41 14.477 27.2792 14.6378C27.1484 14.7986 27.0835 15.0031 27.0976 15.2099C27.1117 15.4167 27.2038 15.6104 27.3553 15.752C27.5068 15.8935 27.7063 15.9722 27.9136 15.9723H28.4547L28.566 15.9799C28.7619 16.0068 28.9414 16.1037 29.0713 16.2527C29.2013 16.4017 29.2729 16.5928 29.2729 16.7905V17.8858L29.2805 17.9959C29.3088 18.2012 29.4139 18.3881 29.5746 18.5189C29.7352 18.6498 29.9396 18.7147 30.1463 18.7007C30.353 18.6868 30.5468 18.5949 30.6884 18.4436C30.83 18.2923 30.9089 18.093 30.9093 17.8858V16.7905L30.9038 16.6225C30.8612 16.002 30.5847 15.4208 30.1301 14.9963C29.6755 14.5719 29.0767 14.3359 28.4547 14.3359Z" fill="white"/>
<path d="M14.5389 20.4977C14.5106 20.2923 14.4055 20.1053 14.2447 19.9745C14.0839 19.8437 13.8794 19.7788 13.6726 19.7929C13.4658 19.807 13.272 19.8992 13.1305 20.0506C12.989 20.2021 12.9102 20.4016 12.9102 20.6089V23.3297L12.9178 23.4409C12.946 23.6463 13.0512 23.8333 13.212 23.9641C13.3728 24.0949 13.5773 24.1598 13.7841 24.1457C13.9909 24.1316 14.1847 24.0395 14.3262 23.888C14.4677 23.7365 14.5465 23.537 14.5465 23.3297V20.6089L14.5389 20.4977Z" fill="white"/>
<path d="M13.7283 25.2393C13.9261 25.2393 14.1171 25.3109 14.2661 25.4408C14.4151 25.5708 14.512 25.7503 14.5389 25.9462L14.5465 26.0574V27.1538C14.5465 27.5683 14.8542 27.9109 15.2534 27.9643L15.3647 27.972H15.9102C16.1175 27.972 16.317 28.0508 16.4685 28.1923C16.6199 28.3338 16.7121 28.5276 16.7262 28.7344C16.7403 28.9412 16.6754 29.1457 16.5446 29.3065C16.4138 29.4673 16.2268 29.5725 16.0214 29.6007L15.9102 29.6083H15.3647C14.7427 29.6084 14.144 29.3724 13.6893 28.9479C13.2347 28.5235 12.9582 27.9423 12.9156 27.3218L12.9102 27.1538V26.0574C12.9102 25.8404 12.9964 25.6323 13.1498 25.4789C13.3032 25.3255 13.5113 25.2393 13.7283 25.2393Z" fill="white"/>
<path d="M30.0917 25.2393C30.3087 25.2393 30.5168 25.3255 30.6702 25.4789C30.8237 25.6323 30.9099 25.8404 30.9099 26.0574V27.1538C30.9099 27.8048 30.6513 28.4291 30.191 28.8894C29.7306 29.3497 29.1063 29.6083 28.4553 29.6083H27.3612C27.1442 29.6083 26.936 29.5221 26.7826 29.3687C26.6292 29.2153 26.543 29.0072 26.543 28.7902C26.543 28.5732 26.6292 28.3651 26.7826 28.2116C26.936 28.0582 27.1442 27.972 27.3612 27.972H28.4553C28.6723 27.972 28.8804 27.8858 29.0339 27.7323C29.1873 27.5789 29.2735 27.3708 29.2735 27.1538V26.0574C29.2735 25.8404 29.3597 25.6323 29.5132 25.4789C29.6666 25.3255 29.8747 25.2393 30.0917 25.2393Z" fill="white"/>
<path d="M24.6344 27.9727H23.0035L22.8922 27.9803C22.6868 28.0085 22.4999 28.1137 22.369 28.2745C22.2382 28.4353 22.1733 28.6398 22.1875 28.8466C22.2016 29.0534 22.2937 29.2472 22.4452 29.3887C22.5966 29.5302 22.7962 29.609 23.0035 29.609H24.6344L24.7457 29.6014C24.951 29.5731 25.138 29.468 25.2688 29.3072C25.3996 29.1464 25.4645 28.9419 25.4504 28.7351C25.4363 28.5283 25.3442 28.3345 25.1927 28.193C25.0412 28.0515 24.8417 27.9727 24.6344 27.9727Z" fill="white"/>
<path d="M18.6372 27.9727H20.2692C20.4765 27.9727 20.676 28.0515 20.8275 28.193C20.9789 28.3345 21.0711 28.5283 21.0852 28.7351C21.0993 28.9419 21.0344 29.1464 20.9036 29.3072C20.7728 29.468 20.5858 29.5731 20.3804 29.6014L20.2692 29.609H18.6382C18.4309 29.609 18.2314 29.5302 18.0799 29.3887C17.9285 29.2472 17.8363 29.0534 17.8222 28.8466C17.8081 28.6398 17.873 28.4353 18.0038 28.2745C18.1346 28.1137 18.3216 28.0085 18.527 27.9803L18.6372 27.9727Z" fill="white"/>
<path d="M30.0916 19.791C30.2895 19.7911 30.4807 19.8628 30.6297 19.993C30.7787 20.1232 30.8755 20.3029 30.9022 20.499L30.9098 20.6103V23.331C30.9097 23.5383 30.831 23.7379 30.6895 23.8893C30.5479 24.0408 30.3542 24.1329 30.1474 24.147C29.9406 24.1612 29.7361 24.0963 29.5753 23.9655C29.4145 23.8346 29.3093 23.6477 29.2811 23.4423L29.2734 23.331V20.6103C29.2734 20.3933 29.3596 20.1852 29.5131 20.0317C29.6665 19.8783 29.8746 19.7921 30.0916 19.7921V19.791Z" fill="white"/>
<path d="M16.4589 14.3359C16.6759 14.3359 16.884 14.4221 17.0374 14.5756C17.1909 14.729 17.2771 14.9371 17.2771 15.1541C17.2771 15.3711 17.1909 15.5792 17.0374 15.7327C16.884 15.8861 16.6759 15.9723 16.4589 15.9723H15.3647C15.1477 15.9723 14.9396 16.0585 14.7862 16.2119C14.6327 16.3654 14.5465 16.5735 14.5465 16.7905V17.8858C14.5465 18.1028 14.4603 18.3109 14.3069 18.4643C14.1534 18.6177 13.9453 18.7039 13.7283 18.7039C13.5113 18.7039 13.3032 18.6177 13.1498 18.4643C12.9964 18.3109 12.9102 18.1028 12.9102 17.8858V16.7905C12.9102 16.1395 13.1688 15.5152 13.6291 15.0549C14.0894 14.5945 14.7137 14.3359 15.3647 14.3359H16.4589Z" fill="white"/>
<path d="M25.1841 14.3359H23.5445L23.4332 14.3436C23.2278 14.3718 23.0407 14.4771 22.9099 14.638C22.7791 14.7989 22.7142 15.0035 22.7285 15.2104C22.7428 15.4173 22.8351 15.6111 22.9868 15.7525C23.1385 15.894 23.3382 15.9725 23.5456 15.9723H25.1852L25.2965 15.9647C25.5019 15.9364 25.6888 15.8313 25.8197 15.6704C25.9505 15.5096 26.0154 15.3052 26.0013 15.0984C25.9871 14.8915 25.895 14.6978 25.7435 14.5563C25.5921 14.4147 25.3925 14.336 25.1852 14.3359H25.1841Z" fill="white"/>
<path d="M19.1832 14.3359H20.8141C21.0214 14.336 21.2209 14.4147 21.3724 14.5563C21.5239 14.6978 21.616 14.8915 21.6301 15.0984C21.6442 15.3052 21.5793 15.5096 21.4485 15.6704C21.3177 15.8313 21.1307 15.9364 20.9253 15.9647L20.8141 15.9723H19.1832C18.9759 15.9722 18.7763 15.8935 18.6248 15.752C18.4734 15.6104 18.3813 15.4167 18.3671 15.2099C18.353 15.0031 18.4179 14.7986 18.5487 14.6378C18.6795 14.477 18.8665 14.3718 19.0719 14.3436L19.1832 14.3359Z" fill="white"/>
<path d="M22.4566 21.5662L23.4223 19.8975H24.6879L23.1363 22.3959L24.7395 24.9693H23.4832L22.4707 23.235L21.4629 24.9693H20.1973L21.8004 22.3959L20.2535 19.8975H21.5098L22.4566 21.5662Z" fill="white"/>
</svg>
