<svg width="99" height="99" viewBox="0 0 99 99" fill="none" xmlns="http://www.w3.org/2000/svg">
<path d="M49.4997 0.0390625C22.4814 0.0390625 0.5 22.02 0.5 49.0388C0.5 76.0576 22.4814 98.0391 49.4997 98.0391C76.518 98.0391 98.4995 76.0576 98.4995 49.0388C98.4995 22.02 76.5186 0.0390625 49.4997 0.0390625ZM77.6363 40.7623L46.8522 71.5464C45.5433 72.8553 43.8033 73.5757 41.9524 73.5757C40.1015 73.5757 38.3615 72.8553 37.0526 71.5464L21.3632 55.857C20.0543 54.5481 19.3334 52.8081 19.3334 50.9572C19.3334 49.1058 20.0543 47.3658 21.3632 46.0569C22.6717 44.7479 24.4116 44.027 26.2631 44.027C28.114 44.027 29.8544 44.7479 31.1629 46.0574L41.9519 56.8459L67.8356 30.9622C69.1445 29.6532 70.8845 28.9328 72.7354 28.9328C74.5863 28.9328 76.3263 29.6532 77.6352 30.9622C80.338 33.6649 80.338 38.0606 77.6363 40.7623Z" fill="#34B632"/>
</svg>
