<svg width="28" height="28" viewBox="0 0 28 28" fill="none" xmlns="http://www.w3.org/2000/svg">
<path d="M22 1H6C3.78667 1 2 2.73008 2 4.86341V19.0553C2 21.1886 3.78667 22.9187 6 22.9187H7.01333C8.08 22.9187 9.09333 23.322 9.84 24.0504L12.12 26.2488C13.16 27.2504 14.8533 27.2504 15.8933 26.2488L18.1733 24.0504C18.92 23.322 19.9467 22.9187 21 22.9187H22C24.2133 22.9187 26 21.1886 26 19.0553V4.86341C26 2.73008 24.2133 1 22 1ZM20.24 12.0569L18.68 16.6878C18.48 17.4553 17.64 18.0797 16.7867 18.0797H14.32C13.8933 18.0797 13.2933 17.9366 13.0267 17.6764L11.0667 16.1805C11.0267 17.013 10.64 17.3642 9.69333 17.3642H9.05333C8.06667 17.3642 7.66667 16.987 7.66667 16.0764V9.87154C7.66667 8.96098 8.06667 8.58374 9.05333 8.58374H9.70667C10.6933 8.58374 11.0933 8.96098 11.0933 9.87154V10.3398L13.68 6.5935C13.9467 6.19024 14.6267 5.90407 15.2 6.1252C15.8267 6.33333 16.2267 7.00976 16.0933 7.60813L15.7733 9.6374C15.7333 9.80651 15.7733 9.98862 15.8933 10.1057C16 10.2228 16.16 10.3008 16.3333 10.3008H18.9333C19.44 10.3008 19.8667 10.4959 20.12 10.8472C20.36 11.1854 20.4 11.6146 20.24 12.0569Z" fill="#474747"/>
</svg>
