<svg width="28" height="29" viewBox="0 0 28 29" fill="none" xmlns="http://www.w3.org/2000/svg">
<path d="M8.225 27.175C7.97967 27.175 7.7444 27.0775 7.57093 26.9041C7.39746 26.7306 7.3 26.4953 7.3 26.25V22.55H5.9125C4.80891 22.5488 3.75087 22.1098 2.97052 21.3295C2.19017 20.5491 1.75122 19.4911 1.75 18.3875V7.2875C1.75122 6.18391 2.19017 5.12588 2.97052 4.34552C3.75087 3.56517 4.80891 3.12622 5.9125 3.125H23.4875C24.5911 3.12622 25.6491 3.56517 26.4295 4.34552C27.2098 5.12588 27.6488 6.18391 27.65 7.2875V18.3875C27.6488 19.4911 27.2098 20.5491 26.4295 21.3295C25.6491 22.1098 24.5911 22.5488 23.4875 22.55H14.1068L8.81758 26.9605C8.65112 27.099 8.4415 27.1748 8.225 27.175Z" fill="#474747"/>
</svg>
