<svg width="28" height="28" viewBox="0 0 28 28" fill="none" xmlns="http://www.w3.org/2000/svg">
<path d="M19.8327 26.5415H8.16602C7.68768 26.5415 7.29102 26.1448 7.29102 25.6665C7.29102 25.1882 7.68768 24.7915 8.16602 24.7915H19.8327C20.311 24.7915 20.7077 25.1882 20.7077 25.6665C20.7077 26.1448 20.311 26.5415 19.8327 26.5415Z" fill="#474747"/>
<path d="M21.0007 2.3335H7.00065C4.42232 2.3335 2.33398 4.42183 2.33398 7.00016V17.5002C2.33398 20.0785 4.42232 22.1668 7.00065 22.1668H21.0007C23.579 22.1668 25.6673 20.0785 25.6673 17.5002V7.00016C25.6673 4.42183 23.579 2.3335 21.0007 2.3335ZM11.6557 8.54016C12.309 8.54016 12.834 9.06516 12.834 9.70683C12.834 10.3485 12.309 10.8735 11.6673 10.8735C11.0257 10.8735 10.5007 10.3485 10.5007 9.70683C10.5007 9.06516 11.014 8.54016 11.6557 8.54016ZM7.98065 8.54016C8.63399 8.54016 9.15898 9.06516 9.15898 9.70683C9.15898 10.3485 8.63398 10.8735 7.99232 10.8735C7.35065 10.8735 6.82565 10.3485 6.82565 9.70683C6.82565 9.06516 7.32732 8.54016 7.98065 8.54016ZM20.1373 17.3368H7.88732C7.39732 17.3368 7.00065 16.9402 7.00065 16.4618C7.00065 15.9835 7.38565 15.5868 7.86398 15.5868H20.149C20.6273 15.5868 21.024 15.9835 21.024 16.4618C21.024 16.9402 20.6273 17.3368 20.1373 17.3368ZM20.1373 10.5818H15.844C15.3657 10.5818 14.969 10.1852 14.969 9.70683C14.969 9.2285 15.3657 8.83183 15.844 8.83183H20.1373C20.6157 8.83183 21.0123 9.2285 21.0123 9.70683C21.0123 10.1852 20.6273 10.5818 20.1373 10.5818Z" fill="#474747"/>
</svg>
