<svg width="24" height="21" viewBox="0 0 24 21" fill="none" xmlns="http://www.w3.org/2000/svg">
<path d="M3.9 -0.000488281C2.86566 -0.000488281 1.87368 0.410403 1.14228 1.1418C0.410892 1.87319 0 2.86517 0 3.89951V14.0995C0 14.8156 0.284463 15.5024 0.790812 16.0087C1.29716 16.515 1.98392 16.7995 2.7 16.7995H3V6.89951C3 5.86517 3.41089 4.87319 4.14228 4.14179C4.87367 3.4104 5.86566 2.99951 6.9 2.99951H20.4V2.69951C20.4 2.34494 20.3302 1.99385 20.1945 1.66627C20.0588 1.33869 19.8599 1.04104 19.6092 0.790323C19.3585 0.539605 19.0608 0.340725 18.7332 0.205037C18.4057 0.0693493 18.0546 -0.000488281 17.7 -0.000488281H3.9Z" fill="#474747"/>
<path d="M21.3001 4.19971H20.7049L20.5825 4.20811C20.3566 4.23919 20.1509 4.35486 20.007 4.53175C19.8631 4.70864 19.7917 4.93355 19.8073 5.16105C19.8228 5.38855 19.9241 5.60167 20.0908 5.75734C20.2574 5.91301 20.4769 5.99964 20.7049 5.99971H21.3001L21.4225 6.00811C21.638 6.03769 21.8354 6.14428 21.9784 6.30819C22.1213 6.4721 22.2001 6.68222 22.2001 6.89971V8.10451L22.2085 8.22571C22.2396 8.45151 22.3551 8.65711 22.5319 8.801C22.7087 8.9449 22.9334 9.01637 23.1608 9.00099C23.3883 8.9856 23.6014 8.88451 23.7571 8.71812C23.9129 8.55173 23.9997 8.33243 24.0001 8.10451V6.89971L23.9941 6.71491C23.9473 6.03236 23.6431 5.39304 23.143 4.92615C22.6429 4.45926 21.9843 4.19962 21.3001 4.19971Z" fill="#474747"/>
<path d="M5.99155 10.977C5.96047 10.7511 5.8448 10.5455 5.66791 10.4016C5.49102 10.2577 5.26611 10.1863 5.03861 10.2018C4.81111 10.2173 4.59799 10.3187 4.44232 10.4853C4.28664 10.6519 4.20002 10.8714 4.19995 11.0994V14.0922L4.20835 14.2146C4.23943 14.4405 4.3551 14.6462 4.53199 14.7901C4.70888 14.934 4.9338 15.0054 5.16129 14.9899C5.38879 14.9743 5.60191 14.873 5.75758 14.7064C5.91326 14.5398 5.99988 14.3203 5.99995 14.0922V11.0994L5.99155 10.977Z" fill="#474747"/>
<path d="M5.09995 16.1948C5.31744 16.1948 5.52756 16.2736 5.69147 16.4165C5.85537 16.5595 5.96197 16.757 5.99155 16.9724L5.99995 17.0948V18.3008C5.99995 18.7568 6.33835 19.1336 6.77755 19.1924L6.89995 19.2008H7.49995C7.72798 19.2009 7.94748 19.2875 8.1141 19.4432C8.28072 19.5989 8.38204 19.812 8.39758 20.0395C8.41313 20.267 8.34173 20.4919 8.19783 20.6688C8.05393 20.8457 7.84825 20.9613 7.62235 20.9924L7.49995 21.0008H6.89995C6.2158 21.0009 5.55713 20.7413 5.05705 20.2744C4.55697 19.8075 4.25278 19.1682 4.20595 18.4856L4.19995 18.3008V17.0948C4.19995 16.8561 4.29477 16.6272 4.46355 16.4584C4.63234 16.2896 4.86126 16.1948 5.09995 16.1948Z" fill="#474747"/>
<path d="M23.0999 16.1948C23.3386 16.1948 23.5675 16.2896 23.7363 16.4584C23.9051 16.6272 23.9999 16.8561 23.9999 17.0948V18.3008C23.9999 19.0169 23.7154 19.7037 23.2091 20.21C22.7027 20.7164 22.016 21.0008 21.2999 21.0008H20.0963C19.8576 21.0008 19.6287 20.906 19.4599 20.7372C19.2911 20.5684 19.1963 20.3395 19.1963 20.1008C19.1963 19.8621 19.2911 19.6332 19.4599 19.4644C19.6287 19.2956 19.8576 19.2008 20.0963 19.2008H21.2999C21.5386 19.2008 21.7675 19.106 21.9363 18.9372C22.1051 18.7684 22.1999 18.5395 22.1999 18.3008V17.0948C22.1999 16.8561 22.2947 16.6272 22.4635 16.4584C22.6323 16.2896 22.8612 16.1948 23.0999 16.1948Z" fill="#474747"/>
<path d="M17.0975 19.1997H15.3035L15.1811 19.2081C14.9552 19.2392 14.7496 19.3549 14.6057 19.5317C14.4618 19.7086 14.3904 19.9336 14.4059 20.1611C14.4214 20.3885 14.5228 20.6017 14.6894 20.7573C14.856 20.913 15.0755 20.9996 15.3035 20.9997H17.0975L17.2199 20.9913C17.4458 20.9602 17.6515 20.8446 17.7954 20.6677C17.9393 20.4908 18.0107 20.2659 17.9952 20.0384C17.9796 19.8109 17.8783 19.5977 17.7117 19.4421C17.5451 19.2864 17.3256 19.1998 17.0975 19.1997Z" fill="#474747"/>
<path d="M10.5001 19.1997H12.2953C12.5233 19.1998 12.7428 19.2864 12.9094 19.4421C13.0761 19.5977 13.1774 19.8109 13.1929 20.0384C13.2085 20.2659 13.1371 20.4908 12.9932 20.6677C12.8493 20.8446 12.6436 20.9602 12.4177 20.9913L12.2953 20.9997H10.5013C10.2733 20.9996 10.0538 20.913 9.88714 20.7573C9.72052 20.6017 9.6192 20.3885 9.60366 20.1611C9.58811 19.9336 9.65951 19.7086 9.80341 19.5317C9.94731 19.3549 10.153 19.2392 10.3789 19.2081L10.5001 19.1997Z" fill="#474747"/>
<path d="M23.1 10.1997C23.3176 10.1998 23.5279 10.2787 23.6918 10.4219C23.8558 10.5651 23.9622 10.7628 23.9916 10.9785L24 11.1009V14.0937C23.9999 14.3217 23.9133 14.5412 23.7576 14.7079C23.6019 14.8745 23.3888 14.9758 23.1613 14.9913C22.9338 15.0069 22.7089 14.9355 22.532 14.7916C22.3551 14.6477 22.2394 14.442 22.2084 14.2161L22.2 14.0937V11.1009C22.2 10.8622 22.2948 10.6333 22.4636 10.4645C22.6323 10.2957 22.8613 10.2009 23.1 10.2009V10.1997Z" fill="#474747"/>
<path d="M8.10355 4.19971C8.34225 4.19971 8.57116 4.29453 8.73995 4.46331C8.90873 4.63209 9.00355 4.86101 9.00355 5.09971C9.00355 5.3384 8.90873 5.56732 8.73995 5.7361C8.57116 5.90489 8.34225 5.99971 8.10355 5.99971H6.89995C6.66126 5.99971 6.43234 6.09453 6.26356 6.26331C6.09477 6.43209 5.99995 6.66101 5.99995 6.89971V8.10451C5.99995 8.3432 5.90513 8.57212 5.73635 8.7409C5.56756 8.90969 5.33865 9.00451 5.09995 9.00451C4.86126 9.00451 4.63234 8.90969 4.46355 8.7409C4.29477 8.57212 4.19995 8.3432 4.19995 8.10451V6.89971C4.19995 6.18362 4.48441 5.49687 4.99076 4.99052C5.49711 4.48417 6.18387 4.19971 6.89995 4.19971H8.10355Z" fill="#474747"/>
<path d="M17.7024 4.19971H15.8988L15.7764 4.20811C15.5503 4.2392 15.3446 4.35496 15.2007 4.53198C15.0568 4.709 14.9855 4.93406 15.0012 5.16165C15.0169 5.38924 15.1184 5.60238 15.2853 5.75796C15.4521 5.91353 15.6718 5.99994 15.9 5.99971H17.7036L17.826 5.99131C18.0519 5.96023 18.2575 5.84455 18.4014 5.66767C18.5453 5.49078 18.6167 5.26586 18.6012 5.03836C18.5856 4.81087 18.4843 4.59775 18.3177 4.44207C18.1511 4.2864 17.9316 4.19978 17.7036 4.19971H17.7024Z" fill="#474747"/>
<path d="M11.0999 4.19971H12.8939C13.1219 4.19978 13.3415 4.2864 13.5081 4.44207C13.6747 4.59775 13.776 4.81087 13.7916 5.03836C13.8071 5.26586 13.7357 5.49078 13.5918 5.66767C13.4479 5.84455 13.2422 5.96023 13.0163 5.99131L12.8939 5.99971H11.0999C10.8719 5.99964 10.6524 5.91301 10.4858 5.75734C10.3192 5.60167 10.2178 5.38855 10.2023 5.16105C10.1867 4.93355 10.2581 4.70864 10.402 4.53175C10.5459 4.35486 10.7516 4.23919 10.9775 4.20811L11.0999 4.19971Z" fill="#474747"/>
</svg>
