<svg width="20" height="20" viewBox="0 0 20 20" fill="none" xmlns="http://www.w3.org/2000/svg">
<path d="M3.8112 1.979C3.02107 1.979 2.26331 2.29288 1.70461 2.85158C1.14591 3.41028 0.832031 4.16805 0.832031 4.95817V12.7498C0.832031 13.2968 1.04933 13.8214 1.43612 14.2082C1.82292 14.595 2.34752 14.8123 2.89453 14.8123H3.1237V7.24983C3.1237 6.45971 3.43757 5.70195 3.99627 5.14325C4.55498 4.58454 5.31274 4.27067 6.10286 4.27067H16.4154V4.0415C16.4154 3.77065 16.362 3.50245 16.2584 3.25222C16.1547 3.00198 16.0028 2.77462 15.8113 2.5831C15.6197 2.39158 15.3924 2.23965 15.1421 2.136C14.8919 2.03235 14.6237 1.979 14.3529 1.979H3.8112Z" fill="#474747"/>
<path d="M17.1029 5.18701H16.6482L16.5547 5.19343C16.3822 5.21717 16.225 5.30553 16.1151 5.44065C16.0052 5.57578 15.9507 5.74759 15.9625 5.92137C15.9744 6.09515 16.0518 6.25795 16.1791 6.37687C16.3064 6.49579 16.474 6.56196 16.6482 6.56201H17.1029L17.1964 6.56843C17.361 6.59102 17.5118 6.67245 17.621 6.79766C17.7302 6.92286 17.7904 7.08338 17.7904 7.24951V8.16984L17.7968 8.26243C17.8205 8.43491 17.9088 8.59197 18.0439 8.70189C18.1789 8.81181 18.3506 8.86641 18.5243 8.85466C18.698 8.8429 18.8608 8.76568 18.9798 8.63858C19.0988 8.51147 19.1651 8.34395 19.1654 8.16984V7.24951L19.1608 7.10834C19.125 6.58695 18.8927 6.09858 18.5107 5.74193C18.1287 5.38528 17.6255 5.18695 17.1029 5.18701Z" fill="#474747"/>
<path d="M5.40765 10.3653C5.3839 10.1927 5.29554 10.0356 5.16042 9.92567C5.0253 9.81575 4.85349 9.76121 4.6797 9.77308C4.50592 9.78496 4.34312 9.86235 4.2242 9.98963C4.10529 10.1169 4.03912 10.2846 4.03906 10.4588V12.7449L4.04548 12.8384C4.06922 13.011 4.15758 13.1681 4.2927 13.278C4.42783 13.388 4.59964 13.4425 4.77342 13.4306C4.94721 13.4188 5.11 13.3414 5.22892 13.2141C5.34784 13.0868 5.41401 12.9191 5.41406 12.7449V10.4588L5.40765 10.3653Z" fill="#474747"/>
<path d="M4.72656 14.3496C4.8927 14.3496 5.05321 14.4098 5.17841 14.519C5.30362 14.6282 5.38505 14.779 5.40765 14.9436L5.41406 15.0371V15.9584C5.41406 16.3067 5.67256 16.5945 6.00806 16.6394L6.10156 16.6459H6.55989C6.73408 16.6459 6.90176 16.7121 7.02904 16.831C7.15632 16.9499 7.23371 17.1127 7.24558 17.2865C7.25746 17.4603 7.20292 17.6321 7.093 17.7672C6.98307 17.9023 6.82596 17.9907 6.65339 18.0144L6.55989 18.0209H6.10156C5.57895 18.0209 5.07579 17.8226 4.69379 17.4659C4.31178 17.1093 4.07942 16.6209 4.04365 16.0995L4.03906 15.9584V15.0371C4.03906 14.8548 4.1115 14.6799 4.24043 14.551C4.36936 14.422 4.54423 14.3496 4.72656 14.3496Z" fill="#474747"/>
<path d="M18.478 14.3496C18.6603 14.3496 18.8352 14.422 18.9641 14.551C19.0931 14.6799 19.1655 14.8548 19.1655 15.0371V15.9584C19.1655 16.5054 18.9482 17.03 18.5614 17.4168C18.1746 17.8036 17.65 18.0209 17.103 18.0209H16.1836C16.0013 18.0209 15.8264 17.9484 15.6975 17.8195C15.5685 17.6906 15.4961 17.5157 15.4961 17.3334C15.4961 17.151 15.5685 16.9762 15.6975 16.8472C15.8264 16.7183 16.0013 16.6459 16.1836 16.6459H17.103C17.2853 16.6459 17.4602 16.5734 17.5891 16.4445C17.7181 16.3156 17.7905 16.1407 17.7905 15.9584V15.0371C17.7905 14.8548 17.8629 14.6799 17.9919 14.551C18.1208 14.422 18.2957 14.3496 18.478 14.3496Z" fill="#474747"/>
<path d="M13.8936 16.6455H12.5232L12.4297 16.6519C12.2572 16.6757 12.1 16.764 11.9901 16.8992C11.8802 17.0343 11.8257 17.2061 11.8375 17.3799C11.8494 17.5537 11.9268 17.7164 12.0541 17.8354C12.1814 17.9543 12.349 18.0205 12.5232 18.0205H13.8936L13.9871 18.0141C14.1597 17.9903 14.3168 17.902 14.4267 17.7669C14.5367 17.6317 14.5912 17.4599 14.5793 17.2861C14.5675 17.1124 14.4901 16.9496 14.3628 16.8306C14.2355 16.7117 14.0678 16.6456 13.8936 16.6455Z" fill="#474747"/>
<path d="M8.85434 16.6455H10.2257C10.3999 16.6456 10.5675 16.7117 10.6948 16.8306C10.8221 16.9496 10.8995 17.1124 10.9114 17.2861C10.9232 17.4599 10.8687 17.6317 10.7588 17.7669C10.6489 17.902 10.4917 17.9903 10.3192 18.0141L10.2257 18.0205H8.85526C8.68107 18.0205 8.5134 17.9543 8.38612 17.8354C8.25884 17.7164 8.18144 17.5537 8.16957 17.3799C8.1577 17.2061 8.21223 17.0343 8.32216 16.8992C8.43208 16.764 8.5892 16.6757 8.76176 16.6519L8.85434 16.6455Z" fill="#474747"/>
<path d="M18.4766 9.77051C18.6428 9.77055 18.8035 9.83084 18.9287 9.94022C19.0539 10.0496 19.1353 10.2007 19.1576 10.3654L19.1641 10.4589V12.7451C19.164 12.9193 19.0978 13.087 18.9789 13.2142C18.86 13.3415 18.6972 13.4189 18.5234 13.4308C18.3496 13.4427 18.1778 13.3881 18.0427 13.2782C17.9076 13.1683 17.8192 13.0112 17.7955 12.8386L17.7891 12.7451V10.4589C17.7891 10.2766 17.8615 10.1017 17.9904 9.97279C18.1194 9.84386 18.2942 9.77142 18.4766 9.77142V9.77051Z" fill="#474747"/>
<path d="M7.02098 5.18701C7.20331 5.18701 7.37818 5.25944 7.50711 5.38838C7.63604 5.51731 7.70848 5.69218 7.70848 5.87451C7.70848 6.05685 7.63604 6.23172 7.50711 6.36065C7.37818 6.48958 7.20331 6.56201 7.02098 6.56201H6.10156C5.91923 6.56201 5.74436 6.63444 5.61543 6.76338C5.48649 6.89231 5.41406 7.06717 5.41406 7.24951V8.16984C5.41406 8.35218 5.34163 8.52705 5.2127 8.65598C5.08377 8.78491 4.9089 8.85734 4.72656 8.85734C4.54423 8.85734 4.36936 8.78491 4.24043 8.65598C4.1115 8.52705 4.03906 8.35218 4.03906 8.16984V7.24951C4.03906 6.7025 4.25636 6.1779 4.64315 5.7911C5.02995 5.40431 5.55455 5.18701 6.10156 5.18701H7.02098Z" fill="#474747"/>
<path d="M14.3541 5.18701H12.9764L12.8829 5.19343C12.7102 5.21718 12.553 5.30561 12.4431 5.44083C12.3332 5.57605 12.2787 5.74797 12.2907 5.92183C12.3027 6.09568 12.3803 6.2585 12.5077 6.37734C12.6352 6.49618 12.803 6.56219 12.9773 6.56201H14.355L14.4485 6.55559C14.6211 6.53185 14.7782 6.44349 14.8881 6.30837C14.998 6.17325 15.0526 6.00143 15.0407 5.82765C15.0288 5.65387 14.9514 5.49107 14.8242 5.37215C14.6969 5.25324 14.5292 5.18707 14.355 5.18701H14.3541Z" fill="#474747"/>
<path d="M9.31229 5.18701H10.6827C10.8569 5.18707 11.0246 5.25324 11.1518 5.37215C11.2791 5.49107 11.3565 5.65387 11.3684 5.82765C11.3803 6.00143 11.3257 6.17325 11.2158 6.30837C11.1059 6.44349 10.9488 6.53185 10.7762 6.55559L10.6827 6.56201H9.31229C9.1381 6.56196 8.97043 6.49579 8.84315 6.37687C8.71587 6.25795 8.63847 6.09515 8.6266 5.92137C8.61473 5.74759 8.66926 5.57578 8.77919 5.44065C8.88911 5.30553 9.04623 5.21717 9.21879 5.19343L9.31229 5.18701Z" fill="#474747"/>
</svg>
