<svg width="20" height="19" viewBox="0 0 20 19" fill="none" xmlns="http://www.w3.org/2000/svg">
<path d="M3.25 0.75C2.38805 0.75 1.5614 1.09241 0.951903 1.7019C0.34241 2.3114 0 3.13805 0 4V12.5C0 13.0967 0.237053 13.669 0.65901 14.091C1.08097 14.5129 1.65326 14.75 2.25 14.75H2.5V6.5C2.5 5.63805 2.84241 4.8114 3.4519 4.2019C4.0614 3.59241 4.88805 3.25 5.75 3.25H17V3C17 2.70453 16.9418 2.41194 16.8287 2.13896C16.7157 1.86598 16.5499 1.61794 16.341 1.40901C16.1321 1.20008 15.884 1.03434 15.611 0.921271C15.3381 0.808198 15.0455 0.75 14.75 0.75H3.25Z" fill="#474747"/>
<path d="M17.7502 4.25H17.2542L17.1522 4.257C16.9639 4.2829 16.7925 4.37929 16.6726 4.5267C16.5527 4.67411 16.4932 4.86154 16.5061 5.05112C16.5191 5.2407 16.6035 5.4183 16.7424 5.54803C16.8812 5.67776 17.0641 5.74994 17.2542 5.75H17.7502L17.8522 5.757C18.0317 5.78165 18.1963 5.87048 18.3154 6.00707C18.4345 6.14366 18.5002 6.31876 18.5002 6.5V7.504L18.5072 7.605C18.5331 7.79317 18.6294 7.9645 18.7767 8.08441C18.924 8.20433 19.1113 8.26389 19.3008 8.25107C19.4903 8.23825 19.6679 8.154 19.7977 8.01534C19.9275 7.87668 19.9999 7.69394 20.0002 7.504V6.5L19.9952 6.346C19.9561 5.77721 19.7027 5.24444 19.2859 4.85537C18.8692 4.4663 18.3203 4.24993 17.7502 4.25Z" fill="#474747"/>
<path d="M4.993 9.89972C4.9671 9.71147 4.87071 9.54007 4.7233 9.42016C4.57589 9.30024 4.38846 9.24075 4.19888 9.2537C4.0093 9.26665 3.8317 9.35108 3.70197 9.48993C3.57224 9.62878 3.50006 9.8117 3.5 10.0017V12.4957L3.507 12.5977C3.5329 12.786 3.62929 12.9574 3.7767 13.0773C3.92411 13.1972 4.11154 13.2567 4.30112 13.2437C4.4907 13.2308 4.6683 13.1464 4.79803 13.0075C4.92776 12.8687 4.99994 12.6857 5 12.4957V10.0017L4.993 9.89972Z" fill="#474747"/>
<path d="M4.25 14.2441C4.43124 14.2441 4.60634 14.3098 4.74293 14.4289C4.87952 14.548 4.96835 14.7126 4.993 14.8921L5 14.9941V15.9991C5 16.3791 5.282 16.6931 5.648 16.7421L5.75 16.7491H6.25C6.44002 16.7492 6.62294 16.8214 6.76179 16.9511C6.90064 17.0808 6.98507 17.2584 6.99803 17.448C7.01098 17.6376 6.95148 17.825 6.83157 17.9724C6.71165 18.1198 6.54025 18.2162 6.352 18.2421L6.25 18.2491H5.75C5.17987 18.2492 4.63098 18.0328 4.21425 17.6438C3.79751 17.2547 3.54402 16.7219 3.505 16.1531L3.5 15.9991V14.9941C3.5 14.7952 3.57902 14.6045 3.71967 14.4638C3.86032 14.3232 4.05109 14.2441 4.25 14.2441Z" fill="#474747"/>
<path d="M19.2501 14.2441C19.449 14.2441 19.6397 14.3232 19.7804 14.4638C19.9211 14.6045 20.0001 14.7952 20.0001 14.9941V15.9991C20.0001 16.5959 19.763 17.1682 19.3411 17.5901C18.9191 18.0121 18.3468 18.2491 17.7501 18.2491H16.7471C16.5482 18.2491 16.3574 18.1701 16.2167 18.0295C16.0761 17.8888 15.9971 17.6981 15.9971 17.4991C15.9971 17.3002 16.0761 17.1095 16.2167 16.9688C16.3574 16.8282 16.5482 16.7491 16.7471 16.7491H17.7501C17.949 16.7491 18.1397 16.6701 18.2804 16.5295C18.4211 16.3888 18.5001 16.1981 18.5001 15.9991V14.9941C18.5001 14.7952 18.5791 14.6045 18.7197 14.4638C18.8604 14.3232 19.0512 14.2441 19.2501 14.2441Z" fill="#474747"/>
<path d="M14.2482 16.75H12.7532L12.6512 16.757C12.4629 16.7829 12.2915 16.8793 12.1716 17.0267C12.0517 17.1741 11.9922 17.3615 12.0052 17.5511C12.0181 17.7407 12.1025 17.9183 12.2414 18.048C12.3802 18.1778 12.5632 18.2499 12.7532 18.25H14.2482L14.3502 18.243C14.5384 18.2171 14.7098 18.1207 14.8298 17.9733C14.9497 17.8259 15.0092 17.6385 14.9962 17.4489C14.9833 17.2593 14.8988 17.0817 14.76 16.952C14.6211 16.8222 14.4382 16.7501 14.2482 16.75Z" fill="#474747"/>
<path d="M8.75024 16.75H10.2462C10.4363 16.7501 10.6192 16.8222 10.758 16.952C10.8969 17.0817 10.9813 17.2593 10.9943 17.4489C11.0072 17.6385 10.9477 17.8259 10.8278 17.9733C10.7079 18.1207 10.5365 18.2171 10.3482 18.243L10.2462 18.25H8.75124C8.56121 18.2499 8.37829 18.1778 8.23944 18.048C8.10059 17.9183 8.01616 17.7407 8.00321 17.5511C7.99026 17.3615 8.04975 17.1741 8.16967 17.0267C8.28959 16.8793 8.46099 16.7829 8.64924 16.757L8.75024 16.75Z" fill="#474747"/>
<path d="M19.25 9.25C19.4314 9.25004 19.6066 9.31582 19.7432 9.43514C19.8798 9.55447 19.9686 9.71926 19.993 9.899L20 10.001V12.495C19.9999 12.685 19.9278 12.8679 19.798 13.0068C19.6683 13.1456 19.4907 13.2301 19.3011 13.243C19.1115 13.256 18.9241 13.1965 18.7767 13.0766C18.6293 12.9567 18.5329 12.7853 18.507 12.597L18.5 12.495V10.001C18.5 9.80209 18.579 9.61132 18.7197 9.47067C18.8603 9.33002 19.0511 9.251 19.25 9.251V9.25Z" fill="#474747"/>
<path d="M6.753 4.25C6.95191 4.25 7.14268 4.32902 7.28333 4.46967C7.42398 4.61032 7.503 4.80109 7.503 5C7.503 5.19891 7.42398 5.38968 7.28333 5.53033C7.14268 5.67098 6.95191 5.75 6.753 5.75H5.75C5.55109 5.75 5.36032 5.82902 5.21967 5.96967C5.07902 6.11032 5 6.30109 5 6.5V7.504C5 7.70291 4.92098 7.89368 4.78033 8.03433C4.63968 8.17498 4.44891 8.254 4.25 8.254C4.05109 8.254 3.86032 8.17498 3.71967 8.03433C3.57902 7.89368 3.5 7.70291 3.5 7.504V6.5C3.5 5.90326 3.73705 5.33097 4.15901 4.90901C4.58097 4.48705 5.15326 4.25 5.75 4.25H6.753Z" fill="#474747"/>
<path d="M14.7518 4.25H13.2488L13.1468 4.257C12.9585 4.28291 12.787 4.37938 12.6671 4.52689C12.5471 4.67441 12.4877 4.86196 12.5008 5.05162C12.5139 5.24128 12.5985 5.41889 12.7376 5.54854C12.8766 5.67819 13.0597 5.7502 13.2498 5.75H14.7528L14.8548 5.743C15.043 5.7171 15.2144 5.62071 15.3344 5.4733C15.4543 5.32589 15.5138 5.13846 15.5008 4.94888C15.4879 4.7593 15.4034 4.5817 15.2646 4.45197C15.1257 4.32224 14.9428 4.25006 14.7528 4.25H14.7518Z" fill="#474747"/>
<path d="M9.24977 4.25H10.7448C10.9348 4.25006 11.1177 4.32224 11.2566 4.45197C11.3954 4.5817 11.4798 4.7593 11.4928 4.94888C11.5057 5.13846 11.4463 5.32589 11.3263 5.4733C11.2064 5.62071 11.035 5.7171 10.8468 5.743L10.7448 5.75H9.24977C9.05975 5.74994 8.87683 5.67776 8.73798 5.54803C8.59913 5.4183 8.5147 5.2407 8.50175 5.05112C8.48879 4.86154 8.54829 4.67411 8.6682 4.5267C8.78812 4.37929 8.95952 4.2829 9.14777 4.257L9.24977 4.25Z" fill="#474747"/>
<path d="M11.9884 10.1496L13.4191 7.79492H14.7067L12.5965 10.9842L14.7723 14.2449H13.4966L12.0063 11.8306L10.516 14.2449H9.23438L11.4102 10.9842L9.29995 7.79492H10.5756L11.9884 10.1496Z" fill="#474747"/>
</svg>
