<svg width="22" height="22" viewBox="0 0 22 22" fill="none" xmlns="http://www.w3.org/2000/svg">
<path d="M21.6769 20.0385L16.4408 14.5928C17.7871 12.9924 18.5247 10.9788 18.5247 8.88249C18.5247 3.98476 14.54 0 9.64226 0C4.74453 0 0.759766 3.98476 0.759766 8.88249C0.759766 13.7802 4.74453 17.765 9.64226 17.765C11.4809 17.765 13.2331 17.2104 14.7312 16.1576L20.007 21.6447C20.2275 21.8737 20.5241 22 20.8419 22C21.1428 22 21.4282 21.8853 21.6448 21.6768C22.1052 21.2338 22.1198 20.4992 21.6769 20.0385ZM9.64226 2.31717C13.2625 2.31717 16.2076 5.2623 16.2076 8.88249C16.2076 12.5027 13.2625 15.4478 9.64226 15.4478C6.02206 15.4478 3.07694 12.5027 3.07694 8.88249C3.07694 5.2623 6.02206 2.31717 9.64226 2.31717Z" fill="#666666"/>
</svg>
