<svg width="37" height="36" viewBox="0 0 37 36" fill="none" xmlns="http://www.w3.org/2000/svg">
<path d="M32.8229 3.375H11.3343C11.1582 3.37485 10.9838 3.40939 10.821 3.47665C10.6583 3.5439 10.5104 3.64256 10.3858 3.76698C10.2611 3.8914 10.1622 4.03914 10.0947 4.20178C10.0272 4.36443 9.99234 4.53877 9.99219 4.71488V10.6875L22.4448 14.3438L34.1662 10.6875V4.71488C34.166 4.53868 34.1312 4.36424 34.0636 4.20152C33.996 4.03881 33.897 3.89101 33.7722 3.76658C33.6475 3.64214 33.4994 3.54351 33.3365 3.47633C33.1737 3.40914 32.9991 3.37471 32.8229 3.375Z" fill="#41A5EE"/>
<path d="M34.1662 10.6875H9.99219V18L22.4448 20.1938L34.1662 18V10.6875Z" fill="#2B7CD3"/>
<path d="M9.99219 18V25.3125L21.7124 26.775L34.1662 25.3125V18H9.99219Z" fill="#185ABD"/>
<path d="M11.3343 32.625H32.8218C32.9981 32.6254 33.1728 32.5911 33.3358 32.524C33.4988 32.4569 33.647 32.3583 33.7718 32.2338C33.8967 32.1094 33.9958 31.9615 34.0635 31.7987C34.1311 31.6359 34.166 31.4614 34.1662 31.2851V25.3125H9.99219V31.2851C9.99234 31.4612 10.0272 31.6356 10.0947 31.7982C10.1622 31.9609 10.2611 32.1086 10.3858 32.233C10.5104 32.3574 10.6583 32.4561 10.821 32.5234C10.9838 32.5906 11.1582 32.6251 11.3343 32.625Z" fill="#103F91"/>
<path opacity="0.1" d="M18.9044 9.22461H9.99219V27.5059H18.9044C19.2596 27.5041 19.5997 27.3625 19.8511 27.1117C20.1025 26.8609 20.245 26.5211 20.2477 26.166V10.5645C20.245 10.2094 20.1025 9.8696 19.8511 9.6188C19.5997 9.368 19.2596 9.22638 18.9044 9.22461Z" fill="black"/>
<path opacity="0.2" d="M18.1721 9.95605H9.99219V28.2373H18.1721C18.5272 28.2355 18.8673 28.0939 19.1187 27.8431C19.3702 27.5923 19.5127 27.2525 19.5153 26.8974V11.2959C19.5127 10.9408 19.3702 10.601 19.1187 10.3502C18.8673 10.0994 18.5272 9.95782 18.1721 9.95605Z" fill="black"/>
<path opacity="0.2" d="M18.1721 9.95605H9.99219V26.7748H18.1721C18.5272 26.773 18.8673 26.6314 19.1187 26.3806C19.3702 26.1298 19.5127 25.79 19.5153 25.4349V11.2959C19.5127 10.9408 19.3702 10.601 19.1187 10.3502C18.8673 10.0994 18.5272 9.95782 18.1721 9.95605Z" fill="black"/>
<path opacity="0.2" d="M17.4397 9.95605H9.99219V26.7748H17.4397C17.7948 26.773 18.1349 26.6314 18.3864 26.3806C18.6378 26.1298 18.7803 25.79 18.7829 25.4349V11.2959C18.7803 10.9408 18.6378 10.601 18.3864 10.3502C18.1349 10.0994 17.7948 9.95782 17.4397 9.95605Z" fill="black"/>
<path d="M4.00927 9.95606H17.4395C17.7953 9.95576 18.1366 10.0967 18.3885 10.348C18.6403 10.5992 18.7822 10.9402 18.7828 11.2959V24.7037C18.7822 25.0594 18.6403 25.4004 18.3885 25.6517C18.1366 25.9029 17.7953 26.0439 17.4395 26.0436H4.00927C3.83307 26.0439 3.65854 26.0094 3.49566 25.9422C3.33277 25.875 3.18473 25.7764 3.05998 25.652C2.93523 25.5275 2.83623 25.3798 2.76863 25.217C2.70103 25.0543 2.66616 24.8799 2.66602 24.7037V11.2959C2.66616 11.1197 2.70103 10.9453 2.76863 10.7826C2.83623 10.6199 2.93523 10.4721 3.05998 10.3476C3.18473 10.2232 3.33277 10.1246 3.49566 10.0574C3.65854 9.99019 3.83307 9.95576 4.00927 9.95606Z" fill="url(#paint0_linear_2075_46625)"/>
<path d="M8.17863 20.2363C8.20451 20.4433 8.22251 20.6233 8.23038 20.7774H8.26188C8.27313 20.6311 8.29788 20.4545 8.33501 20.2486C8.37213 20.0428 8.40476 19.8684 8.43513 19.7255L9.84701 13.6426H11.674L13.1365 19.6344C13.2217 20.005 13.2826 20.3808 13.3188 20.7594H13.3435C13.3704 20.3909 13.4211 20.0245 13.4954 19.6625L14.6643 13.6348H16.3259L14.2739 22.3513H12.331L10.9394 16.5845C10.8989 16.418 10.8531 16.2013 10.8021 15.9343C10.7511 15.6673 10.7196 15.4723 10.7076 15.3493H10.684C10.6683 15.491 10.6368 15.7014 10.5895 15.9804C10.5423 16.2605 10.5051 16.4664 10.477 16.6014L9.16863 22.3546H7.19313L5.12988 13.6426H6.81738L8.08976 19.7379C8.12773 19.9024 8.1574 20.0688 8.17863 20.2363Z" fill="white"/>
<defs>
<linearGradient id="paint0_linear_2075_46625" x1="5.47177" y1="8.90306" x2="15.977" y2="27.0966" gradientUnits="userSpaceOnUse">
<stop stop-color="#2368C4"/>
<stop offset="0.5" stop-color="#1A5DBE"/>
<stop offset="1" stop-color="#1146AC"/>
</linearGradient>
</defs>
</svg>
