<svg width="17" height="18" viewBox="0 0 17 18" fill="none" xmlns="http://www.w3.org/2000/svg">
<path d="M9.76516 8.99219L16.7385 2.01885C17.0872 1.67018 17.0872 1.10235 16.7385 0.753688C16.3898 0.405021 15.822 0.405021 15.4733 0.753688L8.5 7.72702L1.52666 0.753688C1.178 0.405021 0.610167 0.405021 0.2615 0.753688C-0.0871667 1.10235 -0.0871667 1.67018 0.2615 2.01885L7.23484 8.99219L0.2615 15.9655C-0.0871667 16.3142 -0.0871667 16.882 0.2615 17.2307C0.610167 17.5794 1.178 17.5794 1.52666 17.2307L8.5 10.2573L15.4733 17.2307C15.822 17.5794 16.3898 17.5794 16.7385 17.2307C17.0872 16.882 17.0872 16.3142 16.7385 15.9655L9.76516 8.99219Z" fill="#474747"/>
</svg>
