<svg width="17" height="18" viewBox="0 0 17 18" fill="none" xmlns="http://www.w3.org/2000/svg">
<path d="M9.76516 9L16.7385 2.02666C17.0872 1.678 17.0872 1.11017 16.7385 0.7615C16.3898 0.412833 15.822 0.412833 15.4733 0.7615L8.5 7.73484L1.52666 0.7615C1.178 0.412833 0.610167 0.412833 0.2615 0.7615C-0.0871667 1.11017 -0.0871667 1.678 0.2615 2.02666L7.23484 9L0.2615 15.9733C-0.0871667 16.322 -0.0871667 16.8898 0.2615 17.2385C0.610167 17.5872 1.178 17.5872 1.52666 17.2385L8.5 10.2652L15.4733 17.2385C15.822 17.5872 16.3898 17.5872 16.7385 17.2385C17.0872 16.8898 17.0872 16.322 16.7385 15.9733L9.76516 9Z" fill="#4C5BD4"/>
</svg>
