<svg width="26" height="27" viewBox="0 0 26 27" fill="none" xmlns="http://www.w3.org/2000/svg">
<path d="M23.8346 24.7632H2.16797C1.7238 24.7632 1.35547 24.3949 1.35547 23.9507C1.35547 23.5065 1.7238 23.1382 2.16797 23.1382H23.8346C24.2788 23.1382 24.6471 23.5065 24.6471 23.9507C24.6471 24.3949 24.2788 24.7632 23.8346 24.7632Z" fill="#4C5BD4"/>
<path d="M10.5625 5.26286V24.7629H15.4375V5.26286C15.4375 4.07119 14.95 3.09619 13.4875 3.09619H12.5125C11.05 3.09619 10.5625 4.07119 10.5625 5.26286Z" fill="#4C5BD4"/>
<path d="M3.25 11.7629V24.7629H7.58333V11.7629C7.58333 10.5712 7.15 9.59619 5.85 9.59619H4.98333C3.68333 9.59619 3.25 10.5712 3.25 11.7629Z" fill="#4C5BD4"/>
<path d="M18.418 17.1799V24.7632H22.7513V17.1799C22.7513 15.9882 22.318 15.0132 21.018 15.0132H20.1513C18.8513 15.0132 18.418 15.9882 18.418 17.1799Z" fill="#4C5BD4"/>
</svg>
