<svg width="20" height="20" viewBox="0 0 20 20" fill="none" xmlns="http://www.w3.org/2000/svg">
<g clip-path="url(#clip0_287_76064)">
<path d="M10 0.368347C4.68052 0.368347 0.368408 4.68046 0.368408 9.99999C0.368408 15.3195 4.68052 19.6316 10 19.6316C15.3196 19.6316 19.6317 15.3195 19.6317 9.99999C19.6317 4.68046 15.3196 0.368347 10 0.368347ZM7.20708 14.3332C7.20708 14.5832 6.98833 14.7875 6.72114 14.7875H5.4395C5.17192 14.7875 4.95317 14.5832 4.95317 14.3332V10.4351C4.95317 10.1855 5.17192 9.98085 5.4395 9.98085H6.72114C6.98833 9.98085 7.20708 10.1855 7.20708 10.4351V14.3332ZM14.7266 11.8242C14.652 11.9017 14.596 11.9953 14.563 12.0977C14.5299 12.2001 14.5207 12.3087 14.536 12.4152C14.5719 12.6641 14.5446 13.0012 14.2422 13.2723C14.1516 13.3559 14.0836 13.4611 14.0448 13.5781C14.0059 13.6952 13.9974 13.8202 14.02 13.9414C14.0981 14.4101 13.8583 15.0742 11.7786 14.9762L9.07153 14.9117C9.0481 14.9117 9.02505 14.9094 9.00161 14.9066C8.77857 14.8789 7.61255 14.7113 7.70083 14.1933L7.69614 10.5683C7.69612 10.473 7.71497 10.3786 7.75161 10.2906L9.28052 7.29725C9.30359 7.25201 9.31563 7.20195 9.31567 7.15116V5.74764C9.31463 5.62264 9.34659 5.49957 9.40831 5.39086C9.47004 5.28216 9.55935 5.19166 9.66724 5.1285C9.89224 4.99999 10.2067 4.93319 10.5551 5.18944C11.2399 5.69725 11.2563 5.97069 11.2563 5.97069C11.2563 5.97069 11.5661 6.88436 11.4356 7.716C11.4193 7.819 11.4255 7.92431 11.4538 8.02468C11.4821 8.12504 11.5319 8.21806 11.5997 8.29731C11.6675 8.37656 11.7516 8.44016 11.8464 8.48372C11.9411 8.52728 12.0442 8.54976 12.1485 8.5496H13.7063C13.7315 8.54953 13.7567 8.55083 13.7817 8.5535C14.0196 8.57968 15.1016 8.76561 14.7211 9.97968C14.6874 10.0874 14.6804 10.2017 14.7008 10.3127C14.7212 10.4238 14.7684 10.5281 14.8383 10.6168C15.0465 10.8773 15.2208 11.3144 14.7266 11.8242Z" fill="#2758DD"/>
<path d="M14.7216 9.97936C15.102 8.76529 14.0185 8.57936 13.7821 8.55318C13.7571 8.55051 13.7319 8.54921 13.7067 8.54928H12.1489C12.0449 8.54923 11.9421 8.52666 11.8476 8.48312C11.7531 8.43958 11.6692 8.37611 11.6016 8.29705C11.534 8.218 11.4843 8.12524 11.4559 8.02516C11.4275 7.92507 11.4211 7.82003 11.4372 7.71725C11.5677 6.88561 11.2579 5.97193 11.2579 5.97193C11.2579 5.97193 11.2415 5.69498 10.5567 5.19068C10.2083 4.93365 9.89268 5.00123 9.66885 5.12975C9.56096 5.1929 9.47165 5.2834 9.40992 5.39211C9.3482 5.50081 9.31624 5.62388 9.31728 5.74889V7.1524C9.31724 7.20319 9.3052 7.25325 9.28213 7.2985L7.75322 10.2919C7.71659 10.3799 7.69773 10.4743 7.69775 10.5696L7.70244 14.1946C7.61416 14.711 8.78018 14.8801 9.00322 14.9079C9.02666 14.9106 9.04971 14.9122 9.07314 14.9129L11.7802 14.9774C13.8599 15.0739 14.1009 14.4094 14.0216 13.9426C13.999 13.8214 14.0075 13.6964 14.0464 13.5794C14.0852 13.4624 14.1532 13.3571 14.2438 13.2735C14.5462 13.004 14.5735 12.6653 14.5376 12.4165C14.5219 12.3098 14.5309 12.2009 14.5637 12.0982C14.5965 11.9955 14.6524 11.9017 14.7271 11.8239C15.2204 11.3141 15.0462 10.877 14.8396 10.6165C14.7695 10.5279 14.7222 10.4236 14.7016 10.3125C14.6811 10.2015 14.6879 10.0871 14.7216 9.97936ZM6.72158 9.98053H5.43994C5.17236 9.98053 4.95361 10.1852 4.95361 10.4348V14.3329C4.95361 14.5829 5.17236 14.7872 5.43994 14.7872H6.72158C6.98877 14.7872 7.20752 14.5829 7.20752 14.3329V10.4348C7.20752 10.1852 6.98877 9.98053 6.72158 9.98053Z" fill="white"/>
</g>
<defs>
<clipPath id="clip0_287_76064">
<rect width="20" height="20" fill="white"/>
</clipPath>
</defs>
</svg>
