<svg width="30" height="30" viewBox="0 0 30 30" fill="none" xmlns="http://www.w3.org/2000/svg">
<g clip-path="url(#clip0_2_5537)">
<path d="M15.0009 29.9999C23.2852 29.9999 30.0009 23.2842 30.0009 14.9999C30.0009 6.7157 23.2852 0 15.0009 0C6.71669 0 0.000976562 6.7157 0.000976562 14.9999C0.000976562 23.2842 6.71669 29.9999 15.0009 29.9999Z" fill="#FFD93B"/>
<path d="M29.9997 15.0007C29.9997 23.2882 23.2825 30.0007 14.9998 30.0007C10.2842 30.0007 6.07479 27.8257 3.32324 24.4179C5.89667 26.4991 9.17322 27.7413 12.7404 27.7413C21.0232 27.7413 27.7403 21.0288 27.7403 12.7414C27.7403 9.1742 26.4982 5.89765 24.4169 3.32422C27.82 6.07577 29.9997 10.2851 29.9997 15.0007Z" fill="#F4C534"/>
<path d="M19.1409 22.9072C19.1409 22.9072 19.709 19.8397 18.33 19.7816C17.6044 19.7507 17.0944 21.4916 16.6547 23.8991C16.1522 26.6525 17.5369 28.2088 18.7434 29.091C20.5115 30.3838 22.3762 30.1503 24.1528 29.3028C26.3559 28.2519 28.1803 24.1935 28.2084 23.1969C28.2506 21.6547 27.0028 21.6247 25.3134 25.2538C25.3134 25.2538 25.0912 25.9381 25.3134 25.2538C25.5356 24.5694 27.2559 21.4906 27.6103 20.7697C27.9806 20.015 26.9372 19.0194 26.2153 19.97C25.4934 20.9206 23.3906 23.8991 23.234 24.6285C23.234 24.6285 23.0934 25.1938 23.234 24.6285C23.3747 24.0641 26.2837 19.4103 26.4178 18.62C26.5772 17.676 25.2515 17.4378 24.8043 18.1091C24.4781 18.5985 21.3956 23.7106 21.3956 23.7106C21.3956 23.7106 23.9297 19.4919 23.8031 18.6707C23.6981 17.99 22.8281 17.8625 22.4128 18.2938C21.9515 18.771 19.1409 22.9072 19.1409 22.9072Z" fill="white"/>
<path d="M17.0391 27.1591C17.4731 28.0216 18.1303 28.6441 18.7425 29.0923C20.5106 30.3851 22.3753 30.1516 24.1518 29.3041C26.355 28.2532 28.1803 24.1948 28.2075 23.1973C28.2075 23.1973 24.389 32.6491 17.0391 27.1591Z" fill="#DEE4E9"/>
<path d="M10.8595 22.9072C10.8595 22.9072 10.2914 19.8397 11.6705 19.7816C12.3961 19.7507 12.9061 21.4916 13.3458 23.8991C13.8483 26.6525 12.4636 28.2088 11.257 29.091C9.4889 30.3838 7.62422 30.1503 5.84766 29.3028C3.64455 28.2519 1.82018 24.1935 1.79205 23.1969C1.74987 21.6547 2.99767 21.6247 4.68704 25.2538C4.68704 25.2538 4.90923 25.9381 4.68704 25.2538C4.46486 24.5694 2.74455 21.4906 2.39018 20.7697C2.01893 20.015 3.06236 19.0194 3.78517 19.97C4.50798 20.9206 6.60985 23.8991 6.76641 24.6285C6.76641 24.6285 6.90703 25.1938 6.76641 24.6285C6.62579 24.0641 3.71673 19.4103 3.58267 18.62C3.4233 17.676 4.74892 17.4378 5.1961 18.1091C5.52235 18.5985 8.60484 23.7106 8.60484 23.7106C8.60484 23.7106 6.07079 19.4919 6.19735 18.6707C6.30235 17.99 7.17235 17.8625 7.58766 18.2938C8.0489 18.771 10.8595 22.9072 10.8595 22.9072Z" fill="white"/>
<path d="M12.9594 27.1591C12.5253 28.0216 11.8682 28.6441 11.256 29.0923C9.48786 30.3851 7.62318 30.1516 5.84662 29.3041C3.64351 28.2532 1.81914 24.1948 1.79102 23.1973C1.79195 23.1973 5.61038 32.6491 12.9594 27.1591Z" fill="#DEE4E9"/>
<path d="M20.5908 13.2236C21.2639 13.3746 20.0245 18.2927 15.0005 18.2964C9.97552 18.2927 8.73614 13.3746 9.4102 13.2236C9.90239 12.9602 11.798 15.3236 15.0005 15.3236C18.2639 15.3236 20.0986 12.9602 20.5908 13.2236Z" fill="#3E4347"/>
<path d="M12.5551 10.9151C12.196 10.9151 11.8894 10.6414 11.8557 10.2767C11.7479 9.10577 10.8554 8.22265 9.78007 8.22265C8.70476 8.22265 7.81227 9.10577 7.70446 10.2767C7.66883 10.663 7.32383 10.9508 6.9404 10.9123C6.55321 10.8767 6.26915 10.5345 6.30477 10.1483C6.48009 8.2489 7.97352 6.81641 9.78101 6.81641C11.5876 6.81641 13.0819 8.2489 13.2563 10.1483C13.2919 10.5345 13.0069 10.8776 12.6207 10.9123C12.5982 10.9142 12.5766 10.9151 12.5551 10.9151Z" fill="#3E4347"/>
<path d="M22.9955 10.9151C22.6364 10.9151 22.3299 10.6414 22.2961 10.2767C22.1883 9.10577 21.2958 8.22265 20.2205 8.22265C19.1452 8.22265 18.2527 9.10577 18.1449 10.2767C18.1102 10.663 17.768 10.9508 17.3808 10.9123C16.9936 10.8767 16.7096 10.5345 16.7452 10.1483C16.9196 8.2489 18.4139 6.81641 20.2205 6.81641C22.0271 6.81641 23.5214 8.2489 23.6958 10.1483C23.7314 10.5345 23.4464 10.8776 23.0602 10.9123C23.0386 10.9142 23.0171 10.9151 22.9955 10.9151Z" fill="#3E4347"/>
</g>
<defs>
<clipPath id="clip0_2_5537">
<rect width="30" height="30" fill="white"/>
</clipPath>
</defs>
</svg>
