<svg width="30" height="30" viewBox="0 0 30 30" fill="none" xmlns="http://www.w3.org/2000/svg">
<g clip-path="url(#clip0_2_5466)">
<path d="M15 30C23.2843 30 30 23.2843 30 15C30 6.71573 23.2843 0 15 0C6.71573 0 0 6.71573 0 15C0 23.2843 6.71573 30 15 30Z" fill="#FFD93B"/>
<path d="M29.9999 15.0009C29.9999 23.2884 23.2808 30.0009 14.9999 30.0009C10.2814 30.0009 6.07488 27.8259 3.3252 24.4199C5.89395 26.5012 9.1752 27.7452 12.7377 27.7452C21.0252 27.7452 27.7377 21.0327 27.7377 12.7452C27.7377 9.17617 26.5002 5.90148 24.4189 3.32617C27.8183 6.07586 29.9999 10.288 29.9999 15.0009Z" fill="#F4C534"/>
<path d="M9.31152 16.135C10.6318 16.135 11.7021 15.0659 11.7021 13.7472C11.7021 12.4284 10.6318 11.3594 9.31152 11.3594C7.99122 11.3594 6.9209 12.4284 6.9209 13.7472C6.9209 15.0659 7.99122 16.135 9.31152 16.135Z" fill="#3E4347"/>
<path d="M20.6904 16.135C22.0107 16.135 23.0811 15.0659 23.0811 13.7472C23.0811 12.4284 22.0107 11.3594 20.6904 11.3594C19.3701 11.3594 18.2998 12.4284 18.2998 13.7472C18.2998 15.0659 19.3701 16.135 20.6904 16.135Z" fill="#3E4347"/>
<path d="M21.9447 12.5493C21.7012 12.311 21.3661 12.2585 21.1962 12.432C21.0264 12.6056 21.0861 12.9395 21.3296 13.1778C21.5731 13.4162 21.9082 13.4687 22.0781 13.2951C22.2479 13.1216 22.1882 12.7877 21.9447 12.5493Z" fill="#5A5F63"/>
<path d="M10.563 12.5524C10.3209 12.3127 9.98614 12.2583 9.8153 12.4309C9.64447 12.6035 9.70227 12.9377 9.9444 13.1774C10.1865 13.417 10.5213 13.4714 10.6921 13.2988C10.863 13.1263 10.8052 12.7921 10.563 12.5524Z" fill="#5A5F63"/>
<path d="M20.2135 22.7066C16.726 21.3125 13.3885 21.2881 10.1945 22.625C9.58792 22.8809 9.03198 22.1872 9.38823 21.6312C10.501 19.8753 12.676 18.6875 15.1885 18.6875C17.7573 18.6875 19.9763 19.9372 21.0638 21.7559C21.3948 22.3062 20.807 22.9372 20.2135 22.7066Z" fill="#3E4347"/>
<path d="M26.2449 25.0077C24.4449 24.8146 22.7227 25.0809 21.2489 25.6546C21.1796 22.9471 19.9214 20.1215 17.3799 17.9746C21.9755 18.9337 25.0336 21.7977 26.2449 25.0077Z" fill="white"/>
<path d="M17.5527 18.0508C17.5527 18.0508 18.3496 18.4736 19.2402 19.3764C20.0643 20.2436 20.3877 20.927 20.3877 20.927C20.0568 20.5155 19.4877 19.863 19.0555 19.4383C18.5202 18.8814 17.5527 18.0508 17.5527 18.0508Z" fill="#E9EFF4"/>
<path d="M19.2549 18.9863C19.2549 18.9863 20.4877 19.6482 21.6033 20.9448C22.643 22.171 23.0049 23.2763 23.0049 23.2763C23.0049 23.2763 22.4002 22.0773 21.4449 20.9982C20.498 19.8816 19.2549 18.9863 19.2549 18.9863Z" fill="#E9EFF4"/>
<path d="M17.5742 18.0605C17.5742 18.0605 18.8127 18.3005 20.2358 19.0515C21.5736 19.7734 22.2852 20.5252 22.2852 20.5252C22.2852 20.5252 21.2398 19.7274 20.0942 19.1396C18.9439 18.519 17.5742 18.0605 17.5742 18.0605Z" fill="#E9EFF4"/>
<path d="M27.7108 24.4668C27.3546 23.3419 26.1544 22.7187 25.03 23.0748C23.9056 23.4308 23.2829 24.6314 23.6392 25.7562C23.9954 26.8811 25.1957 27.5043 26.32 27.1482C27.4444 26.7922 28.0671 25.5916 27.7108 24.4668Z" fill="white"/>
<path d="M23.7069 29.3533C25.2602 29.3533 26.5193 28.0941 26.5193 26.5409C26.5193 24.9877 25.2602 23.7285 23.7069 23.7285C22.1537 23.7285 20.8945 24.9877 20.8945 26.5409C20.8945 28.0941 22.1537 29.3533 23.7069 29.3533Z" fill="white"/>
<path d="M23.4355 25.916C23.0792 24.7911 21.879 24.1679 20.7546 24.524C19.6302 24.8801 19.0075 26.0806 19.3638 27.2055C19.72 28.3303 20.9203 28.9535 22.0446 28.5975C23.169 28.2414 23.7917 27.0409 23.4355 25.916Z" fill="white"/>
<path d="M21.9862 28.2519C21.0637 28.2678 20.1993 27.6922 19.9078 26.7697C19.6678 26.0178 19.8684 25.2312 20.37 24.6875C19.4971 25.1694 19.05 26.2138 19.364 27.1991C19.7193 28.3241 20.9221 28.9522 22.0481 28.5969C22.11 28.5772 22.169 28.5509 22.2281 28.5256C22.1409 28.4384 22.0603 28.3466 21.9862 28.2519Z" fill="#E9EFF4"/>
<path d="M26.3461 26.8709C26.0433 27.6219 25.4255 28.2387 24.593 28.5022C23.108 28.9737 21.5227 28.1497 21.0567 26.6675C20.9939 26.4612 20.9517 26.2531 20.9367 26.0469C20.858 26.4837 20.8833 26.9403 21.023 27.3884C21.4945 28.8734 23.0789 29.6975 24.5564 29.2287C25.6664 28.8744 26.4042 27.8994 26.5092 26.8109C26.4549 26.8316 26.4005 26.8522 26.3461 26.8709Z" fill="#E9EFF4"/>
<path d="M26.3224 27.1469C25.7205 27.3391 25.0952 27.2453 24.5918 26.9444C24.9471 27.0231 25.3343 27.011 25.7074 26.8966C26.8324 26.5413 27.4577 25.3431 27.0977 24.2153C26.9318 23.6969 26.5924 23.2881 26.1649 23.0312C26.8727 23.1934 27.4793 23.725 27.7174 24.4684C28.0727 25.5934 27.4474 26.7916 26.3224 27.1469Z" fill="#E9EFF4"/>
<path d="M3.75488 25.0077C5.55395 24.8146 7.27707 25.0809 8.75082 25.6546C8.8202 22.9471 10.0783 20.1215 12.6199 17.9746C8.02426 18.9337 4.96613 21.7977 3.75488 25.0077Z" fill="white"/>
<path d="M12.4473 18.0508C12.4473 18.0508 11.6504 18.4736 10.7598 19.3764C9.93574 20.2436 9.6123 20.927 9.6123 20.927C9.94324 20.5155 10.5123 19.863 10.9445 19.4383C11.4798 18.8814 12.4473 18.0508 12.4473 18.0508Z" fill="#E9EFF4"/>
<path d="M10.7451 18.9863C10.7451 18.9863 9.51231 19.6482 8.39668 20.9448C7.35699 22.171 6.99512 23.2773 6.99512 23.2773C6.99512 23.2773 7.59981 22.0782 8.55606 20.9991C9.502 19.8816 10.7451 18.9863 10.7451 18.9863Z" fill="#E9EFF4"/>
<path d="M12.4258 18.0605C12.4258 18.0605 11.1873 18.3005 9.76422 19.0515C8.42641 19.7734 7.71484 20.5252 7.71484 20.5252C7.71484 20.5252 8.76016 19.7274 9.90578 19.1396C11.0561 18.519 12.4258 18.0605 12.4258 18.0605Z" fill="#E9EFF4"/>
<path d="M4.96512 23.0728C3.84076 22.7167 2.64051 23.34 2.28428 24.4648C1.92805 25.5897 2.55074 26.7902 3.6751 27.1463C4.79946 27.5024 5.99972 26.8791 6.35595 25.7543C6.71218 24.6294 6.08948 23.4289 4.96512 23.0728Z" fill="white"/>
<path d="M6.28992 29.3533C7.84315 29.3533 9.1023 28.0941 9.1023 26.5409C9.1023 24.9877 7.84315 23.7285 6.28992 23.7285C4.73668 23.7285 3.47754 24.9877 3.47754 26.5409C3.47754 28.0941 4.73668 29.3533 6.28992 29.3533Z" fill="white"/>
<path d="M9.24247 24.5259C8.1181 24.1699 6.91785 24.7931 6.56162 25.9179C6.20539 27.0428 6.82808 28.2433 7.95244 28.5994C9.07681 28.9555 10.2771 28.3323 10.6333 27.2074C10.9895 26.0826 10.3668 24.882 9.24247 24.5259Z" fill="white"/>
<path d="M8.01336 28.2519C8.93586 28.2678 9.80023 27.6922 10.0918 26.7697C10.3318 26.0178 10.1312 25.2312 9.62961 24.6875C10.5024 25.1694 10.9496 26.2138 10.6355 27.1991C10.2802 28.3241 9.07742 28.9522 7.95148 28.5969C7.88961 28.5772 7.83055 28.5509 7.77148 28.5256C7.85961 28.4384 7.94023 28.3466 8.01336 28.2519Z" fill="#E9EFF4"/>
<path d="M3.65336 26.8709C3.95617 27.6219 4.57398 28.2387 5.40648 28.5022C6.89148 28.9737 8.4768 28.1497 8.94273 26.6675C9.00555 26.4612 9.0468 26.2531 9.06273 26.0469C9.14148 26.4837 9.11617 26.9403 8.97648 27.3884C8.50492 28.8734 6.92055 29.6975 5.44305 29.2287C4.33305 28.8744 3.59523 27.8994 3.49023 26.8109C3.54461 26.8316 3.59898 26.8522 3.65336 26.8709Z" fill="#E9EFF4"/>
<path d="M3.67822 27.1469C4.28009 27.3391 4.90541 27.2453 5.40884 26.9444C5.05353 27.0231 4.66634 27.011 4.29322 26.8966C3.16822 26.5413 2.54291 25.3431 2.90291 24.2153C3.06884 23.6969 3.40822 23.2881 3.83572 23.0312C3.12791 23.1934 2.52134 23.725 2.28322 24.4684C1.92791 25.5934 2.55322 26.7916 3.67822 27.1469Z" fill="#E9EFF4"/>
<path d="M17.2956 11.6508C16.9637 11.572 16.7556 11.2495 16.8278 10.9167C16.8512 10.807 17.4653 8.21766 22.2156 7.46297C22.5634 7.40859 22.8765 7.64109 22.9309 7.98234C22.9853 8.32359 22.7528 8.64328 22.4125 8.69766C18.5771 9.30703 18.0671 11.1164 18.0465 11.1933C17.9621 11.5205 17.6293 11.7305 17.2956 11.6508Z" fill="#E9B02C"/>
<path d="M12.5495 11.1923C12.5242 11.0948 11.9955 9.30328 8.18453 8.69765C7.84422 8.64328 7.61172 8.32359 7.66609 7.98234C7.72047 7.64109 8.03547 7.40859 8.3814 7.46297C13.1308 8.21765 13.7448 10.807 13.7692 10.9167C13.8423 11.2542 13.6286 11.587 13.2911 11.6602C12.9508 11.7323 12.6255 11.5186 12.5495 11.1923Z" fill="#E9B02C"/>
</g>
<defs>
<clipPath id="clip0_2_5466">
<rect width="30" height="30" fill="white"/>
</clipPath>
</defs>
</svg>
