<svg width="30" height="30" viewBox="0 0 30 30" fill="none" xmlns="http://www.w3.org/2000/svg">
<g clip-path="url(#clip0_2_5381)">
<path d="M15 30C23.2843 30 30 23.2843 30 15C30 6.71573 23.2843 0 15 0C6.71573 0 0 6.71573 0 15C0 23.2843 6.71573 30 15 30Z" fill="#FFD93B"/>
<path d="M29.9998 15.0008C29.9998 23.2883 23.2826 30.0008 14.9998 30.0008C10.2842 30.0008 6.0748 27.8258 3.32324 24.418C5.89668 26.4992 9.17324 27.7414 12.7404 27.7414C21.0232 27.7414 27.7404 21.0289 27.7404 12.7414C27.7404 9.17422 26.4982 5.89766 24.417 3.32422C27.8201 6.07578 29.9998 10.2852 29.9998 15.0008Z" fill="#F4C534"/>
<path d="M6.68987 13.4039C6.55581 13.0861 6.70487 12.7195 7.02269 12.5855C7.34144 12.4514 7.70706 12.6005 7.84113 12.9183C8.16831 13.6945 8.9455 14.1539 9.77331 14.0639C10.6011 13.973 11.2593 13.3552 11.4102 12.5264C11.4721 12.187 11.7983 11.962 12.1368 12.0239C12.4761 12.0858 12.7021 12.4111 12.6393 12.7505C12.388 14.1277 11.2911 15.1542 9.90925 15.3061C8.533 15.458 7.2355 14.6967 6.68987 13.4039Z" fill="#3E4347"/>
<path d="M20.0899 15.3068C18.708 15.1549 17.6111 14.1283 17.3598 12.7512C17.298 12.4118 17.523 12.0855 17.8623 12.0237C18.2017 11.9627 18.527 12.1868 18.5898 12.5262C18.7408 13.3549 19.3989 13.9727 20.2267 14.0637C21.0574 14.1537 21.8317 13.6943 22.1589 12.918C22.293 12.6002 22.6595 12.4512 22.9774 12.5852C23.2952 12.7193 23.4442 13.0858 23.3102 13.4037C22.7636 14.7002 21.4642 15.4586 20.0899 15.3068Z" fill="#3E4347"/>
<path d="M15.0002 24.772C16.7575 24.772 18.1821 23.3474 18.1821 21.5901C18.1821 19.8328 16.7575 18.4082 15.0002 18.4082C13.2429 18.4082 11.8184 19.8328 11.8184 21.5901C11.8184 23.3474 13.2429 24.772 15.0002 24.772Z" fill="#3E4347"/>
<path d="M22.6393 8.37579V9.42673H18.5537V8.48548C18.8771 8.11047 20.5525 6.17078 20.8909 5.83235C20.5084 5.85485 19.135 5.82485 18.7234 5.83235V4.85547H22.4996V5.70766C20.4493 8.07391 20.9265 7.52266 20.1409 8.37485H22.6393V8.37579Z" fill="#E24B4B"/>
<path d="M29.7098 5.68234V7.28641H23.4727V5.85016C23.9667 5.27828 26.5242 2.31672 27.0398 1.80016C26.4567 1.83391 24.3586 1.78891 23.7305 1.80016V0.308594H29.497V1.60984C26.3667 5.22203 27.0961 4.38109 25.8961 5.68234H29.7098Z" fill="#E24B4B"/>
</g>
<defs>
<clipPath id="clip0_2_5381">
<rect width="30" height="30" fill="white"/>
</clipPath>
</defs>
</svg>
