<svg width="30" height="30" viewBox="0 0 30 30" fill="none" xmlns="http://www.w3.org/2000/svg">
<g clip-path="url(#clip0_2_4681)">
<path d="M15 30C23.2843 30 30 23.2843 30 15C30 6.71573 23.2843 0 15 0C6.71573 0 0 6.71573 0 15C0 23.2843 6.71573 30 15 30Z" fill="#FFD93B"/>
<path d="M29.9998 15.0008C29.9998 23.2883 23.2826 30.0008 14.9998 30.0008C10.2842 30.0008 6.0748 27.8258 3.32324 24.418C5.89668 26.4992 9.17324 27.7414 12.7404 27.7414C21.0232 27.7414 27.7404 21.0289 27.7404 12.7414C27.7404 9.17422 26.4982 5.89766 24.417 3.32422C27.8201 6.07578 29.9998 10.2852 29.9998 15.0008Z" fill="#F4C534"/>
<path d="M19.7252 23.6245C19.3417 24.0885 18.7802 24.2141 18.227 23.9273C16.2114 22.8576 13.787 22.8576 11.7724 23.9273C11.2192 24.2151 10.6539 24.1204 10.2705 23.6582C9.89267 23.2082 9.9986 22.4235 10.7627 22.0213C13.4083 20.6179 16.5911 20.6179 19.2377 22.0213C20.0008 22.4263 20.103 23.1707 19.7252 23.6245Z" fill="#3E4347"/>
<path d="M16.208 14.3131C16.208 11.7462 18.2836 9.66211 20.8589 9.66211C23.4249 9.66211 25.5099 11.7462 25.5099 14.3131C25.5099 16.8884 23.4249 18.9724 20.8589 18.9724C18.2836 18.9734 16.208 16.8884 16.208 14.3131Z" fill="white"/>
<path d="M19.9215 17.3742C21.0916 17.3742 22.0402 16.4256 22.0402 15.2555C22.0402 14.0853 21.0916 13.1367 19.9215 13.1367C18.7513 13.1367 17.8027 14.0853 17.8027 15.2555C17.8027 16.4256 18.7513 17.3742 19.9215 17.3742Z" fill="#3E4347"/>
<path d="M19.5367 14.0357C19.3884 13.8874 19.0827 13.9527 18.8539 14.1815C18.6251 14.4104 18.5598 14.7161 18.7081 14.8643C18.8564 15.0126 19.1621 14.9473 19.3909 14.7185C19.6197 14.4897 19.685 14.184 19.5367 14.0357Z" fill="white"/>
<path d="M13.5861 14.3131C13.5861 11.7462 11.5104 9.66211 8.93512 9.66211C6.36824 9.66211 4.28418 11.7462 4.28418 14.3131C4.28418 16.8884 6.36918 18.9724 8.93512 18.9724C11.5104 18.9734 13.5861 16.8884 13.5861 14.3131Z" fill="white"/>
<path d="M9.87266 17.3742C11.0428 17.3742 11.9914 16.4256 11.9914 15.2555C11.9914 14.0853 11.0428 13.1367 9.87266 13.1367C8.7025 13.1367 7.75391 14.0853 7.75391 15.2555C7.75391 16.4256 8.7025 17.3742 9.87266 17.3742Z" fill="#3E4347"/>
<path d="M10.94 14.1854C10.7112 13.9566 10.4055 13.8913 10.2572 14.0396C10.1089 14.1879 10.1742 14.4936 10.4031 14.7224C10.6319 14.9512 10.9376 15.0165 11.0859 14.8682C11.2341 14.72 11.1688 14.4143 10.94 14.1854Z" fill="white"/>
</g>
<defs>
<clipPath id="clip0_2_4681">
<rect width="30" height="30" fill="white"/>
</clipPath>
</defs>
</svg>
