<svg width="30" height="30" viewBox="0 0 30 30" fill="none" xmlns="http://www.w3.org/2000/svg">
<g clip-path="url(#clip0_2_5509)">
<path d="M15 30C23.2843 30 30 23.2843 30 15C30 6.71573 23.2843 0 15 0C6.71573 0 0 6.71573 0 15C0 23.2843 6.71573 30 15 30Z" fill="#FFD93B"/>
<path d="M29.9998 15.0008C29.9998 23.2883 23.2826 30.0008 14.9998 30.0008C10.2842 30.0008 6.0748 27.8258 3.32324 24.418C5.89668 26.4992 9.17324 27.7414 12.7404 27.7414C21.0232 27.7414 27.7404 21.0289 27.7404 12.7414C27.7404 9.17422 26.4982 5.89766 24.417 3.32422C27.8201 6.07578 29.9998 10.2852 29.9998 15.0008Z" fill="#F4C534"/>
<path d="M9.85645 15.5896C11.1509 15.5896 12.2002 13.9514 12.2002 11.9306C12.2002 9.90971 11.1509 8.27148 9.85645 8.27148C8.56203 8.27148 7.5127 9.90971 7.5127 11.9306C7.5127 13.9514 8.56203 15.5896 9.85645 15.5896Z" fill="#5A5F63"/>
<path d="M11.6743 14.2538C11.2346 15.0694 10.5886 15.5878 9.85832 15.5878C8.56082 15.5878 7.5127 13.9519 7.5127 11.9297C7.5127 11.0822 7.69832 10.2994 8.01051 9.67969C7.93082 10.0294 7.89426 10.3997 7.89426 10.7859C7.89426 12.8981 9.08582 14.6138 10.5521 14.6138C10.9543 14.6138 11.3349 14.4872 11.6743 14.2538Z" fill="#3E4347"/>
<path d="M11.2135 10.0954C11.0756 9.71854 10.7884 9.47725 10.572 9.55644C10.3557 9.63563 10.2921 10.0053 10.43 10.3821C10.5679 10.759 10.8551 11.0003 11.0715 10.9211C11.2878 10.8419 11.3514 10.4722 11.2135 10.0954Z" fill="#777B7E"/>
<path d="M20.1445 15.5896C21.4389 15.5896 22.4883 13.9514 22.4883 11.9306C22.4883 9.90971 21.4389 8.27148 20.1445 8.27148C18.8501 8.27148 17.8008 9.90971 17.8008 11.9306C17.8008 13.9514 18.8501 15.5896 20.1445 15.5896Z" fill="#5A5F63"/>
<path d="M21.9614 14.2538C21.5217 15.0694 20.8757 15.5878 20.1454 15.5878C18.8479 15.5878 17.7998 13.9519 17.7998 11.9297C17.7998 11.0822 17.9854 10.2994 18.2976 9.67969C18.2179 10.0294 18.1814 10.3997 18.1814 10.7859C18.1814 12.8981 19.3729 14.6138 20.8392 14.6138C21.2414 14.6138 21.622 14.4872 21.9614 14.2538Z" fill="#3E4347"/>
<path d="M21.5006 10.0954C21.3627 9.71853 21.0755 9.47725 20.8591 9.55644C20.6428 9.63563 20.5792 10.0053 20.7171 10.3821C20.855 10.759 21.1422 11.0003 21.3586 10.9211C21.5749 10.8419 21.6385 10.4722 21.5006 10.0954Z" fill="#777B7E"/>
</g>
<defs>
<clipPath id="clip0_2_5509">
<rect width="30" height="30" fill="white"/>
</clipPath>
</defs>
</svg>
