<svg width="30" height="31" viewBox="0 0 30 31" fill="none" xmlns="http://www.w3.org/2000/svg">
<g clip-path="url(#clip0_2_4343)">
<path d="M15 30.123C23.2843 30.123 30 23.4073 30 15.123C30 6.83878 23.2843 0.123047 15 0.123047C6.71573 0.123047 0 6.83878 0 15.123C0 23.4073 6.71573 30.123 15 30.123Z" fill="#FFD93B"/>
<path d="M24.5038 19.9723C22.9944 23.7457 19.31 26.4082 15.0022 26.4082C10.6897 26.4082 7.00535 23.7457 5.49598 19.9723C5.28504 19.4426 5.66004 18.8613 6.23191 18.8613H23.7679C24.3397 18.8613 24.7147 19.4426 24.5038 19.9723Z" fill="#3E4347"/>
<path d="M24.5038 19.9723C22.9944 23.7457 19.31 26.4082 15.0022 26.4082C10.6897 26.4082 7.00535 23.7457 5.49598 19.9723C5.28504 19.4426 5.66004 18.8613 6.23191 18.8613H23.7679C24.3397 18.8613 24.7147 19.4426 24.5038 19.9723Z" fill="#3E4347"/>
<path d="M29.9998 15.1238C29.9998 23.4113 23.2826 30.1238 14.9998 30.1238C10.2842 30.1238 6.0748 27.9488 3.32324 24.541C5.89668 26.6223 9.17324 27.8645 12.7404 27.8645C21.0232 27.8645 27.7404 21.152 27.7404 12.8645C27.7404 9.29727 26.4982 6.0207 24.417 3.44727C27.8201 6.19883 29.9998 10.4082 29.9998 15.1238Z" fill="#F4C534"/>
<path d="M6.83472 14.6386C6.65847 14.2927 6.79534 13.8689 7.14128 13.6927L10.5735 11.9405L7.85472 10.5521C7.50878 10.3758 7.3719 9.95206 7.54815 9.60612C7.7244 9.26019 8.14815 9.12331 8.49409 9.29956L12.4391 11.3142C12.6744 11.4342 12.8225 11.6761 12.8225 11.9405C12.8225 12.2049 12.6744 12.4467 12.4391 12.5667L7.78065 14.9452C7.43097 15.1233 7.00909 14.9808 6.83472 14.6386Z" fill="#3E4347"/>
<path d="M22.2177 14.9452L17.5592 12.5667C17.3239 12.4467 17.1758 12.2049 17.1758 11.9405C17.1758 11.6761 17.3239 11.4342 17.5592 11.3142L21.5042 9.29956C21.8511 9.12331 22.2739 9.26019 22.4502 9.60612C22.6264 9.95206 22.4895 10.3758 22.1436 10.5521L19.4248 11.9405L22.8561 13.6927C23.202 13.8689 23.3398 14.2927 23.1627 14.6386C22.9855 14.9864 22.5617 15.1205 22.2177 14.9452Z" fill="#3E4347"/>
<path d="M23.0129 20.1504L22.9904 20.1973C22.5367 21.1207 21.6273 21.7282 20.6017 21.8098C16.8667 22.107 13.1317 22.1013 9.39668 21.792C8.36543 21.7066 7.4523 21.0954 6.9948 20.1673L6.9873 20.1513H23.0129V20.1504Z" fill="white"/>
<path d="M15.4061 23.6191C15.0095 23.8151 14.5379 23.9313 13.9979 23.9313C13.892 23.9313 13.7861 23.9257 13.6857 23.9154C13.0136 23.8572 12.3357 24.0897 11.9448 24.6401C11.7095 24.9757 11.5323 25.3526 11.417 25.7557C12.5336 26.1738 13.7401 26.4072 15.0029 26.4072C16.2826 26.4072 17.5042 26.1672 18.6329 25.7388C18.4154 25.0047 17.9908 24.3588 17.4114 23.8882C16.8451 23.4288 16.0567 23.2966 15.4061 23.6191Z" fill="#E24B4B"/>
<g opacity="0.2">
<path opacity="0.2" d="M16.9745 24.1533C16.7237 23.9472 16.4228 23.8989 16.3025 24.0453C16.1823 24.1918 16.2881 24.4775 16.539 24.6836C16.7898 24.8896 17.0907 24.9379 17.2109 24.7915C17.3312 24.6451 17.2254 24.3593 16.9745 24.1533Z" fill="white"/>
</g>
</g>
<defs>
<clipPath id="clip0_2_4343">
<rect width="30" height="30" fill="white" transform="translate(0 0.123047)"/>
</clipPath>
</defs>
</svg>
