<svg width="30" height="31" viewBox="0 0 30 31" fill="none" xmlns="http://www.w3.org/2000/svg">
<g clip-path="url(#clip0_2_5286)">
<path d="M15 30.123C23.2843 30.123 30 23.4073 30 15.123C30 6.83878 23.2843 0.123047 15 0.123047C6.71573 0.123047 0 6.83878 0 15.123C0 23.4073 6.71573 30.123 15 30.123Z" fill="#FFD93B"/>
<path d="M29.9998 15.1238C29.9998 23.4113 23.2826 30.1238 14.9998 30.1238C10.2842 30.1238 6.0748 27.9488 3.32324 24.541C5.89668 26.6223 9.17324 27.8645 12.7404 27.8645C21.0232 27.8645 27.7404 21.152 27.7404 12.8645C27.7404 9.29727 26.4982 6.0207 24.417 3.44727C27.8201 6.19883 29.9998 10.4082 29.9998 15.1238Z" fill="#F4C534"/>
<path d="M20.4379 19.8796C21.7664 19.8796 22.8435 18.8026 22.8435 17.474C22.8435 16.1454 21.7664 15.0684 20.4379 15.0684C19.1093 15.0684 18.0322 16.1454 18.0322 17.474C18.0322 18.8026 19.1093 19.8796 20.4379 19.8796Z" fill="#3E4347"/>
<path d="M19.0769 17.0553C19.2438 17.2128 19.5588 17.1556 19.7603 16.9315C19.9685 16.7084 20.0041 16.3915 19.8288 16.2387C19.6553 16.0793 19.3478 16.1318 19.1397 16.355C18.9307 16.5856 18.9035 16.8969 19.0769 17.0553Z" fill="#5A5F63"/>
<path d="M9.55895 19.8796C10.8875 19.8796 11.9646 18.8026 11.9646 17.474C11.9646 16.1454 10.8875 15.0684 9.55895 15.0684C8.23036 15.0684 7.15332 16.1454 7.15332 17.474C7.15332 18.8026 8.23036 19.8796 9.55895 19.8796Z" fill="#3E4347"/>
<path d="M8.198 17.0553C8.36487 17.2128 8.67988 17.1556 8.88144 16.9315C9.08956 16.7084 9.12519 16.3915 8.94988 16.2387C8.77644 16.0793 8.46894 16.1318 8.26081 16.355C8.05175 16.5856 8.02456 16.8969 8.198 17.0553Z" fill="#5A5F63"/>
<path d="M6.36554 11.3236C6.90929 7.66361 10.334 4.47893 14.9971 4.4883C19.6677 4.47893 23.0915 7.66455 23.6352 11.3236C23.6999 11.7305 23.3146 12.1074 22.9077 12.0464C17.6868 11.2674 12.313 11.2674 7.0921 12.0464C6.68617 12.1083 6.30085 11.7314 6.36554 11.3236Z" fill="#3E4347"/>
<path d="M14.9972 5.82425C18.4547 5.81487 21.3272 7.91582 22.2422 10.7583C17.4507 10.1199 12.5494 10.1199 7.75879 10.7583C8.67285 7.91582 11.5435 5.81487 14.9972 5.82425Z" fill="white"/>
<path d="M10.6107 6.64453L11.1423 11.0573L11.0298 11.0695C10.9107 11.0761 10.786 11.0883 10.6613 11.1005L10.561 11.107L9.98633 6.70078L10.0923 6.69422C10.2357 6.68203 10.3735 6.66891 10.5113 6.65672L10.6107 6.64453Z" fill="#3E4347"/>
<path d="M16.8164 5.6125H16.9224L16.6721 10.9309L16.0908 10.9188L16.2849 5.59375L16.3908 5.60031C16.5352 5.60031 16.6721 5.60687 16.8164 5.6125Z" fill="#3E4347"/>
<path d="M20.0282 6.55039L19.4348 11.1066L19.3288 11.1001C19.2098 11.0879 19.0851 11.0748 18.966 11.0691L18.8535 11.057L19.4038 6.49414L19.5041 6.5007C19.642 6.51289 19.7788 6.52602 19.9232 6.5382L20.0282 6.55039Z" fill="#3E4347"/>
<path d="M13.7095 5.59375L13.9036 10.9188L13.3223 10.9309L13.0664 5.6125H13.1789C13.3223 5.60594 13.4602 5.60031 13.6036 5.60031L13.7095 5.59375Z" fill="#3E4347"/>
<path d="M21.629 8.20574L21.5165 8.81792L21.4162 8.81136C17.1159 8.28636 12.7602 8.29292 8.45992 8.82355L8.36055 8.83668L8.24805 8.22449L8.36055 8.20574C12.7227 7.66855 17.1477 7.66198 21.5109 8.19355L21.629 8.20574Z" fill="#3E4347"/>
</g>
<defs>
<clipPath id="clip0_2_5286">
<rect width="30" height="30" fill="white" transform="translate(0 0.123047)"/>
</clipPath>
</defs>
</svg>
