<svg width="30" height="31" viewBox="0 0 30 31" fill="none" xmlns="http://www.w3.org/2000/svg">
<g clip-path="url(#clip0_2_5305)">
<path d="M15 30.123C23.2843 30.123 30 23.4073 30 15.123C30 6.83878 23.2843 0.123047 15 0.123047C6.71573 0.123047 0 6.83878 0 15.123C0 23.4073 6.71573 30.123 15 30.123Z" fill="#FFD93B"/>
<path d="M29.9998 15.1238C29.9998 23.4113 23.2826 30.1238 14.9998 30.1238C10.2842 30.1238 6.0748 27.9488 3.32324 24.541C5.89668 26.6223 9.17324 27.8645 12.7404 27.8645C21.0232 27.8645 27.7404 21.152 27.7404 12.8645C27.7404 9.29727 26.4982 6.0207 24.417 3.44727C27.8201 6.19883 29.9998 10.4082 29.9998 15.1238Z" fill="#F4C534"/>
<path d="M9.39906 22.6975C10.4247 20.845 12.46 19.4378 14.9791 19.4453C17.4662 19.4388 19.4631 20.8169 20.4747 22.6422C20.8759 23.3669 20.1756 24.2369 19.4716 23.9163C16.4809 22.5794 13.4491 22.6422 10.3778 23.9791C9.66906 24.2922 8.99968 23.4222 9.39906 22.6975Z" fill="#3E4347"/>
<path d="M20.1018 23.6983V28.2546C20.1018 28.5452 19.8674 28.7796 19.5768 28.7796C19.2861 28.7796 19.0611 28.5452 19.0611 28.2546V25.6108C19.0611 25.9015 18.8174 26.1358 18.5268 26.1358C18.2455 26.1358 18.0018 25.9015 18.0018 25.6108V26.3983C18.0018 26.6983 17.7674 26.9233 17.4768 26.9233C17.1861 26.9233 16.9518 26.6983 16.9518 26.3983V28.2546C16.9518 28.5452 16.7174 28.7796 16.4268 28.7796C16.1361 28.7796 15.9018 28.5452 15.9018 28.2546V24.5702C15.9018 24.8608 15.6674 25.0952 15.3768 25.0952C15.0861 25.0952 14.8518 24.8608 14.8518 24.5702V26.8296C14.8518 27.1202 14.6174 27.3546 14.3268 27.3546C14.0361 27.3546 13.8018 27.1202 13.8018 26.8296V23.0214L15.4124 22.6971C16.8139 22.4149 18.2736 22.5133 19.6143 23.0093C19.618 23.0102 19.6208 23.0121 19.6236 23.013C19.9049 23.1077 20.1018 23.3983 20.1018 23.6983Z" fill="white"/>
<path d="M18.528 29.7005C18.8169 29.7005 19.0511 29.4663 19.0511 29.1774C19.0511 28.8885 18.8169 28.6543 18.528 28.6543C18.2391 28.6543 18.0049 28.8885 18.0049 29.1774C18.0049 29.4663 18.2391 29.7005 18.528 29.7005Z" fill="white"/>
<path d="M12.6614 13.9291C12.6418 14.2403 12.5555 14.5366 12.4102 14.8066C12.0352 13.9056 10.9852 13.6975 9.74395 13.6975C8.5102 13.6975 7.45271 13.9056 7.08427 14.8066C6.93896 14.5366 6.84614 14.2403 6.82646 13.9291C6.73833 12.5294 8.05083 11.5703 9.74395 11.5703C11.4436 11.5694 12.7486 12.5294 12.6614 13.9291Z" fill="#3E4347"/>
<path d="M23.3822 13.9291C23.3625 14.2403 23.2762 14.5366 23.1309 14.8066C22.7559 13.9056 21.7059 13.6975 20.4647 13.6975C19.2309 13.6975 18.1734 13.9056 17.805 14.8066C17.6597 14.5366 17.5668 14.2403 17.5472 13.9291C17.459 12.5294 18.7715 11.5703 20.4647 11.5703C22.1644 11.5694 23.4694 12.5294 23.3822 13.9291Z" fill="#3E4347"/>
<path d="M19.2446 8.67232C19.209 8.33013 19.4556 8.02263 19.7978 7.98607C19.9243 7.97201 22.9046 7.68045 24.6774 10.1658C24.8781 10.447 24.8124 10.837 24.5312 11.0376C24.2499 11.2392 23.8599 11.1736 23.6593 10.8914C22.3178 9.0117 20.0274 9.21889 19.9299 9.2292C19.5868 9.26295 19.2793 9.01451 19.2446 8.67232Z" fill="#E9B02C"/>
<path d="M11.5995 10.3822C11.5264 10.3185 9.77796 8.82504 7.59546 9.5816C7.26827 9.69504 6.91296 9.52347 6.79952 9.19629C6.68608 8.87004 6.85858 8.51379 7.18389 8.40129C10.0686 7.40004 12.3308 9.36035 12.4255 9.44472C12.6842 9.67347 12.7086 10.0682 12.4789 10.3269C12.2511 10.5847 11.8573 10.6091 11.5995 10.3822Z" fill="#E9B02C"/>
</g>
<defs>
<clipPath id="clip0_2_5305">
<rect width="30" height="30" fill="white" transform="translate(0 0.123047)"/>
</clipPath>
</defs>
</svg>
