<svg width="30" height="31" viewBox="0 0 30 31" fill="none" xmlns="http://www.w3.org/2000/svg">
<g clip-path="url(#clip0_2_4297)">
<path d="M16.3172 27.7356C15.5278 28.2888 14.475 28.2888 13.6865 27.7356C8.77775 24.3156 -5.97488 13.373 2.65394 4.49104C4.0602 3.03977 5.94741 2.0957 7.97055 2.0957C11.2003 2.0957 13.95 4.14604 15.0019 7.01294C16.0547 4.14604 18.8035 2.0957 22.0332 2.0957C24.0563 2.0957 25.9435 3.04821 27.3498 4.50041C35.9692 13.3918 21.226 24.3156 16.3172 27.7356Z" fill="#E24B4B"/>
<path d="M16.3177 27.7362C15.7824 28.1084 15.129 28.2349 14.5215 28.0896C21.5594 23.9139 29.5179 14.2735 27.3503 4.5C35.9698 13.3923 21.2265 24.3161 16.3177 27.7362Z" fill="#D03F3F"/>
<path d="M21.7793 7.18241C19.7305 6.47664 17.3353 8.03609 16.4295 10.6655C15.5238 13.295 16.4504 15.9987 18.4992 16.7045C20.5481 17.4103 22.9433 15.8508 23.849 13.2214C24.7548 10.5919 23.8282 7.88819 21.7793 7.18241Z" fill="#D03F3F"/>
<path d="M17.0997 10.898C16.5616 13.0617 17.4841 15.2846 19.166 15.864C20.8413 16.4415 22.6376 15.1552 23.1757 12.9914C23.7157 10.822 22.7923 8.59919 21.1169 8.02168C19.436 7.4423 17.6397 8.72857 17.0997 10.898Z" fill="white"/>
<path d="M21.559 12.6812C21.559 13.7631 20.6843 14.6378 19.6024 14.6378C18.528 14.6378 17.6533 13.7631 17.6533 12.6812C17.6533 11.6068 18.528 10.7246 19.6024 10.7246C20.6852 10.7255 21.559 11.6068 21.559 12.6812Z" fill="#3E4347"/>
<path d="M20.5863 11.7043C20.3893 11.5074 20.1213 11.456 19.9877 11.5897C19.854 11.7233 19.9054 11.9913 20.1023 12.1883C20.2993 12.3852 20.5673 12.4366 20.7009 12.303C20.8346 12.1693 20.7832 11.9013 20.5863 11.7043Z" fill="white"/>
<path d="M13.3576 10.6675C12.4518 8.03805 10.0566 6.47859 8.00777 7.18437C5.95893 7.89014 5.03229 10.5939 5.93807 13.2233C6.84385 15.8528 9.23904 17.4122 11.2879 16.7065C13.3367 16.0007 14.2634 13.297 13.3576 10.6675Z" fill="#D03F3F"/>
<path d="M12.6873 10.898C13.2254 13.0617 12.3029 15.2846 10.621 15.864C8.94567 16.4415 7.1494 15.1552 6.61127 12.9914C6.07127 10.822 6.99472 8.59919 8.67004 8.02168C10.351 7.4423 12.1473 8.72857 12.6873 10.898Z" fill="white"/>
<path d="M12.1352 12.6812C12.1352 13.7631 11.2605 14.6378 10.1786 14.6378C9.10419 14.6378 8.22949 13.7631 8.22949 12.6812C8.22949 11.6068 9.10419 10.7246 10.1786 10.7246C11.2605 10.7255 12.1352 11.6068 12.1352 12.6812Z" fill="#3E4347"/>
<path d="M11.1615 11.7004C10.9645 11.5035 10.6965 11.4521 10.5628 11.5858C10.4292 11.7194 10.4806 11.9874 10.6775 12.1844C10.8745 12.3813 11.1425 12.4327 11.2761 12.2991C11.4098 12.1654 11.3584 11.8974 11.1615 11.7004Z" fill="white"/>
<path opacity="0.2" d="M4.68422 6.88326C3.44109 7.98483 3.44952 9.49516 2.84764 8.82765C2.25701 8.16108 2.27295 6.59825 3.51609 5.50699C4.74891 4.40448 6.18517 4.56855 6.77674 5.23512C7.36737 5.90262 5.91705 5.77981 4.68422 6.88326Z" fill="white"/>
<path d="M19.4179 19.4896C18.5836 21.3403 16.9317 22.6106 14.9995 22.6106C13.0673 22.6106 11.4154 21.3403 10.581 19.4896C10.4535 19.2084 10.7535 18.9271 11.0347 19.0452C13.6748 20.1609 16.3242 20.1609 18.9736 19.0452C19.2548 18.9271 19.5445 19.2084 19.4179 19.4896Z" fill="#3E4347"/>
</g>
<defs>
<clipPath id="clip0_2_4297">
<rect width="30" height="30" fill="white" transform="translate(0 0.123047)"/>
</clipPath>
</defs>
</svg>
