<svg width="30" height="31" viewBox="0 0 30 31" fill="none" xmlns="http://www.w3.org/2000/svg">
<g clip-path="url(#clip0_2_4412)">
<path d="M15 30.123C23.2843 30.123 30 23.4073 30 15.123C30 6.83878 23.2843 0.123047 15 0.123047C6.71573 0.123047 0 6.83878 0 15.123C0 23.4073 6.71573 30.123 15 30.123Z" fill="#FFD93B"/>
<path d="M29.9998 15.1238C29.9998 23.4113 23.2826 30.1238 14.9998 30.1238C10.2842 30.1238 6.0748 27.9488 3.32324 24.541C5.89668 26.6223 9.17324 27.8645 12.7404 27.8645C21.0232 27.8645 27.7404 21.152 27.7404 12.8645C27.7404 9.29727 26.4982 6.0207 24.417 3.44727C27.8201 6.19883 29.9998 10.4082 29.9998 15.1238Z" fill="#F4C534"/>
<path d="M11.4493 9.01889C9.8953 8.07737 7.8725 8.57353 6.93124 10.1271C5.98999 11.6806 6.48672 13.7033 8.04072 14.6448C9.59472 15.5864 11.6175 15.0902 12.5588 13.5366C13.5 11.9831 13.0033 9.96042 11.4493 9.01889Z" fill="white"/>
<path d="M11.4501 9.01749C10.6737 8.54733 9.66274 8.7963 9.19205 9.57359C8.72135 10.3509 8.96917 11.3621 9.74557 11.8323C10.522 12.3025 11.5329 12.0535 12.0036 11.2762C12.4743 10.4989 12.2265 9.48765 11.4501 9.01749Z" fill="#3E4347"/>
<path d="M11.6764 9.72425C11.5718 9.48687 11.3599 9.35046 11.2031 9.41956C11.0462 9.48866 11.0039 9.73711 11.1085 9.97449C11.2131 10.2119 11.425 10.3483 11.5818 10.2792C11.7387 10.2101 11.781 9.96163 11.6764 9.72425Z" fill="#5A5F63"/>
<path d="M21.9591 9.01694C20.4051 8.07542 18.3823 8.57157 17.441 10.1251C16.4997 11.6787 16.9965 13.7014 18.5505 14.6429C20.1045 15.5844 22.1273 15.0882 23.0686 13.5347C24.0098 11.9811 23.5131 9.95846 21.9591 9.01694Z" fill="white"/>
<path d="M21.9609 9.01749C21.1845 8.54733 20.1735 8.79631 19.7028 9.57359C19.2321 10.3509 19.4799 11.3621 20.2563 11.8323C21.0327 12.3025 22.0437 12.0535 22.5144 11.2762C22.9851 10.4989 22.7373 9.48765 21.9609 9.01749Z" fill="#3E4347"/>
<path d="M22.1862 9.72431C22.0817 9.48693 21.8698 9.3505 21.7129 9.41959C21.5561 9.48867 21.5137 9.73711 21.6183 9.97449C21.7229 10.2119 21.9348 10.3483 22.0916 10.2792C22.2484 10.2101 22.2908 9.96169 22.1862 9.72431Z" fill="#5A5F63"/>
<path d="M21.7121 20.302C21.7121 20.7529 21.3474 21.1176 20.8965 21.1176H9.10273C8.65648 21.1176 8.28711 20.7529 8.28711 20.302C8.28711 19.851 8.65648 19.4863 9.10273 19.4863H20.8974C21.3484 19.4873 21.7121 19.851 21.7121 20.302Z" fill="#3E4347"/>
</g>
<defs>
<clipPath id="clip0_2_4412">
<rect width="30" height="30" fill="white" transform="translate(0 0.123047)"/>
</clipPath>
</defs>
</svg>
