<svg width="30" height="31" viewBox="0 0 30 31" fill="none" xmlns="http://www.w3.org/2000/svg">
<g clip-path="url(#clip0_2_4331)">
<path d="M15 30.123C23.2843 30.123 30 23.4073 30 15.123C30 6.83878 23.2843 0.123047 15 0.123047C6.71573 0.123047 0 6.83878 0 15.123C0 23.4073 6.71573 30.123 15 30.123Z" fill="#FFD93B"/>
<path d="M29.9998 15.1238C29.9998 23.4113 23.2826 30.1238 14.9998 30.1238C10.2842 30.1238 6.0748 27.9488 3.32324 24.541C5.89668 26.6223 9.17324 27.8645 12.7404 27.8645C21.0232 27.8645 27.7404 21.152 27.7404 12.8645C27.7404 9.29727 26.4982 6.0207 24.417 3.44727C27.8201 6.19883 29.9998 10.4082 29.9998 15.1238Z" fill="#F4C534"/>
<path d="M20.5181 15.6964C21.8182 15.6964 22.8722 14.6425 22.8722 13.3424C22.8722 12.0422 21.8182 10.9883 20.5181 10.9883C19.218 10.9883 18.1641 12.0422 18.1641 13.3424C18.1641 14.6425 19.218 15.6964 20.5181 15.6964Z" fill="#3E4347"/>
<path d="M21.3731 11.8777C21.0134 11.7181 20.6381 11.7776 20.5348 12.0104C20.4315 12.2433 20.6394 12.5614 20.9991 12.7209C21.3588 12.8804 21.7341 12.821 21.8374 12.5881C21.9407 12.3553 21.7328 12.0372 21.3731 11.8777Z" fill="#5A5F63"/>
<path d="M9.48102 15.6964C10.7811 15.6964 11.8351 14.6425 11.8351 13.3424C11.8351 12.0422 10.7811 10.9883 9.48102 10.9883C8.1809 10.9883 7.12695 12.0422 7.12695 13.3424C7.12695 14.6425 8.1809 15.6964 9.48102 15.6964Z" fill="#3E4347"/>
<path d="M10.336 11.8777C9.97627 11.7181 9.60095 11.7776 9.49768 12.0104C9.39441 12.2433 9.60229 12.5614 9.96199 12.7209C10.3217 12.8804 10.697 12.821 10.8003 12.5881C10.9035 12.3553 10.6957 12.0372 10.336 11.8777Z" fill="#5A5F63"/>
<path d="M8.8561 21.0448C8.57297 20.7786 8.55985 20.3333 8.8261 20.0511C9.09235 19.7689 9.53672 19.7548 9.81985 20.0211C12.7252 22.7558 17.2758 22.7558 20.1811 20.0211C20.4642 19.7548 20.9086 19.7689 21.1748 20.0511C21.4411 20.3342 21.428 20.7786 21.1449 21.0448C17.6995 24.2886 12.3014 24.2886 8.8561 21.0448Z" fill="#3E4347"/>
</g>
<defs>
<clipPath id="clip0_2_4331">
<rect width="30" height="30" fill="white" transform="translate(0 0.123047)"/>
</clipPath>
</defs>
</svg>
