<svg width="30" height="31" viewBox="0 0 30 31" fill="none" xmlns="http://www.w3.org/2000/svg">
<g clip-path="url(#clip0_2_4286)">
<path d="M15 30.123C23.2843 30.123 30 23.4073 30 15.123C30 6.83878 23.2843 0.123047 15 0.123047C6.71573 0.123047 0 6.83878 0 15.123C0 23.4073 6.71573 30.123 15 30.123Z" fill="#FFD93B"/>
<path d="M15 25.0004C10.9706 25.0004 7.4297 22.4185 6.18939 18.5757C6.07033 18.2063 6.27283 17.8098 6.6422 17.6907C7.01345 17.5707 7.40814 17.7742 7.5272 18.1435C8.58002 21.4032 11.5828 23.5942 15 23.5942C18.4172 23.5942 21.42 21.4042 22.4728 18.1435C22.5919 17.7742 22.9866 17.5707 23.3578 17.6907C23.7272 17.8098 23.9297 18.2063 23.8106 18.5757C22.5703 22.4185 19.0294 25.0004 15 25.0004Z" fill="#3E4347"/>
<path d="M29.9998 15.1238C29.9998 23.4113 23.2826 30.1238 14.9998 30.1238C10.2842 30.1238 6.0748 27.9488 3.32324 24.541C5.89668 26.6223 9.17324 27.8645 12.7404 27.8645C21.0232 27.8645 27.7404 21.152 27.7404 12.8645C27.7404 9.29727 26.4982 6.0207 24.417 3.44727C27.8201 6.19883 29.9998 10.4082 29.9998 15.1238Z" fill="#F4C534"/>
<path d="M12.5062 12.6725C11.8012 11.7106 10.53 11.0713 9.08062 11.0713C7.62469 11.0778 6.35344 11.7172 5.64844 12.6791C5.68125 10.8144 7.20375 9.3125 9.08062 9.3125C10.9444 9.3125 12.4734 10.8078 12.5062 12.6725Z" fill="#3E4347"/>
<path d="M24.3529 12.6725C23.6479 11.7106 22.3767 11.0713 20.9273 11.0713C19.4714 11.0778 18.2001 11.7172 17.4951 12.6791C17.5279 10.8144 19.0504 9.3125 20.9273 9.3125C22.792 9.3125 24.3201 10.8078 24.3529 12.6725Z" fill="#3E4347"/>
</g>
<defs>
<clipPath id="clip0_2_4286">
<rect width="30" height="30" fill="white" transform="translate(0 0.123047)"/>
</clipPath>
</defs>
</svg>
