<svg width="30" height="30" viewBox="0 0 30 30" fill="none" xmlns="http://www.w3.org/2000/svg">
<g clip-path="url(#clip0_2_5395)">
<g opacity="0.1">
<path opacity="0.1" d="M17.869 26.6657C17.4739 26.4915 17.0667 26.5473 16.9595 26.7903C16.8523 27.0333 17.0857 27.3716 17.4809 27.5458C17.876 27.7201 18.2832 27.6643 18.3903 27.4213C18.4975 27.1782 18.2641 26.84 17.869 26.6657Z" fill="white"/>
</g>
<path d="M15 30C23.2843 30 30 23.2843 30 15C30 6.71573 23.2843 0 15 0C6.71573 0 0 6.71573 0 15C0 23.2843 6.71573 30 15 30Z" fill="#FFD93B"/>
<path d="M29.9998 15.0008C29.9998 23.2883 23.2826 30.0008 14.9998 30.0008C10.2842 30.0008 6.0748 27.8258 3.32324 24.418C5.89668 26.4992 9.17324 27.7414 12.7404 27.7414C21.0232 27.7414 27.7404 21.0289 27.7404 12.7414C27.7404 9.17422 26.4982 5.89766 24.417 3.32422C27.8201 6.07578 29.9998 10.2852 29.9998 15.0008Z" fill="#F4C534"/>
<path d="M23.4031 12.2559C21.7306 12.2559 19.7665 11.4965 17.6843 10.8581C17.4518 10.7868 17.2727 10.6012 17.2109 10.3668C17.149 10.1325 17.2118 9.88214 17.3777 9.70495C18.2571 8.76745 19.1365 7.89745 19.9709 6.86527C20.2137 6.56245 20.6571 6.51558 20.959 6.76027C21.2609 7.00495 21.3087 7.44745 21.064 7.74933C20.4668 8.48902 19.7749 9.22683 19.1768 9.85495C19.2199 9.86902 19.2621 9.88214 19.3052 9.8962C20.8681 10.3987 22.3409 10.8665 23.4865 10.8496C23.8662 10.8309 24.1962 11.1496 24.2037 11.5378C24.2121 11.925 23.9412 12.2559 23.4031 12.2559Z" fill="#3E4347"/>
<path d="M6.59574 12.2561C6.05761 12.2561 5.78668 11.9261 5.79511 11.5371C5.80355 11.149 6.1223 10.833 6.5123 10.849C7.66168 10.8668 9.13074 10.398 10.6936 9.89551C10.7357 9.88145 10.7789 9.86833 10.822 9.85426C10.2229 9.22614 9.53105 8.48739 8.93386 7.74864C8.69011 7.44676 8.73699 7.00426 9.03886 6.75958C9.34074 6.51583 9.78418 6.5627 10.0279 6.86458C10.8595 7.89395 11.7417 8.76676 12.6211 9.70426C12.787 9.88145 12.8498 10.1318 12.7879 10.3661C12.7251 10.6005 12.5461 10.7861 12.3145 10.8574C10.2332 11.4968 8.26824 12.2561 6.59574 12.2561Z" fill="#3E4347"/>
<path d="M26.0678 17.1716C25.0507 22.3587 20.4832 26.2681 15.0016 26.2681C9.5116 26.2681 4.93566 22.3456 3.93159 17.1509C3.81159 16.5359 4.36284 15.9931 4.97409 16.1337C11.8225 17.7059 18.505 17.7406 25.0122 16.1553C25.6235 16.0053 26.1869 16.5519 26.0678 17.1716Z" fill="#3E4347"/>
<path d="M26.0678 17.1716C25.0507 22.3587 20.4832 26.2681 15.0016 26.2681C9.5116 26.2681 4.93566 22.3456 3.93159 17.1509C3.81159 16.5359 4.36284 15.9931 4.97409 16.1337C11.8225 17.7059 18.505 17.7406 25.0122 16.1553C25.6235 16.0053 26.1869 16.5519 26.0678 17.1716Z" fill="#3E4347"/>
<path d="M22.8346 18.0508C21.9205 21.5805 19.0564 21.7539 14.983 21.7539C10.9002 21.7539 8.18613 21.4586 7.14551 18.0039C9.86426 18.4914 12.5689 18.7352 15.208 18.7352C17.7721 18.7352 20.3268 18.5055 22.8346 18.0508Z" fill="white"/>
<path d="M15.0022 26.2678C16.7075 26.2678 18.3247 25.8881 19.7741 25.2103C19.5079 24.5793 19.116 24.0149 18.6275 23.5527C17.8879 22.8534 16.8163 22.7277 15.876 23.1056C15.4972 23.2602 15.0679 23.3465 14.5747 23.3465C14.3338 23.3465 14.105 23.324 13.8922 23.2893C12.9004 23.1056 11.8569 23.3981 11.2607 24.2062C10.9982 24.5624 10.7863 24.9571 10.626 25.3753C11.9741 25.9443 13.4488 26.2678 15.0022 26.2678Z" fill="#E24B4B"/>
</g>
<defs>
<clipPath id="clip0_2_5395">
<rect width="30" height="30" fill="white"/>
</clipPath>
</defs>
</svg>
