<svg width="30" height="30" viewBox="0 0 30 30" fill="none" xmlns="http://www.w3.org/2000/svg">
<g clip-path="url(#clip0_2_5611)">
<path d="M15 30C23.2843 30 30 23.2843 30 15C30 6.71573 23.2843 0 15 0C6.71573 0 0 6.71573 0 15C0 23.2843 6.71573 30 15 30Z" fill="#FFD93B"/>
<path d="M29.9285 15.0008C29.9285 23.2883 23.2113 30.0008 14.9285 30.0008C10.2129 30.0008 6.00352 27.8258 3.25195 24.418C5.82539 26.4992 9.10195 27.7414 12.6691 27.7414C20.952 27.7414 27.6691 21.0289 27.6691 12.7414C27.6691 9.17422 26.427 5.89766 24.3457 3.32422C27.7488 6.07578 29.9285 10.2852 29.9285 15.0008Z" fill="#F4C534"/>
<path d="M14.9997 17.0603C18.6924 17.0603 21.686 14.0685 21.686 10.3778C21.686 6.68717 18.6924 3.69531 14.9997 3.69531C11.307 3.69531 8.31348 6.68717 8.31348 10.3778C8.31348 14.0685 11.307 17.0603 14.9997 17.0603Z" fill="white"/>
<path d="M15.0003 14.3206C17.1708 14.3206 18.9303 12.5594 18.9303 10.3869C18.9303 8.21432 17.1708 6.45312 15.0003 6.45312C12.8298 6.45312 11.0703 8.21432 11.0703 10.3869C11.0703 12.5594 12.8298 14.3206 15.0003 14.3206Z" fill="#3E4347"/>
<path d="M17.1895 8.34512C16.7743 7.92986 16.2106 7.8203 15.9304 8.1004C15.6503 8.3805 15.7598 8.94419 16.175 9.35944C16.5902 9.7747 17.1539 9.88426 17.434 9.60416C17.7141 9.32406 17.6046 8.76037 17.1895 8.34512Z" fill="white"/>
<path d="M23.7194 20.7881C22.3094 24.2203 18.9391 26.6334 15.0007 26.6334C11.0622 26.6334 7.6919 24.2213 6.27347 20.7881C6.14034 20.4694 6.36253 20.0963 6.70847 20.0259C12.2341 18.9966 17.7691 18.9966 23.2853 20.0259C23.6303 20.0963 23.8525 20.4684 23.7194 20.7881Z" fill="#3E4347"/>
<path d="M6.90918 19.9907C7.95543 21.6942 11.2311 21.877 15.1395 21.877C18.9964 21.877 22.2786 21.6942 23.3698 20.0611C23.3407 20.0498 23.3164 20.0292 23.2854 20.0226C17.8348 19.0073 12.3682 18.9989 6.90918 19.9907Z" fill="white"/>
</g>
<defs>
<clipPath id="clip0_2_5611">
<rect width="30" height="30" fill="white"/>
</clipPath>
</defs>
</svg>
