<svg width="30" height="30" viewBox="0 0 30 30" fill="none" xmlns="http://www.w3.org/2000/svg">
<g clip-path="url(#clip0_2_4782)">
<path d="M15 30C23.2843 30 30 23.2843 30 15C30 6.71573 23.2843 0 15 0C6.71573 0 0 6.71573 0 15C0 23.2843 6.71573 30 15 30Z" fill="#FFD93B"/>
<path d="M29.9998 15.0008C29.9998 23.2883 23.2826 30.0008 14.9998 30.0008C10.2842 30.0008 6.0748 27.8258 3.32324 24.418C5.89668 26.4992 9.17324 27.7414 12.7404 27.7414C21.0232 27.7414 27.7404 21.0289 27.7404 12.7414C27.7404 9.17422 26.4982 5.89766 24.417 3.32422C27.8201 6.07578 29.9998 10.2852 29.9998 15.0008Z" fill="#F4C534"/>
<path d="M12.2207 12.0566C12.2207 13.7873 11.2363 15.1823 10.0204 15.1823C8.79883 15.1823 7.81445 13.7873 7.81445 12.0566C7.81445 10.3344 8.79883 8.93945 10.0204 8.93945C11.2363 8.93945 12.2207 10.3335 12.2207 12.0566Z" fill="#3E4347"/>
<path d="M10.9385 10.3059C10.748 10.0992 10.466 10.049 10.3088 10.1939C10.1515 10.3388 10.1784 10.6239 10.3689 10.8307C10.5594 11.0374 10.8414 11.0876 10.9986 10.9427C11.1559 10.7978 11.129 10.5127 10.9385 10.3059Z" fill="#5A5F63"/>
<path d="M22.1855 12.0566C22.1855 13.7873 21.2012 15.1823 19.9852 15.1823C18.7637 15.1823 17.7793 13.7873 17.7793 12.0566C17.7793 10.3344 18.7637 8.93945 19.9852 8.93945C21.2012 8.93945 22.1855 10.3335 22.1855 12.0566Z" fill="#3E4347"/>
<path d="M20.9029 10.3086C20.7127 10.1023 20.4311 10.0524 20.2739 10.1973C20.1166 10.3422 20.1433 10.627 20.3334 10.8334C20.5236 11.0397 20.8052 11.0896 20.9625 10.9447C21.1197 10.7998 21.0931 10.515 20.9029 10.3086Z" fill="#5A5F63"/>
<path d="M7.51772 23.3746C7.56178 19.9715 10.469 16.6528 14.9961 16.6621C19.5308 16.6518 22.438 19.9715 22.4811 23.3746C22.4896 23.729 22.1155 24.0534 21.7743 24.0009C17.3296 23.3249 12.6693 23.3249 8.22459 24.0009C7.88334 24.0534 7.50928 23.729 7.51772 23.3746Z" fill="#3E4347"/>
<path d="M14.9971 18.0957C18.2764 18.0864 20.7927 20.2164 21.3318 22.8714C17.1646 22.2967 12.8352 22.2967 8.66895 22.8714C9.20613 20.2164 11.7205 18.0864 14.9971 18.0957Z" fill="white"/>
<path d="M10.8928 18.9453L11.6409 23.1378L11.5434 23.1491C11.4403 23.1547 11.3325 23.1659 11.2247 23.1763L11.1384 23.1819L10.3125 19.0025L10.4109 18.9959C10.5441 18.9828 10.6716 18.9706 10.8 18.9575L10.8928 18.9453Z" fill="#3E4347"/>
<path d="M16.7284 17.8732H16.8296L16.4574 23.0266L15.9512 23.0154L16.223 17.8535L16.3243 17.8601C16.4612 17.8591 16.5915 17.8666 16.7284 17.8732Z" fill="#3E4347"/>
<path d="M19.71 18.8502L18.855 23.1823L18.7632 23.1767C18.661 23.1655 18.5522 23.1542 18.45 23.1495L18.3525 23.1383L19.1288 18.793L19.2225 18.7995C19.35 18.8127 19.4785 18.8248 19.6125 18.838L19.71 18.8502Z" fill="#3E4347"/>
<path d="M13.7704 17.8535L14.0432 23.0154L13.537 23.0266L13.1592 17.8732H13.2661C13.4029 17.8666 13.5332 17.8601 13.6701 17.8601L13.7704 17.8535Z" fill="#3E4347"/>
<path d="M21.0389 20.5007L20.8767 21.0885L20.7867 21.0829C16.9242 20.5794 12.9605 20.586 9.09984 21.0951L9.01078 21.1073L8.84766 20.5194L8.94797 20.5016C12.9042 19.9757 16.973 19.9701 20.9311 20.4894L21.0389 20.5007Z" fill="#3E4347"/>
</g>
<defs>
<clipPath id="clip0_2_4782">
<rect width="30" height="30" fill="white"/>
</clipPath>
</defs>
</svg>
