<svg width="30" height="30" viewBox="0 0 30 30" fill="none" xmlns="http://www.w3.org/2000/svg">
<g clip-path="url(#clip0_2_4315)">
<path d="M15.0002 29.4593C23.1011 29.4593 29.6683 22.8922 29.6683 14.7912C29.6683 6.69019 23.1011 0.123047 15.0002 0.123047C6.89917 0.123047 0.332031 6.69019 0.332031 14.7912C0.332031 22.8922 6.89917 29.4593 15.0002 29.4593Z" fill="#FFD93B"/>
<path d="M29.668 14.7909C29.668 22.8946 23.0998 29.459 14.9998 29.459C10.3883 29.459 6.27266 27.3318 3.58203 23.9999C6.09828 26.0352 9.30266 27.2502 12.7911 27.2502C20.8911 27.2502 27.4592 20.6859 27.4592 12.5821C27.4592 9.09367 26.2442 5.8893 24.2089 3.37305C27.5361 6.06367 29.668 10.1793 29.668 14.7909Z" fill="#F4C534"/>
<path d="M21.4781 25.0062C17.1571 24.2337 12.8437 24.2337 8.52275 25.0062C7.63963 25.1591 6.96932 24.2084 7.42775 23.4359C9.27838 20.3206 11.9868 18.3594 15.0009 18.3594C18.0149 18.3594 20.7224 20.3206 22.574 23.4359C23.0324 24.2084 22.3612 25.1591 21.4781 25.0062Z" fill="#3E4347"/>
<path d="M11.0671 19.9219C11.0662 20.0109 11.0615 20.0981 11.0615 20.1881C11.0615 25.6753 12.825 30.1228 15.0009 30.1228C17.1768 30.1228 18.9403 25.6744 18.9403 20.1881C18.9403 20.0981 18.9356 20.0119 18.9346 19.9219H11.0671Z" fill="#E24B4B"/>
<path d="M9.90918 20.4097C11.4279 20.4969 13.1604 20.5231 15.0017 20.5231C16.8429 20.5231 18.5754 20.4969 20.0942 20.4097C18.5979 19.1094 16.8589 18.3594 15.0017 18.3594C13.1445 18.3594 11.4054 19.1094 9.90918 20.4097Z" fill="white"/>
<path d="M24.4786 11.1377C24.1796 11.4171 23.7661 11.3964 23.5074 11.1377C22.1602 9.80832 20.5458 9.28613 18.5564 9.52426C18.1805 9.56082 17.8318 9.29551 17.7952 8.91957C17.7493 8.54363 18.0155 8.20426 18.3914 8.15832C20.7839 7.86488 22.838 8.54363 24.4786 10.1664C24.7449 10.4318 24.7449 10.863 24.4786 11.1377Z" fill="#3E4347"/>
<path d="M12.0942 13.2827L11.0029 14.3646L12.0942 15.4559C12.4054 15.768 12.4054 16.2715 12.0942 16.5837C11.7426 16.9155 11.2617 16.8884 10.957 16.5837L9.87512 15.5018L8.7848 16.5837C8.46043 16.9071 7.96918 16.8959 7.65699 16.5837C7.3448 16.2715 7.3448 15.768 7.65699 15.4559L8.73887 14.3646L7.65699 13.2827C7.3448 12.9715 7.3448 12.4671 7.65699 12.1455C7.96918 11.8343 8.47262 11.8343 8.7848 12.1455L9.87606 13.2368L10.9579 12.1455C11.2701 11.8343 11.7736 11.8343 12.0951 12.1455C12.4064 12.4671 12.4064 12.9715 12.0942 13.2827Z" fill="#3E4347"/>
<path d="M6.49219 11.1383C6.21375 11.4168 5.77969 11.3971 5.52 11.1383C5.25375 10.8636 5.25375 10.4324 5.52 10.1661C7.16062 8.54333 9.21469 7.86551 11.6072 8.15801C11.9831 8.20395 12.2494 8.54333 12.2034 8.91927C12.1575 9.2952 11.8097 9.56145 11.4422 9.52395C9.45375 9.28677 7.83094 9.80895 6.49219 11.1383Z" fill="#3E4347"/>
<path d="M22.3434 13.2827L21.2616 14.3646L22.3434 15.4559C22.6547 15.768 22.6547 16.2715 22.3434 16.5837C22.0209 16.9062 21.5203 16.8968 21.2063 16.5837L20.1244 15.5018L19.0425 16.5837C18.7191 16.9071 18.2184 16.8959 17.9053 16.5837C17.5941 16.2715 17.5941 15.768 17.9053 15.4559L18.9872 14.3646L17.9062 13.2827C17.595 12.9715 17.595 12.4671 17.9062 12.1455C18.2184 11.8343 18.7312 11.8343 19.0434 12.1455L20.1253 13.2274L21.2072 12.1455C21.5184 11.8343 22.0322 11.8343 22.3444 12.1455C22.6547 12.4671 22.6547 12.9715 22.3434 13.2827Z" fill="#3E4347"/>
</g>
<defs>
<clipPath id="clip0_2_4315">
<rect width="30" height="30" fill="white" transform="translate(0 0.123047)"/>
</clipPath>
</defs>
</svg>
