<svg width="30" height="31" viewBox="0 0 30 31" fill="none" xmlns="http://www.w3.org/2000/svg">
<g clip-path="url(#clip0_2_5366)">
<path d="M15 30.123C23.2843 30.123 30 23.4073 30 15.123C30 6.83878 23.2843 0.123047 15 0.123047C6.71573 0.123047 0 6.83878 0 15.123C0 23.4073 6.71573 30.123 15 30.123Z" fill="#FFD93B"/>
<path d="M29.9998 15.1238C29.9998 23.4113 23.2826 30.1238 14.9998 30.1238C10.2842 30.1238 6.0748 27.9488 3.32324 24.541C5.89668 26.6223 9.17324 27.8645 12.7404 27.8645C21.0232 27.8645 27.7404 21.152 27.7404 12.8645C27.7404 9.29727 26.4982 6.0207 24.417 3.44727C27.8201 6.19883 29.9998 10.4082 29.9998 15.1238Z" fill="#F4C534"/>
<path d="M19.4634 20.3047C17.8575 21.3322 15.8212 21.9406 13.9688 21.9519C14.1544 22.5237 14.2941 23.1106 14.3794 23.7088C14.6212 25.2509 15.5128 26.93 17.0831 27.2262C18.6319 27.5328 20.7141 25.9231 20.07 22.8978C19.8844 22.0259 19.7344 21.1503 19.4634 20.3047Z" fill="#E24B4B"/>
<path d="M21.0412 18.4609C20.8518 18.4609 20.6746 18.5406 20.5406 18.6737C19.1043 20.11 17.1346 20.9687 15.0009 20.9687C12.8662 20.9687 10.8974 20.11 9.46024 18.6737C9.32618 18.5397 9.14899 18.4609 8.95962 18.4609C8.32681 18.4609 8.01931 19.225 8.46649 19.6731C10.1596 21.3662 12.4837 22.3759 15.0009 22.3759C17.5171 22.3759 19.8412 21.3672 21.5353 19.6731C21.9815 19.225 21.6731 18.4609 21.0412 18.4609Z" fill="#3E4347"/>
<g opacity="0.2">
<path opacity="0.2" d="M19.0138 24.6418C18.7429 24.504 18.3474 24.738 18.1305 25.1644C17.9136 25.5908 17.9574 26.0482 18.2283 26.186C18.4992 26.3238 18.8946 26.0899 19.1115 25.6635C19.3284 25.237 19.2847 24.7797 19.0138 24.6418Z" fill="white"/>
</g>
<path d="M12.7133 12.9459C12.0083 11.9841 10.737 11.3447 9.28765 11.3447C7.83172 11.3513 6.56047 11.9906 5.85547 12.9525C5.88828 11.0878 7.41078 9.58594 9.28765 9.58594C11.1514 9.58594 12.6805 11.0813 12.7133 12.9459Z" fill="#3E4347"/>
<path d="M24.1449 12.9459C23.4399 11.9841 22.1687 11.3447 20.7193 11.3447C19.2634 11.3513 17.9921 11.9906 17.2871 12.9525C17.3199 11.0878 18.8424 9.58594 20.7193 9.58594C22.583 9.58594 24.1121 11.0813 24.1449 12.9459Z" fill="#3E4347"/>
</g>
<defs>
<clipPath id="clip0_2_5366">
<rect width="30" height="30" fill="white" transform="translate(0 0.123047)"/>
</clipPath>
</defs>
</svg>
