<svg width="30" height="30" viewBox="0 0 30 30" fill="none" xmlns="http://www.w3.org/2000/svg">
<g clip-path="url(#clip0_2_4801)">
<path d="M15 30C23.2843 30 30 23.2843 30 15C30 6.71573 23.2843 0 15 0C6.71573 0 0 6.71573 0 15C0 23.2843 6.71573 30 15 30Z" fill="#FFD93B"/>
<path d="M29.9998 15.0008C29.9998 23.2883 23.2826 30.0008 14.9998 30.0008C10.2842 30.0008 6.0748 27.8258 3.32324 24.418C5.89668 26.4992 9.17324 27.7414 12.7404 27.7414C21.0232 27.7414 27.7404 21.0289 27.7404 12.7414C27.7404 9.17422 26.4982 5.89766 24.417 3.32422C27.8201 6.07578 29.9998 10.2852 29.9998 15.0008Z" fill="#F4C534"/>
<path d="M19.3635 25.5728C17.8925 25.8297 16.686 24.7928 16.2388 23.3632C15.5225 21.0757 12.3022 20.6688 12.0557 19.4107C12.201 17.8891 21.5788 18.836 21.5788 22.4482C21.83 23.9191 20.84 25.3216 19.3635 25.5728Z" fill="#3E4347"/>
<path d="M25.4846 6.62703C25.4846 5.75516 23.9049 3.32422 23.9049 3.32422C23.9049 3.32422 22.3252 5.75422 22.3252 6.62703C22.3252 7.49984 23.0321 8.20672 23.9049 8.20672C24.7777 8.20578 25.4846 7.49891 25.4846 6.62703Z" fill="#45CBEA"/>
<g opacity="0.2">
<path opacity="0.2" d="M24.8089 7.40962C24.6458 7.59993 24.4208 7.6665 24.2961 7.56243C24.1704 7.45837 24.2004 7.21931 24.3542 7.029C24.5126 6.84337 24.7423 6.77212 24.867 6.87618C24.9926 6.98493 24.9626 7.21931 24.8089 7.40962Z" fill="white"/>
</g>
<path d="M29.2237 12.8538C29.2237 11.605 26.9624 8.125 26.9624 8.125C26.9624 8.125 24.7012 11.605 24.7012 12.8538C24.7012 14.1025 25.7137 15.115 26.9624 15.115C28.2112 15.115 29.2237 14.1034 29.2237 12.8538Z" fill="#45CBEA"/>
<g opacity="0.2">
<path opacity="0.2" d="M28.255 13.9759C28.0215 14.2487 27.7 14.3443 27.5209 14.1943C27.3418 14.0453 27.384 13.7021 27.6043 13.4303C27.8312 13.1649 28.1593 13.0618 28.3384 13.2118C28.5184 13.3674 28.4762 13.704 28.255 13.9759Z" fill="white"/>
</g>
<path d="M6.87908 15.784C6.66064 15.5168 6.70096 15.123 6.96814 14.9046C8.04721 14.0243 9.36346 13.4102 10.7838 13.1121C9.82846 12.5608 8.76065 12.1671 7.63002 11.9543C7.29064 11.8905 7.06752 11.5633 7.13127 11.224C7.19596 10.8846 7.52033 10.6633 7.86158 10.7252C9.74502 11.0805 11.4803 11.8858 12.88 13.0549C13.0788 13.2208 13.1547 13.4927 13.0703 13.7383C12.986 13.983 12.7591 14.1508 12.5003 14.1602C10.7247 14.2193 9.04096 14.8277 7.75846 15.874C7.49221 16.0905 7.09752 16.0521 6.87908 15.784Z" fill="#3E4347"/>
<path d="M7.7116 9.72657C7.40973 9.72657 7.16504 9.48188 7.16504 9.18001C7.16504 8.87813 7.40973 8.63251 7.7116 8.63251C8.94535 8.63157 11.1447 8.32407 12.0063 6.27094C12.1235 5.9925 12.4422 5.86125 12.7225 5.97844C13.001 6.09563 13.1322 6.41532 13.015 6.69469C11.8666 9.42845 8.92379 9.72563 7.7116 9.72657Z" fill="#3E4347"/>
<path d="M23.1208 15.784C23.3392 15.5168 23.2989 15.123 23.0317 14.9046C21.9527 14.0243 20.6364 13.4102 19.2161 13.1121C20.1714 12.5608 21.2392 12.1671 22.3698 11.9543C22.7092 11.8905 22.9323 11.5633 22.8686 11.224C22.8039 10.8846 22.4795 10.6633 22.1383 10.7252C20.2548 11.0805 18.5195 11.8858 17.1198 13.0549C16.9211 13.2208 16.8452 13.4927 16.9295 13.7383C17.0139 13.983 17.2408 14.1508 17.4995 14.1602C19.2752 14.2193 20.9589 14.8277 22.2414 15.874C22.5077 16.0905 22.9023 16.0521 23.1208 15.784Z" fill="#3E4347"/>
<path d="M22.2877 9.72657C22.5896 9.72657 22.8343 9.48188 22.8343 9.18001C22.8343 8.87813 22.5896 8.63251 22.2877 8.63251C21.054 8.63157 18.8546 8.32407 17.993 6.27094C17.8759 5.9925 17.5571 5.86125 17.2768 5.97844C16.9984 6.09563 16.8671 6.41532 16.9843 6.69469C18.1327 9.42845 21.0755 9.72563 22.2877 9.72657Z" fill="#3E4347"/>
</g>
<defs>
<clipPath id="clip0_2_4801">
<rect width="30" height="30" fill="white"/>
</clipPath>
</defs>
</svg>
