<svg width="30" height="31" viewBox="0 0 30 31" fill="none" xmlns="http://www.w3.org/2000/svg">
<g clip-path="url(#clip0_2_5226)">
<path d="M15 30.123C23.2843 30.123 30 23.4073 30 15.123C30 6.83878 23.2843 0.123047 15 0.123047C6.71573 0.123047 0 6.83878 0 15.123C0 23.4073 6.71573 30.123 15 30.123Z" fill="#FFD93B"/>
<path d="M29.9998 15.1238C29.9998 23.4113 23.2826 30.1238 14.9998 30.1238C10.2842 30.1238 6.0748 27.9488 3.32324 24.541C5.89668 26.6223 9.17324 27.8645 12.7404 27.8645C21.0232 27.8645 27.7404 21.152 27.7404 12.8645C27.7404 9.29727 26.4982 6.0207 24.417 3.44727C27.8201 6.19883 29.9998 10.4082 29.9998 15.1238Z" fill="#F4C534"/>
<path d="M23.2569 13.0927C19.1329 13.0927 16.9063 10.6195 16.8135 10.5145C16.5988 10.2717 16.6232 9.90141 16.866 9.68766C17.1088 9.47391 17.4763 9.49641 17.692 9.73829C17.7116 9.75985 19.6823 11.9208 23.2579 11.9208C23.5813 11.9208 23.8438 12.1833 23.8438 12.5067C23.8438 12.8302 23.5804 13.0927 23.2569 13.0927Z" fill="#3E4347"/>
<path d="M12.367 17.0293C10.2361 18.3606 7.41793 18.9184 5.26074 18.6699C6.3848 18.2031 8.79324 17.4577 11.017 16.2887C10.1939 15.848 8.96949 14.904 8.99199 13.9824C10.0776 15.4927 15.0436 15.3559 12.367 17.0293Z" fill="#3E4347"/>
<path d="M24.2634 18.6699C20.7412 19.0758 15.6131 17.0462 16.5853 15.8199C16.7437 15.608 18.4837 15.1252 18.8165 15.0043C19.349 14.7943 20.1993 14.4455 20.5321 13.9824C20.5546 14.9059 19.3312 15.8471 18.5071 16.2887C20.2556 17.2599 23.3259 18.2808 24.2634 18.6699Z" fill="#3E4347"/>
<path d="M6.26562 13.092C5.94219 13.092 5.67969 12.8295 5.67969 12.5061C5.67969 12.1826 5.94219 11.9201 6.26562 11.9201C9.84031 11.9201 11.8119 9.75918 11.8316 9.73762C12.0472 9.49574 12.4166 9.47418 12.6584 9.68887C12.9003 9.90355 12.9228 10.272 12.71 10.5139C12.6172 10.6179 10.3906 13.092 6.26562 13.092Z" fill="#3E4347"/>
<path d="M19.2792 22.9289C19.2792 23.5317 18.7973 24.0136 18.1945 24.0136H11.7951C11.2036 24.0136 10.7217 23.5317 10.7217 22.9289C10.7217 22.3373 11.2036 21.8555 11.7951 21.8555H18.1945C18.7973 21.8555 19.2792 22.3373 19.2792 22.9289Z" fill="#3E4347"/>
</g>
<defs>
<clipPath id="clip0_2_5226">
<rect width="30" height="30" fill="white" transform="translate(0 0.123047)"/>
</clipPath>
</defs>
</svg>
