<svg width="30" height="30" viewBox="0 0 30 30" fill="none" xmlns="http://www.w3.org/2000/svg">
<g clip-path="url(#clip0_2_5574)">
<path d="M15 30C23.2843 30 30 23.2843 30 15C30 6.71573 23.2843 0 15 0C6.71573 0 0 6.71573 0 15C0 23.2843 6.71573 30 15 30Z" fill="#FFD93B"/>
<path d="M29.9998 15.0008C29.9998 23.2883 23.2826 30.0008 14.9998 30.0008C10.2842 30.0008 6.0748 27.8258 3.32324 24.418C5.89668 26.4992 9.17324 27.7414 12.7404 27.7414C21.0232 27.7414 27.7404 21.0289 27.7404 12.7414C27.7404 9.17422 26.4982 5.89766 24.417 3.32422C27.8201 6.07578 29.9998 10.2852 29.9998 15.0008Z" fill="#F4C534"/>
<path d="M8.98659 20.2199C9.55284 20.0427 11.5516 22.092 14.8553 21.9749C18.1582 22.093 20.3041 20.0436 20.8704 20.2208C21.6972 20.2911 19.9938 24.0655 14.9257 24.0786C9.85847 24.0655 8.15972 20.2911 8.98659 20.2199Z" fill="#3E4347"/>
<path d="M23.1677 11.2672C21.3461 8.8738 18.8842 9.23568 18.4098 9.33318C18.0695 9.40162 17.7414 9.18318 17.673 8.84568C17.6036 8.50724 17.823 8.17724 18.1605 8.1088C19.9061 7.75349 22.4008 8.19693 24.1633 10.5107C24.3723 10.7854 24.3189 11.1772 24.0442 11.3872C23.7686 11.5954 23.3758 11.541 23.1677 11.2672Z" fill="#E9B02C"/>
<path d="M19.8366 15.7239C18.4922 15.7239 17.3007 14.8586 16.8704 13.5705C16.7607 13.2433 16.9379 12.8889 17.266 12.7802C17.5932 12.6714 17.9476 12.8477 18.0563 13.1758C18.3151 13.952 19.0304 14.4742 19.8366 14.4742C20.6429 14.4742 21.3572 13.952 21.6169 13.1758C21.7266 12.8486 22.081 12.6733 22.4072 12.7802C22.7344 12.8899 22.9116 13.2433 22.8029 13.5705C22.3726 14.8586 21.181 15.7239 19.8366 15.7239Z" fill="#3E4347"/>
<path d="M5.95664 11.3869C5.68195 11.1778 5.62851 10.7859 5.83757 10.5112C7.59914 8.19656 10.092 7.75406 11.8395 8.10844C12.1779 8.17781 12.3963 8.50781 12.327 8.84531C12.2576 9.18375 11.9276 9.40125 11.5901 9.33281C11.1148 9.23625 8.65289 8.87437 6.83226 11.2669C6.6232 11.5434 6.23039 11.595 5.95664 11.3869Z" fill="#E9B02C"/>
<path d="M10.1638 15.7245C8.81943 15.7245 7.62787 14.8592 7.19849 13.5711C7.0888 13.2439 7.26599 12.8895 7.59412 12.7808C7.92224 12.6702 8.27568 12.8492 8.38443 13.1764C8.64318 13.9527 9.35849 14.4749 10.1638 14.4749C10.9691 14.4749 11.6844 13.9527 11.9441 13.1764C12.0538 12.8492 12.4082 12.6739 12.7344 12.7808C13.0616 12.8905 13.2388 13.2439 13.1301 13.5711C12.7007 14.8592 11.5082 15.7245 10.1638 15.7245Z" fill="#3E4347"/>
</g>
<defs>
<clipPath id="clip0_2_5574">
<rect width="30" height="30" fill="white"/>
</clipPath>
</defs>
</svg>
