<svg width="30" height="30" viewBox="0 0 30 30" fill="none" xmlns="http://www.w3.org/2000/svg">
<g clip-path="url(#clip0_2_4571)">
<path d="M14.9974 28.1432C22.7689 28.1432 29.069 21.8431 29.069 14.0716C29.069 6.30007 22.7689 0 14.9974 0C7.22585 0 0.925781 6.30007 0.925781 14.0716C0.925781 21.8431 7.22585 28.1432 14.9974 28.1432Z" fill="#FFD93B"/>
<path d="M29.0737 14.0755C29.0737 21.8519 22.77 28.1508 14.9983 28.1508C10.5734 28.1508 6.62284 26.1099 4.04102 22.9122C6.45597 24.865 9.53091 26.0312 12.8777 26.0312C20.6504 26.0312 26.9531 19.7323 26.9531 11.9558C26.9531 8.6081 25.7878 5.53409 23.8341 3.11914C27.029 5.70097 29.0737 9.65058 29.0737 14.0755Z" fill="#F4C534"/>
<path d="M10.5215 14.5585C12.3849 14.5585 13.8955 13.048 13.8955 11.1845C13.8955 9.32114 12.3849 7.81055 10.5215 7.81055C8.65805 7.81055 7.14746 9.32114 7.14746 11.1845C7.14746 13.048 8.65805 14.5585 10.5215 14.5585Z" fill="white"/>
<path d="M10.5209 13.0262C11.5378 13.0262 12.3621 12.2018 12.3621 11.185C12.3621 10.1681 11.5378 9.34375 10.5209 9.34375C9.50403 9.34375 8.67969 10.1681 8.67969 11.185C8.67969 12.2018 9.50403 13.0262 10.5209 13.0262Z" fill="#3E4347"/>
<path d="M11.5557 10.2631C11.4132 10.0768 11.1893 10.0088 11.0557 10.1111C10.9221 10.2134 10.9293 10.4473 11.0719 10.6335C11.2145 10.8197 11.4384 10.8878 11.572 10.7855C11.7056 10.6832 11.6983 10.4493 11.5557 10.2631Z" fill="#5A5F63"/>
<path d="M22.3189 11.2692C22.3189 11.6508 22.0124 11.9564 21.6317 11.9564H17.444C17.0625 11.9564 16.7568 11.6498 16.7568 11.2692C16.7568 10.8942 17.0634 10.582 17.444 10.582H21.6317C22.0133 10.582 22.3189 10.8942 22.3189 11.2692Z" fill="#3E4347"/>
<path d="M21.7065 17.4187C22.9252 17.984 21.0802 23.6792 15.0278 23.727C8.97545 23.6801 7.13049 17.984 8.34921 17.4187C9.39076 16.7484 11.9135 18.4958 15.0278 18.5183C18.1693 18.5427 20.6659 16.7484 21.7065 17.4187Z" fill="#3E4347"/>
<path d="M17.8304 21.3065C17.1555 21.1555 16.4167 21.5005 15.7361 21.7377C15.2786 21.9149 14.6927 21.9824 14.0571 21.8474C14.0458 21.8446 14.0336 21.8427 14.0224 21.8399C12.9265 21.5671 11.5015 21.2502 11.209 22.2646C11.2081 22.2721 11.2062 22.2786 11.2053 22.2861C10.9596 23.6146 11.3318 25.2102 11.6796 26.7955C12.1465 28.5036 13.279 29.8545 14.7461 29.9867C16.4589 30.1498 17.8314 28.841 18.3479 26.9323C18.7032 25.302 19.1054 23.653 18.8523 22.2861C18.7557 21.7546 18.3226 21.4302 17.8304 21.3065Z" fill="#E24B4B"/>
<g opacity="0.2">
<path opacity="0.2" d="M17.9437 22.0216C17.6833 21.8561 17.3956 21.8423 17.3012 21.9909C17.2067 22.1394 17.3413 22.3941 17.6017 22.5596C17.8621 22.7252 18.1498 22.7389 18.2443 22.5904C18.3387 22.4418 18.2042 22.1872 17.9437 22.0216Z" fill="white"/>
</g>
</g>
<defs>
<clipPath id="clip0_2_4571">
<rect width="30" height="30" fill="white"/>
</clipPath>
</defs>
</svg>
