<svg width="30" height="30" viewBox="0 0 30 30" fill="none" xmlns="http://www.w3.org/2000/svg">
<g clip-path="url(#clip0_2_4587)">
<path d="M28.7575 12.345C29.8881 21.4135 22.2606 29.0279 13.1958 27.8851C7.01674 27.106 2.02641 22.1166 1.24453 15.9375C0.0960903 6.85873 7.73956 -0.780049 16.8193 0.375893C23.0002 1.16246 27.9868 6.16123 28.7575 12.345Z" fill="#FFD93B"/>
<path d="M23.6048 19.3202C21.1111 22.1458 17.4539 23.7555 13.447 23.2136C10.7001 22.8293 8.23257 21.4118 6.39506 19.338C6.06225 18.9527 6.41287 18.3143 6.876 18.4718C12.2826 20.3524 17.6985 20.3618 23.1229 18.4718C23.5786 18.3227 23.9367 18.9443 23.6048 19.3202Z" fill="#3E4347"/>
<path d="M28.776 15.7586C28.0523 22.0915 22.9288 27.2028 16.5932 27.9087C11.5963 28.4656 7.05407 26.3656 4.20312 22.8359C6.95845 25.0643 10.5866 26.2531 14.4932 25.8209C20.8504 25.1187 25.9898 19.9802 26.692 13.6221C27.1232 9.71456 25.9354 6.08735 23.707 3.33203C27.2423 6.1886 29.3488 10.7467 28.776 15.7586Z" fill="#F4C534"/>
<path d="M17.6553 0.807061C17.6553 0.807061 21.664 1.02362 23.9131 5.05958C23.9122 5.05958 22.1515 -2.41701 17.6553 0.807061Z" fill="#3E4347"/>
<path d="M12.3448 0.807061C12.3448 0.807061 8.33599 1.02362 6.08691 5.05958C6.08785 5.05958 7.84848 -2.41701 12.3448 0.807061Z" fill="#3E4347"/>
<path d="M19.4864 21.8725C19.1029 26.5319 16.9607 29.9978 14.9939 29.9997C13.027 29.9988 10.8848 26.5319 10.5098 21.8725C10.5116 20.9388 11.4623 20.4241 12.3248 20.6941C14.0723 21.2134 15.9257 21.2097 17.6732 20.6941C18.5348 20.4147 19.4751 20.9406 19.4864 21.8725Z" fill="#E24B4B"/>
<path d="M1.49899 12.0207C2.54899 14.5417 7.37057 15.7117 9.07308 16.0482C9.44714 16.1195 9.81652 15.9676 10.0256 15.6526C10.9893 14.1986 13.5572 9.94979 12.5062 7.42979C12.0843 6.43791 11.2153 5.77697 10.2337 5.5876C9.65433 5.47228 9.03933 5.52572 8.4562 5.76853C7.24964 6.27291 6.53901 7.44948 6.56432 8.67948C5.70182 7.80198 4.35931 7.47573 3.15274 7.9801C2.37368 8.31104 1.79055 8.92135 1.4943 9.65729C1.18774 10.3867 1.16617 11.2332 1.49899 12.0207Z" fill="#E24B4B"/>
<path d="M28.5014 12.0207C27.4514 14.5417 22.6298 15.7117 20.9273 16.0482C20.5533 16.1195 20.1839 15.9676 19.9748 15.6526C19.0111 14.1986 16.4433 9.94979 17.4942 7.42979C17.9161 6.43791 18.7851 5.77697 19.7667 5.5876C20.347 5.47228 20.962 5.52572 21.5452 5.76853C22.7517 6.27291 23.4623 7.44854 23.437 8.67854C24.2995 7.80104 25.642 7.47479 26.8486 7.97916C27.6267 8.3101 28.2108 8.92042 28.507 9.65636C28.8127 10.3867 28.8342 11.2332 28.5014 12.0207Z" fill="#E24B4B"/>
</g>
<defs>
<clipPath id="clip0_2_4587">
<rect width="30" height="30" fill="white"/>
</clipPath>
</defs>
</svg>
