<svg width="30" height="31" viewBox="0 0 30 31" fill="none" xmlns="http://www.w3.org/2000/svg">
<g clip-path="url(#clip0_2_4372)">
<path d="M15 30.123C23.2843 30.123 30 23.4073 30 15.123C30 6.83878 23.2843 0.123047 15 0.123047C6.71573 0.123047 0 6.83878 0 15.123C0 23.4073 6.71573 30.123 15 30.123Z" fill="#FFD93B"/>
<path d="M29.9998 15.1238C29.9998 23.4113 23.2826 30.1238 14.9998 30.1238C10.2842 30.1238 6.0748 27.9488 3.32324 24.541C5.89668 26.6223 9.17324 27.8645 12.7404 27.8645C21.0232 27.8645 27.7404 21.152 27.7404 12.8645C27.7404 9.29727 26.4982 6.0207 24.417 3.44727C27.8201 6.19883 29.9998 10.4082 29.9998 15.1238Z" fill="#F4C534"/>
<path d="M21.7121 20.302C21.7121 20.7529 21.3474 21.1176 20.8965 21.1176H9.10176C8.65551 21.1176 8.28613 20.7529 8.28613 20.302C8.28613 19.851 8.65551 19.4863 9.10176 19.4863H20.8965C21.3483 19.4873 21.7121 19.851 21.7121 20.302Z" fill="#3E4347"/>
<path d="M10.2252 14.4915C11.4596 14.4915 12.4602 13.4908 12.4602 12.2565C12.4602 11.0221 11.4596 10.0215 10.2252 10.0215C8.99088 10.0215 7.99023 11.0221 7.99023 12.2565C7.99023 13.4908 8.99088 14.4915 10.2252 14.4915Z" fill="#3E4347"/>
<path d="M11.4767 11.1168C11.2832 10.8568 10.9899 10.7475 10.8217 10.8726C10.6534 10.9978 10.6739 11.3101 10.8674 11.5702C11.0609 11.8302 11.3542 11.9395 11.5224 11.8143C11.6906 11.6892 11.6702 11.3769 11.4767 11.1168Z" fill="#5A5F63"/>
<path d="M19.7721 14.4915C21.0065 14.4915 22.0071 13.4908 22.0071 12.2565C22.0071 11.0221 21.0065 10.0215 19.7721 10.0215C18.5378 10.0215 17.5371 11.0221 17.5371 12.2565C17.5371 13.4908 18.5378 14.4915 19.7721 14.4915Z" fill="#3E4347"/>
<path d="M21.0225 11.1188C20.829 10.8588 20.5357 10.7495 20.3675 10.8747C20.1993 10.9999 20.2198 11.3122 20.4133 11.5722C20.6068 11.8322 20.9 11.9415 21.0683 11.8163C21.2365 11.6911 21.216 11.3788 21.0225 11.1188Z" fill="#5A5F63"/>
</g>
<defs>
<clipPath id="clip0_2_4372">
<rect width="30" height="30" fill="white" transform="translate(0 0.123047)"/>
</clipPath>
</defs>
</svg>
