<svg width="30" height="30" viewBox="0 0 30 30" fill="none" xmlns="http://www.w3.org/2000/svg">
<g clip-path="url(#clip0_2_5552)">
<path d="M15.0002 29.9985C23.2841 29.9985 29.9995 23.2831 29.9995 14.9992C29.9995 6.71539 23.2841 0 15.0002 0C6.71636 0 0.000976562 6.71539 0.000976562 14.9992C0.000976562 23.2831 6.71636 29.9985 15.0002 29.9985Z" fill="#FFD93B"/>
<path d="M9.08397 22.7088C8.7718 22.4782 8.7043 22.0385 8.93492 21.7254C9.16553 21.4123 9.60613 21.3467 9.9183 21.5764C12.816 23.7109 17.1854 23.7109 20.0822 21.5764C20.3943 21.3467 20.8349 21.4123 21.0655 21.7254C21.2962 22.0376 21.2296 22.4782 20.9165 22.7088C17.4882 25.2352 12.5122 25.2352 9.08397 22.7088Z" fill="#3E4347"/>
<path d="M29.9985 15.0002C29.9985 23.2873 23.2816 29.9995 14.9992 29.9995C10.2838 29.9995 6.07467 27.8246 3.32324 24.4169C5.89655 26.4981 9.17295 27.7402 12.74 27.7402C21.0224 27.7402 27.7392 21.028 27.7392 12.7409C27.7392 9.17393 26.4971 5.89753 24.4159 3.32422C27.8189 6.07564 29.9985 10.2848 29.9985 15.0002Z" fill="#F4C534"/>
<path d="M7.71973 18.6665C10.3043 18.9393 12.8054 17.2303 12.842 15.1351C12.8626 13.9998 12.0976 13.1027 11.0327 12.4746L5.56641 17.9409C6.17669 18.3224 6.9079 18.5831 7.71973 18.6665Z" fill="#38C0DC"/>
<path d="M3.96683 16.1288L8.52659 11.569C8.34848 11.5362 8.17036 11.5071 7.99506 11.4865C7.91162 11.4771 7.831 11.4734 7.74945 11.4668L3.75684 15.4594C3.80183 15.6882 3.87308 15.9122 3.96683 16.1288Z" fill="#38C0DC"/>
<path d="M9.90709 11.9476C9.58367 11.8285 9.25087 11.7282 8.91526 11.6504L4.12207 16.4436C4.26831 16.7089 4.44924 16.9601 4.66204 17.1926L9.90709 11.9476Z" fill="#38C0DC"/>
<path d="M29.6861 10.406C29.7864 10.8232 29.8867 11.2404 29.987 11.6575C30.047 11.9078 29.8933 12.1591 29.6336 12.2641C28.6484 12.6644 27.935 13.5249 27.7831 14.5308C27.5225 16.2801 26.3375 17.9066 24.3914 18.7419C19.8476 20.6683 15.3675 17.7472 15.4575 13.9824C15.4565 13.9065 15.4584 13.8315 15.4603 13.7584C15.4678 13.5174 15.2587 13.3225 15 13.3225C14.7413 13.3225 14.5322 13.5174 14.5397 13.7584C14.5425 13.8315 14.5435 13.9065 14.5425 13.9824C14.6325 17.7472 10.1524 20.6674 5.6086 18.7419C3.66245 17.9057 2.47751 16.2801 2.2169 14.5308C2.06503 13.5249 1.35257 12.6644 0.366366 12.2641C0.106691 12.1591 -0.0470509 11.9078 0.012946 11.6585C0.102941 11.2844 0.191999 10.9104 0.281995 10.5373C0.381365 10.1257 0.67385 9.95701 0.969147 10.0254C1.27382 10.0957 1.57849 10.1632 1.8841 10.2298C2.63031 10.391 3.38121 10.1773 3.96993 9.73483C4.63459 9.23517 5.45111 8.95768 6.40262 8.878C7.3307 8.80019 8.26159 8.97174 9.13811 9.2886C10.5724 9.80701 11.7339 10.1914 12.6039 10.6657C13.3304 11.0613 14.16 11.2563 15 11.2563C15.839 11.2563 16.6696 11.0613 17.3961 10.6657C18.2661 10.1923 19.4276 9.80795 20.8619 9.2886C21.7384 8.97174 22.6693 8.80113 23.5974 8.878C24.5498 8.95768 25.3654 9.23517 26.0301 9.73389C26.6188 10.1764 27.3687 10.3901 28.1159 10.2289C28.3793 10.1726 28.6427 10.1136 28.9062 10.0536C29.329 9.95607 29.6177 10.1257 29.6861 10.406Z" fill="#3E4347"/>
<path d="M12.9138 14.284C12.8791 16.3099 10.4605 17.9617 7.96125 17.6982C5.4695 17.4433 3.75397 15.4624 4.11676 13.4722C4.47112 11.4726 6.02541 10.5108 8.22561 10.7564C10.4249 11.0151 12.9494 12.2648 12.9138 14.284Z" fill="#45CBEA"/>
<path d="M12.9138 14.284C12.8791 16.3099 10.4605 17.9617 7.96125 17.6982C5.4695 17.4433 3.75397 15.4624 4.11676 13.4722C4.47112 11.4726 6.02541 10.5108 8.22561 10.7564C10.4249 11.0151 12.9494 12.2648 12.9138 14.284Z" fill="#45CBEA"/>
<path d="M17.0873 14.284C17.122 16.3099 19.5406 17.9617 22.0399 17.6982C24.5316 17.4433 26.2472 15.4624 25.8834 13.4722C25.5281 11.4726 23.9748 10.5108 21.7746 10.7564C19.5762 11.0151 17.0517 12.2648 17.0873 14.284Z" fill="#45CBEA"/>
<path d="M4.10315 14.4248L9.12509 10.9178C8.82416 10.8475 8.5223 10.7931 8.22701 10.7584C8.18951 10.7537 8.15295 10.7528 8.11545 10.75L4.10877 13.5483C4.0619 13.8436 4.06284 14.137 4.10315 14.4248Z" fill="#38C0DC"/>
<path d="M9.75925 11.0938L4.22266 14.9607C4.39983 15.5054 4.72607 16.0107 5.16573 16.4382L11.5601 11.9721C11.0417 11.599 10.4164 11.3037 9.75925 11.0938Z" fill="#38C0DC"/>
<path d="M17.0879 14.2857C17.0926 14.5379 17.1338 14.7835 17.2069 15.0207L23.2601 10.7927C22.9001 10.7281 22.5101 10.7084 22.0958 10.7327L17.0907 14.2285C17.0916 14.2482 17.0879 14.266 17.0879 14.2857Z" fill="#38C0DC"/>
<path d="M23.8992 10.9668L17.4102 15.4994C17.6717 16.0028 18.0795 16.4528 18.5885 16.8128L25.3466 12.0927C24.9951 11.5696 24.5048 11.1908 23.8992 10.9668Z" fill="#38C0DC"/>
</g>
<defs>
<clipPath id="clip0_2_5552">
<rect width="30" height="30" fill="white"/>
</clipPath>
</defs>
</svg>
