<svg width="30" height="30" viewBox="0 0 30 30" fill="none" xmlns="http://www.w3.org/2000/svg">
<g clip-path="url(#clip0_2_5586)">
<path d="M29.1044 18.6508C28.7182 21.5541 27.0664 23.475 26.1908 23.0887C24.6843 22.4766 25.0124 20.5023 25.318 18.1417C25.647 15.7821 25.8514 13.7937 27.4667 13.5997C28.4135 13.4619 29.4991 15.7474 29.1044 18.6508Z" fill="#5A5F63"/>
<path d="M29.9935 15.0667C30.0498 17.5275 29.7198 19.9809 29.0158 22.3396C28.8583 22.8702 28.4252 23.2376 27.9752 23.248C27.5618 23.262 27.1493 23.1936 26.748 23.0511C27.8346 20.0887 28.2602 16.9247 27.9949 13.7814C28.4299 13.7495 28.8564 13.7936 29.2604 13.9248C29.6786 14.0561 29.9814 14.5276 29.9935 15.0667Z" fill="#3E4347"/>
<path d="M28.3146 13.5162C28.6343 16.8648 28.1806 20.2415 26.9881 23.3877C26.8906 23.6445 26.6309 23.7795 26.4125 23.6914C26.195 23.5995 26.0994 23.3342 26.1931 23.0858C27.3387 20.0625 27.7756 16.8151 27.4681 13.5968C27.4437 13.3324 27.605 13.1009 27.8393 13.0709C28.0728 13.0437 28.2884 13.2415 28.3146 13.5162Z" fill="#E9EFF4"/>
<path d="M0.895752 18.6508C1.28199 21.5541 2.9338 23.475 3.8094 23.0887C5.31591 22.4766 4.9878 20.5023 4.68218 18.1417C4.35313 15.7821 4.14876 13.7937 2.53351 13.5997C1.58666 13.4619 0.501078 15.7474 0.895752 18.6508Z" fill="#5A5F63"/>
<path d="M0.00614831 15.0667C-0.0500997 17.5275 0.279889 19.9809 0.983926 22.3396C1.14142 22.8702 1.57453 23.2376 2.02451 23.248C2.43794 23.262 2.85042 23.1936 3.25166 23.0511C2.16513 20.0887 1.73952 16.9247 2.00483 13.7814C1.56984 13.7495 1.1433 13.7936 0.739248 13.9248C0.321137 14.0561 0.0183354 14.5276 0.00614831 15.0667Z" fill="#3E4347"/>
<path d="M1.68632 13.5162C1.36665 16.8648 1.82038 20.2415 3.01284 23.3877C3.11034 23.6445 3.37002 23.7795 3.58845 23.6914C3.80594 23.5995 3.90156 23.3342 3.80781 23.0858C2.66223 20.0625 2.22537 16.8151 2.53286 13.5968C2.55723 13.3324 2.39599 13.1009 2.16162 13.0709C1.92819 13.0437 1.71257 13.2415 1.68632 13.5162Z" fill="#E9EFF4"/>
<path d="M14.9999 29.9999C21.4671 29.9999 26.7098 24.7572 26.7098 18.29C26.7098 11.8228 21.4671 6.58008 14.9999 6.58008C8.53274 6.58008 3.29004 11.8228 3.29004 18.29C3.29004 24.7572 8.53274 29.9999 14.9999 29.9999Z" fill="#FFD93B"/>
<path d="M26.7097 18.2898C26.7097 24.7592 21.4655 29.9987 14.9998 29.9987C11.3183 29.9987 8.0325 28.301 5.88477 25.6405C7.89376 27.2651 10.4512 28.2344 13.2364 28.2344C19.7021 28.2344 24.9453 22.994 24.9453 16.5255C24.9453 13.7402 23.976 11.1828 22.3514 9.17383C25.0082 11.3225 26.7097 14.6083 26.7097 18.2898Z" fill="#F4C534"/>
<path d="M7.77051 10.7863C7.77051 10.7863 10.1601 8.87198 12.9341 9.63696C12.9341 9.6379 9.50857 6.35769 7.77051 10.7863Z" fill="#3E4347"/>
<path d="M22.23 10.7863C22.23 10.7863 19.8404 8.87198 17.0664 9.63696C17.0664 9.6379 20.4919 6.35769 22.23 10.7863Z" fill="#3E4347"/>
<path d="M21.934 21.509C20.9309 24.7901 18.3004 27.1404 15.1955 27.1404C12.0991 27.1404 9.46011 24.7901 8.45702 21.5015C8.38484 21.2446 8.63327 21.0281 8.88263 21.1321C11.3294 22.199 19.0466 22.2149 21.5094 21.1396C21.7569 21.0281 22.0137 21.2531 21.934 21.509Z" fill="#3E4347"/>
<path d="M15.1945 27.139C16.4095 27.139 17.5494 26.7753 18.5497 26.1406C18.2797 24.8432 16.8651 24.1185 15.6689 24.6341C15.2939 24.7963 14.8777 24.8151 14.4867 24.6988C13.3721 24.3679 12.1853 25.0382 11.874 26.1612C12.8677 26.7837 13.9955 27.139 15.1945 27.139Z" fill="#E24B4B"/>
<path d="M21.2138 21.2418C19.9689 23.3305 17.6065 23.9323 15.1953 23.9323C12.7841 23.9323 10.4123 23.3052 9.17676 21.2324C11.7829 22.1596 18.5983 22.1699 21.2138 21.2418Z" fill="white"/>
<path d="M13.942 15.4702C13.942 17.4998 12.2977 19.1441 10.2765 19.1441C8.24686 19.1441 6.60254 17.4998 6.60254 15.4702C6.60254 13.4481 8.24686 11.8047 10.2765 11.8047C12.2986 11.8047 13.942 13.449 13.942 15.4702Z" fill="#F4C534"/>
<path d="M13.7626 16.6854C13.2105 15.7995 11.8708 15.1732 10.2762 15.1732C8.67311 15.1732 7.33347 15.7995 6.7813 16.6854C6.77099 15.2492 8.30469 14.0352 10.2762 14.0352C12.2392 14.0352 13.7729 15.2492 13.7626 16.6854Z" fill="#3E4347"/>
<path d="M23.398 15.4702C23.398 17.4998 21.7537 19.1441 19.7325 19.1441C17.702 19.1441 16.0586 17.4998 16.0586 15.4702C16.0586 13.4481 17.7029 11.8047 19.7325 11.8047C21.7537 11.8047 23.398 13.449 23.398 15.4702Z" fill="#F4C534"/>
<path d="M23.2187 16.6854C22.6665 15.7995 21.3269 15.1732 19.7322 15.1732C18.1292 15.1732 16.7895 15.7995 16.2374 16.6854C16.227 15.2492 17.7607 14.0352 19.7322 14.0352C21.6953 14.0352 23.229 15.2492 23.2187 16.6854Z" fill="#3E4347"/>
<path d="M0.400015 16.0297C-0.563701 7.00944 6.2995 0.274678 15.0001 0C24.9354 0.590604 30.4449 7.8541 29.6012 16.0551H28.6084C28.2147 8.41283 22.9433 2.65303 15.0001 2.44679C7.05228 2.63991 1.77715 8.43908 1.39092 16.0794L0.400015 16.0297Z" fill="#3E4347"/>
</g>
<defs>
<clipPath id="clip0_2_5586">
<rect width="30" height="30" fill="white"/>
</clipPath>
</defs>
</svg>
