<svg width="30" height="31" viewBox="0 0 30 31" fill="none" xmlns="http://www.w3.org/2000/svg">
<g clip-path="url(#clip0_2_5322)">
<path d="M15 30.123C23.2843 30.123 30 23.4073 30 15.123C30 6.83878 23.2843 0.123047 15 0.123047C6.71573 0.123047 0 6.83878 0 15.123C0 23.4073 6.71573 30.123 15 30.123Z" fill="#FFD93B"/>
<path d="M29.9998 15.1238C29.9998 23.4113 23.2826 30.1238 14.9998 30.1238C10.2842 30.1238 6.0748 27.9488 3.32324 24.541C5.89668 26.6223 9.17324 27.8645 12.7404 27.8645C21.0232 27.8645 27.7404 21.152 27.7404 12.8645C27.7404 9.29727 26.4982 6.0207 24.417 3.44727C27.8201 6.19883 29.9998 10.4082 29.9998 15.1238Z" fill="#F4C534"/>
<path d="M13.9774 11.3534C13.5714 18.3228 11.7808 17.6366 9.06485 17.6366C6.56173 17.6366 4.69142 14.8231 4.89392 11.3534C5.09642 7.88375 7.29485 5.07031 9.79798 5.07031C12.3086 5.07031 14.1789 7.88375 13.9774 11.3534Z" fill="white"/>
<path d="M12.1581 13.4951C12.1581 14.6013 11.2713 15.4985 10.165 15.4985C9.06813 15.4985 8.17188 14.6013 8.17188 13.4951C8.17188 12.3991 9.06906 11.502 10.165 11.502C11.2703 11.502 12.1581 12.3991 12.1581 13.4951Z" fill="#3E4347"/>
<path d="M11.1869 12.4771C10.9635 12.2537 10.6593 12.1959 10.5074 12.3478C10.3554 12.4997 10.4133 12.8039 10.6366 13.0273C10.86 13.2506 11.1642 13.3085 11.3161 13.1565C11.4681 13.0046 11.4102 12.7004 11.1869 12.4771Z" fill="white"/>
<path d="M16.0227 11.3534C16.4286 18.3228 18.2193 17.6366 20.9352 17.6366C23.4383 17.6366 25.3086 14.8231 25.1061 11.3534C24.9036 7.88375 22.7052 5.07031 20.2021 5.07031C17.6914 5.07031 15.8211 7.88375 16.0227 11.3534Z" fill="white"/>
<path d="M21.829 13.4951C21.829 14.6013 20.9421 15.4985 19.8359 15.4985C18.739 15.4985 17.8428 14.6013 17.8428 13.4951C17.8428 12.3991 18.74 11.502 19.8359 11.502C20.9412 11.502 21.829 12.3991 21.829 13.4951Z" fill="#3E4347"/>
<path d="M20.8568 12.479C20.6334 12.2557 20.3292 12.1978 20.1773 12.3497C20.0254 12.5017 20.0832 12.8059 20.3066 13.0292C20.5299 13.2525 20.8341 13.3104 20.986 13.1585C21.138 13.0066 21.0801 12.7023 20.8568 12.479Z" fill="white"/>
<path d="M25.3698 20.5906C24.9479 20.7312 24.0226 20.6581 23.6635 20.2999C21.6723 23.9927 18.9554 25.3831 16.0416 25.8406C13.1579 26.3496 8.85664 24.5459 7.38851 22.2406C7.14195 22.5621 6.88976 22.6952 6.54476 22.8031C6.22601 22.8874 5.98226 22.7937 6.00101 22.7749C6.08258 22.8565 7.12976 21.9846 7.51039 20.9187C7.63226 20.6562 7.74476 20.4687 7.74476 20.4687C7.93601 20.9459 7.75039 21.8599 7.46351 22.1468C10.2966 24.2702 14.6091 24.7427 15.8916 24.4437C20.011 23.8821 21.9723 21.6968 23.5791 20.2343C23.3316 20.0431 23.1198 19.7524 23.0354 19.3906C22.951 19.0718 23.0354 18.8374 23.0541 18.8656C23.0541 19.459 24.8448 20.3149 25.3698 20.5906Z" fill="#3E4347"/>
</g>
<defs>
<clipPath id="clip0_2_5322">
<rect width="30" height="30" fill="white" transform="translate(0 0.123047)"/>
</clipPath>
</defs>
</svg>
