<svg width="30" height="31" viewBox="0 0 30 31" fill="none" xmlns="http://www.w3.org/2000/svg">
<g clip-path="url(#clip0_2_5337)">
<path d="M18.7098 9.79679C18.3245 7.18019 17.4911 1.86823 15.3817 0.25383C15.1604 0.0794524 14.8276 0.0794524 14.6026 0.25383C12.4932 1.86823 11.6607 7.17644 11.2744 9.79679H18.7098Z" fill="#F4C534"/>
<path d="M11.3252 20.4626C11.7021 23.0764 12.5168 28.3818 14.6159 29.9934C14.8362 30.1677 15.1671 30.1668 15.3931 29.9924C17.5006 28.3771 18.3472 23.0736 18.74 20.4551L11.3252 20.4626Z" fill="#F4C534"/>
<path d="M21.3913 13.9743C22.9692 11.8518 26.1361 7.50643 25.7854 4.87295C25.7526 4.59263 25.5173 4.35825 25.2342 4.32169C22.6007 3.97199 18.2591 7.13611 16.1328 8.71582L21.3913 13.9743Z" fill="#F4C534"/>
<path d="M8.62819 16.2949C7.04661 18.409 3.87124 22.7375 4.21531 25.3607C4.24813 25.6391 4.4825 25.8735 4.7647 25.9091C7.39724 26.2579 11.7454 23.106 13.8755 21.5319L8.62819 16.2949Z" fill="#F4C534"/>
<path d="M20.3262 18.8289C22.9428 18.4436 28.2547 17.6102 29.8691 15.4998C30.0435 15.2786 30.0435 14.9458 29.8691 14.7208C28.2547 12.6113 22.9465 11.7788 20.3262 11.3926V18.8289Z" fill="#F4C534"/>
<path d="M9.66109 11.4434C7.0473 11.8202 1.7419 12.6349 0.130315 14.734C-0.0440622 14.9544 -0.0431247 15.2853 0.131253 15.5112C1.74659 17.6188 7.05011 18.4654 9.66859 18.8582L9.66109 11.4434Z" fill="#F4C534"/>
<path d="M16.1465 21.5105C18.269 23.0874 22.6144 26.2552 25.2479 25.9046C25.5282 25.8718 25.7626 25.6365 25.7992 25.3533C26.1488 22.7199 22.9847 18.3782 21.405 16.252L16.1465 21.5105Z" fill="#F4C534"/>
<path d="M13.8275 8.74538C11.7134 7.16379 7.38486 3.98843 4.76169 4.3325C4.48325 4.36625 4.24887 4.60063 4.21325 4.88282C3.86449 7.51536 7.01642 11.8636 8.5905 13.9936L13.8275 8.74538Z" fill="#F4C534"/>
<path d="M15.01 26.2309C21.1451 26.2309 26.1186 21.2574 26.1186 15.1223C26.1186 8.98717 21.1451 4.01367 15.01 4.01367C8.87486 4.01367 3.90137 8.98717 3.90137 15.1223C3.90137 21.2574 8.87486 26.2309 15.01 26.2309Z" fill="#FFD93B"/>
<path d="M21.6633 19.0698C20.3133 21.348 17.8383 22.8761 14.9976 22.8761C12.1757 22.8761 9.71004 21.3761 8.35064 19.1261C8.03188 18.5823 8.47252 17.8885 9.09128 17.9917C12.8695 18.6198 16.807 18.5448 20.9133 17.9448C21.5415 17.8604 21.9821 18.526 21.6633 19.0698Z" fill="#3E4347"/>
<path d="M26.1146 15.1222C26.1146 21.2602 21.1402 26.2309 15.006 26.2309C11.5138 26.2309 8.39656 24.6202 6.3584 22.0964C8.26437 23.6377 10.6907 24.5574 13.3326 24.5574C19.4667 24.5574 24.4412 19.5858 24.4412 13.4488C24.4412 10.8069 23.5215 8.38058 21.9802 6.47461C24.5002 8.51183 26.1146 11.63 26.1146 15.1222Z" fill="#F4C534"/>
<path d="M16.1709 11.8687C16.1709 13.8356 17.4778 15.4444 19.095 15.4491C20.7 15.4538 22.0069 13.8525 22.0069 11.8856C22.0069 9.90839 20.7 8.29962 19.095 8.29493C17.4778 8.29024 16.1709 9.89058 16.1709 11.8687Z" fill="white"/>
<path d="M19.0802 13.8343C19.933 13.8343 20.6243 13.143 20.6243 12.2902C20.6243 11.4374 19.933 10.7461 19.0802 10.7461C18.2274 10.7461 17.5361 11.4374 17.5361 12.2902C17.5361 13.143 18.2274 13.8343 19.0802 13.8343Z" fill="#3E4347"/>
<path d="M18.8564 11.3828C18.7345 11.2609 18.4813 11.3164 18.2909 11.5068C18.1005 11.6971 18.045 11.9503 18.1669 12.0722C18.2889 12.1941 18.542 12.1386 18.7324 11.9483C18.9228 11.7579 18.9783 11.5047 18.8564 11.3828Z" fill="white"/>
<path d="M15.1197 16.0277H22.0424C21.3148 15.5486 18.8051 14.0683 16.1548 14.5174C14.38 14.8183 14.5947 15.4952 15.1197 16.0277Z" fill="#FFD93B"/>
<path d="M22.2594 16.178C21.2141 15.7552 20.2063 15.338 19.2678 15.0689C17.7059 14.587 17.0928 14.6498 16.1553 14.5186C17.2325 14.0854 18.3547 14.1858 19.4422 14.4848C20.63 14.8336 21.7485 15.578 22.2594 16.178Z" fill="#F4C534"/>
<path d="M13.8292 11.8687C13.8292 13.8356 12.5223 15.4444 10.9051 15.4491C9.30006 15.4538 7.99316 13.8525 7.99316 11.8856C7.99316 9.90839 9.30006 8.29962 10.9051 8.29493C12.5223 8.29024 13.8292 9.89058 13.8292 11.8687Z" fill="white"/>
<path d="M10.9201 13.8343C11.7728 13.8343 12.4641 13.143 12.4641 12.2902C12.4641 11.4374 11.7728 10.7461 10.9201 10.7461C10.0673 10.7461 9.37598 11.4374 9.37598 12.2902C9.37598 13.143 10.0673 13.8343 10.9201 13.8343Z" fill="#3E4347"/>
<path d="M11.7101 11.5068C11.5197 11.3164 11.2665 11.2609 11.1446 11.3828C11.0227 11.5047 11.0782 11.7579 11.2686 11.9483C11.4589 12.1386 11.7121 12.1941 11.834 12.0722C11.9559 11.9503 11.9004 11.6971 11.7101 11.5068Z" fill="white"/>
<path d="M14.8806 16.0277C15.4056 15.4942 15.6203 14.8183 13.8456 14.5174C11.1943 14.0683 8.68552 15.5486 7.95801 16.0277H14.8806Z" fill="#FFD93B"/>
<path d="M7.74121 16.1765C8.25309 15.5756 9.37249 14.8312 10.5584 14.4843C11.66 14.1806 12.7832 14.0906 13.8454 14.5181C12.9079 14.6493 12.4082 14.5509 10.7328 15.0684C9.79343 15.3365 8.7856 15.7537 7.74121 16.1765Z" fill="#F4C534"/>
<path d="M14.9975 22.8772C16.1206 22.8772 17.1829 22.6306 18.1457 22.2003C17.6319 20.8925 16.281 20.3993 15.0641 20.8653C14.7069 21.0078 14.3309 21.0734 13.9606 21.0856C13.0175 21.1156 12.3312 21.5881 11.96 22.2575C12.8928 22.655 13.9184 22.8772 14.9975 22.8772Z" fill="#E24B4B"/>
<path d="M9.09082 17.9923C9.08238 17.9914 9.07582 17.9933 9.06738 17.9923C10.5683 19.5692 12.1509 20.0689 15.0178 20.0689C17.895 20.0689 19.455 19.5514 20.9607 17.9464C20.9447 17.9473 20.9297 17.9436 20.9129 17.9464C16.8066 18.5455 12.869 18.6205 9.09082 17.9923Z" fill="white"/>
</g>
<defs>
<clipPath id="clip0_2_5337">
<rect width="30" height="30" fill="white" transform="translate(0 0.123047)"/>
</clipPath>
</defs>
</svg>
