<svg width="30" height="31" viewBox="0 0 30 31" fill="none" xmlns="http://www.w3.org/2000/svg">
<g clip-path="url(#clip0_2_5201)">
<path d="M15 30.123C23.2843 30.123 30 23.4073 30 15.123C30 6.83878 23.2843 0.123047 15 0.123047C6.71573 0.123047 0 6.83878 0 15.123C0 23.4073 6.71573 30.123 15 30.123Z" fill="#FFD93B"/>
<path d="M29.9998 15.1238C29.9998 23.4113 23.2826 30.1238 14.9998 30.1238C10.2842 30.1238 6.0748 27.9488 3.32324 24.541C5.89668 26.6223 9.17324 27.8645 12.7404 27.8645C21.0232 27.8645 27.7404 21.152 27.7404 12.8645C27.7404 9.29727 26.4982 6.0207 24.417 3.44727C27.8201 6.19883 29.9998 10.4082 29.9998 15.1238Z" fill="#F4C534"/>
<path d="M10.0599 14.6799C11.3502 14.6799 12.3961 13.3695 12.3961 11.753C12.3961 10.1366 11.3502 8.82617 10.0599 8.82617C8.76961 8.82617 7.72363 10.1366 7.72363 11.753C7.72363 13.3695 8.76961 14.6799 10.0599 14.6799Z" fill="#3E4347"/>
<path d="M11.2834 10.2555C11.0783 9.97835 10.7683 9.86003 10.591 9.99122C10.4137 10.1224 10.4363 10.4534 10.6414 10.7306C10.8464 11.0077 11.1564 11.1261 11.3337 10.9949C11.511 10.8637 11.4885 10.5326 11.2834 10.2555Z" fill="#5A5F63"/>
<path d="M19.9368 14.6799C21.2271 14.6799 22.2731 13.3695 22.2731 11.753C22.2731 10.1366 21.2271 8.82617 19.9368 8.82617C18.6466 8.82617 17.6006 10.1366 17.6006 11.753C17.6006 13.3695 18.6466 14.6799 19.9368 14.6799Z" fill="#3E4347"/>
<path d="M21.1613 10.2555C20.9562 9.97836 20.6463 9.86003 20.469 9.99123C20.2917 10.1224 20.3142 10.4534 20.5193 10.7306C20.7244 11.0077 21.0343 11.1261 21.2116 10.9949C21.3889 10.8637 21.3664 10.5327 21.1613 10.2555Z" fill="#5A5F63"/>
<path d="M15.4644 24.8806C15.2188 24.7981 15.0866 24.5328 15.1691 24.2872C15.2525 24.0425 15.5178 23.9093 15.7625 23.9918C16.4891 24.2347 18.2769 24.1728 18.2769 23.4875C18.2769 23.075 17.7125 22.6972 16.9353 22.5875C16.7038 22.5547 16.5322 22.3568 16.5322 22.1234C16.5322 21.89 16.7047 21.6922 16.9353 21.6593C17.7003 21.5515 18.2769 21.1662 18.2769 20.764C18.2769 20.7265 18.2769 20.614 18.1175 20.4725C17.7444 20.1415 16.7656 19.924 15.7625 20.2597C15.5178 20.3431 15.2516 20.21 15.1691 19.9643C15.0866 19.7187 15.2188 19.4534 15.4644 19.3709C17.2025 18.7868 19.2144 19.4281 19.2144 20.764C19.2144 21.3068 18.9069 21.7868 18.3866 22.1243C18.9069 22.4628 19.2144 22.9437 19.2144 23.4884C19.2144 24.875 17.1106 25.4347 15.4644 24.8806Z" fill="#3E4347"/>
</g>
<defs>
<clipPath id="clip0_2_5201">
<rect width="30" height="30" fill="white" transform="translate(0 0.123047)"/>
</clipPath>
</defs>
</svg>
