<svg width="30" height="31" viewBox="0 0 30 31" fill="none" xmlns="http://www.w3.org/2000/svg">
<g clip-path="url(#clip0_2_5267)">
<path d="M14.9997 26.7826C22.3616 26.7826 28.3295 20.8147 28.3295 13.4528C28.3295 6.091 22.3616 0.123047 14.9997 0.123047C7.63787 0.123047 1.66992 6.091 1.66992 13.4528C1.66992 20.8147 7.63787 26.7826 14.9997 26.7826Z" fill="#FFD93B"/>
<path d="M28.3296 13.452C28.3296 20.8167 22.3599 26.7818 14.9998 26.7818C10.8094 26.7818 7.06795 24.8488 4.62305 21.8208C6.91046 23.6704 9.82222 24.7747 12.9918 24.7747C20.3527 24.7747 26.3216 18.8096 26.3216 11.4449C26.3216 8.27441 25.2172 5.36264 23.3676 3.07617C26.3928 5.52108 28.3296 9.26156 28.3296 13.452Z" fill="#E9B02C"/>
<path d="M12.9982 11.9635C12.9982 13.8056 11.5048 15.298 9.66365 15.298C7.82248 15.298 6.3291 13.8046 6.3291 11.9635C6.3291 10.1223 9.31304 7.893 11.1523 7.99143C12.9907 8.08893 12.9982 10.1213 12.9982 11.9635Z" fill="white"/>
<path d="M10.0234 14.1659C10.9424 14.1659 11.6874 13.4209 11.6874 12.5019C11.6874 11.5829 10.9424 10.8379 10.0234 10.8379C9.10437 10.8379 8.35938 11.5829 8.35938 12.5019C8.35938 13.4209 9.10437 14.1659 10.0234 14.1659Z" fill="#3E4347"/>
<path d="M11.0422 12.2177C10.91 12.3162 10.6747 12.2477 10.5322 12.0574C10.3897 11.8671 10.385 11.6243 10.5266 11.524C10.6663 11.4153 10.8931 11.4856 11.0347 11.6749C11.1772 11.8652 11.1819 12.109 11.0422 12.2177Z" fill="#5A5F63"/>
<path d="M16.4756 11.9635C16.4756 13.8056 17.969 15.298 19.8101 15.298C21.6513 15.298 23.1447 13.8046 23.1447 11.9635C23.1447 10.1223 20.1608 7.893 18.3215 7.99143C16.4831 8.08893 16.4756 10.1213 16.4756 11.9635Z" fill="white"/>
<path d="M19.4531 14.1659C20.3721 14.1659 21.1171 13.4209 21.1171 12.5019C21.1171 11.5829 20.3721 10.8379 19.4531 10.8379C18.5341 10.8379 17.7891 11.5829 17.7891 12.5019C17.7891 13.4209 18.5341 14.1659 19.4531 14.1659Z" fill="#3E4347"/>
<path d="M20.4738 12.2177C20.3416 12.3162 20.1063 12.2477 19.9639 12.0574C19.8214 11.8681 19.8167 11.6243 19.9582 11.524C20.0979 11.4153 20.3248 11.4856 20.4663 11.6749C20.6088 11.8652 20.6135 12.109 20.4738 12.2177Z" fill="#5A5F63"/>
<path d="M17.7076 19.9159C17.7076 21.7252 16.4983 23.197 14.9983 23.197C13.4984 23.197 12.2891 21.7252 12.2891 19.9159C12.2891 18.0972 13.4984 16.6348 14.9983 16.6348C16.4983 16.6348 17.7076 18.0972 17.7076 19.9159Z" fill="#3E4347"/>
<path d="M29.9725 20.2452C29.694 20.9764 26.667 23.2835 25.8242 25.9834C25.4445 27.2893 25.2073 28.2774 24.9795 29.0724C24.8033 29.7033 24.2155 30.1326 23.5658 30.1214C22.1915 30.0961 20.8556 29.7333 19.5366 29.0189C18.9573 28.7124 18.6582 28.0486 18.8026 27.4093C18.962 26.6471 19.2404 25.7884 19.6472 24.8285C20.3007 23.2901 21.3159 21.8895 22.6884 20.9314C26.3032 18.3909 30.37 19.5459 29.9725 20.2452Z" fill="#FFD93B"/>
<path d="M25.2694 24.6959C23.402 27.5889 23.9973 30.0638 19.1328 28.6941C19.2462 28.8235 19.3775 28.9369 19.5359 29.0204C20.8549 29.7347 22.1908 30.0966 23.5651 30.1228C24.2148 30.1341 24.8026 29.7057 24.9788 29.0738C25.2066 28.2779 25.4429 27.2898 25.8235 25.9839C26.5744 23.5775 29.0568 21.485 29.7852 20.541C29.7702 20.5476 27.1313 21.8122 25.2694 24.6959Z" fill="#F4C534"/>
<path d="M0.0269941 20.2451C0.305421 20.9763 3.33249 23.2834 4.17527 25.9833C4.55494 27.2892 4.79212 28.2773 5.01992 29.0722C5.19523 29.7041 5.78302 30.1335 6.43268 30.1222C7.807 30.0969 9.14289 29.7341 10.4619 29.0197C11.0413 28.7132 11.3403 28.0495 11.1959 27.4101C11.0366 26.648 10.7581 25.7892 10.3513 24.8293C9.69787 23.2909 8.68259 21.8903 7.31015 20.9322C3.69623 18.3908 -0.37049 19.5457 0.0269941 20.2451Z" fill="#FFD93B"/>
<path d="M4.72959 24.6968C6.59702 27.5898 6.00173 30.0647 10.8662 28.6951C10.7528 28.8245 10.6215 28.9379 10.4631 29.0213C9.14317 29.7347 7.80728 30.0975 6.43296 30.1229C5.7833 30.1341 5.19551 29.7057 5.01927 29.0738C4.79146 28.2779 4.55522 27.2898 4.17461 25.9839C3.4237 23.5775 0.9413 21.485 0.212891 20.541C0.228828 20.5485 2.86779 21.8132 4.72959 24.6968Z" fill="#F4C534"/>
<path d="M14.9991 23.1959C15.9085 23.1959 16.7063 22.6503 17.1975 21.8207C17.0081 21.3135 16.6575 20.8869 16.1916 20.6282C15.9263 20.4791 15.5026 20.5316 15.2373 20.6779C15.0582 20.7773 14.8398 20.8373 14.5848 20.8373C14.5313 20.8373 14.4817 20.8335 14.432 20.8307C13.9717 20.7848 13.5011 20.9366 13.2358 21.3144C13.0933 21.516 12.9873 21.7457 12.918 21.9913C13.4139 22.7206 14.1554 23.1959 14.9991 23.1959Z" fill="#E24B4B"/>
</g>
<defs>
<clipPath id="clip0_2_5267">
<rect width="30" height="30" fill="white" transform="translate(0 0.123047)"/>
</clipPath>
</defs>
</svg>
