<svg width="30" height="30" viewBox="0 0 30 30" fill="none" xmlns="http://www.w3.org/2000/svg">
<g clip-path="url(#clip0_2_4602)">
<path d="M15 30C23.2843 30 30 23.2843 30 15C30 6.71573 23.2843 0 15 0C6.71573 0 0 6.71573 0 15C0 23.2843 6.71573 30 15 30Z" fill="#FFD93B"/>
<path d="M29.9998 15.0008C29.9998 23.2883 23.2826 30.0008 14.9998 30.0008C10.2842 30.0008 6.0748 27.8258 3.32324 24.418C5.89668 26.4992 9.17324 27.7414 12.7404 27.7414C21.0232 27.7414 27.7404 21.0289 27.7404 12.7414C27.7404 9.17422 26.4982 5.89766 24.417 3.32422C27.8201 6.07578 29.9998 10.2852 29.9998 15.0008Z" fill="#F4C534"/>
<path d="M24.252 7.9707C25.4679 8.82102 26.2648 10.2273 26.2648 11.8201C26.2648 14.4235 24.1676 16.5207 21.5642 16.5207C18.6345 16.5207 16.3798 13.8563 16.9554 10.9173C18.3608 9.28695 22.2429 8.05414 24.252 7.9707Z" fill="white"/>
<path d="M16.5705 10.769L15.8983 9.6853C15.7136 9.38811 15.8045 8.99811 16.1027 8.81343C16.3989 8.62968 16.7908 8.72061 16.9736 9.0178L17.2924 9.53061C19.4842 8.10187 22.4767 7.41655 25.4552 7.69312C25.803 7.72499 26.0599 8.03343 26.027 8.38124C25.9952 8.72905 25.6895 8.98593 25.3399 8.95311C24.243 8.85186 20.4274 8.69624 17.493 10.9369C17.1967 11.1637 16.7674 11.0887 16.5705 10.769Z" fill="#3E4347"/>
<path d="M21.3501 15.6202C22.4825 15.6202 23.4004 14.7022 23.4004 13.5698C23.4004 12.4375 22.4825 11.5195 21.3501 11.5195C20.2178 11.5195 19.2998 12.4375 19.2998 13.5698C19.2998 14.7022 20.2178 15.6202 21.3501 15.6202Z" fill="#3E4347"/>
<path d="M20.3963 12.4898C20.1656 12.7363 20.0963 13.0513 20.236 13.1901C20.3822 13.3223 20.6878 13.2454 20.9185 12.9988C21.1566 12.7607 21.211 12.4448 21.0638 12.2976C20.9185 12.1635 20.6203 12.2498 20.3963 12.4898Z" fill="white"/>
<path d="M5.74816 7.9707C4.53223 8.82102 3.73535 10.2273 3.73535 11.8201C3.73535 14.4235 5.83254 16.5207 8.43598 16.5207C11.3657 16.5207 13.6204 13.8563 13.0447 10.9173C11.6394 9.28695 7.75723 8.05414 5.74816 7.9707Z" fill="white"/>
<path d="M12.5074 10.9369C9.57682 8.69623 5.76401 8.85092 4.66057 8.95311C4.31089 8.98311 4.00526 8.72811 3.97338 8.38029C3.94151 8.03154 4.19745 7.72404 4.54526 7.69217C7.52088 7.41842 10.5162 8.10186 12.7081 9.52967L13.0268 9.01686C13.2087 8.72061 13.5987 8.62686 13.8978 8.81248C14.1949 8.99717 14.2868 9.38717 14.1021 9.68436L13.4299 10.7681C13.2321 11.0887 12.8028 11.1619 12.5074 10.9369Z" fill="#3E4347"/>
<path d="M8.6509 15.6182C9.78326 15.6182 10.7012 14.7002 10.7012 13.5679C10.7012 12.4355 9.78326 11.5176 8.6509 11.5176C7.51854 11.5176 6.60059 12.4355 6.60059 13.5679C6.60059 14.7002 7.51854 15.6182 8.6509 15.6182Z" fill="#3E4347"/>
<path d="M9.6035 12.4917C9.83412 12.7383 9.9035 13.0533 9.76381 13.192C9.61756 13.3242 9.31193 13.2473 9.08131 13.0008C8.84318 12.7627 8.7888 12.4467 8.93599 12.2995C9.08131 12.1655 9.37943 12.2517 9.6035 12.4917Z" fill="white"/>
<path d="M21.1264 24.5953C17.0464 23.8303 12.9561 23.8303 8.86672 24.5953C8.37641 24.6975 7.96203 24.2072 8.09422 23.6766C9.08328 19.9416 11.7298 17.9531 14.9342 17.9531C18.1386 17.9531 20.9201 19.9416 21.8998 23.6869C22.0311 24.2072 21.6158 24.6966 21.1264 24.5953Z" fill="#3E4347"/>
<path d="M19.276 19.44C18.0526 18.4603 16.5479 17.9531 14.9335 17.9531C13.3014 17.9531 11.8173 18.4753 10.6201 19.4756C10.7729 19.6922 10.9848 19.8741 11.2511 19.9613C13.7064 20.7516 16.1607 20.7516 18.616 19.9613C18.8982 19.8694 19.1232 19.6744 19.276 19.44Z" fill="white"/>
<path d="M19.7642 24.3719C19.6536 23.9622 19.5242 23.5534 19.3536 23.1447C19.2092 22.8034 18.9401 22.5316 18.6157 22.4041C16.1604 21.4591 13.7061 21.4591 11.2507 22.4041C10.9273 22.5306 10.6573 22.8034 10.5129 23.1447C10.3395 23.5609 10.2073 23.9772 10.0967 24.3944C13.3217 23.9116 16.5457 23.9031 19.7642 24.3719Z" fill="white"/>
<path d="M15.8421 26.1431C15.3612 26.0119 14.8006 26.0138 14.1218 26.1525C13.8115 26.2181 13.4965 26.0138 13.4309 25.6959C13.3662 25.3791 13.5706 25.0697 13.8875 25.005C14.7471 24.8287 15.4887 24.8316 16.1515 25.0144C16.4637 25.0997 16.6475 25.4222 16.5621 25.7344C16.4759 26.0466 16.1515 26.2294 15.8421 26.1431Z" fill="#F4C534"/>
</g>
<defs>
<clipPath id="clip0_2_4602">
<rect width="30" height="30" fill="white"/>
</clipPath>
</defs>
</svg>
