<svg width="30" height="31" viewBox="0 0 30 31" fill="none" xmlns="http://www.w3.org/2000/svg">
<g clip-path="url(#clip0_2_5239)">
<path d="M15 30.123C23.2843 30.123 30 23.4073 30 15.123C30 6.83878 23.2843 0.123047 15 0.123047C6.71573 0.123047 0 6.83878 0 15.123C0 23.4073 6.71573 30.123 15 30.123Z" fill="#FFD93B"/>
<path d="M29.9998 15.1238C29.9998 23.4113 23.2826 30.1238 14.9998 30.1238C10.2842 30.1238 6.0748 27.9488 3.32324 24.541C5.89668 26.6223 9.17324 27.8645 12.7404 27.8645C21.0232 27.8645 27.7404 21.152 27.7404 12.8645C27.7404 9.29727 26.4982 6.0207 24.417 3.44727C27.8201 6.19883 29.9998 10.4082 29.9998 15.1238Z" fill="#F4C534"/>
<path d="M21.7217 19.2073C22.3423 19.6329 20.637 24.3101 15.0007 24.2857C9.3645 24.3091 7.65918 19.6329 8.27981 19.2073C8.75793 18.6963 10.9798 21.1319 15.0007 21.0363C19.0217 21.1319 21.2436 18.6963 21.7217 19.2073Z" fill="#3E4347"/>
<path d="M23.1609 11.5908C22.8056 10.8052 21.9169 10.163 20.8669 10.1845C19.1625 10.2145 18.5541 12.1533 18.8653 11.528C18.6178 12.0258 18.0122 12.2292 17.5144 11.9817C17.0156 11.7342 16.8131 11.1286 17.0606 10.6308C17.5266 9.69328 19.17 8.48578 20.9803 8.77922C22.5731 9.04547 23.6287 10.1855 23.9166 11.2795C24.0028 11.4886 23.9034 11.7277 23.6944 11.813C23.4862 11.8992 23.2472 11.7998 23.1609 11.5908Z" fill="#3E4347"/>
<path d="M6.08383 11.2804C6.08852 11.2757 6.10446 11.1923 6.19352 10.971C6.91164 9.24883 8.79696 8.38914 10.5857 8.87101C11.572 9.13539 12.2441 9.68945 12.8385 10.4685C13.176 10.911 13.0907 11.5438 12.6482 11.8813C12.2057 12.2188 11.5738 12.1335 11.2354 11.691C11.017 11.406 11.0891 11.2626 10.702 10.8773C9.54508 9.6257 7.43008 10.2229 6.83852 11.5907C6.75227 11.7998 6.51321 11.8991 6.30508 11.8129C6.09696 11.7276 5.99758 11.4885 6.08383 11.2804Z" fill="#3E4347"/>
<path d="M24.5182 17.5034C23.9735 18.4043 22.9694 18.7906 22.2682 18.3668C21.5735 17.944 21.4432 16.8781 21.9869 15.9772C22.5251 15.0819 23.5301 14.6956 24.2304 15.1193C24.9326 15.5365 25.0563 16.6072 24.5182 17.5034Z" fill="#E24B4B"/>
<path d="M5.48143 17.5034C6.02612 18.4043 7.03018 18.7906 7.73143 18.3668C8.42612 17.944 8.55643 16.8781 8.01268 15.9772C7.47456 15.0819 6.46956 14.6956 5.76924 15.1193C5.06705 15.5365 4.9433 16.6072 5.48143 17.5034Z" fill="#E24B4B"/>
</g>
<defs>
<clipPath id="clip0_2_5239">
<rect width="30" height="30" fill="white" transform="translate(0 0.123047)"/>
</clipPath>
</defs>
</svg>
