<svg width="31" height="30" viewBox="0 0 31 30" fill="none" xmlns="http://www.w3.org/2000/svg">
<path d="M21.9442 4.27404L21.8022 5.10227C21.7848 5.20369 21.8265 5.30623 21.9098 5.36676C21.9931 5.42723 22.1035 5.43531 22.1946 5.38738L22.9383 4.99639L23.682 5.38738C23.7732 5.43531 23.8836 5.42729 23.9669 5.36676C24.0501 5.30629 24.0919 5.20369 24.0744 5.10227L23.9324 4.27404L24.5341 3.68752C24.6078 3.61568 24.6344 3.50822 24.6026 3.41031C24.5707 3.3124 24.4861 3.24104 24.3842 3.22621L23.5527 3.10539L23.1808 2.35193C23.1353 2.25959 23.0412 2.20117 22.9383 2.20117C22.8353 2.20117 22.7413 2.25959 22.6957 2.35193L22.3239 3.10539L21.4924 3.22627C21.3906 3.24109 21.3059 3.3124 21.2741 3.41037C21.2423 3.50822 21.2688 3.61574 21.3425 3.68758L21.9442 4.27404ZM10.095 6.32418L9.83547 7.83707C9.81806 7.93856 9.85978 8.0411 9.94304 8.10156C10.0264 8.16209 10.1368 8.17006 10.2279 8.12219L11.5866 7.40787L12.9453 8.12219C13.142 8.22567 13.3757 8.05879 13.3377 7.83707L13.0782 6.32418L14.1774 5.25268C14.3375 5.09658 14.249 4.82354 14.0275 4.79143L12.5085 4.5707L11.8291 3.19422C11.7836 3.10188 11.6895 3.04346 11.5866 3.04346C11.4836 3.04346 11.3897 3.10188 11.3441 3.19422L10.6647 4.5707L9.1457 4.79143C8.92439 4.82354 8.8355 5.09647 8.99582 5.25268L10.095 6.32418ZM26.6878 20.1743L25.4986 20.0015L24.9667 18.9238C24.9211 18.8315 24.8271 18.7731 24.7242 18.7731C24.6212 18.7731 24.5273 18.8315 24.4817 18.9238L23.9498 20.0015L22.7605 20.1743C22.6587 20.1891 22.574 20.2605 22.5422 20.3584C22.5104 20.4563 22.537 20.5638 22.6107 20.6357L23.4712 21.4745L23.2681 22.659C23.23 22.8811 23.464 23.0475 23.6605 22.9441L24.7243 22.3849L25.788 22.9441C25.986 23.0482 26.2183 22.8796 26.1804 22.659L25.9773 21.4745L26.8378 20.6357C26.9116 20.5638 26.938 20.4564 26.9063 20.3584C26.8743 20.2605 26.7897 20.1891 26.6878 20.1743Z" fill="#FF3445"/>
<path d="M4.06809 12.0248C4.66552 12.0248 5.14984 11.5405 5.14984 10.9431C5.14984 10.3456 4.66552 9.86133 4.06809 9.86133C3.47065 9.86133 2.98633 10.3456 2.98633 10.9431C2.98633 11.5405 3.47065 12.0248 4.06809 12.0248Z" fill="#CCFC5C"/>
<path d="M22.9978 28.2514C23.5952 28.2514 24.0795 27.7671 24.0795 27.1696C24.0795 26.5722 23.5952 26.0879 22.9978 26.0879C22.4003 26.0879 21.916 26.5722 21.916 27.1696C21.916 27.7671 22.4003 28.2514 22.9978 28.2514Z" fill="#109CEA"/>
<path d="M28.1365 3.37062C28.5845 3.37062 28.9478 3.0074 28.9478 2.55934C28.9478 2.11127 28.5845 1.74805 28.1365 1.74805C27.6884 1.74805 27.3252 2.11127 27.3252 2.55934C27.3252 3.0074 27.6884 3.37062 28.1365 3.37062Z" fill="#8AD668"/>
<path d="M27.0545 11.4839C27.5025 11.4839 27.8657 11.1207 27.8657 10.6726C27.8657 10.2246 27.5025 9.86133 27.0545 9.86133C26.6064 9.86133 26.2432 10.2246 26.2432 10.6726C26.2432 11.1207 26.6064 11.4839 27.0545 11.4839Z" fill="#FFDA2D"/>
<path d="M5.9607 3.91164C6.40877 3.91164 6.77199 3.54841 6.77199 3.10035C6.77199 2.65229 6.40877 2.28906 5.9607 2.28906C5.51264 2.28906 5.14941 2.65229 5.14941 3.10035C5.14941 3.54841 5.51264 3.91164 5.9607 3.91164Z" fill="#0F9BE8"/>
<path d="M14.074 27.7105C14.522 27.7105 14.8853 27.3472 14.8853 26.8992C14.8853 26.4511 14.522 26.0879 14.074 26.0879C13.6259 26.0879 13.2627 26.4511 13.2627 26.8992C13.2627 27.3472 13.6259 27.7105 14.074 27.7105Z" fill="#90E36A"/>
<path d="M21.1477 8.6712C21.7804 8.03863 22.8098 8.03857 23.4424 8.6712C24.075 9.30384 24.075 10.3333 23.4424 10.966L22.4862 11.9221C22.3806 12.0277 22.3806 12.1989 22.4862 12.3045C22.5919 12.4101 22.763 12.4101 22.8687 12.3045L23.8248 11.3484C24.6683 10.5048 24.6683 9.13228 23.8248 8.28876C22.9813 7.44525 21.6087 7.44525 20.7652 8.28876L15.0105 14.0435C15.1421 14.1647 15.2737 14.2883 15.4051 14.4138L21.1477 8.6712ZM17.5144 7.71507C18.8883 6.34128 18.8885 4.1173 17.5144 2.74327C17.4088 2.63769 17.2376 2.63763 17.132 2.74327C17.0264 2.84886 17.0264 3.02007 17.132 3.12566C18.2944 4.28816 18.2947 6.16995 17.132 7.33263L12.4702 11.9945C12.6177 12.0958 12.7669 12.2018 12.9175 12.312L17.5144 7.71507ZM24.781 16.129C24.8866 16.2346 25.0578 16.2346 25.1634 16.129C25.269 16.0234 25.269 15.8522 25.1634 15.7466C23.7927 14.3758 21.5623 14.3759 20.1916 15.7466L18.3013 17.6369C18.4141 17.787 18.5217 17.9345 18.624 18.079L20.574 16.129C21.7339 14.9692 23.6212 14.9692 24.781 16.129ZM14.2927 19.3142C13.5325 18.6514 12.7816 17.9235 12.064 17.1507H6.94799L6.21387 19.3142H14.2927ZM8.63373 12.1828L7.1315 16.6099H11.5746C10.5326 15.4286 9.16606 13.6561 8.63373 12.1828Z" fill="#FFDA2D"/>
<path d="M4.71248 23.7402L3.51465 27.2703L13.918 23.7402H4.71248Z" fill="#FFDA2D"/>
<path d="M17.2801 19.0398C17.1745 18.9342 17.1745 18.763 17.2801 18.6574L18.3014 17.6361C17.45 16.503 16.4344 15.3962 15.4052 14.4131L14.0725 15.7458C13.9669 15.8514 13.7957 15.8514 13.6901 15.7458C13.5845 15.6402 13.5845 15.469 13.6901 15.3634L15.0107 14.0428C14.305 13.3935 13.5977 12.8089 12.9176 12.3113L11.7778 13.4511C11.6722 13.5568 11.501 13.5568 11.3954 13.4511C11.2897 13.3455 11.2897 13.1743 11.3954 13.0687L12.4703 11.9938C11.7523 11.5008 10.3637 10.6348 9.495 10.6348C9.29883 10.6348 9.16447 10.6826 9.08684 10.7602C8.85129 10.9958 8.89025 11.7535 9.70605 13.1738C10.4746 14.5116 11.7213 16.0719 13.2168 17.5673C16.6048 20.9554 19.4648 22.256 20.0238 21.6973C20.3937 21.3274 19.9489 19.9497 18.6241 18.0783L17.6624 19.04C17.5569 19.1454 17.3857 19.1455 17.2801 19.0398ZM14.9341 19.8543H6.03041L4.89551 23.1988H15.5115L18.6022 22.1501C17.3761 21.7072 15.9445 20.6794 14.9341 19.8543Z" fill="#FFDA2D"/>
</svg>
