<svg width="31" height="30" viewBox="0 0 31 30" fill="none" xmlns="http://www.w3.org/2000/svg">
<path d="M20.6543 10.7812L19.248 12.6562L17.8418 10.7812H20.6543Z" fill="#BDDBFF"/>
<path d="M17.8418 10.7812L19.248 12.6562H16.4355L17.8418 10.7812Z" fill="#BDDBFF"/>
<path d="M23.4668 10.7812L22.0605 12.6562L20.6543 10.7812H23.4668Z" fill="#BDDBFF"/>
<path d="M20.6543 10.7812L22.0605 12.6562H19.248L20.6543 10.7812Z" fill="#BDDBFF"/>
<path d="M23.4668 10.7812L24.873 12.6562H22.0605L23.4668 10.7812Z" fill="#BDDBFF"/>
<path d="M22.0605 12.6562H19.248H16.4355L18.1781 14.9801L19.3693 16.568L20.6543 18.2812L21.9393 16.568L23.1305 14.9801L24.873 12.6562H22.0605Z" fill="#BDDBFF"/>
<path d="M12.6855 10.7812H9.87305H7.06055L8.80313 13.1051L9.99434 14.693L11.2793 16.4062L12.5643 14.693L13.7555 13.1051L15.498 10.7812H12.6855Z" fill="#BDDBFF"/>
<path d="M14.0918 8.90625L12.6855 10.7812L11.2793 8.90625H14.0918Z" fill="#BDDBFF"/>
<path d="M11.2793 8.90625L9.87305 10.7812L8.4668 8.90625H11.2793Z" fill="#BDDBFF"/>
<path d="M14.0918 8.90625L15.498 10.7812H12.6855L14.0918 8.90625Z" fill="#BDDBFF"/>
<path d="M11.2793 8.90625L12.6855 10.7812H9.87305L11.2793 8.90625Z" fill="#BDDBFF"/>
<path d="M8.4668 8.90625L9.87305 10.7812H7.06055L8.4668 8.90625Z" fill="#BDDBFF"/>
<path d="M28.5891 5.28111C28.7133 5.49653 28.7469 5.75243 28.6825 5.99259C28.6181 6.23276 28.461 6.43755 28.2458 6.56197L27.4336 7.03072L25.81 7.96822L24.8725 6.34458L24.4038 5.53248C24.3404 5.42579 24.2988 5.30758 24.2815 5.18471C24.2642 5.06184 24.2714 4.93675 24.3028 4.8167C24.3341 4.69664 24.389 4.58401 24.4642 4.48532C24.5395 4.38664 24.6336 4.30388 24.741 4.24183C24.8485 4.17978 24.9672 4.13968 25.0903 4.12386C25.2133 4.10804 25.3383 4.11681 25.458 4.14966C25.5776 4.18251 25.6896 4.23878 25.7873 4.31523C25.8851 4.39167 25.9667 4.48676 26.0274 4.59498L26.4961 5.40708L27.3083 4.93833C27.4149 4.87673 27.5326 4.83673 27.6546 4.82061C27.7767 4.8045 27.9007 4.81259 28.0197 4.84442C28.1386 4.87625 28.2501 4.9312 28.3478 5.00612C28.4455 5.08105 28.5275 5.17449 28.5891 5.28111ZM17.9549 1.84107C18.0421 1.9281 18.1112 2.03145 18.1583 2.14521C18.2055 2.25897 18.2297 2.38091 18.2297 2.50406C18.2297 2.6272 18.2055 2.74914 18.1583 2.8629C18.1112 2.97666 18.0421 3.08001 17.9549 3.16705L17.2922 3.82974L15.9663 5.15572L14.6403 3.82974L13.9776 3.16705C13.8018 2.99121 13.703 2.75273 13.703 2.50406C13.703 2.25539 13.8018 2.0169 13.9776 1.84107C14.1534 1.66523 14.3919 1.56645 14.6406 1.56645C14.8893 1.56645 15.1277 1.66523 15.3036 1.84107L15.9663 2.50435L16.629 1.84107C16.716 1.75399 16.8194 1.68492 16.9331 1.63779C17.0469 1.59066 17.1688 1.56641 17.292 1.56641C17.4151 1.56641 17.537 1.59066 17.6508 1.63779C17.7645 1.68492 17.8679 1.75399 17.9549 1.84107ZM7.18541 3.31412C7.29207 3.37566 7.38557 3.45761 7.46056 3.55529C7.53554 3.65297 7.59055 3.76447 7.62244 3.88341C7.65432 4.00236 7.66246 4.12642 7.64639 4.24851C7.63032 4.3706 7.59035 4.48833 7.52877 4.59498L7.06002 5.40708L6.12252 7.03072L4.49888 6.09322L3.68678 5.62447C3.57856 5.56375 3.48347 5.48215 3.40703 5.38441C3.33058 5.28666 3.27431 5.17471 3.24146 5.05505C3.20861 4.93539 3.19984 4.8104 3.21566 4.68733C3.23148 4.56425 3.27158 4.44554 3.33363 4.33808C3.39568 4.23062 3.47844 4.13655 3.57712 4.06132C3.67581 3.98609 3.78844 3.93119 3.9085 3.89982C4.02855 3.86845 4.15364 3.86123 4.27651 3.87857C4.39938 3.89591 4.51759 3.93747 4.62428 4.00083L5.43638 4.46958L5.90513 3.65748C6.02942 3.44221 6.2341 3.28512 6.47418 3.22073C6.71426 3.15634 6.97009 3.18993 7.18541 3.31412Z" fill="#BDDBFF"/>
<path d="M23.8636 14.7825L25.2478 12.9368C25.3086 12.8557 25.3415 12.757 25.3415 12.6556C25.3415 12.5542 25.3086 12.4555 25.2478 12.3743L23.8415 10.4993C23.7978 10.4411 23.7412 10.3939 23.6761 10.3613C23.6111 10.3288 23.5393 10.3118 23.4665 10.3118H17.8415C17.7687 10.3118 17.697 10.3288 17.6319 10.3613C17.5668 10.3939 17.5102 10.4411 17.4665 10.4993L16.0603 12.3743C15.9994 12.4555 15.9665 12.5542 15.9665 12.6556C15.9665 12.757 15.9994 12.8557 16.0603 12.9368L17.4444 14.7825C17.3275 14.838 17.2122 14.8964 17.0983 14.9578C16.3929 14.0875 15.5011 13.3868 14.4885 12.9075L15.8728 11.0618C15.9336 10.9807 15.9665 10.882 15.9665 10.7806C15.9665 10.6792 15.9336 10.5805 15.8728 10.4993L14.4665 8.62432C14.4228 8.56611 14.3662 8.51886 14.3011 8.48631C14.2361 8.45377 14.1643 8.43682 14.0915 8.43682H8.46651C8.39374 8.43682 8.32197 8.45377 8.25688 8.48631C8.19179 8.51886 8.13518 8.56611 8.09151 8.62432L6.68526 10.4993C6.62441 10.5805 6.59151 10.6792 6.59151 10.7806C6.59151 10.882 6.62441 10.9807 6.68526 11.0618L8.06942 12.9075C7.16398 13.3357 6.35345 13.9408 5.68566 14.6873C5.01787 15.4337 4.50635 16.3064 4.18127 17.2537C3.85619 18.2011 3.72414 19.2039 3.79291 20.2031C3.86167 21.2023 4.12987 22.1777 4.58166 23.0715C5.03346 23.9654 5.65971 24.7598 6.42346 25.4077C7.18721 26.0556 8.073 26.544 9.02856 26.8441C9.98413 27.1442 10.9901 27.2498 11.9872 27.1548C12.9842 27.0598 13.9521 26.7661 14.8338 26.2909C15.5439 27.1648 16.4415 27.8675 17.4603 28.3471C18.479 28.8266 19.5926 29.0706 20.7185 29.0611C21.8444 29.0515 22.9537 28.7885 23.9641 28.2916C24.9745 27.7948 25.86 27.0768 26.5551 26.191C27.2501 25.3052 27.7368 24.2742 27.979 23.1747C28.2212 22.0751 28.2127 20.9351 27.9542 19.8392C27.6956 18.7433 27.1937 17.7198 26.4856 16.8444C25.7774 15.969 24.8813 15.2643 23.8636 14.7825ZM18.4338 17.4327C18.6755 17.3026 18.9283 17.1942 19.1892 17.1087L20.279 18.5618C20.2797 18.5627 20.2805 18.5635 20.2811 18.5643C20.291 18.5773 20.3015 18.5897 20.3126 18.6016C20.3149 18.6041 20.3174 18.6063 20.3197 18.6086C20.329 18.6181 20.3386 18.6271 20.3486 18.6357C20.352 18.6386 20.3552 18.6416 20.3586 18.6441C20.371 18.6543 20.3839 18.6639 20.3973 18.6727L20.3997 18.6742C20.4125 18.6825 20.4257 18.6899 20.4393 18.6969C20.4431 18.6989 20.4468 18.7007 20.4507 18.7027C20.463 18.7086 20.4756 18.7141 20.4884 18.719C20.4909 18.7199 20.4933 18.721 20.4958 18.7218C20.5111 18.7273 20.5268 18.732 20.5426 18.7359C20.546 18.7367 20.5494 18.7373 20.5528 18.7381C20.5656 18.7409 20.5785 18.7432 20.5916 18.7449C20.596 18.7455 20.6003 18.7462 20.6047 18.7466C20.6376 18.7505 20.6707 18.7505 20.7035 18.7466C20.7079 18.7462 20.7123 18.7455 20.7167 18.7449C20.7298 18.7432 20.7427 18.7409 20.7554 18.7381C20.7588 18.7373 20.7622 18.7367 20.7656 18.7359C20.7815 18.732 20.7971 18.7273 20.8125 18.7218C20.815 18.721 20.8174 18.7199 20.8198 18.719C20.8327 18.7141 20.8453 18.7087 20.8576 18.7027C20.8614 18.7009 20.8652 18.6991 20.869 18.6969C20.8825 18.6899 20.8958 18.6825 20.9085 18.6742L20.911 18.6727C20.9244 18.6639 20.9373 18.6543 20.9496 18.6441C20.953 18.6415 20.9563 18.6386 20.9596 18.6357C20.9696 18.6271 20.9793 18.6181 20.9885 18.6086C20.9909 18.6063 20.9933 18.6041 20.9956 18.6016C21.0068 18.5897 21.0173 18.5773 21.0271 18.5643C21.0278 18.5635 21.0286 18.5627 21.0292 18.5618L22.1189 17.1087C22.8109 17.3361 23.4405 17.7217 23.9575 18.2349C24.4746 18.748 24.8649 19.3747 25.0975 20.065C25.3301 20.7553 25.3987 21.4904 25.2977 22.2118C25.1967 22.9333 24.9289 23.6212 24.5157 24.2211C24.1024 24.821 23.555 25.3164 22.9169 25.6678C22.2788 26.0193 21.5676 26.2172 20.8397 26.2458C20.1118 26.2744 19.3872 26.133 18.7235 25.8328C18.0598 25.5325 17.4752 25.0817 17.016 24.5161C17.8291 23.55 18.3853 22.3943 18.6332 21.1562C18.881 19.918 18.8125 18.6373 18.434 17.4326L18.4338 17.4327ZM19.8481 13.1243H21.4599L20.654 16.3479L19.8481 13.1243ZM20.1853 12.1868L20.654 11.5618L21.1228 12.1868H20.1853ZM21.5915 11.2493H22.529L22.0603 11.8743L21.5915 11.2493ZM19.2478 11.8743L18.779 11.2493H19.7165L19.2478 11.8743ZM18.3103 12.1868H17.3728L17.8415 11.5618L18.3103 12.1868ZM18.8818 13.1243L19.6363 16.1424L17.3728 13.1243H18.8818ZM21.6717 16.1424L22.4262 13.1243H23.9353L21.6717 16.1424ZM23.9353 12.1868H22.9978L23.4665 11.5618L23.9353 12.1868ZM18.6004 16.3235C18.2554 16.4589 17.9247 16.6282 17.6132 16.829C16.9526 17.2552 16.3879 17.8141 15.955 18.4702C15.3492 19.3874 15.0271 20.4627 15.029 21.5618C15.0293 21.8453 15.0508 22.1284 15.0935 22.4087C14.8689 22.7222 14.6069 23.0071 14.3132 23.257C13.909 21.7414 14.0605 20.1312 14.7404 18.7176C15.4203 17.304 16.5836 16.1805 18.02 15.5501L18.6004 16.3235ZM12.2967 14.2669L13.0512 11.2493H14.5603L12.2967 14.2669ZM12.0849 11.2493L11.279 14.4729L10.4731 11.2493H12.0849ZM10.8103 10.3118L11.279 9.6868L11.7478 10.3118H10.8103ZM12.2165 9.37432H13.154L12.6853 9.99928L12.2165 9.37432ZM9.87276 9.99928L9.40401 9.37432H10.3415L9.87276 9.99928ZM8.93526 10.3118H7.99776L8.46651 9.6868L8.93526 10.3118ZM9.50679 11.2493L10.2613 14.2674L7.99776 11.2493H9.50679ZM10.904 16.6868C10.9047 16.6877 10.9055 16.6885 10.9061 16.6893C10.916 16.7023 10.9265 16.7147 10.9376 16.7266C10.9399 16.7291 10.9424 16.7313 10.9447 16.7336C10.954 16.7431 10.9636 16.7521 10.9736 16.7607C10.977 16.7636 10.9802 16.7666 10.9836 16.7691C10.996 16.7793 11.0089 16.7889 11.0223 16.7977L11.0247 16.7992C11.0375 16.8075 11.0507 16.8149 11.0643 16.8219C11.0681 16.8239 11.0718 16.8257 11.0757 16.8277C11.088 16.8336 11.1006 16.8391 11.1134 16.844C11.1159 16.8449 11.1183 16.846 11.1208 16.8468C11.1361 16.8523 11.1518 16.857 11.1676 16.8609C11.171 16.8617 11.1744 16.8623 11.1778 16.8631C11.1906 16.8659 11.2035 16.8682 11.2166 16.8699C11.221 16.8705 11.2253 16.8712 11.2297 16.8716C11.2626 16.8755 11.2957 16.8755 11.3285 16.8716C11.3329 16.8712 11.3373 16.8705 11.3416 16.8699C11.3548 16.8682 11.3677 16.8659 11.3804 16.8631C11.3838 16.8623 11.3872 16.8617 11.3906 16.8609C11.4065 16.857 11.4221 16.8523 11.4375 16.8468C11.44 16.846 11.4424 16.8449 11.4448 16.844C11.4577 16.8391 11.4703 16.8337 11.4826 16.8277C11.4864 16.8259 11.4902 16.8241 11.494 16.8219C11.5075 16.8149 11.5208 16.8075 11.5335 16.7992L11.536 16.7977C11.5494 16.7889 11.5623 16.7793 11.5746 16.7691C11.578 16.7665 11.5813 16.7636 11.5846 16.7607C11.5947 16.7521 11.6043 16.7431 11.6135 16.7336C11.6159 16.7313 11.6183 16.7291 11.6206 16.7266C11.6318 16.7147 11.6423 16.7023 11.6521 16.6893C11.6528 16.6885 11.6536 16.6877 11.6542 16.6868L12.7439 15.2341C13.5969 15.5148 14.3513 16.0348 14.917 16.7322C14.1041 17.6984 13.548 18.8541 13.3002 20.0922C13.0524 21.3304 13.1209 22.611 13.4994 23.8157C12.9267 24.1234 12.2963 24.3086 11.6482 24.3595C11.0001 24.4105 10.3485 24.3261 9.73475 24.1117C9.12101 23.8973 8.55858 23.5576 8.08319 23.1141C7.60779 22.6707 7.22983 22.1332 6.97331 21.5359C6.7168 20.9385 6.58733 20.2943 6.59315 19.6442C6.59897 18.9942 6.73993 18.3524 7.0071 17.7597C7.27426 17.167 7.66178 16.6364 8.14503 16.2015C8.62828 15.7667 9.1967 15.4371 9.81417 15.2337L10.904 16.6868ZM16.2966 15.4574C16.0419 15.6395 15.7989 15.8374 15.569 16.0499C14.9672 15.3396 14.1985 14.7898 13.3318 14.4497L13.9126 13.6755C14.8336 14.0783 15.6494 14.6881 16.2966 15.4574ZM14.5603 10.3118H13.6228L14.0915 9.6868L14.5603 10.3118ZM4.71651 19.6868C4.7163 18.4114 5.08781 17.1635 5.78559 16.0959C6.48338 15.0283 7.47719 14.1872 8.64546 13.6755L9.22554 14.4489C8.23826 14.8351 7.38014 15.4924 6.75 16.3449C6.11986 17.1974 5.74332 18.2106 5.66375 19.2678C5.58417 20.3249 5.8048 21.383 6.30022 22.3203C6.79564 23.2576 7.5457 24.0358 8.46404 24.5655C9.38238 25.0952 10.4316 25.3547 11.491 25.3142C12.5504 25.2737 13.5768 24.9348 14.452 24.3365C15.3272 23.7383 16.0156 22.905 16.438 21.9327C16.8604 20.9603 16.9996 19.8884 16.8396 18.8404C17.0641 18.5268 17.3261 18.2418 17.6198 17.9918C17.861 18.8941 17.9067 19.8375 17.7541 20.7589C17.6014 21.6804 17.2539 22.5586 16.7346 23.335C16.2153 24.1113 15.5364 24.7679 14.743 25.2608C13.9497 25.7538 13.0603 26.0717 12.1342 26.1933C11.2082 26.315 10.2668 26.2376 9.37311 25.9663C8.47938 25.695 7.65385 25.236 6.95169 24.6201C6.24954 24.0042 5.68693 23.2456 5.30147 22.3948C4.91602 21.544 4.71659 20.6208 4.71651 19.6868ZM20.654 28.1243C19.6985 28.1226 18.7549 27.9129 17.8885 27.5099C17.0222 27.1069 16.2539 26.5202 15.6371 25.7905C15.8914 25.6085 16.134 25.4109 16.3637 25.1987C16.9171 25.8513 17.6122 26.369 18.3959 26.7125C19.1797 27.0559 20.0314 27.216 20.8864 27.1806C21.7413 27.1452 22.5769 26.9152 23.3296 26.5082C24.0823 26.1011 24.7321 25.5276 25.2297 24.8315C25.7273 24.1354 26.0596 23.3349 26.2011 22.491C26.3427 21.6471 26.2898 20.782 26.0466 19.9616C25.8034 19.1412 25.3762 18.3871 24.7976 17.7567C24.219 17.1264 23.5042 16.6363 22.7075 16.3238L23.2876 15.5504C24.6682 16.1549 25.7986 17.2162 26.4889 18.5559C27.1792 19.8956 27.3874 21.4321 27.0784 22.9072C26.7695 24.3822 25.9622 25.706 24.7923 26.6561C23.6224 27.6062 22.1611 28.1246 20.654 28.1243ZM6.12229 7.49932C6.20465 7.4994 6.28558 7.47778 6.35693 7.43664C6.42827 7.39549 6.48752 7.33627 6.5287 7.26495L7.93495 4.82921C8.12143 4.50621 8.17196 4.12236 8.07543 3.7621C7.97889 3.40184 7.7432 3.09469 7.4202 2.90821C7.0972 2.72173 6.71336 2.6712 6.3531 2.76773C5.99284 2.86427 5.68569 3.09996 5.49921 3.42296L5.26483 3.82889L4.8589 3.59452C4.69894 3.50157 4.52221 3.44109 4.33884 3.41655C4.15547 3.39202 3.96906 3.40391 3.79029 3.45154C3.61153 3.49917 3.44391 3.58161 3.29706 3.69413C3.15021 3.80665 3.027 3.94704 2.9345 4.10725C2.84199 4.26747 2.78202 4.44437 2.758 4.62781C2.73398 4.81125 2.74639 4.99762 2.79452 5.17625C2.84266 5.35489 2.92557 5.52227 3.0385 5.6688C3.15143 5.81534 3.29217 5.93815 3.45265 6.0302L5.88833 7.43645C5.95941 7.47766 6.04013 7.49935 6.12229 7.49932ZM3.74972 4.57807C3.81196 4.47048 3.91434 4.39199 4.0344 4.35981C4.15446 4.32763 4.28238 4.34441 4.39009 4.40645L5.20196 4.8752C5.30962 4.93736 5.43757 4.9542 5.55765 4.92203C5.67773 4.88986 5.78011 4.8113 5.84227 4.70364L6.31102 3.89171C6.34158 3.83797 6.38246 3.7908 6.43132 3.75292C6.48017 3.71505 6.53604 3.68721 6.5957 3.67101C6.65536 3.65482 6.71763 3.65058 6.77894 3.65855C6.84024 3.66652 6.89936 3.68653 6.9529 3.71744C7.00643 3.74835 7.05333 3.78955 7.09088 3.83865C7.12843 3.88776 7.15589 3.94381 7.1717 4.00358C7.1875 4.06334 7.19132 4.12564 7.18295 4.18689C7.17457 4.24814 7.15416 4.30713 7.1229 4.36046L5.95102 6.3902L3.92134 5.21833C3.81379 5.15608 3.73532 5.05371 3.70315 4.93368C3.67098 4.81366 3.68772 4.68577 3.74972 4.57807ZM28.9951 5.04676C28.8083 4.72413 28.5011 4.48875 28.141 4.39227C27.7809 4.29578 27.3972 4.34606 27.0741 4.53208L26.6681 4.76645L26.4338 4.36051C26.3414 4.20058 26.2185 4.0604 26.072 3.94798C25.9255 3.83555 25.7582 3.75309 25.5799 3.70529C25.4015 3.65749 25.2154 3.6453 25.0323 3.6694C24.8492 3.6935 24.6727 3.75343 24.5128 3.84577C24.3528 3.9381 24.2126 4.06104 24.1002 4.20755C23.9878 4.35406 23.9053 4.52128 23.8575 4.69966C23.8097 4.87804 23.7975 5.06409 23.8216 5.24718C23.8458 5.43028 23.9057 5.60683 23.998 5.76676L25.4043 8.20245C25.435 8.25576 25.476 8.30249 25.5249 8.33997C25.5737 8.37745 25.6295 8.40494 25.6889 8.42087C25.7484 8.4368 25.8104 8.44086 25.8714 8.43282C25.9325 8.42478 25.9913 8.4048 26.0446 8.37401L28.4803 6.96776C28.803 6.78096 29.0384 6.47382 29.1349 6.11369C29.2314 5.75357 29.1811 5.36987 28.9951 5.04676ZM28.0116 6.15589L25.9819 7.32776L24.81 5.29801C24.7787 5.24468 24.7583 5.1857 24.75 5.12445C24.7416 5.0632 24.7454 5.0009 24.7612 4.94113C24.777 4.88137 24.8045 4.82532 24.842 4.77621C24.8796 4.72711 24.9265 4.68591 24.98 4.655C25.0335 4.62409 25.0927 4.60408 25.154 4.59611C25.2153 4.58814 25.2775 4.59238 25.3372 4.60857C25.3969 4.62477 25.4527 4.65261 25.5016 4.69048C25.5504 4.72836 25.5913 4.77552 25.6219 4.82926L26.0906 5.64114C26.1528 5.7488 26.2552 5.82736 26.3753 5.85953C26.4953 5.8917 26.6233 5.87486 26.7309 5.8127L27.5428 5.34395C27.6505 5.28179 27.7784 5.26495 27.8985 5.29713C28.0186 5.32931 28.121 5.40788 28.1832 5.51554C28.2453 5.62321 28.2622 5.75117 28.23 5.87125C28.1978 5.99134 28.1192 6.09373 28.0116 6.15589ZM15.635 5.48704C15.6786 5.53057 15.7303 5.5651 15.7871 5.58866C15.844 5.61222 15.905 5.62434 15.9665 5.62434C16.0281 5.62434 16.089 5.61222 16.1459 5.58866C16.2028 5.5651 16.2544 5.53057 16.298 5.48704L18.2868 3.49831C18.4174 3.36772 18.521 3.21269 18.5917 3.04207C18.6623 2.87145 18.6987 2.68858 18.6987 2.5039C18.6987 2.31922 18.6623 2.13636 18.5916 1.96574C18.5209 1.79513 18.4174 1.6401 18.2868 1.50952C18.1562 1.37894 18.0011 1.27536 17.8305 1.20469C17.6599 1.13402 17.477 1.09765 17.2924 1.09766C17.1077 1.09766 16.9248 1.13404 16.7542 1.20472C16.5836 1.2754 16.4286 1.37899 16.298 1.50958L15.9665 1.84104L15.635 1.50952C15.3711 1.24623 15.0135 1.09837 14.6407 1.09837C14.2679 1.09837 13.9103 1.24623 13.6463 1.50952C13.383 1.77344 13.2351 2.13104 13.2351 2.50385C13.2351 2.87667 13.383 3.23427 13.6463 3.49819L15.635 5.48704ZM14.3092 2.17251C14.3972 2.08474 14.5164 2.03545 14.6407 2.03545C14.7649 2.03545 14.8841 2.08474 14.9721 2.17251L15.635 2.83526C15.6786 2.87879 15.7303 2.91332 15.7871 2.93688C15.844 2.96044 15.905 2.97256 15.9665 2.97256C16.0281 2.97256 16.089 2.96044 16.1459 2.93688C16.2028 2.91332 16.2544 2.87879 16.298 2.83526L16.9608 2.17251C17.0491 2.08621 17.1678 2.03818 17.2912 2.03885C17.4146 2.03952 17.5328 2.08883 17.62 2.17608C17.7073 2.26333 17.7567 2.38148 17.7574 2.50489C17.7581 2.6283 17.7101 2.74701 17.6238 2.83526L15.9665 4.49264L14.3092 2.83526C14.2215 2.74728 14.1722 2.62807 14.1722 2.5038C14.1722 2.37952 14.2215 2.26032 14.3092 2.17233L14.3092 2.17251Z" fill="#3D9AE2"/>
</svg>
