<svg width="31" height="30" viewBox="0 0 31 30" fill="none" xmlns="http://www.w3.org/2000/svg">
<g clip-path="url(#clip0_2_5809)">
<path d="M24.9956 25.5427C25.1036 25.5426 25.209 25.5098 25.2979 25.4485C25.3868 25.3873 25.455 25.3004 25.4935 25.1996C25.532 25.0987 25.5389 24.9885 25.5134 24.8836C25.4879 24.7787 25.4311 24.684 25.3506 24.6121L20.1344 19.9527C20.087 19.9106 20.0535 19.8551 20.0383 19.7935C20.0232 19.7319 20.0271 19.6672 20.0497 19.608C20.0722 19.5487 20.1122 19.4977 20.1644 19.4617C20.2166 19.4257 20.2785 19.4064 20.3419 19.4064H22.7981C22.8997 19.4067 22.9991 19.378 23.0849 19.3238C23.1707 19.2695 23.2393 19.1919 23.2825 19.1C23.3258 19.0081 23.3419 18.9059 23.3291 18.8052C23.3162 18.7044 23.2749 18.6095 23.21 18.5314L19.21 13.6746C19.1721 13.6288 19.148 13.5732 19.1406 13.5142C19.1332 13.4553 19.1427 13.3954 19.1681 13.3417C19.1935 13.2879 19.2337 13.2426 19.2839 13.2109C19.3342 13.1792 19.3925 13.1624 19.4519 13.1627H20.9163C21.3081 13.1627 21.6469 12.9002 21.3688 12.5896L16.3906 6.41143C16.3415 6.34743 16.2784 6.29543 16.2062 6.25935C16.134 6.22328 16.0545 6.20406 15.9738 6.20316C15.8931 6.20226 15.8133 6.21969 15.7403 6.25414C15.6673 6.2886 15.6031 6.33917 15.5525 6.40206C15.5525 6.40206 10.7506 12.3839 10.565 12.5896C10.2869 12.9021 10.6275 13.1627 11.0175 13.1627H12.4819C12.5413 13.1624 12.5996 13.1792 12.6498 13.2109C12.7001 13.2426 12.7403 13.2879 12.7657 13.3417C12.7911 13.3954 12.8006 13.4553 12.7932 13.5142C12.7857 13.5732 12.7617 13.6288 12.7238 13.6746L8.72375 18.5314C8.65885 18.6095 8.61755 18.7044 8.6047 18.8052C8.59186 18.9059 8.608 19.0081 8.65124 19.1C8.69448 19.1919 8.76302 19.2695 8.84881 19.3238C8.93461 19.378 9.03411 19.4067 9.13563 19.4064H11.5919C11.6554 19.4062 11.7175 19.4252 11.7699 19.4611C11.8223 19.497 11.8625 19.548 11.8851 19.6074C11.9078 19.6667 11.9119 19.7315 11.8968 19.7932C11.8817 19.8549 11.8481 19.9105 11.8006 19.9527L6.58313 24.6121C6.50263 24.684 6.44587 24.7787 6.42037 24.8836C6.39486 24.9885 6.4018 25.0987 6.44028 25.1996C6.47876 25.3004 6.54697 25.3873 6.63586 25.4485C6.72476 25.5098 6.83016 25.5426 6.93813 25.5427H24.9956Z" fill="#3B8F75"/>
<path d="M14.2295 25.543H17.3064V29.013C17.3064 29.1014 17.2891 29.189 17.2553 29.2708C17.2215 29.3525 17.1719 29.4268 17.1094 29.4893C17.0469 29.5519 16.9727 29.6016 16.891 29.6354C16.8093 29.6693 16.7217 29.6867 16.6332 29.6867H14.9045C14.8161 29.6867 14.7286 29.6693 14.6469 29.6355C14.5652 29.6017 14.491 29.5521 14.4285 29.4896C14.366 29.4271 14.3164 29.3529 14.2826 29.2712C14.2488 29.1895 14.2314 29.102 14.2314 29.0136V25.543H14.2295Z" fill="#BA8680"/>
<path d="M15.8078 4.66031L14.6778 5.34406C14.6258 5.37535 14.5657 5.39064 14.5051 5.38801C14.4445 5.38539 14.386 5.36496 14.337 5.32929C14.2879 5.29362 14.2504 5.24429 14.2292 5.18744C14.208 5.1306 14.204 5.06878 14.2178 5.00968L14.5184 3.72406C14.5313 3.66924 14.5288 3.61194 14.5114 3.55839C14.494 3.50484 14.4623 3.45708 14.4196 3.42031L13.4196 2.55656C13.3736 2.51694 13.3403 2.46459 13.3239 2.4061C13.3075 2.34761 13.3088 2.28558 13.3276 2.22781C13.3463 2.17004 13.3818 2.11911 13.4294 2.08141C13.477 2.04371 13.5347 2.02093 13.5953 2.01593L14.9109 1.90468C14.9669 1.90003 15.0207 1.88009 15.0662 1.84703C15.1117 1.81397 15.1472 1.76906 15.169 1.71718L15.6828 0.499058C15.7064 0.443168 15.746 0.395481 15.7965 0.361954C15.8471 0.328427 15.9065 0.310547 15.9671 0.310547C16.0278 0.310547 16.0871 0.328427 16.1377 0.361954C16.1883 0.395481 16.2279 0.443168 16.2515 0.499058L16.764 1.71593C16.7858 1.76781 16.8213 1.81272 16.8669 1.84578C16.9124 1.87884 16.9661 1.89878 17.0221 1.90343L18.3378 2.01468C18.3983 2.01968 18.456 2.04246 18.5036 2.08016C18.5513 2.11786 18.5867 2.16879 18.6054 2.22656C18.6242 2.28433 18.6255 2.34636 18.6091 2.40485C18.5927 2.46334 18.5594 2.51569 18.5134 2.55531L17.5134 3.41906C17.4707 3.45583 17.439 3.50359 17.4216 3.55714C17.4042 3.61069 17.4018 3.66799 17.4146 3.72281L17.7171 5.00968C17.7309 5.06878 17.7269 5.1306 17.7057 5.18744C17.6845 5.24429 17.647 5.29362 17.5979 5.32929C17.5489 5.36496 17.4904 5.38539 17.4298 5.38801C17.3691 5.39064 17.3091 5.37535 17.2571 5.34406L16.1265 4.66031C16.0785 4.63118 16.0233 4.61578 15.9671 4.61578C15.9109 4.61578 15.8558 4.63118 15.8078 4.66031Z" fill="#FFC492"/>
<path d="M16.5813 11.5298C17.1084 11.5298 17.5357 11.1026 17.5357 10.5755C17.5357 10.0484 17.1084 9.62109 16.5813 9.62109C16.0542 9.62109 15.627 10.0484 15.627 10.5755C15.627 11.1026 16.0542 11.5298 16.5813 11.5298Z" fill="#F8DDC6"/>
<path d="M14.1005 17.5837C14.814 17.5837 15.3923 17.0054 15.3923 16.2919C15.3923 15.5784 14.814 15 14.1005 15C13.387 15 12.8086 15.5784 12.8086 16.2919C12.8086 17.0054 13.387 17.5837 14.1005 17.5837Z" fill="#E9535C"/>
<path d="M18.4706 18.2966C18.9079 18.2966 19.2625 17.9421 19.2625 17.5048C19.2625 17.0674 18.9079 16.7129 18.4706 16.7129C18.0332 16.7129 17.6787 17.0674 17.6787 17.5048C17.6787 17.9421 18.0332 18.2966 18.4706 18.2966Z" fill="#FCBABE"/>
<path d="M19.1066 23.9065C19.6789 23.9065 20.1428 23.4425 20.1428 22.8702C20.1428 22.2979 19.6789 21.834 19.1066 21.834C18.5343 21.834 18.0703 22.2979 18.0703 22.8702C18.0703 23.4425 18.5343 23.9065 19.1066 23.9065Z" fill="#8CB289"/>
<path d="M14.1005 22.0974C14.5378 22.0974 14.8923 21.7429 14.8923 21.3055C14.8923 20.8682 14.5378 20.5137 14.1005 20.5137C13.6631 20.5137 13.3086 20.8682 13.3086 21.3055C13.3086 21.7429 13.6631 22.0974 14.1005 22.0974Z" fill="#FFC492"/>
<path d="M25.562 24.3745L20.342 19.7232H22.7983C22.9593 19.7232 23.117 19.6775 23.253 19.5913C23.389 19.5051 23.4977 19.382 23.5664 19.2363C23.6352 19.0907 23.6611 18.9286 23.6411 18.7688C23.6212 18.609 23.5563 18.4582 23.4539 18.3339L19.4539 13.4814H20.9189C21.0833 13.4937 21.2478 13.4592 21.3932 13.3817C21.5387 13.3043 21.6593 13.1871 21.7408 13.0439C21.7869 12.9357 21.7997 12.8162 21.7774 12.7007C21.7551 12.5852 21.6988 12.479 21.6158 12.3957L16.6408 6.21887C16.5623 6.11713 16.4617 6.03453 16.3467 5.97725C16.2316 5.91998 16.1051 5.88954 15.9766 5.88822C15.8481 5.8869 15.721 5.91472 15.6048 5.96961C15.4886 6.0245 15.3864 6.10502 15.3058 6.20512C13.3808 8.60324 10.467 12.2276 10.3289 12.382C10.2431 12.4661 10.1846 12.5741 10.1608 12.6918C10.1371 12.8096 10.1493 12.9318 10.1958 13.0426C10.2773 13.1859 10.3978 13.303 10.5433 13.3805C10.6888 13.4579 10.8533 13.4925 11.0177 13.4801L12.4802 13.4751L8.48016 18.3326C8.37779 18.4569 8.31285 18.6077 8.29293 18.7675C8.27301 18.9273 8.29892 19.0895 8.36763 19.2351C8.43635 19.3807 8.54505 19.5038 8.68105 19.59C8.81706 19.6762 8.97476 19.722 9.13578 19.722L11.592 19.7176L6.37203 24.3745C6.2438 24.4892 6.15342 24.6401 6.11284 24.8073C6.07226 24.9744 6.0834 25.15 6.14478 25.3107C6.20616 25.4714 6.31489 25.6097 6.45659 25.7072C6.59828 25.8048 6.76626 25.857 6.93828 25.857H24.9958C25.1677 25.8567 25.3354 25.8043 25.4769 25.7066C25.6184 25.609 25.7269 25.4708 25.7882 25.3103C25.8496 25.1497 25.8608 24.9743 25.8204 24.8073C25.78 24.6402 25.6899 24.4893 25.562 24.3745ZM25.1989 25.0864C25.1841 25.1281 25.1565 25.164 25.12 25.1891C25.0835 25.2141 25.04 25.227 24.9958 25.2257H6.93828C6.89415 25.2258 6.85103 25.2125 6.81466 25.1875C6.77829 25.1625 6.75038 25.127 6.73464 25.0858C6.71891 25.0445 6.71609 24.9995 6.72657 24.9566C6.73704 24.9138 6.76031 24.8751 6.79328 24.8457L12.0102 20.187C12.1044 20.102 12.1707 19.9906 12.2003 19.8672C12.23 19.7439 12.2217 19.6144 12.1765 19.4959C12.1312 19.3774 12.0512 19.2753 11.9469 19.2031C11.8426 19.1309 11.7189 19.092 11.592 19.0914H9.13578C9.09456 19.0914 9.05418 19.0797 9.01934 19.0576C8.98451 19.0356 8.95666 19.0041 8.93904 18.9668C8.92142 18.9296 8.91475 18.888 8.91982 18.8471C8.92489 18.8062 8.94148 18.7676 8.96766 18.7357L12.9677 13.8789C13.0451 13.7874 13.0946 13.6756 13.1102 13.5568C13.1259 13.438 13.1071 13.3172 13.0561 13.2088C13.005 13.1004 12.9239 13.009 12.8223 12.9454C12.7208 12.8818 12.6031 12.8487 12.4833 12.8501H11.0177C10.9423 12.8535 10.8674 12.8373 10.8002 12.8032C10.9877 12.5939 15.3064 7.21324 15.8002 6.60074C15.8202 6.57571 15.8456 6.55548 15.8745 6.54153C15.9033 6.52758 15.935 6.52026 15.967 6.52012C16.0011 6.52169 16.0345 6.53053 16.0649 6.54605C16.0953 6.56157 16.122 6.58342 16.1433 6.61012L21.1645 12.777C21.0924 12.8301 21.0039 12.856 20.9145 12.8501H19.4514C19.3317 12.8488 19.2142 12.8819 19.1127 12.9455C19.0113 13.0091 18.9302 13.1004 18.8792 13.2087C18.8282 13.317 18.8094 13.4377 18.8249 13.5564C18.8405 13.675 18.8898 13.7868 18.967 13.8782L22.967 18.7357C22.9932 18.7676 23.0098 18.8062 23.0149 18.8471C23.0199 18.888 23.0133 18.9296 22.9957 18.9668C22.978 19.0041 22.9502 19.0356 22.9154 19.0576C22.8805 19.0797 22.8401 19.0914 22.7989 19.0914H20.342C20.2147 19.0913 20.0903 19.1299 19.9853 19.2021C19.8804 19.2743 19.7998 19.3767 19.7544 19.4957C19.7089 19.6147 19.7007 19.7447 19.7307 19.8685C19.7608 19.9922 19.8277 20.104 19.9227 20.1889L25.1395 24.8476C25.1736 24.8763 25.1977 24.915 25.2084 24.9583C25.219 25.0015 25.2157 25.047 25.1989 25.0882V25.0864ZM17.3064 26.2901C17.2225 26.2901 17.1421 26.3234 17.0828 26.3827C17.0235 26.4421 16.9902 26.5225 16.9902 26.6064V29.0139C16.99 29.1086 16.9523 29.1995 16.8853 29.2665C16.8183 29.3335 16.7274 29.3712 16.6327 29.3714H14.9045C14.8098 29.3712 14.7191 29.3335 14.6521 29.2664C14.5852 29.1994 14.5477 29.1086 14.5477 29.0139V26.6064C14.5477 26.5225 14.5143 26.4421 14.455 26.3827C14.3957 26.3234 14.3153 26.2901 14.2314 26.2901C14.1475 26.2901 14.0671 26.3234 14.0078 26.3827C13.9485 26.4421 13.9152 26.5225 13.9152 26.6064V29.0139C13.9155 29.2761 14.0199 29.5275 14.2053 29.7129C14.3908 29.8982 14.6423 30.0025 14.9045 30.0026H16.6345C16.8968 30.0025 17.1482 29.8982 17.3337 29.7129C17.5192 29.5275 17.6236 29.2761 17.6239 29.0139V26.6064C17.6239 26.5647 17.6157 26.5235 17.5997 26.4851C17.5837 26.4466 17.5603 26.4117 17.5308 26.3823C17.5013 26.3529 17.4663 26.3296 17.4278 26.3138C17.3893 26.298 17.348 26.29 17.3064 26.2901ZM14.2102 3.65262L13.9102 4.93699C13.8821 5.05676 13.89 5.18214 13.9328 5.29745C13.9757 5.41275 14.0516 5.51283 14.1511 5.58517C14.2506 5.65751 14.3693 5.69887 14.4922 5.70409C14.6151 5.70931 14.7368 5.67814 14.842 5.61449L15.967 4.93699L17.092 5.61762C17.1975 5.68164 17.3196 5.713 17.443 5.70773C17.5663 5.70246 17.6852 5.66081 17.7849 5.58802C17.8846 5.51522 17.9605 5.41455 18.003 5.29869C18.0455 5.18284 18.0528 5.05698 18.0239 4.93699L17.7208 3.65824L18.7208 2.79512C18.8134 2.71463 18.8803 2.60866 18.9131 2.49042C18.9459 2.37219 18.9431 2.24691 18.9052 2.13022C18.8673 2.01352 18.7959 1.91057 18.6998 1.8342C18.6038 1.75783 18.4874 1.71141 18.3652 1.70074L17.0527 1.59387L16.5427 0.377617C16.4948 0.2645 16.4147 0.167988 16.3123 0.100134C16.21 0.0322805 16.0899 -0.00390625 15.967 -0.00390625C15.8442 -0.00390625 15.7241 0.0322805 15.6217 0.100134C15.5194 0.167988 15.4393 0.2645 15.3914 0.377617L14.8858 1.59012L13.5702 1.70137C13.448 1.71235 13.3318 1.75904 13.2359 1.83562C13.1401 1.9122 13.0689 2.01529 13.0313 2.13203C12.9936 2.24877 12.9912 2.37401 13.0242 2.49214C13.0572 2.61028 13.1243 2.71608 13.217 2.79637L14.2102 3.65262ZM14.9389 2.22012C15.0524 2.21038 15.161 2.16984 15.2531 2.10287C15.3452 2.0359 15.4172 1.94504 15.4614 1.84012L15.9602 0.624492L16.4727 1.84137C16.5169 1.94629 16.5889 2.03715 16.681 2.10412C16.7731 2.17109 16.8817 2.21163 16.9952 2.22137L18.3077 2.31949L17.3077 3.18324C17.2216 3.25778 17.1576 3.3544 17.1225 3.46268C17.0873 3.57095 17.0824 3.68676 17.1083 3.79762L17.4208 5.07512L16.2908 4.39137C16.1931 4.33224 16.0812 4.30098 15.967 4.30098C15.8529 4.30098 15.7409 4.33224 15.6433 4.39137L14.5252 5.07887L14.8258 3.79387C14.8517 3.68286 14.8468 3.56689 14.8115 3.45849C14.7763 3.35009 14.712 3.25339 14.6258 3.17887L13.6258 2.32824L14.9389 2.22012Z" fill="#363635"/>
<path d="M17.8519 10.5759C17.852 10.3246 17.7776 10.0789 17.6381 9.86991C17.4986 9.66089 17.3002 9.49793 17.0681 9.40165C16.836 9.30536 16.5805 9.28008 16.334 9.32898C16.0875 9.37789 15.8611 9.49879 15.6833 9.6764C15.5055 9.85402 15.3843 10.0804 15.3352 10.3268C15.2861 10.5733 15.3111 10.8288 15.4071 11.061C15.5032 11.2932 15.666 11.4917 15.8748 11.6315C16.0837 11.7712 16.3294 11.8458 16.5807 11.8459C16.9176 11.8458 17.2406 11.712 17.4789 11.4739C17.7173 11.2358 17.8514 10.9128 17.8519 10.5759ZM16.5807 11.2141C16.4542 11.2146 16.3304 11.1775 16.225 11.1076C16.1197 11.0377 16.0374 10.9381 15.9887 10.8213C15.94 10.7046 15.927 10.5761 15.9514 10.452C15.9758 10.3279 16.0365 10.2139 16.1258 10.1243C16.2151 10.0348 16.329 9.97373 16.453 9.94895C16.577 9.92417 16.7056 9.93676 16.8225 9.98513C16.9393 10.0335 17.0392 10.1155 17.1094 10.2206C17.1796 10.3258 17.217 10.4495 17.2169 10.5759C17.2167 10.7448 17.1497 10.9067 17.0305 11.0263C16.9113 11.1459 16.7495 11.2134 16.5807 11.2141ZM14.1 14.6872C13.7821 14.6873 13.4714 14.7817 13.2071 14.9584C12.9429 15.1351 12.7369 15.3862 12.6153 15.68C12.4938 15.9737 12.462 16.2969 12.5241 16.6087C12.5862 16.9205 12.7394 17.2068 12.9642 17.4316C13.189 17.6563 13.4755 17.8094 13.7873 17.8713C14.0991 17.9333 14.4223 17.9015 14.716 17.7798C15.0097 17.6581 15.2607 17.452 15.4373 17.1877C15.6139 16.9234 15.7082 16.6126 15.7082 16.2947C15.7077 15.8684 15.5381 15.4597 15.2366 15.1583C14.9351 14.857 14.5263 14.6875 14.1 14.6872ZM14.1 17.2703C13.9069 17.2704 13.7181 17.2133 13.5574 17.106C13.3968 16.9988 13.2716 16.8464 13.1976 16.6679C13.1236 16.4895 13.1042 16.2932 13.1419 16.1038C13.1795 15.9143 13.2725 15.7403 13.4091 15.6038C13.5457 15.4672 13.7197 15.3742 13.9091 15.3365C14.0985 15.2989 14.2949 15.3183 14.4733 15.3922C14.6517 15.4662 14.8042 15.5914 14.9114 15.7521C15.0186 15.9127 15.0758 16.1016 15.0757 16.2947C15.0747 16.5528 14.9715 16.8001 14.7886 16.9824C14.6058 17.1646 14.3582 17.267 14.1 17.2672V17.2703ZM19.5788 17.5047C19.5789 17.2855 19.514 17.0711 19.3923 16.8888C19.2706 16.7065 19.0975 16.5644 18.895 16.4804C18.6925 16.3965 18.4696 16.3745 18.2546 16.4172C18.0396 16.4599 17.8421 16.5655 17.6871 16.7205C17.5321 16.8755 17.4265 17.073 17.3838 17.288C17.3411 17.503 17.3631 17.7259 17.447 17.9284C17.531 18.1309 17.6731 18.304 17.8554 18.4257C18.0377 18.5474 18.2521 18.6123 18.4713 18.6122C18.7649 18.6119 19.0464 18.4951 19.254 18.2874C19.4617 18.0798 19.5785 17.7983 19.5788 17.5047ZM17.995 17.5047C17.995 17.4105 18.023 17.3184 18.0753 17.2401C18.1276 17.1618 18.202 17.1007 18.289 17.0647C18.3761 17.0286 18.4718 17.0192 18.5642 17.0376C18.6566 17.056 18.7414 17.1013 18.808 17.1679C18.8747 17.2345 18.92 17.3194 18.9384 17.4118C18.9568 17.5042 18.9473 17.5999 18.9113 17.6869C18.8752 17.774 18.8142 17.8483 18.7359 17.9007C18.6576 17.953 18.5655 17.9809 18.4713 17.9809C18.345 17.9808 18.224 17.9305 18.1347 17.8413C18.0454 17.752 17.9952 17.6309 17.995 17.5047ZM19.1057 21.5191C18.8382 21.5192 18.5767 21.5986 18.3544 21.7473C18.132 21.8961 17.9588 22.1074 17.8565 22.3546C17.7542 22.6017 17.7276 22.8737 17.7799 23.136C17.8322 23.3984 17.9611 23.6393 18.1504 23.8284C18.3396 24.0174 18.5807 24.1461 18.843 24.1982C19.1054 24.2503 19.3774 24.2234 19.6244 24.1209C19.8715 24.0184 20.0827 23.8449 20.2312 23.6225C20.3797 23.4 20.4589 23.1384 20.4588 22.8709C20.4583 22.5123 20.3155 22.1686 20.0618 21.9151C19.8082 21.6617 19.4643 21.5192 19.1057 21.5191ZM19.1057 23.5916C18.9631 23.5916 18.8238 23.5493 18.7053 23.4701C18.5868 23.3909 18.4944 23.2784 18.4399 23.1467C18.3853 23.015 18.3711 22.8701 18.3989 22.7304C18.4267 22.5906 18.4953 22.4622 18.5961 22.3614C18.6969 22.2606 18.8253 22.192 18.9651 22.1642C19.1049 22.1364 19.2498 22.1506 19.3814 22.2052C19.5131 22.2597 19.6257 22.3521 19.7048 22.4706C19.784 22.5891 19.8263 22.7284 19.8263 22.8709C19.8261 23.062 19.7501 23.2452 19.615 23.3803C19.4799 23.5154 19.2967 23.5914 19.1057 23.5916ZM14.1 20.1991C13.8808 20.1991 13.6666 20.2641 13.4843 20.3859C13.3021 20.5077 13.1601 20.6808 13.0762 20.8833C12.9924 21.0858 12.9704 21.3086 13.0133 21.5236C13.0561 21.7386 13.1617 21.936 13.3167 22.091C13.4717 22.2459 13.6692 22.3514 13.8842 22.3941C14.0992 22.4368 14.3221 22.4148 14.5245 22.3308C14.727 22.2468 14.9 22.1047 15.0217 21.9224C15.1434 21.7401 15.2083 21.5258 15.2082 21.3066C15.2078 21.0128 15.091 20.7312 14.8832 20.5236C14.6754 20.3159 14.3938 20.1992 14.1 20.1991ZM14.1 21.7828C14.0058 21.7829 13.9137 21.7551 13.8353 21.7029C13.7569 21.6506 13.6957 21.5763 13.6596 21.4893C13.6235 21.4022 13.6139 21.3065 13.6322 21.214C13.6505 21.1216 13.6959 21.0367 13.7624 20.97C13.829 20.9034 13.9139 20.8579 14.0063 20.8395C14.0987 20.8211 14.1945 20.8305 14.2815 20.8665C14.3686 20.9025 14.443 20.9636 14.4954 21.0419C14.5477 21.1202 14.5757 21.2123 14.5757 21.3066C14.5757 21.4328 14.5256 21.5538 14.4364 21.6431C14.3472 21.7324 14.2262 21.7826 14.1 21.7828Z" fill="#363635"/>
</g>
<defs>
<clipPath id="clip0_2_5809">
<rect width="30" height="30" fill="white" transform="translate(0.966797)"/>
</clipPath>
</defs>
</svg>
