<svg width="31" height="31" viewBox="0 0 31 31" fill="none" xmlns="http://www.w3.org/2000/svg">
<path d="M17.172 7.21824V5.46912C17.172 4.46694 17.9784 3.66016 18.98 3.66016H17.172C15.8364 3.66016 14.7612 4.73589 14.7612 6.07211V7.21824H17.172ZM14.1585 7.27809H17.7746C18.4424 7.27809 18.98 7.81601 18.98 8.48407C18.98 9.15223 18.98 9.69005 18.98 9.69005H12.9531C12.9531 9.69005 12.9531 9.15223 12.9531 8.48407C12.9531 7.81601 13.4907 7.27809 14.1585 7.27809Z" fill="#3C3B41"/>
<path d="M15.3642 9.68945H19.583C24.5913 9.68945 28.6233 13.7234 28.6233 18.7343C28.6233 23.7451 24.5913 27.7791 19.583 27.7791H15.3642H16.5696H12.3508C7.34251 27.7791 3.31055 23.7451 3.31055 18.7343C3.31055 13.7234 7.34251 9.68945 12.3508 9.68945H16.5696H15.3642Z" fill="#FF9A00"/>
<path d="M15.9667 9.2207C10.7204 9.2207 6.45802 13.4864 6.45801 18.7349C6.45796 23.9835 10.7204 28.2472 15.9667 28.2472C21.213 28.2472 25.4754 23.9835 25.4753 18.7349C25.4753 13.4864 21.2129 9.2207 15.9667 9.2207ZM15.9667 10.1582C20.706 10.1582 24.5378 13.9928 24.5378 18.7349C24.5379 23.477 20.706 27.3097 15.9667 27.3097C11.2273 27.3097 7.39547 23.477 7.39551 18.7349C7.39552 13.9928 11.2273 10.1582 15.9667 10.1582Z" fill="black"/>
<path d="M12.3505 9.22075C7.09045 9.22075 2.8418 13.4726 2.8418 18.7349C2.8418 23.9973 7.09045 28.2472 12.3505 28.2472H16.5692C16.6313 28.2481 16.693 28.2366 16.7506 28.2135C16.8083 28.1903 16.8607 28.1559 16.905 28.1123C16.9492 28.0687 16.9843 28.0167 17.0083 27.9594C17.0323 27.9021 17.0446 27.8406 17.0446 27.7785C17.0446 27.7164 17.0323 27.6549 17.0083 27.5976C16.9843 27.5402 16.9492 27.4883 16.905 27.4447C16.8607 27.4011 16.8083 27.3667 16.7506 27.3435C16.693 27.3203 16.6313 27.3089 16.5692 27.3097H12.3505C7.59386 27.3097 3.7793 23.4943 3.7793 18.7349C3.7793 13.9756 7.59386 10.1582 12.3505 10.1582H16.5692C16.6313 10.1591 16.693 10.1477 16.7506 10.1245C16.8083 10.1013 16.8607 10.0669 16.905 10.0233C16.9492 9.97971 16.9843 9.92774 17.0083 9.87043C17.0323 9.81312 17.0446 9.75162 17.0446 9.6895C17.0446 9.62738 17.0323 9.56588 17.0083 9.50857C16.9843 9.45126 16.9492 9.39929 16.905 9.35568C16.8607 9.31206 16.8083 9.27767 16.7506 9.25451C16.693 9.23135 16.6313 9.21987 16.5692 9.22075H12.3505Z" fill="black"/>
<path d="M12.351 14.5137L14.1591 18.1317H10.543L12.351 14.5137Z" fill="#FF4E18"/>
<path d="M15.3641 9.22075C15.302 9.21987 15.2403 9.23135 15.1827 9.25451C15.125 9.27767 15.0726 9.31206 15.0283 9.35568C14.9841 9.39929 14.949 9.45126 14.925 9.50857C14.901 9.56588 14.8887 9.62738 14.8887 9.6895C14.8887 9.75162 14.901 9.81312 14.925 9.87043C14.949 9.92774 14.9841 9.97971 15.0283 10.0233C15.0726 10.0669 15.125 10.1013 15.1827 10.1245C15.2403 10.1477 15.302 10.1591 15.3641 10.1582H19.5828C24.3395 10.1582 28.154 13.9756 28.154 18.7349C28.154 23.4943 24.3395 27.3097 19.5828 27.3097H15.3641C15.302 27.3089 15.2403 27.3203 15.1827 27.3435C15.125 27.3667 15.0726 27.4011 15.0283 27.4447C14.9841 27.4883 14.949 27.5402 14.925 27.5976C14.901 27.6549 14.8887 27.7164 14.8887 27.7785C14.8887 27.8406 14.901 27.9021 14.925 27.9594C14.949 28.0167 14.9841 28.0687 15.0283 28.1123C15.0726 28.1559 15.125 28.1903 15.1827 28.2135C15.2403 28.2366 15.302 28.2481 15.3641 28.2472H19.5828C24.8429 28.2472 29.0915 23.9973 29.0915 18.7349C29.0915 13.4726 24.8429 9.22075 19.5828 9.22075H15.3641Z" fill="black"/>
<path d="M14.1598 6.80859C13.2403 6.80859 12.4844 7.56268 12.4844 8.48218V9.68884C12.4844 9.81316 12.5338 9.93236 12.6217 10.0203C12.7096 10.1082 12.8288 10.1576 12.9531 10.1576H18.981C19.1053 10.1576 19.2245 10.1082 19.3124 10.0203C19.4003 9.93236 19.4497 9.81316 19.4497 9.68884V8.48218C19.4497 7.56268 18.6938 6.80859 17.7743 6.80859H14.1598ZM14.1598 7.74609H17.7743C18.1903 7.74609 18.5122 8.06555 18.5122 8.48218V9.22009H13.4219V8.48218C13.4219 8.06555 13.7437 7.74609 14.1598 7.74609Z" fill="black"/>
<path d="M17.1714 3.19141C15.5842 3.19141 14.293 4.48394 14.293 6.0716V7.15741C14.2921 7.21953 14.3036 7.28116 14.3268 7.3388C14.3499 7.39644 14.3843 7.44895 14.4279 7.49318C14.4716 7.53742 14.5235 7.57255 14.5808 7.59652C14.6381 7.6205 14.6996 7.6328 14.7618 7.6328C14.8239 7.6328 14.8854 7.6205 14.9427 7.59652C15 7.57255 15.052 7.53742 15.0956 7.49318C15.1392 7.44895 15.1736 7.39644 15.1968 7.3388C15.2199 7.28116 15.2314 7.21953 15.2305 7.15741V6.0716C15.2305 4.98682 16.0876 4.12885 17.1714 4.12885H17.2593C16.9617 4.51388 16.7027 4.94718 16.7027 5.46918V7.27826C16.7018 7.34038 16.7133 7.40201 16.7364 7.45965C16.7596 7.51729 16.794 7.5698 16.8376 7.61403C16.8812 7.65827 16.9332 7.6934 16.9905 7.71737C17.0478 7.74135 17.1093 7.75365 17.1714 7.75365C17.2336 7.75365 17.2951 7.74135 17.3524 7.71737C17.4097 7.6934 17.4616 7.65827 17.5053 7.61403C17.5489 7.5698 17.5833 7.51729 17.6064 7.45965C17.6296 7.40201 17.6411 7.34038 17.6402 7.27826V5.46918C17.6402 4.71843 18.2306 4.12885 18.9805 4.12885C19.1037 4.12711 19.2212 4.07695 19.3077 3.98923C19.3942 3.90151 19.4427 3.78328 19.4427 3.6601C19.4427 3.53691 19.3942 3.41869 19.3077 3.33097C19.2212 3.24325 19.1037 3.19315 18.9805 3.19141H17.1714Z" fill="black"/>
<path d="M19.5825 14.5137L21.3905 18.1317H17.7744L19.5825 14.5137Z" fill="#FF4E18"/>
<path d="M12.3544 14.0449C12.2666 14.0443 12.1804 14.0683 12.1057 14.1143C12.0309 14.1603 11.9705 14.2263 11.9314 14.3049L10.1242 17.9231C10.0887 17.9945 10.072 18.0739 10.0757 18.1536C10.0794 18.2333 10.1034 18.3106 10.1454 18.3785C10.1874 18.4463 10.246 18.5023 10.3156 18.5412C10.3853 18.5801 10.4637 18.6005 10.5435 18.6006H14.1598C14.2396 18.6005 14.318 18.5801 14.3877 18.5412C14.4574 18.5023 14.516 18.4463 14.5579 18.3785C14.5999 18.3106 14.6239 18.2333 14.6276 18.1536C14.6313 18.0739 14.6146 17.9945 14.5791 17.9231L12.7701 14.3049C12.7315 14.2275 12.6723 14.1621 12.5989 14.1162C12.5256 14.0703 12.4409 14.0457 12.3544 14.0449ZM12.3508 15.5629L13.3999 17.6631H11.3016L12.3508 15.5629ZM19.5871 14.0449C19.4993 14.0443 19.4131 14.0683 19.3383 14.1143C19.2636 14.1603 19.2032 14.2263 19.1641 14.3049L17.355 17.9231C17.3195 17.9945 17.3028 18.0739 17.3065 18.1536C17.3102 18.2333 17.3342 18.3106 17.3762 18.3785C17.4182 18.4463 17.4768 18.5023 17.5465 18.5412C17.6161 18.5801 17.6946 18.6005 17.7743 18.6006H21.3907C21.4704 18.6005 21.5489 18.5801 21.6185 18.5412C21.6882 18.5023 21.7468 18.4463 21.7888 18.3785C21.8308 18.3106 21.8547 18.2333 21.8585 18.1536C21.8622 18.0739 21.8455 17.9945 21.81 17.9231L20.0027 14.3049C19.9642 14.2275 19.905 14.1621 19.8316 14.1162C19.7582 14.0703 19.6736 14.0457 19.5871 14.0449ZM19.5834 15.5629L20.6326 17.6631H18.5342L19.5834 15.5629Z" fill="black"/>
<path fill-rule="evenodd" clip-rule="evenodd" d="M11.3327 21.2814C11.2356 21.2839 11.1416 21.3165 11.0638 21.3747C10.986 21.4329 10.9283 21.5139 10.8985 21.6064C10.8687 21.6989 10.8685 21.7984 10.8977 21.8911C10.9269 21.9837 10.9843 22.065 11.0617 22.1237L12.5998 23.3249C12.6822 23.3892 12.7837 23.4241 12.8882 23.4241C12.9927 23.4241 13.0942 23.3892 13.1766 23.3249L14.4272 22.3489L15.6778 23.3249C15.7604 23.3896 15.8622 23.4248 15.9671 23.4248C16.072 23.4248 16.1739 23.3896 16.2564 23.3249L17.507 22.3489L18.7576 23.3249C18.84 23.3892 18.9415 23.4241 19.046 23.4241C19.1505 23.4241 19.252 23.3892 19.3344 23.3249L20.8725 22.1237C20.9211 22.0858 20.9617 22.0388 20.9921 21.9852C21.0225 21.9317 21.042 21.8726 21.0496 21.8115C21.0572 21.7504 21.0526 21.6884 21.0362 21.629C21.0198 21.5696 20.9919 21.514 20.954 21.4654C20.9161 21.4169 20.8691 21.3762 20.8155 21.3459C20.7619 21.3155 20.7029 21.296 20.6418 21.2884C20.5806 21.2808 20.5186 21.2854 20.4592 21.3018C20.3999 21.3182 20.3443 21.3461 20.2957 21.384L19.0451 22.3618L17.7945 21.384C17.7121 21.3197 17.6106 21.2847 17.5061 21.2847C17.4016 21.2847 17.3001 21.3197 17.2177 21.384L15.9671 22.3618L14.7165 21.384C14.6341 21.3197 14.5326 21.2847 14.4281 21.2847C14.3236 21.2847 14.2221 21.3197 14.1397 21.384L12.8891 22.3618L11.6385 21.384C11.5519 21.3147 11.4436 21.2784 11.3327 21.2814Z" fill="black"/>
</svg>
