<svg width="31" height="30" viewBox="0 0 31 30" fill="none" xmlns="http://www.w3.org/2000/svg">
<path d="M29.1913 18.1583C26.5213 18.1583 19.7966 20.9601 16.7563 23.8094V14.2109C16.7563 13.7744 16.4034 13.4215 15.9669 13.4215C15.5311 13.4215 15.1774 13.7744 15.1774 14.2109V23.9538C12.2145 21.0549 5.30186 18.1583 2.58686 18.1583C1.85343 18.1583 11.1613 29.2046 15.1774 28.1049V28.4215C15.1774 28.858 15.5311 29.2109 15.9669 29.2109C16.4034 29.2109 16.7563 28.858 16.7563 28.4215V28.1404C20.8521 28.9251 29.9153 18.1583 29.1913 18.1583Z" fill="#77B255"/>
<path d="M21.4931 11.3817C21.4931 16.3957 20.1454 18.9473 15.9667 18.9473C11.7881 18.9473 10.4404 16.3957 10.4404 11.3817C10.4404 6.36779 14.3878 0.78937 15.9667 0.78937C17.5457 0.78937 21.4931 6.36779 21.4931 11.3817Z" fill="#EA596E"/>
<path d="M19.752 2.36832C19.373 2.36832 16.5104 13.6349 15.9601 17.5886C15.3712 13.6349 12.3988 2.36832 12.0191 2.36832C11.2296 2.36832 7.28223 9.47358 7.28223 12.6315C7.28223 15.7894 11.7878 18.9473 15.9664 18.9473C20.1451 18.9473 24.4888 15.7894 24.4888 12.6315C24.4888 9.47358 20.5414 2.36832 19.752 2.36832Z" fill="#F4ABBA"/>
</svg>
