<svg width="31" height="30" viewBox="0 0 31 30" fill="none" xmlns="http://www.w3.org/2000/svg">
<path d="M15.7854 29.8406C13.355 29.8017 11.4137 27.848 11.4596 24.9412C11.486 23.4013 12.0843 20.7136 13.0031 18.5329C13.5012 17.3507 12.7658 16.0279 11.4988 15.8269C9.16088 15.4561 6.56014 14.544 5.23751 13.7517C2.74598 12.2582 2.11182 9.57805 3.36309 7.48983C4.61436 5.40155 7.27698 4.69685 9.76979 6.19274C11.0911 6.98212 13.1203 8.843 14.5496 10.7297C15.3242 11.7522 16.8375 11.7767 17.645 10.78C19.1349 8.94096 21.2233 7.14618 22.5702 6.39759C25.1113 4.98524 27.7498 5.77632 28.9339 7.9069C30.1155 10.0327 29.3941 12.6911 26.853 14.1035C25.5071 14.8515 22.8806 15.6781 20.5322 15.9733C19.26 16.1333 18.4825 17.4313 18.9418 18.6283C19.7896 20.8384 20.2998 23.5446 20.2734 25.0858C20.2275 27.9924 18.2232 29.8815 15.7854 29.8406Z" fill="#704FE8"/>
<path opacity="0.08" d="M26.8543 14.103C25.506 14.8514 22.8819 15.6787 20.5325 15.9725C19.2599 16.1335 18.4832 17.4313 18.941 18.6282C19.7904 20.8386 20.2989 23.5448 20.2736 25.0858C20.2262 27.9941 18.2242 29.8824 15.7864 29.8414C15.5464 29.8382 15.3096 29.8129 15.0791 29.7719C17.1064 29.4088 18.6632 27.6405 18.7042 25.0858C18.7294 23.5448 18.2179 20.8386 17.3716 18.6282C16.9106 17.4314 17.6906 16.1335 18.9632 15.9725C21.3094 15.6788 23.9367 14.8515 25.2819 14.103C27.8238 12.6915 28.5438 10.0327 27.3628 7.90755C26.7155 6.7423 25.6324 5.97495 24.3661 5.7571C26.2765 5.43501 28.0322 6.28128 28.9354 7.90755C30.1163 10.0327 29.3931 12.6916 26.8543 14.103Z" fill="black"/>
<path d="M15.8188 28.0057C15.4198 27.999 15.1046 27.6708 15.109 27.2731L15.3027 15.4362L15.2602 15.4598L5.18367 9.42059C4.84488 9.21669 4.73261 8.77571 4.93757 8.43329C5.14148 8.0945 5.5848 7.98089 5.92494 8.18719L16.0374 14.2466L26.348 8.51596C26.6949 8.32319 27.133 8.45028 27.3258 8.7971C27.5185 9.14391 27.3951 9.58313 27.0483 9.77591L16.7423 15.5038L16.5492 27.2971C16.5448 27.6949 16.2142 28.0114 15.8188 28.0057Z" fill="#8760F4"/>
<path d="M28.6056 22.3063C27.3909 24.4119 24.7401 25.1596 22.2216 23.7073C20.8885 22.9362 18.8299 21.1075 17.3702 19.2451C16.5789 18.2354 15.0654 18.2355 14.2742 19.2453C12.8143 21.1086 10.7537 22.9387 9.41865 23.71C6.90287 25.1622 4.25215 24.4145 3.03469 22.3063C1.81728 20.1981 2.4948 17.5284 5.01328 16.0763C6.34517 15.3047 8.95746 14.4352 11.3009 14.1024C12.5709 13.9221 13.3276 12.6112 12.8486 11.4213C11.9649 9.22553 11.4107 6.52828 11.4107 4.98732C11.4107 2.08014 13.3839 0.158203 15.8214 0.158203C18.2535 0.158203 20.2267 2.08014 20.2267 4.98732C20.2267 6.52717 19.6732 9.22441 18.7904 11.4206C18.3122 12.6102 19.069 13.9204 20.3385 14.1005C22.6821 14.433 25.2953 15.3018 26.6296 16.0736C29.1482 17.5258 29.8257 20.1954 28.6056 22.3063Z" fill="#8760F4"/>
<path opacity="0.08" d="M28.607 22.3067C27.6754 23.9235 25.8944 24.7382 23.9808 24.3719C25.1713 24.1319 26.1944 23.4056 26.8259 22.3067C28.048 20.1942 27.369 17.5259 24.8492 16.0733C23.5166 15.3029 20.9019 14.4344 18.5589 14.0997C17.2895 13.9197 16.5348 12.6093 17.0116 11.4219C17.8958 9.22412 18.4484 6.5274 18.4484 4.98644C18.4484 2.44441 16.9359 0.654023 14.9307 0.246621C15.218 0.189785 15.518 0.158203 15.8212 0.158203C18.2526 0.158203 20.2262 2.08125 20.2262 4.98644C20.2262 6.5274 19.6736 9.22412 18.7895 11.4219C18.3126 12.6093 19.0674 13.9197 20.3368 14.0997C22.683 14.4344 25.2944 15.3028 26.6302 16.0733C29.147 17.5258 29.8259 20.1941 28.607 22.3067Z" fill="black"/>
<path d="M27.0179 21.3855C26.8181 21.7311 26.3782 21.8471 26.0326 21.6501L15.7805 15.7304V15.779L5.60667 21.6528C5.26384 21.8498 4.82386 21.7338 4.62411 21.3882C4.42706 21.0454 4.54313 20.6027 4.88866 20.4057L15.0976 14.5103V2.71416C15.0976 2.3173 15.4215 1.99609 15.8183 1.99609C16.2151 1.99609 16.539 2.3173 16.539 2.71416V14.5049L26.7533 20.4029C27.0989 20.6 27.2149 21.0427 27.0179 21.3855Z" fill="#704FE8"/>
<path d="M18.7945 16.3219C19.4747 14.6798 18.6949 12.7971 17.0527 12.117C15.4106 11.4368 13.528 12.2166 12.8478 13.8587C12.1676 15.5008 12.9474 17.3834 14.5896 18.0636C16.2317 18.7438 18.1143 17.964 18.7945 16.3219Z" fill="#FFCE29"/>
<path opacity="0.4" d="M13.8663 15.5651C13.8658 15.5651 13.8653 15.5651 13.8648 15.5651C13.6033 15.5645 13.3918 15.3517 13.3926 15.0902C13.3949 14.2952 13.7879 13.5487 14.4442 13.0926C14.6586 12.9433 14.954 12.9964 15.1035 13.211C15.2527 13.4259 15.1995 13.721 14.9847 13.8703C14.5825 14.1499 14.3413 14.607 14.3399 15.0927C14.3391 15.3539 14.1273 15.5651 13.8663 15.5651Z" fill="white"/>
</svg>
