<svg width="31" height="30" viewBox="0 0 31 30" fill="none" xmlns="http://www.w3.org/2000/svg">
<path fill-rule="evenodd" clip-rule="evenodd" d="M6.89632 7.81881C4.61268 10.111 4.61268 13.8015 6.89632 16.0938L7.72071 16.9214L15.9648 25.1963L24.209 16.9214L25.0334 16.0938C27.317 13.8015 27.317 10.111 25.0334 7.81881C22.7497 5.52654 19.0729 5.52654 16.7893 7.81881L15.9648 8.64639L15.1405 7.81881C12.8569 5.52654 9.17987 5.52654 6.89632 7.81881Z" fill="#FF143A"/>
<path opacity="0.4" d="M7.59521 13.9531C7.24563 13.3476 7.06152 12.6607 7.06152 11.9616C7.06152 11.2624 7.24563 10.5755 7.59521 9.97004C7.9448 9.36454 8.44755 8.86167 9.05304 8.51209C9.65854 8.1625 10.3454 7.97852 11.0446 7.97852" stroke="white" stroke-width="1.99933" stroke-linecap="round" stroke-linejoin="round"/>
<path fill-rule="evenodd" clip-rule="evenodd" d="M11.0183 6.10007C9.52818 6.10007 8.03792 6.67267 6.89615 7.81885C6.65923 8.05662 6.45246 8.31373 6.26465 8.57848C6.27402 8.56911 6.27401 8.56718 6.27964 8.56155C8.36394 6.46938 11.7202 6.46938 13.8046 8.56155L14.9162 9.68316L15.6685 8.92695C15.7652 8.82996 15.867 8.74222 15.9687 8.65422L15.1407 7.81862C13.9989 6.67244 12.5087 6.09961 11.0185 6.09961L11.0183 6.10007ZM20.91 6.10007C19.6951 6.10007 18.4839 6.48775 17.4578 7.24958C19.2915 6.66225 21.3739 7.09663 22.8338 8.56201C24.9183 10.6542 24.9183 14.0221 22.8338 16.1144L22.0815 16.8704L14.875 24.1043L15.9642 25.1971L24.2085 16.9216L25.0322 16.0943C27.3158 13.802 27.3158 10.111 25.0322 7.81885C23.8904 6.67267 22.4001 6.10007 20.91 6.10007Z" fill="#D30045"/>
</svg>
