<svg width="31" height="31" viewBox="0 0 31 31" fill="none" xmlns="http://www.w3.org/2000/svg">
<path d="M6.5293 27.6224V25.6286C6.5293 23.0723 8.47204 21.0273 11.0283 21.0273C14.0958 23.5836 17.1632 23.5836 20.2307 21.0273C22.787 21.0273 24.9342 23.0723 24.9342 25.6286V27.6224H6.5293Z" fill="#92D3F5"/>
<path d="M8.62518 21.7434C9.34092 21.2832 10.1589 21.0276 11.028 21.0276C14.0955 23.5838 17.163 23.5838 20.2305 21.0276C21.0996 21.0276 21.9176 21.2832 22.6334 21.6922C23.2469 21.2321 23.8092 20.772 24.2182 20.363C25.7008 18.7781 26.1098 16.8865 25.2407 14.8415C24.0137 11.9274 23.707 11.9785 23.5025 8.29755C23.5025 6.15031 21.8665 4.36094 19.7192 4.20757C19.7192 4.20757 18.39 2.67383 15.6293 2.67383C12.3573 2.67383 9.39205 4.46319 8.62518 7.27506C7.85831 10.138 8.77855 11.2628 7.96056 13.41C7.04031 15.8129 4.99532 17.7045 7.29593 20.5164C7.60268 20.8742 8.06281 21.3344 8.62518 21.7434Z" fill="#F1B31C"/>
<path d="M10.1074 12.8488C10.1074 16.9388 12.5614 19.4439 15.6289 19.4439C18.6964 19.4439 21.3549 16.9388 21.3549 12.8488C21.3549 10.8038 20.8436 9.78132 20.8436 9.78132L18.7986 7.73633C18.7986 7.73633 12.6637 8.75882 10.6187 9.78132C10.6187 9.78132 10.1074 10.8038 10.1074 12.8488Z" fill="#FCEA2B"/>
<path d="M6.5293 27.1627V25.5778C6.5293 23.0216 8.47204 20.9766 11.0283 20.9766C14.0958 23.5328 17.1632 23.5328 20.2307 20.9766C22.787 20.9766 24.9342 23.0216 24.9342 25.5778V27.1627" stroke="black" stroke-linecap="round" stroke-linejoin="round"/>
<path d="M18.7989 12.3369C18.7989 12.8993 18.3388 13.3594 17.7764 13.3594C17.214 13.3594 16.7539 12.8993 16.7539 12.3369C16.7539 11.7746 17.214 11.3145 17.7764 11.3145C18.3388 11.3145 18.7989 11.7746 18.7989 12.3369Z" fill="black"/>
<path d="M14.7091 12.3369C14.7091 12.8993 14.2489 13.3594 13.6866 13.3594C13.1242 13.3594 12.6641 12.8993 12.6641 12.3369C12.6641 11.7746 13.1242 11.3145 13.6866 11.3145C14.2489 11.3145 14.7091 11.7746 14.7091 12.3369Z" fill="black"/>
<path d="M10.1074 12.8488C10.1074 16.9388 12.5614 19.4439 15.6289 19.4439C18.6964 19.4439 21.3549 16.9388 21.3549 12.8488C21.3549 10.8038 20.8436 9.78132 20.8436 9.78132L18.7986 7.73633C18.7986 7.73633 12.6637 8.75882 10.6187 9.78132C10.6187 9.78132 10.1074 10.8038 10.1074 12.8488Z" stroke="black" stroke-linejoin="round"/>
<path d="M14.0957 16.0176C15.0671 16.5288 16.1918 16.5288 17.1632 16.0176" stroke="black" stroke-linecap="round" stroke-linejoin="round"/>
<path d="M7.55115 20.0055C5.50616 16.938 6.63091 15.7621 7.60228 13.3592C8.42027 11.212 7.50003 10.0361 8.2669 7.22427C9.03377 4.41241 11.999 2.62305 15.271 2.62305C18.0317 2.62305 19.361 4.15679 19.361 4.15679C21.5082 4.36129 23.1442 6.15065 23.1442 8.24677C23.3487 11.9277 23.6554 11.9277 24.8824 14.7907C25.8027 16.8868 25.3937 18.2672 23.9111 19.9543" stroke="black" stroke-linecap="round" stroke-linejoin="round"/>
</svg>
