<svg width="31" height="30" viewBox="0 0 31 30" fill="none" xmlns="http://www.w3.org/2000/svg">
<g clip-path="url(#clip0_2_5853)">
<path d="M15.6909 22.4003L1.35398 15.8297C0.837734 15.5928 0.837734 14.8597 1.35398 14.6228L15.1377 8.30594C15.6646 8.06469 16.2702 8.06469 16.7971 8.30594L30.5802 14.6234C31.0965 14.8603 31.0965 15.5934 30.5802 15.8303L16.2434 22.4003C16.0684 22.4809 15.8659 22.4809 15.6909 22.4003Z" fill="#5E35B1"/>
<path d="M24.0918 16.25C24.0918 14.8694 20.4543 13.75 15.9668 13.75C11.4793 13.75 7.8418 14.8694 7.8418 16.25C7.8418 16.9975 7.8418 20.5025 7.8418 21.25H24.0918C24.0918 20.5025 24.0918 16.9975 24.0918 16.25Z" fill="#7E57C2"/>
<path d="M15.9668 23.75C20.4541 23.75 24.0918 22.6307 24.0918 21.25C24.0918 19.8693 20.4541 18.75 15.9668 18.75C11.4795 18.75 7.8418 19.8693 7.8418 21.25C7.8418 22.6307 11.4795 23.75 15.9668 23.75Z" fill="#7E57C2"/>
<path d="M15.9668 22.8125C19.7638 22.8125 22.8418 21.973 22.8418 20.9375C22.8418 19.902 19.7638 19.0625 15.9668 19.0625C12.1698 19.0625 9.0918 19.902 9.0918 20.9375C9.0918 21.973 12.1698 22.8125 15.9668 22.8125Z" fill="#311B92"/>
<path d="M28.4668 25C28.1212 25 27.8418 24.72 27.8418 24.375V13.75C27.8418 13.405 28.1212 13.125 28.4668 13.125C28.8124 13.125 29.0918 13.405 29.0918 13.75V24.375C29.0918 24.72 28.8124 25 28.4668 25Z" fill="#FF9800"/>
<path d="M28.4668 23.75C29.1572 23.75 29.7168 23.1904 29.7168 22.5C29.7168 21.8096 29.1572 21.25 28.4668 21.25C27.7764 21.25 27.2168 21.8096 27.2168 22.5C27.2168 23.1904 27.7764 23.75 28.4668 23.75Z" fill="#FFC107"/>
</g>
<defs>
<clipPath id="clip0_2_5853">
<rect width="30" height="30" fill="white" transform="translate(0.966797)"/>
</clipPath>
</defs>
</svg>
