<svg width="41" height="41" viewBox="0 0 41 41" fill="none" xmlns="http://www.w3.org/2000/svg">
<g clip-path="url(#clip0_2_10523)">
<path d="M14.9724 29.7096H10.5698C10.2231 29.7096 9.94043 29.4269 9.94043 29.0803V18.9709C9.94043 18.6243 10.2231 18.3416 10.5698 18.3416H14.9724C15.3191 18.3416 15.6018 18.6243 15.6018 18.9709V29.0803C15.6018 29.4269 15.3191 29.7096 14.9724 29.7096ZM17.1404 27.3336V20.0909C17.1404 18.3229 17.6444 16.5469 18.5831 15.0456C19.1564 14.1283 20.4418 12.6589 21.1618 11.8989C21.3218 11.7283 21.9031 11.2269 21.9031 10.9523C21.9031 10.6003 21.9431 10.0323 21.9564 8.97359C21.9644 8.30159 22.5111 7.74959 23.1831 7.75492H23.2124C24.3884 7.78159 24.7671 8.86692 24.7671 8.86692C24.7671 8.86692 25.7724 10.8509 24.8338 13.2776C24.0418 15.3283 23.8818 15.4936 23.8818 15.4936C23.8818 15.4936 23.6258 15.8643 24.4364 15.8483C24.4364 15.8483 29.3858 15.8269 29.5564 15.8269C29.9218 15.8269 31.0871 16.1603 31.0204 17.6456C30.9724 18.7443 30.2898 19.1283 29.9404 19.2536C29.8711 19.2776 29.8631 19.3736 29.9271 19.4109C30.2844 19.6189 31.0151 20.1443 30.9991 20.9496C30.9778 21.9256 30.5858 22.2856 29.7698 22.5096C29.6951 22.5309 29.6818 22.6296 29.7484 22.6669C30.0578 22.8429 30.5884 23.2723 30.5564 24.1416C30.5244 25.0269 29.8844 25.3389 29.5351 25.4456C29.4658 25.4669 29.4524 25.5576 29.5138 25.6003C29.7351 25.7523 30.0631 26.0963 30.0471 26.8029C30.0391 27.1763 29.9138 27.4483 29.7564 27.6429C29.5084 27.9496 29.1191 28.1096 28.7244 28.1123L17.7431 28.1336C17.7378 28.1336 17.1404 28.1336 17.1404 27.3336Z" fill="white"/>
<path d="M20.4995 15.0241C19.6062 9.6054 9.01953 9.19206 9.01953 17.3201C9.01953 24.5227 20.4995 31.1627 20.4995 31.1627C20.4995 31.1627 31.9795 24.4347 31.9795 17.3201C31.9795 9.19206 21.3929 9.6054 20.4995 15.0241Z" fill="white"/>
<path d="M20.5048 40.5717C31.5504 40.5717 40.5046 31.6318 40.5046 20.6037C40.5046 9.57572 31.5504 0.635742 20.5048 0.635742C9.45913 0.635742 0.504883 9.57572 0.504883 20.6037C0.504883 31.6318 9.45913 40.5717 20.5048 40.5717Z" fill="#FFDA6B"/>
<path d="M20.6412 21.4834H7.31055C7.31055 21.4834 7.66255 32.9955 20.3505 33.6382C20.5292 33.6462 20.6491 33.6409 20.6491 33.6409C33.3398 32.9982 33.6891 21.4834 33.6891 21.4834H20.6412Z" fill="#262C38"/>
<path d="M8.82227 27.0192C8.82227 27.0192 13.4836 24.7952 20.4222 24.8166C23.8622 24.8272 27.9608 25.1366 32.1341 27.0405C32.1341 27.0405 29.2835 33.9924 20.4889 33.9924C11.7156 33.9924 8.82227 27.0192 8.82227 27.0192Z" fill="#F05266"/>
<path d="M32.5053 11.5342L26.98 14.2115L32.444 16.7235M8.44141 11.5342L13.9667 14.2115L8.50274 16.7235" stroke="#262C38" stroke-miterlimit="10" stroke-linecap="round" stroke-linejoin="round"/>
</g>
<defs>
<clipPath id="clip0_2_10523">
<rect width="40" height="40" fill="white" transform="translate(0.5 0.574219)"/>
</clipPath>
</defs>
</svg>
