<svg width="27" height="22" viewBox="0 0 27 22" fill="none" xmlns="http://www.w3.org/2000/svg">
<path d="M15.375 1.25371C15.375 0.209333 14.1131 -0.313792 13.3744 0.424958L8.97375 4.82558C8.79957 4.99982 8.59276 5.13802 8.36514 5.23228C8.13752 5.32655 7.89355 5.37503 7.64719 5.37496H4.125C3.13044 5.37496 2.17661 5.77005 1.47335 6.47331C0.770088 7.17657 0.375 8.1304 0.375 9.12496V12.875C0.375 13.8695 0.770088 14.8233 1.47335 15.5266C2.17661 16.2299 3.13044 16.625 4.125 16.625H7.64719C7.89355 16.6249 8.13752 16.6734 8.36514 16.7676C8.59276 16.8619 8.79957 17.0001 8.97375 17.1743L13.3744 21.575C14.1131 22.3137 15.375 21.7906 15.375 20.7462V1.25371ZM10.2994 6.15121L13.5 2.95152V19.0503L10.2994 15.8496C9.9512 15.5011 9.53777 15.2246 9.08269 15.0359C8.62762 14.8472 8.13983 14.7501 7.64719 14.75H4.125C3.62772 14.75 3.15081 14.5524 2.79917 14.2008C2.44754 13.8492 2.25 13.3722 2.25 12.875V9.12496C2.25 8.62768 2.44754 8.15076 2.79917 7.79913C3.15081 7.4475 3.62772 7.24996 4.125 7.24996H7.64719C8.1397 7.2501 8.62741 7.15322 9.08248 6.96486C9.53754 6.77649 9.95105 6.50033 10.2994 6.15215V6.15121ZM19.8975 4.84433C19.8283 4.74152 19.7395 4.65344 19.6361 4.58519C19.5326 4.51693 19.4167 4.46986 19.295 4.44668C19.1733 4.4235 19.0482 4.42469 18.9269 4.45016C18.8056 4.47564 18.6906 4.5249 18.5885 4.5951C18.4864 4.66529 18.3992 4.75504 18.332 4.85914C18.2648 4.96324 18.2189 5.07963 18.197 5.20158C18.175 5.32353 18.1775 5.44862 18.2042 5.56962C18.2309 5.69062 18.2813 5.80513 18.3525 5.90652C19.5572 7.65871 20.1216 9.35183 20.1216 11C20.1216 12.6481 19.5572 14.3412 18.3525 16.0934C18.2115 16.2983 18.1577 16.5508 18.2029 16.7953C18.2481 17.0399 18.3886 17.2565 18.5934 17.3975C18.7983 17.5384 19.0508 17.5923 19.2954 17.5471C19.5399 17.5019 19.7565 17.3614 19.8975 17.1565C21.2709 15.1587 21.9956 13.1018 21.9956 11C21.9956 8.89808 21.2709 6.84121 19.8975 4.84433ZM22.5844 0.946208C22.4044 0.774646 22.1636 0.681622 21.915 0.6876C21.6664 0.693578 21.4303 0.798067 21.2588 0.978083C21.0872 1.1581 20.9942 1.39889 21.0001 1.6475C21.0061 1.8961 21.1106 2.13215 21.2906 2.30371C23.5284 4.43465 24.6919 7.68402 24.6919 11C24.6919 14.3159 23.5284 17.5653 21.2906 19.6962C21.2015 19.7812 21.13 19.8828 21.0801 19.9954C21.0303 20.108 21.0031 20.2293 21.0001 20.3524C20.9972 20.4755 21.0185 20.598 21.0629 20.7128C21.1072 20.8277 21.1738 20.9327 21.2587 21.0218C21.3437 21.111 21.4454 21.1825 21.558 21.2323C21.6706 21.2822 21.7919 21.3094 21.915 21.3123C22.0381 21.3153 22.1605 21.294 22.2754 21.2496C22.3902 21.2052 22.4952 21.1387 22.5844 21.0537C25.2684 18.4971 26.5659 14.7153 26.5659 11C26.5659 7.28465 25.2684 3.50277 22.5844 0.946208Z" fill="white"/>
</svg>
