<svg width="41" height="41" viewBox="0 0 41 41" fill="none" xmlns="http://www.w3.org/2000/svg">
<path d="M5.6562 18.2305C3.50312 18.2305 1.75 19.9836 1.75 22.1367V34.6366C1.75 36.7897 3.50312 38.5428 5.6562 38.5428H10.3437C11.2234 38.5428 12.0327 38.246 12.6874 37.7522V18.2305H5.6562Z" fill="#4C5BD4"/>
<path d="M39.2498 24.0907C39.2498 23.1516 38.878 22.2766 38.2326 21.6313C38.9624 20.8329 39.3342 19.7625 39.2326 18.6485C39.0498 16.6626 37.2607 15.1063 35.1577 15.1063H25.5062C25.9843 13.6547 26.7499 10.9939 26.7499 8.85638C26.7499 5.46734 23.8702 2.60645 22.0624 2.60645C20.439 2.60645 19.2796 3.5205 19.2296 3.558C19.0453 3.70646 18.9375 3.93146 18.9375 4.16891V9.46729L14.4375 19.2157L14.25 19.311V36.0578C15.5218 36.6578 17.1312 36.9812 18.1562 36.9812H32.4983C34.1999 36.9812 35.689 35.8343 36.0389 34.2516C36.2186 33.4375 36.1139 32.6172 35.7561 31.9047C36.9108 31.3234 37.6874 30.1344 37.6874 28.7781C37.6874 28.225 37.5608 27.6953 37.3202 27.2157C38.4749 26.6344 39.2498 25.4453 39.2498 24.0907Z" fill="#4C5BD4"/>
</svg>
