<svg width="41" height="41" viewBox="0 0 41 41" fill="none" xmlns="http://www.w3.org/2000/svg">
<g clip-path="url(#clip0_2_10530)">
<path d="M40.5 20.5742C40.5 25.8785 38.3927 30.9657 34.6423 34.7165C30.8915 38.467 25.8043 40.5742 20.5 40.5742C15.1957 40.5742 10.1086 38.467 6.35787 34.7165C2.60714 30.9657 0.5 25.8785 0.5 20.5742C0.5 15.2699 2.60714 10.1828 6.35787 6.43209C10.1086 2.68136 15.1957 0.574219 20.5 0.574219C25.8043 0.574219 30.8915 2.68136 34.6423 6.43209C38.3927 10.1828 40.5 15.2699 40.5 20.5742Z" fill="url(#paint0_linear_2_10530)"/>
<path d="M14.6077 27.7942C14.2127 32.4067 16.4227 35.5742 20.5002 35.5742C24.5753 35.5742 26.7877 32.4067 26.3927 27.7942C26.0002 23.1792 23.6053 20.5742 20.5002 20.5742C17.3952 20.5742 15.0002 23.1792 14.6077 27.7942Z" fill="url(#paint1_linear_2_10530)"/>
<path d="M9.25 14.3242C9.25 12.2542 10.6475 10.5742 12.375 10.5742C14.1025 10.5742 15.5 12.2542 15.5 14.3242C15.5 16.3967 14.1025 18.0742 12.375 18.0742C10.6475 18.0742 9.25 16.3967 9.25 14.3242ZM25.5 14.3242C25.5 12.2542 26.9 10.5742 28.625 10.5742C30.3525 10.5742 31.75 12.2542 31.75 14.3242C31.75 16.3967 30.3525 18.0742 28.625 18.0742C26.9 18.0742 25.5 16.3967 25.5 14.3242Z" fill="url(#paint2_linear_2_10530)"/>
<g filter="url(#filter0_i_2_10530)">
<path d="M9.25 14.3242C9.25 12.2542 10.6475 10.5742 12.375 10.5742C14.1025 10.5742 15.5 12.2542 15.5 14.3242C15.5 16.3967 14.1025 18.0742 12.375 18.0742C10.6475 18.0742 9.25 16.3967 9.25 14.3242ZM25.5 14.3242C25.5 12.2542 26.9 10.5742 28.625 10.5742C30.3525 10.5742 31.75 12.2542 31.75 14.3242C31.75 16.3967 30.3525 18.0742 28.625 18.0742C26.9 18.0742 25.5 16.3967 25.5 14.3242Z" fill="black"/>
</g>
<path d="M11.7036 11.9926C12.1686 12.0976 12.4286 12.6226 12.2836 13.1651C12.1411 13.7101 11.6486 14.0651 11.1836 13.9601C10.7186 13.8551 10.4586 13.3301 10.6036 12.7851C10.7461 12.2451 11.2386 11.8851 11.7036 11.9926ZM28.3487 12.1501C28.8637 12.2676 29.1537 12.8501 28.9937 13.4501C28.8337 14.0576 28.2887 14.4501 27.7712 14.3351C27.2562 14.2201 26.9662 13.6351 27.1262 13.0326C27.2837 12.4276 27.8312 12.0326 28.3512 12.1501H28.3487Z" fill="#4E506A"/>
<g filter="url(#filter1_d_2_10530)">
<path d="M28.1705 4.8133C28.3005 4.8008 28.4305 4.7958 28.563 4.7958C29.7805 4.7958 31.038 5.3058 31.993 6.2008C32.1653 6.36495 32.2673 6.58947 32.2775 6.8272C32.2878 7.06495 32.2055 7.29742 32.048 7.4758C31.972 7.56327 31.8788 7.63447 31.7745 7.68507C31.6703 7.73567 31.5568 7.76465 31.4408 7.77025C31.325 7.77585 31.2093 7.75797 31.1005 7.71767C30.9918 7.6774 30.8923 7.61552 30.808 7.5358C30.1205 6.8883 29.168 6.5358 28.328 6.6133C28.0368 6.6351 27.7535 6.7205 27.4988 6.86345C27.244 7.00642 27.0235 7.2035 26.853 7.4408C26.7845 7.5338 26.698 7.61215 26.5988 7.67122C26.4995 7.7303 26.3895 7.7689 26.2753 7.78475C26.1608 7.80057 26.0443 7.79335 25.9328 7.76347C25.8213 7.7336 25.7168 7.6817 25.6255 7.6108C25.4388 7.46245 25.3169 7.24735 25.2856 7.0109C25.2544 6.77442 25.3162 6.53507 25.458 6.3433C25.773 5.90765 26.1785 5.54532 26.6468 5.28122C27.115 5.01712 27.6348 4.8575 28.1705 4.8133ZM9.00804 6.2008C9.93496 5.31927 11.1591 4.81785 12.438 4.7958C13.0423 4.7827 13.6406 4.9167 14.1815 5.1863C14.7225 5.45587 15.1897 5.85295 15.543 6.3433C15.6845 6.53497 15.7464 6.77397 15.7156 7.01025C15.6849 7.24652 15.5639 7.46172 15.378 7.6108C15.2866 7.68175 15.182 7.73372 15.0702 7.76362C14.9585 7.79352 14.8418 7.80077 14.7272 7.78492C14.6126 7.7691 14.5023 7.7305 14.4029 7.67137C14.3034 7.61227 14.2167 7.53387 14.148 7.4408C13.9774 7.2036 13.757 7.00662 13.5022 6.86367C13.2474 6.72072 12.9644 6.63527 12.673 6.6133C11.8355 6.5358 10.8805 6.8883 10.193 7.5358C10.1088 7.61552 10.0093 7.6774 9.90059 7.71767C9.79184 7.75797 9.67606 7.77585 9.56024 7.77025C9.44441 7.76465 9.33089 7.73567 9.22654 7.68507C9.12219 7.63447 9.02916 7.56327 8.95304 7.4758C8.79554 7.29742 8.71326 7.06495 8.72351 6.8272C8.73379 6.58947 8.83576 6.36495 9.00804 6.2008Z" fill="black"/>
</g>
<path d="M28.1705 4.8133C28.3005 4.8008 28.4305 4.7958 28.563 4.7958C29.7805 4.7958 31.038 5.3058 31.993 6.2008C32.1653 6.36495 32.2673 6.58947 32.2775 6.8272C32.2878 7.06495 32.2055 7.29742 32.048 7.4758C31.972 7.56327 31.8788 7.63447 31.7745 7.68507C31.6703 7.73567 31.5568 7.76465 31.4408 7.77025C31.325 7.77585 31.2093 7.75797 31.1005 7.71767C30.9918 7.6774 30.8923 7.61552 30.808 7.5358C30.1205 6.8883 29.168 6.5358 28.328 6.6133C28.0368 6.6351 27.7535 6.7205 27.4988 6.86345C27.244 7.00642 27.0235 7.2035 26.853 7.4408C26.7845 7.5338 26.698 7.61215 26.5988 7.67122C26.4995 7.7303 26.3895 7.7689 26.2753 7.78475C26.1608 7.80057 26.0443 7.79335 25.9328 7.76347C25.8213 7.7336 25.7168 7.6817 25.6255 7.6108C25.4388 7.46245 25.3169 7.24735 25.2856 7.0109C25.2544 6.77442 25.3162 6.53507 25.458 6.3433C25.773 5.90765 26.1785 5.54532 26.6468 5.28122C27.115 5.01712 27.6348 4.8575 28.1705 4.8133ZM9.00804 6.2008C9.93496 5.31927 11.1591 4.81785 12.438 4.7958C13.0423 4.7827 13.6406 4.9167 14.1815 5.1863C14.7225 5.45587 15.1897 5.85295 15.543 6.3433C15.6845 6.53497 15.7464 6.77397 15.7156 7.01025C15.6849 7.24652 15.5639 7.46172 15.378 7.6108C15.2866 7.68175 15.182 7.73372 15.0702 7.76362C14.9585 7.79352 14.8418 7.80077 14.7272 7.78492C14.6126 7.7691 14.5023 7.7305 14.4029 7.67137C14.3034 7.61227 14.2167 7.53387 14.148 7.4408C13.9774 7.2036 13.757 7.00662 13.5022 6.86367C13.2474 6.72072 12.9644 6.63527 12.673 6.6133C11.8355 6.5358 10.8805 6.8883 10.193 7.5358C10.1088 7.61552 10.0093 7.6774 9.90059 7.71767C9.79184 7.75797 9.67606 7.77585 9.56024 7.77025C9.44441 7.76465 9.33089 7.73567 9.22654 7.68507C9.12219 7.63447 9.02916 7.56327 8.95304 7.4758C8.79554 7.29742 8.71326 7.06495 8.72351 6.8272C8.73379 6.58947 8.83576 6.36495 9.00804 6.2008Z" fill="url(#paint3_linear_2_10530)"/>
</g>
<defs>
<filter id="filter0_i_2_10530" x="9.25" y="10.5742" width="22.5" height="7.5" filterUnits="userSpaceOnUse" color-interpolation-filters="sRGB">
<feFlood flood-opacity="0" result="BackgroundImageFix"/>
<feBlend mode="normal" in="SourceGraphic" in2="BackgroundImageFix" result="shape"/>
<feColorMatrix in="SourceAlpha" type="matrix" values="0 0 0 0 0 0 0 0 0 0 0 0 0 0 0 0 0 0 127 0" result="hardAlpha"/>
<feOffset/>
<feGaussianBlur stdDeviation="0.5"/>
<feComposite in2="hardAlpha" operator="arithmetic" k2="-1" k3="1"/>
<feColorMatrix type="matrix" values="0 0 0 0 0.0980392 0 0 0 0 0.101961 0 0 0 0 0.2 0 0 0 0.819684 0"/>
<feBlend mode="normal" in2="shape" result="effect1_innerShadow_2_10530"/>
</filter>
<filter id="filter1_d_2_10530" x="5.72266" y="2.79492" width="29.5557" height="8.99805" filterUnits="userSpaceOnUse" color-interpolation-filters="sRGB">
<feFlood flood-opacity="0" result="BackgroundImageFix"/>
<feColorMatrix in="SourceAlpha" type="matrix" values="0 0 0 0 0 0 0 0 0 0 0 0 0 0 0 0 0 0 127 0" result="hardAlpha"/>
<feOffset dy="1"/>
<feGaussianBlur stdDeviation="1.5"/>
<feColorMatrix type="matrix" values="0 0 0 0 0.803922 0 0 0 0 0.388235 0 0 0 0 0.00392157 0 0 0 0.145679 0"/>
<feBlend mode="normal" in2="BackgroundImageFix" result="effect1_dropShadow_2_10530"/>
<feBlend mode="normal" in="SourceGraphic" in2="effect1_dropShadow_2_10530" result="shape"/>
</filter>
<linearGradient id="paint0_linear_2_10530" x1="20.5" y1="4.67422" x2="20.5" y2="40.5742" gradientUnits="userSpaceOnUse">
<stop stop-color="#FEEA70"/>
<stop offset="1" stop-color="#F69B30"/>
</linearGradient>
<linearGradient id="paint1_linear_2_10530" x1="20.5" y1="20.5742" x2="20.5" y2="35.5742" gradientUnits="userSpaceOnUse">
<stop stop-color="#472315"/>
<stop offset="1" stop-color="#8B3A0E"/>
</linearGradient>
<linearGradient id="paint2_linear_2_10530" x1="20.5" y1="10.5742" x2="20.5" y2="18.0742" gradientUnits="userSpaceOnUse">
<stop stop-color="#191A33"/>
<stop offset="0.872" stop-color="#3B426A"/>
</linearGradient>
<linearGradient id="paint3_linear_2_10530" x1="20.5" y1="4.79372" x2="20.5" y2="7.79372" gradientUnits="userSpaceOnUse">
<stop stop-color="#E78E0D"/>
<stop offset="1" stop-color="#CB6000"/>
</linearGradient>
<clipPath id="clip0_2_10530">
<rect width="40" height="40" fill="white" transform="translate(0.5 0.574219)"/>
</clipPath>
</defs>
</svg>
