<svg width="28" height="22" viewBox="0 0 28 22" fill="none" xmlns="http://www.w3.org/2000/svg">
<path d="M25.9167 11.7367H2.08333C1.4875 11.7367 1 11.2174 1 10.5827C1 9.948 1.4875 9.42871 2.08333 9.42871H25.9167C26.5125 9.42871 27 9.948 27 10.5827C27 11.2174 26.5125 11.7367 25.9167 11.7367Z" fill="#4C5BD4" stroke="#4C5BD4"/>
<path d="M25.9167 2.88707H2.08333C1.4875 2.88707 1 2.36778 1 1.73309C1 1.09839 1.4875 0.579102 2.08333 0.579102H25.9167C26.5125 0.579102 27 1.09839 27 1.73309C27 2.36778 26.5125 2.88707 25.9167 2.88707Z" fill="#4C5BD4" stroke="#4C5BD4"/>
<path d="M25.9167 20.5795H2.08333C1.4875 20.5795 1 20.0602 1 19.4255C1 18.7908 1.4875 18.2715 2.08333 18.2715H25.9167C26.5125 18.2715 27 18.7908 27 19.4255C27 20.0602 26.5125 20.5795 25.9167 20.5795Z" fill="#4C5BD4" stroke="#4C5BD4"/>
</svg>
