<svg width="41" height="41" viewBox="0 0 41 41" fill="none" xmlns="http://www.w3.org/2000/svg">
<g clip-path="url(#clip0_2_10542)">
<path d="M40.5 20.5742C40.5 25.8785 38.3927 30.9657 34.6423 34.7165C30.8915 38.467 25.8043 40.5742 20.5 40.5742C15.1957 40.5742 10.1086 38.467 6.35787 34.7165C2.60714 30.9657 0.5 25.8785 0.5 20.5742C0.5 15.2699 2.60714 10.1828 6.35787 6.43209C10.1086 2.68136 15.1957 0.574219 20.5 0.574219C25.8043 0.574219 30.8915 2.68136 34.6423 6.43209C38.3927 10.1828 40.5 15.2699 40.5 20.5742Z" fill="url(#paint0_linear_2_10542)"/>
<path d="M13.833 32.4867C13.833 32.8292 14.068 33.0742 14.458 33.0742C15.3355 33.0742 16.548 31.5117 20.5005 31.5117C24.453 31.5117 25.668 33.0742 26.543 33.0742C26.933 33.0742 27.168 32.8292 27.168 32.4867C27.168 31.4942 25.0705 28.0742 20.5005 28.0742C15.9305 28.0742 13.833 31.4942 13.833 32.4867Z" fill="url(#paint1_linear_2_10542)"/>
<path d="M9.49729 22.5742C9.49729 20.5492 10.7698 18.9092 12.3323 18.9092C13.8998 18.9092 15.1673 20.5492 15.1673 22.5742C15.1673 23.4192 14.9448 24.1992 14.5723 24.8192C14.4058 25.0989 14.1352 25.3012 13.8198 25.3817C13.4698 25.4742 12.9373 25.5742 12.3323 25.5742C11.7248 25.5742 11.1998 25.4742 10.8448 25.3817C10.5301 25.3011 10.2603 25.0987 10.0948 24.8192C9.69591 24.1388 9.48939 23.3628 9.49729 22.5742ZM25.8322 22.5742C25.8322 20.5492 27.1022 18.9092 28.6647 18.9092C30.2322 18.9092 31.4997 20.5492 31.4997 22.5742C31.4997 23.4192 31.2772 24.1992 30.9047 24.8192C30.8225 24.9579 30.7137 25.0789 30.5845 25.1755C30.4555 25.272 30.3085 25.3421 30.1522 25.3817C29.1775 25.6342 28.1545 25.6342 27.1797 25.3817C27.0235 25.3421 26.8765 25.272 26.7475 25.1755C26.6182 25.0789 26.5095 24.9579 26.4272 24.8192C26.0292 24.1386 25.8235 23.3626 25.8322 22.5742Z" fill="url(#paint2_linear_2_10542)"/>
<g filter="url(#filter0_i_2_10542)">
<path d="M9.49729 22.5742C9.49729 20.5492 10.7698 18.9092 12.3323 18.9092C13.8998 18.9092 15.1673 20.5492 15.1673 22.5742C15.1673 23.4192 14.9448 24.1992 14.5723 24.8192C14.4058 25.0989 14.1352 25.3012 13.8198 25.3817C13.4698 25.4742 12.9373 25.5742 12.3323 25.5742C11.7248 25.5742 11.1998 25.4742 10.8448 25.3817C10.5301 25.3011 10.2603 25.0987 10.0948 24.8192C9.69591 24.1388 9.48939 23.3628 9.49729 22.5742ZM25.8322 22.5742C25.8322 20.5492 27.1022 18.9092 28.6647 18.9092C30.2322 18.9092 31.4997 20.5492 31.4997 22.5742C31.4997 23.4192 31.2772 24.1992 30.9047 24.8192C30.8225 24.9579 30.7137 25.0789 30.5845 25.1755C30.4555 25.272 30.3085 25.3421 30.1522 25.3817C29.1775 25.6342 28.1545 25.6342 27.1797 25.3817C27.0235 25.3421 26.8765 25.272 26.7475 25.1755C26.6182 25.0789 26.5095 24.9579 26.4272 24.8192C26.0292 24.1386 25.8235 23.3626 25.8322 22.5742Z" fill="black"/>
</g>
<path d="M12.0399 20.5381C12.3599 20.8506 12.3799 21.4681 12.0824 21.9156C11.7824 22.3606 11.2824 22.4706 10.9624 22.1556C10.6424 21.8431 10.6249 21.2256 10.9199 20.7806C11.2199 20.3331 11.7199 20.2256 12.0399 20.5381ZM28.2625 20.5381C28.5825 20.8506 28.6025 21.4681 28.3075 21.9156C28.0075 22.3606 27.5075 22.4706 27.1825 22.1556C26.865 21.8431 26.8475 21.2256 27.145 20.7806C27.4425 20.3331 27.9425 20.2256 28.2625 20.5381Z" fill="#4E506A"/>
<path d="M10.893 13.4557C11.723 13.0732 12.383 12.9082 12.8955 12.9082C13.588 12.9082 14.023 13.2057 14.2705 13.6732C14.708 14.4957 14.5105 14.6757 13.7755 14.8207C11.0105 15.3807 8.233 17.1757 7.028 18.2957C6.2755 18.9957 5.5555 18.2207 5.938 17.6107C6.323 17.0007 7.873 14.8482 10.893 13.4557ZM26.7305 13.6732C26.978 13.2057 27.413 12.9082 28.1055 12.9082C28.6205 12.9082 29.278 13.0732 30.108 13.4557C33.128 14.8482 34.678 17.0007 35.0605 17.6107C35.443 18.2207 34.7255 18.9957 33.973 18.2957C32.7655 17.1757 29.9905 15.3807 27.223 14.8207C26.488 14.6757 26.2955 14.4957 26.7305 13.6732Z" fill="url(#paint3_linear_2_10542)"/>
<path d="M34.25 40.5742C32.18 40.5742 30.5 38.7042 30.5 36.3967C30.5 34.0917 31.39 32.5342 32.1075 31.0292C33.6025 27.8842 33.8975 27.4492 34.25 27.4492C34.6025 27.4492 34.8975 27.8842 36.3925 31.0292C37.11 32.5342 38 34.0917 38 36.3967C38 38.7042 36.32 40.5742 34.25 40.5742Z" fill="url(#paint4_linear_2_10542)"/>
<path d="M34.2506 34.5895C33.4306 34.5895 32.7656 33.8495 32.7656 32.9395C32.7656 32.0245 33.1184 31.407 33.4034 30.8095C33.9934 29.5645 34.1106 29.3945 34.2506 29.3945C34.3906 29.3945 34.5081 29.5645 35.0981 30.8095C35.3831 31.4095 35.7356 32.0245 35.7356 32.937C35.7356 33.8495 35.0706 34.5895 34.2506 34.5895Z" fill="url(#paint5_linear_2_10542)"/>
</g>
<defs>
<filter id="filter0_i_2_10542" x="9.49707" y="18.9092" width="22.0029" height="6.66504" filterUnits="userSpaceOnUse" color-interpolation-filters="sRGB">
<feFlood flood-opacity="0" result="BackgroundImageFix"/>
<feBlend mode="normal" in="SourceGraphic" in2="BackgroundImageFix" result="shape"/>
<feColorMatrix in="SourceAlpha" type="matrix" values="0 0 0 0 0 0 0 0 0 0 0 0 0 0 0 0 0 0 127 0" result="hardAlpha"/>
<feOffset/>
<feGaussianBlur stdDeviation="0.5"/>
<feComposite in2="hardAlpha" operator="arithmetic" k2="-1" k3="1"/>
<feColorMatrix type="matrix" values="0 0 0 0 0.0411227 0 0 0 0 0.0430885 0 0 0 0 0.0922353 0 0 0 0.819684 0"/>
<feBlend mode="normal" in2="shape" result="effect1_innerShadow_2_10542"/>
</filter>
<linearGradient id="paint0_linear_2_10542" x1="20.5" y1="4.67422" x2="20.5" y2="40.5742" gradientUnits="userSpaceOnUse">
<stop stop-color="#FEEA70"/>
<stop offset="1" stop-color="#F69B30"/>
</linearGradient>
<linearGradient id="paint1_linear_2_10542" x1="20.5005" y1="28.0742" x2="20.5005" y2="33.0742" gradientUnits="userSpaceOnUse">
<stop stop-color="#472315"/>
<stop offset="1" stop-color="#8B3A0E"/>
</linearGradient>
<linearGradient id="paint2_linear_2_10542" x1="20.498" y1="18.9092" x2="20.498" y2="25.5742" gradientUnits="userSpaceOnUse">
<stop stop-color="#191A33"/>
<stop offset="0.872" stop-color="#3B426A"/>
</linearGradient>
<linearGradient id="paint3_linear_2_10542" x1="20.5" y1="12.9092" x2="20.5" y2="18.5717" gradientUnits="userSpaceOnUse">
<stop stop-color="#E78E0D"/>
<stop offset="1" stop-color="#CB6000"/>
</linearGradient>
<linearGradient id="paint4_linear_2_10542" x1="34.25" y1="38.1992" x2="34.25" y2="29.8042" gradientUnits="userSpaceOnUse">
<stop stop-color="#35CAFC"/>
<stop offset="1" stop-color="#007EDB"/>
</linearGradient>
<linearGradient id="paint5_linear_2_10542" x1="34.2501" y1="29.3938" x2="34.2501" y2="34.5888" gradientUnits="userSpaceOnUse">
<stop stop-color="#6AE1FF" stop-opacity="0.287"/>
<stop offset="1" stop-color="#A8E3FF" stop-opacity="0.799"/>
</linearGradient>
<clipPath id="clip0_2_10542">
<rect width="40" height="40" fill="white" transform="translate(0.5 0.574219)"/>
</clipPath>
</defs>
</svg>
