<svg width="26" height="26" viewBox="0 0 26 26" fill="none" xmlns="http://www.w3.org/2000/svg">
<path d="M13 0.0742188C6.1075 0.0742188 0.5 5.68172 0.5 12.5742C0.5 19.4667 6.1075 25.0742 13 25.0742C19.8925 25.0742 25.5 19.4667 25.5 12.5742C25.5 5.68172 19.8925 0.0742188 13 0.0742188ZM13 22.8015C7.36068 22.8015 2.77273 18.2135 2.77273 12.5742C2.77273 6.9349 7.36068 2.34695 13 2.34695C18.6393 2.34695 23.2273 6.9349 23.2273 12.5742C23.2273 18.2135 18.6393 22.8015 13 22.8015Z" fill="white"/>
<path d="M16.5613 16.3348C14.6162 18.2956 11.4516 18.2957 9.5066 16.3349C8.99402 15.8181 8.16279 15.8181 7.65013 16.3349C7.13746 16.8518 7.13746 17.6897 7.65013 18.2065C9.13466 19.7031 11.0839 20.4511 13.034 20.4511C14.9835 20.4511 16.9337 19.7027 18.4179 18.2065C18.9306 17.6897 18.9306 16.8518 18.4179 16.3349C17.9051 15.818 17.0739 15.8181 16.5613 16.3348Z" fill="white"/>
<path d="M8.66748 11.2054C8.99391 10.8772 9.18032 10.422 9.18032 9.9579C9.18032 9.49382 8.99391 9.03857 8.66748 8.71037C8.34192 8.38217 7.89034 8.19336 7.43001 8.19336C6.96871 8.19336 6.51809 8.38217 6.19244 8.71037C5.8661 9.03857 5.67969 9.49382 5.67969 9.9579C5.67969 10.422 5.8661 10.8772 6.19244 11.2054C6.51809 11.5345 6.96967 11.7224 7.43001 11.7224C7.89034 11.7224 8.34192 11.5345 8.66748 11.2054Z" fill="white"/>
<path d="M18.6331 8.19336C18.1728 8.19336 17.7212 8.38217 17.3956 8.71037C17.0701 9.03857 16.8828 9.49294 16.8828 9.9579C16.8828 10.4229 17.0701 10.8772 17.3956 11.2054C17.7212 11.5345 18.1728 11.7224 18.6331 11.7224C19.0935 11.7224 19.545 11.5345 19.8706 11.2054C20.1962 10.8772 20.3834 10.4229 20.3834 9.9579C20.3834 9.49382 20.1961 9.03857 19.8706 8.71037C19.545 8.38217 19.0935 8.19336 18.6331 8.19336Z" fill="white"/>
</svg>
