<svg width="41" height="41" viewBox="0 0 41 41" fill="none" xmlns="http://www.w3.org/2000/svg">
<path d="M20.5 0.574219C9.45333 0.574219 0.5 9.52839 0.5 20.5742C0.5 31.6201 9.45417 40.5742 20.5 40.5742C31.5458 40.5742 40.5 31.6201 40.5 20.5742C40.5 9.52839 31.5458 0.574219 20.5 0.574219ZM11.7317 27.7409C11.3498 27.7419 10.9746 27.6401 10.6456 27.4461C10.3167 27.2521 10.046 26.9732 9.86193 26.6386C9.6779 26.3039 9.58734 25.9259 9.59976 25.5442C9.61218 25.1625 9.72711 24.7912 9.9325 24.4692C7.39 23.7192 5.64833 22.5917 5.56167 22.5351C5.35882 22.3962 5.21848 22.1834 5.17078 21.9423C5.12308 21.7012 5.17181 21.4509 5.30652 21.2453C5.44122 21.0397 5.65117 20.8951 5.89128 20.8426C6.1314 20.79 6.38256 20.8337 6.59083 20.9642C8.22531 21.9507 10.0186 22.646 11.8908 23.0192C14.9467 23.6067 17.3008 23.3609 17.325 23.3592C17.5724 23.3348 17.8195 23.4084 18.0132 23.5643C18.2069 23.7201 18.3317 23.9457 18.3608 24.1926C18.3882 24.4399 18.3162 24.6879 18.1607 24.8822C18.0052 25.0764 17.779 25.2009 17.5317 25.2284C17.0176 25.2772 16.5014 25.2995 15.985 25.2951C15.3975 25.2951 14.6575 25.2651 13.8233 25.1876C13.8858 25.4972 13.8787 25.8168 13.8025 26.1234C13.7263 26.4299 13.583 26.7157 13.3828 26.9601C13.1826 27.2044 12.9306 27.4012 12.6451 27.5363C12.3595 27.6713 12.0475 27.7412 11.7317 27.7409ZM20.3625 33.6476C16.85 33.6476 14.1783 33.4734 14.1783 32.6301C14.1783 31.7867 17.0258 31.1034 20.5392 31.1034C24.0525 31.1034 26.8992 31.7876 26.8992 32.6301C26.8992 33.4726 23.875 33.6467 20.3625 33.6467V33.6476ZM35.4383 22.5342C35.355 22.5909 33.61 23.7167 31.0667 24.4684C31.2532 24.763 31.3647 25.0988 31.3912 25.4465C31.4178 25.7942 31.3587 26.1431 31.219 26.4626C31.0794 26.7821 30.8635 27.0625 30.5903 27.2791C30.3171 27.4958 29.9949 27.6421 29.652 27.7053C29.3091 27.7685 28.9559 27.7466 28.6234 27.6415C28.2909 27.5364 27.9893 27.3514 27.745 27.1026C27.5006 26.8538 27.3211 26.5489 27.222 26.2146C27.1229 25.8803 27.1073 25.5268 27.1767 25.1851C26.3433 25.2626 25.6025 25.2926 25.015 25.2926C24.4986 25.297 23.9824 25.2748 23.4683 25.2259C23.3458 25.2124 23.2272 25.1749 23.1192 25.1155C23.0112 25.0562 22.916 24.9761 22.839 24.8799C22.762 24.7837 22.7047 24.6732 22.6704 24.5549C22.6361 24.4365 22.6255 24.3125 22.6392 24.1901C22.6681 23.9431 22.7929 23.7174 22.9866 23.5615C23.1804 23.4056 23.4276 23.3321 23.675 23.3567C23.6983 23.3567 26.0533 23.6067 29.1092 23.0167C30.9812 22.6436 32.7742 21.9483 34.4083 20.9617C34.6166 20.8251 34.8707 20.7769 35.1145 20.8276C35.3584 20.8783 35.5722 21.0238 35.7088 21.2321C35.8453 21.4404 35.8936 21.6945 35.8429 21.9384C35.7922 22.1822 35.6466 22.396 35.4383 22.5326V22.5342Z" fill="url(#paint0_linear_2_10520)"/>
<path d="M35.7087 21.2345C35.6413 21.1312 35.5541 21.0423 35.4522 20.9727C35.3503 20.9032 35.2357 20.8544 35.115 20.8293C34.9942 20.8041 34.8696 20.803 34.7484 20.8261C34.6273 20.8492 34.5118 20.8959 34.4087 20.9637C32.7746 21.9503 30.9816 22.6456 29.1096 23.0187C26.0537 23.6062 23.6987 23.3604 23.6754 23.3587C23.428 23.3341 23.1808 23.4076 22.987 23.5635C22.7933 23.7193 22.6685 23.9451 22.6396 24.192C22.6124 24.439 22.6844 24.6866 22.8397 24.8805C22.9951 25.0744 23.221 25.1988 23.4679 25.2262C23.982 25.2751 24.4982 25.2973 25.0146 25.2929C25.6021 25.2929 26.3421 25.2629 27.1762 25.1854C27.1057 25.5278 27.1204 25.8823 27.219 26.2178C27.3177 26.5532 27.4972 26.8593 27.7418 27.109C27.9864 27.3588 28.2887 27.5447 28.622 27.6503C28.9553 27.7559 29.3094 27.778 29.6532 27.7146C29.9971 27.6513 30.3201 27.5044 30.5938 27.287C30.8676 27.0696 31.0838 26.7882 31.2233 26.4676C31.3629 26.1471 31.4215 25.7971 31.3942 25.4486C31.3668 25.1 31.2542 24.7635 31.0662 24.4687C33.6096 23.7187 35.3512 22.5912 35.4379 22.5345C35.5411 22.467 35.63 22.3798 35.6995 22.2779C35.769 22.176 35.8177 22.0614 35.8428 21.9407C35.868 21.8199 35.8691 21.6954 35.8461 21.5743C35.8231 21.4531 35.7764 21.3376 35.7087 21.2345ZM15.9854 25.2929C16.5018 25.2973 17.018 25.2751 17.5321 25.2262C17.7794 25.1988 18.0056 25.0742 18.1611 24.88C18.3166 24.6857 18.3886 24.4377 18.3612 24.1904C18.3321 23.9435 18.2073 23.7179 18.0136 23.5621C17.8199 23.4062 17.5728 23.3326 17.3254 23.357C17.3012 23.357 14.9471 23.607 11.8912 23.017C10.019 22.6438 8.22571 21.9485 6.59123 20.962C6.38295 20.8315 6.1318 20.7878 5.89168 20.8404C5.65156 20.8929 5.44162 21.0375 5.30691 21.2431C5.17221 21.4487 5.12348 21.699 5.17118 21.9401C5.21888 22.1812 5.35922 22.394 5.56207 22.5329C5.6454 22.5895 7.3904 23.7154 9.9329 24.467C9.74655 24.7616 9.6353 25.0975 9.60889 25.4451C9.58248 25.7927 9.64171 26.1414 9.78141 26.4608C9.92111 26.7802 10.137 27.0604 10.4102 27.277C10.6833 27.4936 11.0055 27.6398 11.3483 27.703C11.6911 27.7661 12.0442 27.7442 12.3766 27.6392C12.709 27.5342 13.0106 27.3493 13.2549 27.1006C13.4992 26.852 13.6788 26.5472 13.778 26.213C13.8772 25.8788 13.8929 25.5254 13.8237 25.1837C14.6579 25.2629 15.3979 25.2929 15.9854 25.2929ZM20.5396 31.1029C17.0262 31.1029 14.1787 31.7871 14.1787 32.6296C14.1787 33.4721 16.8504 33.6471 20.3629 33.6471C23.8754 33.6471 26.8996 33.4729 26.8996 32.6296C26.8996 31.7862 24.0512 31.1029 20.5396 31.1029Z" fill="#102236"/>
<defs>
<linearGradient id="paint0_linear_2_10520" x1="20.5" y1="40.5751" x2="20.5" y2="0.573384" gradientUnits="userSpaceOnUse">
<stop stop-color="#FFDE6E"/>
<stop offset="1" stop-color="#FF4C41"/>
</linearGradient>
</defs>
</svg>
