<svg width="41" height="41" viewBox="0 0 41 41" fill="none" xmlns="http://www.w3.org/2000/svg">
<g clip-path="url(#clip0_2_10539)">
<path d="M20.5 0.574219C15.1957 0.574219 10.1086 2.68136 6.35787 6.43209C2.60714 10.1828 0.5 15.2699 0.5 20.5742C0.5 25.8785 2.60714 30.9657 6.35787 34.7165C10.1086 38.467 15.1957 40.5742 20.5 40.5742C25.8043 40.5742 30.8915 38.467 34.6423 34.7165C38.3927 30.9657 40.5 25.8785 40.5 20.5742C40.5 15.2699 38.3927 10.1828 34.6423 6.43209C30.8915 2.68136 25.8043 0.574219 20.5 0.574219Z" fill="url(#paint0_linear_2_10539)"/>
<path d="M26.6825 10.5742C21.1876 10.5742 20.5001 15.1342 20.5001 15.1342C20.5001 15.1342 19.8151 10.5742 14.3201 10.5742C9.0351 10.5742 7.4951 16.1292 8.1401 19.0992C9.8401 26.9492 20.5001 32.4492 20.5001 32.4492C20.5001 32.4492 31.1625 26.9492 32.8625 19.0992C33.505 16.1292 31.9625 10.5742 26.6825 10.5742Z" fill="white"/>
</g>
<defs>
<linearGradient id="paint0_linear_2_10539" x1="20.5" y1="0.574219" x2="20.5" y2="40.5742" gradientUnits="userSpaceOnUse">
<stop stop-color="#FF6680"/>
<stop offset="1" stop-color="#E61739"/>
</linearGradient>
<clipPath id="clip0_2_10539">
<rect width="40" height="40" fill="white" transform="translate(0.5 0.574219)"/>
</clipPath>
</defs>
</svg>
