<svg width="29" height="28" viewBox="0 0 29 28" fill="none" xmlns="http://www.w3.org/2000/svg">
<path d="M10.75 10.25H13.25V17.75H10.75V10.25Z" fill="white"/>
<path d="M18.25 17.75H15.75V10.25H18.25V17.75Z" fill="white"/>
<path fill-rule="evenodd" clip-rule="evenodd" d="M28.25 14C28.25 21.5937 22.0937 27.75 14.5 27.75C6.90625 27.75 0.75 21.5937 0.75 14C0.75 6.40625 6.90625 0.25 14.5 0.25C22.0937 0.25 28.25 6.40625 28.25 14ZM25.75 14C25.75 15.4774 25.459 16.9403 24.8936 18.3052C24.3283 19.6701 23.4996 20.9103 22.4549 21.9549C21.4103 22.9996 20.1701 23.8283 18.8052 24.3936C17.4403 24.959 15.9774 25.25 14.5 25.25C13.0226 25.25 11.5597 24.959 10.1948 24.3936C8.8299 23.8283 7.58971 22.9996 6.54505 21.9549C5.50039 20.9103 4.67172 19.6701 4.10635 18.3052C3.54099 16.9403 3.25 15.4774 3.25 14C3.25 11.0163 4.43526 8.15483 6.54505 6.04505C8.65483 3.93526 11.5163 2.75 14.5 2.75C17.4837 2.75 20.3452 3.93526 22.4549 6.04505C24.5647 8.15483 25.75 11.0163 25.75 14Z" fill="white"/>
</svg>
