<svg width="20" height="21" viewBox="0 0 20 21" fill="none" xmlns="http://www.w3.org/2000/svg">
<path d="M9.99967 1.42871C5.21637 1.42871 1.33301 5.31207 1.33301 10.0954C1.33301 14.8787 5.21637 18.762 9.99967 18.762C14.7743 18.762 18.6509 14.8925 18.665 10.121C18.6658 10.1125 18.6663 10.1039 18.6663 10.0954C18.6663 10.0877 18.666 10.08 18.6653 10.0723C18.6528 5.29959 14.7754 1.42871 9.99967 1.42871ZM9.99967 1.94871C10.0777 1.94871 10.1545 1.95218 10.2319 1.95443C10.3694 1.98407 10.4897 2.0151 10.5445 2.04994C10.7469 1.99776 10.7956 1.99274 10.7847 1.98702C11.7696 2.08071 12.7289 2.35412 13.6152 2.79371C13.6149 2.81902 13.6152 2.84536 13.6194 2.8783C13.3109 2.95456 14.0167 3.54615 13.7345 3.91396C13.6972 4.42131 13.098 5.03751 12.815 5.00735C13.18 5.49268 13.1148 6.3486 12.4796 6.28066C12.0038 6.29747 11.7914 6.77587 11.4531 7.0305C11.606 6.56284 11.1714 6.53147 11.2251 6.18723C10.9235 6.40078 10.9549 6.53736 10.6923 6.15482C10.9592 5.9586 10.553 5.47448 10.4507 5.42335C10.212 5.55768 9.96258 5.48835 10.3335 5.77175C9.39179 6.05082 10.7256 6.69215 10.2021 7.29708C9.87799 8.06495 9.09834 8.5047 8.30153 8.60003C8.53206 9.12974 7.48374 9.42284 7.88813 8.76903C8.13998 8.2622 6.89978 8.98691 7.59831 9.28192C8.02021 9.62738 8.15003 10.5039 7.50662 10.6949C7.14262 11.1122 6.98142 10.8865 6.72229 10.5169C6.43958 9.7078 5.92409 10.5544 6.32102 10.9901C6.87447 11.4276 6.88834 11.9481 7.07069 12.5122C6.92907 12.9063 8.05713 12.993 7.52603 13.1968C6.81485 13.2107 8.00149 13.9387 8.14171 13.6064C8.54073 13.8233 9.40531 13.7711 8.9725 13.9903C9.45125 14.0469 10.273 14.1446 9.70449 13.5033C9.50047 13.1764 9.65457 12.5577 10.1127 12.2965C10.4958 12.7035 11.0875 11.7557 10.9402 12.3974C10.6329 12.6418 10.4141 12.8658 10.9828 12.886C11.212 13.3878 11.8304 12.9389 11.7174 12.5988C12.0478 12.5057 12.7331 12.6134 13.049 12.7333C13.5719 12.7328 14.4292 12.8474 14.6519 13.2117C14.8319 12.9933 15.4156 13.1431 15.2494 12.7418C14.9418 12.63 15.0981 12.2184 15.3754 12.5999C15.7514 12.6248 15.9814 13.2565 16.4532 13.2492C16.812 13.8857 16.0218 13.4761 16.1277 13.323C15.858 13.9383 15.7509 12.4837 15.4806 13.0563C15.1834 13.2166 14.4914 13.6855 15.096 13.6605C15.4924 13.5154 15.0158 14.47 14.5791 13.9768C14.0318 13.3637 13.6688 14.5343 14.1708 14.6993C14.1867 15.1101 14.5355 15.3547 14.6994 15.6939C15.1316 16.1244 14.1493 16.8136 13.7981 17.1577C13.63 17.2287 13.4584 17.4047 13.2961 17.5463C13.1536 17.6094 13.0096 17.6692 12.8631 17.7241C12.8094 17.6971 12.7597 17.642 12.7151 17.5447C12.2468 17.5215 11.9455 17.1871 11.4023 17.1899C10.675 17.2455 9.81403 17.7238 9.15762 17.3953C9.21205 16.9252 8.21503 16.13 9.17842 15.9156C9.9267 15.9679 10.285 15.3703 10.8213 15.0016C11.1854 14.8087 11.7226 15.2293 11.71 14.6433C11.7337 14.2828 12.8065 14.4596 12.9389 14.4831C12.791 14.9551 12.6867 15.1505 13.314 15.1035C13.4171 15.4455 13.9307 14.0912 13.6428 14.0826C13.402 13.8688 12.7141 14.134 13.2493 13.7052C12.9983 13.1084 12.0961 13.6678 12.0762 12.9668C11.593 12.9148 12.5265 13.6905 11.7895 13.2974C11.1451 13.5584 10.8275 12.9928 10.2789 13.0051C10.5687 13.2925 10.9178 13.9491 10.2817 13.6978C9.91942 13.1176 10.0252 13.886 10.1581 14.0344C10.2413 13.6036 10.2676 14.3216 10.6493 13.9971C10.9534 13.7347 11.9729 14.1288 11.2882 14.0595C11.3671 14.1112 10.0161 14.9728 10.4963 14.3022C10.4997 14.0942 9.8253 14.3722 10.2789 14.4642C9.79115 14.5436 9.23215 14.1411 8.64889 14.1573C7.98259 14.082 7.26551 13.9923 6.81675 13.4476C6.47061 12.946 5.93171 13.0561 5.8525 12.364C5.73498 12.0225 5.32886 11.5814 5.37219 11.2245C5.84487 11.1725 6.47303 12.3685 6.15861 11.4167C5.8265 11.005 5.72527 10.3798 5.90121 9.88651C5.95182 9.38523 5.74798 9.39112 5.42229 9.45855C5.33631 9.06768 5.42662 8.0263 4.68822 8.32322C4.27083 8.77042 3.52325 9.02071 3.50851 9.69602C3.31265 9.9607 3.90371 11.1596 3.32391 10.8135C3.36222 10.3082 3.26758 10.4155 3.05993 10.4169C2.84794 9.6773 2.85903 8.86991 2.95055 8.12683C2.57217 7.77236 3.17901 7.31268 2.47735 7.22116C2.31841 6.90483 2.35047 7.88208 2.07747 8.19703C2.93201 4.61232 6.15133 1.94871 9.99967 1.94871ZM12.9278 2.75748C12.9106 2.75577 12.8933 2.75635 12.8763 2.75922C12.7983 2.77274 12.7487 2.83895 12.8156 2.96462C12.3515 2.77048 11.1679 3.2189 12.1565 3.4704C12.1192 3.21266 13.0604 4.1835 12.6338 4.09579C12.8276 4.34244 12.8593 4.435 12.703 4.41819C12.7742 4.57766 12.9763 4.63139 13.1294 4.56535C13.9146 4.25023 13.5298 3.52778 13.0909 3.10138C13.1991 2.89112 13.0529 2.76944 12.9278 2.75748ZM14.8956 3.5822C14.9372 3.6134 14.9771 3.64668 15.0182 3.67858C14.8733 3.65899 14.8646 3.6264 14.8956 3.5822ZM12.2887 3.77755C12.2683 3.77044 12.2745 3.84879 12.3286 4.06459C12.2908 4.70523 11.7375 4.87544 11.3395 5.04878C10.8031 5.42179 11.552 5.65648 11.4276 6.1666C11.3785 6.25847 11.5437 6.26072 11.5472 6.18827C11.8176 5.76204 12.2332 5.94214 12.4451 5.618C12.8184 5.57987 12.3709 4.95171 12.6132 4.73972C12.6489 4.58892 12.3494 3.79887 12.2885 3.77755H12.2887ZM10.1675 7.8384C10.2806 7.84586 10.3434 7.96667 10.1945 8.26654C10.1274 8.40226 10.2645 8.5924 9.92601 8.43987C9.64971 8.12787 9.9787 7.82575 10.1675 7.8384ZM10.1146 8.9363C10.2871 8.91896 10.4588 9.13078 10.3874 9.49928C9.96466 9.81822 10.8873 9.8274 10.8409 10.1631C11.1534 10.4758 11.4782 11.7232 10.7351 11.606C10.4252 10.8946 10.2342 11.8353 9.73586 11.8074C9.20927 11.9724 9.96691 12.3719 9.60881 12.5787C9.29577 12.6113 9.29923 13.5844 9.05761 13.448C8.88497 13.288 8.02003 13.418 7.90667 12.9503C7.51286 12.715 7.82954 12.0568 7.57422 11.6729C7.82382 11.7167 7.96283 12.6279 8.2757 11.9783C8.97805 11.814 9.18431 11.0688 9.62683 10.6225C10.0714 10.2614 9.78058 9.91442 9.82617 9.42683C9.84627 9.10183 9.98043 8.94964 10.1146 8.9363ZM10.0252 10.4058C9.89758 10.8095 8.93905 11.2378 9.74054 11.5706L9.87019 11.5715L9.9111 11.5333C10.3458 11.3796 10.246 10.8459 10.2425 10.5138C10.0359 10.5788 10.094 10.6123 10.0252 10.4058ZM11.5354 12.1634C11.6302 12.1733 11.6703 12.3113 11.5236 12.6418C11.6252 12.8403 11.3538 13.1656 11.2199 12.8843C11.0683 12.4874 11.3777 12.1473 11.5354 12.1636V12.1634Z" fill="#666666"/>
</svg>
