<svg width="24" height="25" viewBox="0 0 24 25" fill="none" xmlns="http://www.w3.org/2000/svg">
<path d="M12 22.5957C17.799 22.5957 22.5 17.8947 22.5 12.0957C22.5 6.2967 17.799 1.5957 12 1.5957C6.201 1.5957 1.5 6.2967 1.5 12.0957C1.5 17.8947 6.201 22.5957 12 22.5957ZM11.25 8.3457C11.25 8.14679 11.329 7.95603 11.4697 7.81537C11.6103 7.67472 11.8011 7.5957 12 7.5957C12.1989 7.5957 12.3897 7.67472 12.5303 7.81537C12.671 7.95603 12.75 8.14679 12.75 8.3457V11.3457H15.75C15.9489 11.3457 16.1397 11.4247 16.2803 11.5654C16.421 11.706 16.5 11.8968 16.5 12.0957C16.5 12.2946 16.421 12.4854 16.2803 12.626C16.1397 12.7667 15.9489 12.8457 15.75 12.8457H12.75V15.8457C12.75 16.0446 12.671 16.2354 12.5303 16.376C12.3897 16.5167 12.1989 16.5957 12 16.5957C11.8011 16.5957 11.6103 16.5167 11.4697 16.376C11.329 16.2354 11.25 16.0446 11.25 15.8457V12.8457H8.25C8.05109 12.8457 7.86032 12.7667 7.71967 12.626C7.57902 12.4854 7.5 12.2946 7.5 12.0957C7.5 11.8968 7.57902 11.706 7.71967 11.5654C7.86032 11.4247 8.05109 11.3457 8.25 11.3457H11.25V8.3457Z" fill="#4C5BD4"/>
</svg>
