<svg width="23" height="22" viewBox="0 0 23 22" fill="none" xmlns="http://www.w3.org/2000/svg">
<path d="M21.6945 20.0385L16.4584 14.5928C17.8047 12.9924 18.5423 10.9788 18.5423 8.88249C18.5423 3.98476 14.5576 0 9.65984 0C4.76211 0 0.777344 3.98476 0.777344 8.88249C0.777344 13.7802 4.76211 17.765 9.65984 17.765C11.4985 17.765 13.2507 17.2104 14.7487 16.1576L20.0245 21.6447C20.2451 21.8737 20.5417 22 20.8595 22C21.1603 22 21.4457 21.8853 21.6624 21.6768C22.1227 21.2338 22.1374 20.4992 21.6945 20.0385ZM9.65984 2.31717C13.28 2.31717 16.2252 5.2623 16.2252 8.88249C16.2252 12.5027 13.28 15.4478 9.65984 15.4478C6.03964 15.4478 3.09452 12.5027 3.09452 8.88249C3.09452 5.2623 6.03964 2.31717 9.65984 2.31717Z" fill="#666666"/>
</svg>
