<svg width="21" height="20" viewBox="0 0 21 20" fill="none" xmlns="http://www.w3.org/2000/svg">
<path d="M10.4997 8.68333C11.346 8.68333 12.1733 8.43237 12.8771 7.96216C13.5808 7.49196 14.1292 6.82365 14.4531 6.04173C14.777 5.25982 14.8617 4.39942 14.6966 3.56934C14.5315 2.73927 14.124 1.97679 13.5255 1.37834C12.927 0.779889 12.1646 0.372337 11.3345 0.207225C10.5044 0.0421123 9.64402 0.126854 8.86211 0.450734C8.08019 0.774614 7.41188 1.32309 6.94168 2.02679C6.47148 2.7305 6.22051 3.55783 6.22051 4.40417C6.22051 5.53907 6.67135 6.6275 7.47385 7.43C8.27635 8.2325 9.36477 8.68333 10.4997 8.68333ZM13.133 9.67083H7.86634C6.38223 9.67083 4.95891 10.2604 3.90949 11.3098C2.86007 12.3592 2.27051 13.7826 2.27051 15.2667V19.5458C2.27051 19.6331 2.30519 19.7169 2.36692 19.7786C2.42865 19.8403 2.51237 19.875 2.59967 19.875H18.3997C18.487 19.875 18.5707 19.8403 18.6324 19.7786C18.6942 19.7169 18.7288 19.6331 18.7288 19.5458V15.2667C18.7288 13.7826 18.1393 12.3592 17.0899 11.3098C16.0404 10.2604 14.6171 9.67083 13.133 9.67083Z" fill="#474747"/>
<ellipse cx="10.4997" cy="14.7883" rx="2.87273" ry="2.87273" fill="white"/>
<path d="M12.1891 17.1556L8.13246 13.099L8.80957 12.4219L12.8662 16.4785L12.1891 17.1556Z" fill="#474747"/>
</svg>
