<svg width="21" height="20" viewBox="0 0 21 20" fill="none" xmlns="http://www.w3.org/2000/svg">
<path d="M4.36372 2.04541C3.58013 2.04541 2.82863 2.35669 2.27455 2.91078C1.72046 3.46486 1.40918 4.21636 1.40918 4.99996V12.7272C1.40918 13.2697 1.62468 13.79 2.00828 14.1736C2.39188 14.5572 2.91215 14.7727 3.45463 14.7727H3.68191V7.27268C3.68191 6.48909 3.99319 5.73759 4.54727 5.1835C5.10136 4.62942 5.85286 4.31814 6.63645 4.31814H16.8637V4.09086C16.8637 3.82225 16.8108 3.55627 16.708 3.3081C16.6052 3.05994 16.4546 2.83445 16.2646 2.64451C16.0747 2.45457 15.8492 2.3039 15.601 2.20111C15.3529 2.09832 15.0869 2.04541 14.8183 2.04541H4.36372Z" fill="#474747"/>
<path d="M17.5456 5.22754H17.0947L17.002 5.2339C16.8308 5.25745 16.675 5.34508 16.566 5.47909C16.457 5.61309 16.4029 5.78348 16.4147 5.95583C16.4264 6.12818 16.5032 6.28963 16.6294 6.40756C16.7557 6.5255 16.9219 6.59112 17.0947 6.59118H17.5456L17.6383 6.59754C17.8016 6.61995 17.9512 6.7007 18.0595 6.82488C18.1677 6.94905 18.2274 7.10823 18.2274 7.27299V8.18572L18.2338 8.27754C18.2573 8.4486 18.3449 8.60436 18.4788 8.71337C18.6127 8.82238 18.783 8.87653 18.9553 8.86487C19.1275 8.85322 19.289 8.77663 19.407 8.65058C19.525 8.52453 19.5908 8.35839 19.5911 8.18572V7.27299L19.5865 7.13299C19.551 6.61591 19.3206 6.13158 18.9417 5.77787C18.5629 5.42417 18.0639 5.22748 17.5456 5.22754Z" fill="#474747"/>
<path d="M5.94809 10.3623C5.92455 10.1912 5.83692 10.0354 5.70291 9.92635C5.5689 9.81733 5.39851 9.76325 5.22617 9.77502C5.05382 9.7868 4.89237 9.86355 4.77443 9.98978C4.6565 10.116 4.59087 10.2823 4.59082 10.455V12.7223L4.59718 12.815C4.62073 12.9862 4.70836 13.142 4.84237 13.251C4.97637 13.36 5.14676 13.4141 5.31911 13.4023C5.49146 13.3906 5.65291 13.3138 5.77085 13.1876C5.88878 13.0614 5.9544 12.8951 5.95446 12.7223V10.455L5.94809 10.3623Z" fill="#474747"/>
<path d="M5.27264 14.3135C5.4374 14.3135 5.59659 14.3732 5.72076 14.4814C5.84493 14.5897 5.92569 14.7393 5.94809 14.9026L5.95446 14.9953V15.9089C5.95446 16.2544 6.21082 16.5398 6.54355 16.5844L6.63628 16.5907H7.09082C7.26357 16.5908 7.42986 16.6564 7.55609 16.7744C7.68231 16.8923 7.75907 17.0537 7.77084 17.2261C7.78262 17.3984 7.72853 17.5688 7.61952 17.7028C7.5105 17.8368 7.35468 17.9245 7.18355 17.948L7.09082 17.9544H6.63628C6.11798 17.9544 5.61898 17.7578 5.24014 17.404C4.86129 17.0503 4.63084 16.566 4.59537 16.0489L4.59082 15.9089V14.9953C4.59082 14.8145 4.66265 14.641 4.79052 14.5132C4.91839 14.3853 5.09181 14.3135 5.27264 14.3135Z" fill="#474747"/>
<path d="M18.9094 14.3135C19.0903 14.3135 19.2637 14.3853 19.3915 14.5132C19.5194 14.641 19.5912 14.8145 19.5912 14.9953V15.9089C19.5912 16.4514 19.3757 16.9717 18.9921 17.3553C18.6085 17.7389 18.0883 17.9544 17.5458 17.9544H16.634C16.4531 17.9544 16.2797 17.8825 16.1518 17.7547C16.024 17.6268 15.9521 17.4534 15.9521 17.2726C15.9521 17.0917 16.024 16.9183 16.1518 16.7904C16.2797 16.6626 16.4531 16.5907 16.634 16.5907H17.5458C17.7266 16.5907 17.9 16.5189 18.0279 16.391C18.1558 16.2632 18.2276 16.0898 18.2276 15.9089V14.9953C18.2276 14.8145 18.2994 14.641 18.4273 14.5132C18.5552 14.3853 18.7286 14.3135 18.9094 14.3135Z" fill="#474747"/>
<path d="M14.362 16.5908H13.0029L12.9102 16.5972C12.739 16.6207 12.5832 16.7084 12.4742 16.8424C12.3652 16.9764 12.3111 17.1468 12.3229 17.3191C12.3347 17.4915 12.4114 17.6529 12.5376 17.7708C12.6639 17.8888 12.8302 17.9544 13.0029 17.9545H14.362L14.4547 17.9481C14.6259 17.9245 14.7817 17.8369 14.8907 17.7029C14.9997 17.5689 15.0538 17.3985 15.042 17.2262C15.0302 17.0538 14.9535 16.8924 14.8273 16.7744C14.701 16.6565 14.5347 16.5909 14.362 16.5908Z" fill="#474747"/>
<path d="M9.36429 16.5908H10.7243C10.897 16.5909 11.0633 16.6565 11.1896 16.7744C11.3158 16.8924 11.3925 17.0538 11.4043 17.2262C11.4161 17.3985 11.362 17.5689 11.253 17.7029C11.144 17.8369 10.9882 17.9245 10.817 17.9481L10.7243 17.9545H9.3652C9.19246 17.9544 9.02617 17.8888 8.89994 17.7708C8.77371 17.6529 8.69696 17.4915 8.68518 17.3191C8.67341 17.1468 8.72749 16.9764 8.83651 16.8424C8.94552 16.7084 9.10134 16.6207 9.27248 16.5972L9.36429 16.5908Z" fill="#474747"/>
<path d="M18.9094 9.77295C19.0743 9.77299 19.2336 9.83278 19.3577 9.94126C19.4819 10.0497 19.5626 10.1996 19.5848 10.3629L19.5912 10.4557V12.7229C19.5911 12.8957 19.5255 13.062 19.4076 13.1882C19.2896 13.3144 19.1282 13.3912 18.9558 13.403C18.7835 13.4147 18.6131 13.3607 18.4791 13.2516C18.3451 13.1426 18.2574 12.9868 18.2339 12.8157L18.2275 12.7229V10.4557C18.2275 10.2748 18.2994 10.1014 18.4272 9.97356C18.5551 9.84569 18.7285 9.77386 18.9094 9.77386V9.77295Z" fill="#474747"/>
<path d="M7.54809 5.22754C7.72892 5.22754 7.90235 5.29937 8.03021 5.42724C8.15808 5.5551 8.22991 5.72853 8.22991 5.90936C8.22991 6.09019 8.15808 6.26361 8.03021 6.39148C7.90235 6.51934 7.72892 6.59118 7.54809 6.59118H6.63627C6.45545 6.59118 6.28202 6.66301 6.15416 6.79088C6.02629 6.91874 5.95446 7.09216 5.95446 7.27299V8.18572C5.95446 8.36655 5.88262 8.53997 5.75476 8.66784C5.62689 8.79571 5.45347 8.86754 5.27264 8.86754C5.09181 8.86754 4.91839 8.79571 4.79052 8.66784C4.66265 8.53997 4.59082 8.36655 4.59082 8.18572V7.27299C4.59082 6.73051 4.80632 6.21024 5.18992 5.82664C5.57352 5.44304 6.09379 5.22754 6.63627 5.22754H7.54809Z" fill="#474747"/>
<path d="M14.8204 5.22754H13.4541L13.3613 5.2339C13.1901 5.25746 13.0343 5.34516 12.9252 5.47926C12.8162 5.61337 12.7622 5.78387 12.7741 5.95628C12.786 6.1287 12.8629 6.29017 12.9893 6.40803C13.1157 6.52589 13.2822 6.59135 13.455 6.59118H14.8213L14.9141 6.58481C15.0852 6.56127 15.241 6.47364 15.35 6.33963C15.4591 6.20562 15.5131 6.03523 15.5014 5.86288C15.4896 5.69054 15.4128 5.52909 15.2866 5.41115C15.1604 5.29322 14.9941 5.22759 14.8213 5.22754H14.8204Z" fill="#474747"/>
<path d="M9.81833 5.22754H11.1774C11.3502 5.22759 11.5165 5.29322 11.6427 5.41115C11.7689 5.52909 11.8457 5.69054 11.8574 5.86288C11.8692 6.03523 11.8151 6.20562 11.7061 6.33963C11.5971 6.47364 11.4413 6.56127 11.2701 6.58481L11.1774 6.59118H9.81833C9.64558 6.59112 9.47929 6.5255 9.35306 6.40756C9.22684 6.28963 9.15008 6.12818 9.13831 5.95583C9.12653 5.78348 9.18062 5.61309 9.28963 5.47909C9.39865 5.34508 9.55447 5.25745 9.7256 5.2339L9.81833 5.22754Z" fill="#474747"/>
<path d="M12.5479 11.2529L13.3525 9.8623H14.4072L13.1143 11.9443L14.4502 14.0889H13.4033L12.5596 12.6436L11.7197 14.0889H10.665L12.001 11.9443L10.7119 9.8623H11.7588L12.5479 11.2529Z" fill="#474747"/>
</svg>
