<svg width="50" height="51" viewBox="0 0 50 51" fill="none" xmlns="http://www.w3.org/2000/svg">
<ellipse cx="25" cy="25.8652" rx="25" ry="25" fill="#4C5BD4"/>
<path d="M35.5 11.8652H14.5C13.5717 11.8652 12.6815 12.234 12.0251 12.8904C11.3687 13.5467 11 14.437 11 15.3652V36.3652C11 37.2935 11.3687 38.1837 12.0251 38.8401C12.6815 39.4965 13.5717 39.8652 14.5 39.8652H35.5C36.4283 39.8652 37.3185 39.4965 37.9749 38.8401C38.6313 38.1837 39 37.2935 39 36.3652V15.3652C39 14.437 38.6313 13.5467 37.9749 12.8904C37.3185 12.234 36.4283 11.8652 35.5 11.8652V11.8652ZM26.05 36.5776C24.3417 36.574 22.6595 36.1578 21.1466 35.3644C19.6337 34.571 18.3349 33.4238 17.3607 32.0206C17.2693 31.8951 17.2039 31.7527 17.1682 31.6016C17.1326 31.4505 17.1274 31.2939 17.1531 31.1408C17.1788 30.9877 17.2347 30.8413 17.3177 30.7101C17.4006 30.579 17.5089 30.4657 17.6362 30.3769C17.7635 30.2881 17.9073 30.2255 18.059 30.193C18.2108 30.1604 18.3675 30.1585 18.5201 30.1873C18.6726 30.2161 18.8178 30.275 18.9473 30.3606C19.0767 30.4462 19.1878 30.5568 19.274 30.6859C20.2827 32.1416 21.7322 33.2349 23.4091 33.8047C25.086 34.3744 26.9016 34.3905 28.5883 33.8506C30.275 33.3106 31.7437 32.2432 32.778 30.8056C33.8123 29.3679 34.3576 27.6361 34.3333 25.8652C34.3601 23.8657 33.6615 21.9242 32.3669 20.4001C31.0722 18.876 29.2692 17.8727 27.2917 17.5757C25.3141 17.2788 23.296 17.7084 21.6108 18.785C19.9257 19.8616 18.6877 21.5123 18.126 23.4316L19.0978 22.7759C19.2249 22.6903 19.3676 22.6305 19.5178 22.6C19.668 22.5695 19.8227 22.5689 19.9732 22.5982C20.1236 22.6275 20.2668 22.6861 20.3945 22.7708C20.5223 22.8554 20.6321 22.9644 20.7177 23.0915C20.8034 23.2186 20.8632 23.3613 20.8937 23.5115C20.9241 23.6617 20.9248 23.8164 20.8955 23.9668C20.8661 24.1172 20.8075 24.2604 20.7229 24.3882C20.6382 24.5159 20.5293 24.6258 20.4022 24.7114L17.2522 26.8336C16.9916 26.9995 16.677 27.0583 16.3741 26.9976C16.0713 26.9369 15.8036 26.7615 15.627 26.5081L13.527 23.3266C13.4346 23.199 13.3689 23.054 13.334 22.9004C13.2991 22.7468 13.2957 22.5877 13.3239 22.4327C13.3522 22.2777 13.4115 22.1301 13.4984 21.9986C13.5853 21.8672 13.6979 21.7547 13.8294 21.668C13.9609 21.5813 14.1086 21.5221 14.2636 21.494C14.4187 21.4659 14.5778 21.4695 14.7313 21.5046C14.8849 21.5396 15.0298 21.6054 15.1573 21.698C15.2848 21.7906 15.3922 21.908 15.473 22.0432L15.907 22.7012C16.5065 20.833 17.6112 19.167 19.0988 17.8877C20.5865 16.6083 22.3991 15.7655 24.336 15.4525C26.273 15.1394 28.2588 15.3684 30.0737 16.114C31.8886 16.8596 33.4618 18.0928 34.6193 19.6771C35.7768 21.2614 36.4734 23.1351 36.632 25.0907C36.7906 27.0464 36.4051 29.0078 35.518 30.758C34.631 32.5081 33.2771 33.9787 31.6061 35.007C29.935 36.0354 28.0121 36.5814 26.05 36.5846V36.5776ZM29.6468 27.9372C29.8646 28.1569 29.9862 28.4542 29.9849 28.7635C29.9836 29.0729 29.8595 29.369 29.6398 29.5869C29.4166 29.7979 29.1206 29.9148 28.8134 29.9133C28.5062 29.9117 28.2113 29.7919 27.9902 29.5787L25.126 26.6819C24.9144 26.462 24.7936 26.1703 24.7877 25.8652V21.0446C24.7877 20.7351 24.9106 20.4384 25.1294 20.2196C25.3482 20.0008 25.6449 19.8779 25.9543 19.8779C26.2638 19.8779 26.5605 20.0008 26.7793 20.2196C26.9981 20.4384 27.121 20.7351 27.121 21.0446V25.3857L29.6468 27.9372Z" fill="white"/>
</svg>
