<svg width="17" height="20" viewBox="0 0 17 20" fill="none" xmlns="http://www.w3.org/2000/svg">
<path d="M8.49967 8.68333C9.34601 8.68333 10.1733 8.43237 10.8771 7.96216C11.5808 7.49196 12.1292 6.82365 12.4531 6.04173C12.777 5.25982 12.8617 4.39942 12.6966 3.56934C12.5315 2.73927 12.124 1.97679 11.5255 1.37834C10.927 0.779889 10.1646 0.372337 9.3345 0.207225C8.50442 0.0421123 7.64402 0.126854 6.86211 0.450734C6.08019 0.774614 5.41188 1.32309 4.94168 2.02679C4.47148 2.7305 4.22051 3.55783 4.22051 4.40417C4.22051 5.53907 4.67135 6.6275 5.47385 7.43C6.27635 8.2325 7.36477 8.68333 8.49967 8.68333ZM11.133 9.67083H5.86634C4.38223 9.67083 2.95891 10.2604 1.90949 11.3098C0.860067 12.3592 0.270508 13.7826 0.270508 15.2667V19.5458C0.270508 19.6331 0.305188 19.7169 0.366919 19.7786C0.428649 19.8403 0.512374 19.875 0.599674 19.875H16.3997C16.487 19.875 16.5707 19.8403 16.6324 19.7786C16.6942 19.7169 16.7288 19.6331 16.7288 19.5458V15.2667C16.7288 13.7826 16.1393 12.3592 15.0899 11.3098C14.0404 10.2604 12.6171 9.67083 11.133 9.67083Z" fill="#474747"/>
<path d="M5.97671 12.466C6.01164 12.4309 6.05315 12.4031 6.09884 12.3842C6.14454 12.3652 6.19352 12.3555 6.24299 12.3555C6.29246 12.3555 6.34145 12.3652 6.38714 12.3842C6.43284 12.4031 6.47434 12.4309 6.50928 12.466L8.49964 14.4571L10.49 12.466C10.525 12.431 10.5665 12.4033 10.6122 12.3843C10.6579 12.3654 10.7068 12.3557 10.7563 12.3557C10.8057 12.3557 10.8547 12.3654 10.9004 12.3843C10.9461 12.4033 10.9876 12.431 11.0226 12.466C11.0575 12.5009 11.0853 12.5424 11.1042 12.5881C11.1231 12.6338 11.1329 12.6828 11.1329 12.7322C11.1329 12.7817 11.1231 12.8307 11.1042 12.8764C11.0853 12.9221 11.0575 12.9636 11.0226 12.9985L9.03146 14.9889L11.0226 16.9793C11.0575 17.0142 11.0853 17.0557 11.1042 17.1014C11.1231 17.1471 11.1329 17.1961 11.1329 17.2456C11.1329 17.295 11.1231 17.344 11.1042 17.3897C11.0853 17.4354 11.0575 17.4769 11.0226 17.5118C10.9876 17.5468 10.9461 17.5745 10.9004 17.5935C10.8547 17.6124 10.8057 17.6221 10.7563 17.6221C10.7068 17.6221 10.6579 17.6124 10.6122 17.5935C10.5665 17.5745 10.525 17.5468 10.49 17.5118L8.49964 15.5207L6.50928 17.5118C6.47431 17.5468 6.43279 17.5745 6.3871 17.5935C6.34141 17.6124 6.29245 17.6221 6.24299 17.6221C6.19354 17.6221 6.14457 17.6124 6.09888 17.5935C6.05319 17.5745 6.01168 17.5468 5.97671 17.5118C5.94174 17.4769 5.914 17.4354 5.89507 17.3897C5.87615 17.344 5.86641 17.295 5.86641 17.2456C5.86641 17.1961 5.87615 17.1471 5.89507 17.1014C5.914 17.0557 5.94174 17.0142 5.97671 16.9793L7.96783 14.9889L5.97671 12.9985C5.94168 12.9636 5.91389 12.9221 5.89493 12.8764C5.87597 12.8307 5.86621 12.7817 5.86621 12.7322C5.86621 12.6828 5.87597 12.6338 5.89493 12.5881C5.91389 12.5424 5.94168 12.5009 5.97671 12.466Z" fill="white"/>
</svg>
