<svg width="40" height="41" viewBox="0 0 40 41" fill="none" xmlns="http://www.w3.org/2000/svg">
<ellipse cx="20" cy="20.0957" rx="20" ry="20" fill="#CCCCCC"/>
<path d="M26 15.9106V23.4976C25.4281 23.1674 24.7632 23.0352 24.1084 23.1214C23.4537 23.2076 22.8456 23.5074 22.3787 23.9744C21.9117 24.4414 21.6119 25.0494 21.5257 25.7041C21.4395 26.3589 21.5717 27.0238 21.9019 27.5957C22.2322 28.1676 22.7419 28.6146 23.352 28.8673C23.9621 29.1201 24.6386 29.1644 25.2765 28.9935C25.9144 28.8225 26.4781 28.4459 26.8801 27.9219C27.2821 27.398 27.5 26.756 27.5 26.0956V10.9846C27.5002 10.7921 27.4541 10.6023 27.3656 10.4313C27.277 10.2603 27.1486 10.1132 26.9912 10.0023C26.8338 9.89137 26.6521 9.81996 26.4613 9.79409C26.2705 9.76821 26.0763 9.78863 25.895 9.85361L16.295 13.2826C16.0623 13.3661 15.861 13.5193 15.7187 13.7215C15.5764 13.9237 15.5 14.1649 15.5 14.4121V24.9961C14.9281 24.6659 14.2633 24.5337 13.6086 24.6198C12.9539 24.706 12.3459 25.0057 11.8789 25.4726C11.4119 25.9395 11.112 26.5474 11.0257 27.2021C10.9394 27.8568 11.0715 28.5216 11.4016 29.0936C11.7316 29.6655 12.2411 30.1126 12.8511 30.3655C13.4611 30.6184 14.1375 30.6629 14.7754 30.4922C15.4133 30.3216 15.9771 29.9452 16.3793 29.4215C16.7815 28.8977 16.9997 28.256 17 27.5956V19.1251L26 15.9121V15.9106Z" fill="#666666"/>
</svg>
