<svg width="40" height="40" viewBox="0 0 40 40" fill="none" xmlns="http://www.w3.org/2000/svg">
<path d="M7.72745 4.0918C6.16026 4.0918 4.65726 4.71436 3.54909 5.82253C2.44092 6.9307 1.81836 8.4337 1.81836 10.0009V25.4554C1.81836 26.5404 2.24936 27.5809 3.01656 28.3481C3.78375 29.1153 4.82429 29.5463 5.90927 29.5463H6.36381V14.5463C6.36381 12.9792 6.98638 11.4762 8.09455 10.368C9.20272 9.25981 10.7057 8.63725 12.2729 8.63725H32.7274V8.18271C32.7274 7.64548 32.6216 7.11352 32.416 6.61718C32.2105 6.12085 31.9091 5.66987 31.5292 5.29C31.1494 4.91012 30.6984 4.60879 30.2021 4.4032C29.7057 4.19761 29.1738 4.0918 28.6365 4.0918H7.72745Z" fill="#474747"/>
<path d="M34.0912 10.4551H33.1894L33.0039 10.4678C32.6617 10.5149 32.35 10.6902 32.132 10.9582C31.914 11.2262 31.8058 11.567 31.8293 11.9117C31.8529 12.2564 32.0064 12.5793 32.2589 12.8151C32.5113 13.051 32.8439 13.1822 33.1894 13.1824H34.0912L34.2767 13.1951C34.6031 13.2399 34.9023 13.4014 35.1189 13.6498C35.3355 13.8981 35.4548 14.2165 35.4548 14.546V16.3714L35.4676 16.5551C35.5146 16.8972 35.6898 17.2087 35.9576 17.4267C36.2254 17.6448 36.566 17.7531 36.9105 17.7297C37.2551 17.7064 37.578 17.5533 37.814 17.3012C38.05 17.049 38.1816 16.7168 38.1821 16.3714V14.546L38.173 14.266C38.1021 13.2318 37.6412 12.2632 36.8835 11.5557C36.1258 10.8483 35.1278 10.455 34.0912 10.4551Z" fill="#474747"/>
<path d="M10.8967 20.7266C10.8496 20.3843 10.6743 20.0727 10.4063 19.8547C10.1383 19.6366 9.79751 19.5285 9.45282 19.552C9.10813 19.5756 8.78522 19.7291 8.54935 19.9815C8.31348 20.234 8.18223 20.5666 8.18213 20.912V25.4466L8.19486 25.632C8.24195 25.9743 8.41721 26.286 8.68522 26.504C8.95323 26.722 9.29402 26.8302 9.63871 26.8066C9.9834 26.7831 10.3063 26.6296 10.5422 26.3771C10.778 26.1247 10.9093 25.7921 10.9094 25.4466V20.912L10.8967 20.7266Z" fill="#474747"/>
<path d="M9.54577 28.6289C9.87529 28.6289 10.1937 28.7483 10.442 28.9648C10.6903 29.1814 10.8519 29.4806 10.8967 29.8071L10.9094 29.9925V31.8198C10.9094 32.5107 11.4221 33.0816 12.0876 33.1707L12.273 33.1835H13.1821C13.5276 33.1836 13.8602 33.3148 14.1127 33.5507C14.3651 33.7865 14.5186 34.1094 14.5422 34.4541C14.5657 34.7988 14.4576 35.1396 14.2395 35.4076C14.0215 35.6756 13.7099 35.8509 13.3676 35.898L13.1821 35.9107H12.273C11.2364 35.9109 10.2385 35.5175 9.48076 34.8101C8.72306 34.1026 8.26217 33.134 8.19122 32.0998L8.18213 31.8198V29.9925C8.18213 29.6309 8.3258 29.284 8.58153 29.0283C8.83726 28.7726 9.18411 28.6289 9.54577 28.6289Z" fill="#474747"/>
<path d="M36.8184 28.6289C37.18 28.6289 37.5269 28.7726 37.7826 29.0283C38.0383 29.284 38.182 29.6309 38.182 29.9925V31.8198C38.182 32.9048 37.751 33.9453 36.9838 34.7125C36.2166 35.4797 35.1761 35.9107 34.0911 35.9107H32.2674C31.9058 35.9107 31.5589 35.7671 31.3032 35.5113C31.0475 35.2556 30.9038 34.9087 30.9038 34.5471C30.9038 34.1854 31.0475 33.8386 31.3032 33.5828C31.5589 33.3271 31.9058 33.1835 32.2674 33.1835H34.0911C34.4527 33.1835 34.7996 33.0398 35.0553 32.7841C35.3111 32.5283 35.4547 32.1815 35.4547 31.8198V29.9925C35.4547 29.6309 35.5984 29.284 35.8541 29.0283C36.1099 28.7726 36.4567 28.6289 36.8184 28.6289Z" fill="#474747"/>
<path d="M27.724 33.1836H25.0058L24.8203 33.1963C24.4781 33.2434 24.1664 33.4187 23.9484 33.6867C23.7304 33.9547 23.6222 34.2955 23.6458 34.6402C23.6693 34.9849 23.8228 35.3078 24.0753 35.5436C24.3277 35.7795 24.6603 35.9108 25.0058 35.9109H27.724L27.9094 35.8981C28.2517 35.851 28.5633 35.6758 28.7814 35.4078C28.9994 35.1398 29.1076 34.799 29.084 34.4543C29.0605 34.1096 28.907 33.7867 28.6545 33.5508C28.4021 33.3149 28.0695 33.1837 27.724 33.1836Z" fill="#474747"/>
<path d="M17.7276 33.1836H20.4476C20.7931 33.1837 21.1257 33.3149 21.3781 33.5508C21.6306 33.7867 21.7841 34.1096 21.8077 34.4543C21.8312 34.799 21.723 35.1398 21.505 35.4078C21.287 35.6758 20.9753 35.851 20.6331 35.8981L20.4476 35.9109H17.7294C17.3839 35.9108 17.0514 35.7795 16.7989 35.5436C16.5464 35.3078 16.3929 34.9849 16.3694 34.6402C16.3458 34.2955 16.454 33.9547 16.672 33.6867C16.8901 33.4187 17.2017 33.2434 17.544 33.1963L17.7276 33.1836Z" fill="#474747"/>
<path d="M36.8182 19.5469C37.148 19.5469 37.4666 19.6665 37.715 19.8835C37.9634 20.1005 38.1247 20.4001 38.1691 20.7269L38.1819 20.9123V25.4469C38.1818 25.7924 38.0505 26.1249 37.8146 26.3774C37.5788 26.6299 37.2559 26.7834 36.9112 26.8069C36.5665 26.8305 36.2257 26.7223 35.9577 26.5043C35.6897 26.2862 35.5144 25.9746 35.4673 25.6323L35.4546 25.4469V20.9123C35.4546 20.5507 35.5983 20.2038 35.854 19.9481C36.1097 19.6924 36.4566 19.5487 36.8182 19.5487V19.5469Z" fill="#474747"/>
<path d="M14.0967 10.4551C14.4583 10.4551 14.8052 10.5987 15.0609 10.8545C15.3166 11.1102 15.4603 11.4571 15.4603 11.8187C15.4603 12.1804 15.3166 12.5272 15.0609 12.783C14.8052 13.0387 14.4583 13.1824 14.0967 13.1824H12.273C11.9114 13.1824 11.5645 13.326 11.3088 13.5818C11.0531 13.8375 10.9094 14.1843 10.9094 14.546V16.3714C10.9094 16.7331 10.7657 17.0799 10.51 17.3357C10.2543 17.5914 9.90742 17.7351 9.54577 17.7351C9.18411 17.7351 8.83726 17.5914 8.58153 17.3357C8.3258 17.0799 8.18213 16.7331 8.18213 16.3714V14.546C8.18213 13.461 8.61313 12.4205 9.38033 11.6533C10.1475 10.8861 11.1881 10.4551 12.273 10.4551H14.0967Z" fill="#474747"/>
<path d="M28.6399 10.4551H25.9072L25.7217 10.4678C25.3793 10.5149 25.0675 10.6903 24.8495 10.9585C24.6314 11.2267 24.5234 11.5677 24.5472 11.9126C24.571 12.2574 24.7248 12.5803 24.9776 12.8161C25.2304 13.0518 25.5633 13.1827 25.909 13.1824H28.6417L28.8272 13.1696C29.1694 13.1225 29.4811 12.9473 29.6991 12.6793C29.9171 12.4112 30.0253 12.0705 30.0018 11.7258C29.9782 11.3811 29.8247 11.0582 29.5722 10.8223C29.3198 10.5864 28.9872 10.4552 28.6417 10.4551H28.6399Z" fill="#474747"/>
<path d="M18.6362 10.4551H21.3544C21.6998 10.4552 22.0324 10.5864 22.2849 10.8223C22.5373 11.0582 22.6908 11.3811 22.7144 11.7258C22.7379 12.0705 22.6298 12.4112 22.4117 12.6793C22.1937 12.9473 21.8821 13.1225 21.5398 13.1696L21.3544 13.1824H18.6362C18.2907 13.1822 17.9581 13.051 17.7056 12.8151C17.4532 12.5793 17.2997 12.2564 17.2761 11.9117C17.2526 11.567 17.3607 11.2262 17.5788 10.9582C17.7968 10.6902 18.1084 10.5149 18.4507 10.4678L18.6362 10.4551Z" fill="#474747"/>
<path d="M24.0952 22.5059L25.7046 19.7246H27.814L25.228 23.8887L27.8999 28.1777H25.8062L24.1187 25.2871L22.439 28.1777H20.3296L23.0015 23.8887L20.4233 19.7246H22.5171L24.0952 22.5059Z" fill="#474747"/>
</svg>
