<svg width="21" height="18" viewBox="0 0 21 18" fill="none" xmlns="http://www.w3.org/2000/svg">
<path d="M4.19727 0.187012C3.33531 0.187012 2.50866 0.529421 1.89917 1.13891C1.28968 1.74841 0.947266 2.57506 0.947266 3.43701V11.937C0.947266 12.5337 1.18432 13.106 1.60628 13.528C2.02823 13.95 2.60053 14.187 3.19727 14.187H3.44727V5.93701C3.44727 5.07506 3.78968 4.24841 4.39917 3.63891C5.00866 3.02942 5.83531 2.68701 6.69727 2.68701H17.9473V2.43701C17.9473 2.14154 17.8891 1.84896 17.776 1.57597C17.6629 1.30299 17.4972 1.05495 17.2883 0.846021C17.0793 0.63709 16.8313 0.471356 16.5583 0.358283C16.2853 0.24521 15.9927 0.187012 15.6973 0.187012H4.19727Z" fill="#474747"/>
<path d="M18.6969 3.68701H18.2009L18.0989 3.69401C17.9107 3.71991 17.7393 3.81631 17.6194 3.96371C17.4995 4.11112 17.44 4.29855 17.4529 4.48813C17.4659 4.67771 17.5503 4.85531 17.6892 4.98504C17.828 5.11477 18.0109 5.18695 18.2009 5.18701H18.6969L18.7989 5.19401C18.9785 5.21866 19.1431 5.30749 19.2622 5.44408C19.3813 5.58067 19.4469 5.75577 19.4469 5.93701V6.94101L19.4539 7.04201C19.4798 7.23018 19.5761 7.40151 19.7234 7.52143C19.8707 7.64134 20.0581 7.7009 20.2476 7.68808C20.4371 7.67526 20.6147 7.59101 20.7445 7.45236C20.8743 7.3137 20.9466 7.13095 20.9469 6.94101V5.93701L20.9419 5.78301C20.9029 5.21422 20.6494 4.68145 20.2327 4.29238C19.816 3.90331 19.2671 3.68694 18.6969 3.68701Z" fill="#474747"/>
<path d="M5.94027 9.336C5.91436 9.14775 5.81797 8.97635 5.67056 8.85644C5.52316 8.73652 5.33573 8.67703 5.14615 8.68998C4.95656 8.70293 4.77897 8.78736 4.64924 8.92621C4.51951 9.06506 4.44732 9.24798 4.44727 9.438V11.932L4.45427 12.034C4.48017 12.2223 4.57656 12.3937 4.72397 12.5136C4.87137 12.6335 5.0588 12.693 5.24839 12.68C5.43797 12.6671 5.61556 12.5826 5.74529 12.4438C5.87502 12.3049 5.94721 12.122 5.94727 11.932V9.438L5.94027 9.336Z" fill="#474747"/>
<path d="M5.19727 13.6821C5.3785 13.6821 5.55361 13.7478 5.6902 13.8669C5.82678 13.986 5.91562 14.1506 5.94027 14.3301L5.94727 14.4321V15.4371C5.94727 15.8171 6.22927 16.1311 6.59527 16.1801L6.69727 16.1871H7.19727C7.38729 16.1872 7.57021 16.2594 7.70906 16.3891C7.84791 16.5188 7.93234 16.6964 7.94529 16.886C7.95824 17.0756 7.89875 17.263 7.77883 17.4104C7.65892 17.5578 7.48752 17.6542 7.29927 17.6801L7.19727 17.6871H6.69727C6.12714 17.6872 5.57824 17.4708 5.16151 17.0818C4.74478 16.6927 4.49129 16.1599 4.45227 15.5911L4.44727 15.4371V14.4321C4.44727 14.2332 4.52628 14.0425 4.66694 13.9018C4.80759 13.7611 4.99835 13.6821 5.19727 13.6821Z" fill="#474747"/>
<path d="M20.1964 13.6821C20.3953 13.6821 20.586 13.7611 20.7267 13.9018C20.8673 14.0425 20.9464 14.2332 20.9464 14.4321V15.4371C20.9464 16.0339 20.7093 16.6062 20.2873 17.0281C19.8654 17.4501 19.2931 17.6871 18.6964 17.6871H17.6934C17.4944 17.6871 17.3037 17.6081 17.163 17.4675C17.0224 17.3268 16.9434 17.136 16.9434 16.9371C16.9434 16.7382 17.0224 16.5474 17.163 16.4068C17.3037 16.2661 17.4944 16.1871 17.6934 16.1871H18.6964C18.8953 16.1871 19.086 16.1081 19.2267 15.9675C19.3673 15.8268 19.4464 15.636 19.4464 15.4371V14.4321C19.4464 14.2332 19.5254 14.0425 19.666 13.9018C19.8067 13.7611 19.9974 13.6821 20.1964 13.6821Z" fill="#474747"/>
<path d="M15.1959 16.187H13.7009L13.5989 16.194C13.4107 16.2199 13.2393 16.3163 13.1194 16.4637C12.9995 16.6111 12.94 16.7986 12.9529 16.9881C12.9659 17.1777 13.0503 17.3553 13.1892 17.485C13.328 17.6148 13.5109 17.687 13.7009 17.687H15.1959L15.2979 17.68C15.4862 17.6541 15.6576 17.5577 15.7775 17.4103C15.8974 17.2629 15.9569 17.0755 15.944 16.8859C15.931 16.6963 15.8466 16.5187 15.7077 16.389C15.5689 16.2593 15.386 16.1871 15.1959 16.187Z" fill="#474747"/>
<path d="M9.69799 16.187H11.194C11.384 16.1871 11.5669 16.2593 11.7058 16.389C11.8446 16.5187 11.9291 16.6963 11.942 16.8859C11.955 17.0755 11.8955 17.2629 11.7756 17.4103C11.6556 17.5577 11.4842 17.6541 11.296 17.68L11.194 17.687H9.69899C9.50897 17.687 9.32605 17.6148 9.1872 17.485C9.04835 17.3553 8.96392 17.1777 8.95096 16.9881C8.93801 16.7986 8.99751 16.6111 9.11742 16.4637C9.23734 16.3163 9.40874 16.2199 9.59699 16.194L9.69799 16.187Z" fill="#474747"/>
<path d="M20.1973 8.68701C20.3787 8.68705 20.5539 8.75283 20.6905 8.87216C20.8271 8.99148 20.9158 9.15628 20.9403 9.33601L20.9473 9.43801V11.932C20.9472 12.122 20.875 12.305 20.7453 12.4438C20.6156 12.5827 20.438 12.6671 20.2484 12.68C20.0588 12.693 19.8714 12.6335 19.724 12.5136C19.5766 12.3937 19.4802 12.2223 19.4543 12.034L19.4473 11.932V9.43801C19.4473 9.2391 19.5263 9.04833 19.6669 8.90768C19.8076 8.76703 19.9984 8.68801 20.1973 8.68801V8.68701Z" fill="#474747"/>
<path d="M7.70027 3.68701C7.89918 3.68701 8.08994 3.76603 8.2306 3.90668C8.37125 4.04733 8.45027 4.2381 8.45027 4.43701C8.45027 4.63592 8.37125 4.82669 8.2306 4.96734C8.08994 5.10799 7.89918 5.18701 7.70027 5.18701H6.69727C6.49835 5.18701 6.30759 5.26603 6.16694 5.40668C6.02628 5.54733 5.94727 5.7381 5.94727 5.93701V6.94101C5.94727 7.13992 5.86825 7.33069 5.7276 7.47134C5.58694 7.61199 5.39618 7.69101 5.19727 7.69101C4.99835 7.69101 4.80759 7.61199 4.66694 7.47134C4.52628 7.33069 4.44727 7.13992 4.44727 6.94101V5.93701C4.44727 5.34027 4.68432 4.76798 5.10628 4.34602C5.52823 3.92406 6.10053 3.68701 6.69727 3.68701H7.70027Z" fill="#474747"/>
<path d="M15.7 3.68701H14.197L14.095 3.69401C13.9067 3.71992 13.7352 3.81639 13.6153 3.96391C13.4954 4.11142 13.436 4.29897 13.449 4.48863C13.4621 4.67829 13.5467 4.8559 13.6858 4.98555C13.8248 5.1152 14.0079 5.18721 14.198 5.18701H15.701L15.803 5.18001C15.9913 5.15411 16.1627 5.05772 16.2826 4.91031C16.4025 4.7629 16.462 4.57547 16.4491 4.38589C16.4361 4.19631 16.3517 4.01871 16.2128 3.88898C16.074 3.75926 15.8911 3.68707 15.701 3.68701H15.7Z" fill="#474747"/>
<path d="M10.197 3.68701H11.692C11.8821 3.68707 12.065 3.75926 12.2038 3.88898C12.3427 4.01871 12.4271 4.19631 12.4401 4.38589C12.453 4.57547 12.3935 4.7629 12.2736 4.91031C12.1537 5.05772 11.9823 5.15411 11.794 5.18001L11.692 5.18701H10.197C10.007 5.18695 9.8241 5.11477 9.68525 4.98504C9.54639 4.85531 9.46196 4.67771 9.44901 4.48813C9.43606 4.29855 9.49555 4.11112 9.61547 3.96371C9.73539 3.81631 9.90679 3.71991 10.095 3.69401L10.197 3.68701Z" fill="#474747"/>
</svg>
