<svg width="21" height="19" viewBox="0 0 21 19" fill="none" xmlns="http://www.w3.org/2000/svg">
<path d="M4.19727 0.847656C3.33531 0.847656 2.50866 1.19007 1.89917 1.79956C1.28968 2.40905 0.947266 3.2357 0.947266 4.09766V12.5977C0.947266 13.1944 1.18432 13.7667 1.60628 14.1886C2.02823 14.6106 2.60053 14.8477 3.19727 14.8477H3.44727V6.59766C3.44727 5.7357 3.78968 4.90905 4.39917 4.29956C5.00866 3.69007 5.83531 3.34766 6.69727 3.34766H17.9473V3.09766C17.9473 2.80218 17.8891 2.5096 17.776 2.23662C17.6629 1.96364 17.4972 1.7156 17.2883 1.50667C17.0793 1.29773 16.8313 1.132 16.5583 1.01893C16.2853 0.905854 15.9927 0.847656 15.6973 0.847656H4.19727Z" fill="#474747"/>
<path d="M18.6969 4.34766H18.2009L18.0989 4.35466C17.9107 4.38056 17.7393 4.47695 17.6194 4.62436C17.4995 4.77176 17.44 4.95919 17.4529 5.14878C17.4659 5.33836 17.5503 5.51596 17.6892 5.64568C17.828 5.77541 18.0109 5.8476 18.2009 5.84766H18.6969L18.7989 5.85466C18.9785 5.8793 19.1431 5.96814 19.2622 6.10473C19.3813 6.24131 19.4469 6.41642 19.4469 6.59766V7.60166L19.4539 7.70266C19.4798 7.89082 19.5761 8.06216 19.7234 8.18207C19.8707 8.30198 20.0581 8.36154 20.2476 8.34872C20.4371 8.3359 20.6147 8.25166 20.7445 8.113C20.8743 7.97434 20.9466 7.79159 20.9469 7.60166V6.59766L20.9419 6.44366C20.9029 5.87487 20.6494 5.3421 20.2327 4.95303C19.816 4.56395 19.2671 4.34759 18.6969 4.34766Z" fill="#474747"/>
<path d="M5.94027 9.99738C5.91436 9.80913 5.81797 9.63773 5.67056 9.51781C5.52316 9.3979 5.33573 9.3384 5.14615 9.35135C4.95656 9.36431 4.77897 9.44874 4.64924 9.58759C4.51951 9.72644 4.44732 9.90936 4.44727 10.0994V12.5934L4.45427 12.6954C4.48017 12.8836 4.57656 13.055 4.72397 13.1749C4.87137 13.2949 5.0588 13.3544 5.24839 13.3414C5.43797 13.3285 5.61556 13.244 5.74529 13.1052C5.87502 12.9663 5.94721 12.7834 5.94727 12.5934V10.0994L5.94027 9.99738Z" fill="#474747"/>
<path d="M5.19727 14.3418C5.3785 14.3418 5.55361 14.4074 5.6902 14.5266C5.82678 14.6457 5.91562 14.8102 5.94027 14.9898L5.94727 15.0918V16.0968C5.94727 16.4768 6.22927 16.7908 6.59527 16.8398L6.69727 16.8468H7.19727C7.38729 16.8469 7.57021 16.919 7.70906 17.0488C7.84791 17.1785 7.93234 17.3561 7.94529 17.5457C7.95824 17.7353 7.89875 17.9227 7.77883 18.0701C7.65892 18.2175 7.48752 18.3139 7.29927 18.3398L7.19727 18.3468H6.69727C6.12714 18.3469 5.57824 18.1305 5.16151 17.7414C4.74478 17.3524 4.49129 16.8196 4.45227 16.2508L4.44727 16.0968V15.0918C4.44727 14.8929 4.52628 14.7021 4.66694 14.5615C4.80759 14.4208 4.99835 14.3418 5.19727 14.3418Z" fill="#474747"/>
<path d="M20.1973 14.3418C20.3962 14.3418 20.587 14.4208 20.7277 14.5615C20.8683 14.7021 20.9473 14.8929 20.9473 15.0918V16.0968C20.9473 16.6935 20.7103 17.2658 20.2883 17.6878C19.8664 18.1097 19.2941 18.3468 18.6973 18.3468H17.6943C17.4954 18.3468 17.3047 18.2678 17.164 18.1271C17.0234 17.9865 16.9443 17.7957 16.9443 17.5968C16.9443 17.3979 17.0234 17.2071 17.164 17.0665C17.3047 16.9258 17.4954 16.8468 17.6943 16.8468H18.6973C18.8962 16.8468 19.087 16.7678 19.2277 16.6271C19.3683 16.4865 19.4473 16.2957 19.4473 16.0968V15.0918C19.4473 14.8929 19.5264 14.7021 19.667 14.5615C19.8077 14.4208 19.9984 14.3418 20.1973 14.3418Z" fill="#474747"/>
<path d="M15.195 16.8477H13.7L13.598 16.8547C13.4097 16.8806 13.2383 16.977 13.1184 17.1244C12.9985 17.2718 12.939 17.4592 12.9519 17.6488C12.9649 17.8384 13.0493 18.016 13.1882 18.1457C13.327 18.2754 13.5099 18.3476 13.7 18.3477H15.195L15.297 18.3407C15.4852 18.3148 15.6566 18.2184 15.7765 18.071C15.8965 17.9235 15.9559 17.7361 15.943 17.5465C15.93 17.357 15.8456 17.1794 15.7068 17.0496C15.5679 16.9199 15.385 16.8477 15.195 16.8477Z" fill="#474747"/>
<path d="M9.69701 16.8477H11.193C11.383 16.8477 11.566 16.9199 11.7048 17.0496C11.8437 17.1794 11.9281 17.357 11.941 17.5465C11.954 17.7361 11.8945 17.9235 11.7746 18.071C11.6547 18.2184 11.4833 18.3148 11.295 18.3407L11.193 18.3477H9.69801C9.50799 18.3476 9.32507 18.2754 9.18622 18.1457C9.04737 18.016 8.96294 17.8384 8.94999 17.6488C8.93704 17.4592 8.99653 17.2718 9.11645 17.1244C9.23636 16.977 9.40776 16.8806 9.59601 16.8547L9.69701 16.8477Z" fill="#474747"/>
<path d="M20.1973 9.34766C20.3787 9.3477 20.5539 9.41347 20.6905 9.5328C20.8271 9.65213 20.9158 9.81692 20.9403 9.99666L20.9473 10.0987V12.5927C20.9472 12.7827 20.875 12.9656 20.7453 13.1044C20.6156 13.2433 20.438 13.3277 20.2484 13.3407C20.0588 13.3536 19.8714 13.2941 19.724 13.1742C19.5766 13.0543 19.4802 12.8829 19.4543 12.6947L19.4473 12.5927V10.0987C19.4473 9.89974 19.5263 9.70898 19.6669 9.56833C19.8076 9.42767 19.9984 9.34866 20.1973 9.34866V9.34766Z" fill="#474747"/>
<path d="M7.70027 4.34766C7.89918 4.34766 8.08994 4.42667 8.2306 4.56733C8.37125 4.70798 8.45027 4.89874 8.45027 5.09766C8.45027 5.29657 8.37125 5.48733 8.2306 5.62799C8.08994 5.76864 7.89918 5.84766 7.70027 5.84766H6.69727C6.49835 5.84766 6.30759 5.92667 6.16694 6.06733C6.02628 6.20798 5.94727 6.39874 5.94727 6.59766V7.60166C5.94727 7.80057 5.86825 7.99133 5.7276 8.13199C5.58694 8.27264 5.39618 8.35166 5.19727 8.35166C4.99835 8.35166 4.80759 8.27264 4.66694 8.13199C4.52628 7.99133 4.44727 7.80057 4.44727 7.60166V6.59766C4.44727 6.00092 4.68432 5.42862 5.10628 5.00667C5.52823 4.58471 6.10053 4.34766 6.69727 4.34766H7.70027Z" fill="#474747"/>
<path d="M15.6991 4.34766H14.1961L14.0941 4.35466C13.9057 4.38057 13.7343 4.47704 13.6143 4.62455C13.4944 4.77206 13.435 4.95962 13.4481 5.14928C13.4612 5.33893 13.5458 5.51655 13.6848 5.6462C13.8239 5.77585 14.007 5.84785 14.1971 5.84766H15.7001L15.8021 5.84066C15.9903 5.81475 16.1617 5.71836 16.2816 5.57096C16.4015 5.42355 16.461 5.23612 16.4481 5.04654C16.4351 4.85695 16.3507 4.67936 16.2119 4.54963C16.073 4.4199 15.8901 4.34771 15.7001 4.34766H15.6991Z" fill="#474747"/>
<path d="M10.197 4.34766H11.692C11.8821 4.34771 12.065 4.4199 12.2038 4.54963C12.3427 4.67936 12.4271 4.85695 12.4401 5.04654C12.453 5.23612 12.3935 5.42355 12.2736 5.57096C12.1537 5.71836 11.9823 5.81475 11.794 5.84066L11.692 5.84766H10.197C10.007 5.8476 9.8241 5.77541 9.68525 5.64568C9.54639 5.51596 9.46196 5.33836 9.44901 5.14878C9.43606 4.95919 9.49555 4.77176 9.61547 4.62436C9.73539 4.47695 9.90679 4.38056 10.095 4.35466L10.197 4.34766Z" fill="#474747"/>
</svg>
