<svg width="24" height="25" viewBox="0 0 24 25" fill="none" xmlns="http://www.w3.org/2000/svg">
<path d="M11.9052 15.1251C12.6014 15.1251 13.269 14.8485 13.7613 14.3562C14.2536 13.8639 14.5302 13.1963 14.5302 12.5001C14.5302 12.4232 14.5266 12.347 14.5201 12.2718L11.6769 15.115C11.7521 15.1216 11.8281 15.1251 11.9052 15.1251ZM20.5939 4.38038L19.5927 3.38007C19.5575 3.34493 19.5098 3.3252 19.4601 3.3252C19.4104 3.3252 19.3627 3.34493 19.3276 3.38007L16.7654 5.94296C15.352 5.22062 13.7631 4.85944 11.9989 4.85944C7.49423 4.85944 4.13329 7.20554 1.9161 11.8977C1.82698 12.0864 1.78076 12.2925 1.78076 12.5012C1.78076 12.7099 1.82698 12.916 1.9161 13.1048C2.80204 14.9708 3.86884 16.4666 5.11649 17.5919L2.63704 20.0704C2.6019 20.1055 2.58217 20.1532 2.58217 20.2029C2.58217 20.2526 2.6019 20.3003 2.63704 20.3355L3.63759 21.336C3.67275 21.3711 3.72042 21.3909 3.77013 21.3909C3.81983 21.3909 3.86751 21.3711 3.90266 21.336L20.5939 4.64569C20.6113 4.62828 20.6252 4.6076 20.6346 4.58484C20.6441 4.56208 20.6489 4.53768 20.6489 4.51304C20.6489 4.4884 20.6441 4.464 20.6346 4.44124C20.6252 4.41847 20.6113 4.3978 20.5939 4.38038ZM7.78016 12.5001C7.7801 11.7876 7.96458 11.0872 8.31564 10.4672C8.66669 9.84723 9.17235 9.32873 9.78335 8.96225C10.3944 8.59576 11.0899 8.39378 11.8021 8.37598C12.5144 8.35818 13.2191 8.52518 13.8477 8.86069L12.7081 10.0002C12.2486 9.85307 11.7574 9.83535 11.2884 9.949C10.8194 10.0627 10.3908 10.3033 10.0496 10.6445C9.70838 10.9857 9.46775 11.4143 9.3541 11.8833C9.24045 12.3523 9.25817 12.8435 9.40532 13.303L8.26579 14.4426C7.94601 13.8451 7.77917 13.1777 7.78016 12.5001Z" fill="#474747"/>
<path d="M22.0816 11.8952C21.2566 10.1577 20.2746 8.74087 19.1357 7.64478L15.7574 11.0233C16.0422 11.7677 16.1053 12.5786 15.9392 13.3582C15.773 14.1377 15.3847 14.8524 14.8211 15.416C14.2575 15.9795 13.5428 16.3679 12.7633 16.534C11.9838 16.7002 11.1729 16.637 10.4285 16.3523L7.56299 19.2177C8.89236 19.8329 10.371 20.1405 11.9988 20.1405C16.5035 20.1405 19.8644 17.7944 22.0816 13.1022C22.1707 12.9135 22.2169 12.7074 22.2169 12.4987C22.2169 12.29 22.1707 12.0839 22.0816 11.8952Z" fill="#474747"/>
</svg>
