<svg width="20" height="20" viewBox="0 0 20 20" fill="none" xmlns="http://www.w3.org/2000/svg">
<path d="M7.52793 9.7354C11.2078 9.7354 11.668 6.87544 11.668 4.5314C11.668 2.25542 9.80791 0.399414 7.52793 0.399414C5.24394 0.399414 3.38398 2.25542 3.38398 4.5314C3.38398 6.87544 4.35661 9.7354 7.52793 9.7354ZM9.87598 13.9714C9.87598 12.9154 10.188 11.9354 10.7279 11.1114C10.0359 10.8314 9.29189 10.6875 8.53193 10.6875H6.304C3.0999 10.6875 0.50791 13.1834 0.399902 16.3834V19.1994C0.399902 19.4194 0.579982 19.5994 0.799902 19.5994H14.0359C14.26 19.5994 14.4359 19.4194 14.4359 19.1994V19.1754C11.864 18.8314 9.87598 16.6274 9.87598 13.9714Z" fill="#4C5BD4"/>
<path d="M15.1397 9.51953C12.6798 9.51953 10.6758 11.5195 10.6758 13.9716C10.6758 16.4275 12.6798 18.4235 15.1397 18.4235C17.5997 18.4235 19.5997 16.4275 19.5997 13.9716C19.5997 11.5195 17.5997 9.51953 15.1397 9.51953ZM17.2403 12.9756L14.556 15.66C14.4778 15.7381 14.3755 15.7771 14.2731 15.7771C14.1708 15.7771 14.0685 15.7381 13.9903 15.66L13.0372 14.7068C12.881 14.5506 12.881 14.2975 13.0372 14.1412C13.1935 13.985 13.4466 13.985 13.6028 14.1412L14.2731 14.8115L16.6747 12.41C16.831 12.2537 17.0841 12.2537 17.2403 12.41C17.3966 12.5662 17.3966 12.8193 17.2403 12.9756Z" fill="#4C5BD4"/>
</svg>
