<svg width="31" height="31" viewBox="0 0 31 31" fill="none" xmlns="http://www.w3.org/2000/svg">
<path d="M20.332 14.291C22.407 14.291 24.0695 12.616 24.0695 10.541C24.0695 8.46602 22.407 6.79102 20.332 6.79102C18.257 6.79102 16.582 8.46602 16.582 10.541C16.582 12.616 18.257 14.291 20.332 14.291ZM10.332 14.291C12.407 14.291 14.0695 12.616 14.0695 10.541C14.0695 8.46602 12.407 6.79102 10.332 6.79102C8.25703 6.79102 6.58203 8.46602 6.58203 10.541C6.58203 12.616 8.25703 14.291 10.332 14.291ZM10.332 16.791C7.41953 16.791 1.58203 18.2535 1.58203 21.166V23.041C1.58203 23.7285 2.14453 24.291 2.83203 24.291H17.832C18.5195 24.291 19.082 23.7285 19.082 23.041V21.166C19.082 18.2535 13.2445 16.791 10.332 16.791ZM20.332 16.791C19.9695 16.791 19.557 16.816 19.1195 16.8535C19.1445 16.866 19.157 16.891 19.1695 16.9035C20.5945 17.941 21.582 19.3285 21.582 21.166V23.041C21.582 23.4785 21.4945 23.9035 21.357 24.291H27.832C28.5195 24.291 29.082 23.7285 29.082 23.041V21.166C29.082 18.2535 23.2445 16.791 20.332 16.791Z" fill="#666666"/>
</svg>
