<svg width="21" height="21" viewBox="0 0 21 21" fill="none" xmlns="http://www.w3.org/2000/svg">
<g clip-path="url(#clip0_2_28433)">
<path d="M14.2607 9.86719C15.6441 9.86719 16.7524 8.75052 16.7524 7.36719C16.7524 5.98385 15.6441 4.86719 14.2607 4.86719C12.8774 4.86719 11.7607 5.98385 11.7607 7.36719C11.7607 8.75052 12.8774 9.86719 14.2607 9.86719ZM7.59408 9.86719C8.97741 9.86719 10.0857 8.75052 10.0857 7.36719C10.0857 5.98385 8.97741 4.86719 7.59408 4.86719C6.21074 4.86719 5.09408 5.98385 5.09408 7.36719C5.09408 8.75052 6.21074 9.86719 7.59408 9.86719ZM7.59408 11.5339C5.65241 11.5339 1.76074 12.5089 1.76074 14.4505V15.7005C1.76074 16.1589 2.13574 16.5339 2.59408 16.5339H12.5941C13.0524 16.5339 13.4274 16.1589 13.4274 15.7005V14.4505C13.4274 12.5089 9.53574 11.5339 7.59408 11.5339ZM14.2607 11.5339C14.0191 11.5339 13.7441 11.5505 13.4524 11.5755C13.4691 11.5839 13.4774 11.6005 13.4857 11.6089C14.4357 12.3005 15.0941 13.2255 15.0941 14.4505V15.7005C15.0941 15.9922 15.0357 16.2755 14.9441 16.5339H19.2607C19.7191 16.5339 20.0941 16.1589 20.0941 15.7005V14.4505C20.0941 12.5089 16.2024 11.5339 14.2607 11.5339Z" fill="#666666"/>
</g>
<defs>
<clipPath id="clip0_2_28433">
<rect width="20" height="20" fill="white" transform="translate(0.927734 0.701172)"/>
</clipPath>
</defs>
</svg>
