<svg width="20" height="21" viewBox="0 0 20 21" fill="none" xmlns="http://www.w3.org/2000/svg">
<path d="M13.6965 0.0957031H6.3146C6.02555 0.0957031 5.7365 0.217925 5.53639 0.417925L0.3224 5.62904C0.12229 5.82904 0 6.11793 0 6.40682V13.7735C0 14.0735 0.12229 14.3513 0.3224 14.5624L5.52528 19.7624C5.7365 19.9735 6.02555 20.0957 6.3146 20.0957H13.6853C13.9855 20.0957 14.2634 19.9735 14.4747 19.7735L19.6775 14.5735C19.7811 14.47 19.8629 14.347 19.9183 14.2115C19.9736 14.076 20.0014 13.9309 19.9999 13.7846V6.40682C19.9999 6.10681 19.8777 5.82904 19.6775 5.61793L14.4747 0.417925C14.2746 0.217925 13.9855 0.0957031 13.6965 0.0957031ZM10.0055 15.9846C9.20509 15.9846 8.56029 15.3401 8.56029 14.5401C8.56029 13.7401 9.20509 13.0957 10.0055 13.0957C10.806 13.0957 11.4508 13.7401 11.4508 14.5401C11.4508 15.3401 10.806 15.9846 10.0055 15.9846ZM10.0055 11.2068C9.39408 11.2068 8.89381 10.7068 8.89381 10.0957V5.65126C8.89381 5.04015 9.39408 4.54015 10.0055 4.54015C10.617 4.54015 11.1173 5.04015 11.1173 5.65126V10.0957C11.1173 10.7068 10.617 11.2068 10.0055 11.2068Z" fill="#474747"/>
</svg>
