<svg width="19" height="22" viewBox="0 0 19 22" fill="none" xmlns="http://www.w3.org/2000/svg">
<path d="M9.94922 0.73999C9.55153 0.740413 1.67027 4.00281 1.38906 4.2643C1.10785 4.52578 0.949674 4.88031 0.949219 5.25011V10.3644C0.949219 18.1625 8.05792 20.7491 9.48294 21.1885C9.78534 21.2838 10.1131 21.2838 10.4155 21.1885C11.8405 20.7491 18.9492 18.1625 18.9492 10.3644V5.25011C18.9488 4.88031 18.7906 4.52578 18.5094 4.2643C18.2282 4.00281 10.3469 0.740413 9.94922 0.73999ZM9.19922 8.73713C9.19922 8.55216 9.27824 8.37478 9.41889 8.24399C9.55954 8.1132 9.75031 8.03972 9.94922 8.03972C10.1481 8.03972 10.3389 8.1132 10.4795 8.24399C10.6202 8.37478 10.6992 8.55216 10.6992 8.73713V12.2241C10.6992 12.4091 10.6202 12.5865 10.4795 12.7173C10.3389 12.8481 10.1481 12.9215 9.94922 12.9215C9.75031 12.9215 9.55954 12.8481 9.41889 12.7173C9.27824 12.5865 9.19922 12.4091 9.19922 12.2241V8.73713ZM9.94922 16.4086C9.72672 16.4086 9.50921 16.3472 9.3242 16.2323C9.1392 16.1173 8.995 15.9539 8.90985 15.7628C8.82471 15.5716 8.80243 15.3613 8.84584 15.1584C8.88924 14.9554 8.99639 14.769 9.15372 14.6227C9.31106 14.4764 9.51151 14.3768 9.72974 14.3364C9.94797 14.2961 10.1742 14.3168 10.3797 14.396C10.5853 14.4752 10.761 14.6092 10.8846 14.7813C11.0082 14.9533 11.0742 15.1556 11.0742 15.3625C11.0742 15.6399 10.9557 15.906 10.7447 16.1022C10.5337 16.2983 10.2476 16.4086 9.94922 16.4086Z" fill="#474747"/>
</svg>
