<svg width="24" height="25" viewBox="0 0 24 25" fill="none" xmlns="http://www.w3.org/2000/svg">
<path d="M4.8147 5.3147C4.91421 5.21495 5.03242 5.1358 5.16256 5.0818C5.2927 5.0278 5.43221 5 5.57311 5C5.71401 5 5.85352 5.0278 5.98366 5.0818C6.1138 5.1358 6.23201 5.21495 6.33152 5.3147L12.0003 10.9856L17.669 5.3147C17.7686 5.21511 17.8869 5.1361 18.017 5.0822C18.1471 5.0283 18.2866 5.00056 18.4275 5.00056C18.5683 5.00056 18.7078 5.0283 18.8379 5.0822C18.968 5.1361 19.0863 5.21511 19.1859 5.3147C19.2855 5.4143 19.3645 5.53254 19.4184 5.66266C19.4723 5.79279 19.5 5.93226 19.5 6.07311C19.5 6.21396 19.4723 6.35343 19.4184 6.48356C19.3645 6.61368 19.2855 6.73192 19.1859 6.83152L13.515 12.5003L19.1859 18.169C19.2855 18.2686 19.3645 18.3869 19.4184 18.517C19.4723 18.6471 19.5 18.7866 19.5 18.9275C19.5 19.0683 19.4723 19.2078 19.4184 19.3379C19.3645 19.468 19.2855 19.5863 19.1859 19.6859C19.0863 19.7855 18.968 19.8645 18.8379 19.9184C18.7078 19.9723 18.5683 20 18.4275 20C18.2866 20 18.1471 19.9723 18.017 19.9184C17.8869 19.8645 17.7686 19.7855 17.669 19.6859L12.0003 14.015L6.33152 19.6859C6.23192 19.7855 6.11368 19.8645 5.98356 19.9184C5.85343 19.9723 5.71396 20 5.57311 20C5.43226 20 5.29279 19.9723 5.16266 19.9184C5.03254 19.8645 4.9143 19.7855 4.8147 19.6859C4.71511 19.5863 4.6361 19.468 4.5822 19.3379C4.5283 19.2078 4.50056 19.0683 4.50056 18.9275C4.50056 18.7866 4.5283 18.6471 4.5822 18.517C4.6361 18.3869 4.71511 18.2686 4.8147 18.169L10.4856 12.5003L4.8147 6.83152C4.71495 6.73201 4.6358 6.6138 4.5818 6.48366C4.5278 6.35352 4.5 6.21401 4.5 6.07311C4.5 5.93221 4.5278 5.7927 4.5818 5.66256C4.6358 5.53242 4.71495 5.41421 4.8147 5.3147Z" fill="white"/>
</svg>
