<svg width="21" height="21" viewBox="0 0 21 21" fill="none" xmlns="http://www.w3.org/2000/svg">
<g clip-path="url(#clip0_471_18391)">
<path d="M10.6012 9.63451C11.4476 9.63451 12.2749 9.38354 12.9786 8.91334C13.6823 8.44314 14.2308 7.77482 14.5547 6.99291C14.8786 6.21099 14.9633 5.35059 14.7982 4.52052C14.6331 3.69044 14.2255 2.92796 13.6271 2.32951C13.0286 1.73106 12.2661 1.32351 11.4361 1.1584C10.606 0.993284 9.74559 1.07803 8.96367 1.40191C8.18176 1.72579 7.51344 2.27426 7.04324 2.97796C6.57304 3.68167 6.32207 4.509 6.32207 5.35534C6.32207 6.49025 6.77291 7.57867 7.57541 8.38117C8.37791 9.18367 9.46633 9.63451 10.6012 9.63451ZM13.2346 10.622H7.9679C6.4838 10.622 5.06047 11.2116 4.01105 12.261C2.96163 13.3104 2.37207 14.7337 2.37207 16.2178V20.497C2.37207 20.5843 2.40675 20.668 2.46848 20.7298C2.53021 20.7915 2.61394 20.8262 2.70124 20.8262H18.5012C18.5885 20.8262 18.6723 20.7915 18.734 20.7298C18.7957 20.668 18.8304 20.5843 18.8304 20.497V16.2178C18.8304 14.7337 18.2408 13.3104 17.1914 12.261C16.142 11.2116 14.7187 10.622 13.2346 10.622Z" fill="#474747"/>
<ellipse cx="10.6012" cy="15.7389" rx="2.87273" ry="2.87273" fill="white"/>
<path d="M12.2912 18.1068L8.23451 14.0502L8.91162 13.373L12.9683 17.4297L12.2912 18.1068Z" fill="#474747"/>
</g>
<defs>
<clipPath id="clip0_471_18391">
<rect width="20" height="20" fill="white" transform="translate(0.601074 0.951172)"/>
</clipPath>
</defs>
</svg>
