<svg width="22" height="22" viewBox="0 0 22 22" fill="none" xmlns="http://www.w3.org/2000/svg">
<path d="M13.5686 1.94336H4.42638C3.51713 1.94336 2.64512 2.25937 2.00219 2.82186C1.35925 3.38436 0.998056 4.14727 0.998056 4.94276V20.9396C0.997256 21.1158 1.04968 21.289 1.15002 21.4417C1.25036 21.5945 1.39505 21.7213 1.56944 21.8094C1.74317 21.8972 1.94023 21.9434 2.14083 21.9434C2.34143 21.9434 2.53849 21.8972 2.71222 21.8094L8.99747 18.63L15.2827 21.8094C15.4569 21.8958 15.6539 21.9406 15.8541 21.9394C16.0543 21.9406 16.2513 21.8958 16.4255 21.8094C16.5999 21.7213 16.7446 21.5945 16.8449 21.4417C16.9453 21.289 16.9977 21.1158 16.9969 20.9396V4.94276C16.9969 4.14727 16.6357 3.38436 15.9928 2.82186C15.3498 2.25937 14.4778 1.94336 13.5686 1.94336Z" fill="#474747"/>
<line y1="-0.5" x2="27.4874" y2="-0.5" transform="matrix(0.707287 0.706926 -0.707287 0.706926 0.259766 1.5957)" stroke="#474747"/>
<line y1="-0.5" x2="27.4561" y2="-0.5" transform="matrix(0.707287 0.706926 -0.707287 0.706926 0.96875 0.932617)" stroke="white"/>
</svg>
