<svg width="40" height="40" viewBox="0 0 40 40" fill="none" xmlns="http://www.w3.org/2000/svg">
<path d="M21.3165 25.0241V39.1673H3.3335C3.33294 36.9383 3.83508 34.7387 4.80145 32.7372C5.76782 30.7356 7.17276 28.9851 8.90862 27.6199C10.6445 26.2547 12.6652 25.311 14.8159 24.861C16.9667 24.4111 19.1903 24.4669 21.3165 25.0241ZM17.7199 22.7387C11.7585 22.7387 6.9301 17.8376 6.9301 11.7864C6.9301 5.73518 11.7585 0.833984 17.7199 0.833984C23.6813 0.833984 28.5097 5.73518 28.5097 11.7864C28.5097 17.8376 23.6813 22.7387 17.7199 22.7387ZM30.308 29.2846L34.1222 25.4111L36.6668 27.9941L32.8508 31.8657L36.6668 35.7374L34.1222 38.3203L30.308 34.4468L26.4938 38.3203L23.9492 35.7374L27.7652 31.8657L23.9492 27.9941L26.4938 25.4111L30.308 29.2846Z" fill="#474747"/>
</svg>
