<svg width="20" height="20" viewBox="0 0 20 20" fill="none" xmlns="http://www.w3.org/2000/svg">
<path d="M3.81266 1.97949C3.02254 1.97949 2.26478 2.29337 1.70607 2.85207C1.14737 3.41077 0.833496 4.16853 0.833496 4.95866V12.7503C0.833496 13.2973 1.05079 13.8219 1.43759 14.2087C1.82438 14.5955 2.34899 14.8128 2.896 14.8128H3.12516V7.25032C3.12516 6.4602 3.43904 5.70244 3.99774 5.14373C4.55644 4.58503 5.3142 4.27116 6.10433 4.27116H16.4168V4.04199C16.4168 3.77114 16.3635 3.50294 16.2598 3.25271C16.1562 3.00247 16.0043 2.7751 15.8127 2.58358C15.6212 2.39206 15.3938 2.24014 15.1436 2.13649C14.8934 2.03284 14.6252 1.97949 14.3543 1.97949H3.81266Z" fill="#474747"/>
<path d="M17.1044 5.1875H16.6497L16.5562 5.19392C16.3836 5.21766 16.2265 5.30602 16.1166 5.44114C16.0067 5.57627 15.9521 5.74808 15.964 5.92186C15.9759 6.09564 16.0533 6.25844 16.1806 6.37736C16.3078 6.49628 16.4755 6.56245 16.6497 6.5625H17.1044L17.1979 6.56892C17.3624 6.59151 17.5133 6.67294 17.6225 6.79815C17.7317 6.92335 17.7919 7.08386 17.7919 7.25V8.17033L17.7983 8.26292C17.822 8.4354 17.9103 8.59246 18.0453 8.70238C18.1803 8.8123 18.352 8.86689 18.5258 8.85514C18.6995 8.84339 18.8623 8.76617 18.9812 8.63906C19.1002 8.51196 19.1666 8.34444 19.1669 8.17033V7.25L19.1623 7.10883C19.1265 6.58744 18.8941 6.09907 18.5121 5.74242C18.1301 5.38577 17.627 5.18744 17.1044 5.1875Z" fill="#474747"/>
<path d="M5.41058 10.3653C5.38683 10.1927 5.29847 10.0356 5.16335 9.92567C5.02823 9.81575 4.85642 9.76121 4.68263 9.77308C4.50885 9.78496 4.34605 9.86235 4.22713 9.98963C4.10822 10.1169 4.04205 10.2846 4.04199 10.4588V12.7449L4.04841 12.8384C4.07215 13.011 4.16051 13.1681 4.29563 13.278C4.43076 13.388 4.60257 13.4425 4.77635 13.4306C4.95013 13.4188 5.11293 13.3414 5.23185 13.2141C5.35077 13.0868 5.41694 12.9191 5.41699 12.7449V10.4588L5.41058 10.3653Z" fill="#474747"/>
<path d="M4.72949 14.3496C4.89563 14.3496 5.05614 14.4098 5.18134 14.519C5.30655 14.6282 5.38798 14.779 5.41057 14.9436L5.41699 15.0371V15.9584C5.41699 16.3067 5.67549 16.5945 6.01099 16.6394L6.10449 16.6459H6.56282C6.73701 16.6459 6.90469 16.7121 7.03197 16.831C7.15925 16.9499 7.23664 17.1127 7.24851 17.2865C7.26039 17.4603 7.20585 17.6321 7.09593 17.7672C6.986 17.9023 6.82889 17.9907 6.65632 18.0144L6.56282 18.0209H6.10449C5.58188 18.0209 5.07872 17.8226 4.69672 17.4659C4.31471 17.1093 4.08235 16.6209 4.04658 16.0995L4.04199 15.9584V15.0371C4.04199 14.8548 4.11442 14.6799 4.24336 14.551C4.37229 14.422 4.54716 14.3496 4.72949 14.3496Z" fill="#474747"/>
<path d="M18.4795 14.3496C18.6618 14.3496 18.8367 14.422 18.9656 14.551C19.0945 14.6799 19.167 14.8548 19.167 15.0371V15.9584C19.167 16.5054 18.9497 17.03 18.5629 17.4168C18.1761 17.8036 17.6515 18.0209 17.1045 18.0209H16.1851C16.0027 18.0209 15.8279 17.9484 15.6989 17.8195C15.57 17.6906 15.4976 17.5157 15.4976 17.3334C15.4976 17.151 15.57 16.9762 15.6989 16.8472C15.8279 16.7183 16.0027 16.6459 16.1851 16.6459H17.1045C17.2868 16.6459 17.4617 16.5734 17.5906 16.4445C17.7195 16.3156 17.792 16.1407 17.792 15.9584V15.0371C17.792 14.8548 17.8644 14.6799 17.9933 14.551C18.1223 14.422 18.2971 14.3496 18.4795 14.3496Z" fill="#474747"/>
<path d="M13.8941 16.6465H12.5237L12.4302 16.6529C12.2577 16.6766 12.1005 16.765 11.9906 16.9001C11.8807 17.0352 11.8262 17.2071 11.838 17.3808C11.8499 17.5546 11.9273 17.7174 12.0546 17.8363C12.1819 17.9553 12.3495 18.0214 12.5237 18.0215H13.8941L13.9876 18.0151C14.1602 17.9913 14.3173 17.903 14.4272 17.7678C14.5372 17.6327 14.5917 17.4609 14.5798 17.2871C14.5679 17.1133 14.4906 16.9505 14.3633 16.8316C14.236 16.7127 14.0683 16.6465 13.8941 16.6465Z" fill="#474747"/>
<path d="M8.85434 16.6465H10.2257C10.3999 16.6465 10.5675 16.7127 10.6948 16.8316C10.8221 16.9505 10.8995 17.1133 10.9114 17.2871C10.9232 17.4609 10.8687 17.6327 10.7588 17.7678C10.6489 17.903 10.4917 17.9913 10.3192 18.0151L10.2257 18.0215H8.85526C8.68107 18.0214 8.5134 17.9553 8.38612 17.8363C8.25884 17.7174 8.18144 17.5546 8.16957 17.3808C8.1577 17.2071 8.21223 17.0352 8.32216 16.9001C8.43208 16.765 8.5892 16.6766 8.76176 16.6529L8.85434 16.6465Z" fill="#474747"/>
<path d="M18.4795 9.77148C18.6458 9.77152 18.8064 9.83182 18.9316 9.9412C19.0568 10.0506 19.1382 10.2016 19.1606 10.3664L19.167 10.4599V12.7461C19.1669 12.9203 19.1008 13.0879 18.9819 13.2152C18.8629 13.3425 18.7001 13.4199 18.5264 13.4318C18.3526 13.4436 18.1808 13.3891 18.0456 13.2792C17.9105 13.1692 17.8222 13.0121 17.7984 12.8396L17.792 12.7461V10.4599C17.792 10.2776 17.8644 10.1027 17.9934 9.97376C18.1223 9.84483 18.2972 9.7724 18.4795 9.7724V9.77148Z" fill="#474747"/>
<path d="M7.02391 5.1875C7.20624 5.1875 7.38111 5.25993 7.51004 5.38886C7.63897 5.5178 7.71141 5.69266 7.71141 5.875C7.71141 6.05734 7.63897 6.2322 7.51004 6.36114C7.38111 6.49007 7.20624 6.5625 7.02391 6.5625H6.10449C5.92216 6.5625 5.74729 6.63493 5.61836 6.76386C5.48942 6.89279 5.41699 7.06766 5.41699 7.25V8.17033C5.41699 8.35267 5.34456 8.52754 5.21563 8.65647C5.0867 8.7854 4.91183 8.85783 4.72949 8.85783C4.54716 8.85783 4.37229 8.7854 4.24336 8.65647C4.11442 8.52754 4.04199 8.35267 4.04199 8.17033V7.25C4.04199 6.70299 4.25929 6.17839 4.64608 5.79159C5.03288 5.4048 5.55748 5.1875 6.10449 5.1875H7.02391Z" fill="#474747"/>
<path d="M14.3561 5.1875H12.9783L12.8848 5.19392C12.7122 5.21767 12.555 5.3061 12.4451 5.44132C12.3351 5.57654 12.2807 5.74846 12.2926 5.92232C12.3046 6.09617 12.3822 6.25898 12.5097 6.37783C12.6371 6.49667 12.805 6.56268 12.9792 6.5625H14.357L14.4505 6.55608C14.623 6.53234 14.7802 6.44398 14.8901 6.30886C15 6.17373 15.0545 6.00192 15.0427 5.82814C15.0308 5.65436 14.9534 5.49156 14.8261 5.37264C14.6988 5.25372 14.5312 5.18755 14.357 5.1875H14.3561Z" fill="#474747"/>
<path d="M9.31278 5.1875H10.6832C10.8574 5.18755 11.0251 5.25372 11.1523 5.37264C11.2796 5.49156 11.357 5.65436 11.3689 5.82814C11.3808 6.00192 11.3262 6.17373 11.2163 6.30886C11.1064 6.44398 10.9493 6.53234 10.7767 6.55608L10.6832 6.5625H9.31278C9.13859 6.56245 8.97092 6.49628 8.84364 6.37736C8.71636 6.25844 8.63896 6.09564 8.62709 5.92186C8.61522 5.74808 8.66975 5.57627 8.77967 5.44114C8.8896 5.30602 9.04672 5.21766 9.21928 5.19392L9.31278 5.1875Z" fill="#474747"/>
</svg>
