<svg width="24" height="25" viewBox="0 0 24 25" fill="none" xmlns="http://www.w3.org/2000/svg">
<path d="M9.9375 3.15869C9.39049 3.15869 8.86589 3.37599 8.47909 3.76278C8.0923 4.14958 7.875 4.67418 7.875 5.22119V5.90869H3.0625C2.51549 5.90869 1.99089 6.12599 1.60409 6.51278C1.2173 6.89958 1 7.42418 1 7.97119L1 9.87419L11.4692 12.6654C11.817 12.7581 12.183 12.7581 12.5307 12.6654L23 9.87419V7.97119C23 7.42418 22.7827 6.89958 22.3959 6.51278C22.0091 6.12599 21.4845 5.90869 20.9375 5.90869H16.125V5.22119C16.125 4.67418 15.9077 4.14958 15.5209 3.76278C15.1341 3.37599 14.6095 3.15869 14.0625 3.15869H9.9375ZM9.9375 4.53369H14.0625C14.2448 4.53369 14.4197 4.60612 14.5486 4.73506C14.6776 4.86399 14.75 5.03885 14.75 5.22119V5.90869H9.25V5.22119C9.25 5.03885 9.32243 4.86399 9.45136 4.73506C9.5803 4.60612 9.75516 4.53369 9.9375 4.53369Z" fill="#666666"/>
<path d="M1 18.9719C1 19.5189 1.2173 20.0435 1.60409 20.4303C1.99089 20.8171 2.51549 21.0344 3.0625 21.0344H20.9375C21.4845 21.0344 22.0091 20.8171 22.3959 20.4303C22.7827 20.0435 23 19.5189 23 18.9719V11.2031L12.1774 14.0865C12.0612 14.1175 11.9388 14.1175 11.8226 14.0865L1 11.2031V18.9719Z" fill="#666666"/>
</svg>
