<svg width="16" height="17" viewBox="0 0 16 17" fill="none" xmlns="http://www.w3.org/2000/svg">
<path d="M15.7753 14.9174L12.8091 11.9751C13.9605 10.5395 14.5181 8.71729 14.3672 6.88318C14.2164 5.04907 13.3685 3.34247 11.998 2.11429C10.6275 0.886107 8.83851 0.229701 6.9989 0.280039C5.15928 0.330377 3.40887 1.08363 2.10758 2.38492C0.806291 3.68621 0.0530336 5.43663 0.00269517 7.27624C-0.0476432 9.11586 0.608763 10.9048 1.83694 12.2753C3.06512 13.6459 4.77172 14.4937 6.60583 14.6446C8.43994 14.7954 10.2621 14.2378 11.6978 13.0864L14.64 16.0287C14.7143 16.1036 14.8028 16.1631 14.9002 16.2037C14.9976 16.2443 15.1021 16.2652 15.2077 16.2652C15.3132 16.2652 15.4177 16.2443 15.5152 16.2037C15.6126 16.1631 15.701 16.1036 15.7753 16.0287C15.9194 15.8796 16 15.6804 16 15.473C16 15.2657 15.9194 15.0664 15.7753 14.9174ZM7.21243 13.0864C6.10552 13.0864 5.02346 12.7582 4.10309 12.1432C3.18272 11.5283 2.46538 10.6542 2.04178 9.63153C1.61818 8.60887 1.50735 7.48357 1.7233 6.39792C1.93925 5.31227 2.47228 4.31504 3.25499 3.53233C4.0377 2.74962 5.03493 2.21659 6.12058 2.00064C7.20622 1.78469 8.33153 1.89553 9.35419 2.31912C10.3768 2.74272 11.2509 3.46006 11.8659 4.38043C12.4809 5.3008 12.8091 6.38286 12.8091 7.48978C12.8091 8.97411 12.2195 10.3976 11.1699 11.4472C10.1203 12.4968 8.69676 13.0864 7.21243 13.0864Z" fill="#757575"/>
</svg>
