<svg width="24" height="25" viewBox="0 0 24 25" fill="none" xmlns="http://www.w3.org/2000/svg">
<path d="M19.999 12.5C19.999 11.397 19.102 10.5 17.999 10.5H16.999V7.5C16.999 4.743 14.756 2.5 11.999 2.5C9.24202 2.5 6.99902 4.743 6.99902 7.5V10.5H5.99902C4.89602 10.5 3.99902 11.397 3.99902 12.5V20.5C3.99902 21.603 4.89602 22.5 5.99902 22.5H17.999C19.102 22.5 19.999 21.603 19.999 20.5V12.5ZM8.99902 7.5C8.99902 5.846 10.345 4.5 11.999 4.5C13.653 4.5 14.999 5.846 14.999 7.5V10.5H8.99902V7.5Z" fill="#474747"/>
</svg>
