<svg width="27" height="28" viewBox="0 0 27 28" fill="none" xmlns="http://www.w3.org/2000/svg">
<path d="M22.5 9.5H16.1865L17.4499 5.71212C17.6771 5.02812 17.5624 4.26988 17.1405 3.68488C16.7186 3.09988 16.0346 2.75 15.3135 2.75H13.5C13.1659 2.75 12.8497 2.8985 12.6349 3.155L7.34737 9.5H4.5C3.25912 9.5 2.25 10.5091 2.25 11.75V21.875C2.25 23.1159 3.25912 24.125 4.5 24.125H19.4704C19.9281 24.1235 20.3746 23.9831 20.7509 23.7223C21.1271 23.4616 21.4154 23.0928 21.5775 22.6647L24.6791 14.3949C24.7262 14.2686 24.7502 14.1348 24.75 14V11.75C24.75 10.5091 23.7409 9.5 22.5 9.5ZM4.5 11.75H6.75V21.875H4.5V11.75ZM22.5 13.7964L19.4704 21.875H9V11.0323L14.0265 5H15.3158L13.5585 10.2684C13.5015 10.4375 13.4855 10.6177 13.5121 10.7942C13.5386 10.9707 13.6069 11.1383 13.7111 11.2832C13.8154 11.428 13.9527 11.5459 14.1116 11.6271C14.2705 11.7083 14.4465 11.7504 14.625 11.75H22.5V13.7964Z" fill="#666666"/>
</svg>
