<svg width="26" height="26" viewBox="0 0 26 26" fill="none" xmlns="http://www.w3.org/2000/svg">
<path d="M12.5598 0.375488C5.78353 0.375488 0.0597839 6.09924 0.0597839 12.8755C0.0597839 19.6517 5.78353 25.3755 12.5598 25.3755C19.336 25.3755 25.0598 19.6517 25.0598 12.8755C25.0598 6.09924 19.336 0.375488 12.5598 0.375488ZM12.5598 6.62549C14.7185 6.62549 16.3098 8.21549 16.3098 10.3755C16.3098 12.5355 14.7185 14.1255 12.5598 14.1255C10.4023 14.1255 8.80978 12.5355 8.80978 10.3755C8.80978 8.21549 10.4023 6.62549 12.5598 6.62549ZM6.17728 18.8405C7.29853 17.1905 9.16853 16.0905 11.3098 16.0905H13.8098C15.9523 16.0905 17.821 17.1905 18.9423 18.8405C17.3448 20.5505 15.0785 21.6255 12.5598 21.6255C10.041 21.6255 7.77478 20.5505 6.17728 18.8405Z" fill="white"/>
</svg>
