<svg width="20" height="21" viewBox="0 0 20 21" fill="none" xmlns="http://www.w3.org/2000/svg">
<g clip-path="url(#clip0_2_23666)">
<path d="M10.0007 11.763V18.4297H3.33398C3.33398 16.6616 4.03636 14.9659 5.28661 13.7156C6.53685 12.4654 8.23254 11.763 10.0007 11.763ZM10.0007 10.9297C7.23815 10.9297 5.00065 8.69219 5.00065 5.92969C5.00065 3.16719 7.23815 0.929688 10.0007 0.929688C12.7632 0.929688 15.0007 3.16719 15.0007 5.92969C15.0007 8.69219 12.7632 10.9297 10.0007 10.9297ZM12.1632 15.773C12.0575 15.3284 12.0575 14.8652 12.1632 14.4205L11.3365 13.943L12.1698 12.4997L12.9965 12.9772C13.3283 12.6629 13.7294 12.4311 14.1673 12.3005V11.3464H15.834V12.3005C16.2773 12.4322 16.6773 12.6672 17.0048 12.9772L17.8315 12.4997L18.6648 13.943L17.8382 14.4205C17.9437 14.8649 17.9437 15.3278 17.8382 15.7722L18.6648 16.2497L17.8315 17.693L17.0048 17.2155C16.673 17.5298 16.2719 17.7616 15.834 17.8922V18.8464H14.1673V17.8922C13.7294 17.7616 13.3283 17.5298 12.9965 17.2155L12.1698 17.693L11.3365 16.2497L12.1632 15.773ZM15.0007 14.263C14.7796 14.263 14.5677 14.3508 14.4114 14.5071C14.2551 14.6634 14.1673 14.8753 14.1673 15.0964C14.1673 15.3174 14.2551 15.5293 14.4114 15.6856C14.5677 15.8419 14.7796 15.9297 15.0007 15.9297C15.2217 15.9297 15.4336 15.8419 15.5899 15.6856C15.7462 15.5293 15.834 15.3174 15.834 15.0964C15.834 14.8753 15.7462 14.6634 15.5899 14.5071C15.4336 14.3508 15.2217 14.263 15.0007 14.263Z" fill="#474747"/>
</g>
<defs>
<clipPath id="clip0_2_23666">
<rect width="20" height="20" fill="white" transform="translate(0 0.0961914)"/>
</clipPath>
</defs>
</svg>
