<svg width="18" height="18" viewBox="0 0 18 18" fill="none" xmlns="http://www.w3.org/2000/svg">
<path d="M10.2652 8.77734L17.2385 1.80401C17.5872 1.45534 17.5872 0.887511 17.2385 0.538844C16.8898 0.190177 16.322 0.190177 15.9733 0.538844L9 7.51218L2.02666 0.538844C1.678 0.190177 1.11017 0.190177 0.7615 0.538844C0.412833 0.887511 0.412833 1.45534 0.7615 1.80401L7.73484 8.77734L0.7615 15.7507C0.412833 16.0993 0.412833 16.6672 0.7615 17.0158C1.11017 17.3645 1.678 17.3645 2.02666 17.0158L9 10.0425L15.9733 17.0158C16.322 17.3645 16.8898 17.3645 17.2385 17.0158C17.5872 16.6672 17.5872 16.0993 17.2385 15.7507L10.2652 8.77734Z" fill="#474747"/>
</svg>
