<svg width="24" height="25" viewBox="0 0 24 25" fill="none" xmlns="http://www.w3.org/2000/svg">
<path d="M12 1.59619C9.81276 1.59877 7.71584 2.46879 6.16923 4.01541C4.62261 5.56203 3.75259 7.65895 3.75001 9.84619C3.74739 11.6336 4.33124 13.3725 5.41201 14.7962C5.41201 14.7962 5.63701 15.0924 5.67376 15.1352L12 22.5962L18.3293 15.1314C18.3623 15.0917 18.588 14.7962 18.588 14.7962L18.5888 14.7939C19.669 13.3709 20.2526 11.6328 20.25 9.84619C20.2474 7.65895 19.3774 5.56203 17.8308 4.01541C16.2842 2.46879 14.1873 1.59877 12 1.59619ZM12 12.8462C11.4067 12.8462 10.8266 12.6702 10.3333 12.3406C9.83995 12.011 9.45543 11.5424 9.22837 10.9942C9.00131 10.4461 8.9419 9.84286 9.05765 9.26092C9.17341 8.67898 9.45913 8.14443 9.87869 7.72487C10.2982 7.30531 10.8328 7.01959 11.4147 6.90384C11.9967 6.78808 12.5999 6.84749 13.1481 7.07455C13.6962 7.30162 14.1648 7.68613 14.4944 8.17948C14.8241 8.67283 15 9.25285 15 9.84619C14.999 10.6415 14.6826 11.404 14.1202 11.9664C13.5578 12.5288 12.7954 12.8452 12 12.8462Z" fill="#666666"/>
</svg>
