<svg width="30" height="30" viewBox="0 0 30 30" fill="none" xmlns="http://www.w3.org/2000/svg">
<g clip-path="url(#clip0_2_15662)">
<path fill-rule="evenodd" clip-rule="evenodd" d="M0.00976563 15C0.00976563 11.0218 1.59012 7.20644 4.40316 4.3934C7.21621 1.58035 11.0315 0 15.0098 0C18.988 0 22.8033 1.58035 25.6164 4.3934C28.4294 7.20644 30.0098 11.0218 30.0098 15C30.0098 18.9782 28.4294 22.7936 25.6164 25.6066C22.8033 28.4196 18.988 30 15.0098 30C11.0315 30 7.21621 28.4196 4.40316 25.6066C1.59012 22.7936 0.00976563 18.9782 0.00976562 15H0.00976563ZM14.1538 21.42L22.7898 10.624L21.2298 9.376L13.8658 18.578L8.64977 14.232L7.36977 15.768L14.1538 21.422V21.42Z" fill="#4C5BD4"/>
</g>
<defs>
<clipPath id="clip0_2_15662">
<rect width="30" height="30" fill="white" transform="translate(0.00976562)"/>
</clipPath>
</defs>
</svg>
