<svg width="24" height="25" viewBox="0 0 24 25" fill="none" xmlns="http://www.w3.org/2000/svg">
<path d="M9.28163 12.6705C9.28163 13.3667 9.55819 14.0344 10.0505 14.5267C10.5428 15.019 11.2104 15.2955 11.9066 15.2955C12.6028 15.2955 13.2705 15.019 13.7628 14.5267C14.2551 14.0344 14.5316 13.3667 14.5316 12.6705C14.5316 11.9743 14.2551 11.3067 13.7628 10.8144C13.2705 10.3221 12.6028 10.0455 11.9066 10.0455C11.2104 10.0455 10.5428 10.3221 10.0505 10.8144C9.55819 11.3067 9.28163 11.9743 9.28163 12.6705ZM22.0832 12.0658C19.8613 7.38538 16.5027 5.02991 12.0004 5.02991C7.49569 5.02991 4.13944 7.38538 1.91757 12.0682C1.82845 12.2569 1.78223 12.463 1.78223 12.6717C1.78223 12.8804 1.82845 13.0865 1.91757 13.2752C4.13944 17.9557 7.49804 20.3112 12.0004 20.3112C16.5051 20.3112 19.8613 17.9557 22.0832 13.2729C22.2637 12.8932 22.2637 12.4526 22.0832 12.0658ZM11.9066 16.7955C9.6285 16.7955 7.78163 14.9487 7.78163 12.6705C7.78163 10.3924 9.6285 8.54553 11.9066 8.54553C14.1848 8.54553 16.0316 10.3924 16.0316 12.6705C16.0316 14.9487 14.1848 16.7955 11.9066 16.7955Z" fill="#474747"/>
</svg>
