<svg width="20" height="21" viewBox="0 0 20 21" fill="none" xmlns="http://www.w3.org/2000/svg">
<path d="M14.1663 2.13501H5.83301C4.41634 2.13501 3.33301 3.21834 3.33301 4.63501V9.63501H10.4997L8.58301 7.71834C8.24967 7.38501 8.24967 6.88501 8.58301 6.55168C8.91634 6.21834 9.41634 6.21834 9.74967 6.55168L13.083 9.88501C13.4163 10.2183 13.4163 10.7183 13.083 11.0517L9.74967 14.385C9.41634 14.7183 8.91634 14.7183 8.58301 14.385C8.24967 14.0517 8.24967 13.5517 8.58301 13.2183L10.4997 11.3017H3.33301V16.3017C3.33301 17.7183 4.41634 18.8017 5.83301 18.8017H14.1663C15.583 18.8017 16.6663 17.7183 16.6663 16.3017V4.63501C16.6663 3.21834 15.583 2.13501 14.1663 2.13501Z" fill="#474747"/>
</svg>
