<svg width="23" height="15" viewBox="0 0 23 15" fill="none" xmlns="http://www.w3.org/2000/svg">
<path fill-rule="evenodd" clip-rule="evenodd" d="M4.53696 11.4757C4.29053 11.4404 4.02857 11.4205 3.75 11.4205C1.69821 11.4205 0.552321 12.5032 0.113035 13.0427C0.0417849 13.1354 0.00375203 13.2489 0.00375203 13.3662C0.00375203 13.3695 0.00374823 13.3727 0.00321252 13.3754C-1.76569e-06 13.5736 0 13.8361 0 14.0991C0 14.3948 0.24 14.6348 0.535714 14.6348H4.37786C4.31732 14.4645 4.28571 14.2834 4.28571 14.0991C4.28571 13.4895 4.28571 12.763 4.28786 12.3339C4.28786 12.0286 4.37518 11.7312 4.53696 11.4757ZM16.6071 14.6348H5.89286C5.75089 14.6348 5.61428 14.5786 5.51411 14.4779C5.41339 14.3777 5.35714 14.2411 5.35714 14.0991C5.35714 13.4911 5.35714 12.7679 5.35928 12.3371C5.35928 12.3361 5.35928 12.335 5.35928 12.3339C5.35928 12.2107 5.40214 12.0918 5.47982 11.9964C6.14464 11.2373 8.15357 9.27767 11.25 9.27767C14.7546 9.27767 16.5145 11.2336 17.0529 11.9712C17.1123 12.0618 17.1429 12.1641 17.1429 12.2686V14.0991C17.1429 14.2411 17.0866 14.3777 16.9859 14.4779C16.8857 14.5786 16.7491 14.6348 16.6071 14.6348ZM18.1221 14.6348H21.9643C22.26 14.6348 22.5 14.3948 22.5 14.0991V13.3657C22.5 13.2473 22.4609 13.1327 22.3891 13.0389C21.9477 12.5032 20.8012 11.4205 18.75 11.4205C18.4859 11.4205 18.2368 11.4382 18.0021 11.4704C18.1409 11.713 18.2143 11.9884 18.2143 12.2696V14.0991C18.2143 14.2834 18.1827 14.4645 18.1221 14.6348ZM3.75 4.99196C2.27143 4.99196 1.07143 6.19196 1.07143 7.67053C1.07143 9.1491 2.27143 10.3491 3.75 10.3491C5.22857 10.3491 6.42857 9.1491 6.42857 7.67053C6.42857 6.19196 5.22857 4.99196 3.75 4.99196ZM18.75 4.99196C17.2714 4.99196 16.0714 6.19196 16.0714 7.67053C16.0714 9.1491 17.2714 10.3491 18.75 10.3491C20.2286 10.3491 21.4286 9.1491 21.4286 7.67053C21.4286 6.19196 20.2286 4.99196 18.75 4.99196ZM11.25 0.706245C9.18054 0.706245 7.5 2.38678 7.5 4.45625C7.5 6.52571 9.18054 8.20625 11.25 8.20625C13.3195 8.20625 15 6.52571 15 4.45625C15 2.38678 13.3195 0.706245 11.25 0.706245Z" fill="#4C5BD4"/>
</svg>
