<svg width="24" height="25" viewBox="0 0 24 25" fill="none" xmlns="http://www.w3.org/2000/svg">
<path d="M12.0121 9.82539C11.3113 9.82539 10.6551 10.0973 10.1582 10.5941C9.66366 11.091 9.38944 11.7473 9.38944 12.448C9.38944 13.1488 9.66366 13.8051 10.1582 14.302C10.6551 14.7965 11.3113 15.0707 12.0121 15.0707C12.7129 15.0707 13.3691 14.7965 13.866 14.302C14.3605 13.8051 14.6348 13.1488 14.6348 12.448C14.6348 11.7473 14.3605 11.091 13.866 10.5941C13.6233 10.3496 13.3345 10.1557 13.0162 10.0237C12.6979 9.89175 12.3566 9.82434 12.0121 9.82539ZM21.6754 15.3449L20.1426 14.0348C20.2152 13.5895 20.2527 13.1348 20.2527 12.6824C20.2527 12.2301 20.2152 11.773 20.1426 11.3301L21.6754 10.0199C21.7912 9.9208 21.874 9.78877 21.913 9.6414C21.9519 9.49403 21.9451 9.33831 21.8933 9.19492L21.8723 9.13399C21.4504 7.95435 20.8183 6.86091 20.0066 5.90664L19.9644 5.85742C19.8659 5.74153 19.7345 5.65822 19.5877 5.61847C19.4408 5.57872 19.2853 5.58441 19.1418 5.63477L17.2387 6.31211C16.5355 5.73555 15.7527 5.28086 14.9043 4.96445L14.5363 2.97461C14.5086 2.82471 14.4358 2.6868 14.3278 2.57921C14.2198 2.47162 14.0816 2.39945 13.9316 2.37227L13.8683 2.36055C12.6496 2.14023 11.3652 2.14023 10.1465 2.36055L10.0832 2.37227C9.93318 2.39945 9.79499 2.47162 9.68699 2.57921C9.57898 2.6868 9.50626 2.82471 9.4785 2.97461L9.10819 4.97383C8.26779 5.29276 7.4849 5.74634 6.79022 6.3168L4.87303 5.63477C4.72952 5.58401 4.57395 5.57812 4.42701 5.61789C4.28006 5.65766 4.1487 5.74121 4.05038 5.85742L4.00819 5.90664C3.19794 6.86193 2.56601 7.9551 2.14257 9.13399L2.12147 9.19492C2.016 9.48789 2.10272 9.81602 2.33944 10.0199L3.891 11.3441C3.81835 11.7848 3.78319 12.2348 3.78319 12.6801C3.78319 13.1301 3.81835 13.5801 3.891 14.016L2.34413 15.3402C2.22834 15.4394 2.14546 15.5714 2.10653 15.7188C2.06759 15.8661 2.07444 16.0219 2.12616 16.1652L2.14725 16.2262C2.57147 17.4051 3.19725 18.4949 4.01288 19.4535L4.05506 19.5027C4.15363 19.6186 4.285 19.7019 4.43185 19.7417C4.57871 19.7814 4.73416 19.7758 4.87772 19.7254L6.79491 19.0434C7.49335 19.6176 8.27147 20.0723 9.11288 20.3863L9.48319 22.3855C9.51095 22.5354 9.58367 22.6734 9.69167 22.7809C9.79968 22.8885 9.93787 22.9607 10.0879 22.9879L10.1512 22.9996C11.3819 23.2211 12.6423 23.2211 13.873 22.9996L13.9363 22.9879C14.0863 22.9607 14.2245 22.8885 14.3325 22.7809C14.4405 22.6734 14.5132 22.5354 14.541 22.3855L14.909 20.3957C15.7574 20.077 16.5402 19.6246 17.2433 19.048L19.1465 19.7254C19.29 19.7762 19.4456 19.782 19.5925 19.7423C19.7394 19.7025 19.8708 19.619 19.9691 19.5027L20.0113 19.4535C20.8269 18.4902 21.4527 17.4051 21.8769 16.2262L21.898 16.1652C21.9988 15.8746 21.9121 15.5488 21.6754 15.3449ZM12.0121 16.5684C9.73631 16.5684 7.89178 14.7238 7.89178 12.448C7.89178 10.1723 9.73631 8.32774 12.0121 8.32774C14.2879 8.32774 16.1324 10.1723 16.1324 12.448C16.1324 14.7238 14.2879 16.5684 12.0121 16.5684Z" fill="#4C5BD4"/>
</svg>
