<svg width="18" height="16" viewBox="0 0 18 16" fill="none" xmlns="http://www.w3.org/2000/svg">
<path d="M9.00098 6.07053C8.64641 6.07053 8.29531 6.14037 7.96773 6.27606C7.64015 6.41174 7.34251 6.61062 7.09179 6.86134C6.84107 7.11206 6.64219 7.40971 6.5065 7.73729C6.37081 8.06486 6.30098 8.41596 6.30098 8.77053C6.30098 9.1251 6.37081 9.4762 6.5065 9.80378C6.64219 10.1314 6.84107 10.429 7.09179 10.6797C7.34251 10.9304 7.64015 11.1293 7.96773 11.265C8.29531 11.4007 8.64641 11.4705 9.00098 11.4705C9.71706 11.4705 10.4038 11.1861 10.9102 10.6797C11.4165 10.1734 11.701 9.48662 11.701 8.77053C11.701 8.05445 11.4165 7.36769 10.9102 6.86134C10.4038 6.35499 9.71706 6.07053 9.00098 6.07053ZM16.201 3.37053H14.041C13.8855 3.36344 13.7355 3.31112 13.6094 3.21999C13.4832 3.12886 13.3864 3.00289 13.3309 2.85753L12.772 1.18263C12.716 1.03744 12.619 0.911686 12.4927 0.820743C12.3664 0.729801 12.2164 0.677605 12.061 0.670532H5.94098C5.64398 0.670532 5.32358 0.900932 5.23088 1.18173L4.67108 2.85753C4.61541 3.00282 4.51859 3.12873 4.39247 3.21985C4.26635 3.31096 4.1164 3.36333 3.96098 3.37053H1.80098C0.810977 3.37053 0.000976562 4.18053 0.000976562 5.17053V13.2705C0.000976562 14.2605 0.810977 15.0705 1.80098 15.0705H16.201C17.191 15.0705 18.001 14.2605 18.001 13.2705V5.17053C18.001 4.18053 17.191 3.37053 16.201 3.37053ZM9.00098 13.2705C7.8075 13.2705 6.66291 12.7964 5.819 11.9525C4.97508 11.1086 4.50098 9.964 4.50098 8.77053C4.50098 7.57706 4.97508 6.43246 5.819 5.58855C6.66291 4.74464 7.8075 4.27053 9.00098 4.27053C10.1945 4.27053 11.339 4.74464 12.183 5.58855C13.0269 6.43246 13.501 7.57706 13.501 8.77053C13.501 9.964 13.0269 11.1086 12.183 11.9525C11.339 12.7964 10.1945 13.2705 9.00098 13.2705ZM15.751 6.25053C15.5839 6.25053 15.4236 6.18416 15.3055 6.06601C15.1874 5.94786 15.121 5.78762 15.121 5.62053C15.121 5.45344 15.1874 5.2932 15.3055 5.17505C15.4236 5.05691 15.5839 4.99053 15.751 4.99053C15.9181 4.99053 16.0783 5.05691 16.1965 5.17505C16.3146 5.2932 16.381 5.45344 16.381 5.62053C16.381 5.78762 16.3146 5.94786 16.1965 6.06601C16.0783 6.18416 15.9181 6.25053 15.751 6.25053Z" fill="#474747"/>
</svg>
