<svg width="36" height="36" viewBox="0 0 36 36" fill="none" xmlns="http://www.w3.org/2000/svg">
<rect width="36" height="36" rx="18" fill="white"/>
<path d="M24.0002 12C23.3902 12 22.8302 11.65 22.5502 11.11L21.8302 9.66C21.3702 8.75 20.1702 8 19.1502 8H16.8602C15.8302 8 14.6302 8.75 14.1702 9.66L13.4502 11.11C13.1702 11.65 12.6102 12 12.0002 12C9.83017 12 8.11017 13.83 8.25017 15.99L8.77017 24.25C8.89017 26.31 10.0002 28 12.7602 28H23.2402C26.0002 28 27.1002 26.31 27.2302 24.25L27.7502 15.99C27.8902 13.83 26.1702 12 24.0002 12ZM16.5002 13.25H19.5002C19.9102 13.25 20.2502 13.59 20.2502 14C20.2502 14.41 19.9102 14.75 19.5002 14.75H16.5002C16.0902 14.75 15.7502 14.41 15.7502 14C15.7502 13.59 16.0902 13.25 16.5002 13.25ZM18.0002 24.12C16.1402 24.12 14.6202 22.61 14.6202 20.74C14.6202 18.87 16.1302 17.36 18.0002 17.36C19.8702 17.36 21.3802 18.87 21.3802 20.74C21.3802 22.61 19.8602 24.12 18.0002 24.12Z" fill="#474747"/>
</svg>
