<svg width="24" height="25" viewBox="0 0 24 25" fill="none" xmlns="http://www.w3.org/2000/svg">
<path d="M11.9996 2.27052C6.25964 2.27052 1.59961 6.93055 1.59961 12.6705C1.59961 18.4105 6.25964 23.0705 11.9996 23.0705C17.7292 23.0705 22.3811 18.4271 22.3979 12.7013C22.399 12.6911 22.3996 12.6808 22.3996 12.6705C22.3996 12.6613 22.3992 12.6521 22.3984 12.6429C22.3834 6.91557 17.7304 2.27052 11.9996 2.27052ZM11.9996 2.89452C12.0932 2.89452 12.1854 2.89868 12.2783 2.90138C12.4433 2.93695 12.5876 2.97418 12.6534 3.01599C12.8963 2.95338 12.9547 2.94735 12.9416 2.94048C14.1235 3.05291 15.2747 3.38101 16.3383 3.90852C16.3379 3.93888 16.3383 3.9705 16.3433 4.01002C15.973 4.10154 16.82 4.81144 16.4814 5.25282C16.4367 5.86164 15.7176 6.60108 15.3779 6.56488C15.816 7.14728 15.7378 8.17439 14.9755 8.09285C14.4045 8.11303 14.1497 8.68711 13.7437 8.99266C13.9271 8.43148 13.4057 8.39383 13.4702 7.98074C13.1082 8.237 13.1459 8.4009 12.8308 7.94184C13.1511 7.70639 12.6635 7.12544 12.5408 7.06408C12.2544 7.22528 11.9551 7.14208 12.4002 7.48216C11.2702 7.81704 12.8707 8.58664 12.2426 9.31256C11.8536 10.234 10.918 10.7617 9.96183 10.8761C10.2385 11.5117 8.98049 11.8635 9.46575 11.0789C9.76798 10.4707 8.27974 11.3404 9.11798 11.6944C9.62425 12.1089 9.78004 13.1608 9.00795 13.39C8.57115 13.8906 8.37771 13.6198 8.06675 13.1764C7.7275 12.2054 7.10891 13.2213 7.58523 13.7442C8.24937 14.2692 8.26601 14.8938 8.48483 15.5707C8.31489 16.0437 9.66855 16.1477 9.03124 16.3923C8.17782 16.4089 9.60178 17.2825 9.77006 16.8838C10.2489 17.144 11.2864 17.0814 10.767 17.3445C11.3415 17.4123 12.3276 17.5296 11.6454 16.76C11.4006 16.3677 11.5855 15.6254 12.1352 15.3119C12.5949 15.8003 13.305 14.6629 13.1282 15.433C12.7594 15.7262 12.4969 15.995 13.1794 16.0193C13.4544 16.6215 14.1965 16.0828 14.0609 15.6747C14.4573 15.563 15.2798 15.6921 15.6587 15.8361C16.2863 15.8354 17.315 15.9729 17.5823 16.4101C17.7982 16.1481 18.4988 16.3278 18.2993 15.8463C17.9301 15.7121 18.1177 15.2181 18.4505 15.6759C18.9017 15.7059 19.1777 16.4638 19.7439 16.4551C20.1744 17.2189 19.2262 16.7273 19.3532 16.5437C19.0296 17.2821 18.9011 15.5365 18.5768 16.2236C18.2201 16.416 17.3897 16.9786 18.1152 16.9487C18.5909 16.7746 18.0189 17.92 17.495 17.3283C16.8381 16.5926 16.4026 17.9972 17.0049 18.1952C17.0241 18.6882 17.4426 18.9817 17.6393 19.3887C18.1579 19.9054 16.9791 20.7324 16.5577 21.1453C16.356 21.2305 16.15 21.4417 15.9554 21.6116C15.7844 21.6873 15.6115 21.7591 15.4358 21.825C15.3713 21.7926 15.3116 21.7264 15.2581 21.6097C14.6961 21.5819 14.3346 21.1806 13.6827 21.184C12.81 21.2507 11.7768 21.8246 10.9891 21.4304C11.0545 20.8663 9.85804 19.912 11.0141 19.6547C11.912 19.7176 12.342 19.0004 12.9855 18.558C13.4225 18.3265 14.0671 18.8313 14.0519 18.128C14.0804 17.6954 15.3678 17.9075 15.5267 17.9358C15.3492 18.5022 15.224 18.7366 15.9768 18.6803C16.1005 19.0906 16.7168 17.4655 16.3714 17.4551C16.0824 17.1987 15.2569 17.5169 15.8992 17.0023C15.598 16.2862 14.5154 16.9574 14.4914 16.1162C13.9115 16.0538 15.0318 16.9846 14.1474 16.5129C13.3741 16.8261 12.993 16.1474 12.3347 16.1622C12.6825 16.5071 13.1014 17.295 12.338 16.9934C11.9033 16.2972 12.0302 17.2193 12.1897 17.3973C12.2896 16.8804 12.3212 17.742 12.7792 17.3526C13.144 17.0377 14.3675 17.5107 13.5459 17.4275C13.6405 17.4895 12.0194 18.5234 12.5955 17.7187C12.5997 17.4691 11.7904 17.8027 12.3347 17.9132C11.7494 18.0084 11.0786 17.5254 10.3787 17.5448C9.57911 17.4545 8.71862 17.3468 8.18011 16.6932C7.76473 16.0913 7.11806 16.2234 7.023 15.3928C6.88198 14.9831 6.39463 14.4537 6.44663 14.0254C7.01385 13.963 7.76764 15.3982 7.39033 14.2561C6.9918 13.7621 6.87033 13.0118 7.08145 12.4199C7.14219 11.8183 6.89758 11.8254 6.50675 11.9063C6.40358 11.4373 6.51195 10.1876 5.62587 10.5439C5.125 11.0806 4.2279 11.3809 4.21022 12.1913C3.97518 12.5089 4.68446 13.9476 3.9887 13.5323C4.03467 12.9259 3.9211 13.0547 3.67191 13.0564C3.41753 12.1688 3.43084 11.2 3.54067 10.3083C3.0866 9.8829 3.81481 9.33128 2.97283 9.22146C2.78209 8.84186 2.82057 10.0146 2.49297 10.3925C3.51841 6.09085 7.38159 2.89452 11.9996 2.89452ZM15.5134 3.86504C15.4928 3.86298 15.472 3.86368 15.4516 3.86712C15.358 3.88335 15.2985 3.9628 15.3788 4.1136C14.8218 3.88064 13.4015 4.41874 14.5878 4.72055C14.543 4.41125 15.6725 5.57626 15.1606 5.47101C15.3931 5.767 15.4312 5.87807 15.2436 5.85789C15.3291 6.04925 15.5716 6.11373 15.7553 6.03448C16.6975 5.65634 16.2357 4.7894 15.7091 4.27772C15.8389 4.02541 15.6635 3.8794 15.5134 3.86504ZM17.8748 4.85471C17.9247 4.89215 17.9725 4.93208 18.0218 4.97036C17.8479 4.94685 17.8375 4.90775 17.8748 4.85471ZM14.7465 5.08912C14.7219 5.0806 14.7294 5.17461 14.7943 5.43357C14.749 6.20234 14.085 6.4066 13.6074 6.6146C12.9637 7.06221 13.8625 7.34384 13.7131 7.95599C13.6542 8.06623 13.8525 8.06893 13.8566 7.98199C14.1811 7.47052 14.6799 7.68663 14.9341 7.29767C15.3821 7.25191 14.845 6.49812 15.1358 6.24373C15.1787 6.06277 14.8193 5.11471 14.7463 5.08912H14.7465ZM12.201 9.96215C12.3368 9.97109 12.4121 10.1161 12.2334 10.4759C12.1529 10.6388 12.3174 10.8669 11.9112 10.6839C11.5797 10.3095 11.9744 9.94696 12.201 9.96215ZM12.1375 11.2796C12.3445 11.2588 12.5506 11.513 12.4649 11.9552C11.9576 12.3379 13.0648 12.3489 13.009 12.7518C13.3841 13.1271 13.7738 14.6238 12.8822 14.4832C12.5102 13.6296 12.281 14.7584 11.683 14.7249C11.0511 14.9229 11.9603 15.4024 11.5306 15.6505C11.1549 15.6896 11.1591 16.8573 10.8691 16.6937C10.662 16.5017 9.62404 16.6577 9.48801 16.0965C9.01543 15.814 9.39545 15.0242 9.08907 14.5635C9.38859 14.6161 9.5554 15.7096 9.93084 14.93C10.7737 14.7328 11.0212 13.8386 11.5522 13.303C12.0857 12.8698 11.7367 12.4534 11.7914 11.8683C11.8155 11.4783 11.9765 11.2956 12.1375 11.2796ZM12.0302 13.043C11.8771 13.5275 10.7269 14.0414 11.6887 14.4408L11.8442 14.4418L11.8933 14.3961C12.415 14.2116 12.2952 13.5712 12.291 13.1726C12.0431 13.2506 12.1128 13.2908 12.0302 13.043ZM13.8425 15.1522C13.9563 15.164 14.0043 15.3296 13.8283 15.7262C13.9502 15.9644 13.6245 16.3548 13.4639 16.0172C13.2819 15.5409 13.6532 15.1328 13.8425 15.1524V15.1522Z" fill="#474747"/>
</svg>
