<svg width="20" height="21" viewBox="0 0 20 21" fill="none" xmlns="http://www.w3.org/2000/svg">
<g clip-path="url(#clip0_2_22609)">
<path d="M10.0007 8.77904C10.847 8.77904 11.6743 8.52807 12.378 8.05787C13.0817 7.58767 13.6302 6.91935 13.9541 6.13744C14.278 5.35552 14.3627 4.49512 14.1976 3.66505C14.0325 2.83497 13.6249 2.0725 13.0265 1.47404C12.428 0.875592 11.6656 0.468041 10.8355 0.302928C10.0054 0.137815 9.145 0.222557 8.36308 0.546437C7.58117 0.870317 6.91285 1.41879 6.44265 2.12249C5.97245 2.8262 5.72148 3.65353 5.72148 4.49987C5.72148 5.63478 6.17232 6.7232 6.97482 7.5257C7.77732 8.3282 8.86574 8.77904 10.0007 8.77904ZM12.634 9.76654H7.36732C5.88321 9.76654 4.45989 10.3561 3.41047 11.4055C2.36104 12.4549 1.77148 13.8783 1.77148 15.3624V19.6415C1.77148 19.7288 1.80616 19.8126 1.8679 19.8743C1.92963 19.936 2.01335 19.9707 2.10065 19.9707H17.9007C17.9879 19.9707 18.0717 19.936 18.1334 19.8743C18.1951 19.8126 18.2298 19.7288 18.2298 19.6415V15.3624C18.2298 13.8783 17.6403 12.4549 16.5908 11.4055C15.5414 10.3561 14.1181 9.76654 12.634 9.76654Z" fill="#474747"/>
<ellipse cx="9.99968" cy="14.8835" rx="2.87273" ry="2.87273" fill="white"/>
<path d="M11.6901 17.2513L7.63344 13.1947L8.31055 12.5176L12.3672 16.5742L11.6901 17.2513Z" fill="#474747"/>
</g>
<defs>
<clipPath id="clip0_2_22609">
<rect width="20" height="20" fill="white" transform="translate(0 0.0957031)"/>
</clipPath>
</defs>
</svg>
