<svg width="40" height="40" viewBox="0 0 40 40" fill="none" xmlns="http://www.w3.org/2000/svg">
<circle cx="20" cy="20" r="20" fill="#E6E9FD"/>
<path d="M20.0004 10C17.6469 10 15.7316 11.8252 15.7316 14.0683V20C15.7316 22.2435 17.6469 24.0683 20.0004 24.0683C22.3539 24.0683 24.2691 22.2435 24.2691 20V14.0683C24.2691 11.8252 22.3539 10 20.0004 10ZM20.0004 23.1987C18.3232 23.1987 16.9359 21.993 16.7144 20.4348H23.2859C23.0649 21.9935 21.6775 23.1987 20.0004 23.1987ZM23.3205 19.5652H16.6802V14.0683C16.6802 12.3043 18.1695 10.8696 20.0004 10.8696C21.8312 10.8696 23.3205 12.3043 23.3205 14.0683V19.5652Z" fill="#666666"/>
<path d="M26.6407 17.8261C26.3789 17.8261 26.1664 18.0209 26.1664 18.2609V20C26.1664 23.1165 23.4002 25.6522 20.0004 25.6522C16.6005 25.6522 13.8344 23.1165 13.8344 20V18.2609C13.8344 18.0209 13.6219 17.8261 13.3601 17.8261C13.0982 17.8261 12.8857 18.0209 12.8857 18.2609V20C12.8857 23.4491 15.8241 26.2743 19.5261 26.4996V29.1304H17.1545C16.8927 29.1304 16.6802 29.3252 16.6802 29.5652C16.6802 29.8052 16.8927 30 17.1545 30H22.8462C23.108 30 23.3205 29.8052 23.3205 29.5652C23.3205 29.3252 23.108 29.1304 22.8462 29.1304H20.4747V26.4996C24.1767 26.2743 27.115 23.4491 27.115 20V18.2609C27.115 18.0209 26.9025 17.8261 26.6407 17.8261Z" fill="#666666"/>
<path d="M20.0004 10C17.6469 10 15.7316 11.8252 15.7316 14.0683V20C15.7316 22.2435 17.6469 24.0683 20.0004 24.0683C22.3539 24.0683 24.2691 22.2435 24.2691 20V14.0683C24.2691 11.8252 22.3539 10 20.0004 10ZM20.0004 23.1987C18.3232 23.1987 16.9359 21.993 16.7144 20.4348H23.2859C23.0649 21.9935 21.6775 23.1987 20.0004 23.1987ZM23.3205 19.5652H16.6802V14.0683C16.6802 12.3043 18.1695 10.8696 20.0004 10.8696C21.8312 10.8696 23.3205 12.3043 23.3205 14.0683V19.5652Z" stroke="#666666" stroke-width="0.5"/>
<path d="M26.6407 17.8261C26.3789 17.8261 26.1664 18.0209 26.1664 18.2609V20C26.1664 23.1165 23.4002 25.6522 20.0004 25.6522C16.6005 25.6522 13.8344 23.1165 13.8344 20V18.2609C13.8344 18.0209 13.6219 17.8261 13.3601 17.8261C13.0982 17.8261 12.8857 18.0209 12.8857 18.2609V20C12.8857 23.4491 15.8241 26.2743 19.5261 26.4996V29.1304H17.1545C16.8927 29.1304 16.6802 29.3252 16.6802 29.5652C16.6802 29.8052 16.8927 30 17.1545 30H22.8462C23.108 30 23.3205 29.8052 23.3205 29.5652C23.3205 29.3252 23.108 29.1304 22.8462 29.1304H20.4747V26.4996C24.1767 26.2743 27.115 23.4491 27.115 20V18.2609C27.115 18.0209 26.9025 17.8261 26.6407 17.8261Z" stroke="#666666" stroke-width="0.5"/>
</svg>
