<svg width="25" height="25" viewBox="0 0 25 25" fill="none" xmlns="http://www.w3.org/2000/svg">
<path d="M12.5 0C5.6075 0 0 5.6075 0 12.5C0 19.3925 5.6075 25 12.5 25C19.3925 25 25 19.3925 25 12.5C25 5.6075 19.3925 0 12.5 0ZM12.5 22.7273C6.86068 22.7273 2.27273 18.1393 2.27273 12.5C2.27273 6.86068 6.86068 2.27273 12.5 2.27273C18.1393 2.27273 22.7273 6.86068 22.7273 12.5C22.7273 18.1393 18.1393 22.7273 12.5 22.7273Z" fill="#474747"/>
<path d="M16.0604 16.2606C14.1152 18.2214 10.9507 18.2215 9.00562 16.2607C8.49304 15.7439 7.66182 15.7439 7.14915 16.2607C6.63648 16.7776 6.63648 17.6154 7.14915 18.1323C8.63368 19.6289 10.5829 20.3769 12.533 20.3769C14.4825 20.3769 16.4327 19.6285 17.9169 18.1323C18.4296 17.6155 18.4296 16.7776 17.9169 16.2607C17.4042 15.7438 16.5729 15.7439 16.0604 16.2606Z" fill="#474747"/>
<path d="M8.1665 11.1312C8.49294 10.803 8.67935 10.3478 8.67935 9.88368C8.67935 9.41961 8.49294 8.96435 8.1665 8.63615C7.84094 8.30795 7.38936 8.11914 6.92903 8.11914C6.46773 8.11914 6.01711 8.30795 5.69147 8.63615C5.36512 8.96435 5.17871 9.41961 5.17871 9.88368C5.17871 10.3478 5.36512 10.803 5.69147 11.1312C6.01711 11.4603 6.46869 11.6482 6.92903 11.6482C7.38936 11.6482 7.84094 11.4603 8.1665 11.1312Z" fill="#474747"/>
<path d="M18.1331 8.11914C17.6728 8.11914 17.2212 8.30795 16.8956 8.63615C16.5701 8.96435 16.3828 9.41872 16.3828 9.88368C16.3828 10.3486 16.5701 10.803 16.8956 11.1312C17.2212 11.4603 17.6728 11.6482 18.1331 11.6482C18.5935 11.6482 19.045 11.4603 19.3706 11.1312C19.6962 10.803 19.8834 10.3486 19.8834 9.88368C19.8834 9.41961 19.6961 8.96435 19.3706 8.63615C19.045 8.30795 18.5935 8.11914 18.1331 8.11914Z" fill="#474747"/>
</svg>
