<svg width="40" height="40" viewBox="0 0 40 40" fill="none" xmlns="http://www.w3.org/2000/svg">
<circle cx="20" cy="20" r="20" fill="#EEEEEE"/>
<path d="M25.6865 31.1025C25.4724 31.1019 25.2589 31.0779 25.0498 31.0309C21.0681 30.1886 17.4 28.2136 14.4675 25.3334C11.5976 22.4468 9.60713 18.7716 8.73699 14.7524C8.63439 14.2515 8.65957 13.732 8.81012 13.2439C8.96066 12.7558 9.23149 12.3156 9.59657 11.9655L12.1435 9.45864C12.2735 9.33283 12.4281 9.23649 12.5971 9.1759C12.766 9.11531 12.9456 9.09184 13.124 9.10702C13.309 9.12676 13.4875 9.18771 13.6471 9.28558C13.8066 9.38345 13.9432 9.51586 14.0473 9.67351L17.2309 14.4854C17.3502 14.6721 17.4079 14.8931 17.3953 15.1158C17.3827 15.3385 17.3005 15.5512 17.1608 15.7226L15.5626 17.676C16.1991 19.1166 17.1006 20.4187 18.2178 21.5112C19.3278 22.6434 20.6398 23.5475 22.0827 24.1744L24.0629 22.5661C24.2292 22.4316 24.4316 22.3522 24.6431 22.3382C24.8547 22.3243 25.0654 22.3765 25.2472 22.4879L30.0544 25.6655C30.2194 25.7662 30.3599 25.9038 30.4655 26.068C30.5711 26.2321 30.639 26.4186 30.6641 26.6134C30.6892 26.8082 30.6709 27.0063 30.6105 27.1928C30.5502 27.3794 30.4493 27.5495 30.3155 27.6905L27.8323 30.2039C27.5502 30.491 27.2154 30.7181 26.8472 30.8723C26.4789 31.0266 26.0845 31.1048 25.6865 31.1025ZM13.0221 10.3963L10.4752 12.9032C10.2699 13.0989 10.1178 13.3459 10.0341 13.6199C9.95038 13.8939 9.93783 14.1854 9.9977 14.4659C10.8068 18.2374 12.6667 21.6885 15.3525 24.4023C18.1122 27.112 21.5641 28.9696 25.3109 29.7611C25.5945 29.8218 25.8883 29.8095 26.1662 29.7254C26.444 29.6413 26.697 29.488 26.9027 29.2793L29.3859 26.7659L24.7442 23.699L22.6175 25.4311C22.5361 25.497 22.4402 25.5415 22.3381 25.5608C22.236 25.5801 22.1308 25.5736 22.0317 25.5418C20.2659 24.8764 18.6657 23.8203 17.3455 22.4489C15.9799 21.1448 14.92 19.5422 14.2446 17.7607C14.2161 17.6528 14.2151 17.5392 14.2419 17.4309C14.2686 17.3226 14.3222 17.2231 14.3974 17.1421L16.1166 15.0389L13.0221 10.3963Z" fill="#474747"/>
</svg>
