<svg width="28" height="28" viewBox="0 0 28 28" fill="none" xmlns="http://www.w3.org/2000/svg">
<path d="M14.8088 13.1914C14.9771 13.1914 15.1404 13.2043 15.3022 13.2286C14.6713 13.6799 14.1003 14.2121 13.6069 14.8091H3.48529C3.05627 14.8091 2.64481 14.9795 2.34144 15.2829C2.03808 15.5862 1.86765 15.9977 1.86765 16.4267V18.8532C1.86765 21.1292 4.42191 22.8973 9.14706 22.8973C10.0525 22.9034 10.9566 22.8281 11.8485 22.6724C11.9828 23.2046 12.1672 23.7158 12.3921 24.2044C11.3237 24.4178 10.2365 24.5219 9.14706 24.5149C3.62765 24.5149 0.25 22.1758 0.25 18.8532V16.4267C0.25 15.5686 0.59086 14.7457 1.1976 14.139C1.80433 13.5323 2.62724 13.1914 3.48529 13.1914H14.8088Z" fill="#474747"/>
<path d="M24.5147 7.52947C24.5147 8.60204 24.0887 9.63067 23.3303 10.3891C22.5718 11.1475 21.5432 11.5736 20.4706 11.5736C19.3981 11.5736 18.3694 11.1475 17.611 10.3891C16.8526 9.63067 16.4265 8.60204 16.4265 7.52947C16.4265 6.4569 16.8526 5.42827 17.611 4.66985C18.3694 3.91143 19.3981 3.48535 20.4706 3.48535C21.5432 3.48535 22.5718 3.91143 23.3303 4.66985C24.0887 5.42827 24.5147 6.4569 24.5147 7.52947ZM20.4706 5.103C19.8271 5.103 19.2099 5.35864 18.7549 5.81369C18.2998 6.26875 18.0442 6.88593 18.0442 7.52947C18.0442 8.17301 18.2998 8.79019 18.7549 9.24524C19.2099 9.70029 19.8271 9.95594 20.4706 9.95594C21.1142 9.95594 21.7314 9.70029 22.1864 9.24524C22.6415 8.79019 22.8971 8.17301 22.8971 7.52947C22.8971 6.88593 22.6415 6.26875 22.1864 5.81369C21.7314 5.35864 21.1142 5.103 20.4706 5.103Z" fill="#474747"/>
<path d="M9.14687 0.25C9.89039 0.25 10.6266 0.396446 11.3135 0.680976C12.0005 0.965506 12.6246 1.38255 13.1503 1.90829C13.6761 2.43404 14.0931 3.05818 14.3777 3.7451C14.6622 4.43202 14.8086 5.16825 14.8086 5.91177C14.8086 6.65528 14.6622 7.39151 14.3777 8.07843C14.0931 8.76535 13.6761 9.38949 13.1503 9.91524C12.6246 10.441 12.0005 10.858 11.3135 11.1426C10.6266 11.4271 9.89039 11.5735 9.14687 11.5735C7.64528 11.5735 6.20519 10.977 5.1434 9.91524C4.08161 8.85345 3.48511 7.41336 3.48511 5.91177C3.48511 4.41017 4.08161 2.97008 5.1434 1.90829C6.20519 0.846506 7.64528 0.25 9.14687 0.25ZM9.14687 1.86765C8.07431 1.86765 7.04567 2.29372 6.28725 3.05214C5.52883 3.81056 5.10275 4.8392 5.10275 5.91177C5.10275 6.98433 5.52883 8.01297 6.28725 8.77139C7.04567 9.52981 8.07431 9.95588 9.14687 9.95588C10.2194 9.95588 11.2481 9.52981 12.0065 8.77139C12.7649 8.01297 13.191 6.98433 13.191 5.91177C13.191 4.8392 12.7649 3.81056 12.0065 3.05214C11.2481 2.29372 10.2194 1.86765 9.14687 1.86765Z" fill="#474747"/>
<path d="M27.7502 20.4708C27.7502 22.4014 26.9833 24.253 25.6181 25.6181C24.253 26.9833 22.4014 27.7502 20.4708 27.7502C18.5402 27.7502 16.6887 26.9833 15.3235 25.6181C13.9583 24.253 13.1914 22.4014 13.1914 20.4708C13.1914 18.5402 13.9583 16.6887 15.3235 15.3235C16.6887 13.9583 18.5402 13.1914 20.4708 13.1914C22.4014 13.1914 24.253 13.9583 25.6181 15.3235C26.9833 16.6887 27.7502 18.5402 27.7502 20.4708ZM21.2796 17.2355C21.2796 17.021 21.1944 16.8153 21.0427 16.6636C20.8911 16.5119 20.6853 16.4267 20.4708 16.4267C20.2563 16.4267 20.0506 16.5119 19.8989 16.6636C19.7472 16.8153 19.662 17.021 19.662 17.2355V19.662H17.2355C17.021 19.662 16.8153 19.7472 16.6636 19.8989C16.5119 20.0506 16.4267 20.2563 16.4267 20.4708C16.4267 20.6853 16.5119 20.8911 16.6636 21.0427C16.8153 21.1944 17.021 21.2796 17.2355 21.2796H19.662V23.7061C19.662 23.9206 19.7472 24.1264 19.8989 24.278C20.0506 24.4297 20.2563 24.5149 20.4708 24.5149C20.6853 24.5149 20.8911 24.4297 21.0427 24.278C21.1944 24.1264 21.2796 23.9206 21.2796 23.7061V21.2796H23.7061C23.9206 21.2796 24.1264 21.1944 24.278 21.0427C24.4297 20.8911 24.5149 20.6853 24.5149 20.4708C24.5149 20.2563 24.4297 20.0506 24.278 19.8989C24.1264 19.7472 23.9206 19.662 23.7061 19.662H21.2796V17.2355Z" fill="#474747"/>
</svg>
