<svg width="40" height="40" viewBox="0 0 40 40" fill="none" xmlns="http://www.w3.org/2000/svg">
<circle cx="20" cy="20" r="20" fill="#EEEEEE"/>
<path d="M30.3788 15.0256C30.1897 14.9131 29.9741 14.8527 29.7541 14.8504C29.534 14.8481 29.3173 14.9041 29.1259 15.0127L24.5294 17.5889V15.4024C24.5287 14.7654 24.2754 14.1548 23.825 13.7044C23.3746 13.254 22.764 13.0007 22.127 13H11.4024C10.7654 13.0007 10.1548 13.254 9.70439 13.7044C9.25401 14.1548 9.00069 14.7654 9 15.4024V24.8518C9.00069 25.4887 9.25401 26.0993 9.70439 26.5497C10.1548 27.0001 10.7654 27.2534 11.4024 27.2541H22.127C22.764 27.2534 23.3746 27.0001 23.825 26.5497C24.2754 26.0993 24.5287 25.4887 24.5294 24.8518V22.6652L29.1263 25.2419C29.3179 25.349 29.5342 25.4042 29.7537 25.402C29.9732 25.3998 30.1883 25.3402 30.3777 25.2292C30.567 25.1182 30.7241 24.9596 30.8333 24.7691C30.9424 24.5787 30.9999 24.363 31 24.1435V16.1106C31.0011 15.8911 30.9442 15.6752 30.8352 15.4847C30.7261 15.2942 30.5687 15.1358 30.3788 15.0256ZM23.7059 24.8518C23.7054 25.2704 23.539 25.6717 23.243 25.9677C22.947 26.2637 22.5456 26.4301 22.127 26.4306H11.4024C10.9838 26.4301 10.5824 26.2637 10.2864 25.9677C9.99044 25.6717 9.82396 25.2704 9.82353 24.8518V15.4024C9.82396 14.9838 9.99044 14.5824 10.2864 14.2864C10.5824 13.9904 10.9838 13.824 11.4024 13.8235H22.127C22.5456 13.824 22.947 13.9904 23.243 14.2864C23.539 14.5824 23.7054 14.9838 23.7059 15.4024V24.8518ZM30.1765 24.1435C30.1763 24.2194 30.1564 24.2939 30.1186 24.3597C30.0808 24.4255 30.0265 24.4803 29.961 24.5187C29.8956 24.557 29.8212 24.5776 29.7454 24.5784C29.6695 24.5792 29.5947 24.5602 29.5285 24.5233L24.5294 21.7209V18.5332L29.5278 15.7313C29.594 15.6942 29.6688 15.675 29.7447 15.6757C29.8207 15.6764 29.8951 15.697 29.9606 15.7353C30.0262 15.7736 30.0806 15.8284 30.1184 15.8942C30.1563 15.9601 30.1763 16.0347 30.1765 16.1106V24.1435Z" fill="#474747"/>
<path d="M21.6631 15.8106H19.7647C19.6555 15.8106 19.5508 15.854 19.4735 15.9312C19.3963 16.0084 19.3529 16.1131 19.3529 16.2224C19.3529 16.3316 19.3963 16.4363 19.4735 16.5135C19.5508 16.5907 19.6555 16.6341 19.7647 16.6341H21.6631C21.7723 16.6341 21.877 16.5907 21.9542 16.5135C22.0314 16.4363 22.0748 16.3316 22.0748 16.2224C22.0748 16.1131 22.0314 16.0084 21.9542 15.9312C21.877 15.854 21.7723 15.8106 21.6631 15.8106Z" fill="#474747"/>
<path d="M30.3788 15.0256C30.1897 14.9131 29.9741 14.8527 29.7541 14.8504C29.534 14.8481 29.3173 14.9041 29.1259 15.0127L24.5294 17.5889V15.4024C24.5287 14.7654 24.2754 14.1548 23.825 13.7044C23.3746 13.254 22.764 13.0007 22.127 13H11.4024C10.7654 13.0007 10.1548 13.254 9.70439 13.7044C9.25401 14.1548 9.00069 14.7654 9 15.4024V24.8518C9.00069 25.4887 9.25401 26.0993 9.70439 26.5497C10.1548 27.0001 10.7654 27.2534 11.4024 27.2541H22.127C22.764 27.2534 23.3746 27.0001 23.825 26.5497C24.2754 26.0993 24.5287 25.4887 24.5294 24.8518V22.6652L29.1263 25.2419C29.3179 25.349 29.5342 25.4042 29.7537 25.402C29.9732 25.3998 30.1883 25.3402 30.3777 25.2292C30.567 25.1182 30.7241 24.9596 30.8333 24.7691C30.9424 24.5787 30.9999 24.363 31 24.1435V16.1106C31.0011 15.8911 30.9442 15.6752 30.8352 15.4847C30.7261 15.2942 30.5687 15.1358 30.3788 15.0256ZM23.7059 24.8518C23.7054 25.2704 23.539 25.6717 23.243 25.9677C22.947 26.2637 22.5456 26.4301 22.127 26.4306H11.4024C10.9838 26.4301 10.5824 26.2637 10.2864 25.9677C9.99044 25.6717 9.82396 25.2704 9.82353 24.8518V15.4024C9.82396 14.9838 9.99044 14.5824 10.2864 14.2864C10.5824 13.9904 10.9838 13.824 11.4024 13.8235H22.127C22.5456 13.824 22.947 13.9904 23.243 14.2864C23.539 14.5824 23.7054 14.9838 23.7059 15.4024V24.8518ZM30.1765 24.1435C30.1763 24.2194 30.1564 24.2939 30.1186 24.3597C30.0808 24.4255 30.0265 24.4803 29.961 24.5187C29.8956 24.557 29.8212 24.5776 29.7454 24.5784C29.6695 24.5792 29.5947 24.5602 29.5285 24.5233L24.5294 21.7209V18.5332L29.5278 15.7313C29.594 15.6942 29.6688 15.675 29.7447 15.6757C29.8207 15.6764 29.8951 15.697 29.9606 15.7353C30.0262 15.7736 30.0806 15.8284 30.1184 15.8942C30.1563 15.9601 30.1763 16.0347 30.1765 16.1106V24.1435Z" stroke="#474747" stroke-width="0.5"/>
<path d="M21.6631 15.8106H19.7647C19.6555 15.8106 19.5508 15.854 19.4735 15.9312C19.3963 16.0084 19.3529 16.1131 19.3529 16.2224C19.3529 16.3316 19.3963 16.4363 19.4735 16.5135C19.5508 16.5907 19.6555 16.6341 19.7647 16.6341H21.6631C21.7723 16.6341 21.877 16.5907 21.9542 16.5135C22.0314 16.4363 22.0748 16.3316 22.0748 16.2224C22.0748 16.1131 22.0314 16.0084 21.9542 15.9312C21.877 15.854 21.7723 15.8106 21.6631 15.8106Z" stroke="#474747" stroke-width="0.5"/>
</svg>
