<svg width="40" height="40" viewBox="0 0 40 40" fill="none" xmlns="http://www.w3.org/2000/svg">
<circle cx="20" cy="20" r="20" fill="#E6E9FD"/>
<path d="M11 24.5H9.5V11C9.5004 10.6023 9.65856 10.221 9.93978 9.93978C10.221 9.65856 10.6023 9.5004 11 9.5H24.5V11H11V24.5Z" fill="#666666"/>
<path d="M23.75 20.75C24.195 20.75 24.63 20.618 25 20.3708C25.37 20.1236 25.6584 19.7722 25.8287 19.361C25.999 18.9499 26.0436 18.4975 25.9568 18.061C25.87 17.6246 25.6557 17.2237 25.341 16.909C25.0263 16.5943 24.6254 16.3801 24.189 16.2932C23.7525 16.2064 23.3001 16.251 22.889 16.4213C22.4778 16.5916 22.1264 16.88 21.8792 17.25C21.632 17.62 21.5 18.055 21.5 18.5C21.5006 19.0966 21.7378 19.6685 22.1597 20.0903C22.5815 20.5122 23.1534 20.7494 23.75 20.75ZM23.75 17.75C23.8983 17.75 24.0433 17.794 24.1667 17.8764C24.29 17.9588 24.3861 18.0759 24.4429 18.213C24.4997 18.35 24.5145 18.5008 24.4856 18.6463C24.4567 18.7918 24.3852 18.9254 24.2803 19.0303C24.1754 19.1352 24.0418 19.2067 23.8963 19.2356C23.7508 19.2645 23.6 19.2497 23.463 19.1929C23.3259 19.1361 23.2088 19.04 23.1264 18.9167C23.044 18.7933 23 18.6483 23 18.5C23 18.3011 23.079 18.1103 23.2197 17.9697C23.3603 17.829 23.5511 17.75 23.75 17.75Z" fill="#666666"/>
<path d="M29 13.25H14.75C14.3523 13.2504 13.971 13.4086 13.6898 13.6898C13.4086 13.971 13.2504 14.3523 13.25 14.75V29C13.2504 29.3977 13.4086 29.779 13.6898 30.0602C13.971 30.3414 14.3523 30.4996 14.75 30.5H29C29.3977 30.4996 29.779 30.3414 30.0602 30.0602C30.3414 29.779 30.4996 29.3977 30.5 29V14.75C30.4996 14.3523 30.3414 13.971 30.0602 13.6898C29.779 13.4086 29.3977 13.2504 29 13.25ZM29 29H14.75V24.5L17.75 21.5023L21.9395 25.6918C22.2208 25.973 22.6023 26.1309 23 26.1309C23.3977 26.1309 23.7792 25.973 24.0605 25.6918L25.25 24.5023L29 28.25V29ZM29 26.129L26.3105 23.4395C26.0292 23.1583 25.6477 23.0003 25.25 23.0003C24.8523 23.0003 24.4708 23.1583 24.1895 23.4395L23 24.629L18.8105 20.4395C18.5292 20.1583 18.1477 20.0003 17.75 20.0003C17.3523 20.0003 16.9708 20.1583 16.6895 20.4395L14.75 22.379V14.75H29V26.129Z" fill="#666666"/>
</svg>
