<svg width="40" height="40" viewBox="0 0 40 40" fill="none" xmlns="http://www.w3.org/2000/svg">
<circle cx="20" cy="20" r="20" fill="#E6E9FD"/>
<path d="M20.915 18.1054C20.915 17.923 20.9874 17.7481 21.1164 17.6191C21.2453 17.4902 21.4202 17.4177 21.6026 17.4177H26.6451C26.8275 17.4177 27.0024 17.4902 27.1313 17.6191C27.2603 17.7481 27.3327 17.923 27.3327 18.1054C27.3327 18.2877 27.2603 18.4626 27.1313 18.5916C27.0024 18.7205 26.8275 18.793 26.6451 18.793H21.6026C21.4202 18.793 21.2453 18.7205 21.1164 18.5916C20.9874 18.4626 20.915 18.2877 20.915 18.1054ZM21.6026 21.085C21.4202 21.085 21.2453 21.1575 21.1164 21.2864C20.9874 21.4154 20.915 21.5903 20.915 21.7726C20.915 21.955 20.9874 22.1299 21.1164 22.2588C21.2453 22.3878 21.4202 22.4602 21.6026 22.4602H26.6451C26.8275 22.4602 27.0024 22.3878 27.1313 22.2588C27.2603 22.1299 27.3327 21.955 27.3327 21.7726C27.3327 21.5903 27.2603 21.4154 27.1313 21.2864C27.0024 21.1575 26.8275 21.085 26.6451 21.085H21.6026ZM17.4769 18.1054C17.4769 18.5309 17.3079 18.939 17.007 19.2399C16.7061 19.5407 16.298 19.7098 15.8725 19.7098C15.447 19.7098 15.0389 19.5407 14.738 19.2399C14.4371 18.939 14.268 18.5309 14.268 18.1054C14.268 17.6798 14.4371 17.2717 14.738 16.9708C15.0389 16.67 15.447 16.5009 15.8725 16.5009C16.298 16.5009 16.7061 16.67 17.007 16.9708C17.3079 17.2717 17.4769 17.6798 17.4769 18.1054ZM13.5804 20.6266H18.1645C18.4077 20.6266 18.6409 20.7232 18.8128 20.8951C18.9848 21.0671 19.0813 21.3003 19.0813 21.5434V22.0018C19.0813 22.0018 18.6229 24.2939 15.8725 24.2939C13.122 24.2939 12.6636 22.0018 12.6636 22.0018V21.5434C12.6636 21.3003 12.7602 21.0671 12.9321 20.8951C13.1041 20.7232 13.3373 20.6266 13.5804 20.6266ZM9 13.5213C9 12.8526 9.26563 12.2113 9.73846 11.7385C10.2113 11.2656 10.8526 11 11.5213 11H28.4787C29.1474 11 29.7887 11.2656 30.2615 11.7385C30.7344 12.2113 31 12.8526 31 13.5213V26.8151C31 27.4838 30.7344 28.1251 30.2615 28.5979C29.7887 29.0708 29.1474 29.3364 28.4787 29.3364H11.5222C10.8535 29.3364 10.2122 29.0708 9.73937 28.5979C9.26655 28.1251 9.00092 27.4838 9.00092 26.8151V13.5213H9ZM11.5213 12.3752C10.8886 12.3752 10.3752 12.8886 10.3752 13.5213V26.8151C10.3752 27.4477 10.8886 27.9612 11.5213 27.9612H28.4787C29.1114 27.9612 29.6248 27.4477 29.6248 26.8151V13.5213C29.6248 12.8886 29.1114 12.3752 28.4787 12.3752H11.5222H11.5213Z" fill="#666666"/>
</svg>
