<svg width="21" height="20" viewBox="0 0 21 20" fill="none" xmlns="http://www.w3.org/2000/svg">
<path d="M10.5 20C16.0228 20 20.5 15.5228 20.5 10C20.5 4.47715 16.0228 0 10.5 0C4.97715 0 0.5 4.47715 0.5 10C0.5 15.5228 4.97715 20 10.5 20Z" fill="#474747"/>
<path d="M10.4994 3.83496C7.11758 3.83496 4.37402 6.38815 4.37402 9.54605C4.37402 11.3378 5.26988 12.9391 6.65846 13.9917V16.1642L8.74132 15.0108C9.30124 15.1675 9.88354 15.2459 10.4994 15.2459C13.8813 15.2459 16.6249 12.6927 16.6249 9.53485C16.6249 6.38815 13.8813 3.83496 10.4994 3.83496ZM11.1153 11.5169L9.5476 9.8484L6.50168 11.5169L9.86115 7.9447L11.4625 9.61324L14.4636 7.9447L11.1153 11.5169Z" fill="white"/>
</svg>
