<svg width="30" height="31" viewBox="0 0 30 31" fill="none" xmlns="http://www.w3.org/2000/svg">
<path d="M15 30.2773C23.2843 30.2773 30 23.5616 30 15.2773C30 6.99307 23.2843 0.277344 15 0.277344C6.71573 0.277344 0 6.99307 0 15.2773C0 23.5616 6.71573 30.2773 15 30.2773Z" fill="#FFD54F"/>
<path d="M24.4215 9.93062C24.1265 9.88562 23.829 9.98437 23.6178 10.1944L9.91775 23.8944C9.70775 24.1044 9.609 24.4031 9.654 24.6981C9.699 24.9919 9.88025 25.2481 10.144 25.3869C14.4715 27.6644 19.699 26.8769 23.149 23.4256C26.599 19.9744 27.3878 14.7481 25.1103 10.4206C24.9715 10.1569 24.7165 9.97562 24.4215 9.93062Z" fill="#E53935"/>
<path d="M8.26281 19.8259C7.61531 20.7621 5.50656 23.9396 5.50781 25.5371C5.50781 27.4809 7.09031 29.0634 9.03406 29.0634C10.0066 29.0634 10.8878 28.6684 11.5266 28.0296C12.1641 27.3921 12.5603 26.5096 12.5603 25.5371C12.5603 23.9384 10.4516 20.7621 9.80531 19.8259C9.63156 19.5721 9.34281 19.4209 9.03406 19.4209C8.72531 19.4209 8.43531 19.5734 8.26281 19.8259Z" fill="#00BCD4"/>
<path d="M25.26 5.78516C23.6625 5.78516 20.485 7.89391 19.5488 8.54016C19.2938 8.71516 19.1438 9.00391 19.1438 9.31141C19.1438 9.61891 19.295 9.90766 19.5488 10.0827C20.4838 10.7302 23.6613 12.8389 25.26 12.8377C26.2325 12.8377 27.1138 12.4414 27.7513 11.8039C28.39 11.1652 28.7863 10.2839 28.7863 9.31141C28.7863 7.36766 27.2038 5.78516 25.26 5.78516Z" fill="#00BCD4"/>
<path d="M9.47634 19.0332C9.26759 19.242 8.96259 19.3495 8.65009 19.2945C8.14009 19.2045 7.79884 18.7182 7.89009 18.2082L8.32009 15.7707L5.88259 16.2007C5.37259 16.292 4.88634 15.9507 4.79634 15.4407C4.70384 14.9307 5.04634 14.4457 5.55634 14.3557L9.31259 13.6932C9.61384 13.6395 9.92259 13.737 10.1388 13.9532C10.3551 14.1695 10.4526 14.477 10.3988 14.7795L9.73634 18.5357C9.70134 18.7307 9.60759 18.902 9.47634 19.0332Z" fill="#6D4C41"/>
<path d="M18.7562 9.75336C18.6249 9.88461 18.4537 9.97836 18.2574 10.0121L14.4999 10.6759C14.1987 10.7296 13.8899 10.6321 13.6737 10.4159C13.4574 10.1996 13.3599 9.89211 13.4137 9.58961L14.0762 5.83336C14.1662 5.32336 14.6524 4.98211 15.1612 5.07336C15.6712 5.16336 16.0124 5.64961 15.9212 6.15961L15.4912 8.59711L17.9287 8.16711C18.4387 8.07586 18.9249 8.41711 19.0149 8.92711C19.0724 9.23961 18.9649 9.54461 18.7562 9.75336Z" fill="#6D4C41"/>
</svg>
