<svg width="20" height="21" viewBox="0 0 20 21" fill="none" xmlns="http://www.w3.org/2000/svg">
<path d="M7.73388 10.5962C7.73388 11.1764 7.96435 11.7328 8.37458 12.143C8.78482 12.5532 9.34122 12.7837 9.92138 12.7837C10.5015 12.7837 11.0579 12.5532 11.4682 12.143C11.8784 11.7328 12.1089 11.1764 12.1089 10.5962C12.1089 10.016 11.8784 9.45963 11.4682 9.0494C11.0579 8.63916 10.5015 8.40869 9.92138 8.40869C9.34122 8.40869 8.78482 8.63916 8.37458 9.0494C7.96435 9.45963 7.73388 10.016 7.73388 10.5962V10.5962ZM18.4018 10.0923C16.5503 6.19189 13.7515 4.229 9.9995 4.229C6.2456 4.229 3.44872 6.19189 1.59716 10.0942C1.52289 10.2515 1.48438 10.4233 1.48438 10.5972C1.48438 10.7711 1.52289 10.9428 1.59716 11.1001C3.44872 15.0005 6.24755 16.9634 9.9995 16.9634C13.7534 16.9634 16.5503 15.0005 18.4018 11.0981C18.5522 10.7817 18.5522 10.4146 18.4018 10.0923V10.0923ZM9.92138 14.0337C8.02294 14.0337 6.48388 12.4946 6.48388 10.5962C6.48388 8.69775 8.02294 7.15869 9.92138 7.15869C11.8198 7.15869 13.3589 8.69775 13.3589 10.5962C13.3589 12.4946 11.8198 14.0337 9.92138 14.0337Z" fill="#474747"/>
</svg>
