<svg width="31" height="31" viewBox="0 0 31 31" fill="none" xmlns="http://www.w3.org/2000/svg">
<path fill-rule="evenodd" clip-rule="evenodd" d="M0.0761719 15.2617C0.0761719 11.2835 1.65652 7.46816 4.46957 4.65512C7.28262 1.84207 11.0979 0.261719 15.0762 0.261719C19.0544 0.261719 22.8697 1.84207 25.6828 4.65512C28.4958 7.46816 30.0762 11.2835 30.0762 15.2617C30.0762 19.24 28.4958 23.0553 25.6828 25.8683C22.8697 28.6814 19.0544 30.2617 15.0762 30.2617C11.0979 30.2617 7.28262 28.6814 4.46957 25.8683C1.65652 23.0553 0.0761719 19.24 0.0761719 15.2617H0.0761719ZM14.2202 21.6817L22.8562 10.8857L21.2962 9.63772L13.9322 18.8397L8.71617 14.4937L7.43617 16.0297L14.2202 21.6837V21.6817Z" fill="#CCCCCC"/>
</svg>
