<svg width="31" height="31" viewBox="0 0 31 31" fill="none" xmlns="http://www.w3.org/2000/svg">
<path d="M25.332 15.541C25.332 14.1623 24.2108 13.041 22.832 13.041H21.582V9.29102C21.582 5.84477 18.7783 3.04102 15.332 3.04102C11.8858 3.04102 9.08203 5.84477 9.08203 9.29102V13.041H7.83203C6.45328 13.041 5.33203 14.1623 5.33203 15.541V25.541C5.33203 26.9198 6.45328 28.041 7.83203 28.041H22.832C24.2108 28.041 25.332 26.9198 25.332 25.541V15.541ZM11.582 9.29102C11.582 7.22352 13.2645 5.54102 15.332 5.54102C17.3995 5.54102 19.082 7.22352 19.082 9.29102V13.041H11.582V9.29102Z" fill="#666666"/>
</svg>
