<svg width="20" height="21" viewBox="0 0 20 21" fill="none" xmlns="http://www.w3.org/2000/svg">
<path d="M2.04372 17.7527C1.97785 17.753 1.91238 17.7425 1.84997 17.7214C1.71944 17.6791 1.60648 17.5949 1.52854 17.4819C1.4506 17.369 1.41201 17.2335 1.41872 17.0964C1.41872 17.0027 2.06247 7.9277 11.1625 7.2152V3.9527C11.1624 3.82844 11.1993 3.70697 11.2685 3.6038C11.3378 3.50063 11.4362 3.42045 11.5513 3.37349C11.6663 3.32654 11.7928 3.31494 11.9144 3.34018C12.0361 3.36542 12.1475 3.42635 12.2343 3.5152L18.4031 9.8152C18.5176 9.93203 18.5818 10.0891 18.5818 10.2527C18.5818 10.4163 18.5176 10.5734 18.4031 10.6902L12.2343 16.9902C12.1475 17.079 12.0361 17.14 11.9144 17.1652C11.7928 17.1905 11.6663 17.1789 11.5513 17.1319C11.4362 17.0849 11.3378 17.0048 11.2685 16.9016C11.1993 16.7984 11.1624 16.677 11.1625 16.5527V13.3527C5.08747 13.5839 2.59684 17.4152 2.57184 17.4621C2.51546 17.5511 2.43747 17.6245 2.34513 17.6753C2.2528 17.7261 2.14911 17.7527 2.04372 17.7527Z" fill="#474747"/>
</svg>
