<svg width="20" height="21" viewBox="0 0 20 21" fill="none" xmlns="http://www.w3.org/2000/svg">
<path d="M2.04372 17.3064C1.97785 17.3068 1.91238 17.2962 1.84997 17.2752C1.71944 17.2328 1.60648 17.1486 1.52854 17.0357C1.4506 16.9227 1.41201 16.7872 1.41872 16.6502C1.41872 16.5564 2.06247 7.48141 11.1625 6.76891V3.50641C11.1624 3.38215 11.1993 3.26068 11.2685 3.15751C11.3378 3.05434 11.4362 2.97416 11.5513 2.9272C11.6663 2.88025 11.7928 2.86865 11.9144 2.89389C12.0361 2.91913 12.1475 2.98006 12.2343 3.06891L18.4031 9.36891C18.5176 9.48574 18.5818 9.64281 18.5818 9.80641C18.5818 9.97 18.5176 10.1271 18.4031 10.2439L12.2343 16.5439C12.1475 16.6328 12.0361 16.6937 11.9144 16.7189C11.7928 16.7442 11.6663 16.7326 11.5513 16.6856C11.4362 16.6387 11.3378 16.5585 11.2685 16.4553C11.1993 16.3521 11.1624 16.2307 11.1625 16.1064V12.9064C5.08747 13.1377 2.59684 16.9689 2.57184 17.0158C2.51546 17.1048 2.43747 17.1782 2.34513 17.229C2.2528 17.2798 2.14911 17.3064 2.04372 17.3064Z" fill="#474747"/>
</svg>
