<svg width="20" height="21" viewBox="0 0 20 21" fill="none" xmlns="http://www.w3.org/2000/svg">
<path fill-rule="evenodd" clip-rule="evenodd" d="M4.16634 17.5144H15.833C16.054 17.5144 16.266 17.6022 16.4223 17.7585C16.5785 17.9148 16.6663 18.1267 16.6663 18.3477C16.6663 18.5688 16.5785 18.7807 16.4223 18.937C16.266 19.0933 16.054 19.1811 15.833 19.1811H4.16634C3.94533 19.1811 3.73337 19.0933 3.57709 18.937C3.42081 18.7807 3.33301 18.5688 3.33301 18.3477C3.33301 18.1267 3.42081 17.9148 3.57709 17.7585C3.73337 17.6022 3.94533 17.5144 4.16634 17.5144ZM3.33301 13.3477L11.6663 5.0144L14.1663 7.5144L5.83301 15.8477H3.33301V13.3477ZM12.4997 4.18107L14.1663 2.5144L16.6663 5.0144L14.9988 6.6819L12.4997 4.18107Z" fill="#474747"/>
</svg>
