<svg width="20" height="21" viewBox="0 0 20 21" fill="none" xmlns="http://www.w3.org/2000/svg">
<path fill-rule="evenodd" clip-rule="evenodd" d="M4.16732 17.5264H15.834C16.055 17.5264 16.267 17.6142 16.4232 17.7704C16.5795 17.9267 16.6673 18.1387 16.6673 18.3597C16.6673 18.5807 16.5795 18.7927 16.4232 18.949C16.267 19.1052 16.055 19.193 15.834 19.193H4.16732C3.9463 19.193 3.73434 19.1052 3.57806 18.949C3.42178 18.7927 3.33398 18.5807 3.33398 18.3597C3.33398 18.1387 3.42178 17.9267 3.57806 17.7704C3.73434 17.6142 3.9463 17.5264 4.16732 17.5264ZM3.33398 13.3597L11.6673 5.02637L14.1673 7.52637L5.83398 15.8597H3.33398V13.3597ZM12.5007 4.19303L14.1673 2.52637L16.6673 5.02637L14.9998 6.69387L12.5007 4.19303Z" fill="#474747"/>
</svg>
