<svg width="20" height="20" viewBox="0 0 20 20" fill="none" xmlns="http://www.w3.org/2000/svg">
<path d="M10 18.75C7.67936 18.75 5.45376 17.8281 3.81282 16.1872C2.17187 14.5462 1.25 12.3206 1.25 10C1.25 7.67936 2.17187 5.45376 3.81282 3.81282C5.45376 2.17187 7.67936 1.25 10 1.25C12.3206 1.25 14.5462 2.17187 16.1872 3.81282C17.8281 5.45376 18.75 7.67936 18.75 10C18.75 12.3206 17.8281 14.5462 16.1872 16.1872C14.5462 17.8281 12.3206 18.75 10 18.75ZM10 20C12.6522 20 15.1957 18.9464 17.0711 17.0711C18.9464 15.1957 20 12.6522 20 10C20 7.34784 18.9464 4.8043 17.0711 2.92893C15.1957 1.05357 12.6522 0 10 0C7.34784 0 4.8043 1.05357 2.92893 2.92893C1.05357 4.8043 0 7.34784 0 10C0 12.6522 1.05357 15.1957 2.92893 17.0711C4.8043 18.9464 7.34784 20 10 20Z" fill="#666666"/>
<path d="M5.8074 5.80764C5.86545 5.74944 5.93442 5.70326 6.01035 5.67175C6.08629 5.64024 6.16769 5.62402 6.2499 5.62402C6.33211 5.62402 6.41351 5.64024 6.48944 5.67175C6.56537 5.70326 6.63434 5.74944 6.6924 5.80764L9.9999 9.11639L13.3074 5.80764C13.3655 5.74953 13.4345 5.70343 13.5104 5.67199C13.5863 5.64054 13.6677 5.62435 13.7499 5.62435C13.8321 5.62435 13.9135 5.64054 13.9894 5.67199C14.0653 5.70343 14.1343 5.74953 14.1924 5.80764C14.2505 5.86575 14.2966 5.93474 14.3281 6.01066C14.3595 6.08659 14.3757 6.16796 14.3757 6.25014C14.3757 6.33232 14.3595 6.4137 14.3281 6.48962C14.2966 6.56554 14.2505 6.63453 14.1924 6.69264L10.8836 10.0001L14.1924 13.3076C14.2505 13.3658 14.2966 13.4347 14.3281 13.5107C14.3595 13.5866 14.3757 13.668 14.3757 13.7501C14.3757 13.8323 14.3595 13.9137 14.3281 13.9896C14.2966 14.0655 14.2505 14.1345 14.1924 14.1926C14.1343 14.2508 14.0653 14.2968 13.9894 14.3283C13.9135 14.3597 13.8321 14.3759 13.7499 14.3759C13.6677 14.3759 13.5863 14.3597 13.5104 14.3283C13.4345 14.2968 13.3655 14.2508 13.3074 14.1926L9.9999 10.8839L6.6924 14.1926C6.63429 14.2508 6.5653 14.2968 6.48938 14.3283C6.41345 14.3597 6.33208 14.3759 6.2499 14.3759C6.16772 14.3759 6.08634 14.3597 6.01042 14.3283C5.93449 14.2968 5.86551 14.2508 5.8074 14.1926C5.74929 14.1345 5.70319 14.0655 5.67174 13.9896C5.64029 13.9137 5.62411 13.8323 5.62411 13.7501C5.62411 13.668 5.64029 13.5866 5.67174 13.5107C5.70319 13.4347 5.74929 13.3658 5.8074 13.3076L9.11615 10.0001L5.8074 6.69264C5.74919 6.63458 5.70301 6.56561 5.67151 6.48968C5.64 6.41375 5.62378 6.33235 5.62378 6.25014C5.62378 6.16793 5.64 6.08653 5.67151 6.0106C5.70301 5.93467 5.74919 5.8657 5.8074 5.80764Z" fill="#666666"/>
</svg>
