<svg width="31" height="31" viewBox="0 0 31 31" fill="none" xmlns="http://www.w3.org/2000/svg">
<path d="M15.332 2.54102C8.15707 2.54102 2.33203 8.36606 2.33203 15.541C2.33203 22.716 8.15707 28.541 15.332 28.541C22.494 28.541 28.3089 22.7368 28.33 15.5795C28.3313 15.5667 28.332 15.5539 28.332 15.541C28.332 15.5295 28.3315 15.5179 28.3305 15.5064C28.3118 8.34734 22.4956 2.54102 15.332 2.54102ZM15.332 3.32102C15.449 3.32102 15.5642 3.32622 15.6804 3.3296C15.8866 3.37406 16.0671 3.4206 16.1492 3.47286C16.4529 3.3946 16.526 3.38706 16.5096 3.37848C17.9869 3.51901 19.4259 3.92913 20.7554 4.58852C20.7549 4.62648 20.7554 4.666 20.7616 4.7154C20.2988 4.8298 21.3575 5.71718 20.9342 6.2689C20.8783 7.02992 19.9795 7.95422 19.555 7.90898C20.1025 8.63698 20.0048 9.92086 19.0519 9.81894C18.3382 9.84416 18.0197 10.5618 17.5121 10.9437C17.7415 10.2422 17.0896 10.1952 17.1702 9.6788C16.7178 9.99911 16.7649 10.204 16.371 9.63018C16.7714 9.33586 16.162 8.60968 16.0086 8.53298C15.6505 8.73448 15.2764 8.63048 15.8328 9.05558C14.4202 9.47418 16.4209 10.4362 15.6357 11.3436C15.1495 12.4954 13.98 13.155 12.7848 13.298C13.1306 14.0926 11.5581 14.5322 12.1647 13.5515C12.5425 12.7913 10.6822 13.8783 11.73 14.3208C12.3628 14.839 12.5576 16.1538 11.5925 16.4404C11.0465 17.0662 10.8047 16.7277 10.416 16.1733C9.99189 14.9597 9.21865 16.2295 9.81405 16.8831C10.6442 17.5394 10.665 18.3202 10.9386 19.1662C10.7261 19.7574 12.4182 19.8874 11.6216 20.1932C10.5548 20.214 12.3348 21.306 12.5451 20.8076C13.1436 21.1328 14.4405 21.0546 13.7913 21.3835C14.5094 21.4682 15.7421 21.6149 14.8893 20.6529C14.5832 20.1625 14.8144 19.2346 15.5016 18.8428C16.0762 19.4532 16.9638 18.0316 16.7428 18.9941C16.2818 19.3607 15.9537 19.6966 16.8068 19.727C17.1505 20.4797 18.0782 19.8063 17.9086 19.2962C18.4042 19.1566 19.4322 19.318 19.906 19.498C20.6904 19.4972 21.9763 19.669 22.3104 20.2156C22.5803 19.888 23.456 20.1126 23.2067 19.5107C22.7452 19.343 22.9797 18.7255 23.3957 19.2978C23.9596 19.3352 24.3046 20.2826 25.0124 20.2717C25.5506 21.2264 24.3652 20.6121 24.5241 20.3825C24.1195 21.3055 23.9588 19.1236 23.5535 19.9823C23.1076 20.2228 22.0697 20.9261 22.9766 20.8887C23.5712 20.6711 22.8562 22.1029 22.2012 21.3632C21.3801 20.4436 20.8357 22.1994 21.5887 22.4469C21.6126 23.0631 22.1357 23.4299 22.3817 23.9388C23.0299 24.5846 21.5564 25.6184 21.0297 26.1345C20.7775 26.2411 20.5201 26.505 20.2767 26.7174C20.063 26.812 19.8469 26.9017 19.6272 26.9841C19.5466 26.9436 19.472 26.8609 19.4052 26.715C18.7027 26.6802 18.2508 26.1787 17.436 26.1828C16.345 26.2663 15.0536 26.9836 14.069 26.4909C14.1506 25.7858 12.6551 24.5929 14.1002 24.2713C15.2226 24.3498 15.76 23.4533 16.5644 22.9003C17.1107 22.6109 17.9164 23.242 17.8975 22.3629C17.9331 21.8221 19.5422 22.0873 19.7409 22.1227C19.5191 22.8306 19.3626 23.1237 20.3035 23.0532C20.4582 23.5662 21.2286 21.5348 20.7967 21.5218C20.4356 21.2012 19.4036 21.599 20.2065 20.9558C19.83 20.0606 18.4767 20.8996 18.4468 19.8482C17.722 19.7702 19.1223 20.9337 18.0168 20.344C17.0501 20.7356 16.5738 19.8872 15.7509 19.9056C16.1856 20.3367 16.7093 21.3216 15.7551 20.9446C15.2117 20.0744 15.3703 21.227 15.5697 21.4495C15.6945 20.8034 15.734 21.8803 16.3065 21.3936C16.7626 21 18.2919 21.5912 17.2649 21.4872C17.3832 21.5647 15.3567 22.8572 16.0769 21.8512C16.0821 21.5392 15.0705 21.9563 15.7509 22.0943C15.0193 22.2134 14.1808 21.6097 13.3059 21.6339C12.3064 21.521 11.2308 21.3863 10.5577 20.5694C10.0384 19.817 9.23009 19.9821 9.11127 18.9439C8.93499 18.4317 8.32581 17.77 8.39081 17.2347C9.09983 17.1567 10.0421 18.9507 9.57043 17.523C9.07227 16.9055 8.92043 15.9677 9.18433 15.2277C9.26025 14.4758 8.95449 14.4846 8.46595 14.5858C8.33699 13.9995 8.47245 12.4374 7.36485 12.8828C6.73877 13.5536 5.61739 13.929 5.59529 14.942C5.30149 15.339 6.18809 17.1374 5.31839 16.6182C5.37585 15.8603 5.23389 16.0212 4.92241 16.0233C4.60443 14.9139 4.62107 13.7028 4.75835 12.5882C4.19077 12.0565 5.10103 11.367 4.04855 11.2297C3.81013 10.7552 3.85823 12.2211 3.44873 12.6935C4.73053 7.31644 9.55951 3.32102 15.332 3.32102ZM19.7242 4.53418C19.6985 4.5316 19.6725 4.53248 19.647 4.53678C19.53 4.55706 19.4556 4.65638 19.556 4.84488C18.8597 4.55368 17.0844 5.2263 18.5672 5.60356C18.5113 5.21694 19.9231 6.6732 19.2833 6.54164C19.5739 6.91162 19.6215 7.05046 19.387 7.02524C19.4939 7.26444 19.797 7.34504 20.0266 7.24598C21.2044 6.7733 20.6272 5.68962 19.9689 5.05002C20.1311 4.73464 19.9119 4.55212 19.7242 4.53418ZM22.676 5.77126C22.7384 5.81806 22.7982 5.86798 22.8598 5.91582C22.6425 5.88644 22.6295 5.83756 22.676 5.77126ZM18.7656 6.06428C18.7349 6.05362 18.7443 6.17114 18.8254 6.49484C18.7687 7.4558 17.9388 7.71112 17.3418 7.97112C16.5371 8.53064 17.6606 8.88268 17.4739 9.64786C17.4003 9.78566 17.6481 9.78904 17.6533 9.68036C18.0589 9.04102 18.6824 9.31116 19.0001 8.82496C19.5602 8.76776 18.8888 7.82552 19.2523 7.50754C19.3059 7.28134 18.8566 6.09626 18.7653 6.06428H18.7656ZM15.5837 12.1556C15.7535 12.1667 15.8476 12.348 15.6243 12.7978C15.5237 13.0013 15.7293 13.2866 15.2215 13.0578C14.8071 12.5898 15.3006 12.1366 15.5837 12.1556ZM15.5044 13.8024C15.7631 13.7764 16.0208 14.0941 15.9137 14.6469C15.2795 15.1253 16.6635 15.1391 16.5938 15.6427C17.0626 16.1117 17.5498 17.9827 16.4352 17.8069C15.9703 16.7399 15.6838 18.1509 14.9363 18.109C14.1464 18.3566 15.2829 18.9559 14.7457 19.266C14.2762 19.3149 14.2814 20.7746 13.9189 20.5699C13.66 20.33 12.3626 20.525 12.1925 19.8235C11.6018 19.4704 12.0768 18.4832 11.6939 17.9073C12.0683 17.9731 12.2768 19.3399 12.7461 18.3654C13.7996 18.1189 14.109 17.0012 14.7728 16.3317C15.4397 15.7901 15.0034 15.2696 15.0718 14.5382C15.1019 14.0507 15.3032 13.8224 15.5044 13.8024ZM15.3703 16.0067C15.1789 16.6122 13.7411 17.2547 14.9433 17.7539L15.1378 17.7552L15.1992 17.698C15.8513 17.4674 15.7015 16.6668 15.6963 16.1687C15.3864 16.2662 15.4735 16.3163 15.3703 16.0067ZM17.6356 18.6431C17.7779 18.6579 17.8379 18.8649 17.618 19.3607C17.7703 19.6584 17.3632 20.1464 17.1624 19.7244C16.9349 19.129 17.399 18.6189 17.6356 18.6433V18.6431Z" fill="#666666"/>
</svg>
