<svg width="20" height="21" viewBox="0 0 20 21" fill="none" xmlns="http://www.w3.org/2000/svg">
<circle cx="10" cy="10.9683" r="9" fill="#666666"/>
<path fill-rule="evenodd" clip-rule="evenodd" d="M5.97218 13.251C5.82432 13.2298 5.66714 13.2179 5.5 13.2179C4.26893 13.2179 3.58139 13.8675 3.31782 14.1912C3.27507 14.2468 3.25225 14.3149 3.25225 14.3853C3.25225 14.3872 3.25225 14.3892 3.25193 14.3908C3.25 14.5097 3.25 14.6672 3.25 14.825C3.25 15.0024 3.394 15.1464 3.57143 15.1464H5.87671C5.84039 15.0442 5.82143 14.9356 5.82143 14.825C5.82143 14.4592 5.82143 14.0234 5.82271 13.7659C5.82271 13.5827 5.87511 13.4043 5.97218 13.251ZM13.2143 15.1464H6.78571C6.70054 15.1464 6.61857 15.1127 6.55846 15.0523C6.49804 14.9922 6.46429 14.9102 6.46429 14.825C6.46429 14.4602 6.46428 14.0263 6.46557 13.7678C6.46557 13.7672 6.46557 13.7666 6.46557 13.7659C6.46557 13.692 6.49129 13.6206 6.53789 13.5634C6.93679 13.1079 8.14214 11.9322 10 11.9322C12.1028 11.9322 13.1587 13.1057 13.4817 13.5483C13.5174 13.6026 13.5357 13.664 13.5357 13.7267V14.825C13.5357 14.9102 13.502 14.9922 13.4415 15.0523C13.3814 15.1127 13.2995 15.1464 13.2143 15.1464ZM14.1233 15.1464H16.4286C16.606 15.1464 16.75 15.0024 16.75 14.825V14.385C16.75 14.3139 16.7265 14.2452 16.6835 14.1889C16.4186 13.8675 15.7308 13.2179 14.5 13.2179C14.3415 13.2179 14.1921 13.2285 14.0513 13.2478C14.1345 13.3934 14.1786 13.5586 14.1786 13.7273V14.825C14.1786 14.9356 14.1596 15.0442 14.1233 15.1464ZM5.5 9.36074C4.61286 9.36074 3.89286 10.0807 3.89286 10.9679C3.89286 11.855 4.61286 12.575 5.5 12.575C6.38714 12.575 7.10714 11.855 7.10714 10.9679C7.10714 10.0807 6.38714 9.36074 5.5 9.36074ZM14.5 9.36074C13.6129 9.36074 12.8929 10.0807 12.8929 10.9679C12.8929 11.855 13.6129 12.575 14.5 12.575C15.3871 12.575 16.1071 11.855 16.1071 10.9679C16.1071 10.0807 15.3871 9.36074 14.5 9.36074ZM10 6.78931C8.75832 6.78931 7.75 7.79763 7.75 9.03931C7.75 10.281 8.75832 11.2893 10 11.2893C11.2417 11.2893 12.25 10.281 12.25 9.03931C12.25 7.79763 11.2417 6.78931 10 6.78931Z" fill="white"/>
</svg>
