<svg width="20" height="21" viewBox="0 0 20 21" fill="none" xmlns="http://www.w3.org/2000/svg">
<path d="M10.0007 1.92871C5.21734 1.92871 1.33398 5.81207 1.33398 10.5954C1.33398 15.3787 5.21734 19.262 10.0007 19.262C14.7753 19.262 18.6519 15.3925 18.6659 10.621C18.6668 10.6125 18.6673 10.6039 18.6673 10.5954C18.6673 10.5877 18.667 10.58 18.6663 10.5723C18.6538 5.79959 14.7763 1.92871 10.0007 1.92871ZM10.0007 2.44871C10.0787 2.44871 10.1554 2.45218 10.2329 2.45443C10.3704 2.48407 10.4907 2.5151 10.5454 2.54994C10.7479 2.49776 10.7966 2.49274 10.7857 2.48702C11.7706 2.58071 12.7299 2.85412 13.6162 3.29371C13.6159 3.31902 13.6162 3.34536 13.6204 3.3783C13.3118 3.45456 14.0176 4.04615 13.7355 4.41396C13.6982 4.92131 13.099 5.53751 12.8159 5.50735C13.181 5.99268 13.1158 6.8486 12.4805 6.78066C12.0047 6.79747 11.7924 7.27587 11.4541 7.5305C11.6069 7.06284 11.1724 7.03147 11.2261 6.68723C10.9245 6.90078 10.9559 7.03736 10.6933 6.65482C10.9602 6.4586 10.5539 5.97448 10.4517 5.92335C10.213 6.05768 9.96356 5.98835 10.3345 6.27175C9.39277 6.55082 10.7266 7.19215 10.2031 7.79708C9.87897 8.56495 9.09932 9.0047 8.3025 9.10003C8.53304 9.62974 7.48472 9.92284 7.8891 9.26903C8.14096 8.7622 6.90076 9.48691 7.59929 9.78192C8.02118 10.1274 8.15101 11.0039 7.5076 11.1949C7.1436 11.6122 6.9824 11.3865 6.72326 11.0169C6.44056 10.2078 5.92506 11.0544 6.322 11.4901C6.87545 11.9276 6.88932 12.4481 7.07166 13.0122C6.93005 13.4063 8.0581 13.493 7.52701 13.6968C6.81582 13.7107 8.00246 14.4387 8.14269 14.1064C8.5417 14.3233 9.40629 14.2711 8.97348 14.4903C9.45222 14.5469 10.274 14.6446 9.70546 14.0033C9.50145 13.6764 9.65554 13.0577 10.1137 12.7965C10.4967 13.2035 11.0885 12.2557 10.9412 12.8974C10.6338 13.1418 10.4151 13.3658 10.9838 13.386C11.2129 13.8878 11.8314 13.4389 11.7184 13.0988C12.0488 13.0057 12.7341 13.1134 13.0499 13.2333C13.5729 13.2328 14.4302 13.3474 14.6529 13.7117C14.8328 13.4933 15.4166 13.6431 15.2504 13.2418C14.9427 13.13 15.0991 12.7184 15.3764 13.0999C15.7524 13.1248 15.9824 13.7565 16.4542 13.7492C16.813 14.3857 16.0228 13.9761 16.1287 13.823C15.859 14.4383 15.7519 12.9837 15.4816 13.5563C15.1844 13.7166 14.4924 14.1855 15.097 14.1605C15.4934 14.0154 15.0167 14.97 14.5801 14.4768C14.0327 13.8637 13.6698 15.0343 14.1717 15.1993C14.1877 15.6101 14.5364 15.8547 14.7004 16.1939C15.1325 16.6244 14.1503 17.3136 13.7991 17.6577C13.6309 17.7287 13.4593 17.9047 13.2971 18.0463C13.1546 18.1094 13.0106 18.1692 12.8641 18.2241C12.8104 18.1971 12.7606 18.142 12.7161 18.0447C12.2477 18.0215 11.9465 17.6871 11.4033 17.6899C10.676 17.7455 9.81501 18.2238 9.1586 17.8953C9.21302 17.4252 8.21601 16.63 9.1794 16.4156C9.92768 16.4679 10.286 15.8703 10.8223 15.5016C11.1864 15.3087 11.7236 15.7293 11.7109 15.1433C11.7347 14.7828 12.8074 14.9596 12.9399 14.9831C12.792 15.4551 12.6877 15.6505 13.315 15.6035C13.4181 15.9455 13.9317 14.5912 13.6438 14.5826C13.403 14.3688 12.715 14.634 13.2503 14.2052C12.9993 13.6084 12.0971 14.1678 12.0772 13.4668C11.5939 13.4148 12.5275 14.1905 11.7905 13.7974C11.146 14.0584 10.8285 13.4928 10.2799 13.5051C10.5697 13.7925 10.9188 14.4491 10.2827 14.1978C9.9204 13.6176 10.0261 14.386 10.1591 14.5344C10.2423 14.1036 10.2686 14.8216 10.6503 14.4971C10.9543 14.2347 11.9739 14.6288 11.2892 14.5595C11.3681 14.6112 10.0171 15.4728 10.4973 14.8022C10.5007 14.5942 9.82628 14.8722 10.2799 14.9642C9.79213 15.0436 9.23313 14.6411 8.64986 14.6573C7.98357 14.582 7.26649 14.4923 6.81773 13.9476C6.47158 13.446 5.93269 13.5561 5.85348 12.864C5.73596 12.5225 5.32984 12.0814 5.37317 11.7245C5.84585 11.6725 6.47401 12.8685 6.15958 11.9167C5.82748 11.505 5.72625 10.8798 5.90218 10.3865C5.9528 9.88523 5.74896 9.89112 5.42326 9.95855C5.33729 9.56768 5.4276 8.5263 4.6892 8.82322C4.27181 9.27042 3.52422 9.52071 3.50949 10.196C3.31362 10.4607 3.90469 11.6596 3.32489 11.3135C3.3632 10.8082 3.26856 10.9155 3.0609 10.9169C2.84892 10.1773 2.86001 9.36991 2.95153 8.62683C2.57314 8.27236 3.17998 7.81268 2.47833 7.72116C2.31938 7.40483 2.35145 8.38208 2.07845 8.69703C2.93298 5.11232 6.1523 2.44871 10.0007 2.44871ZM12.9288 3.25748C12.9116 3.25577 12.8943 3.25635 12.8773 3.25922C12.7993 3.27274 12.7497 3.33895 12.8166 3.46462C12.3524 3.27048 11.1689 3.7189 12.1574 3.9704C12.1202 3.71266 13.0614 4.6835 12.6348 4.59579C12.8286 4.84244 12.8603 4.935 12.704 4.91819C12.7752 5.07766 12.9773 5.13139 13.1304 5.06535C13.9156 4.75023 13.5308 4.02778 13.0919 3.60138C13.2 3.39112 13.0539 3.26944 12.9288 3.25748ZM14.8966 4.0822C14.9382 4.1134 14.9781 4.14668 15.0192 4.17858C14.8743 4.15899 14.8656 4.1264 14.8966 4.0822ZM12.2897 4.27755C12.2692 4.27044 12.2755 4.34879 12.3296 4.56459C12.2918 5.20523 11.7385 5.37544 11.3405 5.54878C10.8041 5.92179 11.553 6.15648 11.4286 6.6666C11.3795 6.75847 11.5447 6.76072 11.5482 6.68827C11.8186 6.26204 12.2342 6.44214 12.446 6.118C12.8194 6.07987 12.3719 5.45171 12.6142 5.23972C12.6499 5.08892 12.3504 4.29887 12.2895 4.27755H12.2897ZM10.1684 8.3384C10.2816 8.34586 10.3444 8.46667 10.1955 8.76654C10.1284 8.90226 10.2655 9.0924 9.92698 8.93987C9.65069 8.62787 9.97968 8.32575 10.1684 8.3384ZM10.1156 9.4363C10.288 9.41896 10.4598 9.63078 10.3884 9.99928C9.96564 10.3182 10.8883 10.3274 10.8418 10.6631C11.1544 10.9758 11.4792 12.2232 10.7361 12.106C10.4262 11.3946 10.2352 12.3353 9.73684 12.3074C9.21025 12.4724 9.96789 12.8719 9.60978 13.0787C9.29674 13.1113 9.30021 14.0844 9.05858 13.948C8.88594 13.788 8.02101 13.918 7.90765 13.4503C7.51384 13.215 7.83052 12.5568 7.5752 12.1729C7.8248 12.2167 7.96381 13.1279 8.27668 12.4783C8.97902 12.314 9.18529 11.5688 9.62781 11.1225C10.0724 10.7614 9.78156 10.4144 9.82714 9.92683C9.84725 9.60183 9.98141 9.44964 10.1156 9.4363ZM10.0261 10.9058C9.89856 11.3095 8.94002 11.7378 9.74152 12.0706L9.87117 12.0715L9.91208 12.0333C10.3468 11.8796 10.247 11.3459 10.2435 11.0138C10.0369 11.0788 10.0949 11.1123 10.0261 10.9058ZM11.5364 12.6634C11.6312 12.6733 11.6712 12.8113 11.5246 13.1418C11.6262 13.3403 11.3547 13.6656 11.2209 13.3843C11.0693 12.9874 11.3787 12.6473 11.5364 12.6636V12.6634Z" fill="#666666"/>
</svg>
