<svg width="21" height="21" viewBox="0 0 21 21" fill="none" xmlns="http://www.w3.org/2000/svg">
<path d="M10.8757 2.15234C6.09234 2.15234 2.20898 6.0357 2.20898 10.819C2.20898 15.6023 6.09234 19.4857 10.8757 19.4857C15.6503 19.4857 19.5269 15.6162 19.5409 10.8447C19.5418 10.8361 19.5423 10.8276 19.5423 10.819C19.5423 10.8113 19.542 10.8036 19.5413 10.796C19.5288 6.02322 15.6513 2.15234 10.8757 2.15234ZM10.8757 2.67234C10.9537 2.67234 11.0304 2.67581 11.1079 2.67806C11.2454 2.7077 11.3657 2.73873 11.4204 2.77357C11.6229 2.7214 11.6716 2.71637 11.6607 2.71065C12.6456 2.80434 13.6049 3.07775 14.4912 3.51734C14.4909 3.54265 14.4912 3.569 14.4954 3.60193C14.1868 3.6782 14.8926 4.26978 14.6105 4.6376C14.5732 5.14494 13.974 5.76114 13.6909 5.73098C14.056 6.21632 13.9908 7.07224 13.3555 7.00429C12.8797 7.0211 12.6674 7.4995 12.3291 7.75413C12.4819 7.28648 12.0474 7.2551 12.1011 6.91086C11.7995 7.12441 11.8309 7.261 11.5683 6.87845C11.8352 6.68224 11.4289 6.19812 11.3267 6.14698C11.088 6.28132 10.8386 6.21198 11.2095 6.49538C10.2678 6.77445 11.6016 7.41578 11.0781 8.02072C10.754 8.78858 9.97432 9.22833 9.1775 9.32366C9.40804 9.85337 8.35972 10.1465 8.7641 9.49266C9.01596 8.98584 7.77576 9.71054 8.47429 10.0056C8.89618 10.351 9.02601 11.2276 8.3826 11.4186C8.0186 11.8358 7.8574 11.6101 7.59826 11.2406C7.31556 10.4314 6.80006 11.278 7.197 11.7138C7.75045 12.1512 7.76432 12.6718 7.94666 13.2358C7.80505 13.63 8.9331 13.7166 8.40201 13.9205C7.69082 13.9343 8.87746 14.6623 9.01769 14.33C9.4167 14.5469 10.2813 14.4947 9.84848 14.714C10.3272 14.7705 11.149 14.8682 10.5805 14.2269C10.3765 13.9 10.5305 13.2814 10.9887 13.0202C11.3717 13.4272 11.9635 12.4794 11.8162 13.121C11.5088 13.3654 11.2901 13.5894 11.8588 13.6097C12.0879 14.1115 12.7064 13.6625 12.5934 13.3225C12.9238 13.2294 13.6091 13.337 13.9249 13.457C14.4479 13.4564 15.3052 13.571 15.5279 13.9354C15.7078 13.717 16.2916 13.8667 16.1254 13.4655C15.8177 13.3537 15.9741 12.942 16.2514 13.3235C16.6274 13.3485 16.8574 13.9801 17.3292 13.9728C17.688 14.6093 16.8978 14.1997 17.0037 14.0466C16.734 14.662 16.6269 13.2074 16.3566 13.7799C16.0594 13.9402 15.3674 14.4091 15.972 14.3841C16.3684 14.239 15.8917 15.1936 15.4551 14.7005C14.9077 14.0874 14.5448 15.2579 15.0467 15.4229C15.0627 15.8337 15.4114 16.0783 15.5754 16.4175C16.0075 16.8481 15.0253 17.5372 14.6741 17.8813C14.5059 17.9524 14.3343 18.1283 14.1721 18.2699C14.0296 18.333 13.8856 18.3928 13.7391 18.4478C13.6854 18.4207 13.6356 18.3656 13.5911 18.2684C13.1227 18.2451 12.8215 17.9108 12.2783 17.9135C11.551 17.9692 10.69 18.4474 10.0336 18.1189C10.088 17.6489 9.09101 16.8536 10.0544 16.6392C10.8027 16.6915 11.161 16.0939 11.6973 15.7252C12.0614 15.5323 12.5986 15.953 12.5859 15.3669C12.6097 15.0064 13.6824 15.1832 13.8149 15.2068C13.667 15.6788 13.5627 15.8741 14.19 15.8271C14.2931 16.1691 14.8067 14.8149 14.5188 14.8062C14.278 14.5925 13.59 14.8577 14.1253 14.4288C13.8743 13.8321 12.9721 14.3914 12.9522 13.6904C12.4689 13.6384 13.4025 14.4141 12.6655 14.021C12.021 14.282 11.7035 13.7164 11.1549 13.7288C11.4447 14.0161 11.7938 14.6727 11.1577 14.4214C10.7954 13.8412 10.9011 14.6096 11.0341 14.758C11.1173 14.3273 11.1436 15.0452 11.5253 14.7207C11.8293 14.4583 12.8489 14.8525 12.1642 14.7831C12.2431 14.8348 10.8921 15.6964 11.3723 15.0258C11.3757 14.8178 10.7013 15.0958 11.1549 15.1879C10.6671 15.2673 10.1081 14.8648 9.52486 14.8809C8.85857 14.8057 8.14149 14.7159 7.69273 14.1713C7.34658 13.6696 6.80769 13.7797 6.72848 13.0876C6.61096 12.7461 6.20484 12.305 6.24817 11.9481C6.72085 11.8961 7.34901 13.0921 7.03458 12.1403C6.70248 11.7287 6.60125 11.1034 6.77718 10.6101C6.8278 10.1089 6.62396 10.1148 6.29826 10.1822C6.21229 9.79132 6.3026 8.74993 5.5642 9.04685C5.14681 9.49405 4.39922 9.74434 4.38449 10.4196C4.18862 10.6843 4.77969 11.8833 4.19989 11.5371C4.2382 11.0319 4.14356 11.1392 3.9359 11.1405C3.72392 10.4009 3.73501 9.59354 3.82653 8.85046C3.44814 8.496 4.05498 8.03632 3.35333 7.9448C3.19438 7.62846 3.22645 8.60572 2.95345 8.92066C3.80798 5.33596 7.0273 2.67234 10.8757 2.67234ZM13.8038 3.48112C13.7866 3.4794 13.7693 3.47998 13.7523 3.48285C13.6743 3.49637 13.6247 3.56258 13.6916 3.68825C13.2274 3.49412 12.0439 3.94253 13.0324 4.19404C12.9952 3.93629 13.9364 4.90713 13.5098 4.81942C13.7036 5.06608 13.7353 5.15864 13.579 5.14182C13.6502 5.30129 13.8523 5.35502 14.0054 5.28898C14.7906 4.97386 14.4058 4.25141 13.9669 3.82501C14.075 3.61476 13.9289 3.49308 13.8038 3.48112ZM15.7716 4.30584C15.8132 4.33704 15.8531 4.37032 15.8942 4.40221C15.7493 4.38262 15.7406 4.35004 15.7716 4.30584ZM13.1647 4.50118C13.1442 4.49408 13.1505 4.57242 13.2046 4.78822C13.1668 5.42886 12.6135 5.59908 12.2155 5.77241C11.6791 6.14542 12.428 6.38012 12.3036 6.89024C12.2545 6.9821 12.4197 6.98436 12.4232 6.9119C12.6936 6.48568 13.1092 6.66577 13.321 6.34164C13.6944 6.3035 13.2469 5.67534 13.4892 5.46336C13.5249 5.31256 13.2254 4.5225 13.1645 4.50118H13.1647ZM11.0434 8.56204C11.1566 8.56949 11.2194 8.6903 11.0705 8.99017C11.0034 9.12589 11.1405 9.31604 10.802 9.1635C10.5257 8.8515 10.8547 8.54938 11.0434 8.56204ZM10.9906 9.65993C11.163 9.6426 11.3348 9.85441 11.2634 10.2229C10.8406 10.5419 11.7633 10.551 11.7168 10.8868C12.0294 11.1995 12.3542 12.4468 11.6111 12.3296C11.3012 11.6182 11.1102 12.5589 10.6118 12.531C10.0853 12.696 10.8429 13.0956 10.4848 13.3024C10.1717 13.3349 10.1752 14.308 9.93358 14.1716C9.76094 14.0116 8.89601 14.1416 8.78265 13.674C8.38884 13.4386 8.70552 12.7804 8.4502 12.3965C8.6998 12.4404 8.83881 13.3516 9.15168 12.7019C9.85402 12.5376 10.0603 11.7924 10.5028 11.3461C10.9474 10.9851 10.6566 10.6381 10.7021 10.1505C10.7222 9.82546 10.8564 9.67328 10.9906 9.65993ZM10.9011 11.1294C10.7736 11.5331 9.81502 11.9614 10.6165 12.2942L10.7462 12.2951L10.7871 12.257C11.2218 12.1032 11.122 11.5695 11.1185 11.2374C10.9119 11.3024 10.9699 11.3359 10.9011 11.1294ZM12.4114 12.887C12.5062 12.8969 12.5462 13.0349 12.3996 13.3654C12.5012 13.5639 12.2297 13.8893 12.0959 13.6079C11.9443 13.211 12.2537 12.8709 12.4114 12.8872V12.887Z" fill="white"/>
</svg>
