<svg width="21" height="21" viewBox="0 0 21 21" fill="none" xmlns="http://www.w3.org/2000/svg">
<g clip-path="url(#clip0_535_16577)">
<path d="M4.36751 0.436523C2.02594 0.436523 0.140625 2.32184 0.140625 4.66341V16.2096C0.140625 18.5512 2.02594 20.4365 4.36751 20.4365H15.9137C18.2553 20.4365 20.1406 18.5512 20.1406 16.2096V4.66341C20.1406 2.32184 18.2553 0.436523 15.9137 0.436523H4.36751ZM5.14062 4.60319H15.1406V16.2699H5.14062V4.60319ZM5.97396 5.43652V5.85319V8.76986H9.30729V5.43652H5.97396ZM10.1406 5.43652V6.26986H14.3073V5.43652H10.1406ZM6.80729 6.26986H8.47396V7.93652H6.80729V6.26986ZM10.1406 7.10319V7.93652H14.3073V7.10319H10.1406ZM5.97396 9.60319V10.4365H14.3073V9.60319H5.97396ZM5.97396 11.2699V12.1032H10.1406V11.2699H5.97396ZM12.6406 12.1032C11.7251 12.1032 10.974 12.8544 10.974 13.7699C10.974 14.6854 11.7251 15.4365 12.6406 15.4365C13.5562 15.4365 14.3073 14.6854 14.3073 13.7699C14.3073 12.8544 13.5562 12.1032 12.6406 12.1032ZM5.97396 12.9365V13.7699H10.1406V12.9365H5.97396ZM12.6406 12.9365C13.1058 12.9365 13.474 13.3047 13.474 13.7699C13.474 14.235 13.1058 14.6032 12.6406 14.6032C12.1755 14.6032 11.8073 14.235 11.8073 13.7699C11.8073 13.3047 12.1755 12.9365 12.6406 12.9365ZM5.97396 14.6032V15.4365H10.1406V14.6032H5.97396Z" fill="#474747"/>
</g>
<defs>
<clipPath id="clip0_535_16577">
<rect width="20" height="20" fill="white" transform="translate(0.140625 0.436523)"/>
</clipPath>
</defs>
</svg>
