<svg width="26" height="26" viewBox="0 0 26 26" fill="none" xmlns="http://www.w3.org/2000/svg">
<circle cx="13.4473" cy="13.0977" r="12.5" fill="#4C5BD4"/>
<path d="M7.50975 10.8477C6.64851 10.8477 5.94727 11.5489 5.94727 12.4101V17.4101C5.94727 18.2714 6.64851 18.9726 7.50975 18.9726H9.38474C9.73662 18.9726 10.0603 18.8539 10.3222 18.6563V10.8477H7.50975Z" fill="white"/>
<path d="M20.9472 13.1913C20.9472 12.8157 20.7985 12.4657 20.5403 12.2076C20.8322 11.8882 20.9809 11.4601 20.9403 11.0145C20.8672 10.2201 20.1516 9.59761 19.3103 9.59761H15.4497C15.641 9.01698 15.9472 7.95263 15.9472 7.09763C15.9472 5.74201 14.7954 4.59766 14.0722 4.59766C13.4229 4.59766 12.9591 4.96328 12.9391 4.97828C12.8654 5.03766 12.8223 5.12766 12.8223 5.22264V7.342L11.0223 11.2414L10.9473 11.2795V17.9782C11.456 18.2182 12.0997 18.3476 12.5097 18.3476H18.2466C18.9272 18.3476 19.5228 17.8888 19.6628 17.2557C19.7347 16.9301 19.6928 16.602 19.5497 16.317C20.0116 16.0845 20.3222 15.6088 20.3222 15.0663C20.3222 14.8451 20.2716 14.6332 20.1753 14.4413C20.6372 14.2088 20.9472 13.7332 20.9472 13.1913Z" fill="white"/>
</svg>
