<svg width="21" height="21" viewBox="0 0 21 21" fill="none" xmlns="http://www.w3.org/2000/svg">
<g clip-path="url(#clip0_83_21141)">
<path fill-rule="evenodd" clip-rule="evenodd" d="M10.8994 0.67041C8.24725 0.67041 5.70371 1.72398 3.82835 3.59934C1.95298 5.47471 0.899414 8.01825 0.899414 10.6704C0.899414 13.3226 1.95298 15.8661 3.82835 17.7415C5.70371 19.6168 8.24725 20.6704 10.8994 20.6704C13.5516 20.6704 16.0951 19.6168 17.9705 17.7415C19.8458 15.8661 20.8994 13.3226 20.8994 10.6704C20.8994 8.01825 19.8458 5.47471 17.9705 3.59934C16.0951 1.72398 13.5516 0.67041 10.8994 0.67041V0.67041ZM11.1204 6.30029C12.2059 6.35636 13.246 6.82394 14.0244 7.62231V7.23657C14.0238 7.19553 14.0312 7.15477 14.0463 7.11661C14.0614 7.07845 14.0839 7.04364 14.1125 7.01417C14.1411 6.9847 14.1751 6.96114 14.2128 6.94484C14.2505 6.92855 14.291 6.91983 14.332 6.91919C14.3739 6.91853 14.4155 6.9263 14.4543 6.94201C14.4931 6.95773 14.5283 6.98109 14.5579 7.01069C14.5875 7.04029 14.6109 7.07554 14.6266 7.11434C14.6423 7.15315 14.6501 7.19471 14.6494 7.23657V8.48657C14.6494 8.56945 14.6165 8.64893 14.5579 8.70753C14.4993 8.76614 14.4198 8.79906 14.3369 8.79907H13.0869C13.0455 8.79966 13.0044 8.79201 12.966 8.77657C12.9275 8.76112 12.8926 8.7382 12.8631 8.70912C12.8336 8.68005 12.8102 8.6454 12.7942 8.60719C12.7782 8.56899 12.77 8.52799 12.77 8.48657C12.77 8.44516 12.7782 8.40416 12.7942 8.36595C12.8102 8.32775 12.8336 8.2931 12.8631 8.26402C12.8926 8.23495 12.9275 8.21202 12.966 8.19658C13.0044 8.18114 13.0455 8.17349 13.0869 8.17407H13.696C12.5975 6.93995 10.7953 6.55316 9.26611 7.29272C7.5618 8.11704 6.74128 10.0744 7.34717 11.8679C7.95303 13.6615 9.79266 14.7203 11.6477 14.3423C13.5027 13.9642 14.7828 12.2699 14.6384 10.3823C14.6346 10.341 14.6391 10.2993 14.6516 10.2597C14.6641 10.2201 14.6844 10.1833 14.7112 10.1516C14.738 10.1199 14.7709 10.0939 14.8079 10.075C14.8449 10.0562 14.8853 10.0449 14.9267 10.0418C14.9681 10.0387 15.0098 10.0439 15.0491 10.0571C15.0885 10.0703 15.1249 10.0912 15.1561 10.1185C15.1874 10.1459 15.2128 10.1792 15.231 10.2166C15.2492 10.2539 15.2598 10.2945 15.2622 10.3359C15.4302 12.5329 13.9324 14.5163 11.7734 14.9563C9.61446 15.3963 7.46026 14.1568 6.75513 12.0693C6.04997 9.98184 7.01156 7.69058 8.99512 6.7312C9.49101 6.49139 10.0123 6.35318 10.5344 6.31006C10.7302 6.29381 10.9258 6.29151 11.1204 6.30151V6.30029ZM10.8994 9.73291C11.4135 9.73291 11.8369 10.1563 11.8369 10.6704C11.8369 11.1845 11.4135 11.6079 10.8994 11.6079C10.3853 11.6079 9.96191 11.1845 9.96191 10.6704C9.96191 10.1563 10.3853 9.73291 10.8994 9.73291ZM10.8994 10.3579C10.7231 10.3579 10.5869 10.4942 10.5869 10.6704C10.5869 10.8467 10.7231 10.9829 10.8994 10.9829C11.0757 10.9829 11.2119 10.8467 11.2119 10.6704C11.2119 10.4942 11.0757 10.3579 10.8994 10.3579Z" fill="#474747"/>
</g>
<defs>
<clipPath id="clip0_83_21141">
<rect width="20" height="20" fill="white" transform="translate(0.899414 0.67041)"/>
</clipPath>
</defs>
</svg>
