<svg width="20" height="20" viewBox="0 0 20 20" fill="none" xmlns="http://www.w3.org/2000/svg">
<path d="M16.7454 1.66688C16.7454 1.51954 16.6869 1.37823 16.5827 1.27405C16.4785 1.16986 16.3372 1.11133 16.1899 1.11133H3.96766C3.82032 1.11133 3.67901 1.16986 3.57483 1.27405C3.47064 1.37823 3.41211 1.51954 3.41211 1.66688V2.22244H16.7454V1.66688Z" fill="#474747"/>
<path d="M17.8446 3.88856C17.8446 3.74122 17.7861 3.59991 17.6819 3.49573C17.5777 3.39154 17.4364 3.33301 17.2891 3.33301H2.84462C2.69728 3.33301 2.55597 3.39154 2.45178 3.49573C2.34759 3.59991 2.28906 3.74122 2.28906 3.88856V4.44412H17.8446V3.88856Z" fill="#474747"/>
<path d="M17.8447 5.55566H2.15577C1.87877 5.55566 1.61311 5.6657 1.41724 5.86157C1.22137 6.05745 1.11133 6.3231 1.11133 6.60011V16.7334C1.11133 17.0104 1.22137 17.2761 1.41724 17.472C1.61311 17.6678 1.87877 17.7779 2.15577 17.7779H17.8447C18.1217 17.7779 18.3873 17.6678 18.5832 17.472C18.7791 17.2761 18.8891 17.0104 18.8891 16.7334V6.60011C18.8891 6.3231 18.7791 6.05745 18.5832 5.86157C18.3873 5.6657 18.1217 5.55566 17.8447 5.55566ZM4.75577 7.47233C5.08541 7.47233 5.40764 7.57008 5.68172 7.75321C5.9558 7.93635 6.16943 8.19665 6.29557 8.50119C6.42172 8.80574 6.45472 9.14085 6.39041 9.46415C6.32611 9.78745 6.16737 10.0844 5.93428 10.3175C5.7012 10.5506 5.40423 10.7093 5.08092 10.7736C4.75762 10.8379 4.42251 10.8049 4.11797 10.6788C3.81342 10.5527 3.55313 10.339 3.36999 10.0649C3.18685 9.79087 3.08911 9.46863 3.08911 9.139C3.08911 8.69697 3.2647 8.27305 3.57726 7.96049C3.88982 7.64793 4.31375 7.47233 4.75577 7.47233ZM16.6669 15.5557H3.33355L7.47799 11.4057C7.55187 11.3324 7.65172 11.2913 7.75577 11.2913C7.85983 11.2913 7.95967 11.3324 8.03355 11.4057L10.078 13.4501L12.8947 10.5557C12.9685 10.4824 13.0684 10.4413 13.1724 10.4413C13.2765 10.4413 13.3763 10.4824 13.4502 10.5557L16.6669 13.7723V15.5557Z" fill="#474747"/>
</svg>
