<svg width="20" height="20" viewBox="0 0 20 20" fill="none" xmlns="http://www.w3.org/2000/svg">
<g clip-path="url(#clip0_1405_16665)">
<path d="M0.00195312 3.75C0.00195312 3.08696 0.265345 2.45107 0.734186 1.98223C1.20303 1.51339 1.83891 1.25 2.50195 1.25H17.502C18.165 1.25 18.8009 1.51339 19.2697 1.98223C19.7386 2.45107 20.002 3.08696 20.002 3.75V16.25C20.002 16.913 19.7386 17.5489 19.2697 18.0178C18.8009 18.4866 18.165 18.75 17.502 18.75H2.50195C1.83891 18.75 1.20303 18.4866 0.734186 18.0178C0.265345 17.5489 0.00195313 16.913 0.00195312 16.25V3.75ZM1.25195 15V16.25C1.25195 16.5815 1.38365 16.8995 1.61807 17.1339C1.85249 17.3683 2.17043 17.5 2.50195 17.5H17.502C17.8335 17.5 18.1514 17.3683 18.3858 17.1339C18.6203 16.8995 18.752 16.5815 18.752 16.25V11.875L14.0307 9.44125C13.9135 9.38253 13.7808 9.36216 13.6513 9.38302C13.5219 9.40388 13.4023 9.46492 13.3095 9.5575L8.67195 14.195L5.34695 11.98C5.2269 11.9001 5.08291 11.8641 4.93938 11.8783C4.79585 11.8924 4.66162 11.9557 4.55945 12.0575L1.25195 15ZM7.50195 6.875C7.50195 6.37772 7.30441 5.90081 6.95278 5.54917C6.60115 5.19754 6.12423 5 5.62695 5C5.12967 5 4.65276 5.19754 4.30113 5.54917C3.9495 5.90081 3.75195 6.37772 3.75195 6.875C3.75195 7.37228 3.9495 7.84919 4.30113 8.20083C4.65276 8.55246 5.12967 8.75 5.62695 8.75C6.12423 8.75 6.60115 8.55246 6.95278 8.20083C7.30441 7.84919 7.50195 7.37228 7.50195 6.875Z" fill="#474747"/>
</g>
<defs>
<clipPath id="clip0_1405_16665">
<rect width="20" height="20" fill="white"/>
</clipPath>
</defs>
</svg>
