<svg width="20" height="20" viewBox="0 0 20 20" fill="none" xmlns="http://www.w3.org/2000/svg">
<rect width="20" height="20" rx="10" fill="#CCCCCC"/>
<path d="M10 18.75C7.67936 18.75 5.45376 17.8281 3.81282 16.1872C2.17187 14.5462 1.25 12.3206 1.25 10C1.25 7.67936 2.17187 5.45376 3.81282 3.81282C5.45376 2.17187 7.67936 1.25 10 1.25C12.3206 1.25 14.5462 2.17187 16.1872 3.81282C17.8281 5.45376 18.75 7.67936 18.75 10C18.75 12.3206 17.8281 14.5462 16.1872 16.1872C14.5462 17.8281 12.3206 18.75 10 18.75ZM10 20C12.6522 20 15.1957 18.9464 17.0711 17.0711C18.9464 15.1957 20 12.6522 20 10C20 7.34784 18.9464 4.8043 17.0711 2.92893C15.1957 1.05357 12.6522 0 10 0C7.34784 0 4.8043 1.05357 2.92893 2.92893C1.05357 4.8043 0 7.34784 0 10C0 12.6522 1.05357 15.1957 2.92893 17.0711C4.8043 18.9464 7.34784 20 10 20Z" fill="white"/>
<path d="M5.80666 5.80764C5.86472 5.74944 5.93369 5.70326 6.00962 5.67175C6.08555 5.64024 6.16695 5.62402 6.24916 5.62402C6.33137 5.62402 6.41277 5.64024 6.48871 5.67175C6.56464 5.70326 6.63361 5.74944 6.69166 5.80764L9.99916 9.11639L13.3067 5.80764C13.3648 5.74953 13.4338 5.70343 13.5097 5.67199C13.5856 5.64054 13.667 5.62435 13.7492 5.62435C13.8313 5.62435 13.9127 5.64054 13.9886 5.67199C14.0646 5.70343 14.1336 5.74953 14.1917 5.80764C14.2498 5.86575 14.2959 5.93474 14.3273 6.01066C14.3588 6.08659 14.375 6.16796 14.375 6.25014C14.375 6.33232 14.3588 6.4137 14.3273 6.48962C14.2959 6.56554 14.2498 6.63453 14.1917 6.69264L10.8829 10.0001L14.1917 13.3076C14.2498 13.3658 14.2959 13.4347 14.3273 13.5107C14.3588 13.5866 14.375 13.668 14.375 13.7501C14.375 13.8323 14.3588 13.9137 14.3273 13.9896C14.2959 14.0655 14.2498 14.1345 14.1917 14.1926C14.1336 14.2508 14.0646 14.2968 13.9886 14.3283C13.9127 14.3597 13.8313 14.3759 13.7492 14.3759C13.667 14.3759 13.5856 14.3597 13.5097 14.3283C13.4338 14.2968 13.3648 14.2508 13.3067 14.1926L9.99916 10.8839L6.69166 14.1926C6.63355 14.2508 6.56457 14.2968 6.48864 14.3283C6.41272 14.3597 6.33134 14.3759 6.24916 14.3759C6.16698 14.3759 6.08561 14.3597 6.00968 14.3283C5.93376 14.2968 5.86477 14.2508 5.80666 14.1926C5.74855 14.1345 5.70246 14.0655 5.67101 13.9896C5.63956 13.9137 5.62337 13.8323 5.62337 13.7501C5.62337 13.668 5.63956 13.5866 5.67101 13.5107C5.70246 13.4347 5.74855 13.3658 5.80666 13.3076L9.11541 10.0001L5.80666 6.69264C5.74846 6.63458 5.70228 6.56561 5.67077 6.48968C5.63926 6.41375 5.62305 6.33235 5.62305 6.25014C5.62305 6.16793 5.63926 6.08653 5.67077 6.0106C5.70228 5.93467 5.74846 5.8657 5.80666 5.80764Z" fill="white"/>
</svg>
