<svg width="21" height="20" viewBox="0 0 21 20" fill="none" xmlns="http://www.w3.org/2000/svg">
<path d="M10.0664 18.75C7.74576 18.75 5.52016 17.8281 3.87922 16.1872C2.23828 14.5462 1.31641 12.3206 1.31641 10C1.31641 7.67936 2.23828 5.45376 3.87922 3.81282C5.52016 2.17187 7.74576 1.25 10.0664 1.25C12.3871 1.25 14.6126 2.17187 16.2536 3.81282C17.8945 5.45376 18.8164 7.67936 18.8164 10C18.8164 12.3206 17.8945 14.5462 16.2536 16.1872C14.6126 17.8281 12.3871 18.75 10.0664 18.75ZM10.0664 20C12.7186 20 15.2621 18.9464 17.1375 17.0711C19.0128 15.1957 20.0664 12.6522 20.0664 10C20.0664 7.34784 19.0128 4.8043 17.1375 2.92893C15.2621 1.05357 12.7186 0 10.0664 0C7.41424 0 4.8707 1.05357 2.99534 2.92893C1.11997 4.8043 0.0664063 7.34784 0.0664062 10C0.0664063 12.6522 1.11997 15.1957 2.99534 17.0711C4.8707 18.9464 7.41424 20 10.0664 20Z" fill="#666666"/>
<path d="M5.87405 5.80666C5.9321 5.74846 6.00107 5.70228 6.077 5.67077C6.15294 5.63926 6.23434 5.62305 6.31655 5.62305C6.39876 5.62305 6.48016 5.63926 6.55609 5.67077C6.63202 5.70228 6.70099 5.74846 6.75905 5.80666L10.0665 9.11541L13.374 5.80666C13.4322 5.74855 13.5011 5.70246 13.5771 5.67101C13.653 5.63956 13.7344 5.62337 13.8165 5.62337C13.8987 5.62337 13.9801 5.63956 14.056 5.67101C14.132 5.70246 14.2009 5.74855 14.259 5.80666C14.3172 5.86477 14.3633 5.93376 14.3947 6.00968C14.4262 6.08561 14.4423 6.16698 14.4423 6.24916C14.4423 6.33134 14.4262 6.41272 14.3947 6.48864C14.3633 6.56457 14.3172 6.63355 14.259 6.69166L10.9503 9.99916L14.259 13.3067C14.3172 13.3648 14.3633 13.4338 14.3947 13.5097C14.4262 13.5856 14.4423 13.667 14.4423 13.7492C14.4423 13.8313 14.4262 13.9127 14.3947 13.9886C14.3633 14.0646 14.3172 14.1336 14.259 14.1917C14.2009 14.2498 14.132 14.2959 14.056 14.3273C13.9801 14.3588 13.8987 14.375 13.8165 14.375C13.7344 14.375 13.653 14.3588 13.5771 14.3273C13.5011 14.2959 13.4322 14.2498 13.374 14.1917L10.0665 10.8829L6.75905 14.1917C6.70094 14.2498 6.63195 14.2959 6.55603 14.3273C6.4801 14.3588 6.39873 14.375 6.31655 14.375C6.23437 14.375 6.15299 14.3588 6.07707 14.3273C6.00114 14.2959 5.93216 14.2498 5.87405 14.1917C5.81594 14.1336 5.76984 14.0646 5.73839 13.9886C5.70694 13.9127 5.69076 13.8313 5.69076 13.7492C5.69076 13.667 5.70694 13.5856 5.73839 13.5097C5.76984 13.4338 5.81594 13.3648 5.87405 13.3067L9.1828 9.99916L5.87405 6.69166C5.81584 6.63361 5.76966 6.56464 5.73816 6.48871C5.70665 6.41277 5.69043 6.33137 5.69043 6.24916C5.69043 6.16695 5.70665 6.08555 5.73816 6.00962C5.76966 5.93369 5.81584 5.86472 5.87405 5.80666Z" fill="#666666"/>
</svg>
