<svg width="24" height="25" viewBox="0 0 24 25" fill="none" xmlns="http://www.w3.org/2000/svg">
<path d="M12 1.5957C9.81276 1.59828 7.71584 2.46831 6.16923 4.01492C4.62261 5.56154 3.75259 7.65846 3.75001 9.8457C3.74739 11.6331 4.33124 13.372 5.41201 14.7957C5.41201 14.7957 5.63701 15.092 5.67376 15.1347L12 22.5957L18.3293 15.131C18.3623 15.0912 18.588 14.7957 18.588 14.7957L18.5888 14.7935C19.669 13.3704 20.2526 11.6323 20.25 9.8457C20.2474 7.65846 19.3774 5.56154 17.8308 4.01492C16.2842 2.46831 14.1873 1.59828 12 1.5957ZM12 12.8457C11.4067 12.8457 10.8266 12.6698 10.3333 12.3401C9.83995 12.0105 9.45543 11.5419 9.22837 10.9938C9.00131 10.4456 8.9419 9.84237 9.05765 9.26043C9.17341 8.67849 9.45913 8.14394 9.87869 7.72438C10.2982 7.30483 10.8328 7.0191 11.4147 6.90335C11.9967 6.78759 12.5999 6.847 13.1481 7.07406C13.6962 7.30113 14.1648 7.68565 14.4944 8.17899C14.8241 8.67234 15 9.25236 15 9.8457C14.999 10.641 14.6826 11.4035 14.1202 11.9659C13.5578 12.5283 12.7954 12.8447 12 12.8457Z" fill="#666666"/>
</svg>
