<svg width="25" height="26" viewBox="0 0 25 26" fill="none" xmlns="http://www.w3.org/2000/svg">
<circle cx="12.5" cy="13" r="12.5" fill="#4C5BD4"/>
<path d="M6.56248 10.7495C5.70125 10.7495 5 11.4508 5 12.312V17.312C5 18.1732 5.70125 18.8745 6.56248 18.8745H8.43747C8.78935 18.8745 9.11308 18.7557 9.37496 18.5582V10.7495H6.56248Z" fill="white"/>
<path d="M19.9999 13.0937C19.9999 12.7181 19.8512 12.3681 19.5931 12.1099C19.8849 11.7906 20.0337 11.3624 19.993 10.9168C19.9199 10.1224 19.2043 9.49995 18.3631 9.49995H14.5025C14.6937 8.91932 15 7.85497 15 6.99998C15 5.64436 13.8481 4.5 13.125 4.5C12.4756 4.5 12.0118 4.86562 11.9919 4.88062C11.9181 4.94001 11.875 5.03001 11.875 5.12499V7.24434L10.075 11.1437L10 11.1818V17.8805C10.5087 18.1205 11.1525 18.2499 11.5625 18.2499H17.2993C17.98 18.2499 18.5756 17.7912 18.7156 17.1581C18.7874 16.8324 18.7456 16.5043 18.6024 16.2193C19.0643 15.9868 19.3749 15.5112 19.3749 14.9687C19.3749 14.7474 19.3243 14.5356 19.2281 14.3437C19.6899 14.1112 19.9999 13.6356 19.9999 13.0937Z" fill="white"/>
</svg>
