<svg width="30" height="30" viewBox="0 0 30 30" fill="none" xmlns="http://www.w3.org/2000/svg">
<path d="M3.12496 12.7764C1.40249 12.7764 0 14.1789 0 15.9013V25.9013C0 27.6238 1.40249 29.0263 3.12496 29.0263H6.87494C7.57871 29.0263 8.22616 28.7888 8.74993 28.3937V12.7764H3.12496Z" fill="#4C5BD4"/>
<path d="M30.0001 17.4647C30.0001 16.7135 29.7026 16.0135 29.1864 15.4972C29.7701 14.8585 30.0676 14.0022 29.9863 13.111C29.8401 11.5222 28.4088 10.2772 26.7264 10.2772H19.0052C19.3877 9.11598 20.0001 6.98729 20.0001 5.2773C20.0001 2.56606 17.6964 0.277344 16.2502 0.277344C14.9514 0.277344 14.0239 1.00859 13.984 1.03859C13.8365 1.15736 13.7502 1.33736 13.7502 1.52732V5.76602L10.1502 13.5647L10.0002 13.641V27.0384C11.0177 27.5184 12.3052 27.7772 13.1252 27.7772H24.5989C25.9601 27.7772 27.1514 26.8596 27.4314 25.5934C27.5751 24.9422 27.4914 24.2859 27.2051 23.7159C28.1289 23.2509 28.7501 22.2997 28.7501 21.2147C28.7501 20.7722 28.6489 20.3485 28.4564 19.9647C29.3801 19.4997 30.0001 18.5485 30.0001 17.4647Z" fill="#4C5BD4"/>
</svg>
