<svg width="30" height="30" viewBox="0 0 30 30" fill="none" xmlns="http://www.w3.org/2000/svg">
<path d="M6.87494 0.277344H3.12496C1.40249 0.277344 0 1.67984 0 3.40231V13.4023C0 15.1247 1.40249 16.5272 3.12496 16.5272H8.74993V0.909801C8.22622 0.514823 7.57871 0.277344 6.87494 0.277344Z" fill="#4C5BD4"/>
<path d="M30.0001 11.8388C30.0001 10.7551 29.3801 9.8038 28.4563 9.3388C28.6488 8.95507 28.7501 8.53004 28.7501 8.08883C28.7501 7.00385 28.1288 6.05259 27.2051 5.58759C27.4913 5.0176 27.5751 4.36135 27.4313 3.71008C27.1514 2.44388 25.9601 1.52637 24.5989 1.52637H13.1252C12.3052 1.52637 11.0177 1.78512 10.0002 2.26511V15.6626L10.1502 15.7388L13.7502 23.5387V27.7762C13.7502 27.9662 13.8365 28.1462 13.984 28.2649C14.024 28.2949 14.9514 29.0262 16.2502 29.0262C17.6964 29.0262 20.0001 26.7375 20.0001 24.0262C20.0001 22.3162 19.3877 20.1875 19.0052 19.0263H26.7264C28.4089 19.0263 29.8401 17.7813 29.9863 16.1925C30.0676 15.3013 29.7701 14.445 29.1864 13.8063C29.7026 13.29 30.0001 12.59 30.0001 11.8388Z" fill="#4C5BD4"/>
</svg>
