<svg width="15" height="16" viewBox="0 0 15 16" fill="none" xmlns="http://www.w3.org/2000/svg">
<path d="M7.5 0.277344C11.6355 0.277344 15 3.64184 15 7.77734C15 11.9128 11.6355 15.2773 7.5 15.2773C3.3645 15.2773 0 11.9128 0 7.77734C0 3.64184 3.3645 0.277344 7.5 0.277344ZM7.5 13.9137C10.8836 13.9137 13.6364 11.1609 13.6364 7.77734C13.6364 4.39375 10.8836 1.64098 7.5 1.64098C4.11641 1.64098 1.36364 4.39375 1.36364 7.77734C1.36364 11.1609 4.11641 13.9137 7.5 13.9137Z" fill="#999999"/>
<path d="M5.36385 10.0343C6.53093 11.2108 8.42968 11.2108 9.5967 10.0344C9.90425 9.72426 10.403 9.72426 10.7106 10.0344C11.0182 10.3445 11.0182 10.8472 10.7106 11.1573C9.81986 12.0553 8.65032 12.504 7.48025 12.504C6.31055 12.504 5.14043 12.055 4.24992 11.1573C3.94232 10.8472 3.94232 10.3445 4.24992 10.0344C4.55757 9.72421 5.05631 9.72426 5.36385 10.0343Z" fill="#999999"/>
<path d="M10.1 6.95568C9.90416 6.75876 9.79232 6.48561 9.79232 6.20716C9.79232 5.92872 9.90416 5.65557 10.1 5.45864C10.2954 5.26172 10.5663 5.14844 10.8425 5.14844C11.1193 5.14844 11.3897 5.26172 11.585 5.45864C11.7809 5.65557 11.8927 5.92872 11.8927 6.20716C11.8927 6.48561 11.7809 6.75876 11.585 6.95568C11.3897 7.15313 11.1187 7.26588 10.8425 7.26588C10.5663 7.26588 10.2954 7.15313 10.1 6.95568Z" fill="#999999"/>
<path d="M4.12022 5.14844C4.39642 5.14844 4.66737 5.26172 4.86276 5.45864C5.05804 5.65557 5.17041 5.92819 5.17041 6.20716C5.17041 6.48613 5.05804 6.75876 4.86276 6.95568C4.66737 7.15313 4.39642 7.26588 4.12022 7.26588C3.84402 7.26588 3.57307 7.15313 3.37774 6.95568C3.1824 6.75876 3.07003 6.48613 3.07003 6.20716C3.07003 5.92872 3.18245 5.65557 3.37774 5.45864C3.57307 5.26172 3.84402 5.14844 4.12022 5.14844Z" fill="#999999"/>
</svg>
