<svg width="30" height="31" viewBox="0 0 30 31" fill="none" xmlns="http://www.w3.org/2000/svg">
<path d="M15 30.2773C23.2843 30.2773 30 23.5616 30 15.2773C30 6.99307 23.2843 0.277344 15 0.277344C6.71573 0.277344 0 6.99307 0 15.2773C0 23.5616 6.71573 30.2773 15 30.2773Z" fill="#FFE17D"/>
<path d="M17.1774 28.0994C8.89313 28.0994 2.1774 21.3837 2.1774 13.0994C2.1774 9.51188 3.4384 6.21984 5.53928 3.63867C2.15994 6.38906 0 10.58 0 15.2768C0 23.5611 6.71572 30.2768 15 30.2768C19.6968 30.2768 23.8878 28.1168 26.6382 24.7375C24.057 26.8383 20.765 28.0994 17.1774 28.0994Z" fill="#FFD164"/>
<path d="M9.67723 14.4323C8.75719 14.4323 7.87975 13.9971 7.27014 13.2385C7.06078 12.9781 7.10239 12.5974 7.36278 12.3881C7.62457 12.1788 8.00403 12.2209 8.21332 12.481C8.59746 12.9592 9.11725 13.2226 9.67723 13.2226C10.2372 13.2226 10.7569 12.9592 11.1411 12.481C11.3505 12.2209 11.7304 12.1788 11.9917 12.3881C12.2521 12.5975 12.2936 12.9781 12.0843 13.2385C11.4748 13.9971 10.5973 14.4323 9.67723 14.4323Z" fill="#AA7346"/>
<path d="M20.3249 14.4323C19.4049 14.4323 18.5275 13.9971 17.9178 13.2385C17.7085 12.9781 17.7501 12.5974 18.0105 12.3881C18.2718 12.1788 18.6522 12.2209 18.861 12.481C19.2452 12.9592 19.765 13.2226 20.3249 13.2226C20.8849 13.2226 21.4046 12.9592 21.7888 12.481C21.9982 12.2209 22.3776 12.1788 22.6394 12.3881C22.8998 12.5975 22.9413 12.9781 22.732 13.2385C22.1224 13.9971 21.245 14.4323 20.3249 14.4323Z" fill="#AA7346"/>
<path d="M12.0961 11.5293C12.0054 11.5293 11.9128 11.5087 11.8263 11.4652L6.98755 9.04591C6.68843 8.89638 6.56749 8.53322 6.71679 8.23433C6.86561 7.93591 7.22948 7.81333 7.52813 7.9638L12.3669 10.3831C12.666 10.5327 12.7869 10.8958 12.6376 11.1947C12.5317 11.4067 12.3182 11.5293 12.0961 11.5293Z" fill="#AA7346"/>
<path d="M17.9036 11.5295C17.6815 11.5295 17.4679 11.4069 17.362 11.1949C17.2128 10.896 17.3337 10.5329 17.6328 10.3834L22.4715 7.96402C22.7702 7.81519 23.1335 7.93636 23.2829 8.23455C23.4322 8.53343 23.3112 8.89654 23.0121 9.04613L18.1734 11.4655C18.0869 11.5087 17.9943 11.5295 17.9036 11.5295Z" fill="#AA7346"/>
<path d="M22.2573 20.7204C22.1396 20.7204 22.021 20.6863 21.9165 20.6153C20.2126 19.4519 17.6912 18.7849 14.9997 18.7849C12.3082 18.7849 9.78669 19.4519 8.08278 20.6153C7.8068 20.8036 7.43069 20.7325 7.24214 20.4565C7.05358 20.1805 7.12495 19.8042 7.40046 19.6158C9.30095 18.319 12.071 17.5752 14.9997 17.5752C17.9285 17.5752 20.6984 18.319 22.599 19.6158C22.8745 19.8042 22.9458 20.1805 22.7573 20.4565C22.64 20.628 22.4505 20.7204 22.2573 20.7204Z" fill="#AA7346"/>
<path d="M10.7622 23.6928L13.6048 16.798C13.6876 16.5971 13.4273 16.4332 13.2819 16.5948L8.28498 22.1499C7.9977 22.4461 7.53287 22.5251 7.19004 22.2955C6.6034 21.9028 5.82334 21.8047 5.09033 22.1586C4.44258 22.4712 4.00295 23.1285 3.93756 23.8448C3.89889 24.2685 3.98162 24.6443 4.14393 24.966C4.29475 25.2648 4.26985 25.7694 4.1277 26.0725C3.80045 26.7701 3.7428 27.601 4.05821 28.4055C4.52321 29.5914 5.75479 30.357 7.02405 30.2491C7.88502 30.1759 8.60461 29.7565 9.08537 29.1543C9.29426 28.8927 9.73571 28.647 10.0705 28.65C10.4308 28.6531 10.8045 28.561 11.1673 28.3388C11.7806 27.9631 12.1754 27.2781 12.1692 26.5588C12.162 25.7449 11.7289 25.0888 11.1171 24.7366C10.7596 24.5308 10.6238 24.0814 10.7622 23.6928Z" fill="white"/>
<path d="M5.50777 27.9126C5.19658 27.1188 5.24855 26.2993 5.56432 25.6075C5.72932 25.2461 5.77244 24.8278 5.5935 24.473C5.4435 24.1757 5.36146 23.8322 5.38045 23.4473C5.40922 22.863 5.69088 22.3181 6.12658 21.9459C5.8441 21.9322 5.55225 21.9725 5.26402 22.0831C4.50025 22.3764 3.97109 23.1229 3.93084 23.94C3.91185 24.3248 3.99394 24.6684 4.14389 24.9657C4.32283 25.3204 4.27971 25.7388 4.11476 26.1002C3.799 26.792 3.74697 27.6115 4.05822 28.4053C4.52322 29.5912 5.7548 30.3568 7.02406 30.2489C7.55533 30.2037 8.03275 30.0267 8.43348 29.7563C7.17857 29.8447 5.96785 29.0859 5.50777 27.9126Z" fill="#FFF1C4"/>
<path d="M19.2402 23.6851L16.3959 16.7982C16.3129 16.5973 16.573 16.4332 16.7185 16.5947L21.7173 22.1423C22.0046 22.4385 22.4694 22.5174 22.8122 22.2879C23.3989 21.8952 24.1789 21.7971 24.9119 22.1509C25.5597 22.4636 25.9993 23.1208 26.0647 23.8372C26.1034 24.2608 26.0206 24.6367 25.8583 24.9583C25.7075 25.2572 25.7324 25.7618 25.8746 26.0649C26.2018 26.7625 26.2595 27.5934 25.9441 28.3979C25.4791 29.5838 24.2475 30.3494 22.9782 30.2415C22.1172 30.1683 21.3977 29.7489 20.9169 29.1467C20.708 28.8851 20.2666 28.6394 19.9318 28.6424C19.5715 28.6455 19.1978 28.5534 18.835 28.3312C18.2216 27.9555 17.8268 27.2705 17.8331 26.5512C17.8403 25.7373 18.2734 25.0812 18.8852 24.729C19.2428 24.5231 19.3786 24.0738 19.2402 23.6851Z" fill="white"/>
<path d="M23.4621 28.8163C22.6126 28.7441 21.9007 28.3348 21.4201 27.7454C21.169 27.4375 20.813 27.2137 20.4156 27.2171C20.0826 27.2201 19.7383 27.1416 19.4016 26.9543C18.7642 26.5997 18.3518 25.9213 18.3224 25.2012C18.0599 25.5143 17.8843 25.9106 17.8426 26.3627C17.7675 27.1774 18.2028 27.9823 18.9177 28.38C19.2544 28.5673 19.5988 28.6458 19.9318 28.6429C20.3291 28.6394 20.6851 28.8632 20.9362 29.1711C21.4168 29.7604 22.1287 30.1697 22.9782 30.2419C24.2475 30.3498 25.4791 29.5842 25.9441 28.3983C26.0614 28.0992 26.1269 27.7964 26.1463 27.4982C25.5659 28.3747 24.5303 28.9071 23.4621 28.8163Z" fill="#FFF1C4"/>
</svg>
