<svg width="30" height="31" viewBox="0 0 30 31" fill="none" xmlns="http://www.w3.org/2000/svg">
<path d="M14.9996 30.2765C23.2836 30.2765 29.9992 23.561 29.9992 15.2769C29.9992 6.99288 23.2836 0.277344 14.9996 0.277344C6.71554 0.277344 0 6.99288 0 15.2769C0 23.561 6.71554 30.2765 14.9996 30.2765Z" fill="#FFD93B"/>
<path d="M29.9993 15.2768C29.9993 23.5641 23.2823 30.2764 14.9997 30.2764C10.2842 30.2764 6.07497 28.1015 3.32349 24.6937C5.89685 26.7749 9.17332 28.0171 12.7404 28.0171C21.023 28.0171 27.74 21.3048 27.74 13.0175C27.74 9.45042 26.4978 6.17395 24.4166 3.60059C27.8197 6.35207 29.9993 10.5613 29.9993 15.2768Z" fill="#F4C534"/>
<path d="M9.27779 22.8075C10.6277 19.7907 12.7652 19.7579 15.1182 19.1241C17.4807 18.4839 19.6181 20.8866 20.9681 22.1269C21.3862 22.4194 20.9906 23.2134 20.2162 23.5771C16.8207 24.8868 13.4252 22.4344 10.0296 24.0796C9.25529 24.5334 8.85967 23.8453 9.27779 22.8075Z" fill="#3E4347"/>
<path d="M9.27779 22.8075C10.6277 19.7907 12.7652 19.7579 15.1182 19.1241C17.4807 18.4839 19.6181 20.8866 20.9681 22.1269C21.3862 22.4194 20.9906 23.2134 20.2162 23.5771C16.8207 24.8868 13.4252 22.4344 10.0296 24.0796C9.25529 24.5334 8.85967 23.8453 9.27779 22.8075Z" fill="#3E4347"/>
<path d="M18.4267 23.9586C18.3545 23.3465 18.0555 22.4521 17.7293 22.0415C17.3196 21.5268 16.5537 21.2793 15.9115 21.5896C15.6659 21.7125 15.3996 21.7996 15.1174 21.8418C14.8287 21.8821 14.5447 21.8699 14.2728 21.8053C13.2584 21.5456 12.2572 22.0115 12.0294 23.1393C12.0022 23.2677 11.9975 23.4008 11.9854 23.533C14.1322 23.3043 16.2799 24.1039 18.4267 23.9586Z" fill="#E24B4B"/>
<g opacity="0.2">
<path opacity="0.2" d="M16.9586 22.0773C16.6825 21.9565 16.3944 22.0055 16.3151 22.1867C16.2359 22.3679 16.3954 22.6127 16.6715 22.7335C16.9476 22.8542 17.2356 22.8053 17.3149 22.624C17.3942 22.4428 17.2346 22.198 16.9586 22.0773Z" fill="white"/>
</g>
<path d="M28.0971 28.5802C28.2124 28.6477 28.279 28.7199 28.279 28.7911C28.279 28.9233 28.0755 29.0433 27.724 29.1455C28.3511 29.2627 28.7355 29.4239 28.7355 29.6086C28.7355 29.978 27.108 30.2789 25.1065 30.2789C23.6769 30.2789 22.4404 30.1242 21.8516 29.8983C21.8516 29.8983 21.8516 29.8983 21.846 29.8983C21.7307 29.902 21.6041 29.902 21.4832 29.902C19.4761 29.902 17.8542 29.6011 17.8542 29.2317C17.8542 29.0358 18.3108 28.8586 19.0364 28.7386C18.3933 28.6186 17.9921 28.4527 17.9921 28.268C17.9921 27.8949 19.6139 27.5977 21.6154 27.5977C22.1872 27.5977 22.7263 27.6202 23.2044 27.6652C23.8203 27.458 25.0081 27.3184 26.3712 27.3184C28.3727 27.3184 30.0002 27.6202 30.0002 27.9887C29.9992 28.2408 29.2296 28.463 28.0971 28.5802Z" fill="#45CBEA"/>
<path d="M26.0869 29.0387C26.6906 28.9355 27.12 28.3974 27.0768 27.7862C26.8762 24.9278 26.415 21.9992 25.3538 19.3752C24.4641 16.9631 23.266 14.6325 21.6254 12.4004C21.2401 12.6957 20.7639 12.901 20.2014 12.9835C21.3114 15.4087 21.9564 17.7852 22.292 20.1664C22.5873 21.8361 22.6717 24.3232 22.2114 27.6006C22.1373 28.1284 22.4326 28.6496 22.9295 28.8418C23.7629 29.1624 24.7885 29.2599 26.0869 29.0387Z" fill="#45CBEA"/>
<g opacity="0.2">
<path opacity="0.2" d="M23.086 19.8802C22.6801 17.7868 21.7042 15.0147 20.5633 12.9082C20.5501 12.912 20.537 12.9157 20.5229 12.9185C21.5954 15.0672 22.337 17.6312 22.8076 19.9374C23.4347 22.7226 23.4507 25.5828 23.1985 28.489C23.6897 24.4523 23.4657 21.5592 23.086 19.8802Z" fill="white"/>
</g>
<g opacity="0.2">
<path opacity="0.2" d="M23.8915 19.75C23.1255 16.8785 21.9359 14.3707 20.974 12.7695C20.9675 12.7723 20.9609 12.7742 20.9543 12.777C21.9181 14.442 23.0562 16.9919 23.7546 19.7856C24.6142 22.7977 24.6217 25.7695 24.4727 28.5894C24.4502 28.8772 24.7333 28.8997 24.7558 28.6119C24.8617 25.7432 24.7192 22.4864 23.8915 19.75Z" fill="white"/>
</g>
<g opacity="0.2">
<path opacity="0.2" d="M24.7755 19.6018C24.047 17.2478 22.8836 14.6632 21.4549 12.5117C21.3827 12.5595 21.3068 12.6045 21.229 12.6458C22.6708 14.742 23.8717 17.2891 24.6414 19.6468C25.8554 22.9308 25.9679 26.2035 26.0289 28.7113C26.0017 25.6851 25.8826 22.8202 24.7755 19.6018Z" fill="white"/>
</g>
<path d="M19.9757 13.478C18.908 13.478 17.8411 13.0552 16.9702 12.2096C16.7227 11.9686 16.7171 11.574 16.9571 11.3255C17.1971 11.078 17.5936 11.0724 17.8411 11.3124C19.0973 12.533 20.8532 12.533 22.1104 11.3124C22.3579 11.0715 22.7535 11.078 22.9944 11.3255C23.2353 11.573 23.2288 11.9686 22.9813 12.2096C22.1104 13.0552 21.0435 13.478 19.9757 13.478Z" fill="#3E4347"/>
<path d="M1.90213 28.5773C1.78682 28.6448 1.7212 28.717 1.7212 28.7882C1.7212 28.9204 1.92463 29.0404 2.27619 29.1426C1.64995 29.2598 1.26465 29.421 1.26465 29.6057C1.26465 29.9741 2.89211 30.276 4.89361 30.276C6.32326 30.276 7.55979 30.1213 8.14852 29.8954C8.14852 29.8954 8.14852 29.8954 8.15414 29.8954C8.26945 29.8991 8.39601 29.8991 8.51695 29.8991C10.5241 29.8991 12.1459 29.5982 12.1459 29.2288C12.1459 29.0329 11.6894 28.8557 10.9638 28.7357C11.6069 28.6157 12.0081 28.4498 12.0081 28.2651C12.0081 27.892 10.3863 27.5948 8.38476 27.5948C7.8129 27.5948 7.27386 27.6173 6.79574 27.6623C6.17982 27.4551 4.99205 27.3154 3.62896 27.3154C1.62745 27.3145 0 27.6164 0 27.9857C0 28.2379 0.769666 28.4601 1.90213 28.5773Z" fill="#45CBEA"/>
<path d="M3.94658 28.7986C3.35129 28.6973 2.92849 28.1667 2.97067 27.5639C3.16848 24.7468 3.62315 21.8594 4.66937 19.2729C5.54591 16.8955 6.72713 14.5977 8.34521 12.3975C8.72488 12.6881 9.19362 12.8906 9.74861 12.9731C8.65457 15.3636 8.01897 17.7064 7.68804 20.0538C7.39742 21.7 7.31399 24.1506 7.76772 27.3811C7.84085 27.9014 7.54929 28.4151 7.05993 28.6045C6.23777 28.9214 5.22717 29.017 3.94658 28.7986Z" fill="#45CBEA"/>
<g opacity="0.2">
<path opacity="0.2" d="M6.90404 19.7711C7.3034 17.7077 8.26619 14.9749 9.39022 12.8984C9.40334 12.9022 9.41647 12.9059 9.42959 12.9087C8.37306 15.0265 7.64089 17.5539 7.17778 19.8273C6.55905 22.5732 6.54405 25.3921 6.79248 28.2571C6.30968 24.2784 6.53092 21.4266 6.90404 19.7711Z" fill="white"/>
</g>
<g opacity="0.2">
<path opacity="0.2" d="M6.11105 19.6448C6.86572 16.8145 8.03944 14.3424 8.98722 12.7646C8.99379 12.7675 9.00035 12.7693 9.00691 12.7721C8.05631 14.4137 6.93509 16.927 6.24699 19.6804C5.39951 22.6494 5.39295 25.579 5.5392 28.3586C5.55607 28.5686 5.2767 28.5901 5.25983 28.3811C5.15483 25.5527 5.29545 22.3428 6.11105 19.6448Z" fill="white"/>
</g>
<g opacity="0.2">
<path opacity="0.2" d="M5.23954 19.5006C5.95764 17.1803 7.10417 14.6332 8.51319 12.5117C8.58444 12.5586 8.6585 12.6027 8.73631 12.6439C7.3151 14.711 6.13201 17.2206 5.37266 19.5456C4.1755 22.7817 4.06488 26.0085 4.00488 28.4806C4.03113 25.4976 4.14832 22.673 5.23954 19.5006Z" fill="white"/>
</g>
<path d="M10.0236 13.478C8.95581 13.478 7.88896 13.0552 7.01805 12.2096C6.77056 11.9686 6.76493 11.574 7.00493 11.3255C7.24492 11.078 7.64053 11.0724 7.88896 11.3124C9.14518 12.533 10.9011 12.533 12.1582 11.3124C12.4057 11.0715 12.8013 11.078 13.0423 11.3255C13.2822 11.573 13.2766 11.9686 13.0291 12.2096C12.1582 13.0552 11.0904 13.478 10.0236 13.478Z" fill="#3E4347"/>
<path d="M17.3442 6.40156C17.2148 6.08189 17.3685 5.71721 17.6892 5.58784C18.0088 5.45847 18.3735 5.61221 18.5029 5.93189C19.7225 8.94212 22.9203 8.48276 23.0543 8.46213C23.3918 8.41057 23.7143 8.64306 23.7677 8.9843C23.8202 9.32554 23.5868 9.64428 23.2456 9.69772C21.3959 9.98271 18.5113 9.28242 17.3442 6.40156Z" fill="#E9B02C"/>
<path d="M6.75342 9.69772C6.41218 9.64522 6.17875 9.32554 6.23125 8.9843C6.28469 8.644 6.60343 8.40963 6.94373 8.46213C7.08623 8.48275 10.2868 8.91868 11.497 5.93189C11.6273 5.61221 11.9911 5.45847 12.3108 5.58784C12.6304 5.71721 12.7851 6.08189 12.6548 6.40156C11.5664 9.08649 8.85149 10.0211 6.75342 9.69772Z" fill="#E9B02C"/>
<path d="M26.4292 13.6872C26.8642 14.1185 26.8679 14.8206 26.4367 15.2566C26.0055 15.6916 25.3033 15.6953 24.8674 15.2641C24.4315 14.8328 24.0405 12.8848 24.0405 12.8848C24.0405 12.8848 25.9933 13.256 26.4292 13.6872Z" fill="#45CBEA"/>
<g opacity="0.2">
<path opacity="0.2" d="M26.4116 14.3853C26.376 14.197 26.2506 14.0627 26.1316 14.0852C26.0125 14.1077 25.9449 14.2786 25.9805 14.4668C26.0161 14.655 26.1414 14.7894 26.2605 14.7669C26.3795 14.7443 26.4472 14.5735 26.4116 14.3853Z" fill="white"/>
</g>
<path d="M28.2458 17.9238C28.4361 18.5059 28.1183 19.1331 27.5361 19.3234C26.9539 19.5137 26.3268 19.1959 26.1365 18.6138C25.9462 18.0316 26.488 16.1191 26.488 16.1191C26.488 16.1191 28.0545 17.3416 28.2458 17.9238Z" fill="#45CBEA"/>
<g opacity="0.2">
<path opacity="0.2" d="M27.8008 18.1378C27.6846 18.1034 27.5464 18.2246 27.4921 18.4083C27.4379 18.592 27.4881 18.7688 27.6043 18.8031C27.7205 18.8374 27.8587 18.7163 27.9129 18.5326C27.9672 18.3488 27.917 18.1721 27.8008 18.1378Z" fill="white"/>
</g>
<path d="M4.03551 13.7041C3.64833 14.1794 3.72052 14.8778 4.19582 15.265C4.67112 15.6522 5.36953 15.58 5.75671 15.1047C6.14389 14.6294 6.32388 12.6504 6.32388 12.6504C6.32388 12.6504 4.42269 13.2288 4.03551 13.7041Z" fill="#45CBEA"/>
<g opacity="0.2">
<path opacity="0.2" d="M4.36944 14.0674C4.24918 14.0578 4.13929 14.2048 4.12399 14.3957C4.10868 14.5867 4.19376 14.7493 4.31401 14.7589C4.43426 14.7686 4.54415 14.6216 4.55945 14.4306C4.57476 14.2397 4.48969 14.077 4.36944 14.0674Z" fill="white"/>
</g>
<path d="M1.50109 19.4566C1.43078 20.065 1.86671 20.6162 2.47606 20.6865C3.08448 20.7569 3.63572 20.3209 3.70603 19.7116C3.77634 19.1032 2.86418 17.3379 2.86418 17.3379C2.86418 17.3379 1.5714 18.8472 1.50109 19.4566Z" fill="#45CBEA"/>
<g opacity="0.2">
<path opacity="0.2" d="M2.33855 19.7837C2.24868 19.6145 2.08909 19.5235 1.98209 19.5803C1.87508 19.6371 1.86119 19.8204 1.95106 19.9895C2.04092 20.1587 2.20051 20.2498 2.30752 20.193C2.41452 20.1362 2.42841 19.9529 2.33855 19.7837Z" fill="white"/>
</g>
</svg>
