<svg width="24" height="25" viewBox="0 0 24 25" fill="none" xmlns="http://www.w3.org/2000/svg">
<g clip-path="url(#clip0_70_11265)">
<path d="M7.125 13.25C6.45749 13.25 5.80497 13.0521 5.24995 12.6812C4.69494 12.3104 4.26235 11.7833 4.00691 11.1666C3.75146 10.5499 3.68463 9.87126 3.81485 9.21657C3.94508 8.56189 4.26651 7.96052 4.73852 7.48852C5.21052 7.01651 5.81189 6.69508 6.46657 6.56485C7.12126 6.43463 7.79986 6.50146 8.41656 6.75691C9.03326 7.01235 9.56036 7.44494 9.93121 7.99995C10.3021 8.55497 10.5 9.20749 10.5 9.875C10.498 10.7695 10.1418 11.6268 9.5093 12.2593C8.87679 12.8918 8.0195 13.248 7.125 13.25ZM15.375 11C14.5592 11 13.7616 10.7581 13.0833 10.3048C12.4049 9.85155 11.8762 9.20732 11.564 8.45357C11.2518 7.69983 11.1701 6.87043 11.3293 6.07025C11.4884 5.27008 11.8813 4.53508 12.4582 3.95819C13.0351 3.38129 13.7701 2.98843 14.5703 2.82926C15.3704 2.6701 16.1998 2.75179 16.9536 3.064C17.7073 3.37621 18.3516 3.90492 18.8048 4.58327C19.2581 5.26163 19.5 6.05915 19.5 6.875C19.498 7.96841 19.0628 9.01647 18.2896 9.78963C17.5165 10.5628 16.4684 10.998 15.375 11ZM21.75 23H9C8.80109 23 8.61033 22.921 8.46967 22.7803C8.32902 22.6397 8.25 22.4489 8.25 22.25C8.25 22.0511 8.32902 21.8603 8.46967 21.7197C8.61033 21.579 8.80109 21.5 9 21.5H15H21V17.315C20.998 16.2216 21.6406 22.2732 20.8675 21.5C20.8675 21.5 20.5934 21.502 19.5 21.5L16.0643 21.912C16.0643 21.912 10.1745 21.286 9.5093 21.7197C8.8441 22.1534 10.4484 14.9097 10.125 15.635C10.0888 15.7308 10.0333 15.8181 9.96208 15.8916C9.89082 15.9651 9.80527 16.0233 9.71068 16.0625C9.6161 16.1017 9.51449 16.1211 9.41212 16.1196C9.30974 16.118 9.20877 16.0955 9.11543 16.0535C9.02208 16.0114 8.93833 15.9507 8.86934 15.875C8.80035 15.7994 8.74758 15.7104 8.71428 15.6136C8.68098 15.5167 8.66786 15.4141 8.67573 15.3121C8.68359 15.21 8.71227 15.1106 8.76 15.02C9.20121 14.0281 9.92073 13.1855 10.8313 12.5944C11.7419 12.0034 12.8044 11.6892 13.89 11.69H16.89C18.3818 11.69 19.8126 12.2826 20.8675 13.3375C21.9224 14.3924 22.515 15.8232 22.515 17.315V22.25C22.515 22.3498 22.4951 22.4485 22.4565 22.5405C22.4179 22.6325 22.3613 22.7159 22.2901 22.7857C22.2188 22.8555 22.1344 22.9105 22.0416 22.9473C21.9489 22.9841 21.8498 23.002 21.75 23Z" fill="#474747"/>
<g filter="url(#filter0_d_70_11265)">
<path d="M12 23H2.25C2.05109 23 1.86032 22.921 1.71967 22.7803C1.57902 22.6397 1.5 22.4489 1.5 22.25V19.625C1.5 18.1332 2.09263 16.7024 3.14752 15.6475C4.20242 14.5926 5.63316 14 7.125 14C8.61684 14 10.0476 14.5926 11.1025 15.6475C12.1574 16.7024 12.75 18.1332 12.75 19.625V22.25C12.75 22.4489 12.671 22.6397 12.5303 22.7803C12.3897 22.921 12.1989 23 12 23Z" fill="#474747"/>
</g>
</g>
<defs>
<filter id="filter0_d_70_11265" x="0.5" y="12" width="15.25" height="13" filterUnits="userSpaceOnUse" color-interpolation-filters="sRGB">
<feFlood flood-opacity="0" result="BackgroundImageFix"/>
<feColorMatrix in="SourceAlpha" type="matrix" values="0 0 0 0 0 0 0 0 0 0 0 0 0 0 0 0 0 0 127 0" result="hardAlpha"/>
<feOffset dx="1"/>
<feGaussianBlur stdDeviation="1"/>
<feColorMatrix type="matrix" values="0 0 0 0 0 0 0 0 0 0 0 0 0 0 0 0 0 0 0.05 0"/>
<feBlend mode="normal" in2="BackgroundImageFix" result="effect1_dropShadow_70_11265"/>
<feBlend mode="normal" in="SourceGraphic" in2="effect1_dropShadow_70_11265" result="shape"/>
</filter>
<clipPath id="clip0_70_11265">
<rect width="24" height="24" fill="white" transform="translate(0 0.5)"/>
</clipPath>
</defs>
</svg>
