<svg width="21" height="21" viewBox="0 0 21 21" fill="none" xmlns="http://www.w3.org/2000/svg">
<path fill-rule="evenodd" clip-rule="evenodd" d="M4.83822 16.8711H16.5049C16.7259 16.8711 16.9379 16.9589 17.0941 17.1152C17.2504 17.2715 17.3382 17.4834 17.3382 17.7044C17.3382 17.9254 17.2504 18.1374 17.0941 18.2937C16.9379 18.45 16.7259 18.5378 16.5049 18.5378H4.83822C4.6172 18.5378 4.40524 18.45 4.24896 18.2937C4.09268 18.1374 4.00488 17.9254 4.00488 17.7044C4.00488 17.4834 4.09268 17.2715 4.24896 17.1152C4.40524 16.9589 4.6172 16.8711 4.83822 16.8711ZM4.00488 12.7044L12.3382 4.37109L14.8382 6.87109L6.50488 15.2044H4.00488V12.7044ZM13.1715 3.53776L14.8382 1.87109L17.3382 4.37109L15.6707 6.03859L13.1715 3.53776Z" fill="#474747"/>
</svg>
