<svg width="24" height="25" viewBox="0 0 24 25" fill="none" xmlns="http://www.w3.org/2000/svg">
<path d="M17 2.24609H7C5.3 2.24609 4 3.54609 4 5.24609V11.2461H12.6L10.3 8.94609C9.9 8.54609 9.9 7.94609 10.3 7.54609C10.7 7.14609 11.3 7.14609 11.7 7.54609L15.7 11.5461C16.1 11.9461 16.1 12.5461 15.7 12.9461L11.7 16.9461C11.3 17.3461 10.7 17.3461 10.3 16.9461C9.9 16.5461 9.9 15.9461 10.3 15.5461L12.6 13.2461H4V19.2461C4 20.9461 5.3 22.2461 7 22.2461H17C18.7 22.2461 20 20.9461 20 19.2461V5.24609C20 3.54609 18.7 2.24609 17 2.24609Z" fill="#474747"/>
</svg>
