<svg width="21" height="21" viewBox="0 0 21 21" fill="none" xmlns="http://www.w3.org/2000/svg">
<circle cx="10.0176" cy="10.9683" r="9" fill="#666666"/>
<path fill-rule="evenodd" clip-rule="evenodd" d="M5.98975 13.251C5.8419 13.2298 5.68472 13.2179 5.51758 13.2179C4.28651 13.2179 3.59897 13.8675 3.3354 14.1912C3.29265 14.2468 3.26983 14.3149 3.26983 14.3853C3.26983 14.3872 3.26983 14.3892 3.26951 14.3908C3.26758 14.5097 3.26758 14.6672 3.26758 14.825C3.26758 15.0024 3.41158 15.1464 3.58901 15.1464H5.89429C5.85797 15.0442 5.83901 14.9356 5.83901 14.825C5.83901 14.4592 5.83901 14.0234 5.84029 13.7659C5.84029 13.5827 5.89268 13.4043 5.98975 13.251ZM13.2319 15.1464H6.80329C6.71811 15.1464 6.63615 15.1127 6.57604 15.0523C6.51561 14.9922 6.48186 14.9102 6.48186 14.825C6.48186 14.4602 6.48186 14.0263 6.48315 13.7678C6.48315 13.7672 6.48315 13.7666 6.48315 13.7659C6.48315 13.692 6.50887 13.6206 6.55547 13.5634C6.95437 13.1079 8.15972 11.9322 10.0176 11.9322C12.1204 11.9322 13.1763 13.1057 13.4993 13.5483C13.535 13.6026 13.5533 13.664 13.5533 13.7267V14.825C13.5533 14.9102 13.5195 14.9922 13.4591 15.0523C13.399 15.1127 13.317 15.1464 13.2319 15.1464ZM14.1409 15.1464H16.4461C16.6236 15.1464 16.7676 15.0024 16.7676 14.825V14.385C16.7676 14.3139 16.7441 14.2452 16.701 14.1889C16.4362 13.8675 15.7483 13.2179 14.5176 13.2179C14.3591 13.2179 14.2097 13.2285 14.0689 13.2478C14.1521 13.3934 14.1961 13.5586 14.1961 13.7273V14.825C14.1961 14.9356 14.1772 15.0442 14.1409 15.1464ZM5.51758 9.36074C4.63044 9.36074 3.91044 10.0807 3.91044 10.9679C3.91044 11.855 4.63044 12.575 5.51758 12.575C6.40472 12.575 7.12472 11.855 7.12472 10.9679C7.12472 10.0807 6.40472 9.36074 5.51758 9.36074ZM14.5176 9.36074C13.6304 9.36074 12.9104 10.0807 12.9104 10.9679C12.9104 11.855 13.6304 12.575 14.5176 12.575C15.4047 12.575 16.1247 11.855 16.1247 10.9679C16.1247 10.0807 15.4047 9.36074 14.5176 9.36074ZM10.0176 6.78931C8.7759 6.78931 7.76758 7.79763 7.76758 9.03931C7.76758 10.281 8.7759 11.2893 10.0176 11.2893C11.2593 11.2893 12.2676 10.281 12.2676 9.03931C12.2676 7.79763 11.2593 6.78931 10.0176 6.78931Z" fill="white"/>
</svg>
