<svg width="24" height="25" viewBox="0 0 24 25" fill="none" xmlns="http://www.w3.org/2000/svg">
<path d="M5.94141 14.5525C5.94141 15.5592 8.54012 16.0934 11.3287 16.1682L11.3273 16.184V20.1215C11.3273 20.8461 11.6289 22.7466 12.0006 22.7466C12.3722 22.7466 12.6738 20.8461 12.6738 20.1215V16.184L12.6725 16.1682C15.461 16.0934 18.0597 15.5592 18.0597 14.5525C18.0597 13.4841 17.0674 12.7045 15.3668 12.2845V5.48694C17.0674 4.92518 18.0597 4.02085 18.0597 3.37772C18.0597 1.20287 5.94141 1.20287 5.94141 3.37772C5.94141 4.08517 6.93376 4.9698 8.63437 5.51056V12.2845C6.93376 12.7058 5.94141 13.4841 5.94141 14.5525Z" fill="#474747"/>
</svg>
