<svg width="24" height="25" viewBox="0 0 24 25" fill="none" xmlns="http://www.w3.org/2000/svg">
<path d="M4.575 2.62109C3.62685 2.62109 2.71753 2.99774 2.04709 3.66819C1.37665 4.33863 1 5.24794 1 6.19609V15.5461C1 16.2025 1.26076 16.832 1.72491 17.2962C2.18906 17.7603 2.81859 18.0211 3.475 18.0211H3.75V8.94609C3.75 7.99794 4.12665 7.08863 4.79709 6.41819C5.46753 5.74774 6.37685 5.37109 7.325 5.37109H19.7V5.09609C19.7 4.77107 19.636 4.44923 19.5116 4.14895C19.3872 3.84867 19.2049 3.57583 18.9751 3.346C18.7453 3.11618 18.4724 2.93387 18.1721 2.80949C17.8719 2.68511 17.55 2.62109 17.225 2.62109H4.575Z" fill="#474747"/>
<path d="M20.5246 6.4707H19.979L19.8668 6.4784C19.6598 6.50689 19.4712 6.61293 19.3393 6.77507C19.2074 6.93722 19.142 7.14339 19.1562 7.35193C19.1705 7.56047 19.2633 7.75583 19.4161 7.89853C19.5688 8.04123 19.77 8.12064 19.979 8.1207H20.5246L20.6368 8.1284C20.8344 8.15552 21.0154 8.25323 21.1464 8.40348C21.2774 8.55373 21.3496 8.74634 21.3496 8.9457V10.0501L21.3573 10.1612C21.3858 10.3682 21.4918 10.5567 21.6538 10.6886C21.8158 10.8205 22.0219 10.886 22.2303 10.8719C22.4388 10.8578 22.6341 10.7651 22.7769 10.6126C22.9197 10.4601 22.9993 10.259 22.9996 10.0501V8.9457L22.9941 8.7763C22.9512 8.15063 22.6724 7.56459 22.214 7.13661C21.7556 6.70863 21.1518 6.47063 20.5246 6.4707Z" fill="#474747"/>
<path d="M6.49191 12.6842C6.46342 12.4772 6.35739 12.2886 6.19524 12.1567C6.03309 12.0248 5.82692 11.9594 5.61838 11.9736C5.40984 11.9878 5.21448 12.0807 5.07178 12.2335C4.92908 12.3862 4.84967 12.5874 4.84961 12.7964V15.5398L4.85731 15.652C4.8858 15.8591 4.99183 16.0476 5.15398 16.1796C5.31613 16.3115 5.5223 16.3769 5.73084 16.3627C5.93938 16.3484 6.13474 16.2555 6.27744 16.1028C6.42014 15.9501 6.49954 15.7489 6.49961 15.5398V12.7964L6.49191 12.6842Z" fill="#474747"/>
<path d="M5.67461 17.4658C5.87397 17.4658 6.06658 17.538 6.21683 17.6691C6.36708 17.8001 6.4648 17.9811 6.49191 18.1786L6.49961 18.2908V19.3963C6.49961 19.8143 6.80981 20.1597 7.21241 20.2136L7.32461 20.2213H7.87461C8.08363 20.2214 8.28484 20.3008 8.43758 20.4435C8.59031 20.5862 8.68319 20.7815 8.69744 20.9901C8.71168 21.1986 8.64624 21.4048 8.51433 21.5669C8.38242 21.7291 8.19388 21.8351 7.98681 21.8636L7.87461 21.8713H7.32461C6.69747 21.8714 6.09369 21.6334 5.63528 21.2054C5.17688 20.7774 4.89803 20.1914 4.85511 19.5657L4.84961 19.3963V18.2908C4.84961 18.072 4.93653 17.8622 5.09125 17.7075C5.24596 17.5527 5.45581 17.4658 5.67461 17.4658Z" fill="#474747"/>
<path d="M22.176 17.4658C22.3948 17.4658 22.6046 17.5527 22.7593 17.7075C22.914 17.8622 23.001 18.072 23.001 18.2908V19.3963C23.001 20.0527 22.7402 20.6823 22.276 21.1464C21.8119 21.6106 21.1824 21.8713 20.526 21.8713H19.4227C19.2039 21.8713 18.994 21.7844 18.8393 21.6297C18.6846 21.475 18.5977 21.2651 18.5977 21.0463C18.5977 20.8275 18.6846 20.6177 18.8393 20.463C18.994 20.3082 19.2039 20.2213 19.4227 20.2213H20.526C20.7448 20.2213 20.9546 20.1344 21.1093 19.9797C21.264 19.825 21.351 19.6151 21.351 19.3963V18.2908C21.351 18.072 21.4379 17.8622 21.5926 17.7075C21.7473 17.5527 21.9572 17.4658 22.176 17.4658Z" fill="#474747"/>
<path d="M16.6724 20.2207H15.0279L14.9157 20.2284C14.7086 20.2569 14.5201 20.3629 14.3881 20.5251C14.2562 20.6872 14.1908 20.8934 14.205 21.1019C14.2193 21.3105 14.3122 21.5058 14.4649 21.6485C14.6176 21.7912 14.8188 21.8706 15.0279 21.8707H16.6724L16.7846 21.863C16.9916 21.8345 17.1802 21.7285 17.3121 21.5663C17.444 21.4042 17.5094 21.198 17.4952 20.9895C17.481 20.7809 17.3881 20.5856 17.2353 20.4429C17.0826 20.3002 16.8814 20.2208 16.6724 20.2207Z" fill="#474747"/>
<path d="M10.6244 20.2207H12.27C12.4791 20.2208 12.6803 20.3002 12.833 20.4429C12.9857 20.5856 13.0786 20.7809 13.0929 20.9895C13.1071 21.198 13.0417 21.4042 12.9098 21.5663C12.7778 21.7285 12.5893 21.8345 12.3822 21.863L12.27 21.8707H10.6255C10.4165 21.8706 10.2153 21.7912 10.0626 21.6485C9.90982 21.5058 9.81695 21.3105 9.8027 21.1019C9.78845 20.8934 9.8539 20.6872 9.98581 20.5251C10.1177 20.3629 10.3063 20.2569 10.5133 20.2284L10.6244 20.2207Z" fill="#474747"/>
<path d="M22.1746 11.9707C22.3741 11.9707 22.5669 12.0431 22.7172 12.1744C22.8674 12.3056 22.965 12.4869 22.9919 12.6846L22.9996 12.7968V15.5402C22.9995 15.7492 22.9201 15.9504 22.7774 16.1032C22.6347 16.2559 22.4394 16.3488 22.2308 16.363C22.0223 16.3773 21.8161 16.3118 21.654 16.1799C21.4918 16.048 21.3858 15.8595 21.3573 15.6524L21.3496 15.5402V12.7968C21.3496 12.578 21.4365 12.3682 21.5912 12.2134C21.746 12.0587 21.9558 11.9718 22.1746 11.9718V11.9707Z" fill="#474747"/>
<path d="M8.42791 6.4707C8.64671 6.4707 8.85655 6.55762 9.01127 6.71234C9.16599 6.86706 9.25291 7.0769 9.25291 7.2957C9.25291 7.51451 9.16599 7.72435 9.01127 7.87907C8.85655 8.03378 8.64671 8.1207 8.42791 8.1207H7.32461C7.1058 8.1207 6.89596 8.20762 6.74125 8.36234C6.58653 8.51706 6.49961 8.7269 6.49961 8.9457V10.0501C6.49961 10.2689 6.41269 10.4787 6.25797 10.6335C6.10325 10.7882 5.89341 10.8751 5.67461 10.8751C5.45581 10.8751 5.24596 10.7882 5.09125 10.6335C4.93653 10.4787 4.84961 10.2689 4.84961 10.0501V8.9457C4.84961 8.28929 5.11037 7.65977 5.57452 7.19561C6.03867 6.73146 6.6682 6.4707 7.32461 6.4707H8.42791Z" fill="#474747"/>
<path d="M17.2281 6.4707H15.5748L15.4626 6.4784C15.2554 6.50691 15.0668 6.61302 14.9349 6.77529C14.8029 6.93755 14.7376 7.14386 14.752 7.35248C14.7664 7.56111 14.8594 7.75648 15.0124 7.8991C15.1653 8.04171 15.3667 8.12092 15.5759 8.1207H17.2292L17.3413 8.113C17.5484 8.08451 17.737 7.97848 17.8689 7.81633C18.0008 7.65418 18.0662 7.44801 18.052 7.23947C18.0377 7.03093 17.9449 6.83557 17.7921 6.69287C17.6394 6.55017 17.4382 6.47077 17.2292 6.4707H17.2281Z" fill="#474747"/>
<path d="M11.1744 6.4707H12.8189C13.0279 6.47077 13.2291 6.55017 13.3818 6.69287C13.5346 6.83557 13.6274 7.03093 13.6417 7.23947C13.6559 7.44801 13.5905 7.65418 13.4586 7.81633C13.3267 7.97848 13.1381 8.08451 12.9311 8.113L12.8189 8.1207H11.1744C10.9653 8.12064 10.7641 8.04123 10.6114 7.89853C10.4587 7.75583 10.3658 7.56047 10.3515 7.35193C10.3373 7.14339 10.4027 6.93722 10.5346 6.77507C10.6665 6.61293 10.8551 6.50689 11.0622 6.4784L11.1744 6.4707Z" fill="#474747"/>
</svg>
