<svg width="20" height="20" viewBox="0 0 20 20" fill="none" xmlns="http://www.w3.org/2000/svg">
<circle cx="10" cy="10" r="9" fill="#666666"/>
<path fill-rule="evenodd" clip-rule="evenodd" d="M5.97218 12.2827C5.82432 12.2615 5.66714 12.2496 5.5 12.2496C4.26893 12.2496 3.58139 12.8992 3.31782 13.2229C3.27507 13.2785 3.25225 13.3467 3.25225 13.417C3.25225 13.419 3.25225 13.4209 3.25193 13.4225C3.25 13.5414 3.25 13.6989 3.25 13.8568C3.25 14.0342 3.394 14.1782 3.57143 14.1782H5.87671C5.84039 14.076 5.82143 13.9673 5.82143 13.8568C5.82143 13.491 5.82143 13.0551 5.82271 12.7977C5.82271 12.6144 5.87511 12.436 5.97218 12.2827ZM13.2143 14.1782H6.78571C6.70054 14.1782 6.61857 14.1444 6.55846 14.084C6.49804 14.0239 6.46429 13.9419 6.46429 13.8568C6.46429 13.4919 6.46428 13.058 6.46557 12.7996C6.46557 12.7989 6.46557 12.7983 6.46557 12.7977C6.46557 12.7237 6.49129 12.6524 6.53789 12.5952C6.93679 12.1397 8.14214 10.9639 10 10.9639C12.1028 10.9639 13.1587 12.1374 13.4817 12.58C13.5174 12.6344 13.5357 12.6958 13.5357 12.7584V13.8568C13.5357 13.9419 13.502 14.0239 13.4415 14.084C13.3814 14.1444 13.2995 14.1782 13.2143 14.1782ZM14.1233 14.1782H16.4286C16.606 14.1782 16.75 14.0342 16.75 13.8568V13.4167C16.75 13.3457 16.7265 13.2769 16.6835 13.2207C16.4186 12.8992 15.7308 12.2496 14.5 12.2496C14.3415 12.2496 14.1921 12.2602 14.0513 12.2795C14.1345 12.4251 14.1786 12.5903 14.1786 12.7591V13.8568C14.1786 13.9673 14.1596 14.076 14.1233 14.1782ZM5.5 8.39247C4.61286 8.39247 3.89286 9.11247 3.89286 9.99962C3.89286 10.8868 4.61286 11.6068 5.5 11.6068C6.38714 11.6068 7.10714 10.8868 7.10714 9.99962C7.10714 9.11247 6.38714 8.39247 5.5 8.39247ZM14.5 8.39247C13.6129 8.39247 12.8929 9.11247 12.8929 9.99962C12.8929 10.8868 13.6129 11.6068 14.5 11.6068C15.3871 11.6068 16.1071 10.8868 16.1071 9.99962C16.1071 9.11247 15.3871 8.39247 14.5 8.39247ZM10 5.82104C8.75832 5.82104 7.75 6.82937 7.75 8.07104C7.75 9.31272 8.75832 10.321 10 10.321C11.2417 10.321 12.25 9.31272 12.25 8.07104C12.25 6.82937 11.2417 5.82104 10 5.82104Z" fill="white"/>
</svg>
