<svg width="20" height="21" viewBox="0 0 20 21" fill="none" xmlns="http://www.w3.org/2000/svg">
<path d="M16.9919 14.1513C15.8561 13.1914 15.2057 11.792 15.2057 10.3081V8.21602C15.2057 5.57538 13.2436 3.39185 10.705 3.02617V2.21745C10.705 1.80254 10.3674 1.46851 9.95603 1.46851C9.54464 1.46851 9.20709 1.79903 9.20709 2.21393V3.02265C6.6649 3.39185 4.7064 5.57538 4.7064 8.21602V10.3081C4.7064 11.792 4.05591 13.1949 2.91667 14.1583C2.62483 14.408 2.45605 14.7701 2.45605 15.1534C2.45605 15.8777 3.04325 16.4649 3.76758 16.4649H16.1445C16.8688 16.4649 17.456 15.8777 17.456 15.1534C17.4595 14.7701 17.2907 14.408 16.9919 14.1513Z" fill="#474747"/>
<path d="M9.95628 19.4676C11.3135 19.4676 12.4528 18.5007 12.713 17.2173H7.20312C7.46332 18.5007 8.59904 19.4676 9.95628 19.4676Z" fill="#474747"/>
</svg>
