<svg width="24" height="25" viewBox="0 0 24 25" fill="none" xmlns="http://www.w3.org/2000/svg">
<path d="M12.0111 9.40108C11.3103 9.40108 10.6541 9.67295 10.1572 10.1698C9.66268 10.6667 9.38846 11.323 9.38846 12.0237C9.38846 12.7245 9.66268 13.3808 10.1572 13.8776C10.6541 14.3722 11.3103 14.6464 12.0111 14.6464C12.7119 14.6464 13.3681 14.3722 13.865 13.8776C14.3596 13.3808 14.6338 12.7245 14.6338 12.0237C14.6338 11.323 14.3596 10.6667 13.865 10.1698C13.6223 9.92527 13.3335 9.73138 13.0152 9.59941C12.697 9.46744 12.3557 9.40002 12.0111 9.40108ZM21.6744 14.9206L20.1416 13.6105C20.2142 13.1651 20.2517 12.7105 20.2517 12.2581C20.2517 11.8058 20.2142 11.3487 20.1416 10.9058L21.6744 9.59561C21.7902 9.49648 21.8731 9.36446 21.912 9.21709C21.9509 9.06972 21.9441 8.91399 21.8924 8.77061L21.8713 8.70967C21.4494 7.53004 20.8173 6.4366 20.0056 5.48232L19.9635 5.43311C19.8649 5.31721 19.7335 5.2339 19.5867 5.19415C19.4398 5.15441 19.2844 5.16009 19.1408 5.21045L17.2377 5.88779C16.5346 5.31123 15.7517 4.85654 14.9033 4.54014L14.5353 2.55029C14.5076 2.40039 14.4349 2.26249 14.3269 2.1549C14.2188 2.04731 14.0807 1.97513 13.9307 1.94795L13.8674 1.93623C12.6486 1.71592 11.3642 1.71592 10.1455 1.93623L10.0822 1.94795C9.93221 1.97513 9.79402 2.04731 9.68601 2.1549C9.578 2.26249 9.50529 2.40039 9.47753 2.55029L9.10721 4.54951C8.26681 4.86844 7.48392 5.32203 6.78924 5.89248L4.87206 5.21045C4.72854 5.15969 4.57297 5.1538 4.42603 5.19357C4.27909 5.23334 4.14773 5.31689 4.0494 5.43311L4.00721 5.48232C3.19696 6.43761 2.56504 7.53078 2.14159 8.70967L2.12049 8.77061C2.01503 9.06358 2.10174 9.3917 2.33846 9.59561L3.89003 10.9198C3.81737 11.3604 3.78221 11.8105 3.78221 12.2558C3.78221 12.7058 3.81737 13.1558 3.89003 13.5917L2.34315 14.9159C2.22736 15.015 2.14449 15.1471 2.10555 15.2944C2.06662 15.4418 2.07346 15.5975 2.12518 15.7409L2.14628 15.8019C2.57049 16.9808 3.19628 18.0706 4.0119 19.0292L4.05409 19.0784C4.15265 19.1943 4.28402 19.2776 4.43087 19.3174C4.57773 19.3571 4.73318 19.3514 4.87674 19.3011L6.79393 18.619C7.49237 19.1933 8.27049 19.648 9.1119 19.962L9.48221 21.9612C9.50998 22.1111 9.58269 22.249 9.6907 22.3566C9.79871 22.4642 9.93689 22.5364 10.0869 22.5636L10.1502 22.5753C11.3809 22.7968 12.6413 22.7968 13.8721 22.5753L13.9353 22.5636C14.0853 22.5364 14.2235 22.4642 14.3315 22.3566C14.4395 22.249 14.5123 22.1111 14.54 21.9612L14.908 19.9714C15.7564 19.6526 16.5392 19.2003 17.2424 18.6237L19.1455 19.3011C19.289 19.3518 19.4446 19.3577 19.5915 19.318C19.7385 19.2782 19.8698 19.1946 19.9681 19.0784L20.0103 19.0292C20.826 18.0659 21.4517 16.9808 21.876 15.8019L21.8971 15.7409C21.9978 15.4503 21.9111 15.1245 21.6744 14.9206ZM12.0111 16.144C9.73534 16.144 7.89081 14.2995 7.89081 12.0237C7.89081 9.74795 9.73534 7.90342 12.0111 7.90342C14.2869 7.90342 16.1314 9.74795 16.1314 12.0237C16.1314 14.2995 14.2869 16.144 12.0111 16.144Z" fill="#474747"/>
</svg>
