<svg width="24" height="25" viewBox="0 0 24 25" fill="none" xmlns="http://www.w3.org/2000/svg">
<path d="M20.3902 16.6656C19.0274 15.5138 18.2468 13.8344 18.2468 12.0538V9.54331C18.2468 6.37454 15.8924 3.7543 12.846 3.31548V2.34502C12.846 1.84713 12.4409 1.44629 11.9472 1.44629C11.4536 1.44629 11.0485 1.84291 11.0485 2.3408V3.31126C7.99788 3.7543 5.64768 6.37454 5.64768 9.54331V12.0538C5.64768 13.8344 4.86709 15.518 3.50001 16.6741C3.1498 16.9737 2.94727 17.4083 2.94727 17.8682C2.94727 18.7374 3.6519 19.442 4.5211 19.442H19.3734C20.2426 19.442 20.9472 18.7374 20.9472 17.8682C20.9514 17.4083 20.7489 16.9737 20.3902 16.6656Z" fill="#474747"/>
<path d="M11.9464 23.0456C13.5751 23.0456 14.9421 21.8853 15.2544 20.3452H8.64258C8.95481 21.8853 10.3177 23.0456 11.9464 23.0456Z" fill="#474747"/>
</svg>
