<svg width="20" height="21" viewBox="0 0 20 21" fill="none" xmlns="http://www.w3.org/2000/svg">
<path d="M3.81217 2.44751C3.02205 2.44751 2.26429 2.76139 1.70559 3.32009C1.14688 3.87879 0.833008 4.63655 0.833008 5.42667V13.2183C0.833008 13.7653 1.05031 14.29 1.4371 14.6767C1.82389 15.0635 2.3485 15.2808 2.89551 15.2808H3.12467V7.71834C3.12467 6.92822 3.43855 6.17045 3.99725 5.61175C4.55595 5.05305 5.31372 4.73918 6.10384 4.73918H16.4163V4.51001C16.4163 4.23916 16.363 3.97096 16.2593 3.72072C16.1557 3.47049 16.0038 3.24312 15.8122 3.0516C15.6207 2.86008 15.3934 2.70816 15.1431 2.60451C14.8929 2.50086 14.6247 2.44751 14.3538 2.44751H3.81217Z" fill="#474747"/>
<path d="M17.1039 5.65576H16.6492L16.5557 5.66218C16.3831 5.68592 16.226 5.77428 16.1161 5.9094C16.0062 6.04453 15.9516 6.21634 15.9635 6.39012C15.9754 6.5639 16.0528 6.7267 16.1801 6.84562C16.3073 6.96454 16.475 7.03071 16.6492 7.03076H17.1039L17.1974 7.03718C17.362 7.05977 17.5128 7.1412 17.622 7.26641C17.7312 7.39161 17.7914 7.55213 17.7914 7.71826V8.63859L17.7978 8.73118C17.8215 8.90366 17.9098 9.06072 18.0448 9.17064C18.1799 9.28056 18.3516 9.33516 18.5253 9.32341C18.699 9.31165 18.8618 9.23443 18.9808 9.10733C19.0998 8.98022 19.1661 8.8127 19.1664 8.63859V7.71826L19.1618 7.57709C19.126 7.0557 18.8936 6.56733 18.5116 6.21068C18.1296 5.85403 17.6265 5.6557 17.1039 5.65576Z" fill="#474747"/>
<path d="M5.4096 10.8338C5.38586 10.6612 5.2975 10.5041 5.16237 10.3942C5.02725 10.2843 4.85544 10.2297 4.68166 10.2416C4.50787 10.2535 4.34507 10.3309 4.22616 10.4581C4.10724 10.5854 4.04107 10.7531 4.04102 10.9273V13.2134L4.04743 13.3069C4.07118 13.4795 4.15954 13.6366 4.29466 13.7465C4.42978 13.8565 4.60159 13.911 4.77538 13.8991C4.94916 13.8873 5.11196 13.8099 5.23087 13.6826C5.34979 13.5553 5.41596 13.3876 5.41602 13.2134V10.9273L5.4096 10.8338Z" fill="#474747"/>
<path d="M4.72852 14.8181C4.89465 14.8181 5.05516 14.8783 5.18037 14.9875C5.30557 15.0967 5.387 15.2475 5.4096 15.4121L5.41602 15.5056V16.4269C5.41602 16.7752 5.67451 17.063 6.01001 17.1079L6.10351 17.1144H6.56185C6.73604 17.1144 6.90371 17.1806 7.03099 17.2995C7.15827 17.4184 7.23567 17.5812 7.24754 17.755C7.25941 17.9288 7.20488 18.1006 7.09495 18.2357C6.98503 18.3708 6.82791 18.4592 6.65535 18.4829L6.56185 18.4894H6.10351C5.5809 18.4894 5.07775 18.2911 4.69574 17.9344C4.31374 17.5778 4.08137 17.0894 4.0456 16.568L4.04102 16.4269V15.5056C4.04102 15.3233 4.11345 15.1484 4.24238 15.0195C4.37131 14.8905 4.54618 14.8181 4.72852 14.8181Z" fill="#474747"/>
<path d="M18.479 14.8181C18.6613 14.8181 18.8362 14.8905 18.9651 15.0195C19.0941 15.1484 19.1665 15.3233 19.1665 15.5056V16.4269C19.1665 16.9739 18.9492 17.4985 18.5624 17.8853C18.1756 18.2721 17.651 18.4894 17.104 18.4894H16.1846C16.0022 18.4894 15.8274 18.4169 15.6984 18.288C15.5695 18.1591 15.4971 17.9842 15.4971 17.8019C15.4971 17.6195 15.5695 17.4447 15.6984 17.3157C15.8274 17.1868 16.0022 17.1144 16.1846 17.1144H17.104C17.2863 17.1144 17.4612 17.0419 17.5901 16.913C17.7191 16.7841 17.7915 16.6092 17.7915 16.4269V15.5056C17.7915 15.3233 17.8639 15.1484 17.9929 15.0195C18.1218 14.8905 18.2967 14.8181 18.479 14.8181Z" fill="#474747"/>
<path d="M13.8936 17.114H12.5232L12.4297 17.1204C12.2572 17.1442 12.1 17.2325 11.9901 17.3677C11.8802 17.5028 11.8257 17.6746 11.8375 17.8484C11.8494 18.0222 11.9268 18.185 12.0541 18.3039C12.1814 18.4228 12.349 18.489 12.5232 18.489H13.8936L13.9871 18.4826C14.1597 18.4589 14.3168 18.3705 14.4267 18.2354C14.5367 18.1002 14.5912 17.9284 14.5793 17.7547C14.5675 17.5809 14.4901 17.4181 14.3628 17.2992C14.2355 17.1802 14.0678 17.1141 13.8936 17.114Z" fill="#474747"/>
<path d="M8.85434 17.114H10.2257C10.3999 17.1141 10.5675 17.1802 10.6948 17.2992C10.8221 17.4181 10.8995 17.5809 10.9114 17.7547C10.9232 17.9284 10.8687 18.1002 10.7588 18.2354C10.6489 18.3705 10.4917 18.4589 10.3192 18.4826L10.2257 18.489H8.85526C8.68107 18.489 8.5134 18.4228 8.38612 18.3039C8.25884 18.185 8.18144 18.0222 8.16957 17.8484C8.1577 17.6746 8.21223 17.5028 8.32216 17.3677C8.43208 17.2325 8.5892 17.1442 8.76176 17.1204L8.85434 17.114Z" fill="#474747"/>
<path d="M18.4785 10.239C18.6448 10.2391 18.8054 10.2993 18.9306 10.4087C19.0559 10.5181 19.1372 10.6692 19.1596 10.8339L19.166 10.9274V13.2136C19.166 13.3878 19.0998 13.5555 18.9809 13.6827C18.862 13.81 18.6992 13.8874 18.5254 13.8993C18.3516 13.9112 18.1798 13.8566 18.0447 13.7467C17.9095 13.6368 17.8212 13.4797 17.7974 13.3071L17.791 13.2136V10.9274C17.791 10.7451 17.8634 10.5702 17.9924 10.4413C18.1213 10.3124 18.2962 10.2399 18.4785 10.2399V10.239Z" fill="#474747"/>
<path d="M7.02293 5.65576C7.20527 5.65576 7.38014 5.72819 7.50907 5.85713C7.638 5.98606 7.71043 6.16093 7.71043 6.34326C7.71043 6.5256 7.638 6.70047 7.50907 6.8294C7.38014 6.95833 7.20527 7.03076 7.02293 7.03076H6.10351C5.92118 7.03076 5.74631 7.10319 5.61738 7.23213C5.48845 7.36106 5.41602 7.53592 5.41602 7.71826V8.63859C5.41602 8.82093 5.34358 8.9958 5.21465 9.12473C5.08572 9.25366 4.91085 9.32609 4.72852 9.32609C4.54618 9.32609 4.37131 9.25366 4.24238 9.12473C4.11345 8.9958 4.04102 8.82093 4.04102 8.63859V7.71826C4.04102 7.17125 4.25831 6.64665 4.64511 6.25985C5.0319 5.87306 5.55651 5.65576 6.10351 5.65576H7.02293Z" fill="#474747"/>
<path d="M14.3561 5.65576H12.9783L12.8848 5.66218C12.7122 5.68593 12.555 5.77436 12.4451 5.90958C12.3351 6.0448 12.2807 6.21672 12.2926 6.39058C12.3046 6.56443 12.3822 6.72725 12.5097 6.84609C12.6371 6.96493 12.805 7.03094 12.9792 7.03076H14.357L14.4505 7.02434C14.623 7.0006 14.7802 6.91224 14.8901 6.77712C15 6.642 15.0545 6.47018 15.0427 6.2964C15.0308 6.12262 14.9534 5.95982 14.8261 5.8409C14.6988 5.72199 14.5312 5.65582 14.357 5.65576H14.3561Z" fill="#474747"/>
<path d="M9.31229 5.65576H10.6827C10.8569 5.65582 11.0246 5.72199 11.1518 5.8409C11.2791 5.95982 11.3565 6.12262 11.3684 6.2964C11.3803 6.47018 11.3257 6.642 11.2158 6.77712C11.1059 6.91224 10.9488 7.0006 10.7762 7.02434L10.6827 7.03076H9.31229C9.1381 7.03071 8.97043 6.96454 8.84315 6.84562C8.71587 6.7267 8.63847 6.5639 8.6266 6.39012C8.61473 6.21634 8.66926 6.04453 8.77919 5.9094C8.88911 5.77428 9.04623 5.68592 9.21879 5.66218L9.31229 5.65576Z" fill="#474747"/>
</svg>
