<svg width="24" height="25" viewBox="0 0 24 25" fill="none" xmlns="http://www.w3.org/2000/svg">
<path d="M11.9057 15.0933C12.6018 15.0933 13.2695 14.8168 13.7618 14.3245C14.2541 13.8322 14.5307 13.1645 14.5307 12.4683C14.5307 12.3915 14.5271 12.3153 14.5206 12.24L11.6774 15.0833C11.7526 15.0898 11.8285 15.0933 11.9057 15.0933ZM20.5944 4.34864L19.5932 3.34833C19.558 3.31319 19.5103 3.29346 19.4606 3.29346C19.4109 3.29346 19.3632 3.31319 19.3281 3.34833L16.7659 5.91122C15.3525 5.18888 13.7636 4.82771 11.9994 4.82771C7.49472 4.82771 4.13378 7.1738 1.91659 11.866C1.82747 12.0547 1.78125 12.2608 1.78125 12.4695C1.78125 12.6782 1.82747 12.8843 1.91659 13.073C2.80253 14.9391 3.86932 16.4348 5.11698 17.5601L2.63753 20.0386C2.60239 20.0738 2.58265 20.1215 2.58265 20.1712C2.58265 20.2209 2.60239 20.2686 2.63753 20.3037L3.63807 21.3043C3.67323 21.3394 3.72091 21.3591 3.77061 21.3591C3.82032 21.3591 3.86799 21.3394 3.90315 21.3043L20.5944 4.61396C20.6118 4.59654 20.6257 4.57586 20.6351 4.5531C20.6445 4.53034 20.6494 4.50594 20.6494 4.4813C20.6494 4.45666 20.6445 4.43226 20.6351 4.4095C20.6257 4.38674 20.6118 4.36606 20.5944 4.34864ZM7.78065 12.4683C7.78059 11.7558 7.96507 11.0555 8.31612 10.4355C8.66718 9.81549 9.17284 9.297 9.78384 8.93051C10.3948 8.56402 11.0904 8.36204 11.8026 8.34424C12.5149 8.32645 13.2196 8.49344 13.8482 8.82896L12.7086 9.96849C12.2491 9.82134 11.7578 9.80361 11.2889 9.91727C10.8199 10.0309 10.3913 10.2715 10.0501 10.6128C9.70887 10.954 9.46824 11.3826 9.35459 11.8516C9.24094 12.3205 9.25866 12.8117 9.40581 13.2713L8.26628 14.4108C7.9465 13.8134 7.77966 13.146 7.78065 12.4683Z" fill="#474747"/>
<path d="M22.0821 11.8634C21.2571 10.1259 20.2751 8.70913 19.1362 7.61304L15.7579 10.9916C16.0427 11.736 16.1058 12.5469 15.9397 13.3264C15.7735 14.1059 15.3852 14.8206 14.8216 15.3842C14.258 15.9478 13.5433 16.3361 12.7638 16.5023C11.9843 16.6684 11.1734 16.6053 10.4289 16.3205L7.56348 19.186C8.89285 19.8012 10.3714 20.1087 11.9993 20.1087C16.5039 20.1087 19.8649 17.7626 22.0821 13.0705C22.1712 12.8818 22.2174 12.6756 22.2174 12.4669C22.2174 12.2582 22.1712 12.0521 22.0821 11.8634Z" fill="#474747"/>
</svg>
