<svg width="31" height="31" viewBox="0 0 31 31" fill="none" xmlns="http://www.w3.org/2000/svg">
<path d="M9.85352 16.5352C9.01913 16.5352 8.20348 16.2877 7.50971 15.8242C6.81594 15.3606 6.27521 14.7017 5.9559 13.9309C5.63659 13.16 5.55305 12.3117 5.71583 11.4934C5.87861 10.675 6.28041 9.92331 6.87041 9.3333C7.46041 8.7433 8.21212 8.3415 9.03048 8.17872C9.84884 8.01594 10.6971 8.09948 11.468 8.41879C12.2388 8.7381 12.8977 9.27883 13.3613 9.9726C13.8248 10.6664 14.0723 11.482 14.0723 12.3164C14.0698 13.4345 13.6245 14.5061 12.8339 15.2968C12.0433 16.0874 10.9716 16.5327 9.85352 16.5352ZM20.166 13.7227C19.1462 13.7227 18.1493 13.4202 17.3014 12.8537C16.4534 12.2871 15.7925 11.4818 15.4023 10.5396C15.012 9.59744 14.9099 8.56069 15.1088 7.56047C15.3078 6.56026 15.7989 5.6415 16.52 4.92039C17.2411 4.19927 18.1599 3.70819 19.1601 3.50923C20.1603 3.31028 21.1971 3.41239 22.1392 3.80265C23.0814 4.19292 23.8867 4.85381 24.4533 5.70175C25.0199 6.54969 25.3223 7.5466 25.3223 8.56641C25.3198 9.93317 24.7757 11.2432 23.8093 12.2097C22.8429 13.1761 21.5328 13.7202 20.166 13.7227ZM28.1348 28.7227H12.1973C11.9486 28.7227 11.7102 28.6239 11.5344 28.4481C11.3585 28.2723 11.2598 28.0338 11.2598 27.7852C11.2598 27.5365 11.3585 27.2981 11.5344 27.1222C11.7102 26.9464 11.9486 26.8477 12.1973 26.8477H19.6973H27.1973V21.6164C27.1948 20.2496 27.9981 27.8141 27.0316 26.8477C27.0316 26.8477 26.689 26.8501 25.3223 26.8477L21.0277 27.3627C21.0277 27.3627 13.6654 26.5801 12.8339 27.1222C12.0024 27.6644 14.0078 18.6098 13.6035 19.5164C13.5582 19.6361 13.4889 19.7453 13.3999 19.8372C13.3108 19.9291 13.2038 20.0018 13.0856 20.0508C12.9674 20.0998 12.8404 20.1241 12.7124 20.1221C12.5844 20.1202 12.4582 20.092 12.3415 20.0395C12.2249 19.9869 12.1202 19.911 12.0339 19.8164C11.9477 19.7219 11.8817 19.6106 11.8401 19.4896C11.7985 19.3686 11.7821 19.2403 11.7919 19.1127C11.8018 18.9851 11.8376 18.8609 11.8973 18.7477C12.4488 17.5078 13.3482 16.4546 14.4864 15.7157C15.6246 14.9769 16.9528 14.5841 18.3098 14.5852H22.0598C23.9246 14.5852 25.713 15.3259 27.0316 16.6446C28.3502 17.9632 29.091 19.7516 29.091 21.6164V27.7852C29.091 27.9099 29.0662 28.0333 29.0179 28.1483C28.9696 28.2633 28.8989 28.3675 28.8098 28.4548C28.7208 28.5421 28.6152 28.6108 28.4993 28.6567C28.3834 28.7027 28.2595 28.7252 28.1348 28.7227Z" fill="url(#paint0_linear_2_636)"/>
<path d="M15.9473 28.7227H3.75977C3.51113 28.7227 3.27267 28.6239 3.09685 28.4481C2.92104 28.2723 2.82227 28.0338 2.82227 27.7852V24.5039C2.82227 22.6391 3.56306 20.8507 4.88167 19.5321C6.20029 18.2134 7.98871 17.4727 9.85352 17.4727C11.7183 17.4727 13.5067 18.2134 14.8254 19.5321C16.144 20.8507 16.8848 22.6391 16.8848 24.5039V27.7852C16.8848 28.0338 16.786 28.2723 16.6102 28.4481C16.4344 28.6239 16.1959 28.7227 15.9473 28.7227Z" fill="url(#paint1_linear_2_636)"/>
<defs>
<linearGradient id="paint0_linear_2_636" x1="5.63477" y1="17.6657" x2="29.0911" y2="17.649" gradientUnits="userSpaceOnUse">
<stop stop-color="#4250C2"/>
<stop offset="1" stop-color="#00A1FF"/>
</linearGradient>
<linearGradient id="paint1_linear_2_636" x1="2.82227" y1="23.8084" x2="16.8848" y2="23.7949" gradientUnits="userSpaceOnUse">
<stop stop-color="#4250C2"/>
<stop offset="1" stop-color="#00A1FF"/>
</linearGradient>
</defs>
</svg>
