<svg width="31" height="31" viewBox="0 0 31 31" fill="none" xmlns="http://www.w3.org/2000/svg">
<path d="M15.9473 30.5977C24.2315 30.5977 30.9473 23.8819 30.9473 15.5977C30.9473 7.31339 24.2315 0.597656 15.9473 0.597656C7.66299 0.597656 0.947266 7.31339 0.947266 15.5977C0.947266 23.8819 7.66299 30.5977 15.9473 30.5977Z" fill="url(#paint0_linear_2_660)"/>
<path d="M15.9469 6.35156C10.8741 6.35156 6.75879 10.1814 6.75879 14.9182C6.75879 17.6058 8.10257 20.0078 10.1854 21.5867V24.8454L13.3097 23.1153C14.1496 23.3504 15.0231 23.468 15.9469 23.468C21.0197 23.468 25.135 19.6382 25.135 14.9014C25.135 10.1813 21.0197 6.35156 15.9469 6.35156ZM16.8708 17.8745L14.5191 15.3717L9.95028 17.8745L14.9895 12.5162L17.3915 15.019L21.8932 12.5162L16.8708 17.8745Z" fill="white"/>
<defs>
<linearGradient id="paint0_linear_2_660" x1="0.947265" y1="17.493" x2="30.9474" y2="17.47" gradientUnits="userSpaceOnUse">
<stop stop-color="#4250C2"/>
<stop offset="1" stop-color="#00A1FF"/>
</linearGradient>
</defs>
</svg>
