<svg width="31" height="31" viewBox="0 0 31 31" fill="none" xmlns="http://www.w3.org/2000/svg">
<path d="M22.7131 3.09766H11.4289C10.3066 3.09766 9.23026 3.49274 8.43668 4.19601C7.64311 4.89927 7.19728 5.85309 7.19728 6.84766V26.8477C7.19629 27.0679 7.261 27.2845 7.38485 27.4755C7.5087 27.6664 7.68729 27.825 7.90254 27.9352C8.11697 28.0449 8.36021 28.1026 8.60781 28.1026C8.85541 28.1026 9.09865 28.0449 9.31308 27.9352L17.071 23.9602L24.829 27.9352C25.0439 28.0431 25.2871 28.0992 25.5342 28.0977C25.7813 28.0992 26.0245 28.0431 26.2395 27.9352C26.4547 27.825 26.6333 27.6664 26.7572 27.4755C26.881 27.2845 26.9457 27.0679 26.9448 26.8477V6.84766C26.9448 5.85309 26.4989 4.89927 25.7053 4.19601C24.9118 3.49274 23.8354 3.09766 22.7131 3.09766Z" fill="url(#paint0_linear_2_646)"/>
<defs>
<linearGradient id="paint0_linear_2_646" x1="9.39143" y1="16.5619" x2="25.2991" y2="16.5619" gradientUnits="userSpaceOnUse">
<stop stop-color="#824C99"/>
<stop offset="1" stop-color="#EF3795"/>
</linearGradient>
</defs>
</svg>
