<svg width="31" height="31" viewBox="0 0 31 31" fill="none" xmlns="http://www.w3.org/2000/svg">
<path d="M26.4473 1.59766H5.44727C4.51901 1.59766 3.62877 1.96641 2.97239 2.62278C2.31601 3.27916 1.94727 4.1694 1.94727 5.09766L1.94727 26.0977C1.94727 27.0259 2.31601 27.9162 2.97239 28.5725C3.62877 29.2289 4.51901 29.5977 5.44727 29.5977H26.4473C27.3755 29.5977 28.2658 29.2289 28.9221 28.5725C29.5785 27.9162 29.9473 27.0259 29.9473 26.0977V5.09766C29.9473 4.1694 29.5785 3.27916 28.9221 2.62278C28.2658 1.96641 27.3755 1.59766 26.4473 1.59766V1.59766ZM16.9973 26.31C15.289 26.3064 13.6068 25.8902 12.0939 25.0968C10.581 24.3034 9.28218 23.1563 8.30793 21.753C8.21656 21.6275 8.15113 21.4851 8.11549 21.334C8.07985 21.183 8.07471 21.0263 8.10038 20.8732C8.12604 20.7202 8.18199 20.5737 8.26495 20.4426C8.34791 20.3114 8.45621 20.1981 8.58351 20.1093C8.71081 20.0205 8.85455 19.958 9.00631 19.9254C9.15807 19.8929 9.3148 19.8909 9.46732 19.9197C9.61984 19.9485 9.76508 20.0074 9.89454 20.093C10.024 20.1786 10.1351 20.2892 10.2213 20.4183C11.2299 21.8741 12.6795 22.9674 14.3564 23.5371C16.0333 24.1069 17.8488 24.1229 19.5356 23.583C21.2223 23.0431 22.691 21.9756 23.7253 20.538C24.7596 19.1004 25.3048 17.3685 25.2806 15.5977C25.3074 13.5981 24.6088 11.6566 23.3141 10.1325C22.0195 8.60846 20.2165 7.60507 18.239 7.30813C16.2614 7.01118 14.2432 7.44079 12.5581 8.51742C10.8729 9.59404 9.63493 11.2448 9.07327 13.164L10.0451 12.5083C10.1722 12.4227 10.3149 12.3629 10.4651 12.3324C10.6153 12.3019 10.77 12.3013 10.9204 12.3306C11.0708 12.3599 11.214 12.4186 11.3418 12.5032C11.4695 12.5878 11.5794 12.6968 11.665 12.8239C11.7507 12.951 11.8104 13.0937 11.8409 13.2439C11.8714 13.3941 11.872 13.5488 11.8427 13.6992C11.8134 13.8496 11.7548 13.9928 11.6701 14.1206C11.5855 14.2483 11.4765 14.3582 11.3494 14.4438L8.19943 16.566C7.93888 16.7319 7.62428 16.7907 7.3214 16.73C7.01852 16.6694 6.75082 16.494 6.57427 16.2405L4.47427 13.059C4.38182 12.9314 4.31617 12.7865 4.28127 12.6328C4.24637 12.4792 4.24294 12.3201 4.2712 12.1651C4.29946 12.0101 4.35881 11.8625 4.44568 11.7311C4.53255 11.5996 4.64514 11.4872 4.77666 11.4004C4.90817 11.3137 5.05589 11.2545 5.21091 11.2264C5.36592 11.1983 5.52502 11.2019 5.67861 11.237C5.83219 11.272 5.97709 11.3378 6.10456 11.4304C6.23202 11.523 6.33942 11.6404 6.42027 11.7757L6.85427 12.4337C7.45377 10.5654 8.55846 8.89942 10.0461 7.62008C11.5337 6.34074 13.3463 5.49792 15.2833 5.18488C17.2202 4.87185 19.206 5.1008 21.021 5.84641C22.8359 6.59202 24.4091 7.82521 25.5666 9.40952C26.724 10.9938 27.4206 12.8675 27.5793 14.8231C27.7379 16.7788 27.3523 18.7402 26.4653 20.4904C25.5783 22.2405 24.2243 23.7111 22.5533 24.7395C20.8823 25.7678 18.9594 26.3138 16.9973 26.317V26.31ZM20.5941 17.6697C20.8119 17.8894 20.9335 18.1866 20.9322 18.4959C20.9309 18.8053 20.8067 19.1015 20.5871 19.3193C20.3638 19.5303 20.0678 19.6472 19.7606 19.6457C19.4534 19.6442 19.1586 19.5244 18.9374 19.3112L16.0733 16.4143C15.8617 16.1944 15.7409 15.9028 15.7349 15.5977V10.777C15.7349 10.4676 15.8578 10.1708 16.0766 9.95203C16.2954 9.73324 16.5922 9.61032 16.9016 9.61032C17.211 9.61032 17.5078 9.73324 17.7266 9.95203C17.9453 10.1708 18.0683 10.4676 18.0683 10.777V15.1182L20.5941 17.6697Z" fill="url(#paint0_linear_2_665)"/>
<defs>
<linearGradient id="paint0_linear_2_665" x1="5.05838" y1="16.6746" x2="27.6139" y2="16.6746" gradientUnits="userSpaceOnUse">
<stop stop-color="#0073BA"/>
<stop offset="1" stop-color="#00C0B0"/>
</linearGradient>
</defs>
</svg>
