<svg width="31" height="31" viewBox="0 0 31 31" fill="none" xmlns="http://www.w3.org/2000/svg">
<circle cx="15.9473" cy="15.5977" r="15" fill="url(#paint0_linear_2_641)"/>
<path fill-rule="evenodd" clip-rule="evenodd" d="M9.23423 19.4023C8.9878 19.3669 8.72584 19.3471 8.44727 19.3471C6.39548 19.3471 5.24959 20.4298 4.8103 20.9692C4.73905 21.0619 4.70102 21.1755 4.70102 21.2928C4.70102 21.296 4.70101 21.2992 4.70048 21.3019C4.69726 21.5001 4.69727 21.7626 4.69727 22.0257C4.69727 22.3214 4.93727 22.5614 5.23298 22.5614H9.07512C9.01459 22.391 8.98298 22.21 8.98298 22.0257C8.98298 21.416 8.98298 20.6896 8.98512 20.2605C8.98512 19.9551 9.07244 19.6578 9.23423 19.4023ZM21.3044 22.5614H10.5901C10.4482 22.5614 10.3116 22.5051 10.2114 22.4044C10.1107 22.3042 10.0544 22.1676 10.0544 22.0257C10.0544 21.4176 10.0544 20.6944 10.0566 20.2637C10.0566 20.2626 10.0566 20.2616 10.0566 20.2605C10.0566 20.1373 10.0994 20.0183 10.1771 19.923C10.8419 19.1639 12.8508 17.2042 15.9473 17.2042C19.4519 17.2042 21.2117 19.1601 21.7501 19.8978C21.8096 19.9883 21.8401 20.0907 21.8401 20.1951V22.0257C21.8401 22.1676 21.7839 22.3042 21.6832 22.4044C21.583 22.5051 21.4464 22.5614 21.3044 22.5614ZM22.8194 22.5614H26.6616C26.9573 22.5614 27.1973 22.3214 27.1973 22.0257V21.2923C27.1973 21.1739 27.1582 21.0592 27.0864 20.9655C26.6449 20.4298 25.4985 19.3471 23.4473 19.3471C23.1832 19.3471 22.9341 19.3648 22.6994 19.3969C22.8382 19.6396 22.9116 19.915 22.9116 20.1962V22.0257C22.9116 22.21 22.8799 22.391 22.8194 22.5614ZM8.44727 12.9185C6.96869 12.9185 5.76869 14.1185 5.76869 15.5971C5.76869 17.0757 6.96869 18.2757 8.44727 18.2757C9.92584 18.2757 11.1258 17.0757 11.1258 15.5971C11.1258 14.1185 9.92584 12.9185 8.44727 12.9185ZM23.4473 12.9185C21.9687 12.9185 20.7687 14.1185 20.7687 15.5971C20.7687 17.0757 21.9687 18.2757 23.4473 18.2757C24.9258 18.2757 26.1258 17.0757 26.1258 15.5971C26.1258 14.1185 24.9258 12.9185 23.4473 12.9185ZM15.9473 8.63281C13.8778 8.63281 12.1973 10.3133 12.1973 12.3828C12.1973 14.4523 13.8778 16.1328 15.9473 16.1328C18.0167 16.1328 19.6973 14.4523 19.6973 12.3828C19.6973 10.3133 18.0167 8.63281 15.9473 8.63281Z" fill="white"/>
<defs>
<linearGradient id="paint0_linear_2_641" x1="4.2806" y1="16.7515" x2="28.4473" y2="16.7515" gradientUnits="userSpaceOnUse">
<stop stop-color="#126D2E"/>
<stop offset="1" stop-color="#96BE15"/>
</linearGradient>
</defs>
</svg>
