<svg width="31" height="31" viewBox="0 0 31 31" fill="none" xmlns="http://www.w3.org/2000/svg">
<path d="M7.81222 6.38705H10.0825C10.187 6.38705 10.2717 6.30455 10.2717 6.20286V1.78185C10.2717 1.68009 10.187 1.59766 10.0825 1.59766H7.81222C7.70771 1.59766 7.62305 1.68016 7.62305 1.78185V6.20286C7.62305 6.30462 7.70771 6.38705 7.81222 6.38705Z" fill="url(#paint0_linear_2_650)"/>
<path d="M28.2067 4.91406H25.4067V6.09297C25.4067 6.793 24.877 7.49295 24.1581 7.49295H21.9257C21.1553 7.43978 20.5424 6.84306 20.4878 6.09297V4.91406H11.4068V6.09297C11.3522 6.84306 10.7393 7.43978 9.96893 7.49295H7.73647C7.01751 7.49295 6.48781 6.79293 6.48781 6.09297V4.91406H3.68783C2.72046 4.93416 1.94705 5.70357 1.94727 6.64569V11.1772H29.9472V6.64569C29.9475 5.70357 29.1741 4.93416 28.2067 4.91406Z" fill="url(#paint1_linear_2_650)"/>
<path d="M21.8122 6.38705H24.0825C24.187 6.38705 24.2717 6.30455 24.2717 6.20286V1.78185C24.2717 1.68009 24.1869 1.59766 24.0825 1.59766H21.8122C21.7077 1.59766 21.623 1.68016 21.623 1.78185V6.20286C21.623 6.30462 21.7077 6.38705 21.8122 6.38705Z" fill="url(#paint2_linear_2_650)"/>
<path d="M1.94727 27.939C1.96783 28.8605 2.7411 29.5971 3.68783 29.5969H28.2067C29.1534 29.5971 29.9266 28.8605 29.9473 27.939V12.2812H1.94727V27.939ZM8.98513 19.0602C9.04553 18.8589 9.22499 18.7133 9.43915 18.6918L13.3364 18.1023L15.077 14.676C15.2333 14.4115 15.5804 14.3205 15.8521 14.4728C15.9388 14.5214 16.0108 14.5915 16.0608 14.676L17.8014 18.1023L21.6986 18.6918C21.9128 18.7133 22.0923 18.859 22.1527 19.0602C22.2213 19.2573 22.1616 19.4752 22.0013 19.6128L19.2013 22.2654L19.8824 26.0601C19.9087 26.2594 19.8217 26.4569 19.6553 26.5758C19.5559 26.6454 19.4372 26.6839 19.3148 26.6863C19.2201 26.6951 19.1255 26.6688 19.0499 26.6126L15.5689 24.8442L12.0878 26.6126C11.8981 26.7252 11.6563 26.7105 11.4824 26.5758C11.3161 26.4569 11.2292 26.2594 11.2554 26.0601L11.9365 22.2654L9.13649 19.6128C8.97614 19.4752 8.91647 19.2572 8.98513 19.0602Z" fill="url(#paint3_linear_2_650)"/>
<defs>
<linearGradient id="paint0_linear_2_650" x1="7.91734" y1="4.17656" x2="10.051" y2="4.17656" gradientUnits="userSpaceOnUse">
<stop stop-color="#F65034"/>
<stop offset="1" stop-color="#FE9618"/>
</linearGradient>
<linearGradient id="paint1_linear_2_650" x1="5.05837" y1="8.28652" x2="27.6139" y2="8.28652" gradientUnits="userSpaceOnUse">
<stop stop-color="#F65034"/>
<stop offset="1" stop-color="#FE9618"/>
</linearGradient>
<linearGradient id="paint2_linear_2_650" x1="21.9173" y1="4.17656" x2="24.0509" y2="4.17656" gradientUnits="userSpaceOnUse">
<stop stop-color="#F65034"/>
<stop offset="1" stop-color="#FE9618"/>
</linearGradient>
<linearGradient id="paint3_linear_2_650" x1="5.05838" y1="21.605" x2="27.6139" y2="21.605" gradientUnits="userSpaceOnUse">
<stop stop-color="#F65034"/>
<stop offset="1" stop-color="#FE9618"/>
</linearGradient>
</defs>
</svg>
