<svg width="21" height="22" viewBox="0 0 21 22" fill="none" xmlns="http://www.w3.org/2000/svg">
<path d="M18.5065 15.3717C17.1436 14.2198 16.363 12.5405 16.363 10.7599V8.24936C16.363 5.0806 14.0086 2.46035 10.9622 2.02154V1.05107C10.9622 0.553186 10.5571 0.152344 10.0634 0.152344C9.56978 0.152344 9.16471 0.548967 9.16471 1.04686V2.01732C6.11409 2.46035 3.76389 5.0806 3.76389 8.24936V10.7599C3.76389 12.5405 2.9833 14.224 1.61622 15.3801C1.26601 15.6797 1.06348 16.1143 1.06348 16.5742C1.06348 17.4434 1.76812 18.1481 2.63731 18.1481H17.4896C18.3588 18.1481 19.0634 17.4434 19.0634 16.5742C19.0676 16.1143 18.8651 15.6797 18.5065 15.3717Z" fill="#474747"/>
<path d="M10.0636 21.7512C11.6922 21.7512 13.0593 20.5909 13.3716 19.0508H6.75977C7.072 20.5909 8.43487 21.7512 10.0636 21.7512Z" fill="#474747"/>
<line y1="-0.5" x2="27.4874" y2="-0.5" transform="matrix(0.707287 0.706926 -0.707287 0.706926 0 1.56836)" stroke="#474747"/>
<line y1="-0.5" x2="27.4561" y2="-0.5" transform="matrix(0.707287 0.706926 -0.707287 0.706926 0.708008 0.904297)" stroke="white"/>
</svg>
