<svg width="20" height="13" viewBox="0 0 20 13" fill="none" xmlns="http://www.w3.org/2000/svg">
<path d="M13.4608 5.71909C14.9193 5.71909 16.0879 4.54171 16.0879 3.08318C16.0879 1.62464 14.9193 0.447266 13.4608 0.447266C12.0023 0.447266 10.8249 1.62464 10.8249 3.08318C10.8249 4.54171 12.0023 5.71909 13.4608 5.71909ZM6.4317 5.71909C7.89024 5.71909 9.05883 4.54171 9.05883 3.08318C9.05883 1.62464 7.89024 0.447266 6.4317 0.447266C4.97317 0.447266 3.7958 1.62464 3.7958 3.08318C3.7958 4.54171 4.97317 5.71909 6.4317 5.71909ZM6.4317 7.47636C4.38448 7.47636 0.28125 8.50436 0.28125 10.5516V11.8695C0.28125 12.3528 0.676636 12.7482 1.15989 12.7482H11.7035C12.1868 12.7482 12.5822 12.3528 12.5822 11.8695V10.5516C12.5822 8.50436 8.47893 7.47636 6.4317 7.47636ZM13.4608 7.47636C13.206 7.47636 12.916 7.49393 12.6085 7.52029C12.6261 7.52908 12.6349 7.54665 12.6437 7.55544C13.6453 8.2847 14.3394 9.25999 14.3394 10.5516V11.8695C14.3394 12.1771 14.2779 12.4758 14.1813 12.7482H18.7326C19.2159 12.7482 19.6112 12.3528 19.6112 11.8695V10.5516C19.6112 8.50436 15.508 7.47636 13.4608 7.47636Z" fill="#474747"/>
</svg>
