<svg width="20" height="13" viewBox="0 0 20 13" fill="none" xmlns="http://www.w3.org/2000/svg">
<path fill-rule="evenodd" clip-rule="evenodd" d="M4.1293 9.89603C3.91573 9.86539 3.68869 9.84821 3.44727 9.84821C1.66905 9.84821 0.675943 10.7865 0.295229 11.2541C0.233479 11.3344 0.200517 11.4328 0.200517 11.5345C0.200517 11.5373 0.200514 11.5401 0.20005 11.5424C0.197264 11.7142 0.197266 11.9417 0.197266 12.1696C0.197266 12.4259 0.405266 12.6339 0.661551 12.6339H3.99141C3.93894 12.4863 3.91155 12.3294 3.91155 12.1696C3.91155 11.6413 3.91155 11.0117 3.91341 10.6398C3.91341 10.3752 3.98908 10.1175 4.1293 9.89603ZM14.5901 12.6339H5.30441C5.18137 12.6339 5.06298 12.5852 4.97616 12.4979C4.88887 12.4111 4.84012 12.2927 4.84012 12.1696C4.84012 11.6427 4.84012 11.0159 4.84198 10.6426C4.84198 10.6417 4.84198 10.6407 4.84198 10.6398C4.84198 10.533 4.87912 10.43 4.94645 10.3473C5.52262 9.68943 7.26369 7.99107 9.94727 7.99107C12.9846 7.99107 14.5098 9.68618 14.9764 10.3255C15.0279 10.404 15.0544 10.4926 15.0544 10.5832V12.1696C15.0544 12.2927 15.0057 12.4111 14.9184 12.4979C14.8316 12.5852 14.7132 12.6339 14.5901 12.6339ZM15.9031 12.6339H19.233C19.4893 12.6339 19.6973 12.4259 19.6973 12.1696V11.534C19.6973 11.4314 19.6634 11.3321 19.6012 11.2508C19.2186 10.7865 18.225 9.84821 16.4473 9.84821C16.2184 9.84821 16.0025 9.86353 15.7991 9.89139C15.9194 10.1017 15.983 10.3404 15.983 10.5841V12.1696C15.983 12.3294 15.9556 12.4863 15.9031 12.6339ZM3.44727 4.27679C2.16584 4.27679 1.12584 5.31678 1.12584 6.59821C1.12584 7.87964 2.16584 8.91964 3.44727 8.91964C4.72869 8.91964 5.76869 7.87964 5.76869 6.59821C5.76869 5.31678 4.72869 4.27679 3.44727 4.27679ZM16.4473 4.27679C15.1658 4.27679 14.1258 5.31678 14.1258 6.59821C14.1258 7.87964 15.1658 8.91964 16.4473 8.91964C17.7287 8.91964 18.7687 7.87964 18.7687 6.59821C18.7687 5.31678 17.7287 4.27679 16.4473 4.27679ZM9.94727 0.5625C8.15373 0.5625 6.69727 2.01896 6.69727 3.8125C6.69727 5.60603 8.15373 7.0625 9.94727 7.0625C11.7408 7.0625 13.1973 5.60603 13.1973 3.8125C13.1973 2.01896 11.7408 0.5625 9.94727 0.5625Z" fill="#474747"/>
</svg>
