<svg width="29" height="25" viewBox="0 0 29 25" fill="none" xmlns="http://www.w3.org/2000/svg">
<path d="M24.3973 0.599068C24.9948 0.599068 25.5864 0.717718 26.1385 0.948244C26.6905 1.17877 27.1921 1.51666 27.6146 1.94261C28.0371 2.36857 28.3723 2.87426 28.6009 3.4308C28.8296 3.98733 28.9473 4.58383 28.9473 5.18622V20.0105C28.9473 20.6129 28.8296 21.2094 28.6009 21.7659C28.3723 22.3225 28.0371 22.8282 27.6146 23.2541C27.1921 23.6801 26.6905 24.018 26.1385 24.2485C25.5864 24.479 24.9948 24.5977 24.3973 24.5977H5.49727C4.29053 24.5977 3.13322 24.1144 2.27993 23.2541C1.42664 22.3939 0.947266 21.2271 0.947266 20.0105V5.18481C0.947266 3.96822 1.42664 2.80146 2.27993 1.9412C3.13322 1.08094 4.29053 0.597656 5.49727 0.597656H24.3973V0.599068ZM24.3973 2.71622H5.49727C4.84749 2.71622 4.22432 2.97645 3.76485 3.43967C3.30539 3.90288 3.04727 4.53114 3.04727 5.18622V20.0105C3.04727 21.3739 4.14487 22.4805 5.49727 22.4805H24.3973C25.047 22.4805 25.6702 22.2203 26.1297 21.7571C26.5891 21.2938 26.8473 20.6656 26.8473 20.0105V5.18481C26.8473 4.52973 26.5891 3.90147 26.1297 3.43825C25.6702 2.97504 25.047 2.71481 24.3973 2.71481V2.71622ZM9.36827 8.17987C10.2027 8.17987 10.7949 8.29561 11.4711 8.62306C11.5747 8.6732 11.6675 8.74342 11.7441 8.82971C11.8208 8.916 11.8799 9.01667 11.918 9.12598C11.9561 9.23529 11.9724 9.35109 11.9661 9.46677C11.9598 9.58245 11.931 9.69575 11.8813 9.8002C11.8315 9.90464 11.7619 9.99819 11.6763 10.0755C11.5907 10.1528 11.4908 10.2124 11.3824 10.2508C11.274 10.2892 11.1591 10.3057 11.0444 10.2993C10.9296 10.293 10.8173 10.2639 10.7137 10.2137C10.2937 10.0105 9.95767 9.94557 9.36827 9.94557C8.15447 9.94557 7.26267 11.0691 7.26267 12.5878C7.26267 14.1079 8.15587 15.2356 9.36827 15.2356C9.96747 15.2356 10.4757 14.9816 10.7403 14.5285L10.7473 14.5073V13.4713H10.2209C10.0114 13.4713 9.80884 13.3955 9.65007 13.2577C9.4913 13.1199 9.38684 12.9293 9.35567 12.7205L9.34727 12.5906C9.34727 12.1474 9.67067 11.7804 10.0935 11.7169L10.2223 11.7085H11.6251C12.0647 11.7085 12.4273 12.0331 12.4903 12.4593L12.5001 12.5906L12.4973 14.7741L12.4889 14.8531L12.4595 14.9802L12.4315 15.0578C11.9037 16.314 10.6941 16.9999 9.36827 16.9999C7.09187 16.9999 5.51267 15.0056 5.51267 12.5878C5.51267 10.17 7.09047 8.17987 9.36827 8.17987ZM15.8279 8.35207C16.2675 8.35207 16.6315 8.67952 16.6931 9.10436L16.7029 9.23421V15.9569C16.7024 16.1792 16.6187 16.3932 16.4684 16.556C16.3181 16.7188 16.1124 16.8184 15.8925 16.8348C15.6725 16.8512 15.4545 16.7833 15.2821 16.6446C15.1097 16.5058 14.9956 16.3066 14.9627 16.0867L14.9529 15.9569V9.23421C14.9529 8.74727 15.3449 8.35207 15.8279 8.35207ZM20.0223 8.35207L22.8181 8.36195C23.0398 8.36137 23.2535 8.4457 23.416 8.59791C23.5784 8.75011 23.6775 8.95882 23.6932 9.18184C23.7088 9.40486 23.6399 9.62556 23.5003 9.7993C23.3607 9.97304 23.1609 10.0869 22.9413 10.1178L22.8125 10.1262L20.8931 10.1192V12.5948H22.4653C22.9049 12.5948 23.2689 12.9223 23.3305 13.3485L23.3403 13.4784C23.3402 13.6898 23.2648 13.8942 23.1279 14.0543C22.9909 14.2144 22.8015 14.3195 22.5941 14.3507L22.4653 14.3605L20.8931 14.3591V15.9329C20.8934 16.1443 20.8184 16.3488 20.6817 16.5092C20.545 16.6696 20.3557 16.7751 20.1483 16.8065L20.0195 16.815C19.8097 16.8153 19.6069 16.7397 19.4478 16.6019C19.2887 16.4641 19.1841 16.2732 19.1529 16.0641L19.1445 15.9329V9.23139C19.1453 9.02025 19.2211 8.8164 19.3583 8.65687C19.4955 8.49733 19.6849 8.39269 19.8921 8.36195L20.0223 8.35207Z" fill="#666666"/>
</svg>
