<svg width="23" height="22" viewBox="0 0 23 22" fill="none" xmlns="http://www.w3.org/2000/svg">
<path d="M20.7473 6.74844H14.5741L15.8094 3.04474C16.0316 2.37594 15.9194 1.63454 15.5069 1.06254C15.0944 0.490538 14.4256 0.148438 13.7205 0.148438H11.9473C11.6206 0.148438 11.3115 0.293637 11.1014 0.544437L5.93137 6.74844H3.14727C1.93397 6.74844 0.947266 7.73514 0.947266 8.94844V18.8484C0.947266 20.0617 1.93397 21.0484 3.14727 21.0484H17.785C18.2325 21.047 18.6691 20.9097 19.037 20.6547C19.4049 20.3998 19.6867 20.0392 19.8453 19.6206L22.878 11.5345C22.924 11.411 22.9475 11.2803 22.9473 11.1484V8.94844C22.9473 7.73514 21.9606 6.74844 20.7473 6.74844ZM3.14727 8.94844H5.34727V18.8484H3.14727V8.94844ZM20.7473 10.9493L17.785 18.8484H7.54727V8.24664L12.4621 2.34844H13.7227L12.0045 7.49974C11.9487 7.66508 11.9331 7.84135 11.9591 8.01391C11.985 8.18647 12.0517 8.35036 12.1537 8.49198C12.2556 8.63361 12.3899 8.74889 12.5453 8.82827C12.7007 8.90766 12.8728 8.94885 13.0473 8.94844H20.7473V10.9493Z" fill="#666666"/>
</svg>
