<svg width="20" height="14" viewBox="0 0 20 14" fill="none" xmlns="http://www.w3.org/2000/svg">
<path fill-rule="evenodd" clip-rule="evenodd" d="M1.99883 5.10773H6.07508C6.30008 5.10773 6.48258 5.29023 6.48258 5.51523V9.43867C6.48258 9.66367 6.30008 9.84617 6.07508 9.84617H1.99883C1.77383 9.84617 1.59133 9.66367 1.59133 9.43867V5.51523C1.59133 5.29023 1.77383 5.10773 1.99883 5.10773ZM15.1688 5.66836H15.5763C15.6888 5.66836 15.7801 5.75992 15.7801 5.87211V6.68742C15.7801 6.79992 15.6888 6.89117 15.5763 6.89117H15.1688H8.27352H7.86602C7.75352 6.89117 7.66227 6.79992 7.66227 6.68742V5.87211C7.66227 5.75992 7.75352 5.66836 7.86602 5.66836H8.27352H15.1688ZM15.3588 8.62336H15.6538C15.7663 8.62336 15.8576 8.71461 15.8576 8.82711V9.64242C15.8576 9.75492 15.7663 9.84617 15.6538 9.84617H15.3588H10.0385H9.74352C9.63102 9.84617 9.53977 9.75492 9.53977 9.64242V8.82711C9.53977 8.71461 9.63102 8.62336 9.74352 8.62336H10.0385H15.3588ZM1.79508 0.0761719H15.6538C16.3288 0.0761719 16.8766 0.624297 16.8766 1.29898V11.0818C16.8766 11.3068 17.0591 11.4893 17.2841 11.4893C17.5091 11.4893 17.692 11.3068 17.692 11.0818V2.52211C17.692 2.07211 18.0573 1.7068 18.507 1.7068C18.957 1.7068 19.3223 2.07211 19.3223 2.52211V11.8971C19.3223 12.5718 18.7745 13.1199 18.0995 13.1199H1.79508C1.12008 13.1199 0.572266 12.5718 0.572266 11.8971V1.29898C0.572266 0.624297 1.12008 0.0761719 1.79508 0.0761719ZM15.2463 2.71367H15.6538C15.7663 2.71367 15.8576 2.80492 15.8576 2.91742V3.73242C15.8576 3.84492 15.7663 3.93648 15.6538 3.93648H15.2463H2.20258H1.79508C1.68258 3.93648 1.59133 3.84492 1.59133 3.73242V2.91742C1.59133 2.80492 1.68258 2.71367 1.79508 2.71367H2.20258H15.2463Z" fill="#474747"/>
</svg>
