<svg width="19" height="19" viewBox="0 0 19 19" fill="none" xmlns="http://www.w3.org/2000/svg">
<path d="M9.94727 18.5977C14.9178 18.5977 18.9473 14.5682 18.9473 9.59766C18.9473 4.62709 14.9178 0.597656 9.94727 0.597656C4.9767 0.597656 0.947266 4.62709 0.947266 9.59766C0.947266 14.5682 4.9767 18.5977 9.94727 18.5977Z" fill="#474747"/>
<path d="M9.94647 4.04883C6.9028 4.04883 4.43359 6.3467 4.43359 9.18881C4.43359 10.8013 5.23986 12.2426 6.48958 13.1899V15.1451L8.36416 14.1071C8.86808 14.2482 9.39216 14.3187 9.94647 14.3187C12.9901 14.3187 15.4593 12.0208 15.4593 9.17873C15.4593 6.3467 12.9901 4.04883 9.94647 4.04883ZM10.5008 10.9626L9.08981 9.46092L6.34849 10.9626L9.372 7.7476L10.8132 9.24928L13.5142 7.7476L10.5008 10.9626Z" fill="white"/>
</svg>
