<svg width="25" height="25" viewBox="0 0 25 25" fill="none" xmlns="http://www.w3.org/2000/svg">
<path d="M22.5473 12.5977C22.5473 10.0516 21.5358 7.60978 19.7355 5.80943C17.9351 4.00908 15.4933 2.99766 12.9473 2.99766C10.4012 2.99766 7.95939 4.00908 6.15904 5.80943C4.35869 7.60978 3.34727 10.0516 3.34727 12.5977C3.34727 15.1437 4.35869 17.5855 6.15904 19.3859C7.95939 21.1862 10.4012 22.1977 12.9473 22.1977C15.4933 22.1977 17.9351 21.1862 19.7355 19.3859C21.5358 17.5855 22.5473 15.1437 22.5473 12.5977ZM24.9473 12.5977C24.9473 15.7803 23.683 18.8325 21.4325 21.0829C19.1821 23.3334 16.1299 24.5977 12.9473 24.5977C11.3714 24.5977 9.81097 24.2873 8.35506 23.6842C6.89916 23.0812 5.57629 22.1972 4.46198 21.0829C2.21155 18.8325 0.947266 15.7803 0.947266 12.5977C0.947266 9.41506 2.21155 6.36281 4.46198 4.11238C6.71242 1.86194 9.76467 0.597656 12.9473 0.597656C14.5231 0.597656 16.0836 0.908046 17.5395 1.5111C18.9954 2.11416 20.3182 2.99807 21.4325 4.11238C22.5469 5.22668 23.4308 6.54955 24.0338 8.00546C24.6369 9.46136 24.9473 11.0218 24.9473 12.5977ZM10.5473 9.59766C10.5473 10.5577 9.70727 11.3977 8.74727 11.3977C7.78727 11.3977 6.94727 10.5577 6.94727 9.59766C6.94727 8.63766 7.78727 7.79766 8.74727 7.79766C9.70727 7.79766 10.5473 8.63766 10.5473 9.59766ZM18.9473 9.59766C18.9473 10.5577 18.1073 11.3977 17.1473 11.3977C16.1873 11.3977 15.3473 10.5577 15.3473 9.59766C15.3473 8.63766 16.1873 7.79766 17.1473 7.79766C18.1073 7.79766 18.9473 8.63766 18.9473 9.59766ZM12.9473 18.8737C10.8473 18.8737 8.99927 17.9977 7.91927 16.7017L9.62327 14.9977C10.1633 15.8617 11.4473 16.4737 12.9473 16.4737C14.4473 16.4737 15.7313 15.8617 16.2713 14.9977L17.9753 16.7017C16.8953 17.9977 15.0473 18.8737 12.9473 18.8737Z" fill="#666666"/>
</svg>
