<svg width="29" height="25" viewBox="0 0 29 25" fill="none" xmlns="http://www.w3.org/2000/svg">
<path d="M11.0723 8.31166C11.0723 8.99365 10.8056 9.6477 10.3309 10.1299C9.85618 10.6122 9.21234 10.8831 8.54102 10.8831C7.86969 10.8831 7.22585 10.6122 6.75115 10.1299C6.27645 9.6477 6.00977 8.99365 6.00977 8.31166C6.00977 7.62968 6.27645 6.97562 6.75115 6.49339C7.22585 6.01115 7.86969 5.74023 8.54102 5.74023C9.21234 5.74023 9.85618 6.01115 10.3309 6.49339C10.8056 6.97562 11.0723 7.62968 11.0723 8.31166Z" fill="#666666"/>
<path d="M4.32227 0.597656C3.42716 0.597656 2.56872 0.95888 1.93578 1.60186C1.30285 2.24484 0.947266 3.11691 0.947266 4.02623V21.1691C0.947266 22.0784 1.30285 22.9505 1.93578 23.5935C2.56872 24.2364 3.42716 24.5977 4.32227 24.5977H24.5723C25.4674 24.5977 26.3258 24.2364 26.9588 23.5935C27.5917 22.9505 27.9473 22.0784 27.9473 21.1691V4.02623C27.9473 3.11691 27.5917 2.24484 26.9588 1.60186C26.3258 0.95888 25.4674 0.597656 24.5723 0.597656H4.32227ZM24.5723 2.31194C25.0198 2.31194 25.449 2.49255 25.7655 2.81404C26.082 3.13554 26.2598 3.57157 26.2598 4.02623V15.1691L19.8861 11.8314C19.7278 11.7508 19.5487 11.7229 19.3739 11.7515C19.1992 11.7801 19.0377 11.8638 18.9124 11.9908L12.6518 18.3508L8.16302 15.3131C8.00095 15.2035 7.80655 15.1542 7.61279 15.1735C7.41902 15.1929 7.23782 15.2798 7.09989 15.4194L2.63477 19.4548V4.02623C2.63477 3.57157 2.81256 3.13554 3.12902 2.81404C3.44549 2.49255 3.87471 2.31194 4.32227 2.31194H24.5723Z" fill="#666666" stroke="#666666" stroke-width="0.5"/>
</svg>
