<svg width="18" height="22" viewBox="0 0 18 22" fill="none" xmlns="http://www.w3.org/2000/svg">
<path d="M17.443 15.4205C16.0801 14.2686 15.2995 12.5893 15.2995 10.8087V8.29819C15.2995 5.12942 12.9451 2.50918 9.8987 2.07036V1.0999C9.8987 0.602014 9.49364 0.201172 8.99997 0.201172C8.5063 0.201172 8.10124 0.597795 8.10124 1.09568V2.06614C5.05061 2.50918 2.70041 5.12942 2.70041 8.29819V10.8087C2.70041 12.5893 1.91982 14.2729 0.552741 15.429C0.202531 15.7285 0 16.1631 0 16.6231C0 17.4923 0.704639 18.1969 1.57383 18.1969H16.4261C17.2953 18.1969 17.9999 17.4923 17.9999 16.6231C18.0042 16.1631 17.8016 15.7285 17.443 15.4205Z" fill="#474747"/>
<path d="M9.00008 21.8C10.6288 21.8 11.9958 20.6397 12.3081 19.0996H5.69629C6.00852 20.6397 7.37139 21.8 9.00008 21.8Z" fill="#474747"/>
</svg>
