<svg width="22" height="22" viewBox="0 0 22 22" fill="none" xmlns="http://www.w3.org/2000/svg">
<path d="M13.5714 2H4.42858C3.51926 2 2.64719 2.31601 2.00421 2.87851C1.36123 3.441 1.00001 4.20391 1.00001 4.9994V20.9962C0.99921 21.1724 1.05164 21.3456 1.15198 21.4984C1.25233 21.6511 1.39703 21.778 1.57144 21.8661C1.74517 21.9538 1.94225 22 2.14286 22C2.34348 22 2.54056 21.9538 2.71429 21.8661L9 18.6867L15.2857 21.8661C15.4599 21.9524 15.6569 21.9972 15.8571 21.996C16.0573 21.9972 16.2544 21.9524 16.4286 21.8661C16.603 21.778 16.7477 21.6511 16.848 21.4984C16.9484 21.3456 17.0008 21.1724 17 20.9962V4.9994C17 4.20391 16.6388 3.441 15.9958 2.87851C15.3528 2.31601 14.4807 2 13.5714 2Z" fill="#474747"/>
<line y1="-0.5" x2="27.4874" y2="-0.5" transform="matrix(0.707287 0.706926 -0.707287 0.706926 0.260742 1.6543)" stroke="#474747"/>
<line y1="-0.5" x2="27.4561" y2="-0.5" transform="matrix(0.707287 0.706926 -0.707287 0.706926 0.96875 0.990234)" stroke="white"/>
</svg>
