<svg width="20" height="24" viewBox="0 0 20 24" fill="none" xmlns="http://www.w3.org/2000/svg">
<path d="M10.7898 15.0141V23.5H2.7887e-07C-0.000334607 22.1626 0.300951 20.8428 0.880771 19.6419C1.46059 18.441 2.30356 17.3907 3.34508 16.5716C4.3866 15.7524 5.59903 15.1862 6.88946 14.9162C8.1799 14.6463 9.51409 14.6797 10.7898 15.0141ZM8.63185 13.6429C5.05503 13.6429 2.15796 10.7021 2.15796 7.07143C2.15796 3.44071 5.05503 0.5 8.63185 0.5C12.2087 0.5 15.1057 3.44071 15.1057 7.07143C15.1057 10.7021 12.2087 13.6429 8.63185 13.6429ZM16.1847 17.5704L18.4732 15.2463L20 16.796L17.7104 19.119L20 21.442L18.4732 22.9918L16.1847 20.6677L13.8962 22.9918L12.3694 21.442L14.659 19.119L12.3694 16.796L13.8962 15.2463L16.1847 17.5704Z" fill="#474747"/>
</svg>
