<svg width="20" height="18" viewBox="0 0 20 18" fill="none" xmlns="http://www.w3.org/2000/svg">
<path d="M3.25 0.25C2.38805 0.25 1.5614 0.59241 0.951903 1.2019C0.34241 1.8114 0 2.63805 0 3.5V12C0 12.5967 0.237053 13.169 0.65901 13.591C1.08097 14.0129 1.65326 14.25 2.25 14.25H2.5V6C2.5 5.13805 2.84241 4.3114 3.4519 3.7019C4.0614 3.09241 4.88805 2.75 5.75 2.75H17V2.5C17 2.20453 16.9418 1.91194 16.8287 1.63896C16.7157 1.36598 16.5499 1.11794 16.341 0.90901C16.1321 0.700078 15.884 0.534344 15.611 0.421271C15.3381 0.308198 15.0455 0.25 14.75 0.25H3.25Z" fill="#474747"/>
<path d="M17.7497 3.75H17.2537L17.1517 3.757C16.9634 3.7829 16.792 3.87929 16.6721 4.0267C16.5522 4.17411 16.4927 4.36154 16.5057 4.55112C16.5186 4.7407 16.603 4.9183 16.7419 5.04803C16.8807 5.17776 17.0637 5.24994 17.2537 5.25H17.7497L17.8517 5.257C18.0312 5.28165 18.1958 5.37048 18.3149 5.50707C18.434 5.64366 18.4997 5.81876 18.4997 6V7.004L18.5067 7.105C18.5326 7.29317 18.6289 7.4645 18.7762 7.58441C18.9235 7.70433 19.1108 7.76389 19.3003 7.75107C19.4898 7.73825 19.6674 7.654 19.7972 7.51534C19.927 7.37668 19.9994 7.19394 19.9997 7.004V6L19.9947 5.846C19.9557 5.27721 19.7022 4.74444 19.2854 4.35537C18.8687 3.9663 18.3198 3.74993 17.7497 3.75Z" fill="#474747"/>
<path d="M4.993 9.39972C4.9671 9.21147 4.87071 9.04007 4.7233 8.92016C4.57589 8.80024 4.38846 8.74075 4.19888 8.7537C4.0093 8.76665 3.8317 8.85108 3.70197 8.98993C3.57224 9.12878 3.50006 9.3117 3.5 9.50172V11.9957L3.507 12.0977C3.5329 12.286 3.62929 12.4574 3.7767 12.5773C3.92411 12.6972 4.11154 12.7567 4.30112 12.7437C4.4907 12.7308 4.6683 12.6464 4.79803 12.5075C4.92776 12.3687 4.99994 12.1857 5 11.9957V9.50172L4.993 9.39972Z" fill="#474747"/>
<path d="M4.25 13.7441C4.43124 13.7441 4.60634 13.8098 4.74293 13.9289C4.87952 14.048 4.96835 14.2126 4.993 14.3921L5 14.4941V15.4991C5 15.8791 5.282 16.1931 5.648 16.2421L5.75 16.2491H6.25C6.44002 16.2492 6.62294 16.3214 6.76179 16.4511C6.90064 16.5808 6.98507 16.7584 6.99803 16.948C7.01098 17.1376 6.95148 17.325 6.83157 17.4724C6.71165 17.6198 6.54025 17.7162 6.352 17.7421L6.25 17.7491H5.75C5.17987 17.7492 4.63098 17.5328 4.21425 17.1438C3.79751 16.7547 3.54402 16.2219 3.505 15.6531L3.5 15.4991V14.4941C3.5 14.2952 3.57902 14.1045 3.71967 13.9638C3.86032 13.8232 4.05109 13.7441 4.25 13.7441Z" fill="#474747"/>
<path d="M19.2501 13.7441C19.449 13.7441 19.6397 13.8232 19.7804 13.9638C19.9211 14.1045 20.0001 14.2952 20.0001 14.4941V15.4991C20.0001 16.0959 19.763 16.6682 19.3411 17.0901C18.9191 17.5121 18.3468 17.7491 17.7501 17.7491H16.7471C16.5482 17.7491 16.3574 17.6701 16.2167 17.5295C16.0761 17.3888 15.9971 17.1981 15.9971 16.9991C15.9971 16.8002 16.0761 16.6095 16.2167 16.4688C16.3574 16.3282 16.5482 16.2491 16.7471 16.2491H17.7501C17.949 16.2491 18.1397 16.1701 18.2804 16.0295C18.4211 15.8888 18.5001 15.6981 18.5001 15.4991V14.4941C18.5001 14.2952 18.5791 14.1045 18.7197 13.9638C18.8604 13.8232 19.0512 13.7441 19.2501 13.7441Z" fill="#474747"/>
<path d="M14.2477 16.25H12.7527L12.6507 16.257C12.4625 16.2829 12.2911 16.3793 12.1711 16.5267C12.0512 16.6741 11.9917 16.8615 12.0047 17.0511C12.0176 17.2407 12.1021 17.4183 12.2409 17.548C12.3798 17.6778 12.5627 17.7499 12.7527 17.75H14.2477L14.3497 17.743C14.538 17.7171 14.7094 17.6207 14.8293 17.4733C14.9492 17.3259 15.0087 17.1385 14.9957 16.9489C14.9828 16.7593 14.8983 16.5817 14.7595 16.452C14.6206 16.3222 14.4377 16.2501 14.2477 16.25Z" fill="#474747"/>
<path d="M8.74975 16.25H10.2457C10.4358 16.2501 10.6187 16.3222 10.7575 16.452C10.8964 16.5817 10.9808 16.7593 10.9938 16.9489C11.0067 17.1385 10.9472 17.3259 10.8273 17.4733C10.7074 17.6207 10.536 17.7171 10.3477 17.743L10.2457 17.75H8.75075C8.56072 17.7499 8.37781 17.6778 8.23896 17.548C8.1001 17.4183 8.01567 17.2407 8.00272 17.0511C7.98977 16.8615 8.04926 16.6741 8.16918 16.5267C8.2891 16.3793 8.4605 16.2829 8.64875 16.257L8.74975 16.25Z" fill="#474747"/>
<path d="M19.25 8.75C19.4314 8.75004 19.6066 8.81582 19.7432 8.93514C19.8798 9.05447 19.9686 9.21926 19.993 9.399L20 9.501V11.995C19.9999 12.185 19.9278 12.3679 19.798 12.5068C19.6683 12.6456 19.4907 12.7301 19.3011 12.743C19.1115 12.756 18.9241 12.6965 18.7767 12.5766C18.6293 12.4567 18.5329 12.2853 18.507 12.097L18.5 11.995V9.501C18.5 9.30209 18.579 9.11132 18.7197 8.97067C18.8603 8.83002 19.0511 8.751 19.25 8.751V8.75Z" fill="#474747"/>
<path d="M6.753 3.75C6.95191 3.75 7.14268 3.82902 7.28333 3.96967C7.42398 4.11032 7.503 4.30109 7.503 4.5C7.503 4.69891 7.42398 4.88968 7.28333 5.03033C7.14268 5.17098 6.95191 5.25 6.753 5.25H5.75C5.55109 5.25 5.36032 5.32902 5.21967 5.46967C5.07902 5.61032 5 5.80109 5 6V7.004C5 7.20291 4.92098 7.39368 4.78033 7.53433C4.63968 7.67498 4.44891 7.754 4.25 7.754C4.05109 7.754 3.86032 7.67498 3.71967 7.53433C3.57902 7.39368 3.5 7.20291 3.5 7.004V6C3.5 5.40326 3.73705 4.83097 4.15901 4.40901C4.58097 3.98705 5.15326 3.75 5.75 3.75H6.753Z" fill="#474747"/>
<path d="M14.7518 3.75H13.2488L13.1468 3.757C12.9585 3.78291 12.787 3.87938 12.6671 4.02689C12.5471 4.17441 12.4877 4.36196 12.5008 4.55162C12.5139 4.74128 12.5985 4.91889 12.7376 5.04854C12.8766 5.17819 13.0597 5.2502 13.2498 5.25H14.7528L14.8548 5.243C15.043 5.2171 15.2144 5.12071 15.3344 4.9733C15.4543 4.82589 15.5138 4.63846 15.5008 4.44888C15.4879 4.2593 15.4034 4.0817 15.2646 3.95197C15.1257 3.82224 14.9428 3.75006 14.7528 3.75H14.7518Z" fill="#474747"/>
<path d="M9.24977 3.75H10.7448C10.9348 3.75006 11.1177 3.82224 11.2566 3.95197C11.3954 4.0817 11.4798 4.2593 11.4928 4.44888C11.5057 4.63846 11.4463 4.82589 11.3263 4.9733C11.2064 5.12071 11.035 5.2171 10.8468 5.243L10.7448 5.25H9.24977C9.05975 5.24994 8.87683 5.17776 8.73798 5.04803C8.59913 4.9183 8.5147 4.7407 8.50175 4.55112C8.48879 4.36154 8.54829 4.17411 8.6682 4.0267C8.78812 3.87929 8.95952 3.7829 9.14777 3.757L9.24977 3.75Z" fill="#474747"/>
</svg>
