<svg width="22" height="18" viewBox="0 0 22 18" fill="none" xmlns="http://www.w3.org/2000/svg">
<path d="M1.39933 17.7521C1.3203 17.7525 1.24173 17.7398 1.16683 17.7146C1.0102 17.6637 0.874656 17.5627 0.781128 17.4272C0.687599 17.2916 0.641285 17.1291 0.649334 16.9646C0.649334 16.8521 1.42183 5.96206 12.3418 5.10706V1.19206C12.3417 1.04295 12.386 0.897191 12.4691 0.773389C12.5522 0.649588 12.6704 0.553369 12.8084 0.497021C12.9465 0.440673 13.0982 0.426754 13.2442 0.457042C13.3902 0.48733 13.5238 0.56045 13.6281 0.667064L21.0306 8.22706C21.168 8.36726 21.245 8.55575 21.245 8.75206C21.245 8.94838 21.168 9.13687 21.0306 9.27706L13.6281 16.8371C13.5238 16.9437 13.3902 17.0168 13.2442 17.0471C13.0982 17.0774 12.9465 17.0635 12.8084 17.0071C12.6704 16.9508 12.5522 16.8545 12.4691 16.7307C12.386 16.6069 12.3417 16.4612 12.3418 16.3121V12.4721C5.05183 12.7496 2.06308 17.3471 2.03308 17.4033C1.96542 17.5102 1.87184 17.5982 1.76103 17.6591C1.65023 17.7201 1.52581 17.7521 1.39933 17.7521ZM13.8418 3.02956V5.80831C13.842 6.00276 13.7665 6.18965 13.6315 6.32957C13.4965 6.4695 13.3124 6.55151 13.1181 6.55831C6.05308 6.81706 3.52558 11.5233 2.61808 14.5496C4.49308 12.9296 7.83433 10.9496 13.0468 10.9496H13.0806C13.2795 10.9496 13.4703 11.0286 13.6109 11.1692C13.7516 11.3099 13.8306 11.5007 13.8306 11.6996V14.4783L19.4556 8.75581L13.8418 3.02956Z" fill="#666666"/>
</svg>
