<svg width="18" height="15" viewBox="0 0 18 15" fill="none" xmlns="http://www.w3.org/2000/svg">
<path d="M0.990982 14.8103C0.925116 14.8107 0.859648 14.8001 0.797232 14.7791C0.666702 14.7367 0.55375 14.6525 0.47581 14.5396C0.397869 14.4266 0.359274 14.2911 0.365982 14.1541C0.365982 14.0603 1.00973 4.98531 10.1097 4.27281V1.01031C10.1096 0.886056 10.1466 0.764586 10.2158 0.661418C10.2851 0.55825 10.3835 0.478068 10.4985 0.431111C10.6136 0.384154 10.74 0.372556 10.8617 0.397796C10.9834 0.423036 11.0947 0.483969 11.1816 0.572813L17.3504 6.87281C17.4649 6.98964 17.529 7.14672 17.529 7.31031C17.529 7.47391 17.4649 7.63098 17.3504 7.74781L11.1816 14.0478C11.0947 14.1367 10.9834 14.1976 10.8617 14.2228C10.74 14.2481 10.6136 14.2365 10.4985 14.1895C10.3835 14.1426 10.2851 14.0624 10.2158 13.9592C10.1466 13.856 10.1096 13.7346 10.1097 13.6103V10.4103C4.03473 10.6416 1.54411 14.4728 1.51911 14.5197C1.46272 14.6087 1.38473 14.6821 1.2924 14.7329C1.20006 14.7837 1.09638 14.8103 0.990982 14.8103Z" fill="#474747"/>
</svg>
