<svg width="23" height="22" viewBox="0 0 23 22" fill="none" xmlns="http://www.w3.org/2000/svg">
<path d="M3.14727 21.5484H4.24727V7.24844H3.14727C2.56379 7.24844 2.00421 7.48022 1.59163 7.8928C1.17905 8.30538 0.947266 8.86496 0.947266 9.44844V19.3484C0.947266 19.9319 1.17905 20.4915 1.59163 20.9041C2.00421 21.3167 2.56379 21.5484 3.14727 21.5484ZM20.7473 7.24844H13.0473L14.2815 3.54364C14.3916 3.21299 14.4216 2.86092 14.369 2.51641C14.3164 2.1719 14.1827 1.84481 13.9789 1.56209C13.7752 1.27937 13.5072 1.0491 13.197 0.890257C12.8868 0.73141 12.5433 0.648528 12.1948 0.648438H11.9473L6.44727 6.63024V21.5484H18.5473L22.8505 12.0928L22.9473 11.6484V9.44844C22.9473 8.86496 22.7155 8.30538 22.3029 7.8928C21.8903 7.48022 21.3307 7.24844 20.7473 7.24844Z" fill="#4C5BD4"/>
</svg>
