<svg width="25" height="25" viewBox="0 0 25 25" fill="none" xmlns="http://www.w3.org/2000/svg">
<path d="M5.14727 0.597656C2.81927 0.597656 0.947266 2.46966 0.947266 4.79766V20.3977C0.947266 22.7257 2.81927 24.5977 5.14727 24.5977H17.7473L24.9473 17.3977V4.79766C24.9473 2.46966 23.0753 0.597656 20.7473 0.597656H5.14727ZM5.44727 2.99766H20.4473C21.0042 2.99766 21.5384 3.21891 21.9322 3.61273C22.326 4.00656 22.5473 4.5407 22.5473 5.09766V16.1977H20.7473C18.4193 16.1977 16.5473 18.0697 16.5473 20.3977V22.1977H5.44727C4.89031 22.1977 4.35617 21.9764 3.96234 21.5826C3.56852 21.1888 3.34727 20.6546 3.34727 20.0977V5.09766C3.34727 4.5407 3.56852 4.00656 3.96234 3.61273C4.35617 3.21891 4.89031 2.99766 5.44727 2.99766ZM15.8753 6.32166C15.6833 6.32166 15.4913 6.34566 15.3113 6.39366C14.1833 6.70566 13.5473 7.85766 13.8353 8.99766C13.8953 9.17766 13.9793 9.35766 14.0873 9.52566L17.9633 8.46966C17.9633 8.26566 17.9393 8.06166 17.8913 7.85766C17.6393 6.95766 16.8113 6.32166 15.8753 6.32166ZM8.35127 8.39766C8.14727 8.39766 7.96727 8.39766 7.78727 8.45766C6.67127 8.76966 6.01127 9.92166 6.31127 11.0377C6.34727 11.2297 6.45527 11.3977 6.56327 11.5897L10.4393 10.5337C10.4393 10.3297 10.4153 10.1257 10.3673 9.93366C10.2499 9.48991 9.9879 9.09796 9.62279 8.81978C9.25768 8.5416 8.81025 8.39306 8.35127 8.39766ZM18.6113 11.7097L7.65527 14.7217C8.43332 15.622 9.44978 16.2844 10.5877 16.6325C11.7256 16.9807 12.9386 17.0005 14.0873 16.6897C15.2334 16.369 16.2658 15.7317 17.066 14.8508C17.8662 13.9699 18.4018 12.8812 18.6113 11.7097Z" fill="#666666"/>
</svg>
