<svg width="27" height="25" viewBox="0 0 27 25" fill="none" xmlns="http://www.w3.org/2000/svg">
<path d="M16.833 12.376C16.6842 12.5247 16.4892 12.5991 16.2942 12.5991C16.0994 12.5991 15.9044 12.5247 15.7557 12.376C15.4583 12.0786 15.4583 11.5962 15.7557 11.2988L18.0381 9.01644C17.531 8.70183 16.9336 8.51953 16.2942 8.51953C14.4649 8.51953 12.9766 10.0081 12.9766 11.8374C12.9766 13.6667 14.4649 15.1551 16.2942 15.1551C18.1238 15.1551 19.6119 13.6667 19.6119 11.8374C19.6119 11.1981 19.4298 10.6008 19.1152 10.0938L16.833 12.376Z" fill="white"/>
<path d="M23.7381 0.597656H4.15663C2.387 0.597656 0.947266 2.0374 0.947266 3.80702V20.9409C0.947266 22.448 1.99186 23.7152 3.3949 24.058C8.18186 24.2044 6.81896 24.151 8.18186 24.1502C8.89709 24.1498 8.56451 23.9572 8.56451 23.9572C8.56451 23.9572 7.47271 23.9064 7.7774 24.1502H8.18186H19.7127C24.4592 24.1349 23.1795 24.0582 24.4996 24.0582C25.1394 24.0582 23.926 22.7385 23.926 22.7385C23.926 22.7385 22.8088 23.4809 24.4996 24.0582C25.9027 23.7152 26.9473 22.448 26.9473 20.9409V3.80702C26.9475 2.0374 25.5077 0.597656 23.7381 0.597656ZM23.684 18.9011C23.684 19.9958 22.7931 20.8865 21.6983 20.8865H7.0123C5.91732 20.8865 5.02666 19.9958 5.02666 18.9011V17.623H4.15663C3.73589 17.623 3.3949 17.282 3.3949 16.8613C3.3949 16.4405 3.73589 16.0995 4.15663 16.0995H5.02666V8.64813H4.15663C3.73589 8.64813 3.3949 8.30714 3.3949 7.88641C3.3949 7.46587 3.73589 7.12468 4.15663 7.12468H5.02666V5.84681C5.02666 4.75183 5.91732 3.86117 7.0123 3.86117H21.6983C22.7931 3.86117 23.684 4.75183 23.684 5.84681V18.9011Z" fill="white"/>
<path d="M21.5974 5.26953H6.91141C6.65651 5.26953 6.44922 5.47702 6.44922 5.73172V7.00979H7.31925C7.73998 7.00979 8.08098 7.35079 8.08098 7.77152C8.08098 8.19205 7.73998 8.53324 7.31925 8.53324H6.44922V15.9845H7.31925C7.73998 15.9845 8.08098 16.3256 8.08098 16.7462C8.08098 17.1669 7.73998 17.5079 7.31925 17.5079H6.44922V18.786C6.44922 19.0409 6.65651 19.2482 6.91141 19.2482H21.5974C21.8523 19.2482 22.0596 19.0407 22.0596 18.786V5.73172C22.0596 5.47682 21.8523 5.26953 21.5974 5.26953ZM16.2941 16.692C13.6247 16.692 11.453 14.5203 11.453 11.8509C11.453 9.1815 13.6247 7.00979 16.2941 7.00979C17.6136 7.00979 18.8112 7.54042 19.6852 8.39954C19.6959 8.40907 19.7068 8.41799 19.7169 8.42811C19.727 8.43823 19.7362 8.44914 19.7455 8.45985C20.6046 9.33385 21.1354 10.5316 21.1354 11.8509C21.1352 14.5203 18.9635 16.692 16.2941 16.692Z" fill="white"/>
</svg>
