<svg width="27" height="24" viewBox="0 0 27 24" fill="none" xmlns="http://www.w3.org/2000/svg">
<path d="M25.8231 4.38982C25.0983 3.9321 24.1339 3.67987 23.1084 3.67987H4.61269C4.27542 3.67987 3.96997 3.59358 3.74915 3.45392C3.5277 3.31466 3.39088 3.12202 3.39088 2.90931C3.39088 2.48391 3.93815 2.13876 4.61269 2.13876H24.4165C25.092 2.13876 25.6383 1.79362 25.6383 1.36821C25.6383 0.9428 25.092 0.597656 24.4165 0.597656H4.7861C3.7606 0.597656 2.7962 0.849892 2.07298 1.30661C1.34722 1.76372 0.947266 2.37193 0.947266 3.01868V22.8271C0.947266 23.2529 1.49453 23.5977 2.16907 23.5977H23.1084C24.1339 23.5977 25.0983 23.3458 25.8225 22.8887C26.5473 22.4316 26.9473 21.8238 26.9473 21.1766V6.10089C26.9473 5.45415 26.5473 4.84593 25.8231 4.38982ZM19.0952 15.3989C19.0952 16.0462 18.6953 16.6545 17.9695 17.1112C17.2463 17.5683 16.2819 17.8205 15.2564 17.8205H15.1692V18.7004C15.1692 19.1258 14.6216 19.471 13.9474 19.471C13.2729 19.471 12.7256 19.1258 12.7256 18.7004V17.8205H10.0211C9.34687 17.8205 8.79929 17.4754 8.79929 17.05C8.79929 16.6242 9.34687 16.2794 10.0211 16.2794H10.1083V11.2174H10.0211C9.34687 11.2174 8.79929 10.8727 8.79929 10.4469C8.79929 10.0215 9.34687 9.67633 10.0211 9.67633H12.7256V8.79642C12.7256 8.37101 13.2729 8.02587 13.9474 8.02587C14.6216 8.02587 15.1692 8.37101 15.1692 8.79642V9.67633H15.2564C16.2819 9.67633 17.2463 9.92857 17.9711 10.3863C18.6953 10.8424 19.0952 11.4506 19.0952 12.098C19.0952 12.7349 18.7026 13.3158 18.0624 13.7484C18.7026 14.1811 19.0952 14.762 19.0952 15.3989Z" fill="white"/>
<rect x="5.94727" y="7.59766" width="16" height="14" fill="white"/>
<path d="M12.1616 19.4548H14.733H12.1616ZM8.94727 11.0977C8.94727 9.90418 9.42137 8.75959 10.2653 7.91568C11.1092 7.07176 12.2538 6.59766 13.4473 6.59766C14.6407 6.59766 15.7853 7.07176 16.6292 7.91568C17.4732 8.75959 17.9473 9.90418 17.9473 11.0977C17.9477 11.8222 17.7725 12.5361 17.4366 13.178C17.1007 13.82 16.6142 14.371 16.0187 14.7838L15.6703 16.4334C15.6241 16.7374 15.4706 17.0149 15.2374 17.2154C15.0042 17.4159 14.7069 17.5262 14.3993 17.5262H12.4952C12.1877 17.5262 11.8903 17.4159 11.6572 17.2154C11.424 17.0149 11.2704 16.7374 11.2243 16.4334L10.8758 14.7909C10.2802 14.3766 9.79363 13.8243 9.45779 13.1812C9.12195 12.5381 8.94679 11.8232 8.94727 11.0977V11.0977Z" stroke="#4C5BD4" stroke-width="1.5" stroke-linecap="round" stroke-linejoin="round"/>
<path d="M10.877 13.9551H16.0198" stroke="#4C5BD4" stroke-width="1.8" stroke-linecap="round" stroke-linejoin="round"/>
</svg>
