<svg width="27" height="26" viewBox="0 0 27 26" fill="none" xmlns="http://www.w3.org/2000/svg">
<path d="M26.5097 11.5766L14.8452 0.948048C14.3324 0.480859 13.5605 0.480859 13.0476 0.948048L1.38312 11.5766C0.971792 11.9524 0.839761 12.5262 1.03781 13.0442C1.23585 13.5621 1.72843 13.8973 2.28195 13.8973H4.14562V24.5462C4.14562 24.9676 4.48586 25.313 4.91242 25.313H11.3058C11.7273 25.313 12.0726 24.9727 12.0726 24.5462V18.0817H15.8304V24.5462C15.8304 24.9676 16.1706 25.313 16.5972 25.313H22.9855C23.407 25.313 23.7523 24.9727 23.7523 24.5462V13.8973H25.616C26.1695 13.8973 26.657 13.5621 26.8601 13.0442C27.0531 12.5262 26.921 11.9524 26.5097 11.5766Z" fill="white"/>
</svg>
