<svg width="27" height="25" viewBox="0 0 27 25" fill="none" xmlns="http://www.w3.org/2000/svg">
<path d="M23.7381 0.597656H4.15663C2.387 0.597656 0.947266 2.0374 0.947266 3.80702V20.9409C0.947266 22.448 1.99186 23.7152 3.3949 24.058C8.18186 24.2044 6.81896 24.151 8.18186 24.1502C8.89709 24.1498 8.56451 23.9572 8.56451 23.9572C8.56451 23.9572 7.47271 23.9064 7.7774 24.1502H8.18186H19.7127C24.4592 24.1349 23.1795 24.0582 24.4996 24.0582C25.1394 24.0582 23.926 22.7385 23.926 22.7385C23.926 22.7385 22.8088 23.4809 24.4996 24.0582C25.9027 23.7152 26.9473 22.448 26.9473 20.9409V3.80702C26.9475 2.0374 25.5077 0.597656 23.7381 0.597656ZM23.684 18.9011C23.684 19.9958 22.7931 20.8865 21.6983 20.8865H7.0123C5.91732 20.8865 5.02666 19.9958 5.02666 18.9011V17.623H4.15663C3.73589 17.623 3.3949 17.282 3.3949 16.8613C3.3949 16.4405 3.73589 16.0995 4.15663 16.0995H5.02666V8.64813H4.15663C3.73589 8.64813 3.3949 8.30714 3.3949 7.88641C3.3949 7.46587 3.73589 7.12468 4.15663 7.12468H5.02666V5.84681C5.02666 4.75183 5.91732 3.86117 7.0123 3.86117H21.6983C22.7931 3.86117 23.684 4.75183 23.684 5.84681V18.9011Z" fill="white"/>
<rect x="2.94727" y="2.59766" width="23" height="20" fill="white"/>
<path d="M13.9473 18.5977C17.261 18.5977 19.9473 15.9114 19.9473 12.5977C19.9473 9.28395 17.261 6.59766 13.9473 6.59766C10.6336 6.59766 7.94727 9.28395 7.94727 12.5977C7.94727 15.9114 10.6336 18.5977 13.9473 18.5977Z" stroke="#4C5BD4" stroke-width="1.5" stroke-linecap="round" stroke-linejoin="round"/>
<path d="M11.5477 12.5977C11.5477 15.9114 12.6222 18.5977 13.9477 18.5977C15.2731 18.5977 16.3477 15.9114 16.3477 12.5977C16.3477 9.28395 15.2731 6.59766 13.9477 6.59766C12.6222 6.59766 11.5477 9.28395 11.5477 12.5977Z" stroke="#4C5BD4" stroke-width="1.5" stroke-linecap="round" stroke-linejoin="round"/>
<path d="M7.94727 12.5977H19.9473" stroke="#4C5BD4" stroke-width="1.5" stroke-linecap="round" stroke-linejoin="round"/>
</svg>
