<svg width="27" height="24" viewBox="0 0 27 24" fill="none" xmlns="http://www.w3.org/2000/svg">
<path d="M26.2508 7.28516C26.6339 7.28516 26.9473 7.04258 26.9473 6.74609V4.94922C26.9473 4.65273 26.6339 4.41016 26.2508 4.41016H25.0901V2.25391C25.0901 1.06348 23.8424 0.0976562 22.3044 0.0976562H3.73298C2.19503 0.0976562 0.947266 1.06348 0.947266 2.25391V20.9414C0.947266 22.1318 2.19503 23.0977 3.73298 23.0977H22.3044C23.8424 23.0977 25.0901 22.1318 25.0901 20.9414V18.7852H26.2508C26.6339 18.7852 26.9473 18.5426 26.9473 18.2461V16.4492C26.9473 16.1527 26.6339 15.9102 26.2508 15.9102H25.0901V13.0352H26.2508C26.6339 13.0352 26.9473 12.7926 26.9473 12.4961V10.6992C26.9473 10.4027 26.6339 10.1602 26.2508 10.1602H25.0901V7.28516H26.2508ZM13.0187 5.84766C15.0674 5.84766 16.733 7.13691 16.733 8.72266C16.733 10.3084 15.0674 11.5977 13.0187 11.5977C10.97 11.5977 9.30441 10.3084 9.30441 8.72266C9.30441 7.13691 10.97 5.84766 13.0187 5.84766ZM19.5187 16.4852C19.5187 16.9613 18.9383 17.3477 18.2187 17.3477H7.81869C7.09905 17.3477 6.51869 16.9613 6.51869 16.4852V15.6227C6.51869 14.1941 8.26557 13.0352 10.4187 13.0352H10.7089C11.4227 13.2643 12.2004 13.3945 13.0187 13.3945C13.837 13.3945 14.6205 13.2643 15.3285 13.0352H15.6187C17.7718 13.0352 19.5187 14.1941 19.5187 15.6227V16.4852Z" fill="white"/>
<rect x="4.94727" y="1.09766" width="15" height="20" fill="white"/>
<path d="M19.7447 12.6699C19.4165 12.4711 19.0375 12.3725 18.654 12.3862C18.2706 12.3999 17.8996 12.5254 17.5865 12.7472C17.5252 12.7912 17.4525 12.8166 17.3771 12.8205C17.3018 12.8243 17.2269 12.8065 17.1614 12.769L15.2058 11.6407C15.1985 11.6363 15.1924 11.63 15.1882 11.6225C15.1839 11.615 15.1817 11.6066 15.1817 11.598C15.1817 11.5894 15.1839 11.581 15.1882 11.5735C15.1924 11.566 15.1985 11.5597 15.2058 11.5553L17.1508 10.4332C17.2166 10.3954 17.2918 10.3775 17.3676 10.3815C17.4433 10.3854 17.5163 10.4112 17.5778 10.4556C17.8904 10.6799 18.2619 10.8076 18.6464 10.823C19.0308 10.8384 19.4113 10.7408 19.7409 10.5423C20.1703 10.2772 20.4831 9.859 20.6159 9.37215C20.7488 8.88531 20.6918 8.36618 20.4566 7.91974C20.2412 7.52175 19.8954 7.21008 19.4772 7.03718C19.0591 6.86429 18.5941 6.84074 18.1606 6.97048C17.7271 7.10022 17.3515 7.37534 17.0971 7.74954C16.8427 8.12373 16.7249 8.57415 16.7637 9.02499C16.7707 9.09989 16.7562 9.17524 16.7219 9.24217C16.6875 9.3091 16.6347 9.36482 16.5698 9.40276L14.6149 10.5317C14.6074 10.5357 14.599 10.5378 14.5905 10.5377C14.582 10.5376 14.5736 10.5353 14.5663 10.531C14.5589 10.5268 14.5527 10.5207 14.5484 10.5134C14.544 10.5061 14.5416 10.4978 14.5413 10.4893V8.23143C14.5417 8.15593 14.5637 8.08212 14.6048 8.0188C14.6459 7.95547 14.7044 7.90529 14.7732 7.87423C15.181 7.68658 15.5125 7.36516 15.7126 6.96328C15.9127 6.56139 15.9694 6.10319 15.8734 5.66464C15.7773 5.22609 15.5343 4.83354 15.1845 4.55209C14.8347 4.27064 14.3993 4.11719 13.9503 4.11719C13.5014 4.11719 13.0659 4.27064 12.7162 4.55209C12.3664 4.83354 12.1233 5.22609 12.0273 5.66464C11.9312 6.10319 11.988 6.56139 12.1881 6.96328C12.3882 7.36516 12.7196 7.68658 13.1275 7.87423C13.1964 7.9052 13.255 7.95534 13.2962 8.01867C13.3374 8.08201 13.3596 8.15586 13.36 8.23143V10.4893C13.3598 10.4979 13.3574 10.5063 13.353 10.5137C13.3486 10.5211 13.3424 10.5272 13.3349 10.5315C13.3274 10.5357 13.319 10.538 13.3104 10.538C13.3018 10.5381 13.2933 10.5359 13.2858 10.5317L11.3315 9.40338C11.2666 9.36555 11.2139 9.30994 11.1795 9.24312C11.1452 9.17629 11.1306 9.10104 11.1377 9.02624C11.1764 8.57914 11.0612 8.13223 10.8111 7.75959C10.561 7.38696 10.1911 7.11099 9.76267 6.97743C9.33423 6.84388 8.87301 6.86077 8.45549 7.0253C8.03796 7.18983 7.68921 7.49211 7.46705 7.88204C7.24489 8.27197 7.16267 8.72611 7.23402 9.16917C7.30537 9.61224 7.52601 10.0176 7.85935 10.3181C8.19269 10.6185 8.61871 10.7961 9.06678 10.8212C9.51484 10.8463 9.95804 10.7176 10.3229 10.4563C10.3844 10.4114 10.4575 10.3854 10.5335 10.3812C10.6095 10.377 10.6851 10.3948 10.7512 10.4326L12.6961 11.5547C12.7035 11.5591 12.7095 11.5654 12.7138 11.5728C12.718 11.5803 12.7202 11.5888 12.7202 11.5974C12.7202 11.606 12.718 11.6144 12.7138 11.6219C12.7095 11.6294 12.7035 11.6356 12.6961 11.6401L10.7393 12.7696C10.6737 12.8072 10.5987 12.8252 10.5232 12.8213C10.4477 12.8174 10.3749 12.7919 10.3135 12.7478C10.0005 12.5262 9.62962 12.4008 9.24633 12.387C8.86304 12.3733 8.48409 12.4718 8.15603 12.6705C7.72793 12.936 7.41639 13.3539 7.28417 13.84C7.15195 14.3261 7.20888 14.8442 7.44351 15.29C7.6594 15.6888 8.00638 16.001 8.42581 16.1736C8.84524 16.3463 9.31141 16.3688 9.74555 16.2375C10.1797 16.1062 10.5552 15.829 10.8086 15.4528C11.062 15.0767 11.1778 14.6245 11.1364 14.1729C11.1288 14.0976 11.143 14.0218 11.1772 13.9544C11.2115 13.887 11.2644 13.8308 11.3297 13.7926L13.2852 12.6643C13.2927 12.6601 13.3012 12.6579 13.3098 12.6579C13.3184 12.658 13.3268 12.6602 13.3343 12.6645C13.3417 12.6688 13.348 12.6749 13.3524 12.6823C13.3568 12.6897 13.3592 12.6981 13.3594 12.7067V14.9639C13.359 15.0394 13.337 15.1132 13.2959 15.1766C13.2547 15.2399 13.1963 15.2901 13.1275 15.3211C12.7196 15.5088 12.3882 15.8302 12.1881 16.2321C11.988 16.634 11.9312 17.0922 12.0273 17.5307C12.1233 17.9693 12.3664 18.3618 12.7162 18.6433C13.0659 18.9247 13.5014 19.0782 13.9503 19.0782C14.3993 19.0782 14.8347 18.9247 15.1845 18.6433C15.5343 18.3618 15.7773 17.9693 15.8734 17.5307C15.9694 17.0922 15.9127 16.634 15.7126 16.2321C15.5125 15.8302 15.181 15.5088 14.7732 15.3211C14.7043 15.2901 14.6458 15.2399 14.6046 15.1766C14.5634 15.1133 14.5412 15.0395 14.5407 14.9639V12.7067C14.5408 12.6981 14.5432 12.6897 14.5475 12.6823C14.5518 12.675 14.558 12.6688 14.5654 12.6645C14.5728 12.6602 14.5811 12.6578 14.5897 12.6577C14.5983 12.6575 14.6067 12.6596 14.6142 12.6637L16.5698 13.7932C16.635 13.8313 16.688 13.8873 16.7222 13.9546C16.7565 14.0219 16.7707 14.0977 16.763 14.1729C16.7216 14.6245 16.8374 15.0767 17.0908 15.4528C17.3442 15.829 17.7197 16.1062 18.1539 16.2375C18.588 16.3688 19.0542 16.3463 19.4736 16.1736C19.8931 16.001 20.24 15.6888 20.4559 15.29C20.6908 14.8443 20.7481 14.3261 20.6161 13.8399C20.4841 13.3537 20.1727 12.9356 19.7447 12.6699Z" fill="#4C5BD4"/>
</svg>
