<svg width="20" height="21" viewBox="0 0 20 21" fill="none" xmlns="http://www.w3.org/2000/svg">
<path d="M5.625 18.1738C5.45924 18.1738 5.30027 18.108 5.18306 17.9908C5.06585 17.8736 5 17.7146 5 17.5488V15.0488H4.0625C3.31683 15.048 2.60194 14.7514 2.07468 14.2242C1.54741 13.6969 1.25083 12.982 1.25 12.2363V4.73633C1.25083 3.99066 1.54741 3.27577 2.07468 2.7485C2.60194 2.22124 3.31683 1.92466 4.0625 1.92383H15.9375C16.6832 1.92466 17.3981 2.22124 17.9253 2.7485C18.4526 3.27577 18.7492 3.99066 18.75 4.73633V12.2363C18.7492 12.982 18.4526 13.6969 17.9253 14.2242C17.3981 14.7514 16.6832 15.048 15.9375 15.0488H9.59922L6.02539 18.0289C5.91292 18.1224 5.77128 18.1737 5.625 18.1738Z" fill="#474747"/>
</svg>
