<svg width="25" height="24" viewBox="0 0 25 24" fill="none" xmlns="http://www.w3.org/2000/svg">
<path d="M21.0176 6H20.0176V5C20.0176 4.73479 19.9122 4.48043 19.7247 4.2929C19.5371 4.10536 19.2828 4 19.0176 4C18.7524 4 18.498 4.10536 18.3105 4.2929C18.1229 4.48043 18.0176 4.73479 18.0176 5V6H17.0176C16.7524 6 16.498 6.10536 16.3105 6.2929C16.1229 6.48043 16.0176 6.73479 16.0176 7C16.0176 7.26522 16.1229 7.51957 16.3105 7.70711C16.498 7.89464 16.7524 8 17.0176 8H18.0176V9C18.0176 9.26522 18.1229 9.51957 18.3105 9.70711C18.498 9.89464 18.7524 10 19.0176 10C19.2828 10 19.5371 9.89464 19.7247 9.70711C19.9122 9.51957 20.0176 9.26522 20.0176 9V8H21.0176C21.2828 8 21.5371 7.89464 21.7247 7.70711C21.9122 7.51957 22.0176 7.26522 22.0176 7C22.0176 6.73479 21.9122 6.48043 21.7247 6.2929C21.5371 6.10536 21.2828 6 21.0176 6ZM10.0176 11C10.8087 11 11.5821 10.7654 12.2399 10.3259C12.8977 9.88635 13.4103 9.26164 13.7131 8.53074C14.0158 7.79983 14.0951 6.99556 13.9407 6.21964C13.7864 5.44372 13.4054 4.73098 12.846 4.17157C12.2866 3.61216 11.5739 3.2312 10.7979 3.07686C10.022 2.92252 9.21775 3.00173 8.48684 3.30448C7.75594 3.60723 7.13123 4.11992 6.6917 4.77772C6.25217 5.43552 6.01758 6.20888 6.01758 7C6.01758 8.06087 6.43901 9.07828 7.18915 9.82843C7.9393 10.5786 8.95671 11 10.0176 11ZM16.0176 21C16.2828 21 16.5371 20.8946 16.7247 20.7071C16.9122 20.5196 17.0176 20.2652 17.0176 20C17.0176 18.1435 16.2801 16.363 14.9673 15.0503C13.6546 13.7375 11.8741 13 10.0176 13C8.16106 13 6.38059 13.7375 5.06783 15.0503C3.75508 16.363 3.01758 18.1435 3.01758 20C3.01758 20.2652 3.12293 20.5196 3.31047 20.7071C3.49801 20.8946 3.75236 21 4.01758 21" fill="white"/>
</svg>
