<svg width="21" height="21" viewBox="0 0 21 21" fill="none" xmlns="http://www.w3.org/2000/svg">
<path fill-rule="evenodd" clip-rule="evenodd" d="M4.18392 17.4304H15.8506C16.0716 17.4304 16.2836 17.5182 16.4398 17.6745C16.5961 17.8308 16.6839 18.0427 16.6839 18.2638C16.6839 18.4848 16.5961 18.6967 16.4398 18.853C16.2836 19.0093 16.0716 19.0971 15.8506 19.0971H4.18392C3.96291 19.0971 3.75094 19.0093 3.59466 18.853C3.43838 18.6967 3.35059 18.4848 3.35059 18.2638C3.35059 18.0427 3.43838 17.8308 3.59466 17.6745C3.75094 17.5182 3.96291 17.4304 4.18392 17.4304ZM3.35059 13.2638L11.6839 4.93042L14.1839 7.43042L5.85059 15.7638H3.35059V13.2638ZM12.5173 4.09709L14.1839 2.43042L16.6839 4.93042L15.0164 6.59792L12.5173 4.09709Z" fill="#474747"/>
</svg>
