<svg width="31" height="31" viewBox="0 0 31 31" fill="none" xmlns="http://www.w3.org/2000/svg">
<path d="M30.313 14.1652L2.81297 0.415218C2.59743 0.307426 2.35533 0.264237 2.11581 0.290849C1.8763 0.317462 1.64958 0.412742 1.46297 0.565218C1.28475 0.714584 1.15172 0.910701 1.07885 1.13152C1.00598 1.35234 0.996151 1.58912 1.05047 1.81522L4.36297 14.0277H18.5005V16.5277H4.36297L1.00047 28.7027C0.949499 28.8915 0.94355 29.0897 0.983096 29.2812C1.02264 29.4728 1.10658 29.6523 1.22816 29.8055C1.34975 29.9587 1.50558 30.0813 1.68313 30.1633C1.86069 30.2453 2.05501 30.2845 2.25047 30.2777C2.44614 30.2765 2.63881 30.2294 2.81297 30.1402L30.313 16.3902C30.5177 16.2853 30.6896 16.126 30.8095 15.9297C30.9295 15.7334 30.993 15.5078 30.993 15.2777C30.993 15.0477 30.9295 14.8221 30.8095 14.6258C30.6896 14.4295 30.5177 14.2701 30.313 14.1652Z" fill="url(#paint0_linear_3_3649)"/>
<defs>
<linearGradient id="paint0_linear_3_3649" x1="15.9751" y1="0.283203" x2="15.9751" y2="30.2785" gradientUnits="userSpaceOnUse">
<stop stop-color="#4250C2"/>
<stop offset="1" stop-color="#00A1FF"/>
</linearGradient>
</defs>
</svg>
