<svg width="25" height="24" viewBox="0 0 25 24" fill="none" xmlns="http://www.w3.org/2000/svg">
<path d="M12.0175 22.7999C17.9822 22.7999 22.8175 17.9646 22.8175 12C22.8175 6.03528 17.9822 1.19995 12.0175 1.19995C6.05285 1.19995 1.21753 6.03528 1.21753 12C1.21753 17.9646 6.05285 22.7999 12.0175 22.7999Z" fill="#474747"/>
<path d="M12.0176 5.34229C8.36515 5.34229 5.4021 8.09973 5.4021 11.5103C5.4021 13.4453 6.36962 15.1748 7.86929 16.3116V18.6578L10.1188 17.4122C10.7235 17.5815 11.3524 17.6661 12.0176 17.6661C15.67 17.6661 18.633 14.9087 18.633 11.4982C18.633 8.09973 15.67 5.34229 12.0176 5.34229ZM12.6827 13.6388L10.9896 11.8368L7.69997 13.6388L11.3282 9.78081L13.0576 11.5828L16.2989 9.78081L12.6827 13.6388Z" fill="white"/>
</svg>
