<svg width="24" height="25" viewBox="0 0 24 25" fill="none" xmlns="http://www.w3.org/2000/svg">
<path fill-rule="evenodd" clip-rule="evenodd" d="M5.43614 16.2206C5.19519 16.186 4.93905 16.1666 4.66667 16.1666C2.66048 16.1666 1.54005 17.2252 1.11052 17.7527C1.04086 17.8433 1.00367 17.9544 1.00367 18.0691C1.00367 18.0722 1.00366 18.0754 1.00314 18.078C0.999998 18.2718 1 18.5285 1 18.7857C1 19.0748 1.23467 19.3095 1.52381 19.3095H5.28057C5.22138 19.1429 5.19048 18.9659 5.19048 18.7857C5.19048 18.1896 5.19048 17.4793 5.19257 17.0597C5.19257 16.7611 5.27795 16.4704 5.43614 16.2206ZM17.2381 19.3095H6.76191C6.6231 19.3095 6.48952 19.2545 6.39157 19.156C6.2931 19.058 6.2381 18.9245 6.2381 18.7857C6.2381 18.1911 6.23809 17.484 6.24019 17.0629C6.24019 17.0618 6.24019 17.0608 6.24019 17.0597C6.24019 16.9392 6.2821 16.823 6.35805 16.7297C7.0081 15.9875 8.97238 14.0714 12 14.0714C15.4268 14.0714 17.1475 15.9838 17.6739 16.7051C17.732 16.7936 17.7619 16.8937 17.7619 16.9958V18.7857C17.7619 18.9245 17.7069 19.058 17.6084 19.156C17.5105 19.2545 17.3769 19.3095 17.2381 19.3095ZM18.7194 19.3095H22.4762C22.7653 19.3095 23 19.0748 23 18.7857V18.0686C23 17.9528 22.9618 17.8407 22.8916 17.749C22.46 17.2252 21.339 16.1666 19.3333 16.1666C19.0751 16.1666 18.8315 16.1839 18.6021 16.2153C18.7378 16.4526 18.8095 16.7219 18.8095 16.9969V18.7857C18.8095 18.9659 18.7786 19.1429 18.7194 19.3095ZM4.66667 9.88091C3.22095 9.88091 2.04762 11.0542 2.04762 12.5C2.04762 13.9457 3.22095 15.119 4.66667 15.119C6.11238 15.119 7.28571 13.9457 7.28571 12.5C7.28571 11.0542 6.11238 9.88091 4.66667 9.88091ZM19.3333 9.88091C17.8876 9.88091 16.7143 11.0542 16.7143 12.5C16.7143 13.9457 17.8876 15.119 19.3333 15.119C20.779 15.119 21.9524 13.9457 21.9524 12.5C21.9524 11.0542 20.779 9.88091 19.3333 9.88091ZM12 5.69043C9.97652 5.69043 8.33333 7.33362 8.33333 9.3571C8.33333 11.3806 9.97652 13.0238 12 13.0238C14.0235 13.0238 15.6667 11.3806 15.6667 9.3571C15.6667 7.33362 14.0235 5.69043 12 5.69043Z" fill="#474747"/>
</svg>
