<svg width="31" height="31" viewBox="0 0 31 31" fill="none" xmlns="http://www.w3.org/2000/svg">
<path d="M26.9342 16.2367H3.10091C2.50508 16.2367 2.01758 15.7174 2.01758 15.0827C2.01758 14.448 2.50508 13.9287 3.10091 13.9287H26.9342C27.5301 13.9287 28.0176 14.448 28.0176 15.0827C28.0176 15.7174 27.5301 16.2367 26.9342 16.2367Z" fill="#4C5BD4" stroke="#4C5BD4"/>
<path d="M26.9342 7.38707H3.10091C2.50508 7.38707 2.01758 6.86778 2.01758 6.23309C2.01758 5.59839 2.50508 5.0791 3.10091 5.0791H26.9342C27.5301 5.0791 28.0176 5.59839 28.0176 6.23309C28.0176 6.86778 27.5301 7.38707 26.9342 7.38707Z" fill="#4C5BD4" stroke="#4C5BD4"/>
<path d="M26.9342 25.0792H3.10091C2.50508 25.0792 2.01758 24.5599 2.01758 23.9252C2.01758 23.2905 2.50508 22.7712 3.10091 22.7712H26.9342C27.5301 22.7712 28.0176 23.2905 28.0176 23.9252C28.0176 24.5599 27.5301 25.0792 26.9342 25.0792Z" fill="#4C5BD4" stroke="#4C5BD4"/>
</svg>
