<svg width="40" height="41" viewBox="0 0 40 41" fill="none" xmlns="http://www.w3.org/2000/svg">
<ellipse cx="20" cy="20.0957" rx="20" ry="20" fill="#CCCCCC"/>
<path d="M22.5937 12.2376C22.1836 11.8267 21.6273 11.5958 21.0473 11.5957H13.2038C12.6238 11.5957 12.0674 11.8265 11.6572 12.2374C11.247 12.6482 11.0166 13.2054 11.0166 13.7864V21.6425C11.0167 22.2234 11.2472 22.7806 11.6575 23.1913L20.4064 31.9543C20.8166 32.365 21.3728 32.5957 21.9528 32.5957C22.5328 32.5957 23.089 32.365 23.4992 31.9543L31.3427 24.0983C31.7527 23.6875 31.9831 23.1303 31.9831 22.5494C31.9831 21.9685 31.7527 21.4114 31.3427 21.0006L22.5937 12.2376ZM16.4847 19.2633C15.9045 19.2632 15.3481 19.0322 14.9379 18.6211C14.5277 18.2101 14.2973 17.6526 14.2975 17.0715C14.2976 16.4903 14.5283 15.933 14.9386 15.5222C15.349 15.1113 15.9056 14.8806 16.4858 14.8807C17.066 14.8809 17.6225 15.1119 18.0326 15.5229C18.4428 15.934 18.6732 16.4914 18.673 17.0726C18.6729 17.6537 18.4423 18.211 18.0319 18.6219C17.6215 19.0327 17.0649 19.2635 16.4847 19.2633Z" fill="#666666"/>
</svg>
