<svg width="21" height="21" viewBox="0 0 21 21" fill="none" xmlns="http://www.w3.org/2000/svg">
<path d="M5.89941 12.8271C5.89941 13.666 8.06501 14.1112 10.3888 14.1736L10.3877 14.1867V17.468C10.3877 18.0717 10.639 19.6555 10.9487 19.6555C11.2584 19.6555 11.5098 18.0717 11.5098 17.468V14.1867L11.5086 14.1736C13.8324 14.1112 15.998 13.666 15.998 12.8271C15.998 11.9368 15.1711 11.2871 13.7539 10.9371V5.27248C15.1711 4.80435 15.998 4.05074 15.998 3.5148C15.998 1.70242 5.89941 1.70242 5.89941 3.5148C5.89941 4.10434 6.72638 4.84154 8.14355 5.29217V10.9371C6.72638 11.2882 5.89941 11.9368 5.89941 12.8271Z" fill="#474747"/>
</svg>
