<svg width="24" height="25" viewBox="0 0 24 25" fill="none" xmlns="http://www.w3.org/2000/svg">
<path d="M5.94141 14.9016C5.94141 15.9083 8.54012 16.4425 11.3287 16.5174L11.3273 16.5331V20.4707C11.3273 21.1952 11.6289 23.0957 12.0006 23.0957C12.3722 23.0957 12.6738 21.1952 12.6738 20.4707V16.5331L12.6725 16.5174C15.461 16.4425 18.0597 15.9083 18.0597 14.9016C18.0597 13.8332 17.0674 13.0536 15.3668 12.6336V5.83606C17.0674 5.2743 18.0597 4.36997 18.0597 3.72684C18.0597 1.55199 5.94141 1.55199 5.94141 3.72684C5.94141 4.43429 6.93376 5.31893 8.63437 5.85968V12.6336C6.93376 13.0549 5.94141 13.8332 5.94141 14.9016Z" fill="#474747"/>
</svg>
