<svg width="24" height="25" viewBox="0 0 24 25" fill="none" xmlns="http://www.w3.org/2000/svg">
<g clip-path="url(#clip0_2_20754)">
<path d="M20.4325 1.89311C20.4323 1.85585 20.4304 1.81862 20.4268 1.78142C20.425 1.76338 20.4217 1.74592 20.4191 1.72808C20.4162 1.70788 20.4138 1.68768 20.4099 1.66767C20.406 1.64767 20.4005 1.62835 20.3955 1.60884C20.3911 1.59109 20.3871 1.57334 20.3819 1.55588C20.3762 1.53686 20.369 1.51852 20.3622 1.49989C20.356 1.48224 20.3502 1.46449 20.343 1.44713C20.3358 1.42978 20.3273 1.41321 20.3194 1.39614C20.311 1.37839 20.303 1.36025 20.2936 1.3428C20.285 1.32662 20.2752 1.31142 20.2658 1.29573C20.2555 1.27837 20.2456 1.26082 20.2345 1.24395C20.2231 1.22699 20.2104 1.2111 20.1982 1.19473C20.1874 1.18031 20.1774 1.1655 20.1658 1.15148C20.1428 1.1235 20.1185 1.0966 20.093 1.07088C20.0912 1.06911 20.0897 1.06715 20.0881 1.06539C20.0862 1.06352 20.0841 1.06205 20.0824 1.06029C20.0566 1.03479 20.0298 1.0105 20.0018 0.987427C19.988 0.97615 19.9736 0.966442 19.9596 0.955852C19.9429 0.943398 19.9267 0.930552 19.9093 0.918883C19.8927 0.907802 19.8756 0.89829 19.8586 0.888092C19.8425 0.878482 19.8269 0.86848 19.8104 0.859655C19.7934 0.850535 19.776 0.842886 19.7587 0.834747C19.7411 0.826412 19.7239 0.817685 19.7059 0.810232C19.6893 0.803368 19.6723 0.797877 19.6555 0.791797C19.6361 0.784737 19.617 0.777382 19.5971 0.7714C19.5806 0.766399 19.5637 0.762771 19.5471 0.758456C19.5265 0.753259 19.5063 0.747572 19.4854 0.743453C19.4668 0.739727 19.4478 0.73757 19.429 0.734824C19.4099 0.73198 19.391 0.72845 19.3714 0.726587C19.3388 0.72358 19.3061 0.721911 19.2734 0.721586C19.2675 0.721586 19.2618 0.720703 19.2559 0.720703H15.7258C15.4137 0.720703 15.1144 0.844679 14.8937 1.06536C14.673 1.28604 14.549 1.58534 14.549 1.89743C14.549 2.20951 14.673 2.50882 14.8937 2.7295C15.1144 2.95018 15.4137 3.07415 15.7258 3.07415H16.4151L14.9391 4.55006C14.0902 3.89423 13.1029 3.44055 12.0523 3.2235C11.0018 3.00645 9.91553 3.03174 8.8762 3.29744C7.83687 3.56314 6.87178 4.06226 6.05427 4.75688C5.23677 5.4515 4.58836 6.32333 4.15832 7.30612C3.72828 8.28891 3.52793 9.3568 3.5725 10.4286C3.61707 11.5005 3.90537 12.548 4.41551 13.4917C4.92565 14.4354 5.6442 15.2504 6.51654 15.8748C7.38889 16.4991 8.39209 16.9164 9.44989 17.0949V18.3716H7.48868C7.1766 18.3716 6.87729 18.4955 6.65661 18.7162C6.43593 18.9369 6.31196 19.2362 6.31196 19.5483C6.31196 19.8604 6.43593 20.1597 6.65661 20.3804C6.87729 20.601 7.1766 20.725 7.48868 20.725H9.44989V22.294C9.44989 22.6061 9.57387 22.9054 9.79454 23.126C10.0152 23.3467 10.3145 23.4707 10.6266 23.4707C10.9387 23.4707 11.238 23.3467 11.4587 23.126C11.6794 22.9054 11.8033 22.6061 11.8033 22.294V20.725H13.7645C14.0766 20.725 14.3759 20.601 14.5966 20.3804C14.8173 20.1597 14.9413 19.8604 14.9413 19.5483C14.9413 19.2362 14.8173 18.9369 14.5966 18.7162C14.3759 18.4955 14.0766 18.3716 13.7645 18.3716H11.8033V17.0949C12.9588 16.9006 14.0476 16.4216 14.9715 15.701C15.8954 14.9804 16.6252 14.041 17.095 12.9677C17.5649 11.8944 17.7599 10.7209 17.6626 9.55332C17.5652 8.38571 17.1786 7.26075 16.5375 6.28004L18.0792 4.73824V5.4276C18.0792 5.73969 18.2032 6.03899 18.4239 6.25967C18.6445 6.48035 18.9438 6.60432 19.2559 6.60432C19.568 6.60432 19.8673 6.48035 20.088 6.25967C20.3087 6.03899 20.4326 5.73969 20.4326 5.4276V1.89743L20.4325 1.89311Z" fill="#666666"/>
</g>
<defs>
<clipPath id="clip0_2_20754">
<rect width="24" height="24" fill="white" transform="translate(0 0.0957031)"/>
</clipPath>
</defs>
</svg>
