<svg width="20" height="20" viewBox="0 0 20 20" fill="none" xmlns="http://www.w3.org/2000/svg">
<path d="M10 1.33325C5.21673 1.33325 1.33337 5.21661 1.33337 9.99992C1.33337 14.7832 5.21673 18.6666 10 18.6666C14.7747 18.6666 18.6513 14.7971 18.6653 10.0256C18.6662 10.017 18.6667 10.0085 18.6667 9.99992C18.6667 9.99222 18.6664 9.98453 18.6657 9.97686C18.6532 5.20413 14.7757 1.33325 10 1.33325ZM10 1.85325C10.078 1.85325 10.1548 1.85672 10.2323 1.85897C10.3698 1.88861 10.4901 1.91964 10.5448 1.95448C10.7473 1.90231 10.796 1.89728 10.7851 1.89156C11.7699 1.98525 12.7293 2.25866 13.6156 2.69825C13.6153 2.72356 13.6156 2.74991 13.6198 2.78284C13.3112 2.85911 14.017 3.45069 13.7349 3.81851C13.6976 4.32585 13.0984 4.94205 12.8153 4.91189C13.1804 5.39722 13.1152 6.25314 12.4799 6.1852C12.0041 6.20201 11.7918 6.68041 11.4534 6.93504C11.6063 6.46738 11.1718 6.43601 11.2255 6.09177C10.9239 6.30532 10.9553 6.44191 10.6927 6.05936C10.9596 5.86314 10.5533 5.37902 10.4511 5.32789C10.2124 5.46222 9.96295 5.39289 10.3339 5.67629C9.39216 5.95536 10.726 6.59669 10.2025 7.20162C9.87836 7.96949 9.09871 8.40924 8.30189 8.50457C8.53243 9.03428 7.48411 9.32738 7.88849 8.67357C8.14035 8.16674 6.90015 8.89145 7.59868 9.18646C8.02057 9.53192 8.1504 10.4085 7.50699 10.5995C7.14299 11.0167 6.98179 10.791 6.72265 10.4215C6.43995 9.61234 5.92445 10.4589 6.32139 10.8947C6.87484 11.3322 6.88871 11.8527 7.07105 12.4167C6.92944 12.8109 8.05749 12.8975 7.5264 13.1014C6.81521 13.1152 8.00185 13.8432 8.14208 13.511C8.54109 13.7278 9.40568 13.6756 8.97287 13.8949C9.45161 13.9514 10.2734 14.0492 9.70485 13.4078C9.50084 13.0809 9.65493 12.4623 10.1131 12.2011C10.4961 12.6081 11.0879 11.6603 10.9405 12.302C10.6332 12.5464 10.4145 12.7703 10.9832 12.7906C11.2123 13.2924 11.8308 12.8435 11.7178 12.5034C12.0481 12.4103 12.7335 12.5179 13.0493 12.6379C13.5723 12.6374 14.4296 12.7519 14.6523 13.1163C14.8322 12.8979 15.416 13.0476 15.2498 12.6464C14.9421 12.5346 15.0985 12.1229 15.3758 12.5044C15.7518 12.5294 15.9818 13.161 16.4536 13.1537C16.8124 13.7902 16.0222 13.3806 16.1281 13.2276C15.8584 13.8429 15.7512 12.3883 15.481 12.9608C15.1837 13.1211 14.4918 13.59 15.0964 13.565C15.4928 13.42 15.0161 14.3745 14.5795 13.8814C14.0321 13.2683 13.6692 14.4388 14.1711 14.6038C14.1871 15.0146 14.5358 15.2592 14.6998 15.5984C15.1319 16.029 14.1496 16.7181 13.7985 17.0622C13.6303 17.1333 13.4587 17.3092 13.2965 17.4508C13.154 17.5139 13.01 17.5737 12.8635 17.6287C12.8098 17.6016 12.76 17.5465 12.7155 17.4493C12.2471 17.426 11.9459 17.0917 11.4027 17.0945C10.6753 17.1501 9.8144 17.6283 9.15799 17.2999C9.21241 16.8298 8.2154 16.0345 9.17879 15.8201C9.92707 15.8725 10.2853 15.2748 10.8216 14.9061C11.1858 14.7132 11.723 15.1339 11.7103 14.5478C11.7341 14.1873 12.8068 14.3641 12.9393 14.3877C12.7914 14.8597 12.6871 15.055 13.3143 15.008C13.4175 15.35 13.9311 13.9958 13.6432 13.9871C13.4024 13.7734 12.7144 14.0386 13.2497 13.6098C12.9987 13.013 12.0965 13.5723 12.0766 12.8714C11.5933 12.8194 12.5269 13.595 11.7899 13.2019C11.1454 13.4629 10.8279 12.8974 10.2793 12.9097C10.5691 13.1971 10.9182 13.8536 10.2821 13.6023C9.91979 13.0222 10.0255 13.7905 10.1585 13.9389C10.2417 13.5082 10.268 14.2261 10.6497 13.9017C10.9537 13.6392 11.9733 14.0334 11.2886 13.9641C11.3675 14.0157 10.0165 14.8773 10.4966 14.2067C10.5001 13.9987 9.82567 14.2767 10.2793 14.3688C9.79152 14.4482 9.23252 14.0457 8.64925 14.0618C7.98296 13.9866 7.26588 13.8968 6.81712 13.3522C6.47097 12.8506 5.93208 12.9606 5.85287 12.2685C5.73535 11.927 5.32923 11.4859 5.37256 11.129C5.84524 11.077 6.4734 12.273 6.15897 11.3212C5.82687 10.9096 5.72564 10.2844 5.90157 9.79105C5.95219 9.28977 5.74835 9.29566 5.42265 9.36309C5.33668 8.97222 5.42699 7.93084 4.68859 8.22776C4.2712 8.67496 3.52361 8.92525 3.50888 9.60056C3.31301 9.86524 3.90408 11.0642 3.32428 10.718C3.36259 10.2128 3.26795 10.3201 3.06029 10.3215C2.84831 9.58184 2.8594 8.77445 2.95092 8.03137C2.57253 7.67691 3.17937 7.21722 2.47772 7.1257C2.31877 6.80937 2.35084 7.78662 2.07784 8.10157C2.93237 4.51687 6.15169 1.85325 10 1.85325ZM12.9282 2.66203C12.911 2.66031 12.8937 2.66089 12.8767 2.66376C12.7987 2.67728 12.7491 2.74349 12.816 2.86916C12.3518 2.67503 11.1683 3.12344 12.1568 3.37495C12.1196 3.1172 13.0608 4.08804 12.6342 4.00033C12.828 4.24698 12.8597 4.33955 12.7033 4.32273C12.7746 4.4822 12.9767 4.53593 13.1297 4.46989C13.9149 4.15477 13.5301 3.43232 13.0913 3.00592C13.1994 2.79567 13.0533 2.67399 12.9282 2.66203ZM14.896 3.48675C14.9376 3.51795 14.9775 3.55122 15.0186 3.58312C14.8737 3.56353 14.865 3.53095 14.896 3.48675ZM12.2891 3.68209C12.2686 3.67498 12.2749 3.75333 12.3289 3.96913C12.2912 4.60977 11.7379 4.77998 11.3399 4.95332C10.8034 5.32633 11.5524 5.56102 11.428 6.07114C11.3789 6.16301 11.5441 6.16526 11.5476 6.09281C11.818 5.66658 12.2336 5.84668 12.4454 5.52254C12.8188 5.48441 12.3712 4.85625 12.6136 4.64426C12.6493 4.49346 12.3497 3.70341 12.2889 3.68209H12.2891ZM10.1678 7.74294C10.281 7.7504 10.3438 7.87121 10.1949 8.17108C10.1278 8.3068 10.2649 8.49694 9.92637 8.34441C9.65008 8.03241 9.97907 7.73029 10.1678 7.74294ZM10.115 8.84084C10.2874 8.8235 10.4592 9.03532 10.3878 9.40382C9.96503 9.72276 10.8877 9.73194 10.8412 10.0677C11.1537 10.3804 11.4786 11.6277 10.7355 11.5105C10.4256 10.7992 10.2346 11.7398 9.73623 11.7119C9.20964 11.8769 9.96728 12.2765 9.60917 12.4833C9.29613 12.5159 9.2996 13.4889 9.05797 13.3525C8.88533 13.1925 8.0204 13.3225 7.90704 12.8549C7.51323 12.6195 7.82991 11.9614 7.57459 11.5774C7.82419 11.6213 7.9632 12.5325 8.27607 11.8828C8.97841 11.7185 9.18468 10.9734 9.6272 10.527C10.0718 10.166 9.78095 9.81896 9.82653 9.33137C9.84664 9.00637 9.9808 8.85418 10.115 8.84084ZM10.0255 10.3104C9.89795 10.7141 8.93941 11.1424 9.74091 11.4752L9.87056 11.476L9.91147 11.4379C10.3462 11.2841 10.2463 10.7505 10.2429 10.4183C10.0363 10.4833 10.0943 10.5168 10.0255 10.3104ZM11.5358 12.068C11.6306 12.0778 11.6706 12.2158 11.524 12.5464C11.6256 12.7448 11.3541 13.0702 11.2203 12.7888C11.0686 12.3919 11.378 12.0518 11.5358 12.0681V12.068Z" fill="#666666"/>
</svg>
