<svg width="20" height="20" viewBox="0 0 20 20" fill="none" xmlns="http://www.w3.org/2000/svg">
<path d="M10.0007 1.33398C5.21734 1.33398 1.33398 5.21734 1.33398 10.0007C1.33398 14.784 5.21734 18.6673 10.0007 18.6673C14.7753 18.6673 18.6519 14.7978 18.6659 10.0263C18.6668 10.0178 18.6673 10.0092 18.6673 10.0007C18.6673 9.99295 18.667 9.98526 18.6663 9.9776C18.6538 5.20486 14.7763 1.33398 10.0007 1.33398ZM10.0007 1.85398C10.0787 1.85398 10.1554 1.85745 10.2329 1.8597C10.3704 1.88934 10.4907 1.92037 10.5454 1.95521C10.7479 1.90304 10.7966 1.89801 10.7857 1.89229C11.7706 1.98598 12.7299 2.2594 13.6162 2.69898C13.6159 2.72429 13.6162 2.75064 13.6204 2.78357C13.3118 2.85984 14.0176 3.45142 13.7355 3.81924C13.6982 4.32658 13.099 4.94278 12.8159 4.91262C13.181 5.39796 13.1158 6.25388 12.4805 6.18593C12.0047 6.20274 11.7924 6.68114 11.4541 6.93577C11.6069 6.46812 11.1724 6.43674 11.2261 6.0925C10.9245 6.30605 10.9559 6.44264 10.6933 6.06009C10.9602 5.86388 10.5539 5.37976 10.4517 5.32862C10.213 5.46296 9.96356 5.39362 10.3345 5.67702C9.39277 5.95609 10.7266 6.59742 10.2031 7.20236C9.87897 7.97022 9.09932 8.40997 8.3025 8.5053C8.53304 9.03501 7.48472 9.32812 7.8891 8.6743C8.14096 8.16748 6.90076 8.89218 7.59929 9.1872C8.02118 9.53265 8.15101 10.4092 7.5076 10.6002C7.1436 11.0174 6.9824 10.7917 6.72326 10.4222C6.44056 9.61308 5.92506 10.4596 6.322 10.8954C6.87545 11.3329 6.88932 11.8534 7.07166 12.4174C6.93005 12.8116 8.0581 12.8983 7.52701 13.1021C6.81582 13.116 8.00246 13.844 8.14269 13.5117C8.5417 13.7285 9.40629 13.6764 8.97348 13.8956C9.45222 13.9521 10.274 14.0499 9.70546 13.4086C9.50145 13.0817 9.65554 12.463 10.1137 12.2018C10.4967 12.6088 11.0885 11.661 10.9412 12.3027C10.6338 12.5471 10.4151 12.771 10.9838 12.7913C11.2129 13.2931 11.8314 12.8442 11.7184 12.5041C12.0488 12.411 12.7341 12.5187 13.0499 12.6386C13.5729 12.6381 14.4302 12.7527 14.6529 13.117C14.8328 12.8986 15.4166 13.0484 15.2504 12.6471C14.9427 12.5353 15.0991 12.1236 15.3764 12.5051C15.7524 12.5301 15.9824 13.1617 16.4542 13.1544C16.813 13.7909 16.0228 13.3813 16.1287 13.2283C15.859 13.8436 15.7519 12.389 15.4816 12.9615C15.1844 13.1219 14.4924 13.5907 15.097 13.5658C15.4934 13.4207 15.0167 14.3752 14.5801 13.8821C14.0327 13.269 13.6698 14.4395 14.1717 14.6046C14.1877 15.0154 14.5364 15.2599 14.7004 15.5991C15.1325 16.0297 14.1503 16.7189 13.7991 17.0629C13.6309 17.134 13.4593 17.3099 13.2971 17.4516C13.1546 17.5147 13.0106 17.5744 12.8641 17.6294C12.8104 17.6024 12.7606 17.5472 12.7161 17.45C12.2477 17.4268 11.9465 17.0924 11.4033 17.0952C10.676 17.1508 9.81501 17.629 9.1586 17.3006C9.21302 16.8305 8.21601 16.0352 9.1794 15.8208C9.92768 15.8732 10.286 15.2755 10.8223 14.9068C11.1864 14.7139 11.7236 15.1346 11.7109 14.5486C11.7347 14.188 12.8074 14.3648 12.9399 14.3884C12.792 14.8604 12.6877 15.0557 13.315 15.0088C13.4181 15.3508 13.9317 13.9965 13.6438 13.9878C13.403 13.7741 12.715 14.0393 13.2503 13.6105C12.9993 13.0137 12.0971 13.5731 12.0772 12.8721C11.5939 12.8201 12.5275 13.5958 11.7905 13.2026C11.146 13.4637 10.8285 12.8981 10.2799 12.9104C10.5697 13.1978 10.9188 13.8544 10.2827 13.603C9.9204 13.0229 10.0261 13.7913 10.1591 13.9396C10.2423 13.5089 10.2686 14.2269 10.6503 13.9024C10.9543 13.64 11.9739 14.0341 11.2892 13.9648C11.3681 14.0164 10.0171 14.8781 10.4973 14.2074C10.5007 13.9994 9.82628 14.2775 10.2799 14.3695C9.79213 14.4489 9.23313 14.0464 8.64986 14.0625C7.98357 13.9873 7.26649 13.8975 6.81773 13.3529C6.47158 12.8513 5.93269 12.9614 5.85348 12.2692C5.73596 11.9278 5.32984 11.4866 5.37317 11.1297C5.84585 11.0777 6.47401 12.2737 6.15958 11.322C5.82748 10.9103 5.72625 10.2851 5.90218 9.79178C5.9528 9.2905 5.74896 9.2964 5.42326 9.36382C5.33729 8.97296 5.4276 7.93157 4.6892 8.22849C4.27181 8.67569 3.52422 8.92598 3.50949 9.60129C3.31362 9.86597 3.90469 11.0649 3.32489 10.7188C3.3632 10.2135 3.26856 10.3208 3.0609 10.3222C2.84892 9.58257 2.86001 8.77518 2.95153 8.0321C2.57314 7.67764 3.17998 7.21796 2.47833 7.12644C2.31938 6.8101 2.35145 7.78736 2.07845 8.1023C2.93298 4.5176 6.1523 1.85398 10.0007 1.85398ZM12.9288 2.66276C12.9116 2.66104 12.8943 2.66163 12.8773 2.66449C12.7993 2.67801 12.7497 2.74422 12.8166 2.86989C12.3524 2.67576 11.1689 3.12417 12.1574 3.37568C12.1202 3.11793 13.0614 4.08877 12.6348 4.00106C12.8286 4.24772 12.8603 4.34028 12.704 4.32346C12.7752 4.48293 12.9773 4.53666 13.1304 4.47062C13.9156 4.1555 13.5308 3.43305 13.0919 3.00665C13.2 2.7964 13.0539 2.67472 12.9288 2.66276ZM14.8966 3.48748C14.9382 3.51868 14.9781 3.55196 15.0192 3.58385C14.8743 3.56426 14.8656 3.53168 14.8966 3.48748ZM12.2897 3.68282C12.2692 3.67572 12.2755 3.75406 12.3296 3.96986C12.2918 4.6105 11.7385 4.78072 11.3405 4.95405C10.8041 5.32706 11.553 5.56176 11.4286 6.07188C11.3795 6.16374 11.5447 6.166 11.5482 6.09354C11.8186 5.66732 12.2342 5.84741 12.446 5.52328C12.8194 5.48514 12.3719 4.85698 12.6142 4.645C12.6499 4.4942 12.3504 3.70414 12.2895 3.68282H12.2897ZM10.1684 7.74368C10.2816 7.75113 10.3444 7.87194 10.1955 8.17181C10.1284 8.30753 10.2655 8.49768 9.92698 8.34514C9.65069 8.03314 9.97968 7.73102 10.1684 7.74368ZM10.1156 8.84157C10.288 8.82424 10.4598 9.03605 10.3884 9.40456C9.96564 9.72349 10.8883 9.73268 10.8418 10.0684C11.1544 10.3811 11.4792 11.6284 10.7361 11.5113C10.4262 10.7999 10.2352 11.7406 9.73684 11.7127C9.21025 11.8777 9.96789 12.2772 9.60978 12.484C9.29674 12.5166 9.30021 13.4897 9.05858 13.3533C8.88594 13.1933 8.02101 13.3233 7.90765 12.8556C7.51384 12.6202 7.83052 11.9621 7.5752 11.5782C7.8248 11.622 7.96381 12.5332 8.27668 11.8836C8.97902 11.7192 9.18529 10.9741 9.62781 10.5278C10.0724 10.1667 9.78156 9.81969 9.82714 9.3321C9.84725 9.0071 9.98141 8.85492 10.1156 8.84157ZM10.0261 10.3111C9.89856 10.7148 8.94002 11.1431 9.74152 11.4759L9.87117 11.4768L9.91208 11.4386C10.3468 11.2849 10.247 10.7512 10.2435 10.4191C10.0369 10.4841 10.0949 10.5175 10.0261 10.3111ZM11.5364 12.0687C11.6312 12.0786 11.6712 12.2165 11.5246 12.5471C11.6262 12.7456 11.3547 13.0709 11.2209 12.7896C11.0693 12.3926 11.3787 12.0526 11.5364 12.0689V12.0687Z" fill="#666666"/>
</svg>
