<svg width="19" height="18" viewBox="0 0 19 18" fill="none" xmlns="http://www.w3.org/2000/svg">
<path d="M17.7439 16.3951L13.3066 11.9395C14.4475 10.6301 15.0726 8.98262 15.0726 7.26749C15.0726 3.26026 11.6957 0 7.5451 0C3.39449 0 0.0175781 3.26026 0.0175781 7.26749C0.0175781 11.2747 3.39449 14.535 7.5451 14.535C9.10329 14.535 10.5882 14.0812 11.8577 13.2199L16.3287 17.7093C16.5156 17.8967 16.767 18 17.0363 18C17.2913 18 17.5331 17.9062 17.7167 17.7355C18.1069 17.3731 18.1193 16.7721 17.7439 16.3951ZM7.5451 1.89587C10.6131 1.89587 13.1089 4.30552 13.1089 7.26749C13.1089 10.2295 10.6131 12.6391 7.5451 12.6391C4.47714 12.6391 1.98128 10.2295 1.98128 7.26749C1.98128 4.30552 4.47714 1.89587 7.5451 1.89587Z" fill="#666666"/>
</svg>
