<svg width="24" height="25" viewBox="0 0 24 25" fill="none" xmlns="http://www.w3.org/2000/svg">
<path d="M22.89 8.3236L12.39 4.41613C12.1425 4.32613 11.8575 4.32613 11.61 4.41613L1.11001 8.3236C0.675042 8.48863 0.382534 8.89361 0.375027 9.35861C0.367519 9.82361 0.645019 10.2436 1.07252 10.4161L4.7625 11.9461V17.0836C4.7625 17.5111 5.00251 17.9011 5.38502 18.0886L6.13502 18.4636C7.97253 19.3861 9.98253 19.8436 12 19.8436C14.0175 19.8436 16.0275 19.3861 17.865 18.4636L18.615 18.0886C18.9975 17.9011 19.2375 17.5111 19.2375 17.0836V11.9461L20.595 11.3836V15.7411C20.595 16.3636 21.0975 16.8661 21.72 16.8661C22.3425 16.8661 22.845 16.3636 22.845 15.7411V10.4536L22.9275 10.4161C23.355 10.2436 23.6325 9.8236 23.625 9.35861C23.6175 8.89362 23.325 8.48863 22.89 8.3236ZM16.9875 16.3861L16.86 16.4536C13.815 17.9761 10.185 17.9761 7.14004 16.4536L7.01251 16.3861V12.8761L11.5725 14.7586C11.7075 14.8186 11.8575 14.8411 12 14.8411C12.1425 14.8411 12.2925 14.8186 12.4275 14.7586L16.9875 12.8761V16.3861H16.9875Z" fill="#666666"/>
</svg>
