<svg width="18" height="17" viewBox="0 0 18 17" fill="none" xmlns="http://www.w3.org/2000/svg">
<path d="M6.75043 6.08609C6.75043 6.5408 6.57262 6.97689 6.25611 7.29842C5.9396 7.61996 5.51032 7.80059 5.06271 7.80059C4.6151 7.80059 4.18583 7.61996 3.86932 7.29842C3.55281 6.97689 3.375 6.5408 3.375 6.08609C3.375 5.63137 3.55281 5.19528 3.86932 4.87375C4.18583 4.55222 4.6151 4.37158 5.06271 4.37158C5.51032 4.37158 5.9396 4.55222 6.25611 4.87375C6.57262 5.19528 6.75043 5.63137 6.75043 6.08609Z" fill="#666666"/>
<path d="M2.25 0.942383C1.65326 0.942383 1.08097 1.1832 0.65901 1.61185C0.237053 2.04051 0 2.62189 0 3.2281V14.6567C0 15.2629 0.237053 15.8443 0.65901 16.2729C1.08097 16.7016 1.65326 16.9424 2.25 16.9424H15.75C16.3467 16.9424 16.919 16.7016 17.341 16.2729C17.7629 15.8443 18 15.2629 18 14.6567V3.2281C18 2.62189 17.7629 2.04051 17.341 1.61185C16.919 1.1832 16.3467 0.942383 15.75 0.942383H2.25ZM15.75 2.08524C16.0484 2.08524 16.3345 2.20565 16.5455 2.41998C16.7565 2.6343 16.875 2.92499 16.875 3.2281V10.6567L12.6259 8.43153C12.5204 8.37784 12.4009 8.35921 12.2844 8.37829C12.1679 8.39736 12.0603 8.45317 11.9767 8.53781L7.803 12.7778L4.8105 10.7527C4.70246 10.6796 4.57286 10.6467 4.44368 10.6596C4.3145 10.6726 4.1937 10.7305 4.10175 10.8235L1.125 13.5138V3.2281C1.125 2.92499 1.24353 2.6343 1.4545 2.41998C1.66548 2.20565 1.95163 2.08524 2.25 2.08524H15.75Z" fill="#666666"/>
</svg>
