<svg width="30" height="30" viewBox="0 0 30 30" fill="none" xmlns="http://www.w3.org/2000/svg">
<path d="M20 13.75C22.075 13.75 23.7375 12.075 23.7375 10C23.7375 7.925 22.075 6.25 20 6.25C17.925 6.25 16.25 7.925 16.25 10C16.25 12.075 17.925 13.75 20 13.75ZM10 13.75C12.075 13.75 13.7375 12.075 13.7375 10C13.7375 7.925 12.075 6.25 10 6.25C7.925 6.25 6.25 7.925 6.25 10C6.25 12.075 7.925 13.75 10 13.75ZM10 16.25C7.0875 16.25 1.25 17.7125 1.25 20.625V22.5C1.25 23.1875 1.8125 23.75 2.5 23.75H17.5C18.1875 23.75 18.75 23.1875 18.75 22.5V20.625C18.75 17.7125 12.9125 16.25 10 16.25ZM20 16.25C19.6375 16.25 19.225 16.275 18.7875 16.3125C18.8125 16.325 18.825 16.35 18.8375 16.3625C20.2625 17.4 21.25 18.7875 21.25 20.625V22.5C21.25 22.9375 21.1625 23.3625 21.025 23.75H27.5C28.1875 23.75 28.75 23.1875 28.75 22.5V20.625C28.75 17.7125 22.9125 16.25 20 16.25Z" fill="#666666"/>
</svg>
