<svg width="18" height="19" viewBox="0 0 18 19" fill="none" xmlns="http://www.w3.org/2000/svg">
<path d="M1.16775 0.822059C1.10601 0.755802 1.03156 0.70266 0.948834 0.665802C0.866112 0.628944 0.776814 0.609124 0.686266 0.607527C0.595718 0.605929 0.505776 0.622586 0.421805 0.656503C0.337834 0.69042 0.261555 0.740903 0.197518 0.80494C0.133481 0.868977 0.0829982 0.945256 0.049081 1.02923C0.0151638 1.1132 -0.00149266 1.20314 0.000104951 1.29369C0.00170256 1.38424 0.0215217 1.47353 0.05838 1.55626C0.0952383 1.63898 0.148381 1.71343 0.214637 1.77517L0.845846 2.40638C0.31343 2.95156 0.0158182 3.68364 0.0168217 4.44567V12.0885C0.0168217 12.8636 0.324702 13.6068 0.872734 14.1549C1.42076 14.7029 2.16405 15.0108 2.93909 15.0108H3.61346V17.7101C3.61363 17.8749 3.6591 18.0365 3.74491 18.1772C3.83072 18.318 3.95356 18.4324 4.1 18.508C4.24645 18.5837 4.41087 18.6176 4.5753 18.6061C4.73972 18.5946 4.89783 18.5381 5.03233 18.4429L9.8761 15.0108H13.4494L16.8482 18.4096C16.9753 18.5325 17.1456 18.6006 17.3224 18.5991C17.4993 18.5977 17.6684 18.5268 17.7935 18.4018C17.9186 18.2769 17.9896 18.1078 17.9912 17.9309C17.9929 17.7541 17.925 17.5837 17.8022 17.4565L1.16775 0.822059Z" fill="#474747"/>
<path d="M18 12.0886C18.0002 12.5605 17.8859 13.0255 17.667 13.4437C17.4481 13.8618 17.131 14.2206 16.743 14.4893L3.7771 1.52344H15.0777C15.4615 1.52344 15.8415 1.59902 16.196 1.74588C16.5506 1.89274 16.8727 2.10799 17.1441 2.37935C17.4154 2.65071 17.6307 2.97286 17.7776 3.3274C17.9244 3.68195 18 4.06195 18 4.4457V12.0886Z" fill="#474747"/>
</svg>
