<svg width="18" height="17" viewBox="0 0 18 17" fill="none" xmlns="http://www.w3.org/2000/svg">
<path d="M9.83157 8.5L16.8049 1.52666C17.1536 1.178 17.1536 0.610167 16.8049 0.2615C16.4562 -0.0871667 15.8884 -0.0871667 15.5397 0.2615L8.56641 7.23484L1.59307 0.2615C1.2444 -0.0871667 0.676573 -0.0871667 0.327906 0.2615C-0.0207605 0.610167 -0.0207605 1.178 0.327906 1.52666L7.30124 8.5L0.327906 15.4733C-0.0207605 15.822 -0.0207605 16.3898 0.327906 16.7385C0.676573 17.0872 1.2444 17.0872 1.59307 16.7385L8.56641 9.76516L15.5397 16.7385C15.8884 17.0872 16.4562 17.0872 16.8049 16.7385C17.1536 16.3898 17.1536 15.822 16.8049 15.4733L9.83157 8.5Z" fill="white"/>
</svg>
