<svg width="20" height="20" viewBox="0 0 20 20" fill="none" xmlns="http://www.w3.org/2000/svg">
<path d="M10.0002 8.68333C10.8465 8.68333 11.6738 8.43237 12.3775 7.96216C13.0812 7.49196 13.6297 6.82365 13.9536 6.04173C14.2775 5.25982 14.3622 4.39942 14.1971 3.56934C14.032 2.73927 13.6244 1.97679 13.026 1.37834C12.4275 0.779889 11.6651 0.372337 10.835 0.207225C10.0049 0.0421123 9.14451 0.126854 8.3626 0.450734C7.58068 0.774614 6.91237 1.32309 6.44217 2.02679C5.97196 2.7305 5.721 3.55783 5.721 4.40417C5.721 5.53907 6.17183 6.6275 6.97433 7.43C7.77683 8.2325 8.86526 8.68333 10.0002 8.68333ZM12.6335 9.67083H7.36683C5.88272 9.67083 4.4594 10.2604 3.40998 11.3098C2.36056 12.3592 1.771 13.7826 1.771 15.2667V19.5458C1.771 19.6331 1.80568 19.7169 1.86741 19.7786C1.92914 19.8403 2.01286 19.875 2.10016 19.875H17.9002C17.9875 19.875 18.0712 19.8403 18.1329 19.7786C18.1946 19.7169 18.2293 19.6331 18.2293 19.5458V15.2667C18.2293 13.7826 17.6398 12.3592 16.5903 11.3098C15.5409 10.2604 14.1176 9.67083 12.6335 9.67083Z" fill="#474747"/>
<path d="M7.4772 12.466C7.51213 12.4309 7.55364 12.4031 7.59933 12.3842C7.64502 12.3652 7.69401 12.3555 7.74348 12.3555C7.79295 12.3555 7.84194 12.3652 7.88763 12.3842C7.93332 12.4031 7.97483 12.4309 8.00976 12.466L10.0001 14.4571L11.9905 12.466C12.0255 12.431 12.067 12.4033 12.1127 12.3843C12.1584 12.3654 12.2073 12.3557 12.2568 12.3557C12.3062 12.3557 12.3552 12.3654 12.4009 12.3843C12.4466 12.4033 12.4881 12.431 12.5231 12.466C12.558 12.5009 12.5858 12.5424 12.6047 12.5881C12.6236 12.6338 12.6334 12.6828 12.6334 12.7322C12.6334 12.7817 12.6236 12.8307 12.6047 12.8764C12.5858 12.9221 12.558 12.9636 12.5231 12.9985L10.5319 14.9889L12.5231 16.9793C12.558 17.0142 12.5858 17.0557 12.6047 17.1014C12.6236 17.1471 12.6334 17.1961 12.6334 17.2456C12.6334 17.295 12.6236 17.344 12.6047 17.3897C12.5858 17.4354 12.558 17.4769 12.5231 17.5118C12.4881 17.5468 12.4466 17.5745 12.4009 17.5935C12.3552 17.6124 12.3062 17.6221 12.2568 17.6221C12.2073 17.6221 12.1584 17.6124 12.1127 17.5935C12.067 17.5745 12.0255 17.5468 11.9905 17.5118L10.0001 15.5207L8.00976 17.5118C7.9748 17.5468 7.93328 17.5745 7.88759 17.5935C7.8419 17.6124 7.79293 17.6221 7.74348 17.6221C7.69403 17.6221 7.64506 17.6124 7.59937 17.5935C7.55368 17.5745 7.51216 17.5468 7.4772 17.5118C7.44223 17.4769 7.41449 17.4354 7.39556 17.3897C7.37664 17.344 7.3669 17.295 7.3669 17.2456C7.3669 17.1961 7.37664 17.1471 7.39556 17.1014C7.41449 17.0557 7.44223 17.0142 7.4772 16.9793L9.46831 14.9889L7.4772 12.9985C7.44217 12.9636 7.41438 12.9221 7.39542 12.8764C7.37646 12.8307 7.3667 12.7817 7.3667 12.7322C7.3667 12.6828 7.37646 12.6338 7.39542 12.5881C7.41438 12.5424 7.44217 12.5009 7.4772 12.466Z" fill="white"/>
</svg>
