<svg width="30" height="30" viewBox="0 0 30 30" fill="none" xmlns="http://www.w3.org/2000/svg">
<path d="M15 2C7.82504 2 2 7.82504 2 15C2 22.175 7.82504 28 15 28C22.162 28 27.9769 22.1958 27.9979 15.0385C27.9992 15.0257 27.9999 15.0129 28 15C28 14.9885 27.9995 14.9769 27.9984 14.9654C27.9797 7.80632 22.1635 2 15 2ZM15 2.78C15.117 2.78 15.2322 2.7852 15.3484 2.78858C15.5546 2.83304 15.735 2.87958 15.8172 2.93184C16.1209 2.85358 16.1939 2.84604 16.1775 2.83746C17.6549 2.97799 19.0939 3.38812 20.4233 4.0475C20.4228 4.08546 20.4233 4.12498 20.4296 4.17438C19.9668 4.28878 21.0255 5.17616 20.6022 5.72788C20.5463 6.4889 19.6475 7.4132 19.2229 7.36796C19.7705 8.09596 19.6727 9.37984 18.7198 9.27792C18.0061 9.30314 17.6876 10.0207 17.1801 10.4027C17.4094 9.7012 16.7576 9.65414 16.8382 9.13778C16.3858 9.4581 16.4329 9.66298 16.039 9.08916C16.4394 8.79484 15.8299 8.06866 15.6765 7.99196C15.3185 8.19346 14.9444 8.08946 15.5008 8.51456C14.0882 8.93316 16.0889 9.89516 15.3037 10.8026C14.8175 11.9544 13.648 12.614 12.4528 12.757C12.7986 13.5515 11.2261 13.9912 11.8327 13.0105C12.2105 12.2502 10.3502 13.3373 11.398 13.7798C12.0308 14.298 12.2255 15.6128 11.2604 15.8993C10.7144 16.5252 10.4726 16.1866 10.0839 15.6323C9.65986 14.4186 8.88662 15.6885 9.48202 16.3421C10.3122 16.9984 10.333 17.7791 10.6065 18.6252C10.3941 19.2164 12.0862 19.3464 11.2895 19.6522C10.2228 19.673 12.0027 20.765 12.2131 20.2666C12.8116 20.5918 14.1085 20.5136 13.4592 20.8425C14.1774 20.9272 15.41 21.0739 14.5572 20.1119C14.2512 19.6215 14.4823 18.6936 15.1695 18.3017C15.7441 18.9122 16.6318 17.4905 16.4108 18.4531C15.9498 18.8197 15.6217 19.1556 16.4747 19.186C16.8184 19.9387 17.7461 19.2653 17.5766 18.7552C18.0722 18.6156 19.1002 18.777 19.5739 18.9569C20.3583 18.9562 21.6443 19.128 21.9784 19.6745C22.2483 19.3469 23.124 19.5716 22.8746 18.9697C22.4131 18.802 22.6476 18.1845 23.0636 18.7567C23.6276 18.7942 23.9726 19.7416 24.6803 19.7307C25.2185 20.6854 24.0332 20.071 24.192 19.8415C23.7875 20.7645 23.6268 18.5825 23.2215 19.4413C22.7756 19.6818 21.7376 20.3851 22.6445 20.3477C23.2391 20.1301 22.5241 21.5619 21.8692 20.8222C21.0481 19.9026 20.5037 21.6583 21.2566 21.9059C21.2806 22.5221 21.8037 22.8889 22.0496 23.3977C22.6978 24.0436 21.2244 25.0773 20.6976 25.5934C20.4454 25.7 20.188 25.9639 19.9447 26.1764C19.731 26.271 19.5149 26.3607 19.2952 26.4431C19.2146 26.4026 19.14 26.3199 19.0732 26.174C18.3706 26.1392 17.9188 25.6376 17.1039 25.6418C16.013 25.7253 14.7215 26.4426 13.7369 25.9499C13.8186 25.2448 12.323 24.0519 13.7681 23.7303C14.8905 23.8088 15.428 22.9123 16.2324 22.3593C16.7787 22.0699 17.5844 22.7009 17.5654 21.8219C17.601 21.2811 19.2102 21.5463 19.4088 21.5816C19.187 22.2896 19.0305 22.5826 19.9715 22.5122C20.1262 23.0252 20.8965 20.9938 20.4647 20.9808C20.1035 20.6602 19.0716 21.058 19.8745 20.4148C19.498 19.5196 18.1447 20.3586 18.1148 19.3072C17.3899 19.2292 18.7903 20.3927 17.6848 19.803C16.7181 20.1945 16.2418 19.3462 15.4189 19.3646C15.8536 19.7957 16.3772 20.7806 15.423 20.4036C14.8796 19.5334 15.0382 20.6859 15.2376 20.9085C15.3624 20.2624 15.402 21.3393 15.9745 20.8526C16.4305 20.459 17.9598 21.0502 16.9328 20.9462C17.0511 21.0237 15.0247 22.3161 15.7449 21.3102C15.7501 20.9982 14.7384 21.4152 15.4189 21.5533C14.6872 21.6724 13.8487 21.0687 12.9738 21.0928C11.9744 20.98 10.8988 20.8453 10.2256 20.0284C9.7064 19.276 8.89806 19.4411 8.77924 18.4029C8.60296 17.8907 7.99378 17.229 8.05878 16.6936C8.7678 16.6156 9.71004 18.4096 9.2384 16.982C8.74024 16.3645 8.5884 15.4267 8.8523 14.6867C8.92822 13.9348 8.62246 13.9436 8.13392 14.0448C8.00496 13.4585 8.14042 11.8964 7.03282 12.3418C6.40674 13.0126 5.28536 13.388 5.26326 14.401C4.96946 14.798 5.85606 16.5964 4.98636 16.0772C5.04382 15.3193 4.90186 15.4802 4.59038 15.4823C4.2724 14.3729 4.28904 13.1618 4.42632 12.0472C3.85874 11.5155 4.769 10.826 3.71652 10.6887C3.4781 10.2142 3.5262 11.6801 3.1167 12.1525C4.3985 6.77542 9.22748 2.78 15 2.78ZM19.3922 3.99316C19.3664 3.99059 19.3405 3.99146 19.315 3.99576C19.198 4.01604 19.1236 4.11536 19.224 4.30386C18.5277 4.01266 16.7524 4.68528 18.2352 5.06254C18.1793 4.67592 19.5911 6.13218 18.9512 6.00062C19.2419 6.3706 19.2895 6.50944 19.055 6.48422C19.1618 6.72342 19.465 6.80402 19.6946 6.70496C20.8724 6.23228 20.2952 5.1486 19.6368 4.509C19.7991 4.19362 19.5799 4.0111 19.3922 3.99316ZM22.344 5.23024C22.4064 5.27704 22.4662 5.32696 22.5278 5.3748C22.3104 5.34542 22.2974 5.29654 22.344 5.23024ZM18.4336 5.52326C18.4029 5.5126 18.4122 5.63012 18.4934 5.95382C18.4367 6.91478 17.6068 7.1701 17.0098 7.4301C16.2051 7.98962 17.3286 8.34166 17.1419 9.10684C17.0683 9.24464 17.3161 9.24802 17.3213 9.13934C17.7269 8.5 18.3504 8.77014 18.6681 8.28394C19.2281 8.22674 18.5568 7.2845 18.9203 6.96652C18.9738 6.74032 18.5246 5.55524 18.4333 5.52326H18.4336ZM15.2517 11.6145C15.4215 11.6257 15.5156 11.8069 15.2922 12.2567C15.1916 12.4603 15.3973 12.7455 14.8895 12.5167C14.4751 12.0487 14.9685 11.5956 15.2517 11.6145ZM15.1724 13.2614C15.4311 13.2354 15.6887 13.5531 15.5816 14.1059C14.9475 14.5843 16.3315 14.598 16.2618 15.1017C16.7306 15.5707 17.2178 17.4417 16.1032 17.2659C15.6383 16.1989 15.3518 17.6099 14.6043 17.568C13.8144 17.8155 14.9509 18.4148 14.4137 18.725C13.9441 18.7739 13.9493 20.2335 13.5869 20.0289C13.3279 19.7889 12.0305 19.9839 11.8605 19.2825C11.2698 18.9294 11.7448 17.9422 11.3618 17.3663C11.7362 17.432 11.9447 18.7989 12.414 17.8244C13.4676 17.5779 13.777 16.4602 14.4407 15.7907C15.1076 15.2491 14.6714 14.7286 14.7397 13.9972C14.7699 13.5097 14.9711 13.2814 15.1724 13.2614ZM15.0382 15.4657C14.8469 16.0712 13.4091 16.7137 14.6113 17.2129L14.8058 17.2142L14.8671 17.157C15.5192 16.9263 15.3695 16.1258 15.3643 15.6276C15.0543 15.7251 15.1414 15.7753 15.0382 15.4657ZM17.3036 18.1021C17.4458 18.1169 17.5059 18.3238 17.2859 18.8197C17.4383 19.1174 17.0311 19.6054 16.8304 19.1834C16.6029 18.588 17.067 18.0779 17.3036 18.1023V18.1021Z" fill="#666666"/>
</svg>
