<svg width="24" height="23" viewBox="0 0 24 23" fill="none" xmlns="http://www.w3.org/2000/svg">
<path d="M20.0307 0.777344H5.96894C4.32595 0.777999 2.99408 1.95019 2.99352 3.39639V4.52782H1.59508C1.2663 4.52782 1 4.76239 1 5.05163C1 5.34087 1.2663 5.57544 1.59508 5.57544H2.98739V9.01163H1.59508C1.2663 9.01163 1 9.24603 1 9.53544C1 9.82468 1.2663 10.0592 1.59508 10.0592H2.98739V13.4954H1.59508C1.2663 13.4954 1 13.73 1 14.0192C1 14.3087 1.2663 14.5431 1.59508 14.5431H2.98739V17.9792H1.59508C1.2663 17.9792 1 18.2138 1 18.5031C1 18.7923 1.2663 19.0269 1.59508 19.0269H2.98739V20.1583C2.98813 21.6045 4.31981 22.7767 5.9628 22.7773H20.0246C21.6676 22.7767 22.9996 21.6045 23 20.1583V3.39639C23.0024 1.95117 21.6726 0.778326 20.0307 0.777344ZM21.816 20.1583C21.813 21.025 21.0154 21.7273 20.0307 21.7297H5.96894C4.98426 21.7273 4.18648 21.025 4.18369 20.1583V19.0269H5.576C5.90478 19.0269 6.17108 18.7923 6.17108 18.5031C6.17108 18.2138 5.90478 17.9792 5.576 17.9792H4.18369V14.5431H5.576C5.90478 14.5431 6.17108 14.3087 6.17108 14.0192C6.17108 13.73 5.90478 13.4954 5.576 13.4954H4.18369V10.0592H5.576C5.90478 10.0592 6.17108 9.82468 6.17108 9.53544C6.17108 9.24603 5.90478 9.01163 5.576 9.01163H4.18369V5.57544H5.576C5.90478 5.57544 6.17108 5.34087 6.17108 5.05163C6.17108 4.76239 5.90478 4.52782 5.576 4.52782H4.18369V3.39639C4.18648 2.52965 4.98426 1.82742 5.96894 1.82496H20.0307C21.0154 1.82742 21.813 2.52965 21.816 3.39639V20.1583Z" fill="#666666"/>
<path d="M12.9969 11.6254C14.5907 11.6254 15.883 10.4881 15.883 9.08496C15.883 7.68181 14.5907 6.54449 12.9969 6.54449C11.4028 6.54449 10.1107 7.68181 10.1107 9.08496C10.1122 10.4875 11.4033 11.6241 12.9969 11.6254ZM12.9969 7.58687C13.9334 7.58687 14.6928 8.25538 14.6928 9.07973C14.6928 9.90407 13.9334 10.5726 12.9969 10.5726C12.0602 10.5726 11.3009 9.90407 11.3009 9.07973C11.3025 8.25603 12.0607 7.58834 12.9969 7.58687Z" fill="#666666"/>
<path d="M12.9969 12.4688C10.5213 12.4688 8.58116 14.234 8.58116 16.4916C8.58209 16.7805 8.84802 17.0146 9.17624 17.0154H16.8173C17.1455 17.0146 17.4114 16.7805 17.4124 16.4916C17.4124 14.234 15.4722 12.4688 12.9969 12.4688ZM9.81893 15.9678C10.075 14.5378 11.3544 13.5164 12.9969 13.5164C14.6391 13.5164 15.9247 14.5378 16.1746 15.9678H9.81893Z" fill="#666666"/>
<path d="M20.0307 0.777344H5.96894C4.32595 0.777999 2.99408 1.95019 2.99352 3.39639V4.52782H1.59508C1.2663 4.52782 1 4.76239 1 5.05163C1 5.34087 1.2663 5.57544 1.59508 5.57544H2.98739V9.01163H1.59508C1.2663 9.01163 1 9.24603 1 9.53544C1 9.82468 1.2663 10.0592 1.59508 10.0592H2.98739V13.4954H1.59508C1.2663 13.4954 1 13.73 1 14.0192C1 14.3087 1.2663 14.5431 1.59508 14.5431H2.98739V17.9792H1.59508C1.2663 17.9792 1 18.2138 1 18.5031C1 18.7923 1.2663 19.0269 1.59508 19.0269H2.98739V20.1583C2.98813 21.6045 4.31981 22.7767 5.9628 22.7773H20.0246C21.6676 22.7767 22.9996 21.6045 23 20.1583V3.39639C23.0024 1.95117 21.6726 0.778326 20.0307 0.777344ZM21.816 20.1583C21.813 21.025 21.0154 21.7273 20.0307 21.7297H5.96894C4.98426 21.7273 4.18648 21.025 4.18369 20.1583V19.0269H5.576C5.90478 19.0269 6.17108 18.7923 6.17108 18.5031C6.17108 18.2138 5.90478 17.9792 5.576 17.9792H4.18369V14.5431H5.576C5.90478 14.5431 6.17108 14.3087 6.17108 14.0192C6.17108 13.73 5.90478 13.4954 5.576 13.4954H4.18369V10.0592H5.576C5.90478 10.0592 6.17108 9.82468 6.17108 9.53544C6.17108 9.24603 5.90478 9.01163 5.576 9.01163H4.18369V5.57544H5.576C5.90478 5.57544 6.17108 5.34087 6.17108 5.05163C6.17108 4.76239 5.90478 4.52782 5.576 4.52782H4.18369V3.39639C4.18648 2.52965 4.98426 1.82742 5.96894 1.82496H20.0307C21.0154 1.82742 21.813 2.52965 21.816 3.39639V20.1583Z" stroke="#666666" stroke-width="0.3"/>
<path d="M12.9969 11.6254C14.5907 11.6254 15.883 10.4881 15.883 9.08496C15.883 7.68181 14.5907 6.54449 12.9969 6.54449C11.4028 6.54449 10.1107 7.68181 10.1107 9.08496C10.1122 10.4875 11.4033 11.6241 12.9969 11.6254ZM12.9969 7.58687C13.9334 7.58687 14.6928 8.25538 14.6928 9.07973C14.6928 9.90407 13.9334 10.5726 12.9969 10.5726C12.0602 10.5726 11.3009 9.90407 11.3009 9.07973C11.3025 8.25603 12.0607 7.58834 12.9969 7.58687Z" stroke="#666666" stroke-width="0.3"/>
<path d="M12.9969 12.4688C10.5213 12.4688 8.58116 14.234 8.58116 16.4916C8.58209 16.7805 8.84802 17.0146 9.17624 17.0154H16.8173C17.1455 17.0146 17.4114 16.7805 17.4124 16.4916C17.4124 14.234 15.4722 12.4688 12.9969 12.4688ZM9.81893 15.9678C10.075 14.5378 11.3544 13.5164 12.9969 13.5164C14.6391 13.5164 15.9247 14.5378 16.1746 15.9678H9.81893Z" stroke="#666666" stroke-width="0.3"/>
</svg>
