<svg width="20" height="12" viewBox="0 0 20 12" fill="none" xmlns="http://www.w3.org/2000/svg">
<path d="M13.334 5.26367C14.7173 5.26367 15.8256 4.14701 15.8256 2.76367C15.8256 1.38034 14.7173 0.263672 13.334 0.263672C11.9507 0.263672 10.834 1.38034 10.834 2.76367C10.834 4.14701 11.9507 5.26367 13.334 5.26367ZM6.66732 5.26367C8.05065 5.26367 9.15898 4.14701 9.15898 2.76367C9.15898 1.38034 8.05065 0.263672 6.66732 0.263672C5.28398 0.263672 4.16732 1.38034 4.16732 2.76367C4.16732 4.14701 5.28398 5.26367 6.66732 5.26367ZM6.66732 6.93034C4.72565 6.93034 0.833984 7.90534 0.833984 9.84701V11.097C0.833984 11.5553 1.20898 11.9303 1.66732 11.9303H11.6673C12.1256 11.9303 12.5006 11.5553 12.5006 11.097V9.84701C12.5006 7.90534 8.60898 6.93034 6.66732 6.93034ZM13.334 6.93034C13.0923 6.93034 12.8173 6.94701 12.5256 6.97201C12.5423 6.98034 12.5506 6.99701 12.559 7.00534C13.509 7.69701 14.1673 8.62201 14.1673 9.84701V11.097C14.1673 11.3887 14.109 11.672 14.0173 11.9303H18.334C18.7923 11.9303 19.1673 11.5553 19.1673 11.097V9.84701C19.1673 7.90534 15.2756 6.93034 13.334 6.93034Z" fill="#666666"/>
</svg>
