<svg width="30" height="26" viewBox="0 0 30 26" fill="none" xmlns="http://www.w3.org/2000/svg">
<path d="M24.7826 4.99518V4.10576C24.7806 3.39872 24.4988 2.72123 23.9988 2.22128C23.4989 1.72133 22.8214 1.43955 22.1144 1.4375H4.32597C3.61894 1.43955 2.94145 1.72133 2.4415 2.22128C1.94155 2.72123 1.65977 3.39872 1.65771 4.10576V18.3365C1.65977 19.0435 1.94155 19.721 2.4415 20.2209C2.94145 20.7209 3.61894 21.0027 4.32597 21.0047H5.21539" stroke="#474747" stroke-width="1.5" stroke-linejoin="round"/>
<path d="M25.7839 5.88477H8.6615C7.24958 5.88477 6.10498 7.02936 6.10498 8.44129V22.006C6.10498 23.418 7.24958 24.5626 8.6615 24.5626H25.7839C27.1959 24.5626 28.3405 23.418 28.3405 22.006V8.44129C28.3405 7.02936 27.1959 5.88477 25.7839 5.88477Z" stroke="#474747" stroke-width="1.5" stroke-linejoin="round"/>
<path d="M21.4973 12.6767C22.442 12.6767 23.2078 11.9164 23.2078 10.9785C23.2078 10.0406 22.442 9.28027 21.4973 9.28027C20.5527 9.28027 19.7869 10.0406 19.7869 10.9785C19.7869 11.9164 20.5527 12.6767 21.4973 12.6767Z" stroke="#474747" stroke-width="1.5" stroke-miterlimit="10"/>
<path d="M19.7881 19.4578L14.9436 14.6555C14.6339 14.3495 14.2196 14.1724 13.7845 14.1599C13.3493 14.1474 12.9256 14.3005 12.5989 14.5882L6.10498 20.3177" stroke="#474747" stroke-width="1.5" stroke-linecap="round" stroke-linejoin="round"/>
<path d="M15.5132 24.5622L22.1054 18.0178C22.4088 17.7186 22.8122 17.5424 23.2378 17.5232C23.6635 17.504 24.0811 17.6432 24.4102 17.9138L28.3414 21.1663" stroke="#474747" stroke-width="1.5" stroke-linecap="round" stroke-linejoin="round"/>
</svg>
