<svg width="27" height="27" viewBox="0 0 27 27" fill="none" xmlns="http://www.w3.org/2000/svg">
<g clip-path="url(#clip0_2_194)">
<path d="M13.947 2.02399C7.55421 2.02399 2.37263 7.20558 2.37263 13.5983C2.37263 19.9911 7.55421 25.1727 13.947 25.1727C20.3397 25.1727 25.5213 19.9911 25.5213 13.5983C25.5083 7.211 20.3343 2.03699 13.948 2.02399H13.947ZM13.947 26.1791C6.99846 26.1791 1.36621 20.5468 1.36621 13.5983C1.36621 6.64983 6.99846 1.01758 13.947 1.01758C20.8955 1.01758 26.5277 6.64983 26.5277 13.5983V13.6146C26.5277 20.5533 20.903 26.178 13.9643 26.178H13.947H13.948L13.947 26.1791Z" fill="#4C5BD4"/>
<path d="M13.9473 26.5977C6.76802 26.5977 0.947266 20.7769 0.947266 13.5977C0.947266 6.41841 6.76802 0.597656 13.9473 0.597656C21.1265 0.597656 26.9473 6.41841 26.9473 13.5977C26.9104 20.7628 21.1124 26.5608 13.9505 26.5977H13.9473ZM13.9473 1.43616C7.2306 1.43616 1.78577 6.88099 1.78577 13.5977C1.78577 20.3143 7.2306 25.7592 13.9473 25.7592C20.6639 25.7592 26.1088 20.3143 26.1088 13.5977C26.1044 6.88316 20.6618 1.44157 13.9483 1.43616H13.9473ZM13.9473 25.6747C7.32377 25.6747 1.95368 20.3046 1.95368 13.6811C1.95368 7.05757 7.32377 1.68749 13.9473 1.68749C20.5708 1.68749 25.9408 7.05757 25.9408 13.6811C25.9408 20.3046 20.5708 25.6747 13.9473 25.6747ZM13.9473 2.44257C7.78635 2.44257 2.79218 7.43674 2.79218 13.5977C2.79218 19.7586 7.78635 24.7527 13.9473 24.7527C20.1082 24.7527 25.1024 19.7586 25.1024 13.5977V13.5922C25.1024 7.43457 20.1103 2.44257 13.9527 2.44257H13.9473Z" fill="#4C5BD4"/>
<path d="M20.5726 16.0295V16.0685C20.5726 17.8154 19.8787 19.4907 18.6434 20.726C17.4082 21.9612 15.7328 22.6552 13.986 22.6552H13.9448H13.947H13.908C12.1611 22.6552 10.4857 21.9612 9.25048 20.726C8.01524 19.4907 7.32129 17.8154 7.32129 16.0685V16.0273V16.0295H20.5726Z" fill="#4C5BD4"/>
<path d="M11.4308 11.3334V11.3431C11.4308 12.589 10.4211 13.5986 9.17528 13.5986H9.16554C8.71773 13.5986 8.27997 13.4659 7.90763 13.2171C7.53529 12.9683 7.24509 12.6147 7.07372 12.2009C6.90235 11.7872 6.85751 11.332 6.94487 10.8928C7.03224 10.4536 7.24788 10.0501 7.56453 9.73347C7.88118 9.41682 8.28461 9.20118 8.72382 9.11382C9.16302 9.02646 9.61827 9.07129 10.032 9.24266C10.4457 9.41403 10.7993 9.70424 11.0481 10.0766C11.2969 10.4489 11.4297 10.8867 11.4297 11.3345L11.4308 11.3334Z" fill="#4C5BD4"/>
<path d="M21.0772 11.3336C21.0772 11.9341 20.8386 12.51 20.414 12.9346C19.9894 13.3592 19.4135 13.5978 18.813 13.5978C18.2125 13.5978 17.6366 13.3592 17.212 12.9346C16.7874 12.51 16.5488 11.9341 16.5488 11.3336V11.3239C16.5488 10.078 17.5585 9.06836 18.8043 9.06836H18.8141C19.4106 9.07999 19.9794 9.32197 20.4015 9.74362C20.8235 10.1653 21.066 10.7339 21.0782 11.3304V11.3325L21.0772 11.3336Z" fill="#4C5BD4"/>
</g>
<defs>
<clipPath id="clip0_2_194">
<rect width="26" height="26" fill="white" transform="translate(0.947266 0.597656)"/>
</clipPath>
</defs>
</svg>
