<svg width="36" height="36" viewBox="0 0 36 36" fill="none" xmlns="http://www.w3.org/2000/svg">
<path d="M32.4067 3.375H10.9181C10.7419 3.37485 10.5675 3.40939 10.4048 3.47665C10.242 3.5439 10.0941 3.64256 9.96949 3.76698C9.84486 3.8914 9.74596 4.03914 9.67844 4.20178C9.61091 4.36443 9.57608 4.53877 9.57593 4.71488V10.6875L22.0286 14.3438L33.7499 10.6875V4.71488C33.7498 4.53868 33.7149 4.36424 33.6473 4.20152C33.5797 4.03881 33.4807 3.89101 33.356 3.76658C33.2312 3.64214 33.0832 3.54351 32.9203 3.47633C32.7574 3.40914 32.5829 3.37471 32.4067 3.375V3.375Z" fill="#41A5EE"/>
<path d="M33.7499 10.6875H9.57593V18L22.0286 20.1938L33.7499 18V10.6875Z" fill="#2B7CD3"/>
<path d="M9.57593 18V25.3125L21.2962 26.775L33.7499 25.3125V18H9.57593Z" fill="#185ABD"/>
<path d="M10.9181 32.625H32.4056C32.5818 32.6254 32.7565 32.5911 32.9195 32.524C33.0825 32.4569 33.2307 32.3583 33.3556 32.2338C33.4804 32.1094 33.5795 31.9615 33.6472 31.7987C33.7149 31.6359 33.7498 31.4614 33.7499 31.2851V25.3125H9.57593V31.2851C9.57608 31.4612 9.61091 31.6356 9.67844 31.7982C9.74596 31.9609 9.84486 32.1086 9.96949 32.233C10.0941 32.3574 10.242 32.4561 10.4048 32.5234C10.5675 32.5906 10.7419 32.6251 10.9181 32.625V32.625Z" fill="#103F91"/>
<path opacity="0.1" d="M18.4882 9.2251H9.57593V27.5063H18.4882C18.8433 27.5046 19.1834 27.363 19.4349 27.1122C19.6863 26.8614 19.8288 26.5216 19.8314 26.1665V10.565C19.8288 10.2099 19.6863 9.87008 19.4349 9.61929C19.1834 9.36849 18.8433 9.22686 18.4882 9.2251V9.2251Z" fill="black"/>
<path opacity="0.2" d="M17.7558 9.95605H9.57593V28.2373H17.7558C18.1109 28.2355 18.4511 28.0939 18.7025 27.8431C18.9539 27.5923 19.0964 27.2525 19.0991 26.8974V11.2959C19.0964 10.9408 18.9539 10.601 18.7025 10.3502C18.4511 10.0994 18.1109 9.95782 17.7558 9.95605V9.95605Z" fill="black"/>
<path opacity="0.2" d="M17.7558 9.95605H9.57593V26.7748H17.7558C18.1109 26.773 18.4511 26.6314 18.7025 26.3806C18.9539 26.1298 19.0964 25.79 19.0991 25.4349V11.2959C19.0964 10.9408 18.9539 10.601 18.7025 10.3502C18.4511 10.0994 18.1109 9.95782 17.7558 9.95605V9.95605Z" fill="black"/>
<path opacity="0.2" d="M17.0234 9.95605H9.57593V26.7748H17.0234C17.3785 26.773 17.7187 26.6314 17.9701 26.3806C18.2215 26.1298 18.364 25.79 18.3667 25.4349V11.2959C18.364 10.9408 18.2215 10.601 17.9701 10.3502C17.7187 10.0994 17.3785 9.95782 17.0234 9.95605V9.95605Z" fill="black"/>
<path d="M3.59325 9.95606H17.0235C17.3793 9.95576 17.7206 10.0967 17.9725 10.348C18.2243 10.5992 18.3662 10.9402 18.3668 11.2959V24.7037C18.3662 25.0594 18.2243 25.4004 17.9725 25.6517C17.7206 25.9029 17.3793 26.0439 17.0235 26.0436H3.59325C3.41705 26.0439 3.24252 26.0094 3.07964 25.9422C2.91676 25.875 2.76871 25.7764 2.64396 25.652C2.51922 25.5275 2.42021 25.3798 2.35262 25.217C2.28502 25.0543 2.25015 24.8799 2.25 24.7037V11.2959C2.25015 11.1197 2.28502 10.9453 2.35262 10.7826C2.42021 10.6199 2.51922 10.4721 2.64396 10.3476C2.76871 10.2232 2.91676 10.1246 3.07964 10.0574C3.24252 9.99019 3.41705 9.95576 3.59325 9.95606V9.95606Z" fill="url(#paint0_linear_4376:1491)"/>
<path d="M7.76237 20.2368C7.78825 20.4438 7.80625 20.6238 7.81412 20.7779H7.84562C7.85687 20.6316 7.88162 20.455 7.91875 20.2491C7.95587 20.0433 7.9885 19.8689 8.01887 19.726L9.43075 13.6431H11.2577L12.7202 19.6349C12.8054 20.0055 12.8663 20.3813 12.9025 20.7599H12.9272C12.9541 20.3914 13.0048 20.025 13.0791 19.663L14.248 13.6353H15.9096L13.8576 22.3518H11.9147L10.5231 16.585C10.4826 16.4185 10.4369 16.2018 10.3859 15.9348C10.3349 15.6678 10.3034 15.4728 10.2914 15.3498H10.2677C10.252 15.4915 10.2205 15.7019 10.1732 15.9809C10.126 16.261 10.0889 16.4669 10.0607 16.6019L8.75237 22.3551H6.77687L4.71362 13.6431H6.40112L7.6735 19.7384C7.71147 19.9029 7.74114 20.0692 7.76237 20.2368V20.2368Z" fill="white"/>
<defs>
<linearGradient id="paint0_linear_4376:1491" x1="5.05575" y1="8.90306" x2="15.561" y2="27.0966" gradientUnits="userSpaceOnUse">
<stop stop-color="#2368C4"/>
<stop offset="0.5" stop-color="#1A5DBE"/>
<stop offset="1" stop-color="#1146AC"/>
</linearGradient>
</defs>
</svg>
