<svg width="25" height="25" viewBox="0 0 25 25" fill="none" xmlns="http://www.w3.org/2000/svg">
<path d="M21.9473 6.59766H20.9473V5.59766C20.9473 5.33244 20.8419 5.07809 20.6544 4.89055C20.4668 4.70301 20.2125 4.59766 19.9473 4.59766C19.682 4.59766 19.4277 4.70301 19.2402 4.89055C19.0526 5.07809 18.9473 5.33244 18.9473 5.59766V6.59766H17.9473C17.682 6.59766 17.4277 6.70301 17.2402 6.89055C17.0526 7.07809 16.9473 7.33244 16.9473 7.59766C16.9473 7.86287 17.0526 8.11723 17.2402 8.30476C17.4277 8.4923 17.682 8.59766 17.9473 8.59766H18.9473V9.59766C18.9473 9.86287 19.0526 10.1172 19.2402 10.3048C19.4277 10.4923 19.682 10.5977 19.9473 10.5977C20.2125 10.5977 20.4668 10.4923 20.6544 10.3048C20.8419 10.1172 20.9473 9.86287 20.9473 9.59766V8.59766H21.9473C22.2125 8.59766 22.4668 8.4923 22.6544 8.30476C22.8419 8.11723 22.9473 7.86287 22.9473 7.59766C22.9473 7.33244 22.8419 7.07809 22.6544 6.89055C22.4668 6.70301 22.2125 6.59766 21.9473 6.59766ZM10.9473 11.5977C11.7384 11.5977 12.5117 11.3631 13.1695 10.9235C13.8273 10.484 14.34 9.8593 14.6428 9.12839C14.9455 8.39749 15.0247 7.59322 14.8704 6.8173C14.7161 6.04137 14.3351 5.32864 13.7757 4.76923C13.2163 4.20982 12.5036 3.82886 11.7276 3.67452C10.9517 3.52018 10.1474 3.59939 9.41653 3.90214C8.68563 4.20489 8.06091 4.71758 7.62139 5.37538C7.18186 6.03317 6.94727 6.80653 6.94727 7.59766C6.94727 8.65852 7.36869 9.67594 8.11884 10.4261C8.86898 11.1762 9.8864 11.5977 10.9473 11.5977ZM16.9473 21.5977C17.2125 21.5977 17.4668 21.4923 17.6544 21.3048C17.8419 21.1172 17.9473 20.8629 17.9473 20.5977C17.9473 18.7411 17.2098 16.9607 15.897 15.6479C14.5843 14.3352 12.8038 13.5977 10.9473 13.5977C9.09075 13.5977 7.31027 14.3352 5.99752 15.6479C4.68476 16.9607 3.94727 18.7411 3.94727 20.5977C3.94727 20.8629 4.05262 21.1172 4.24016 21.3048C4.4277 21.4923 4.68205 21.5977 4.94727 21.5977" fill="white"/>
</svg>
