<svg width="27" height="27" viewBox="0 0 27 27" fill="none" xmlns="http://www.w3.org/2000/svg">
<g clip-path="url(#clip0_5141:85136)">
<path d="M19.8908 15.425L17.5239 14.9683C17.3031 15.6767 16.8737 16.3067 16.2886 16.7805L19.4743 21.3558C20.4312 20.9741 21.5279 21.1523 22.3051 21.8158C23.4354 22.7806 23.5472 24.4537 22.5548 25.5527C21.5623 26.6516 19.8415 26.7603 18.7111 25.7954C17.5808 24.8305 17.469 23.1575 18.4614 22.0585L15.216 17.3974C14.2525 17.7645 13.178 17.7416 12.232 17.3336L9.51718 21.0667C10.3254 22.0569 10.4396 23.4231 9.80646 24.5272C8.94298 26.033 6.98738 26.5731 5.43854 25.7336C3.88971 24.8941 3.33417 22.9928 4.19765 21.487C5.06113 19.9812 7.01673 19.4411 8.56557 20.2806L11.1892 16.6733C9.93714 15.5695 9.56457 13.8045 10.2681 12.3105L5.88829 9.00366C5.17999 9.48869 4.25891 9.56826 3.4738 9.21222C2.26363 8.6634 1.74012 7.26474 2.30462 6.08812C2.86912 4.91156 4.30774 4.40259 5.51797 4.95141C6.72814 5.50024 7.25165 6.8989 6.68715 8.07551L10.9624 11.3034C12.1809 10.0288 14.1385 9.73087 15.6994 10.5825L18.9619 6.10173C18.1501 5.24826 17.9333 4.0093 18.4091 2.9428C19.0721 1.45646 20.8491 0.774119 22.3779 1.41872C23.9067 2.06333 24.6085 3.79094 23.9455 5.27728C23.2825 6.76363 21.5055 7.44602 19.9767 6.80136L16.675 11.3358C17.301 12.0021 17.66 12.8648 17.6865 13.7667L20.1358 14.2393C20.5185 13.4863 21.2861 12.9897 22.1484 12.9373C23.4784 12.8564 24.624 13.839 24.7071 15.1321C24.7903 16.4252 23.7796 17.539 22.4496 17.6198C21.1196 17.7007 19.9739 16.7181 19.8908 15.425Z" fill="white" stroke="white" stroke-width="0.5"/>
</g>
<defs>
<clipPath id="clip0_5141:85136">
<rect width="26" height="26" fill="white" transform="translate(0.633484 0.731445)"/>
</clipPath>
</defs>
</svg>
