<svg width="27" height="28" viewBox="0 0 27 28" fill="none" xmlns="http://www.w3.org/2000/svg">
<path d="M6.16101 4.64424H8.26913C8.36617 4.64424 8.44479 4.56468 8.44479 4.46663V0.203493C8.44479 0.10537 8.36617 0.0258789 8.26913 0.0258789H6.16101C6.06397 0.0258789 5.98535 0.105438 5.98535 0.203493V4.46663C5.98535 4.56475 6.06397 4.64424 6.16101 4.64424Z" fill="#4C5BD4"/>
<path d="M25.0986 3.22314H22.4986V4.35995C22.4986 5.03497 22.0068 5.70993 21.3392 5.70993H19.2662C18.5509 5.65866 17.9818 5.08325 17.9311 4.35995V3.22314H9.49866V4.35995C9.44795 5.08325 8.87888 5.65866 8.16353 5.70993H6.09053C5.42293 5.70993 4.93106 5.03491 4.93106 4.35995V3.22314H2.33108C1.43281 3.24252 0.714642 3.98446 0.714844 4.89292V9.2626H26.7148V4.89292C26.715 3.98446 25.9969 3.24252 25.0986 3.22314Z" fill="#4C5BD4"/>
<path d="M19.161 4.64424H21.2691C21.3662 4.64424 21.4448 4.56468 21.4448 4.46663V0.203493C21.4448 0.10537 21.3661 0.0258789 21.2691 0.0258789H19.161C19.064 0.0258789 18.9854 0.105438 18.9854 0.203493V4.46663C18.9854 4.56475 19.064 4.64424 19.161 4.64424Z" fill="#4C5BD4"/>
<path d="M0.714844 25.4272C0.733943 26.3158 1.45198 27.026 2.33108 27.0258H25.0986C25.9776 27.026 26.6957 26.3158 26.7148 25.4272V10.3286H0.714844V25.4272ZM7.25 16.8654C7.30609 16.6714 7.47273 16.5309 7.67159 16.5102L11.2905 15.9418L12.9067 12.6379C13.0519 12.3828 13.3742 12.2951 13.6264 12.4419C13.707 12.4888 13.7739 12.5564 13.8203 12.6379L15.4365 15.9418L19.0554 16.5102C19.2543 16.5309 19.421 16.6714 19.477 16.8654C19.5407 17.0555 19.4853 17.2656 19.3364 17.3983L16.7365 19.9562L17.3689 23.6154C17.3933 23.8076 17.3125 23.9981 17.158 24.1127C17.0657 24.1797 16.9555 24.2169 16.8418 24.2192C16.7539 24.2277 16.6661 24.2023 16.5959 24.1482L13.3635 22.4429L10.1311 24.1482C9.95489 24.2567 9.73041 24.2426 9.56894 24.1127C9.41446 23.998 9.33376 23.8075 9.35811 23.6154L9.99053 19.9562L7.39055 17.3983C7.24166 17.2656 7.18625 17.0554 7.25 16.8654Z" fill="#4C5BD4"/>
</svg>
