<svg width="20" height="20" viewBox="0 0 20 20" fill="none" xmlns="http://www.w3.org/2000/svg">
<path d="M2 11.7763L11 11.7773C11.5046 11.7772 11.9906 11.9678 12.3605 12.3108C12.7305 12.6539 12.9572 13.1242 12.995 13.6273L13 13.7773V15.2773C12.999 18.7773 9.284 19.7773 6.5 19.7773C3.778 19.7773 0.165 18.8213 0.00500011 15.5073L0 15.2773V13.7763C0 12.7223 0.816 11.8583 1.85 11.7813L2 11.7773V11.7763ZM13.22 11.7773H18C19.054 11.7773 19.918 12.5933 19.994 13.6273L20 13.7773V14.7773C19.999 17.8393 17.142 18.7773 15 18.7773C14.2745 18.7791 13.5529 18.6705 12.86 18.4553C13.196 18.0693 13.467 17.6283 13.662 17.1283C14.1013 17.2265 14.5499 17.2765 15 17.2773L15.267 17.2713C16.252 17.2283 18.353 16.9083 18.493 14.9823L18.5 14.7773V13.7773C18.4998 13.6604 18.4588 13.5471 18.3839 13.4573C18.309 13.3674 18.205 13.3066 18.09 13.2853L18 13.2773H13.949C13.8663 12.7878 13.6617 12.327 13.354 11.9373L13.22 11.7773H18H13.22ZM2 13.2763L1.9 13.2863C1.80402 13.3063 1.71584 13.3535 1.646 13.4223C1.57718 13.4918 1.52994 13.5796 1.51 13.6753L1.5 13.7763V15.2773C1.5 16.2863 1.95 16.9993 2.917 17.5193C3.743 17.9643 4.92 18.2333 6.183 18.2723L6.5 18.2773L6.817 18.2723C8.08 18.2333 9.256 17.9643 10.083 17.5193C10.989 17.0313 11.442 16.3743 11.495 15.4623L11.5 15.2763V13.7773C11.4998 13.6604 11.4588 13.5471 11.3839 13.4573C11.309 13.3674 11.205 13.3066 11.09 13.2853L11 13.2773L2 13.2763ZM6.5 0.777344C7.69347 0.777344 8.83807 1.25145 9.68198 2.09536C10.5259 2.93928 11 4.08387 11 5.27734C11 6.47082 10.5259 7.61541 9.68198 8.45932C8.83807 9.30324 7.69347 9.77734 6.5 9.77734C5.30653 9.77734 4.16193 9.30324 3.31802 8.45932C2.47411 7.61541 2 6.47082 2 5.27734C2 4.08387 2.47411 2.93928 3.31802 2.09536C4.16193 1.25145 5.30653 0.777344 6.5 0.777344ZM15.5 2.77734C16.4283 2.77734 17.3185 3.14609 17.9749 3.80247C18.6313 4.45885 19 5.34909 19 6.27734C19 7.2056 18.6313 8.09584 17.9749 8.75222C17.3185 9.40859 16.4283 9.77734 15.5 9.77734C14.5717 9.77734 13.6815 9.40859 13.0251 8.75222C12.3687 8.09584 12 7.2056 12 6.27734C12 5.34909 12.3687 4.45885 13.0251 3.80247C13.6815 3.14609 14.5717 2.77734 15.5 2.77734ZM6.5 2.27734C4.846 2.27734 3.5 3.62334 3.5 5.27734C3.5 6.93134 4.846 8.27734 6.5 8.27734C8.154 8.27734 9.5 6.93134 9.5 5.27734C9.5 3.62334 8.154 2.27734 6.5 2.27734ZM15.5 4.27734C14.397 4.27734 13.5 5.17434 13.5 6.27734C13.5 7.38034 14.397 8.27734 15.5 8.27734C16.603 8.27734 17.5 7.38034 17.5 6.27734C17.5 5.17434 16.603 4.27734 15.5 4.27734Z" fill="#666666"/>
</svg>
