<svg width="25" height="25" viewBox="0 0 25 25" fill="none" xmlns="http://www.w3.org/2000/svg">
<g clip-path="url(#clip0_207_3969)">
<path d="M20.5385 1.77734H4.46154C3.67678 1.77976 2.92479 2.11856 2.36988 2.71971C1.81497 3.32087 1.50223 4.13552 1.5 4.98568V15.9857C1.50223 16.8358 1.81497 17.6505 2.36988 18.2516C2.92479 18.8528 3.67678 19.1916 4.46154 19.194H6.57692V23.7773L11.5333 19.3006C11.6094 19.2317 11.7054 19.194 11.8046 19.194H20.5385C21.3232 19.1916 22.0752 18.8528 22.6301 18.2516C23.185 17.6505 23.4978 16.8358 23.5 15.9857V4.98568C23.4978 4.13552 23.185 3.32087 22.6301 2.71971C22.0752 2.11856 21.3232 1.77976 20.5385 1.77734V1.77734Z" stroke="#4C5BD4" stroke-width="1.5" stroke-linejoin="round"/>
<path d="M7.42326 12.319C8.3579 12.319 9.11557 11.4982 9.11557 10.4857C9.11557 9.47315 8.3579 8.65234 7.42326 8.65234C6.48863 8.65234 5.73096 9.47315 5.73096 10.4857C5.73096 11.4982 6.48863 12.319 7.42326 12.319Z" fill="#4C5BD4"/>
<path d="M12.4999 12.319C13.4346 12.319 14.1922 11.4982 14.1922 10.4857C14.1922 9.47315 13.4346 8.65234 12.4999 8.65234C11.5653 8.65234 10.8076 9.47315 10.8076 10.4857C10.8076 11.4982 11.5653 12.319 12.4999 12.319Z" fill="#4C5BD4"/>
<path d="M17.5751 12.319C18.5098 12.319 19.2674 11.4982 19.2674 10.4857C19.2674 9.47315 18.5098 8.65234 17.5751 8.65234C16.6405 8.65234 15.8828 9.47315 15.8828 10.4857C15.8828 11.4982 16.6405 12.319 17.5751 12.319Z" fill="#4C5BD4"/>
</g>
<defs>
<clipPath id="clip0_207_3969">
<rect width="24" height="24" fill="white" transform="translate(0.5 0.777344)"/>
</clipPath>
</defs>
</svg>
