<svg width="23" height="24" viewBox="0 0 23 24" fill="none" xmlns="http://www.w3.org/2000/svg">
<path d="M19.9798 15.8223C19.6324 15.8223 19.3496 15.5548 19.3496 15.2259V11.0132C19.3496 7.68714 17.0275 4.86476 13.8367 3.92136C13.9327 3.66859 13.9833 3.40024 13.9833 3.12719C13.9833 1.8315 12.8694 0.777344 11.5 0.777344C10.1307 0.777344 9.01671 1.8315 9.01671 3.12724C9.01671 3.40241 9.06638 3.67035 9.16168 3.9219C5.97181 4.86575 3.6504 7.68773 3.6504 11.0132V15.226C3.6504 15.5548 3.36768 15.8224 3.0202 15.8224C1.63052 15.8224 0.5 16.8922 0.5 18.2072C0.5 19.5221 1.63052 20.592 3.0202 20.592H8.89937C8.84259 20.7993 8.81286 21.0147 8.81286 21.2346C8.81286 22.6367 10.0183 23.7773 11.5 23.7773C12.9817 23.7773 14.1872 22.6367 14.1872 21.2346C14.1872 21.0147 14.1575 20.7993 14.1006 20.592H19.9798C21.3695 20.592 22.5 19.5221 22.5 18.2072C22.5001 16.8922 21.3695 15.8223 19.9798 15.8223ZM10.4482 3.12724C10.4482 2.57844 10.9201 2.13196 11.5 2.13196C12.08 2.13196 12.5518 2.57844 12.5518 3.12724C12.5518 3.30718 12.5004 3.48233 12.4047 3.63495C12.1078 3.60257 11.806 3.58532 11.5 3.58532C11.1944 3.58532 10.893 3.60253 10.5963 3.63486C10.5005 3.48269 10.4482 3.30894 10.4482 3.12724ZM12.7557 21.2345C12.7557 21.8897 12.1924 22.4227 11.5001 22.4227C10.8077 22.4227 10.2444 21.8897 10.2444 21.2345C10.2444 21.003 10.3142 20.7818 10.4437 20.5919H12.5563C12.6859 20.7818 12.7557 21.003 12.7557 21.2345ZM19.9798 19.2373H3.0202C2.41991 19.2373 1.93152 18.7752 1.93152 18.2071C1.93152 17.6391 2.41991 17.1769 3.0202 17.1769C4.15702 17.1769 5.08193 16.3017 5.08193 15.2259V11.0132C5.08193 7.66434 7.96106 4.93989 11.5 4.93989C15.039 4.93989 17.9181 7.66434 17.9181 11.0132V15.2259C17.9181 16.3017 18.843 17.1769 19.9798 17.1769C20.5801 17.1769 21.0685 17.6391 21.0685 18.2071C21.0686 18.7752 20.5801 19.2373 19.9798 19.2373Z" fill="#666666"/>
</svg>
