<svg width="24" height="25" viewBox="0 0 24 25" fill="none" xmlns="http://www.w3.org/2000/svg">
<path d="M20.0307 1.77734H5.96894C4.32595 1.778 2.99408 2.95019 2.99352 4.39639V5.52782H1.59508C1.2663 5.52782 1 5.76239 1 6.05163C1 6.34087 1.2663 6.57544 1.59508 6.57544H2.98739V10.0116H1.59508C1.2663 10.0116 1 10.246 1 10.5354C1 10.8247 1.2663 11.0592 1.59508 11.0592H2.98739V14.4954H1.59508C1.2663 14.4954 1 14.73 1 15.0192C1 15.3087 1.2663 15.5431 1.59508 15.5431H2.98739V18.9792H1.59508C1.2663 18.9792 1 19.2138 1 19.5031C1 19.7923 1.2663 20.0269 1.59508 20.0269H2.98739V21.1583C2.98813 22.6045 4.31981 23.7767 5.9628 23.7773H20.0246C21.6676 23.7767 22.9996 22.6045 23 21.1583V4.39639C23.0024 2.95117 21.6726 1.77833 20.0307 1.77734ZM21.816 21.1583C21.813 22.025 21.0154 22.7273 20.0307 22.7297H5.96894C4.98426 22.7273 4.18648 22.025 4.18369 21.1583V20.0269H5.576C5.90478 20.0269 6.17108 19.7923 6.17108 19.5031C6.17108 19.2138 5.90478 18.9792 5.576 18.9792H4.18369V15.5431H5.576C5.90478 15.5431 6.17108 15.3087 6.17108 15.0192C6.17108 14.73 5.90478 14.4954 5.576 14.4954H4.18369V11.0592H5.576C5.90478 11.0592 6.17108 10.8247 6.17108 10.5354C6.17108 10.246 5.90478 10.0116 5.576 10.0116H4.18369V6.57544H5.576C5.90478 6.57544 6.17108 6.34087 6.17108 6.05163C6.17108 5.76239 5.90478 5.52782 5.576 5.52782H4.18369V4.39639C4.18648 3.52965 4.98426 2.82742 5.96894 2.82496H20.0307C21.0154 2.82742 21.813 3.52965 21.816 4.39639V21.1583Z" fill="#666666"/>
<path d="M12.9969 12.6254C14.5907 12.6254 15.883 11.4881 15.883 10.085C15.883 8.68181 14.5907 7.54449 12.9969 7.54449C11.4028 7.54449 10.1107 8.68181 10.1107 10.085C10.1122 11.4875 11.4033 12.6241 12.9969 12.6254ZM12.9969 8.58687C13.9334 8.58687 14.6928 9.25538 14.6928 10.0797C14.6928 10.9041 13.9334 11.5726 12.9969 11.5726C12.0602 11.5726 11.3009 10.9041 11.3009 10.0797C11.3025 9.25603 12.0607 8.58834 12.9969 8.58687Z" fill="#666666"/>
<path d="M12.9969 13.4688C10.5213 13.4688 8.58116 15.234 8.58116 17.4916C8.58209 17.7805 8.84802 18.0146 9.17624 18.0154H16.8173C17.1455 18.0146 17.4114 17.7805 17.4124 17.4916C17.4124 15.234 15.4722 13.4688 12.9969 13.4688ZM9.81893 16.9678C10.075 15.5378 11.3544 14.5164 12.9969 14.5164C14.6391 14.5164 15.9247 15.5378 16.1746 16.9678H9.81893Z" fill="#666666"/>
<path d="M20.0307 1.77734H5.96894C4.32595 1.778 2.99408 2.95019 2.99352 4.39639V5.52782H1.59508C1.2663 5.52782 1 5.76239 1 6.05163C1 6.34087 1.2663 6.57544 1.59508 6.57544H2.98739V10.0116H1.59508C1.2663 10.0116 1 10.246 1 10.5354C1 10.8247 1.2663 11.0592 1.59508 11.0592H2.98739V14.4954H1.59508C1.2663 14.4954 1 14.73 1 15.0192C1 15.3087 1.2663 15.5431 1.59508 15.5431H2.98739V18.9792H1.59508C1.2663 18.9792 1 19.2138 1 19.5031C1 19.7923 1.2663 20.0269 1.59508 20.0269H2.98739V21.1583C2.98813 22.6045 4.31981 23.7767 5.9628 23.7773H20.0246C21.6676 23.7767 22.9996 22.6045 23 21.1583V4.39639C23.0024 2.95117 21.6726 1.77833 20.0307 1.77734ZM21.816 21.1583C21.813 22.025 21.0154 22.7273 20.0307 22.7297H5.96894C4.98426 22.7273 4.18648 22.025 4.18369 21.1583V20.0269H5.576C5.90478 20.0269 6.17108 19.7923 6.17108 19.5031C6.17108 19.2138 5.90478 18.9792 5.576 18.9792H4.18369V15.5431H5.576C5.90478 15.5431 6.17108 15.3087 6.17108 15.0192C6.17108 14.73 5.90478 14.4954 5.576 14.4954H4.18369V11.0592H5.576C5.90478 11.0592 6.17108 10.8247 6.17108 10.5354C6.17108 10.246 5.90478 10.0116 5.576 10.0116H4.18369V6.57544H5.576C5.90478 6.57544 6.17108 6.34087 6.17108 6.05163C6.17108 5.76239 5.90478 5.52782 5.576 5.52782H4.18369V4.39639C4.18648 3.52965 4.98426 2.82742 5.96894 2.82496H20.0307C21.0154 2.82742 21.813 3.52965 21.816 4.39639V21.1583Z" stroke="#666666" stroke-width="0.3"/>
<path d="M12.9969 12.6254C14.5907 12.6254 15.883 11.4881 15.883 10.085C15.883 8.68181 14.5907 7.54449 12.9969 7.54449C11.4028 7.54449 10.1107 8.68181 10.1107 10.085C10.1122 11.4875 11.4033 12.6241 12.9969 12.6254ZM12.9969 8.58687C13.9334 8.58687 14.6928 9.25538 14.6928 10.0797C14.6928 10.9041 13.9334 11.5726 12.9969 11.5726C12.0602 11.5726 11.3009 10.9041 11.3009 10.0797C11.3025 9.25603 12.0607 8.58834 12.9969 8.58687Z" stroke="#666666" stroke-width="0.3"/>
<path d="M12.9969 13.4688C10.5213 13.4688 8.58116 15.234 8.58116 17.4916C8.58209 17.7805 8.84802 18.0146 9.17624 18.0154H16.8173C17.1455 18.0146 17.4114 17.7805 17.4124 17.4916C17.4124 15.234 15.4722 13.4688 12.9969 13.4688ZM9.81893 16.9678C10.075 15.5378 11.3544 14.5164 12.9969 14.5164C14.6391 14.5164 15.9247 15.5378 16.1746 16.9678H9.81893Z" stroke="#666666" stroke-width="0.3"/>
</svg>
