<svg width="22" height="23" viewBox="0 0 22 23" fill="none" xmlns="http://www.w3.org/2000/svg">
<g clip-path="url(#clip0_5192:28931)">
<path d="M16.2947 12.6293L14.292 12.2429C14.1051 12.8423 13.7417 13.3754 13.2467 13.7763L15.9423 17.6477C16.752 17.3247 17.6799 17.4755 18.3375 18.0369C19.294 18.8533 19.3886 20.269 18.5488 21.1989C17.7091 22.1288 16.2529 22.2208 15.2965 21.4043C14.3401 20.5879 14.2454 19.1722 15.0852 18.2423L12.3391 14.2983C11.5238 14.609 10.6146 14.5895 9.81418 14.2443L7.51701 17.4031C8.20086 18.2409 8.29749 19.397 7.76178 20.3312C7.03114 21.6053 5.3764 22.0623 4.06585 21.352C2.7553 20.6417 2.28523 19.0329 3.01587 17.7587C3.7465 16.4846 5.40124 16.0276 6.71179 16.7379L8.93176 13.6856C7.87235 12.7516 7.55711 11.2582 8.15244 9.99401L4.44641 7.19592C3.84708 7.60632 3.0677 7.67366 2.40338 7.37239C1.37939 6.908 0.936416 5.72452 1.41407 4.72892C1.89173 3.73337 3.10902 3.30271 4.13306 3.76709C5.15705 4.23148 5.60002 5.41496 5.12237 6.41056L8.73988 9.14188C9.77092 8.06334 11.4274 7.81124 12.7482 8.53187L15.5087 4.74043C14.8218 4.01827 14.6384 2.96992 15.0409 2.06749C15.6019 0.809822 17.1055 0.232458 18.3991 0.777894C19.6927 1.32333 20.2866 2.78516 19.7256 4.04283C19.1645 5.3005 17.661 5.87792 16.3674 5.33243L13.5736 9.16931C14.1033 9.73306 14.4071 10.463 14.4295 11.2262L16.502 11.6261C16.8259 10.9889 17.4753 10.5687 18.2049 10.5243C19.3303 10.4559 20.2997 11.2874 20.3701 12.3815C20.4404 13.4757 19.5852 14.4181 18.4598 14.4865C17.3344 14.5549 16.365 13.7235 16.2947 12.6293Z" fill="white" stroke="white" stroke-width="0.5"/>
</g>
<defs>
<clipPath id="clip0_5192:28931">
<rect width="22" height="22" fill="white" transform="translate(0 0.196411)"/>
</clipPath>
</defs>
</svg>
