<svg width="30" height="27" viewBox="0 0 30 27" fill="none" xmlns="http://www.w3.org/2000/svg">
<path d="M27.9181 4.7588C27.1119 4.24965 26.0391 3.96907 24.8984 3.96907H4.32436C3.94919 3.96907 3.60942 3.87309 3.36379 3.71774C3.11745 3.56283 2.96526 3.34854 2.96526 3.11194C2.96526 2.63873 3.57403 2.2548 4.32436 2.2548H26.3534C27.1048 2.2548 27.7125 1.87087 27.7125 1.39766C27.7125 0.924453 27.1048 0.540527 26.3534 0.540527H4.51725C3.37653 0.540527 2.30377 0.821106 1.49928 1.32914C0.691962 1.83762 0.24707 2.51417 0.24707 3.23359V25.2678C0.24707 25.7415 0.855832 26.1249 1.60617 26.1249H24.8984C26.0391 26.1249 27.1119 25.8448 27.9174 25.3363C28.7237 24.8279 29.1686 24.1517 29.1686 23.4319V6.66213C29.1686 5.94272 28.7237 5.26616 27.9181 4.7588ZM20.4343 17.0049C20.4343 17.725 19.9894 18.4016 19.182 18.9096C18.3776 19.4181 17.3048 19.6986 16.1641 19.6986H16.0671V20.6774C16.0671 21.1506 15.458 21.5346 14.708 21.5346C13.9577 21.5346 13.3489 21.1506 13.3489 20.6774V19.6986H10.3405C9.59051 19.6986 8.98139 19.3147 8.98139 18.8415C8.98139 18.3679 9.59051 17.9844 10.3405 17.9844H10.4375V12.3536H10.3405C9.59051 12.3536 8.98139 11.9701 8.98139 11.4965C8.98139 11.0233 9.59051 10.6393 10.3405 10.6393H13.3489V9.66055C13.3489 9.18734 13.9577 8.80341 14.708 8.80341C15.458 8.80341 16.0671 9.18734 16.0671 9.66055V10.6393H16.1641C17.3048 10.6393 18.3776 10.9199 19.1838 11.4291C19.9894 11.9364 20.4343 12.613 20.4343 13.3331C20.4343 14.0415 19.9975 14.6877 19.2854 15.169C19.9975 15.6502 20.4343 16.2964 20.4343 17.0049Z" fill="white"/>
<rect x="5.80957" y="8.32715" width="17.7979" height="15.5731" fill="white"/>
<path d="M12.7219 21.5167H15.5823H12.7219ZM9.14649 12.2205C9.14649 10.8929 9.67386 9.6197 10.6126 8.68096C11.5513 7.74222 12.8246 7.21484 14.1521 7.21484C15.4797 7.21484 16.7529 7.74222 17.6917 8.68096C18.6304 9.6197 19.1578 10.8929 19.1578 12.2205C19.1582 13.0264 18.9633 13.8205 18.5897 14.5346C18.2161 15.2488 17.6749 15.8617 17.0125 16.3208L16.6249 18.1558C16.5736 18.494 16.4028 18.8026 16.1434 19.0256C15.884 19.2487 15.5533 19.3713 15.2112 19.3714H13.0931C12.751 19.3713 12.4203 19.2487 12.1609 19.0256C11.9015 18.8026 11.7307 18.494 11.6793 18.1558L11.2918 16.3287C10.6292 15.8679 10.088 15.2536 9.71438 14.5382C9.3408 13.8228 9.14595 13.0276 9.14649 12.2205V12.2205Z" stroke="#4C5BD4" stroke-width="1.5" stroke-linecap="round" stroke-linejoin="round"/>
<path d="M11.292 15.3979H17.0127" stroke="#4C5BD4" stroke-width="1.8" stroke-linecap="round" stroke-linejoin="round"/>
</svg>
