<svg width="30" height="29" viewBox="0 0 30 29" fill="none" xmlns="http://www.w3.org/2000/svg">
<path d="M28.6819 12.7868L15.7067 0.963982C15.1362 0.444298 14.2776 0.444298 13.7071 0.963982L0.7319 12.7868C0.274353 13.2048 0.127485 13.8431 0.347786 14.4193C0.568087 14.9955 1.11601 15.3683 1.73173 15.3683H3.80481V27.2137C3.80481 27.6826 4.18328 28.0667 4.65777 28.0667H11.7695C12.2384 28.0667 12.6225 27.6882 12.6225 27.2137V20.0229H16.8026V27.2137C16.8026 27.6826 17.181 28.0667 17.6555 28.0667H24.7616C25.2305 28.0667 25.6146 27.6882 25.6146 27.2137V15.3683H27.6877C28.3034 15.3683 28.8457 14.9955 29.0716 14.4193C29.2863 13.8431 29.1394 13.2048 28.6819 12.7868Z" fill="white"/>
</svg>
