<svg width="30" height="28" viewBox="0 0 30 28" fill="none" xmlns="http://www.w3.org/2000/svg">
<path d="M17.9167 13.9121C17.7512 14.0776 17.5343 14.1603 17.3174 14.1603C17.1007 14.1603 16.8838 14.0776 16.7183 13.9121C16.3876 13.5813 16.3876 13.0447 16.7183 12.7139L19.2572 10.1751C18.6932 9.8251 18.0286 9.62231 17.3174 9.62231C15.2825 9.62231 13.627 11.2781 13.627 13.313C13.627 15.3479 15.2825 17.0035 17.3174 17.0035C19.3525 17.0035 21.0079 15.3479 21.0079 13.313C21.0079 12.6018 20.8053 11.9374 20.4554 11.3734L17.9167 13.9121Z" fill="white"/>
<path d="M25.5988 0.810303H3.81705C1.84859 0.810303 0.24707 2.41182 0.24707 4.38028V23.4394C0.24707 25.1159 1.40904 26.5255 2.96974 26.9068C8.29459 27.0696 6.77854 27.0102 8.29459 27.0094C9.09018 27.0089 8.72023 26.7947 8.72023 26.7947C8.72023 26.7947 7.50575 26.7382 7.84467 27.0094H8.29459H21.1211C26.4009 26.9924 24.9775 26.907 26.4459 26.907C27.1575 26.907 25.8078 25.439 25.8078 25.439C25.8078 25.439 24.565 26.2649 26.4459 26.907C28.0066 26.5255 29.1686 25.1159 29.1686 23.4394V4.38028C29.1688 2.41182 27.5673 0.810303 25.5988 0.810303ZM25.5386 21.1704C25.5386 22.3882 24.5476 23.3789 23.3298 23.3789H6.99361C5.77559 23.3789 4.78485 22.3882 4.78485 21.1704V19.7487H3.81705C3.34904 19.7487 2.96974 19.3694 2.96974 18.9014C2.96974 18.4334 3.34904 18.0541 3.81705 18.0541H4.78485V9.76538H3.81705C3.34904 9.76538 2.96974 9.38607 2.96974 8.91806C2.96974 8.45027 3.34904 8.07074 3.81705 8.07074H4.78485V6.64928C4.78485 5.43127 5.77559 4.44052 6.99361 4.44052H23.3298C24.5476 4.44052 25.5386 5.43127 25.5386 6.64928V21.1704Z" fill="white"/>
<path d="M23.2166 6.00732H6.88034C6.5968 6.00732 6.36621 6.23813 6.36621 6.52145V7.94313H7.33401C7.80201 7.94313 8.18132 8.32244 8.18132 8.79045C8.18132 9.25824 7.80201 9.63777 7.33401 9.63777H6.36621V17.9262H7.33401C7.80201 17.9262 8.18132 18.3058 8.18132 18.7736C8.18132 19.2416 7.80201 19.6209 7.33401 19.6209H6.36621V21.0426C6.36621 21.3261 6.5968 21.5567 6.88034 21.5567H23.2166C23.5001 21.5567 23.7307 21.3259 23.7307 21.0426V6.52145C23.7307 6.23791 23.5001 6.00732 23.2166 6.00732ZM17.3173 18.7133C14.348 18.7133 11.9322 16.2976 11.9322 13.3282C11.9322 10.3589 14.348 7.94313 17.3173 7.94313C18.7851 7.94313 20.1172 8.53339 21.0894 9.48904C21.1014 9.49964 21.1135 9.50956 21.1247 9.52082C21.136 9.53207 21.1461 9.54421 21.1565 9.55612C22.1122 10.5283 22.7026 11.8606 22.7026 13.3282C22.7024 16.2976 20.2867 18.7133 17.3173 18.7133Z" fill="white"/>
</svg>
