<svg width="30" height="27" viewBox="0 0 30 27" fill="none" xmlns="http://www.w3.org/2000/svg">
<path d="M27.9181 4.7588C27.1119 4.24965 26.0391 3.96907 24.8984 3.96907H4.32436C3.94919 3.96907 3.60942 3.87309 3.36379 3.71774C3.11745 3.56283 2.96526 3.34854 2.96526 3.11194C2.96526 2.63873 3.57403 2.2548 4.32436 2.2548H26.3534C27.1048 2.2548 27.7125 1.87087 27.7125 1.39766C27.7125 0.924453 27.1048 0.540527 26.3534 0.540527H4.51725C3.37653 0.540527 2.30377 0.821106 1.49928 1.32914C0.691962 1.83762 0.24707 2.51417 0.24707 3.23359V25.2678C0.24707 25.7415 0.855832 26.1249 1.60617 26.1249H24.8984C26.0391 26.1249 27.1119 25.8448 27.9174 25.3363C28.7237 24.8279 29.1686 24.1517 29.1686 23.4319V6.66213C29.1686 5.94272 28.7237 5.26616 27.9181 4.7588ZM20.4343 17.0049C20.4343 17.725 19.9894 18.4016 19.182 18.9096C18.3776 19.4181 17.3048 19.6986 16.1641 19.6986H16.0671V20.6774C16.0671 21.1506 15.458 21.5346 14.708 21.5346C13.9577 21.5346 13.3489 21.1506 13.3489 20.6774V19.6986H10.3405C9.59051 19.6986 8.98139 19.3147 8.98139 18.8415C8.98139 18.3679 9.59051 17.9844 10.3405 17.9844H10.4375V12.3536H10.3405C9.59051 12.3536 8.98139 11.9701 8.98139 11.4965C8.98139 11.0233 9.59051 10.6393 10.3405 10.6393H13.3489V9.66055C13.3489 9.18734 13.9577 8.80341 14.708 8.80341C15.458 8.80341 16.0671 9.18734 16.0671 9.66055V10.6393H16.1641C17.3048 10.6393 18.3776 10.9199 19.1838 11.4291C19.9894 11.9364 20.4343 12.613 20.4343 13.3331C20.4343 14.0415 19.9975 14.6877 19.2854 15.169C19.9975 15.6502 20.4343 16.2964 20.4343 17.0049Z" fill="white"/>
<rect x="5.80957" y="8.32715" width="17.7979" height="15.5731" fill="white"/>
</svg>
