<svg width="30" height="28" viewBox="0 0 30 28" fill="none" xmlns="http://www.w3.org/2000/svg">
<path d="M25.6339 0.816406H3.83625C1.86635 0.816406 0.263672 2.41909 0.263672 4.38898V23.4619C0.263672 25.1397 1.42649 26.5503 2.98832 26.9318C8.31704 27.0948 6.79989 27.0354 8.31704 27.0345C9.11322 27.0341 8.743 26.8197 8.743 26.8197C8.743 26.8197 7.52763 26.7631 7.8668 27.0345H8.31704H21.1528C26.4365 27.0175 25.012 26.9321 26.4816 26.9321C27.1937 26.9321 25.843 25.463 25.843 25.463C25.843 25.463 24.5993 26.2895 26.4816 26.9321C28.0434 26.5503 29.2062 25.1397 29.2062 23.4619V4.38898C29.2064 2.41909 27.6038 0.816406 25.6339 0.816406ZM25.5736 21.1913C25.5736 22.41 24.5819 23.4014 23.3632 23.4014H7.01511C5.79621 23.4014 4.80475 22.41 4.80475 21.1913V19.7686H3.83625C3.3679 19.7686 2.98832 19.389 2.98832 18.9206C2.98832 18.4523 3.3679 18.0727 3.83625 18.0727H4.80475V9.77799H3.83625C3.3679 9.77799 2.98832 9.39841 2.98832 8.93006C2.98832 8.46193 3.3679 8.08213 3.83625 8.08213H4.80475V6.65963C4.80475 5.44073 5.79621 4.44927 7.01511 4.44927H23.3632C24.5819 4.44927 25.5736 5.44073 25.5736 6.65963V21.1913Z" fill="white"/>
<rect x="2.49023" y="3.04199" width="25.603" height="22.2635" fill="white"/>
<path d="M14.7337 20.8522C18.4225 20.8522 21.4128 17.8619 21.4128 14.1732C21.4128 10.4845 18.4225 7.49414 14.7337 7.49414C11.045 7.49414 8.05469 10.4845 8.05469 14.1732C8.05469 17.8619 11.045 20.8522 14.7337 20.8522Z" stroke="#4C5BD4" stroke-width="1.5" stroke-linecap="round" stroke-linejoin="round"/>
<path d="M12.0611 14.1732C12.0611 17.8619 13.2572 20.8522 14.7327 20.8522C16.2082 20.8522 17.4043 17.8619 17.4043 14.1732C17.4043 10.4845 16.2082 7.49414 14.7327 7.49414C13.2572 7.49414 12.0611 10.4845 12.0611 14.1732Z" stroke="#4C5BD4" stroke-width="1.5" stroke-linecap="round" stroke-linejoin="round"/>
<path d="M8.05469 14.1738H21.4128" stroke="#4C5BD4" stroke-width="1.5" stroke-linecap="round" stroke-linejoin="round"/>
</svg>
