<svg width="30" height="26" viewBox="0 0 30 26" fill="none" xmlns="http://www.w3.org/2000/svg">
<path d="M28.431 8.34958C28.8574 8.34958 29.2062 8.07954 29.2062 7.74951V5.74927C29.2062 5.41923 28.8574 5.1492 28.431 5.1492H27.1389V2.74892C27.1389 1.42376 25.7499 0.348633 24.0379 0.348633H3.36466C1.65266 0.348633 0.263672 1.42376 0.263672 2.74892V23.5514C0.263672 24.8765 1.65266 25.9517 3.36466 25.9517H24.0379C25.7499 25.9517 27.1389 24.8765 27.1389 23.5514V21.1511H28.431C28.8574 21.1511 29.2062 20.8811 29.2062 20.551V18.5508C29.2062 18.2207 28.8574 17.9507 28.431 17.9507H27.1389V14.7503H28.431C28.8574 14.7503 29.2062 14.4803 29.2062 14.1503V12.15C29.2062 11.82 28.8574 11.55 28.431 11.55H27.1389V8.34958H28.431ZM13.7013 6.74939C15.9818 6.74939 17.8359 8.18456 17.8359 9.94976C17.8359 11.715 15.9818 13.1501 13.7013 13.1501C11.4208 13.1501 9.56663 11.715 9.56663 9.94976C9.56663 8.18456 11.4208 6.74939 13.7013 6.74939ZM20.9369 18.5908C20.9369 19.1208 20.2909 19.5509 19.4898 19.5509H7.91277C7.11168 19.5509 6.46564 19.1208 6.46564 18.5908V17.6307C6.46564 16.0405 8.41022 14.7503 10.807 14.7503H11.13C11.9247 15.0054 12.7904 15.1504 13.7013 15.1504C14.6122 15.1504 15.4843 15.0054 16.2725 14.7503H16.5955C18.9923 14.7503 20.9369 16.0405 20.9369 17.6307V18.5908Z" fill="white"/>
<rect x="4.7168" y="1.46191" width="16.6976" height="22.2635" fill="white"/>
<path d="M21.1888 14.3439C20.8235 14.1226 20.4015 14.0128 19.9747 14.0281C19.5479 14.0434 19.1349 14.1831 18.7864 14.4299C18.7181 14.4789 18.6372 14.5072 18.5533 14.5115C18.4694 14.5158 18.386 14.4959 18.3131 14.4542L16.1363 13.1982C16.1281 13.1933 16.1213 13.1863 16.1166 13.178C16.1119 13.1696 16.1094 13.1602 16.1094 13.1507C16.1094 13.1411 16.1119 13.1317 16.1166 13.1234C16.1213 13.1151 16.1281 13.1081 16.1363 13.1031L18.3013 11.8541C18.3746 11.812 18.4584 11.792 18.5427 11.7965C18.627 11.8009 18.7082 11.8296 18.7767 11.8791C19.1247 12.1287 19.5382 12.2708 19.9662 12.288C20.3941 12.3051 20.8177 12.1965 21.1846 11.9755C21.6626 11.6804 22.0108 11.2149 22.1587 10.6729C22.3065 10.131 22.2431 9.55312 21.9812 9.05614C21.7416 8.61311 21.3566 8.26617 20.8911 8.07371C20.4256 7.88125 19.908 7.85503 19.4254 7.99945C18.9429 8.14388 18.5248 8.45014 18.2416 8.86668C17.9584 9.28322 17.8273 9.78462 17.8704 10.2865C17.8782 10.3699 17.8621 10.4537 17.8239 10.5282C17.7856 10.6028 17.7269 10.6648 17.6546 10.707L15.4784 11.9637C15.4701 11.9682 15.4607 11.9705 15.4513 11.9704C15.4418 11.9703 15.4325 11.9677 15.4243 11.963C15.4161 11.9582 15.4092 11.9515 15.4044 11.9434C15.3995 11.9352 15.3968 11.926 15.3965 11.9165V9.40311C15.3969 9.31907 15.4215 9.23691 15.4672 9.16641C15.513 9.09592 15.5781 9.04006 15.6547 9.00549C16.1087 8.7966 16.4776 8.4388 16.7004 7.99144C16.9231 7.54407 16.9863 7.03401 16.8794 6.54582C16.7725 6.05764 16.5019 5.62067 16.1125 5.30736C15.7232 4.99406 15.2384 4.82324 14.7387 4.82324C14.2389 4.82324 13.7542 4.99406 13.3648 5.30736C12.9755 5.62067 12.7049 6.05764 12.598 6.54582C12.4911 7.03401 12.5542 7.54407 12.777 7.99144C12.9997 8.4388 13.3687 8.7966 13.8227 9.00549C13.8994 9.03996 13.9646 9.09578 14.0105 9.16628C14.0564 9.23678 14.0811 9.31899 14.0815 9.40311V11.9165C14.0813 11.9261 14.0786 11.9354 14.0737 11.9437C14.0688 11.9519 14.0619 11.9587 14.0536 11.9634C14.0453 11.9682 14.0359 11.9707 14.0263 11.9708C14.0167 11.9708 14.0073 11.9684 13.999 11.9637L11.8235 10.7077C11.7512 10.6656 11.6925 10.6037 11.6543 10.5293C11.616 10.4549 11.5999 10.3711 11.6077 10.2879C11.6508 9.79018 11.5226 9.29268 11.2442 8.87787C10.9658 8.46307 10.554 8.15586 10.0771 8.0072C9.60014 7.85853 9.08673 7.87733 8.62195 8.06048C8.15717 8.24363 7.76895 8.58012 7.52165 9.01418C7.27434 9.44824 7.18282 9.95378 7.26224 10.447C7.34167 10.9402 7.58728 11.3914 7.95834 11.7259C8.32941 12.0604 8.80364 12.258 9.30242 12.286C9.8012 12.314 10.2946 12.1706 10.7007 11.8797C10.7692 11.8298 10.8506 11.8008 10.9352 11.7961C11.0198 11.7915 11.1039 11.8113 11.1774 11.8534L13.3425 13.1025C13.3507 13.1074 13.3575 13.1144 13.3622 13.1227C13.3669 13.131 13.3693 13.1404 13.3693 13.15C13.3693 13.1596 13.3669 13.169 13.3622 13.1773C13.3575 13.1856 13.3507 13.1926 13.3425 13.1975L11.1642 14.4549C11.0912 14.4968 11.0077 14.5167 10.9237 14.5124C10.8397 14.5081 10.7586 14.4797 10.6903 14.4306C10.3419 14.1839 9.92896 14.0443 9.5023 14.029C9.07563 14.0137 8.65379 14.1234 8.2886 14.3446C7.81206 14.6401 7.46525 15.1053 7.31807 15.6464C7.17088 16.1875 7.23426 16.7643 7.49544 17.2605C7.73577 17.7045 8.12201 18.052 8.58891 18.2442C9.05581 18.4364 9.57474 18.4615 10.058 18.3153C10.5413 18.1691 10.9593 17.8606 11.2414 17.4418C11.5235 17.0231 11.6524 16.5198 11.6063 16.017C11.5978 15.9332 11.6136 15.8488 11.6517 15.7737C11.6899 15.6987 11.7488 15.6362 11.8214 15.5937L13.9983 14.3376C14.0066 14.333 14.016 14.3306 14.0256 14.3306C14.0352 14.3306 14.0446 14.3332 14.0529 14.3379C14.0612 14.3427 14.0681 14.3495 14.073 14.3577C14.0779 14.3659 14.0806 14.3753 14.0808 14.3848V16.8976C14.0804 16.9816 14.0559 17.0638 14.0101 17.1343C13.9644 17.2047 13.8993 17.2606 13.8227 17.2952C13.3687 17.5041 12.9997 17.8619 12.777 18.3092C12.5542 18.7566 12.4911 19.2667 12.598 19.7548C12.7049 20.243 12.9755 20.68 13.3648 20.9933C13.7542 21.3066 14.2389 21.4774 14.7387 21.4774C15.2384 21.4774 15.7232 21.3066 16.1125 20.9933C16.5019 20.68 16.7725 20.243 16.8794 19.7548C16.9863 19.2667 16.9231 18.7566 16.7004 18.3092C16.4776 17.8619 16.1087 17.5041 15.6547 17.2952C15.578 17.2606 15.5128 17.2048 15.467 17.1343C15.4211 17.0638 15.3964 16.9817 15.3958 16.8976V14.3848C15.396 14.3753 15.3986 14.366 15.4034 14.3578C15.4082 14.3495 15.4151 14.3427 15.4233 14.3379C15.4315 14.3331 15.4409 14.3305 15.4504 14.3303C15.4599 14.3301 15.4693 14.3324 15.4777 14.337L17.6546 15.5944C17.7272 15.6367 17.7861 15.6991 17.8243 15.774C17.8624 15.849 17.8782 15.9333 17.8697 16.017C17.8236 16.5198 17.9525 17.0231 18.2346 17.4418C18.5167 17.8606 18.9347 18.1691 19.418 18.3153C19.9012 18.4615 20.4202 18.4364 20.8871 18.2442C21.354 18.052 21.7402 17.7045 21.9805 17.2605C22.242 16.7644 22.3058 16.1875 22.1588 15.6463C22.0119 15.1051 21.6652 14.6397 21.1888 14.3439Z" fill="#4C5BD4"/>
</svg>
