<svg width="23" height="21" viewBox="0 0 23 21" fill="none" xmlns="http://www.w3.org/2000/svg">
<path d="M8.84979 0H1C0.447715 0 0 0.447715 0 1V7.99329C0 8.54557 0.447715 8.99329 1 8.99329H8.84979C9.40208 8.99329 9.84979 8.54557 9.84979 7.99329V1C9.84979 0.447715 9.40208 0 8.84979 0Z" fill="#A3A3A3"/>
<path d="M22.0002 0H14.1504C13.5981 0 13.1504 0.447715 13.1504 1V7.99329C13.1504 8.54557 13.5981 8.99329 14.1504 8.99329H22.0002C22.5525 8.99329 23.0002 8.54557 23.0002 7.99329V1C23.0002 0.447715 22.5525 0 22.0002 0Z" fill="#A3A3A3"/>
<path d="M22.0002 12.0065H14.1504C13.5981 12.0065 13.1504 12.4542 13.1504 13.0065V19.9998C13.1504 20.5521 13.5981 20.9998 14.1504 20.9998H22.0002C22.5525 20.9998 23.0002 20.5521 23.0002 19.9998V13.0065C23.0002 12.4542 22.5525 12.0065 22.0002 12.0065Z" fill="#A3A3A3"/>
<path d="M8.84979 12.0065H1C0.447715 12.0065 0 12.4542 0 13.0065V19.9998C0 20.5521 0.447715 20.9998 1 20.9998H8.84979C9.40208 20.9998 9.84979 20.5521 9.84979 19.9998V13.0065C9.84979 12.4542 9.40208 12.0065 8.84979 12.0065Z" fill="#A3A3A3"/>
</svg>
