<svg width="22" height="22" viewBox="0 0 22 22" fill="none" xmlns="http://www.w3.org/2000/svg">
<path d="M4.86533 9.21588V12.7841C4.86533 13.3761 4.45582 13.8578 3.95125 13.8578H0.914077C0.409507 13.8578 0 13.3761 0 12.7841V9.21588C0 8.62248 0.409507 8.14218 0.914077 8.14218H3.95125C4.45582 8.14218 4.86533 8.62391 4.86533 9.21588ZM21.2017 8.14218H8.09811H7.62219C7.11822 8.14218 6.70811 8.62248 6.70811 9.21588V12.7841C6.70811 13.3761 7.11822 13.8578 7.62219 13.8578H8.09811H21.2023C21.7069 13.8578 22.1164 13.3761 22.1164 12.7841V9.21588C22.1158 8.62391 21.7069 8.14218 21.2017 8.14218ZM3.95125 0H0.914077C0.409507 0 0 0.480299 0 1.07369V4.64194C0 5.23533 0.409507 5.71563 0.914077 5.71563H3.95125C4.45582 5.71563 4.86533 5.23533 4.86533 4.64194V1.07369C4.86533 0.481731 4.45582 0 3.95125 0ZM21.2017 0H8.09811H7.62219C7.11822 0 6.70811 0.480299 6.70811 1.07369V4.64194C6.70811 5.23533 7.11822 5.71563 7.62219 5.71563H8.09811H21.2023C21.7069 5.71563 22.1164 5.23533 22.1164 4.64194V1.07369C22.1158 0.481731 21.7069 0 21.2017 0ZM3.95125 16.2851H0.914077C0.409507 16.2851 0 16.7654 0 17.3588V20.9263C0 21.5204 0.409507 22 0.914077 22H3.95125C4.45582 22 4.86533 21.5204 4.86533 20.9263V17.3588C4.86533 16.7654 4.45582 16.2851 3.95125 16.2851ZM21.2017 16.2851H8.09811H7.62219C7.11822 16.2851 6.70811 16.7654 6.70811 17.3588V20.9263C6.70811 21.5204 7.11822 22 7.62219 22H8.09811H21.2023C21.7069 22 22.1164 21.5204 22.1164 20.9263V17.3588C22.1158 16.7654 21.7069 16.2851 21.2017 16.2851Z" fill="#474747"/>
</svg>
