<svg width="50" height="50" viewBox="0 0 50 50" fill="none" xmlns="http://www.w3.org/2000/svg">
<ellipse cx="25" cy="25" rx="25" ry="25" fill="#CCCCCC"/>
<path d="M24.9994 23.0364C26.2621 23.0364 27.4963 22.662 28.5462 21.9605C29.596 21.2591 30.4142 20.262 30.8974 19.0955C31.3806 17.929 31.507 16.6454 31.2607 15.407C31.0144 14.1687 30.4064 13.0312 29.5136 12.1384C28.6208 11.2456 27.4832 10.6375 26.2449 10.3912C25.0065 10.1449 23.7229 10.2713 22.5564 10.7545C21.3899 11.2377 20.3929 12.0559 19.6914 13.1058C18.9899 14.1556 18.6155 15.3899 18.6155 16.6525C18.6155 18.3456 19.2881 19.9694 20.4853 21.1666C21.6825 22.3638 23.3063 23.0364 24.9994 23.0364ZM28.928 24.5096H21.0709C18.8568 24.5096 16.7334 25.3892 15.1678 26.9548C13.6022 28.5204 12.7227 30.6438 12.7227 32.8578V39.2418C12.7227 39.372 12.7744 39.4969 12.8665 39.589C12.9586 39.6811 13.0835 39.7328 13.2137 39.7328H36.7852C36.9154 39.7328 37.0403 39.6811 37.1324 39.589C37.2245 39.4969 37.2762 39.372 37.2762 39.2418V32.8578C37.2762 30.6438 36.3967 28.5204 34.8311 26.9548C33.2655 25.3892 31.1421 24.5096 28.928 24.5096Z" fill="#474747"/>
<path d="M29.4918 33.954H20.5067C20.2167 33.9311 19.946 33.7997 19.7485 33.586C19.5511 33.3724 19.4414 33.0921 19.4414 32.8012C19.4414 32.5103 19.5511 32.2301 19.7485 32.0164C19.946 31.8027 20.2167 31.6713 20.5067 31.6484H29.4918C29.7819 31.6713 30.0526 31.8027 30.25 32.0164C30.4475 32.2301 30.5571 32.5103 30.5571 32.8012C30.5571 33.0921 30.4475 33.3724 30.25 33.586C30.0526 33.7997 29.7819 33.9311 29.4918 33.954Z" fill="white"/>
<path d="M29.1468 33.6093C28.8404 33.6076 28.5466 33.4865 28.328 33.2717L26.2595 31.196C26.1395 31.0919 26.0424 30.9641 25.9743 30.8206C25.9062 30.6771 25.8685 30.521 25.8638 30.3623C25.859 30.2035 25.8873 30.0455 25.9467 29.8981C26.0061 29.7508 26.0954 29.6174 26.2089 29.5063C26.3225 29.3953 26.4578 29.3089 26.6064 29.2528C26.755 29.1967 26.9137 29.172 27.0723 29.1803C27.2309 29.1885 27.3861 29.2296 27.5281 29.3009C27.67 29.3721 27.7957 29.4721 27.8971 29.5943L29.9728 31.6701C30.0803 31.7769 30.1656 31.9039 30.2238 32.0438C30.282 32.1837 30.312 32.3337 30.312 32.4853C30.312 32.6368 30.282 32.7868 30.2238 32.9267C30.1656 33.0666 30.0803 33.1937 29.9728 33.3005C29.7482 33.5071 29.4519 33.6179 29.1468 33.6093Z" fill="white"/>
<path d="M27.0721 36.374C26.8451 36.3717 26.6239 36.3026 26.4359 36.1754C26.248 36.0482 26.1016 35.8684 26.0151 35.6586C25.9285 35.4488 25.9057 35.2182 25.9493 34.9954C25.9929 34.7727 26.1012 34.5677 26.2605 34.4061L28.329 32.3304C28.5465 32.1168 28.8393 31.9971 29.1442 31.9971C29.4491 31.9971 29.7418 32.1168 29.9594 32.3304C30.0669 32.4372 30.1522 32.5642 30.2104 32.7041C30.2686 32.844 30.2986 32.994 30.2986 33.1456C30.2986 33.2971 30.2686 33.4471 30.2104 33.5871C30.1522 33.727 30.0669 33.854 29.9594 33.9608L27.898 36.058C27.7881 36.1626 27.6584 36.2444 27.5167 36.2987C27.3749 36.3529 27.2238 36.3785 27.0721 36.374Z" fill="white"/>
</svg>
