<svg width="50" height="50" viewBox="0 0 50 50" fill="none" xmlns="http://www.w3.org/2000/svg">
<ellipse cx="25" cy="25" rx="25" ry="25" fill="#CCCCCC"/>
<path d="M25.0003 23.0573C26.2491 23.0573 27.4699 22.687 28.5083 21.9931C29.5467 21.2993 30.356 20.3132 30.8339 19.1594C31.3118 18.0056 31.4369 16.736 31.1932 15.5111C30.9496 14.2863 30.3482 13.1612 29.4652 12.2781C28.5821 11.3951 27.457 10.7937 26.2321 10.55C25.0073 10.3064 23.7377 10.4314 22.5839 10.9094C21.4301 11.3873 20.444 12.1966 19.7501 13.235C19.0563 14.2733 18.686 15.4942 18.686 16.743C18.686 18.4177 19.3512 20.0237 20.5354 21.2079C21.7196 22.392 23.3256 23.0573 25.0003 23.0573ZM28.886 24.5144H21.1146C18.9246 24.5144 16.8244 25.3844 15.2759 26.9329C13.7274 28.4814 12.8574 30.5816 12.8574 32.7716V39.0859C12.8574 39.2147 12.9086 39.3382 12.9997 39.4293C13.0908 39.5204 13.2143 39.5716 13.3431 39.5716H36.6574C36.7862 39.5716 36.9098 39.5204 37.0009 39.4293C37.092 39.3382 37.1431 39.2147 37.1431 39.0859V32.7716C37.1431 30.5816 36.2732 28.4814 34.7247 26.9329C33.1762 25.3844 31.0759 24.5144 28.886 24.5144Z" fill="#474747"/>
<rect x="19.4863" y="29.292" width="11.4286" height="1.42857" rx="0.714284" fill="white"/>
<rect x="19.4863" y="32.2012" width="11.4286" height="1.42857" rx="0.714285" fill="white"/>
<rect x="19.5469" y="34.998" width="11.4286" height="1.42857" rx="0.714285" fill="white"/>
</svg>
