<svg width="20" height="21" viewBox="0 0 20 21" fill="none" xmlns="http://www.w3.org/2000/svg">
<path d="M13.334 9.2627C14.7173 9.2627 15.8256 8.14603 15.8256 6.7627C15.8256 5.37936 14.7173 4.2627 13.334 4.2627C11.9507 4.2627 10.834 5.37936 10.834 6.7627C10.834 8.14603 11.9507 9.2627 13.334 9.2627ZM6.66732 9.2627C8.05065 9.2627 9.15898 8.14603 9.15898 6.7627C9.15898 5.37936 8.05065 4.2627 6.66732 4.2627C5.28398 4.2627 4.16732 5.37936 4.16732 6.7627C4.16732 8.14603 5.28398 9.2627 6.66732 9.2627ZM6.66732 10.9294C4.72565 10.9294 0.833984 11.9044 0.833984 13.846V15.096C0.833984 15.5544 1.20898 15.9294 1.66732 15.9294H11.6673C12.1257 15.9294 12.5007 15.5544 12.5007 15.096V13.846C12.5007 11.9044 8.60898 10.9294 6.66732 10.9294ZM13.334 10.9294C13.0923 10.9294 12.8173 10.946 12.5257 10.971C12.5423 10.9794 12.5506 10.996 12.559 11.0044C13.509 11.696 14.1673 12.621 14.1673 13.846V15.096C14.1673 15.3877 14.109 15.671 14.0173 15.9294H18.334C18.7923 15.9294 19.1673 15.5544 19.1673 15.096V13.846C19.1673 11.9044 15.2757 10.9294 13.334 10.9294Z" fill="#666666"/>
</svg>
