<svg width="24" height="24" viewBox="0 0 24 24" fill="none" xmlns="http://www.w3.org/2000/svg">
<path d="M22.7345 11.1654L2.10954 0.852917C1.94789 0.772074 1.76631 0.739681 1.58668 0.759641C1.40704 0.7796 1.23701 0.851061 1.09704 0.965417C0.963377 1.07744 0.86361 1.22453 0.808956 1.39015C0.754303 1.55576 0.74693 1.73334 0.787666 1.90292L3.27204 11.0623H13.8752V12.9373H3.27204L0.750166 22.0685C0.711941 22.2102 0.707479 22.3588 0.737139 22.5024C0.766799 22.6461 0.829754 22.7808 0.92094 22.8957C1.01213 23.0106 1.129 23.1024 1.26217 23.164C1.39533 23.2255 1.54107 23.2549 1.68767 23.2498C1.83442 23.2489 1.97893 23.2136 2.10954 23.1467L22.7345 12.8342C22.8881 12.7555 23.017 12.636 23.107 12.4888C23.197 12.3415 23.2446 12.1723 23.2446 11.9998C23.2446 11.8272 23.197 11.6581 23.107 11.5108C23.017 11.3636 22.8881 11.2441 22.7345 11.1654Z" fill="url(#paint0_linear_2_15097)"/>
<defs>
<linearGradient id="paint0_linear_2_15097" x1="11.9812" y1="0.753906" x2="11.9812" y2="23.2504" gradientUnits="userSpaceOnUse">
<stop stop-color="#4250C2"/>
<stop offset="1" stop-color="#00A1FF"/>
</linearGradient>
</defs>
</svg>
