<svg width="24" height="25" viewBox="0 0 24 25" fill="none" xmlns="http://www.w3.org/2000/svg">
<path d="M12.2606 4.84425C12.1908 4.77749 12.0979 4.74023 12.0013 4.74023C11.9048 4.74023 11.8119 4.77749 11.7421 4.84425L3.11243 13.0882C3.07578 13.1232 3.04662 13.1653 3.02672 13.212C3.00682 13.2586 2.99659 13.3088 2.99665 13.3596L2.99524 21.0968C2.99524 21.4946 3.15327 21.8761 3.43458 22.1574C3.71588 22.4387 4.09741 22.5968 4.49524 22.5968H8.99993C9.19884 22.5968 9.3896 22.5177 9.53026 22.3771C9.67091 22.2364 9.74993 22.0457 9.74993 21.8468V15.4718C9.74993 15.3723 9.78944 15.2769 9.85976 15.2066C9.93009 15.1363 10.0255 15.0968 10.1249 15.0968H13.8749C13.9744 15.0968 14.0698 15.1363 14.1401 15.2066C14.2104 15.2769 14.2499 15.3723 14.2499 15.4718V21.8468C14.2499 22.0457 14.3289 22.2364 14.4696 22.3771C14.6102 22.5177 14.801 22.5968 14.9999 22.5968H19.5027C19.9006 22.5968 20.2821 22.4387 20.5634 22.1574C20.8447 21.8761 21.0027 21.4946 21.0027 21.0968V13.3596C21.0028 13.3088 20.9926 13.2586 20.9727 13.212C20.9528 13.1653 20.9236 13.1232 20.887 13.0882L12.2606 4.84425Z" fill="#666666"/>
<path d="M23.0114 11.5407L19.5052 8.18636V3.09619C19.5052 2.89728 19.4262 2.70651 19.2855 2.56586C19.1449 2.42521 18.9541 2.34619 18.7552 2.34619H16.5052C16.3063 2.34619 16.1155 2.42521 15.9748 2.56586C15.8342 2.70651 15.7552 2.89728 15.7552 3.09619V4.5962L13.0402 2.00025C12.7861 1.74338 12.4083 1.59619 12 1.59619C11.5931 1.59619 11.2163 1.74338 10.9622 2.00072L0.991893 11.5398C0.70033 11.821 0.663768 12.2837 0.92908 12.5884C0.995704 12.6653 1.07728 12.7278 1.16885 12.7722C1.26041 12.8166 1.36005 12.8419 1.46169 12.8465C1.56334 12.8512 1.66487 12.8351 1.7601 12.7993C1.85533 12.7634 1.94228 12.7086 2.01564 12.6381L11.7422 3.34369C11.812 3.27693 11.9048 3.23967 12.0014 3.23967C12.098 3.23967 12.1909 3.27693 12.2606 3.34369L21.9881 12.6381C22.1314 12.7755 22.3234 12.8505 22.5219 12.8466C22.7204 12.8428 22.9092 12.7603 23.0471 12.6175C23.3349 12.3193 23.311 11.8271 23.0114 11.5407Z" fill="#666666"/>
</svg>
