<svg width="24" height="25" viewBox="0 0 24 25" fill="none" xmlns="http://www.w3.org/2000/svg">
<path d="M9.9375 3.1582C9.39049 3.1582 8.86589 3.3755 8.47909 3.7623C8.0923 4.14909 7.875 4.67369 7.875 5.2207V5.9082H3.0625C2.51549 5.9082 1.99089 6.1255 1.60409 6.5123C1.2173 6.89909 1 7.42369 1 7.9707L1 9.8737L11.4692 12.665C11.817 12.7576 12.183 12.7576 12.5307 12.665L23 9.8737V7.9707C23 7.42369 22.7827 6.89909 22.3959 6.5123C22.0091 6.1255 21.4845 5.9082 20.9375 5.9082H16.125V5.2207C16.125 4.67369 15.9077 4.14909 15.5209 3.7623C15.1341 3.3755 14.6095 3.1582 14.0625 3.1582H9.9375ZM9.9375 4.5332H14.0625C14.2448 4.5332 14.4197 4.60564 14.5486 4.73457C14.6776 4.8635 14.75 5.03837 14.75 5.2207V5.9082H9.25V5.2207C9.25 5.03837 9.32243 4.8635 9.45136 4.73457C9.5803 4.60564 9.75516 4.5332 9.9375 4.5332Z" fill="#666666"/>
<path d="M1 18.9719C1 19.5189 1.2173 20.0435 1.60409 20.4303C1.99089 20.8171 2.51549 21.0344 3.0625 21.0344H20.9375C21.4845 21.0344 22.0091 20.8171 22.3959 20.4303C22.7827 20.0435 23 19.5189 23 18.9719V11.2031L12.1774 14.0865C12.0612 14.1175 11.9388 14.1175 11.8226 14.0865L1 11.2031V18.9719Z" fill="#666666"/>
</svg>
