<svg width="19" height="19" viewBox="0 0 19 19" fill="none" xmlns="http://www.w3.org/2000/svg">
<circle cx="9.86719" cy="9.42773" r="9" fill="#4C5BD4"/>
<path d="M5.59178 7.80664C4.97169 7.80664 4.4668 8.31154 4.4668 8.93163V12.5316C4.4668 13.1517 4.97169 13.6566 5.59178 13.6566H6.94178C7.19513 13.6566 7.42822 13.5711 7.61677 13.4289V7.80664H5.59178Z" fill="white"/>
<path d="M15.2664 9.4941C15.2664 9.22366 15.1593 8.97165 14.9734 8.78579C15.1836 8.55585 15.2907 8.24759 15.2614 7.92676C15.2088 7.3548 14.6935 6.90661 14.0878 6.90661H11.3082C11.4459 6.48855 11.6664 5.72222 11.6664 5.10662C11.6664 4.13058 10.837 3.30664 10.3164 3.30664C9.84884 3.30664 9.51493 3.56989 9.50054 3.58069C9.44745 3.62345 9.4164 3.68825 9.4164 3.75663V5.28257L8.12041 8.09011L8.06641 8.11755V12.9406C8.4327 13.1134 8.89619 13.2066 9.19139 13.2066H13.3219C13.812 13.2066 14.2408 12.8763 14.3416 12.4204C14.3934 12.186 14.3632 11.9497 14.2602 11.7445C14.5927 11.5771 14.8164 11.2347 14.8164 10.8441C14.8164 10.6848 14.7799 10.5322 14.7106 10.3941C15.0432 10.2267 15.2664 9.88425 15.2664 9.4941Z" fill="white"/>
</svg>
