<svg width="50" height="51" viewBox="0 0 50 51" fill="none" xmlns="http://www.w3.org/2000/svg">
<ellipse cx="25" cy="25.8652" rx="25" ry="25" fill="#CCCCCC"/>
<path d="M36.7274 32.0041C34.8344 30.4042 33.7502 28.0717 33.7502 25.5986V22.1116C33.7502 17.7103 30.48 14.0709 26.2488 13.4614V12.1135C26.2488 11.422 25.6862 10.8652 25.0005 10.8652C24.3148 10.8652 23.7522 11.4161 23.7522 12.1077V13.4556C19.515 14.0709 16.2507 17.7103 16.2507 22.1116V25.5986C16.2507 28.0717 15.1665 30.41 13.2677 32.0158C12.7813 32.4319 12.5 33.0355 12.5 33.6743C12.5 34.8816 13.4787 35.8603 14.686 35.8603H35.315C36.5222 35.8603 37.5009 34.8816 37.5009 33.6743C37.5068 33.0355 37.2255 32.4319 36.7274 32.0041Z" fill="#474747"/>
<path d="M25.0009 40.865C27.263 40.865 29.1619 39.2533 29.5955 37.1143H20.4121C20.8458 39.2533 22.7387 40.865 25.0009 40.865Z" fill="#474747"/>
</svg>
