<svg width="30" height="31" viewBox="0 0 30 31" fill="none" xmlns="http://www.w3.org/2000/svg">
<path d="M15 2.26172C7.82504 2.26172 2 8.08676 2 15.2617C2 22.4367 7.82504 28.2617 15 28.2617C22.162 28.2617 27.9769 22.4575 27.9979 15.3002C27.9992 15.2874 27.9999 15.2746 28 15.2617C28 15.2502 27.9995 15.2386 27.9984 15.2271C27.9797 8.06804 22.1635 2.26172 15 2.26172ZM15 3.04172C15.117 3.04172 15.2322 3.04692 15.3484 3.0503C15.5546 3.09476 15.735 3.1413 15.8172 3.19356C16.1209 3.1153 16.1939 3.10776 16.1775 3.09918C17.6549 3.23971 19.0939 3.64983 20.4233 4.30922C20.4228 4.34718 20.4233 4.3867 20.4296 4.4361C19.9668 4.5505 21.0255 5.43788 20.6022 5.9896C20.5463 6.75062 19.6475 7.67492 19.2229 7.62968C19.7705 8.35768 19.6727 9.64156 18.7198 9.53964C18.0061 9.56486 17.6876 10.2825 17.1801 10.6644C17.4094 9.96292 16.7576 9.91586 16.8382 9.3995C16.3858 9.71982 16.4329 9.9247 16.039 9.35088C16.4394 9.05656 15.8299 8.33038 15.6765 8.25368C15.3185 8.45518 14.9444 8.35118 15.5008 8.77628C14.0882 9.19488 16.0889 10.1569 15.3037 11.0643C14.8175 12.2161 13.648 12.8757 12.4528 13.0187C12.7986 13.8133 11.2261 14.2529 11.8327 13.2722C12.2105 12.512 10.3502 13.599 11.398 14.0415C12.0308 14.5597 12.2255 15.8745 11.2604 16.1611C10.7144 16.7869 10.4726 16.4484 10.0839 15.894C9.65986 14.6804 8.88662 15.9502 9.48202 16.6038C10.3122 17.2601 10.333 18.0409 10.6065 18.8869C10.3941 19.4781 12.0862 19.6081 11.2895 19.9139C10.2228 19.9347 12.0027 21.0267 12.2131 20.5283C12.8116 20.8535 14.1085 20.7753 13.4592 21.1042C14.1774 21.1889 15.41 21.3356 14.5572 20.3736C14.2512 19.8832 14.4823 18.9553 15.1695 18.5635C15.7441 19.1739 16.6318 17.7523 16.4108 18.7148C15.9498 19.0814 15.6217 19.4173 16.4747 19.4477C16.8184 20.2004 17.7461 19.527 17.5766 19.0169C18.0722 18.8773 19.1002 19.0387 19.5739 19.2187C20.3583 19.2179 21.6443 19.3897 21.9784 19.9363C22.2483 19.6087 23.124 19.8333 22.8746 19.2314C22.4131 19.0637 22.6476 18.4462 23.0636 19.0185C23.6276 19.0559 23.9726 20.0033 24.6803 19.9924C25.2185 20.9471 24.0332 20.3328 24.192 20.1032C23.7875 21.0262 23.6268 18.8443 23.2215 19.703C22.7756 19.9435 21.7376 20.6468 22.6445 20.6094C23.2391 20.3918 22.5241 21.8236 21.8692 21.0839C21.0481 20.1643 20.5037 21.9201 21.2566 22.1676C21.2806 22.7838 21.8037 23.1506 22.0496 23.6595C22.6978 24.3053 21.2244 25.3391 20.6976 25.8552C20.4454 25.9618 20.188 26.2257 19.9447 26.4381C19.731 26.5327 19.5149 26.6224 19.2952 26.7048C19.2146 26.6643 19.14 26.5816 19.0732 26.4357C18.3706 26.4009 17.9188 25.8994 17.1039 25.9035C16.013 25.987 14.7215 26.7043 13.7369 26.2116C13.8186 25.5065 12.323 24.3136 13.7681 23.992C14.8905 24.0705 15.428 23.174 16.2324 22.621C16.7787 22.3316 17.5844 22.9627 17.5654 22.0836C17.601 21.5428 19.2102 21.808 19.4088 21.8434C19.187 22.5513 19.0305 22.8444 19.9715 22.7739C20.1262 23.2869 20.8965 21.2555 20.4647 21.2425C20.1035 20.9219 19.0716 21.3197 19.8745 20.6765C19.498 19.7813 18.1447 20.6203 18.1148 19.5689C17.3899 19.4909 18.7903 20.6544 17.6848 20.0647C16.7181 20.4563 16.2418 19.6079 15.4189 19.6263C15.8536 20.0574 16.3772 21.0423 15.423 20.6653C14.8796 19.7951 15.0382 20.9477 15.2376 21.1702C15.3624 20.5241 15.402 21.601 15.9745 21.1143C16.4305 20.7207 17.9598 21.3119 16.9328 21.2079C17.0511 21.2854 15.0247 22.5779 15.7449 21.5719C15.7501 21.2599 14.7384 21.677 15.4189 21.815C14.6872 21.9341 13.8487 21.3304 12.9738 21.3546C11.9744 21.2417 10.8988 21.107 10.2256 20.2901C9.7064 19.5377 8.89806 19.7028 8.77924 18.6646C8.60296 18.1524 7.99378 17.4907 8.05878 16.9554C8.7678 16.8774 9.71004 18.6714 9.2384 17.2437C8.74024 16.6262 8.5884 15.6884 8.8523 14.9484C8.92822 14.1965 8.62246 14.2053 8.13392 14.3065C8.00496 13.7202 8.14042 12.1581 7.03282 12.6035C6.40674 13.2743 5.28536 13.6497 5.26326 14.6627C4.96946 15.0597 5.85606 16.8581 4.98636 16.3389C5.04382 15.581 4.90186 15.7419 4.59038 15.744C4.2724 14.6346 4.28904 13.4235 4.42632 12.3089C3.85874 11.7772 4.769 11.0877 3.71652 10.9504C3.4781 10.4759 3.5262 11.9418 3.1167 12.4142C4.3985 7.03714 9.22748 3.04172 15 3.04172ZM19.3922 4.25488C19.3664 4.25231 19.3405 4.25318 19.315 4.25748C19.198 4.27776 19.1236 4.37708 19.224 4.56558C18.5277 4.27438 16.7524 4.947 18.2352 5.32426C18.1793 4.93764 19.5911 6.3939 18.9512 6.26234C19.2419 6.63232 19.2895 6.77116 19.055 6.74594C19.1618 6.98514 19.465 7.06574 19.6946 6.96668C20.8724 6.494 20.2952 5.41032 19.6368 4.77072C19.7991 4.45534 19.5799 4.27282 19.3922 4.25488ZM22.344 5.49196C22.4064 5.53876 22.4662 5.58868 22.5278 5.63652C22.3104 5.60714 22.2974 5.55826 22.344 5.49196ZM18.4336 5.78498C18.4029 5.77432 18.4122 5.89184 18.4934 6.21554C18.4367 7.1765 17.6068 7.43182 17.0098 7.69182C16.2051 8.25134 17.3286 8.60338 17.1419 9.36856C17.0683 9.50636 17.3161 9.50974 17.3213 9.40106C17.7269 8.76172 18.3504 9.03186 18.6681 8.54566C19.2281 8.48846 18.5568 7.54622 18.9203 7.22824C18.9738 7.00204 18.5246 5.81696 18.4333 5.78498H18.4336ZM15.2517 11.8763C15.4215 11.8874 15.5156 12.0687 15.2922 12.5185C15.1916 12.722 15.3973 13.0073 14.8895 12.7785C14.4751 12.3105 14.9685 11.8573 15.2517 11.8763ZM15.1724 13.5231C15.4311 13.4971 15.6887 13.8148 15.5816 14.3676C14.9475 14.846 16.3315 14.8598 16.2618 15.3634C16.7306 15.8324 17.2178 17.7034 16.1032 17.5276C15.6383 16.4606 15.3518 17.8716 14.6043 17.8297C13.8144 18.0773 14.9509 18.6766 14.4137 18.9867C13.9441 19.0356 13.9493 20.4953 13.5869 20.2906C13.3279 20.0507 12.0305 20.2457 11.8605 19.5442C11.2698 19.1911 11.7448 18.2039 11.3618 17.628C11.7362 17.6938 11.9447 19.0606 12.414 18.0861C13.4676 17.8396 13.777 16.7219 14.4407 16.0524C15.1076 15.5108 14.6714 14.9903 14.7397 14.2589C14.7699 13.7714 14.9711 13.5431 15.1724 13.5231ZM15.0382 15.7274C14.8469 16.3329 13.4091 16.9754 14.6113 17.4746L14.8058 17.4759L14.8671 17.4187C15.5192 17.1881 15.3695 16.3875 15.3643 15.8894C15.0543 15.9869 15.1414 16.037 15.0382 15.7274ZM17.3036 18.3638C17.4458 18.3786 17.5059 18.5856 17.2859 19.0814C17.4383 19.3791 17.0311 19.8671 16.8304 19.4451C16.6029 18.8497 17.067 18.3396 17.3036 18.364V18.3638Z" fill="#474747"/>
</svg>
