<svg width="30" height="31" viewBox="0 0 30 31" fill="none" xmlns="http://www.w3.org/2000/svg">
<path d="M25 15.2617C25 13.883 23.8787 12.7617 22.5 12.7617H21.25V9.01172C21.25 5.56547 18.4462 2.76172 15 2.76172C11.5538 2.76172 8.75 5.56547 8.75 9.01172V12.7617H7.5C6.12125 12.7617 5 13.883 5 15.2617V25.2617C5 26.6405 6.12125 27.7617 7.5 27.7617H22.5C23.8787 27.7617 25 26.6405 25 25.2617V15.2617ZM11.25 9.01172C11.25 6.94422 12.9325 5.26172 15 5.26172C17.0675 5.26172 18.75 6.94422 18.75 9.01172V12.7617H11.25V9.01172Z" fill="#666666"/>
</svg>
