<svg width="50" height="51" viewBox="0 0 50 51" fill="none" xmlns="http://www.w3.org/2000/svg">
<ellipse cx="25" cy="25.8652" rx="25" ry="25" fill="#CCCCCC"/>
<g clip-path="url(#clip0_2_11674)">
<path d="M18.6523 26.8418C17.7832 26.8418 16.9336 26.5841 16.2109 26.1012C15.4882 25.6183 14.9249 24.932 14.5923 24.129C14.2597 23.326 14.1727 22.4424 14.3423 21.5899C14.5118 20.7375 14.9304 19.9545 15.5449 19.3399C16.1595 18.7253 16.9426 18.3067 17.795 18.1372C18.6475 17.9676 19.5311 18.0546 20.3341 18.3872C21.1371 18.7199 21.8234 19.2831 22.3063 20.0058C22.7891 20.7285 23.0469 21.5781 23.0469 22.4473C23.0443 23.612 22.5805 24.7282 21.7569 25.5518C20.9333 26.3754 19.8171 26.8392 18.6523 26.8418ZM29.3945 23.9121C28.3322 23.9121 27.2938 23.5971 26.4105 23.0069C25.5272 22.4167 24.8388 21.5779 24.4323 20.5964C24.0258 19.615 23.9194 18.5351 24.1266 17.4932C24.3339 16.4513 24.8454 15.4942 25.5966 14.7431C26.3478 13.9919 27.3048 13.4804 28.3467 13.2731C29.3886 13.0659 30.4685 13.1722 31.45 13.5788C32.4314 13.9853 33.2703 14.6737 33.8604 15.557C34.4506 16.4403 34.7656 17.4787 34.7656 18.541C34.7631 19.9647 34.1963 21.3294 33.1896 22.3361C32.1829 23.3428 30.8182 23.9095 29.3945 23.9121ZM37.6953 39.5371H21.0938C20.8348 39.5371 20.5864 39.4342 20.4032 39.2511C20.2201 39.0679 20.1172 38.8195 20.1172 38.5605C20.1172 38.3015 20.2201 38.0532 20.4032 37.87C20.5864 37.6869 20.8348 37.584 21.0938 37.584H28.9063H36.7188V32.1348C36.7162 30.7111 37.5529 38.5907 36.5462 37.584C36.5462 37.584 36.1893 37.5866 34.7656 37.584L30.2921 38.1205C30.2921 38.1205 22.623 37.3053 21.7569 37.87C20.8908 38.4347 22.9797 29.0029 22.5586 29.9473C22.5114 30.072 22.4392 30.1857 22.3465 30.2814C22.2537 30.3771 22.1423 30.4529 22.0191 30.5039C21.896 30.5549 21.7637 30.5802 21.6304 30.5782C21.4971 30.5762 21.3656 30.5469 21.244 30.4921C21.1225 30.4374 21.0134 30.3583 20.9236 30.2598C20.8338 30.1613 20.7651 30.0454 20.7217 29.9194C20.6784 29.7933 20.6613 29.6597 20.6715 29.5268C20.6818 29.3938 20.7191 29.2644 20.7813 29.1465C21.3557 27.855 22.2926 26.7578 23.4783 25.9882C24.6639 25.2186 26.0474 24.8095 27.4609 24.8105H31.3672C33.3097 24.8105 35.1726 25.5822 36.5462 26.9558C37.9198 28.3293 38.6914 30.1923 38.6914 32.1348V38.5605C38.6914 38.6905 38.6655 38.8191 38.6153 38.9388C38.565 39.0586 38.4913 39.1671 38.3985 39.2581C38.3058 39.349 38.1958 39.4205 38.075 39.4685C37.9543 39.5164 37.8252 39.5397 37.6953 39.5371Z" fill="#474747"/>
<g filter="url(#filter0_d_2_11674)">
<path d="M25 39.5371H12.3047C12.0457 39.5371 11.7973 39.4342 11.6142 39.2511C11.431 39.0679 11.3281 38.8195 11.3281 38.5605V35.1426C11.3281 33.2001 12.0998 31.3371 13.4733 29.9636C14.8469 28.59 16.7098 27.8184 18.6523 27.8184C20.5948 27.8184 22.4578 28.59 23.8313 29.9636C25.2049 31.3371 25.9766 33.2001 25.9766 35.1426V38.5605C25.9766 38.8195 25.8737 39.0679 25.6905 39.2511C25.5074 39.4342 25.259 39.5371 25 39.5371Z" fill="#474747"/>
</g>
</g>
<defs>
<filter id="filter0_d_2_11674" x="10.3281" y="25.8184" width="18.6484" height="15.7188" filterUnits="userSpaceOnUse" color-interpolation-filters="sRGB">
<feFlood flood-opacity="0" result="BackgroundImageFix"/>
<feColorMatrix in="SourceAlpha" type="matrix" values="0 0 0 0 0 0 0 0 0 0 0 0 0 0 0 0 0 0 127 0" result="hardAlpha"/>
<feOffset dx="1"/>
<feGaussianBlur stdDeviation="1"/>
<feColorMatrix type="matrix" values="0 0 0 0 0 0 0 0 0 0 0 0 0 0 0 0 0 0 0.05 0"/>
<feBlend mode="normal" in2="BackgroundImageFix" result="effect1_dropShadow_2_11674"/>
<feBlend mode="normal" in="SourceGraphic" in2="effect1_dropShadow_2_11674" result="shape"/>
</filter>
<clipPath id="clip0_2_11674">
<rect width="31.25" height="31.25" fill="white" transform="translate(9.375 10.2402)"/>
</clipPath>
</defs>
</svg>
