<svg width="30" height="31" viewBox="0 0 30 31" fill="none" xmlns="http://www.w3.org/2000/svg">
<path d="M20 14.0117C22.075 14.0117 23.7375 12.3367 23.7375 10.2617C23.7375 8.18672 22.075 6.51172 20 6.51172C17.925 6.51172 16.25 8.18672 16.25 10.2617C16.25 12.3367 17.925 14.0117 20 14.0117ZM10 14.0117C12.075 14.0117 13.7375 12.3367 13.7375 10.2617C13.7375 8.18672 12.075 6.51172 10 6.51172C7.925 6.51172 6.25 8.18672 6.25 10.2617C6.25 12.3367 7.925 14.0117 10 14.0117ZM10 16.5117C7.0875 16.5117 1.25 17.9742 1.25 20.8867V22.7617C1.25 23.4492 1.8125 24.0117 2.5 24.0117H17.5C18.1875 24.0117 18.75 23.4492 18.75 22.7617V20.8867C18.75 17.9742 12.9125 16.5117 10 16.5117ZM20 16.5117C19.6375 16.5117 19.225 16.5367 18.7875 16.5742C18.8125 16.5867 18.825 16.6117 18.8375 16.6242C20.2625 17.6617 21.25 19.0492 21.25 20.8867V22.7617C21.25 23.1992 21.1625 23.6242 21.025 24.0117H27.5C28.1875 24.0117 28.75 23.4492 28.75 22.7617V20.8867C28.75 17.9742 22.9125 16.5117 20 16.5117Z" fill="#474747"/>
</svg>
