<svg width="50" height="50" viewBox="0 0 50 50" fill="none" xmlns="http://www.w3.org/2000/svg">
<ellipse cx="25" cy="25" rx="25" ry="25" fill="#4C5BD4"/>
<path d="M25.0003 12.4287V19.5001C25.0003 20.1253 25.2486 20.7248 25.6907 21.1669C26.1327 21.6089 26.7323 21.8573 27.3574 21.8573H34.4289V35.2144C34.4289 35.8396 34.1805 36.4391 33.7385 36.8812C33.2964 37.3232 32.6969 37.5716 32.0717 37.5716H26.5717V28.7936C26.5715 27.9601 26.2403 27.1608 25.6508 26.5716L23.4289 24.3496C22.8396 23.7601 22.0403 23.4289 21.2069 23.4287H15.5717V14.7859C15.5717 14.1607 15.82 13.5612 16.2621 13.1191C16.7041 12.6771 17.3037 12.4287 17.9289 12.4287H25.0003ZM26.5717 12.8216V19.5001C26.5717 19.7085 26.6545 19.9084 26.8018 20.0557C26.9492 20.2031 27.149 20.2859 27.3574 20.2859H34.036L26.5717 12.8216ZM12.4289 25.0001H14.0003V28.9287C14.0003 29.1371 14.0831 29.3369 14.2304 29.4843C14.3778 29.6316 14.5776 29.7144 14.786 29.7144H21.0717C21.2801 29.7144 21.4799 29.6316 21.6273 29.4843C21.7746 29.3369 21.8574 29.1371 21.8574 28.9287V25.1416C22.0288 25.2195 22.1847 25.3275 22.3179 25.4606L24.5399 27.6826C24.8346 27.9772 25.0002 28.3768 25.0003 28.7936V37.5716C25.0003 37.9883 24.8347 38.388 24.54 38.6827C24.2453 38.9774 23.8456 39.143 23.4289 39.143V32.0716C23.4289 31.8632 23.3461 31.6633 23.1987 31.516C23.0514 31.3686 22.8515 31.2859 22.6431 31.2859H13.2146C13.0062 31.2859 12.8063 31.3686 12.659 31.516C12.5116 31.6633 12.4289 31.8632 12.4289 32.0716V39.143C12.0121 39.143 11.6124 38.9774 11.3177 38.6827C11.023 38.388 10.8574 37.9883 10.8574 37.5716V26.5716C10.8574 26.1548 11.023 25.7551 11.3177 25.4604C11.6124 25.1657 12.0121 25.0001 12.4289 25.0001ZM21.8574 32.8573V39.143H14.0003V32.8573H21.8574ZM15.5717 25.0001H20.286V28.143H15.5717V25.0001Z" fill="white"/>
</svg>
