<svg width="30" height="30" viewBox="0 0 30 30" fill="none" xmlns="http://www.w3.org/2000/svg">
<path d="M16.15 4.14522C17.1575 3.24897 18.75 3.96397 18.75 5.31272V24.6827C18.75 26.0302 17.1575 26.7452 16.15 25.8502L10.535 20.8577C10.3636 20.705 10.1421 20.6205 9.9125 20.6202H5.3125C4.5668 20.6202 3.85161 20.3241 3.3242 19.7969C2.79679 19.2697 2.50033 18.5547 2.5 17.809V12.1877C2.5 11.4418 2.79632 10.7264 3.32376 10.199C3.85121 9.67154 4.56658 9.37522 5.3125 9.37522H9.9125C10.1421 9.37495 10.3636 9.29044 10.535 9.13772L16.1487 4.14647L16.15 4.14522ZM16.875 6.00772L11.7812 10.5377C11.2667 10.9962 10.6017 11.2497 9.9125 11.2502H5.3125C5.06386 11.2502 4.8254 11.349 4.64959 11.5248C4.47377 11.7006 4.375 11.9391 4.375 12.1877V17.809C4.375 18.3277 4.795 18.7465 5.3125 18.7465H9.9125C10.6017 18.747 11.2667 19.0005 11.7812 19.459L16.875 23.9877V6.00897V6.00772Z" fill="white"/>
<path d="M20.2749 11.5249C20.4507 11.3494 20.689 11.2508 20.9374 11.2508C21.1859 11.2508 21.4242 11.3494 21.5999 11.5249L23.7499 13.6749L25.8999 11.5249C25.9858 11.4328 26.0893 11.359 26.2043 11.3077C26.3193 11.2565 26.4434 11.2289 26.5693 11.2267C26.6952 11.2245 26.8202 11.2476 26.9369 11.2948C27.0537 11.3419 27.1597 11.4121 27.2487 11.5012C27.3378 11.5902 27.4079 11.6962 27.4551 11.813C27.5023 11.9297 27.5254 12.0547 27.5232 12.1806C27.521 12.3065 27.4934 12.4306 27.4422 12.5456C27.3909 12.6606 27.3171 12.7641 27.2249 12.8499L25.0749 14.9999L27.2249 17.1499C27.3171 17.2358 27.3909 17.3393 27.4422 17.4543C27.4934 17.5693 27.521 17.6934 27.5232 17.8193C27.5254 17.9452 27.5023 18.0702 27.4551 18.1869C27.4079 18.3037 27.3378 18.4097 27.2487 18.4987C27.1597 18.5878 27.0537 18.6579 26.9369 18.7051C26.8202 18.7523 26.6952 18.7754 26.5693 18.7732C26.4434 18.771 26.3193 18.7434 26.2043 18.6922C26.0893 18.6409 25.9858 18.5671 25.8999 18.4749L23.7499 16.3249L21.5999 18.4749C21.5141 18.5671 21.4106 18.6409 21.2956 18.6922C21.1806 18.7434 21.0565 18.771 20.9306 18.7732C20.8047 18.7754 20.6797 18.7523 20.563 18.7051C20.4462 18.6579 20.3402 18.5878 20.2512 18.4987C20.1621 18.4097 20.0919 18.3037 20.0448 18.1869C19.9976 18.0702 19.9745 17.9452 19.9767 17.8193C19.9789 17.6934 20.0065 17.5693 20.0577 17.4543C20.109 17.3393 20.1828 17.2358 20.2749 17.1499L22.4249 14.9999L20.2749 12.8499C20.0994 12.6742 20.0008 12.4359 20.0008 12.1874C20.0008 11.939 20.0994 11.7007 20.2749 11.5249Z" fill="white"/>
</svg>
