<svg width="21" height="21" viewBox="0 0 21 21" fill="none" xmlns="http://www.w3.org/2000/svg">
<g clip-path="url(#clip0_69_12330)">
<path d="M20.0176 10.937C20.0176 13.5892 18.964 16.1327 17.0886 18.0081C15.2133 19.8834 12.6697 20.937 10.0176 20.937C7.36541 20.937 4.82187 19.8834 2.94651 18.0081C1.07115 16.1327 0.0175781 13.5892 0.0175781 10.937C0.0175781 8.28485 1.07115 5.74131 2.94651 3.86594C4.82187 1.99058 7.36541 0.937012 10.0176 0.937012C12.6697 0.937012 15.2133 1.99058 17.0886 3.86594C18.964 5.74131 20.0176 8.28485 20.0176 10.937ZM6.71008 6.74451C6.59272 6.62715 6.43355 6.56122 6.26758 6.56122C6.10161 6.56122 5.94244 6.62715 5.82508 6.74451C5.70772 6.86187 5.64179 7.02104 5.64179 7.18701C5.64179 7.35298 5.70772 7.51215 5.82508 7.62951L9.13383 10.937L5.82508 14.2445C5.76697 14.3026 5.72087 14.3716 5.68942 14.4475C5.65797 14.5235 5.64179 14.6048 5.64179 14.687C5.64179 14.7692 5.65797 14.8506 5.68942 14.9265C5.72087 15.0024 5.76697 15.0714 5.82508 15.1295C5.94244 15.2469 6.10161 15.3128 6.26758 15.3128C6.34976 15.3128 6.43113 15.2966 6.50706 15.2652C6.58298 15.2337 6.65197 15.1876 6.71008 15.1295L10.0176 11.8208L13.3251 15.1295C13.3832 15.1876 13.4522 15.2337 13.5281 15.2652C13.604 15.2966 13.6854 15.3128 13.7676 15.3128C13.8498 15.3128 13.9311 15.2966 14.0071 15.2652C14.083 15.2337 14.152 15.1876 14.2101 15.1295C14.2682 15.0714 14.3143 15.0024 14.3457 14.9265C14.3772 14.8506 14.3934 14.7692 14.3934 14.687C14.3934 14.6048 14.3772 14.5235 14.3457 14.4475C14.3143 14.3716 14.2682 14.3026 14.2101 14.2445L10.9013 10.937L14.2101 7.62951C14.2682 7.5714 14.3143 7.50242 14.3457 7.42649C14.3772 7.35057 14.3934 7.26919 14.3934 7.18701C14.3934 7.10483 14.3772 7.02346 14.3457 6.94753C14.3143 6.87161 14.2682 6.80262 14.2101 6.74451C14.152 6.6864 14.083 6.64031 14.0071 6.60886C13.9311 6.57741 13.8498 6.56122 13.7676 6.56122C13.6854 6.56122 13.604 6.57741 13.5281 6.60886C13.4522 6.64031 13.3832 6.6864 13.3251 6.74451L10.0176 10.0533L6.71008 6.74451Z" fill="#474747"/>
</g>
<defs>
<clipPath id="clip0_69_12330">
<rect width="20" height="20" fill="white" transform="translate(0.0175781 0.937012)"/>
</clipPath>
</defs>
</svg>
