<svg width="21" height="21" viewBox="0 0 21 21" fill="none" xmlns="http://www.w3.org/2000/svg">
<g clip-path="url(#clip0_69_12322)">
<path d="M5.89258 19.9906C5.71735 19.9906 5.54929 19.921 5.42538 19.7971C5.30147 19.6732 5.23186 19.5051 5.23186 19.3299V16.687H4.24079C3.45252 16.6861 2.69677 16.3726 2.13938 15.8152C1.58198 15.2578 1.26845 14.5021 1.26758 13.7138V5.78523C1.26845 4.99695 1.58198 4.24121 2.13938 3.68381C2.69677 3.12642 3.45252 2.81289 4.24079 2.81201H16.7944C17.5826 2.81289 18.3384 3.12642 18.8958 3.68381C19.4532 4.24121 19.7667 4.99695 19.7676 5.78523V13.7138C19.7667 14.5021 19.4532 15.2578 18.8958 15.8152C18.3384 16.3726 17.5826 16.6861 16.7944 16.687H10.0939L6.31585 19.8374C6.19695 19.9363 6.04722 19.9905 5.89258 19.9906Z" fill="#474747"/>
<line y1="-0.5" x2="27.4874" y2="-0.5" transform="matrix(0.707287 0.706926 -0.707287 0.706926 0.0175781 1.60059)" stroke="#474747"/>
<line y1="-0.5" x2="27.4561" y2="-0.5" transform="matrix(0.707287 0.706926 -0.707287 0.706926 0.725586 0.937012)" stroke="white"/>
</g>
<defs>
<clipPath id="clip0_69_12322">
<rect width="20" height="20" fill="white" transform="translate(0.0175781 0.937012)"/>
</clipPath>
</defs>
</svg>
