<svg width="21" height="22" viewBox="0 0 21 22" fill="none" xmlns="http://www.w3.org/2000/svg">
<path d="M18.524 15.3092C17.1612 14.1573 16.3806 12.478 16.3806 10.6974V8.18686C16.3806 5.0181 14.0262 2.39785 10.9798 1.95904V0.988575C10.9798 0.490686 10.5747 0.0898438 10.081 0.0898438C9.58735 0.0898438 9.18229 0.486467 9.18229 0.984355V1.95482C6.13167 2.39785 3.78147 5.0181 3.78147 8.18686V10.6974C3.78147 12.478 3.00088 14.1615 1.6338 15.3176C1.28359 15.6172 1.08105 16.0518 1.08105 16.5117C1.08105 17.3809 1.78569 18.0856 2.65489 18.0856H17.5072C18.3764 18.0856 19.081 17.3809 19.081 16.5117C19.0852 16.0518 18.8827 15.6172 18.524 15.3092Z" fill="#474747"/>
<path d="M10.0811 21.6889C11.7098 21.6889 13.0769 20.5286 13.3891 18.9885H6.77734C7.08958 20.5286 8.45244 21.6889 10.0811 21.6889Z" fill="#474747"/>
<line y1="-0.5" x2="27.4874" y2="-0.5" transform="matrix(0.707287 0.706926 -0.707287 0.706926 0.0175781 1.50537)" stroke="#474747"/>
<line y1="-0.5" x2="27.4561" y2="-0.5" transform="matrix(0.707287 0.706926 -0.707287 0.706926 0.725586 0.841797)" stroke="white"/>
</svg>
