<svg width="21" height="21" viewBox="0 0 21 21" fill="none" xmlns="http://www.w3.org/2000/svg">
<path d="M5.91699 12.8589C5.91699 13.6978 8.08258 14.1429 10.4064 14.2053L10.4053 14.2184V17.4997C10.4053 18.1035 10.6566 19.6873 10.9663 19.6873C11.276 19.6873 11.5273 18.1035 11.5273 17.4997V14.2184L11.5262 14.2053C13.85 14.1429 16.0156 13.6978 16.0156 12.8589C16.0156 11.9685 15.1886 11.3188 13.7715 10.9688V5.30422C15.1886 4.83609 16.0156 4.08248 16.0156 3.54653C16.0156 1.73416 5.91699 1.73416 5.91699 3.54653C5.91699 4.13608 6.74396 4.87327 8.16113 5.32391V10.9688C6.74396 11.3199 5.91699 11.9685 5.91699 12.8589Z" fill="#474747"/>
</svg>
