<svg width="21" height="21" viewBox="0 0 21 21" fill="none" xmlns="http://www.w3.org/2000/svg">
<path d="M14.6613 0.937012H7.27945C6.9904 0.937012 6.70135 1.05923 6.50124 1.25923L1.28724 6.47035C1.08713 6.67035 0.964844 6.95923 0.964844 7.24812V14.6148C0.964844 14.9148 1.08713 15.1926 1.28724 15.4037L6.49012 20.6037C6.70135 20.8148 6.9904 20.937 7.27945 20.937H14.6502C14.9504 20.937 15.2283 20.8148 15.4395 20.6148L20.6424 15.4148C20.7459 15.3113 20.8278 15.1883 20.8831 15.0528C20.9385 14.9174 20.9662 14.7722 20.9648 14.6259V7.24812C20.9648 6.94812 20.8425 6.67035 20.6424 6.45923L15.4395 1.25923C15.2394 1.05923 14.9504 0.937012 14.6613 0.937012ZM10.9704 16.8259C10.1699 16.8259 9.52513 16.1815 9.52513 15.3815C9.52513 14.5815 10.1699 13.937 10.9704 13.937C11.7708 13.937 12.4156 14.5815 12.4156 15.3815C12.4156 16.1815 11.7708 16.8259 10.9704 16.8259ZM10.9704 12.0481C10.3589 12.0481 9.85865 11.5481 9.85865 10.937V6.49257C9.85865 5.88146 10.3589 5.38146 10.9704 5.38146C11.5818 5.38146 12.0821 5.88146 12.0821 6.49257V10.937C12.0821 11.5481 11.5818 12.0481 10.9704 12.0481Z" fill="#474747"/>
</svg>
