<svg width="21" height="18" viewBox="0 0 21 18" fill="none" xmlns="http://www.w3.org/2000/svg">
<path d="M4.21484 0.187012C3.35289 0.187012 2.52624 0.529421 1.91675 1.13891C1.30725 1.74841 0.964844 2.57506 0.964844 3.43701V11.937C0.964844 12.5337 1.2019 13.106 1.62385 13.528C2.04581 13.95 2.61811 14.187 3.21484 14.187H3.46484V5.93701C3.46484 5.07506 3.80725 4.24841 4.41675 3.63891C5.02624 3.02942 5.85289 2.68701 6.71484 2.68701H17.9648V2.43701C17.9648 2.14154 17.9066 1.84896 17.7936 1.57597C17.6805 1.30299 17.5148 1.05495 17.3058 0.846021C17.0969 0.63709 16.8489 0.471356 16.5759 0.358283C16.3029 0.24521 16.0103 0.187012 15.7148 0.187012H4.21484Z" fill="#474747"/>
<path d="M18.7145 3.68701H18.2185L18.1165 3.69401C17.9283 3.71991 17.7569 3.81631 17.637 3.96371C17.517 4.11112 17.4575 4.29855 17.4705 4.48813C17.4834 4.67771 17.5679 4.85531 17.7067 4.98504C17.8456 5.11477 18.0285 5.18695 18.2185 5.18701H18.7145L18.8165 5.19401C18.9961 5.21866 19.1606 5.30749 19.2798 5.44408C19.3989 5.58067 19.4645 5.75577 19.4645 5.93701V6.94101L19.4715 7.04201C19.4974 7.23018 19.5937 7.40151 19.741 7.52143C19.8883 7.64134 20.0756 7.7009 20.2651 7.68808C20.4546 7.67526 20.6322 7.59101 20.762 7.45236C20.8918 7.3137 20.9642 7.13095 20.9645 6.94101V5.93701L20.9595 5.78301C20.9205 5.21422 20.667 4.68145 20.2503 4.29238C19.8335 3.90331 19.2846 3.68694 18.7145 3.68701Z" fill="#474747"/>
<path d="M5.95784 9.336C5.93194 9.14775 5.83555 8.97635 5.68814 8.85644C5.54074 8.73652 5.35331 8.67703 5.16372 8.68998C4.97414 8.70293 4.79654 8.78736 4.66682 8.92621C4.53709 9.06506 4.4649 9.24798 4.46484 9.438V11.932L4.47184 12.034C4.49775 12.2223 4.59414 12.3937 4.74154 12.5136C4.88895 12.6335 5.07638 12.693 5.26596 12.68C5.45555 12.6671 5.63314 12.5826 5.76287 12.4438C5.8926 12.3049 5.96479 12.122 5.96484 11.932V9.438L5.95784 9.336Z" fill="#474747"/>
<path d="M5.21484 13.6821C5.39608 13.6821 5.57119 13.7478 5.70777 13.8669C5.84436 13.986 5.9332 14.1506 5.95784 14.3301L5.96484 14.4321V15.4371C5.96484 15.8171 6.24684 16.1311 6.61284 16.1801L6.71484 16.1871H7.21484C7.40487 16.1872 7.58778 16.2594 7.72663 16.3891C7.86549 16.5188 7.94992 16.6964 7.96287 16.886C7.97582 17.0756 7.91633 17.263 7.79641 17.4104C7.67649 17.5578 7.50509 17.6542 7.31684 17.6801L7.21484 17.6871H6.71484C6.14472 17.6872 5.59582 17.4708 5.17909 17.0818C4.76236 16.6927 4.50887 16.1599 4.46984 15.5911L4.46484 15.4371V14.4321C4.46484 14.2332 4.54386 14.0425 4.68451 13.9018C4.82517 13.7611 5.01593 13.6821 5.21484 13.6821Z" fill="#474747"/>
<path d="M20.2149 13.6821C20.4138 13.6821 20.6046 13.7611 20.7452 13.9018C20.8859 14.0425 20.9649 14.2332 20.9649 14.4321V15.4371C20.9649 16.0339 20.7279 16.6062 20.3059 17.0281C19.8839 17.4501 19.3117 17.6871 18.7149 17.6871H17.7119C17.513 17.6871 17.3222 17.6081 17.1816 17.4675C17.0409 17.3268 16.9619 17.136 16.9619 16.9371C16.9619 16.7382 17.0409 16.5474 17.1816 16.4068C17.3222 16.2661 17.513 16.1871 17.7119 16.1871H18.7149C18.9138 16.1871 19.1046 16.1081 19.2452 15.9675C19.3859 15.8268 19.4649 15.636 19.4649 15.4371V14.4321C19.4649 14.2332 19.5439 14.0425 19.6846 13.9018C19.8252 13.7611 20.016 13.6821 20.2149 13.6821Z" fill="#474747"/>
<path d="M15.2125 16.187H13.7175L13.6155 16.194C13.4273 16.2199 13.2559 16.3163 13.136 16.4637C13.0161 16.6111 12.9566 16.7986 12.9695 16.9881C12.9825 17.1777 13.0669 17.3553 13.2058 17.485C13.3446 17.6148 13.5275 17.687 13.7175 17.687H15.2125L15.3145 17.68C15.5028 17.6541 15.6742 17.5577 15.7941 17.4103C15.914 17.2629 15.9735 17.0755 15.9606 16.8859C15.9476 16.6963 15.8632 16.5187 15.7243 16.389C15.5855 16.2593 15.4026 16.1871 15.2125 16.187Z" fill="#474747"/>
<path d="M9.71459 16.187H11.2106C11.4006 16.1871 11.5835 16.2593 11.7224 16.389C11.8612 16.5187 11.9457 16.6963 11.9586 16.8859C11.9716 17.0755 11.9121 17.2629 11.7922 17.4103C11.6722 17.5577 11.5008 17.6541 11.3126 17.68L11.2106 17.687H9.71559C9.52557 17.687 9.34265 17.6148 9.2038 17.485C9.06495 17.3553 8.98052 17.1777 8.96757 16.9881C8.95461 16.7986 9.01411 16.6111 9.13402 16.4637C9.25394 16.3163 9.42534 16.2199 9.61359 16.194L9.71459 16.187Z" fill="#474747"/>
<path d="M20.2148 8.68701C20.3962 8.68705 20.5715 8.75283 20.7081 8.87216C20.8447 8.99148 20.9334 9.15628 20.9578 9.33601L20.9648 9.43801V11.932C20.9648 12.122 20.8926 12.305 20.7629 12.4438C20.6331 12.5827 20.4555 12.6671 20.266 12.68C20.0764 12.693 19.889 12.6335 19.7415 12.5136C19.5941 12.3937 19.4977 12.2223 19.4718 12.034L19.4648 11.932V9.43801C19.4648 9.2391 19.5439 9.04833 19.6845 8.90768C19.8252 8.76703 20.0159 8.68801 20.2148 8.68801V8.68701Z" fill="#474747"/>
<path d="M7.71784 3.68701C7.91676 3.68701 8.10752 3.76603 8.24817 3.90668C8.38883 4.04733 8.46784 4.2381 8.46784 4.43701C8.46784 4.63592 8.38883 4.82669 8.24817 4.96734C8.10752 5.10799 7.91676 5.18701 7.71784 5.18701H6.71484C6.51593 5.18701 6.32517 5.26603 6.18451 5.40668C6.04386 5.54733 5.96484 5.7381 5.96484 5.93701V6.94101C5.96484 7.13992 5.88583 7.33069 5.74517 7.47134C5.60452 7.61199 5.41376 7.69101 5.21484 7.69101C5.01593 7.69101 4.82517 7.61199 4.68451 7.47134C4.54386 7.33069 4.46484 7.13992 4.46484 6.94101V5.93701C4.46484 5.34027 4.7019 4.76798 5.12385 4.34602C5.54581 3.92406 6.11811 3.68701 6.71484 3.68701H7.71784Z" fill="#474747"/>
<path d="M15.7166 3.68701H14.2136L14.1116 3.69401C13.9233 3.71992 13.7518 3.81639 13.6319 3.96391C13.512 4.11142 13.4526 4.29897 13.4656 4.48863C13.4787 4.67829 13.5634 4.8559 13.7024 4.98555C13.8414 5.1152 14.0245 5.18721 14.2146 5.18701H15.7176L15.8196 5.18001C16.0079 5.15411 16.1793 5.05772 16.2992 4.91031C16.4191 4.7629 16.4786 4.57547 16.4657 4.38589C16.4527 4.19631 16.3683 4.01871 16.2294 3.88898C16.0906 3.75926 15.9077 3.68707 15.7176 3.68701H15.7166Z" fill="#474747"/>
<path d="M10.2146 3.68701H11.7096C11.8996 3.68707 12.0826 3.75926 12.2214 3.88898C12.3603 4.01871 12.4447 4.19631 12.4576 4.38589C12.4706 4.57547 12.4111 4.7629 12.2912 4.91031C12.1713 5.05772 11.9999 5.15411 11.8116 5.18001L11.7096 5.18701H10.2146C10.0246 5.18695 9.84167 5.11477 9.70282 4.98504C9.56397 4.85531 9.47954 4.67771 9.46659 4.48813C9.45364 4.29855 9.51313 4.11112 9.63305 3.96371C9.75296 3.81631 9.92436 3.71991 10.1126 3.69401L10.2146 3.68701Z" fill="#474747"/>
</svg>
