<svg width="21" height="18" viewBox="0 0 21 18" fill="none" xmlns="http://www.w3.org/2000/svg">
<path d="M4.19727 0.25C3.33531 0.25 2.50866 0.59241 1.89917 1.2019C1.28968 1.8114 0.947266 2.63805 0.947266 3.5V12C0.947266 12.5967 1.18432 13.169 1.60628 13.591C2.02823 14.0129 2.60053 14.25 3.19727 14.25H3.44727V6C3.44727 5.13805 3.78968 4.3114 4.39917 3.7019C5.00866 3.09241 5.83531 2.75 6.69727 2.75H17.9473V2.5C17.9473 2.20453 17.8891 1.91194 17.776 1.63896C17.6629 1.36598 17.4972 1.11794 17.2883 0.90901C17.0793 0.700078 16.8313 0.534344 16.5583 0.421271C16.2853 0.308198 15.9927 0.25 15.6973 0.25H4.19727Z" fill="#474747"/>
<path d="M18.6969 3.75H18.2009L18.0989 3.757C17.9107 3.7829 17.7393 3.87929 17.6194 4.0267C17.4995 4.17411 17.44 4.36154 17.4529 4.55112C17.4659 4.7407 17.5503 4.9183 17.6892 5.04803C17.828 5.17776 18.0109 5.24994 18.2009 5.25H18.6969L18.7989 5.257C18.9785 5.28165 19.1431 5.37048 19.2622 5.50707C19.3813 5.64366 19.4469 5.81876 19.4469 6V7.004L19.4539 7.105C19.4798 7.29317 19.5761 7.4645 19.7234 7.58441C19.8707 7.70433 20.0581 7.76389 20.2476 7.75107C20.4371 7.73825 20.6147 7.654 20.7445 7.51534C20.8743 7.37668 20.9466 7.19394 20.9469 7.004V6L20.9419 5.846C20.9029 5.27721 20.6494 4.74444 20.2327 4.35537C19.816 3.9663 19.2671 3.74993 18.6969 3.75Z" fill="#474747"/>
<path d="M5.94027 9.39875C5.91436 9.2105 5.81797 9.0391 5.67056 8.91918C5.52316 8.79926 5.33573 8.73977 5.14615 8.75272C4.95656 8.76567 4.77897 8.8501 4.64924 8.98896C4.51951 9.12781 4.44732 9.31072 4.44727 9.50075V11.9947L4.45427 12.0967C4.48017 12.285 4.57656 12.4564 4.72397 12.5763C4.87137 12.6962 5.0588 12.7557 5.24839 12.7428C5.43797 12.7298 5.61556 12.6454 5.74529 12.5065C5.87502 12.3677 5.94721 12.1848 5.94727 11.9947V9.50075L5.94027 9.39875Z" fill="#474747"/>
<path d="M5.19727 13.7451C5.3785 13.7451 5.55361 13.8108 5.6902 13.9299C5.82678 14.049 5.91562 14.2136 5.94027 14.3931L5.94727 14.4951V15.5001C5.94727 15.8801 6.22927 16.1941 6.59527 16.2431L6.69727 16.2501H7.19727C7.38729 16.2502 7.57021 16.3224 7.70906 16.4521C7.84791 16.5818 7.93234 16.7594 7.94529 16.949C7.95824 17.1386 7.89875 17.326 7.77883 17.4734C7.65892 17.6208 7.48752 17.7172 7.29927 17.7431L7.19727 17.7501H6.69727C6.12714 17.7502 5.57824 17.5338 5.16151 17.1447C4.74478 16.7557 4.49129 16.2229 4.45227 15.6541L4.44727 15.5001V14.4951C4.44727 14.2962 4.52628 14.1054 4.66694 13.9648C4.80759 13.8241 4.99835 13.7451 5.19727 13.7451Z" fill="#474747"/>
<path d="M20.1973 13.7451C20.3962 13.7451 20.587 13.8241 20.7277 13.9648C20.8683 14.1054 20.9473 14.2962 20.9473 14.4951V15.5001C20.9473 16.0969 20.7103 16.6691 20.2883 17.0911C19.8664 17.5131 19.2941 17.7501 18.6973 17.7501H17.6943C17.4954 17.7501 17.3047 17.6711 17.164 17.5304C17.0234 17.3898 16.9443 17.199 16.9443 17.0001C16.9443 16.8012 17.0234 16.6104 17.164 16.4698C17.3047 16.3291 17.4954 16.2501 17.6943 16.2501H18.6973C18.8962 16.2501 19.087 16.1711 19.2277 16.0304C19.3683 15.8898 19.4473 15.699 19.4473 15.5001V14.4951C19.4473 14.2962 19.5264 14.1054 19.667 13.9648C19.8077 13.8241 19.9984 13.7451 20.1973 13.7451Z" fill="#474747"/>
<path d="M15.195 16.25H13.7L13.598 16.257C13.4097 16.2829 13.2383 16.3793 13.1184 16.5267C12.9985 16.6741 12.939 16.8615 12.9519 17.0511C12.9649 17.2407 13.0493 17.4183 13.1882 17.548C13.327 17.6778 13.5099 17.7499 13.7 17.75H15.195L15.297 17.743C15.4852 17.7171 15.6566 17.6207 15.7765 17.4733C15.8965 17.3259 15.9559 17.1385 15.943 16.9489C15.93 16.7593 15.8456 16.5817 15.7068 16.452C15.5679 16.3222 15.385 16.2501 15.195 16.25Z" fill="#474747"/>
<path d="M9.69701 16.25H11.193C11.383 16.2501 11.566 16.3222 11.7048 16.452C11.8437 16.5817 11.9281 16.7593 11.941 16.9489C11.954 17.1385 11.8945 17.3259 11.7746 17.4733C11.6547 17.6207 11.4833 17.7171 11.295 17.743L11.193 17.75H9.69801C9.50799 17.7499 9.32507 17.6778 9.18622 17.548C9.04737 17.4183 8.96294 17.2407 8.94999 17.0511C8.93704 16.8615 8.99653 16.6741 9.11645 16.5267C9.23636 16.3793 9.40776 16.2829 9.59601 16.257L9.69701 16.25Z" fill="#474747"/>
<path d="M20.1973 8.75C20.3787 8.75004 20.5539 8.81582 20.6905 8.93514C20.8271 9.05447 20.9158 9.21926 20.9403 9.399L20.9473 9.501V11.995C20.9472 12.185 20.875 12.3679 20.7453 12.5068C20.6156 12.6456 20.438 12.7301 20.2484 12.743C20.0588 12.756 19.8714 12.6965 19.724 12.5766C19.5766 12.4567 19.4802 12.2853 19.4543 12.097L19.4473 11.995V9.501C19.4473 9.30209 19.5263 9.11132 19.6669 8.97067C19.8076 8.83002 19.9984 8.751 20.1973 8.751V8.75Z" fill="#474747"/>
<path d="M7.70027 3.75C7.89918 3.75 8.08994 3.82902 8.2306 3.96967C8.37125 4.11032 8.45027 4.30109 8.45027 4.5C8.45027 4.69891 8.37125 4.88968 8.2306 5.03033C8.08994 5.17098 7.89918 5.25 7.70027 5.25H6.69727C6.49835 5.25 6.30759 5.32902 6.16694 5.46967C6.02628 5.61032 5.94727 5.80109 5.94727 6V7.004C5.94727 7.20291 5.86825 7.39368 5.7276 7.53433C5.58694 7.67498 5.39618 7.754 5.19727 7.754C4.99835 7.754 4.80759 7.67498 4.66694 7.53433C4.52628 7.39368 4.44727 7.20291 4.44727 7.004V6C4.44727 5.40326 4.68432 4.83097 5.10628 4.40901C5.52823 3.98705 6.10053 3.75 6.69727 3.75H7.70027Z" fill="#474747"/>
<path d="M15.6991 3.75H14.1961L14.0941 3.757C13.9057 3.78291 13.7343 3.87938 13.6143 4.02689C13.4944 4.17441 13.435 4.36196 13.4481 4.55162C13.4612 4.74128 13.5458 4.91889 13.6848 5.04854C13.8239 5.17819 14.007 5.2502 14.1971 5.25H15.7001L15.8021 5.243C15.9903 5.2171 16.1617 5.12071 16.2816 4.9733C16.4015 4.82589 16.461 4.63846 16.4481 4.44888C16.4351 4.2593 16.3507 4.0817 16.2119 3.95197C16.073 3.82224 15.8901 3.75006 15.7001 3.75H15.6991Z" fill="#474747"/>
<path d="M10.197 3.75H11.692C11.8821 3.75006 12.065 3.82224 12.2038 3.95197C12.3427 4.0817 12.4271 4.2593 12.4401 4.44888C12.453 4.63846 12.3935 4.82589 12.2736 4.9733C12.1537 5.12071 11.9823 5.2171 11.794 5.243L11.692 5.25H10.197C10.007 5.24994 9.8241 5.17776 9.68525 5.04803C9.54639 4.9183 9.46196 4.7407 9.44901 4.55112C9.43606 4.36154 9.49555 4.17411 9.61547 4.0267C9.73539 3.87929 9.90679 3.7829 10.095 3.757L10.197 3.75Z" fill="#474747"/>
<path d="M12.9357 9.64959L14.3664 7.29492H15.654L13.5437 10.4842L15.7196 13.7449H14.4439L12.9536 11.3306L11.4633 13.7449H10.1816L12.3575 10.4842L10.2472 7.29492H11.5229L12.9357 9.64959Z" fill="#474747"/>
</svg>
