<svg width="20" height="21" viewBox="0 0 20 21" fill="none" xmlns="http://www.w3.org/2000/svg">
<path d="M10 20.0957C15.5228 20.0957 20 15.6186 20 10.0957C20 4.57286 15.5228 0.0957031 10 0.0957031C4.47715 0.0957031 0 4.57286 0 10.0957C0 15.6186 4.47715 20.0957 10 20.0957Z" fill="#474747"/>
<path d="M10.0004 3.93066C6.61856 3.93066 3.875 6.48386 3.875 9.64175C3.875 11.4335 4.77086 13.0348 6.15943 14.0874V16.2599L8.2423 15.1065C8.80221 15.2633 9.38452 15.3416 10.0004 15.3416C13.3823 15.3416 16.1258 12.7884 16.1258 9.63055C16.1258 6.48386 13.3823 3.93066 10.0004 3.93066ZM10.6163 11.6126L9.04857 9.9441L6.00266 11.6126L9.36212 8.04041L10.9635 9.70894L13.9646 8.04041L10.6163 11.6126Z" fill="white"/>
</svg>
