<svg width="20" height="20" viewBox="0 0 20 20" fill="none" xmlns="http://www.w3.org/2000/svg">
<path d="M9.99902 20C15.5219 20 19.999 15.5228 19.999 10C19.999 4.47715 15.5219 0 9.99902 0C4.47618 0 -0.000976562 4.47715 -0.000976562 10C-0.000976562 15.5228 4.47618 20 9.99902 20Z" fill="white"/>
<path d="M9.99896 3.83496C6.6171 3.83496 3.87354 6.38815 3.87354 9.54605C3.87354 11.3378 4.76939 12.9391 6.15797 13.9917V16.1642L8.24084 15.0108C8.80075 15.1675 9.38305 15.2459 9.99896 15.2459C13.3808 15.2459 16.1244 12.6927 16.1244 9.53485C16.1244 6.38815 13.3808 3.83496 9.99896 3.83496ZM10.6149 11.5169L9.04711 9.8484L6.00119 11.5169L9.36066 7.9447L10.962 9.61324L13.9631 7.9447L10.6149 11.5169Z" fill="#4C5BD4"/>
</svg>
