<svg width="24" height="25" viewBox="0 0 24 25" fill="none" xmlns="http://www.w3.org/2000/svg">
<path d="M9.9375 3.6582C9.39049 3.6582 8.86589 3.8755 8.47909 4.2623C8.0923 4.64909 7.875 5.17369 7.875 5.7207V6.4082H3.0625C2.51549 6.4082 1.99089 6.6255 1.60409 7.0123C1.2173 7.39909 1 7.92369 1 8.4707L1 10.3737L11.4692 13.165C11.817 13.2576 12.183 13.2576 12.5307 13.165L23 10.3737V8.4707C23 7.92369 22.7827 7.39909 22.3959 7.0123C22.0091 6.6255 21.4845 6.4082 20.9375 6.4082H16.125V5.7207C16.125 5.17369 15.9077 4.64909 15.5209 4.2623C15.1341 3.8755 14.6095 3.6582 14.0625 3.6582H9.9375ZM9.9375 5.0332H14.0625C14.2448 5.0332 14.4197 5.10564 14.5486 5.23457C14.6776 5.3635 14.75 5.53837 14.75 5.7207V6.4082H9.25V5.7207C9.25 5.53837 9.32243 5.3635 9.45136 5.23457C9.5803 5.10564 9.75516 5.0332 9.9375 5.0332Z" fill="#666666"/>
<path d="M1 19.4719C1 20.0189 1.2173 20.5435 1.60409 20.9303C1.99089 21.3171 2.51549 21.5344 3.0625 21.5344H20.9375C21.4845 21.5344 22.0091 21.3171 22.3959 20.9303C22.7827 20.5435 23 20.0189 23 19.4719V11.7031L12.1774 14.5865C12.0612 14.6175 11.9388 14.6175 11.8226 14.5865L1 11.7031V19.4719Z" fill="#666666"/>
</svg>
