<svg width="24" height="25" viewBox="0 0 24 25" fill="none" xmlns="http://www.w3.org/2000/svg">
<path d="M12 2.0957C9.81276 2.09828 7.71584 2.96831 6.16923 4.51492C4.62261 6.06154 3.75259 8.15846 3.75001 10.3457C3.74739 12.1331 4.33124 13.872 5.41201 15.2957C5.41201 15.2957 5.63701 15.592 5.67376 15.6347L12 23.0957L18.3293 15.631C18.3623 15.5912 18.588 15.2957 18.588 15.2957L18.5888 15.2935C19.669 13.8704 20.2526 12.1323 20.25 10.3457C20.2474 8.15846 19.3774 6.06154 17.8308 4.51492C16.2842 2.96831 14.1873 2.09828 12 2.0957ZM12 13.3457C11.4067 13.3457 10.8266 13.1698 10.3333 12.8401C9.83995 12.5105 9.45543 12.0419 9.22837 11.4938C9.00131 10.9456 8.9419 10.3424 9.05765 9.76043C9.17341 9.17849 9.45913 8.64394 9.87869 8.22438C10.2982 7.80483 10.8328 7.5191 11.4147 7.40335C11.9967 7.28759 12.5999 7.347 13.1481 7.57406C13.6962 7.80113 14.1648 8.18565 14.4944 8.67899C14.8241 9.17234 15 9.75236 15 10.3457C14.999 11.141 14.6826 11.9035 14.1202 12.4659C13.5578 13.0283 12.7954 13.3447 12 13.3457Z" fill="#666666"/>
</svg>
