<svg width="24" height="25" viewBox="0 0 24 25" fill="none" xmlns="http://www.w3.org/2000/svg">
<path d="M12.2614 5.34132C12.1916 5.27456 12.0988 5.2373 12.0022 5.2373C11.9056 5.2373 11.8128 5.27456 11.743 5.34132L3.11328 13.5852C3.07663 13.6203 3.04748 13.6624 3.02757 13.7091C3.00767 13.7557 2.99744 13.8059 2.9975 13.8566L2.99609 21.5938C2.99609 21.9916 3.15413 22.3732 3.43543 22.6545C3.71674 22.9358 4.09827 23.0938 4.49609 23.0938H9.00078C9.19969 23.0938 9.39046 23.0148 9.53111 22.8742C9.67176 22.7335 9.75078 22.5427 9.75078 22.3438V15.9688C9.75078 15.8694 9.79029 15.774 9.86062 15.7037C9.93094 15.6333 10.0263 15.5938 10.1258 15.5938H13.8758C13.9752 15.5938 14.0706 15.6333 14.1409 15.7037C14.2113 15.774 14.2508 15.8694 14.2508 15.9688V22.3438C14.2508 22.5427 14.3298 22.7335 14.4705 22.8742C14.6111 23.0148 14.8019 23.0938 15.0008 23.0938H19.5036C19.9014 23.0938 20.2829 22.9358 20.5643 22.6545C20.8456 22.3732 21.0036 21.9916 21.0036 21.5938V13.8566C21.0037 13.8059 20.9934 13.7557 20.9735 13.7091C20.9536 13.6624 20.9245 13.6203 20.8878 13.5852L12.2614 5.34132Z" fill="#666666"/>
<path d="M23.0114 12.0383L19.5052 8.68391V3.59375C19.5052 3.39484 19.4262 3.20407 19.2855 3.06342C19.1449 2.92277 18.9541 2.84375 18.7552 2.84375H16.5052C16.3063 2.84375 16.1155 2.92277 15.9748 3.06342C15.8342 3.20407 15.7552 3.39484 15.7552 3.59375V5.09375L13.0402 2.49781C12.7861 2.24094 12.4083 2.09375 12 2.09375C11.5931 2.09375 11.2163 2.24094 10.9622 2.49828L0.991893 12.0374C0.70033 12.3186 0.663768 12.7813 0.92908 13.086C0.995704 13.1629 1.07728 13.2254 1.16885 13.2698C1.26041 13.3142 1.36005 13.3394 1.46169 13.3441C1.56334 13.3487 1.66487 13.3327 1.7601 13.2968C1.85533 13.261 1.94228 13.2061 2.01564 13.1356L11.7422 3.84125C11.812 3.77449 11.9048 3.73723 12.0014 3.73723C12.098 3.73723 12.1909 3.77449 12.2606 3.84125L21.9881 13.1356C22.1314 13.2731 22.3234 13.348 22.5219 13.3442C22.7204 13.3403 22.9092 13.2579 23.0471 13.115C23.3349 12.8169 23.311 12.3247 23.0114 12.0383Z" fill="#666666"/>
</svg>
