<svg width="19" height="22" viewBox="0 0 19 22" fill="none" xmlns="http://www.w3.org/2000/svg">
<path d="M9.9668 0.677002C9.56911 0.677425 1.68784 3.93982 1.40664 4.20131C1.12543 4.46279 0.967252 4.81732 0.966797 5.18712V10.3014C0.966797 18.0996 8.0755 20.6861 9.50052 21.1255C9.80291 21.2208 10.1307 21.2208 10.4331 21.1255C11.8581 20.6861 18.9668 18.0996 18.9668 10.3014V5.18712C18.9663 4.81732 18.8082 4.46279 18.527 4.20131C18.2457 3.93982 10.3645 0.677425 9.9668 0.677002ZM9.2168 8.67414C9.2168 8.48917 9.29581 8.31179 9.43647 8.181C9.57712 8.05021 9.76789 7.97673 9.9668 7.97673C10.1657 7.97673 10.3565 8.05021 10.4971 8.181C10.6378 8.31179 10.7168 8.48917 10.7168 8.67414V12.1612C10.7168 12.3461 10.6378 12.5235 10.4971 12.6543C10.3565 12.7851 10.1657 12.8586 9.9668 12.8586C9.76789 12.8586 9.57712 12.7851 9.43647 12.6543C9.29581 12.5235 9.2168 12.3461 9.2168 12.1612V8.67414ZM9.9668 16.3456C9.74429 16.3456 9.52679 16.2842 9.34178 16.1693C9.15678 16.0543 9.01258 15.8909 8.92743 15.6998C8.84228 15.5086 8.82001 15.2983 8.86341 15.0954C8.90682 14.8925 9.01397 14.7061 9.1713 14.5598C9.32864 14.4135 9.52909 14.3138 9.74732 14.2735C9.96555 14.2331 10.1917 14.2538 10.3973 14.333C10.6029 14.4122 10.7786 14.5462 10.9022 14.7183C11.0258 14.8903 11.0918 15.0926 11.0918 15.2995C11.0918 15.5769 10.9733 15.843 10.7623 16.0392C10.5513 16.2354 10.2652 16.3456 9.9668 16.3456Z" fill="#474747"/>
</svg>
