<svg width="18" height="18" viewBox="0 0 18 18" fill="none" xmlns="http://www.w3.org/2000/svg">
<circle cx="9" cy="9" r="9" fill="#4C5BD4"/>
<path d="M4.72484 7.37988C4.10475 7.37988 3.59985 7.88478 3.59985 8.50487V12.1049C3.59985 12.7249 4.10475 13.2298 4.72484 13.2298H6.07483C6.32819 13.2298 6.56127 13.1443 6.74983 13.0021V7.37988H4.72484Z" fill="white"/>
<path d="M14.3999 9.06734C14.3999 8.7969 14.2928 8.54489 14.107 8.35904C14.3171 8.1291 14.4242 7.82083 14.3949 7.5C14.3423 6.92805 13.827 6.47985 13.2214 6.47985H10.4417C10.5794 6.06179 10.7999 5.29546 10.7999 4.67987C10.7999 3.70382 9.97058 2.87988 9.44992 2.87988C8.98238 2.87988 8.64847 3.14313 8.63409 3.15393C8.58099 3.19669 8.54994 3.26149 8.54994 3.32987V4.85581L7.25395 7.66335L7.19995 7.69079V12.5139C7.56624 12.6867 8.02973 12.7798 8.32494 12.7798H12.4555C12.9455 12.7798 13.3744 12.4495 13.4752 11.9937C13.5269 11.7592 13.4968 11.523 13.3937 11.3178C13.7263 11.1504 13.9499 10.8079 13.9499 10.4173C13.9499 10.258 13.9135 10.1055 13.8442 9.96734C14.1767 9.79994 14.3999 9.45749 14.3999 9.06734Z" fill="white"/>
</svg>
