<svg width="20" height="20" viewBox="0 0 20 20" fill="none" xmlns="http://www.w3.org/2000/svg">
<path d="M10.0003 1.66602C5.40866 1.66602 1.66699 5.40768 1.66699 9.99935C1.66699 14.591 5.40866 18.3327 10.0003 18.3327C14.592 18.3327 18.3337 14.591 18.3337 9.99935C18.3337 5.40768 14.592 1.66602 10.0003 1.66602ZM13.3337 10.6243H10.6253V13.3327C10.6253 13.6743 10.342 13.9577 10.0003 13.9577C9.65866 13.9577 9.37533 13.6743 9.37533 13.3327V10.6243H6.66699C6.32533 10.6243 6.04199 10.341 6.04199 9.99935C6.04199 9.65768 6.32533 9.37435 6.66699 9.37435H9.37533V6.66602C9.37533 6.32435 9.65866 6.04102 10.0003 6.04102C10.342 6.04102 10.6253 6.32435 10.6253 6.66602V9.37435H13.3337C13.6753 9.37435 13.9587 9.65768 13.9587 9.99935C13.9587 10.341 13.6753 10.6243 13.3337 10.6243Z" fill="white"/>
</svg>
