<svg width="30" height="31" viewBox="0 0 30 31" fill="none" xmlns="http://www.w3.org/2000/svg">
<path d="M15 20.5C17.7614 20.5 20 18.2614 20 15.5C20 12.7386 17.7614 10.5 15 10.5C12.2386 10.5 10 12.7386 10 15.5C10 18.2614 12.2386 20.5 15 20.5Z" stroke="#474747" stroke-width="2" stroke-linecap="round" stroke-linejoin="round"/>
<path d="M20 10.4992V16.7492C20 17.7438 20.3951 18.6976 21.0984 19.4009C21.8016 20.1041 22.7555 20.4992 23.75 20.4992C24.7446 20.4992 25.6984 20.1041 26.4017 19.4009C27.1049 18.6976 27.5 17.7438 27.5 16.7492V15.4992C27.4998 12.678 26.5453 9.93982 24.7916 7.72989C23.0379 5.51996 20.5882 3.96826 17.8408 3.3271C15.0934 2.68594 12.2099 2.99303 9.6592 4.19843C7.10846 5.40384 5.04051 7.43667 3.79158 9.96638C2.54266 12.4961 2.18622 15.3739 2.78022 18.1319C3.37422 20.8898 4.88373 23.3658 7.0633 25.1571C9.24287 26.9484 11.9643 27.9497 14.7851 27.9982C17.6059 28.0467 20.3601 27.1395 22.6 25.4242" stroke="#474747" stroke-width="2" stroke-linecap="round" stroke-linejoin="round"/>
</svg>
