<svg width="20" height="20" viewBox="0 0 20 20" fill="none" xmlns="http://www.w3.org/2000/svg">
<path d="M9.99967 11.6673V18.334H3.33301C3.33301 16.5659 4.03539 14.8702 5.28563 13.6199C6.53587 12.3697 8.23156 11.6673 9.99967 11.6673ZM9.99967 10.834C7.23717 10.834 4.99967 8.59648 4.99967 5.83398C4.99967 3.07148 7.23717 0.833984 9.99967 0.833984C12.7622 0.833984 14.9997 3.07148 14.9997 5.83398C14.9997 8.59648 12.7622 10.834 9.99967 10.834ZM12.1622 15.6773C12.0565 15.2327 12.0565 14.7695 12.1622 14.3248L11.3355 13.8473L12.1688 12.404L12.9955 12.8815C13.3273 12.5672 13.7284 12.3354 14.1663 12.2048V11.2507H15.833V12.2048C16.2763 12.3365 16.6763 12.5715 17.0038 12.8815L17.8305 12.404L18.6638 13.8473L17.8372 14.3248C17.9427 14.7692 17.9427 15.2321 17.8372 15.6765L18.6638 16.154L17.8305 17.5973L17.0038 17.1198C16.672 17.4341 16.271 17.6659 15.833 17.7965V18.7507H14.1663V17.7965C13.7284 17.6659 13.3273 17.4341 12.9955 17.1198L12.1688 17.5973L11.3355 16.154L12.1622 15.6773ZM14.9997 14.1673C14.7787 14.1673 14.5667 14.2551 14.4104 14.4114C14.2541 14.5677 14.1663 14.7796 14.1663 15.0007C14.1663 15.2217 14.2541 15.4336 14.4104 15.5899C14.5667 15.7462 14.7787 15.834 14.9997 15.834C15.2207 15.834 15.4326 15.7462 15.5889 15.5899C15.7452 15.4336 15.833 15.2217 15.833 15.0007C15.833 14.7796 15.7452 14.5677 15.5889 14.4114C15.4326 14.2551 15.2207 14.1673 14.9997 14.1673Z" fill="#474747"/>
</svg>
