<svg width="20" height="20" viewBox="0 0 20 20" fill="none" xmlns="http://www.w3.org/2000/svg">
<g clip-path="url(#clip0_2011_117313)">
<path d="M10 18.75C7.67936 18.75 5.45376 17.8281 3.81282 16.1872C2.17187 14.5462 1.25 12.3206 1.25 10C1.25 7.67936 2.17187 5.45376 3.81282 3.81282C5.45376 2.17187 7.67936 1.25 10 1.25C12.3206 1.25 14.5462 2.17187 16.1872 3.81282C17.8281 5.45376 18.75 7.67936 18.75 10C18.75 12.3206 17.8281 14.5462 16.1872 16.1872C14.5462 17.8281 12.3206 18.75 10 18.75ZM10 20C12.6522 20 15.1957 18.9464 17.0711 17.0711C18.9464 15.1957 20 12.6522 20 10C20 7.34784 18.9464 4.8043 17.0711 2.92893C15.1957 1.05357 12.6522 0 10 0C7.34784 0 4.8043 1.05357 2.92893 2.92893C1.05357 4.8043 0 7.34784 0 10C0 12.6522 1.05357 15.1957 2.92893 17.0711C4.8043 18.9464 7.34784 20 10 20V20Z" fill="#666666"/>
<path d="M5.80862 5.80764C5.86667 5.74944 5.93564 5.70326 6.01157 5.67175C6.08751 5.64024 6.16891 5.62402 6.25112 5.62402C6.33333 5.62402 6.41473 5.64024 6.49066 5.67175C6.56659 5.70326 6.63556 5.74944 6.69362 5.80764L10.0011 9.11639L13.3086 5.80764C13.3667 5.74953 13.4357 5.70343 13.5116 5.67199C13.5876 5.64054 13.6689 5.62435 13.7511 5.62435C13.8333 5.62435 13.9147 5.64054 13.9906 5.67199C14.0665 5.70343 14.1355 5.74953 14.1936 5.80764C14.2517 5.86575 14.2978 5.93474 14.3293 6.01066C14.3607 6.08659 14.3769 6.16796 14.3769 6.25014C14.3769 6.33232 14.3607 6.4137 14.3293 6.48962C14.2978 6.56554 14.2517 6.63453 14.1936 6.69264L10.8849 10.0001L14.1936 13.3076C14.2517 13.3658 14.2978 13.4347 14.3293 13.5107C14.3607 13.5866 14.3769 13.668 14.3769 13.7501C14.3769 13.8323 14.3607 13.9137 14.3293 13.9896C14.2978 14.0655 14.2517 14.1345 14.1936 14.1926C14.1355 14.2508 14.0665 14.2968 13.9906 14.3283C13.9147 14.3597 13.8333 14.3759 13.7511 14.3759C13.6689 14.3759 13.5876 14.3597 13.5116 14.3283C13.4357 14.2968 13.3667 14.2508 13.3086 14.1926L10.0011 10.8839L6.69362 14.1926C6.63551 14.2508 6.56652 14.2968 6.4906 14.3283C6.41467 14.3597 6.3333 14.3759 6.25112 14.3759C6.16894 14.3759 6.08756 14.3597 6.01164 14.3283C5.93571 14.2968 5.86673 14.2508 5.80862 14.1926C5.75051 14.1345 5.70441 14.0655 5.67296 13.9896C5.64151 13.9137 5.62533 13.8323 5.62533 13.7501C5.62533 13.668 5.64151 13.5866 5.67296 13.5107C5.70441 13.4347 5.75051 13.3658 5.80862 13.3076L9.11737 10.0001L5.80862 6.69264C5.75041 6.63458 5.70423 6.56561 5.67273 6.48968C5.64122 6.41375 5.625 6.33235 5.625 6.25014C5.625 6.16793 5.64122 6.08653 5.67273 6.0106C5.70423 5.93467 5.75041 5.8657 5.80862 5.80764Z" fill="#666666"/>
</g>
<defs>
<clipPath id="clip0_2011_117313">
<rect width="20" height="20" fill="white"/>
</clipPath>
</defs>
</svg>
