<svg width="16" height="17" viewBox="0 0 16 17" fill="none" xmlns="http://www.w3.org/2000/svg">
<g clip-path="url(#clip0_4_30755)">
<path d="M12.8538 0.242096C12.76 0.148361 12.6329 0.0957031 12.5003 0.0957031C12.3677 0.0957031 12.2406 0.148361 12.1468 0.242096L10.4998 1.8891L14.2068 5.5961L15.8538 3.9501C15.9004 3.90365 15.9373 3.84848 15.9625 3.78773C15.9877 3.72698 16.0007 3.66186 16.0007 3.5961C16.0007 3.53033 15.9877 3.46521 15.9625 3.40446C15.9373 3.34372 15.9004 3.28854 15.8538 3.2421L12.8538 0.242096ZM13.4998 6.3031L9.79281 2.5961L3.29281 9.0961H3.49981C3.63241 9.0961 3.75959 9.14877 3.85336 9.24254C3.94713 9.33631 3.99981 9.46349 3.99981 9.5961V10.0961H4.49981C4.63241 10.0961 4.75959 10.1488 4.85336 10.2425C4.94713 10.3363 4.99981 10.4635 4.99981 10.5961V11.0961H5.49981C5.63241 11.0961 5.75959 11.1488 5.85336 11.2425C5.94713 11.3363 5.99981 11.4635 5.99981 11.5961V12.0961H6.49981C6.63241 12.0961 6.75959 12.1488 6.85336 12.2425C6.94713 12.3363 6.99981 12.4635 6.99981 12.5961V12.8031L13.4998 6.3031ZM6.03181 13.7711C6.01076 13.7151 5.99993 13.6559 5.99981 13.5961V13.0961H5.49981C5.3672 13.0961 5.24002 13.0434 5.14625 12.9496C5.05248 12.8559 4.99981 12.7287 4.99981 12.5961V12.0961H4.49981C4.3672 12.0961 4.24002 12.0434 4.14625 11.9496C4.05248 11.8559 3.99981 11.7287 3.99981 11.5961V11.0961H3.49981C3.3672 11.0961 3.24002 11.0434 3.14625 10.9496C3.05248 10.8559 2.99981 10.7287 2.99981 10.5961V10.0961H2.49981C2.44003 10.096 2.38075 10.0852 2.32481 10.0641L2.14581 10.2421C2.09816 10.2901 2.06073 10.3472 2.03581 10.4101L0.0358061 15.4101C-0.000564594 15.501 -0.0094681 15.6005 0.0101994 15.6964C0.0298668 15.7923 0.0772403 15.8802 0.146447 15.9495C0.215653 16.0187 0.303649 16.066 0.399526 16.0857C0.495402 16.1054 0.594942 16.0965 0.685806 16.0601L5.68581 14.0601C5.74867 14.0352 5.80582 13.9977 5.85381 13.9501L6.03181 13.7721V13.7711Z" fill="#474747"/>
</g>
<defs>
<clipPath id="clip0_4_30755">
<rect width="16" height="16" fill="white" transform="translate(0 0.0957031)"/>
</clipPath>
</defs>
</svg>
