<svg width="50" height="50" viewBox="0 0 50 50" fill="none" xmlns="http://www.w3.org/2000/svg">
<path d="M44.041 20.625H26.5619V32.0417C26.5619 32.8958 25.8535 33.6042 24.9994 33.6042C24.1452 33.6042 23.4368 32.8958 23.4368 32.0417V20.625H5.95768C4.95768 20.625 4.16602 21.4167 4.16602 22.4167C4.16602 34.6875 12.7285 43.25 24.9994 43.25C37.2702 43.25 45.8327 34.6875 45.8327 22.4167C45.8327 21.4167 45.041 20.625 44.041 20.625Z" fill="#4C5BD4"/>
<path d="M26.5625 12.084L29.8125 15.334C30.4167 15.9382 31.4167 15.9382 32.0208 15.334C32.625 14.7298 32.625 13.7298 32.0208 13.1257L26.0833 7.20898C25.4792 6.60482 24.4792 6.60482 23.875 7.20898L17.9583 13.1465C17.6667 13.459 17.5 13.8548 17.5 14.2507C17.5 14.6465 17.6458 15.0423 17.9583 15.3548C18.5625 15.959 19.5625 15.959 20.1667 15.3548L23.4167 12.1048V20.6257H26.5417V12.084H26.5625Z" fill="#4C5BD4"/>
</svg>
