<svg width="28" height="29" viewBox="0 0 28 29" fill="none" xmlns="http://www.w3.org/2000/svg">
<path d="M21.7814 2.83398H19.5647C17.0214 2.83398 15.6797 4.17565 15.6797 6.71898V8.93565C15.6797 11.479 17.0214 12.8207 19.5647 12.8207H21.7814C24.3247 12.8207 25.6664 11.479 25.6664 8.93565V6.71898C25.6664 4.17565 24.3247 2.83398 21.7814 2.83398Z" fill="#4C5BD4"/>
<path d="M8.44732 16.168H6.23065C3.67565 16.168 2.33398 17.5096 2.33398 20.053V22.2696C2.33398 24.8246 3.67565 26.1663 6.21898 26.1663H8.43565C10.979 26.1663 12.3207 24.8246 12.3207 22.2813V20.0646C12.3323 17.5096 10.9907 16.168 8.44732 16.168Z" fill="#4C5BD4"/>
<path d="M7.33898 12.844C10.1032 12.844 12.344 10.6032 12.344 7.83898C12.344 5.0748 10.1032 2.83398 7.33898 2.83398C4.5748 2.83398 2.33398 5.0748 2.33398 7.83898C2.33398 10.6032 4.5748 12.844 7.33898 12.844Z" fill="#4C5BD4"/>
<path d="M20.6612 26.1663C23.4254 26.1663 25.6663 23.9254 25.6663 21.1612C25.6663 18.3971 23.4254 16.1562 20.6612 16.1562C17.8971 16.1562 15.6562 18.3971 15.6562 21.1612C15.6562 23.9254 17.8971 26.1663 20.6612 26.1663Z" fill="#4C5BD4"/>
</svg>
