<svg width="28" height="29" viewBox="0 0 28 29" fill="none" xmlns="http://www.w3.org/2000/svg">
<path d="M22.7099 8.88914L16.4699 4.52331C14.7691 3.33164 12.1583 3.39664 10.5224 4.66414L5.09493 8.89997C4.0116 9.74497 3.15576 11.4783 3.15576 12.8433V20.3183C3.15576 23.0808 5.39826 25.3341 8.16076 25.3341H19.8391C22.6016 25.3341 24.8441 23.0916 24.8441 20.3291V12.9841C24.8441 11.5216 23.9016 9.72331 22.7099 8.88914ZM14.8124 21.0008C14.8124 21.445 14.4441 21.8133 13.9999 21.8133C13.5558 21.8133 13.1874 21.445 13.1874 21.0008V17.7508C13.1874 17.3066 13.5558 16.9383 13.9999 16.9383C14.4441 16.9383 14.8124 17.3066 14.8124 17.7508V21.0008Z" fill="#4C5BD4"/>
</svg>
