<svg width="25" height="24" viewBox="0 0 25 24" fill="none" xmlns="http://www.w3.org/2000/svg">
<g clip-path="url(#clip0_2011_101794)">
<path fill-rule="evenodd" clip-rule="evenodd" d="M0.0664062 12.067C0.0664062 18.033 4.39941 22.994 10.0664 24V15.333H7.06641V12H10.0664V9.333C10.0664 6.333 11.9994 4.667 14.7334 4.667C15.5994 4.667 16.5334 4.8 17.3994 4.933V8H15.8664C14.3994 8 14.0664 8.733 14.0664 9.667V12H17.2664L16.7334 15.333H14.0664V24C19.7334 22.994 24.0664 18.034 24.0664 12.067C24.0664 5.43 18.6664 0 12.0664 0C5.46641 0 0.0664062 5.43 0.0664062 12.067Z" fill="#2374E1"/>
</g>
<defs>
<clipPath id="clip0_2011_101794">
<rect width="24" height="24" fill="white" transform="translate(0.0664062)"/>
</clipPath>
</defs>
</svg>
