<svg width="25" height="24" viewBox="0 0 25 24" fill="none" xmlns="http://www.w3.org/2000/svg">
<g clip-path="url(#clip0_2011_101809)">
<path d="M12.0664 0.47998C5.70399 0.47998 0.546387 5.63758 0.546387 12C0.546387 18.3624 5.70399 23.52 12.0664 23.52C18.4288 23.52 23.5864 18.3624 23.5864 12C23.5864 5.63758 18.4288 0.47998 12.0664 0.47998ZM16.4968 13.4772C16.4968 13.4772 17.5156 14.4828 17.7664 14.9496C17.7736 14.9592 17.7772 14.9688 17.7796 14.9736C17.8816 15.1452 17.9056 15.2784 17.8552 15.378C17.7712 15.5436 17.4832 15.6252 17.3848 15.6324H15.5848C15.46 15.6324 15.1984 15.6 14.8816 15.3816C14.638 15.2112 14.398 14.9316 14.164 14.6592C13.8148 14.2536 13.5124 13.9032 13.2076 13.9032C13.1689 13.9031 13.1304 13.9092 13.0936 13.9212C12.8632 13.9956 12.568 14.3244 12.568 15.2004C12.568 15.474 12.352 15.6312 12.1996 15.6312H11.3752C11.0944 15.6312 9.63159 15.5328 8.33559 14.166C6.74919 12.492 5.32119 9.13438 5.30919 9.10318C5.21919 8.88598 5.40519 8.76958 5.60799 8.76958H7.42599C7.66839 8.76958 7.74759 8.91718 7.80279 9.04798C7.86759 9.20038 8.10519 9.80638 8.49519 10.488C9.12759 11.5992 9.51519 12.0504 9.82599 12.0504C9.88426 12.0497 9.9415 12.0349 9.99279 12.0072C10.3984 11.7816 10.3228 10.3356 10.3048 10.0356C10.3048 9.97918 10.3036 9.38878 10.096 9.10558C9.94719 8.90038 9.69399 8.82238 9.54039 8.79358C9.60256 8.70779 9.68446 8.63823 9.77919 8.59078C10.0576 8.45158 10.5592 8.43118 11.0572 8.43118H11.3344C11.8744 8.43838 12.0136 8.47318 12.2092 8.52238C12.6052 8.61718 12.6136 8.87278 12.5788 9.74758C12.568 9.99598 12.5572 10.2768 12.5572 10.608C12.5572 10.68 12.5536 10.7568 12.5536 10.8384C12.5416 11.2836 12.5272 11.7888 12.8416 11.9964C12.8826 12.0221 12.93 12.0358 12.9784 12.036C13.0876 12.036 13.4164 12.036 14.3068 10.5084C14.5814 10.0167 14.82 9.50575 15.0208 8.97958C15.0388 8.94838 15.0916 8.85238 15.154 8.81518C15.2 8.7917 15.2511 8.77976 15.3028 8.78038H17.44C17.6728 8.78038 17.8324 8.81518 17.8624 8.90518C17.9152 9.04798 17.8528 9.48358 16.8772 10.8048L16.4416 11.3796C15.5572 12.5388 15.5572 12.5976 16.4968 13.4772Z" fill="#0077FF"/>
</g>
<defs>
<clipPath id="clip0_2011_101809">
<rect width="24" height="24" fill="white" transform="translate(0.0664062)"/>
</clipPath>
</defs>
</svg>
