<svg width="25" height="24" viewBox="0 0 25 24" fill="none" xmlns="http://www.w3.org/2000/svg">
<g clip-path="url(#clip0_2011_101799)">
<path d="M0.0664062 12C0.0664062 17.123 3.27741 21.497 7.79641 23.218C7.68641 22.281 7.56941 20.736 7.82141 19.652C8.03841 18.72 9.22241 13.714 9.22241 13.714C9.22241 13.714 8.86541 12.999 8.86541 11.94C8.86541 10.28 9.82741 9.04 11.0264 9.04C12.0464 9.04 12.5384 9.805 12.5384 10.722C12.5384 11.747 11.8854 13.279 11.5484 14.7C11.2674 15.889 12.1454 16.859 13.3174 16.859C15.4404 16.859 17.0734 14.62 17.0734 11.388C17.0734 8.527 15.0174 6.528 12.0824 6.528C8.68441 6.528 6.68941 9.077 6.68941 11.712C6.68941 12.739 7.08441 13.839 7.57841 14.438C7.62052 14.4832 7.65028 14.5386 7.66482 14.5986C7.67935 14.6587 7.67818 14.7215 7.66141 14.781C7.57041 15.159 7.36841 15.97 7.32941 16.136C7.27641 16.354 7.15641 16.401 6.92941 16.295C5.43741 15.601 4.50541 13.42 4.50541 11.668C4.50541 7.899 7.24241 4.439 12.3974 4.439C16.5414 4.439 19.7624 7.392 19.7624 11.338C19.7624 15.455 17.1674 18.769 13.5634 18.769C12.3524 18.769 11.2154 18.139 10.8254 17.396C10.8254 17.396 10.2264 19.678 10.0814 20.236C9.79941 21.32 9.01741 22.692 8.53241 23.471C9.65041 23.815 10.8364 24 12.0664 24C18.6934 24 24.0664 18.627 24.0664 12C24.0664 5.373 18.6934 0 12.0664 0C5.43941 0 0.0664062 5.373 0.0664062 12Z" fill="#CC0000"/>
</g>
<defs>
<clipPath id="clip0_2011_101799">
<rect width="24" height="24" fill="white" transform="translate(0.0664062)"/>
</clipPath>
</defs>
</svg>
