<svg width="25" height="24" viewBox="0 0 25 24" fill="none" xmlns="http://www.w3.org/2000/svg">
<path d="M12.0664 1.5C6.26797 1.5 1.56641 6.20156 1.56641 12C1.56641 17.7984 6.26797 22.5 12.0664 22.5C17.8648 22.5 22.5664 17.7984 22.5664 12C22.5664 6.20156 17.8648 1.5 12.0664 1.5ZM17.1125 9.41484C17.1195 9.525 17.1195 9.63984 17.1195 9.75234C17.1195 13.193 14.4992 17.1562 9.71094 17.1562C8.23438 17.1562 6.86562 16.7273 5.7125 15.9891C5.92344 16.0125 6.125 16.0219 6.34063 16.0219C7.55938 16.0219 8.67969 15.6094 9.57266 14.9109C8.42891 14.8875 7.46797 14.1375 7.13984 13.1063C7.54062 13.1648 7.90156 13.1648 8.31406 13.0594C7.72514 12.9397 7.1958 12.6199 6.81598 12.1542C6.43615 11.6885 6.22927 11.1056 6.23047 10.5047V10.4719C6.575 10.6664 6.98047 10.7859 7.40469 10.8023C7.04807 10.5647 6.7556 10.2427 6.55323 9.86491C6.35085 9.48715 6.24482 9.06528 6.24453 8.63672C6.24453 8.15156 6.37109 7.70859 6.59844 7.32422C7.25212 8.12891 8.06781 8.78705 8.9925 9.25586C9.91718 9.72466 10.9302 9.99364 11.9656 10.0453C11.5977 8.27578 12.9195 6.84375 14.5086 6.84375C15.2586 6.84375 15.9336 7.15781 16.4094 7.66406C16.9977 7.55391 17.5602 7.33359 18.0617 7.03828C17.8672 7.64062 17.4594 8.14922 16.918 8.47031C17.443 8.41406 17.9492 8.26875 18.418 8.06484C18.0641 8.58516 17.6211 9.04688 17.1125 9.41484Z" fill="#1D9BF0"/>
</svg>
