<svg width="25" height="24" viewBox="0 0 25 24" fill="none" xmlns="http://www.w3.org/2000/svg">
<g clip-path="url(#clip0_2011_101814)">
<path d="M12.0664 0.47998C5.70399 0.47998 0.546387 5.63758 0.546387 12C0.546387 18.3624 5.70399 23.52 12.0664 23.52C18.4288 23.52 23.5864 18.3624 23.5864 12C23.5864 5.63758 18.4288 0.47998 12.0664 0.47998ZM9.24639 16.7748H6.91359V9.26758H9.24639V16.7748ZM8.06559 8.34598C7.32879 8.34598 6.85239 7.82398 6.85239 7.17838C6.85239 6.51958 7.34319 6.01318 8.09559 6.01318C8.84799 6.01318 9.30879 6.51958 9.32319 7.17838C9.32319 7.82398 8.84799 8.34598 8.06559 8.34598ZM17.7664 16.7748H15.4336V12.6144C15.4336 11.646 15.0952 10.9884 14.2516 10.9884C13.6072 10.9884 13.2244 11.4336 13.0552 11.862C12.9928 12.0144 12.9772 12.2304 12.9772 12.4452V16.7736H10.6432V11.6616C10.6432 10.7244 10.6132 9.94078 10.582 9.26638H12.6088L12.7156 10.3092H12.7624C13.0696 9.81958 13.822 9.09718 15.0808 9.09718C16.6156 9.09718 17.7664 10.1256 17.7664 12.336V16.7748V16.7748Z" fill="#0A66C2"/>
</g>
<defs>
<clipPath id="clip0_2011_101814">
<rect width="24" height="24" fill="white" transform="translate(0.0664062)"/>
</clipPath>
</defs>
</svg>
