<svg width="26" height="26" viewBox="0 0 26 26" fill="none" xmlns="http://www.w3.org/2000/svg">
<g clip-path="url(#clip0_2050_18329)">
<path d="M12.9987 1.42634C6.60597 1.42634 1.42439 6.60792 1.42439 13.0007C1.42439 19.3934 6.60597 24.575 12.9987 24.575C19.3915 24.575 24.5731 19.3934 24.5731 13.0007C24.5601 6.61334 19.3861 1.43934 12.9998 1.42634H12.9987ZM12.9987 25.5814C6.05022 25.5814 0.417969 19.9492 0.417969 13.0007C0.417969 6.05217 6.05022 0.419922 12.9987 0.419922C19.9472 0.419922 25.5795 6.05217 25.5795 13.0007V13.0169C25.5795 19.9557 19.9548 25.5803 13.0161 25.5803H12.9987H12.9998L12.9987 25.5814Z" fill="#FFA800"/>
<path d="M13 26C5.82075 26 0 20.1793 0 13C0 5.82075 5.82075 0 13 0C20.1793 0 26 5.82075 26 13C25.9632 20.1652 20.1652 25.9632 13.0033 26H13ZM13 0.8385C6.28333 0.8385 0.8385 6.28333 0.8385 13C0.8385 19.7167 6.28333 25.1615 13 25.1615C19.7167 25.1615 25.1615 19.7167 25.1615 13C25.1572 6.2855 19.7145 0.843917 13.0011 0.8385H13ZM13 25.077C6.3765 25.077 1.00642 19.7069 1.00642 13.0834C1.00642 6.45992 6.3765 1.08983 13 1.08983C19.6235 1.08983 24.9936 6.45992 24.9936 13.0834C24.9936 19.7069 19.6235 25.077 13 25.077ZM13 1.84492C6.83908 1.84492 1.84492 6.83908 1.84492 13C1.84492 19.1609 6.83908 24.1551 13 24.1551C19.1609 24.1551 24.1551 19.1609 24.1551 13V12.9946C24.1551 6.83692 19.1631 1.84492 13.0054 1.84492H13Z" fill="#FFA800"/>
<path d="M19.6263 15.4319V15.4709C19.6263 17.2177 18.9324 18.8931 17.6971 20.1283C16.4619 21.3636 14.7866 22.0575 13.0397 22.0575H12.9985H13.0007H12.9617C11.2148 22.0575 9.53943 21.3636 8.30419 20.1283C7.06895 18.8931 6.375 17.2177 6.375 15.4709V15.4297V15.4319H19.6263Z" fill="#FFA800"/>
<path d="M10.4825 10.7357V10.7455C10.4825 11.9913 9.47288 13.001 8.22704 13.001H8.21729C7.76948 13.001 7.33173 12.8682 6.95939 12.6194C6.58705 12.3706 6.29685 12.017 6.12548 11.6033C5.95411 11.1896 5.90927 10.7343 5.99663 10.2951C6.08399 9.8559 6.29964 9.45247 6.61629 9.13582C6.93293 8.81917 7.33637 8.60353 7.77558 8.51616C8.21478 8.4288 8.67003 8.47364 9.08375 8.64501C9.49747 8.81638 9.85109 9.10658 10.0999 9.47892C10.3487 9.85126 10.4815 10.289 10.4815 10.7368L10.4825 10.7357Z" fill="#FFA800"/>
<path d="M20.1299 10.736C20.1299 11.3364 19.8913 11.9123 19.4667 12.337C19.0421 12.7616 18.4662 13.0001 17.8657 13.0001C17.2652 13.0001 16.6893 12.7616 16.2647 12.337C15.8401 11.9123 15.6016 11.3364 15.6016 10.736V10.7262C15.6016 9.48037 16.6112 8.4707 17.8571 8.4707H17.8668C18.4633 8.48233 19.0321 8.72432 19.4542 9.14597C19.8763 9.56762 20.1188 10.1362 20.131 10.7327V10.7349L20.1299 10.736Z" fill="#FFA800"/>
</g>
<defs>
<clipPath id="clip0_2050_18329">
<rect width="26" height="26" fill="white"/>
</clipPath>
</defs>
</svg>
