<svg width="44" height="43" viewBox="0 0 44 43" fill="none" xmlns="http://www.w3.org/2000/svg">
<rect width="44" height="42.4407" rx="5" fill="#F2F2F2"/>
<path d="M20 28.9333C20 30.1452 20.9 31.1367 22 31.1367C23.1 31.1367 24 30.1452 24 28.9333C24 27.7215 23.1 26.7299 22 26.7299C20.9 26.7299 20 27.7215 20 28.9333Z" stroke="#474747" stroke-width="1.5"/>
<path d="M20 13.5075C20 14.7194 20.9 15.7109 22 15.7109C23.1 15.7109 24 14.7194 24 13.5075C24 12.2957 23.1 11.3042 22 11.3042C20.9 11.3042 20 12.2957 20 13.5075Z" stroke="#474747" stroke-width="1.5"/>
<path d="M20 21.2224C20 22.4343 20.9 23.4258 22 23.4258C23.1 23.4258 24 22.4343 24 21.2224C24 20.0105 23.1 19.019 22 19.019C20.9 19.019 20 20.0105 20 21.2224Z" stroke="#474747" stroke-width="1.5"/>
</svg>
