<svg width="26" height="26" viewBox="0 0 26 26" fill="none" xmlns="http://www.w3.org/2000/svg">
<path d="M21.483 9.42414L16.5755 4.51664C15.5463 3.48747 14.1272 2.93497 12.6755 3.0108L7.25883 3.2708C5.09217 3.3683 3.36967 5.0908 3.26134 7.24664L3.00134 12.6633C2.93634 14.115 3.478 15.5341 4.50717 16.5633L9.41467 21.4708C11.4297 23.4858 14.7013 23.4858 16.7272 21.4708L21.483 16.715C23.5088 14.7108 23.5088 11.4391 21.483 9.42414ZM10.2922 13.4108C8.56967 13.4108 7.17217 12.0133 7.17217 10.2908C7.17217 8.5683 8.56967 7.1708 10.2922 7.1708C12.0147 7.1708 13.4122 8.5683 13.4122 10.2908C13.4122 12.0133 12.0147 13.4108 10.2922 13.4108Z" fill="#4C5BD4"/>
</svg>
