<svg width="24" height="24" viewBox="0 0 24 24" fill="none" xmlns="http://www.w3.org/2000/svg">
<path d="M11.83 2.82227C11.7808 2.82224 11.732 2.83192 11.6865 2.85075C11.641 2.86959 11.5996 2.89721 11.5648 2.93204C11.53 2.96686 11.5024 3.00822 11.4835 3.05373C11.4647 3.09924 11.455 3.14801 11.455 3.19727V4.32227C11.455 4.42172 11.4945 4.5171 11.5649 4.58743C11.6352 4.65776 11.7306 4.69727 11.83 4.69727C11.9295 4.69727 12.0249 4.65776 12.0952 4.58743C12.1655 4.5171 12.205 4.42172 12.205 4.32227V3.19727C12.2051 3.14801 12.1954 3.09924 12.1765 3.05373C12.1577 3.00822 12.1301 2.96686 12.0953 2.93204C12.0604 2.89721 12.0191 2.86959 11.9736 2.85075C11.9281 2.83192 11.8793 2.82224 11.83 2.82227ZM9.58003 3.77331C9.53736 3.79793 9.49997 3.83071 9.46997 3.86978C9.43998 3.90885 9.41797 3.95345 9.40522 4.00103C9.39247 4.0486 9.38921 4.09823 9.39564 4.14706C9.40207 4.1959 9.41806 4.24299 9.4427 4.28564L10.0052 5.25977C10.0549 5.34592 10.1368 5.40878 10.2329 5.43454C10.329 5.46029 10.4314 5.44682 10.5175 5.3971C10.6037 5.34737 10.6665 5.26545 10.6923 5.16937C10.7181 5.07329 10.7046 4.97092 10.6549 4.88477L10.0924 3.91064C10.0678 3.86797 10.035 3.83056 9.99591 3.80056C9.95684 3.77056 9.91224 3.74856 9.86466 3.7358C9.81708 3.72305 9.76745 3.7198 9.71861 3.72624C9.66977 3.73267 9.62268 3.74867 9.58003 3.77331ZM13.6549 5.25977L14.2174 4.28564C14.2654 4.19959 14.2776 4.09811 14.2514 4.00312C14.2252 3.90813 14.1627 3.82726 14.0773 3.778C13.992 3.72874 13.8907 3.71504 13.7953 3.73986C13.7 3.76468 13.6182 3.82603 13.5677 3.91064L13.0052 4.88477C12.9573 4.97081 12.9451 5.07225 12.9713 5.16719C12.9975 5.26213 13.0601 5.34295 13.1454 5.39219C13.2307 5.44143 13.3319 5.45514 13.4272 5.43037C13.5226 5.40559 13.6043 5.34431 13.6549 5.25977ZM22.2643 10.1006C22.0766 10.0972 21.894 10.1615 21.7499 10.2818C21.6059 10.4022 21.5101 10.5704 21.4801 10.7557C21.09 13.2851 20.3032 12.8769 20.2709 12.875C19.6942 12.8431 19.4907 12.453 19.4782 11.2897V6.99091C19.4824 6.89136 19.4668 6.79197 19.4322 6.69852C19.3976 6.60507 19.3448 6.51944 19.2768 6.4466C19.2088 6.37375 19.127 6.31516 19.0362 6.27423C18.9453 6.2333 18.8473 6.21085 18.7477 6.20818C18.6481 6.20552 18.5489 6.22269 18.456 6.2587C18.3631 6.29471 18.2783 6.34884 18.2065 6.41794C18.1347 6.48704 18.0774 6.56972 18.0379 6.66119C17.9983 6.75265 17.9774 6.85106 17.9763 6.9507V10.6674C17.8571 10.6368 17.7306 10.6113 17.6008 10.5872V5.11356C17.6049 4.93075 17.5445 4.75233 17.4303 4.60955C17.316 4.46676 17.1552 4.3687 16.976 4.33254C16.8682 4.31427 16.7578 4.31973 16.6523 4.34853C16.5469 4.37733 16.449 4.42878 16.3655 4.4993C16.282 4.56982 16.2148 4.65771 16.1688 4.75684C16.1227 4.85597 16.0989 4.96394 16.0988 5.07325V10.5191C15.972 10.5305 15.8433 10.5397 15.7233 10.5588V6.61543C15.7275 6.51588 15.7119 6.41649 15.6773 6.32304C15.6427 6.22959 15.5899 6.14395 15.5219 6.07111C15.4539 5.99826 15.3721 5.93967 15.2813 5.89874C15.1905 5.85781 15.0924 5.83536 14.9928 5.83269C14.8932 5.83002 14.794 5.8472 14.7011 5.88321C14.6082 5.91922 14.5234 5.97335 14.4516 6.04245C14.3798 6.11155 14.3225 6.19424 14.283 6.2857C14.2434 6.37717 14.2225 6.47558 14.2214 6.57522V11.0216C14.0854 11.0853 13.9606 11.1502 13.8459 11.2147V8.86843C13.8501 8.7689 13.8344 8.66954 13.7998 8.57613C13.7652 8.48271 13.7124 8.39711 13.6444 8.3243C13.5764 8.25148 13.4946 8.19292 13.4038 8.152C13.313 8.11109 13.2149 8.08864 13.1154 8.08597C13.0158 8.0833 12.9167 8.10046 12.8238 8.13644C12.7309 8.17243 12.6461 8.22653 12.5743 8.29559C12.5025 8.36466 12.4452 8.44731 12.4056 8.53873C12.3661 8.63016 12.3451 8.72854 12.3439 8.82815V13.5781C11.9533 15.4404 13.1356 17.3187 13.9294 18.0276C14.3459 18.4751 14.6116 19.0419 14.6892 19.6482C14.7036 19.7453 14.7537 19.8335 14.8297 19.8955C14.9058 19.9574 15.0022 19.9887 15.1002 19.9832C16.785 19.8984 18.4591 20.2949 19.9269 21.1264C19.9925 21.1624 20.067 21.1792 20.1418 21.1745C20.2165 21.1699 20.2884 21.1442 20.349 21.1003C20.4097 21.0564 20.4567 20.9962 20.4845 20.9267C20.5122 20.8571 20.5197 20.7812 20.506 20.7076C20.2955 19.55 20.085 18.3925 19.8746 17.2349L19.9552 17.0737C20.9058 16.3422 21.6779 15.4045 22.2132 14.3311C22.7486 13.2577 23.0333 12.0768 23.0457 10.8774C23.0456 10.775 23.0253 10.6737 22.986 10.5791C22.9466 10.4846 22.889 10.3988 22.8164 10.3266C22.7438 10.2545 22.6576 10.1973 22.5629 10.1585C22.4681 10.1198 22.3667 10.1001 22.2643 10.1006ZM16.3301 16.3223C16.3871 15.6065 16.6732 14.9282 17.146 14.3878C17.6188 13.8475 18.2532 13.4738 18.955 13.3223C17.8104 14.0498 16.8992 15.0912 16.3301 16.3223ZM11.6568 8.82812C11.6557 8.72848 11.6348 8.63005 11.5953 8.53857C11.5557 8.44709 11.4984 8.36439 11.4266 8.29528C11.3548 8.22617 11.27 8.17203 11.1771 8.13602C11.0841 8.10001 10.985 8.08284 10.8854 8.08551C10.7858 8.08819 10.6877 8.11065 10.5968 8.1516C10.506 8.19255 10.4242 8.25116 10.3562 8.32402C10.2882 8.39688 10.2354 8.48254 10.2008 8.57601C10.1663 8.66948 10.1506 8.76889 10.1549 8.86845V11.2147C10.0402 11.1502 9.91537 11.0853 9.77941 11.0216V6.5752C9.7783 6.47555 9.75738 6.37711 9.71786 6.28562C9.67834 6.19413 9.62101 6.11142 9.54922 6.0423C9.47743 5.97318 9.3926 5.91904 9.29968 5.88302C9.20676 5.84699 9.1076 5.82982 9.00798 5.83249C8.90835 5.83516 8.81026 5.85762 8.7194 5.89857C8.62854 5.93952 8.54674 5.99813 8.47875 6.071C8.41076 6.14386 8.35795 6.22953 8.32339 6.323C8.28883 6.41647 8.27321 6.51589 8.27744 6.61546V10.5588C8.15746 10.5397 8.02876 10.5305 7.90196 10.5191V5.07325C7.90192 4.96394 7.87804 4.85597 7.83199 4.75684C7.78593 4.65771 7.71881 4.56982 7.63529 4.4993C7.55178 4.42878 7.45389 4.37733 7.34845 4.34853C7.24301 4.31973 7.13256 4.31427 7.02479 4.33254C6.84555 4.3687 6.68474 4.46676 6.57051 4.60955C6.45629 4.75233 6.39592 4.93075 6.39999 5.11356V10.5872C6.27022 10.6113 6.14371 10.6368 6.02451 10.6674V6.95067C6.0234 6.85102 6.00248 6.75259 5.96296 6.6611C5.92344 6.56962 5.86612 6.48691 5.79432 6.41779C5.72253 6.34867 5.63771 6.29452 5.54479 6.2585C5.45187 6.22248 5.35271 6.20531 5.25309 6.20798C5.15347 6.21065 5.05538 6.23311 4.96452 6.27406C4.87366 6.315 4.79186 6.37362 4.72387 6.44648C4.65589 6.51935 4.60308 6.60501 4.56852 6.69848C4.53396 6.79195 4.51834 6.89137 4.52257 6.99093V11.2896C4.51005 12.453 4.30657 12.8431 3.72986 12.875C3.69756 12.8769 2.91074 13.2851 2.52067 10.7557C2.49069 10.5704 2.39489 10.4022 2.25084 10.2818C2.10679 10.1615 1.92417 10.0971 1.7365 10.1006C1.63412 10.1001 1.53264 10.1198 1.4379 10.1585C1.34315 10.1973 1.25699 10.2544 1.18438 10.3266C1.11177 10.3988 1.05414 10.4846 1.01479 10.5791C0.975435 10.6736 0.955144 10.775 0.955078 10.8774C0.967773 12.0754 1.25176 13.2549 1.78571 14.3274C2.31966 15.3999 3.08969 16.3374 4.03795 17.0696C4.04562 17.0737 4.12621 17.2349 4.12621 17.2349C3.91573 18.3924 3.70526 19.55 3.49481 20.7075C3.48108 20.7812 3.48854 20.8571 3.51632 20.9267C3.54409 20.9962 3.59105 21.0564 3.65172 21.1003C3.71239 21.1442 3.78428 21.1699 3.85902 21.1745C3.93375 21.1792 4.00826 21.1624 4.07386 21.1264C5.54167 20.2949 7.21579 19.8984 8.90059 19.9832C8.99854 19.9887 9.09502 19.9574 9.17106 19.8955C9.2471 19.8335 9.29721 19.7453 9.31153 19.6482C9.38917 19.0419 9.65493 18.4751 10.0714 18.0276C11.018 17.1287 11.6023 15.914 11.7135 14.6134C11.733 14.2672 11.714 13.92 11.6568 13.5781L11.6568 8.82812ZM5.04574 13.3223C5.7476 13.4738 6.38196 13.8474 6.85478 14.3878C7.3276 14.9282 7.61371 15.6065 7.6707 16.3223C7.10153 15.0912 6.19033 14.0498 5.04574 13.3223Z" fill="#666666"/>
</svg>
