<svg width="25" height="24" viewBox="0 0 25 24" fill="none" xmlns="http://www.w3.org/2000/svg">
<g clip-path="url(#clip0_2011_101769)">
<path d="M12.0668 21.2678C17.9141 21.2678 22.655 16.8229 22.655 11.3399C22.655 5.85694 17.9141 1.41211 12.0668 1.41211C6.2194 1.41211 1.47852 5.85694 1.47852 11.3399C1.47852 13.8361 2.4619 16.1195 4.08587 17.8639C3.95749 19.3049 3.53396 20.8848 3.06543 22.0705C2.96087 22.3343 3.16337 22.6293 3.42675 22.5839C6.41263 22.0592 8.18749 21.2536 8.9591 20.8338C9.97281 21.1235 11.0176 21.2694 12.0668 21.2678Z" stroke="#505050" stroke-width="1.5"/>
<path d="M6.84123 12.2545C6.78426 12.3012 6.70945 12.3435 6.61038 12.3753C6.82196 12.1934 6.90192 11.9406 6.90192 11.6983C6.90192 11.5832 6.88312 11.4691 6.84282 11.3618C6.89001 11.4004 6.91612 11.4348 6.9311 11.462L6.93625 11.4713L6.94181 11.4805C6.97939 11.5423 7.01373 11.6433 7.01373 11.8113C7.01373 12.0376 6.94575 12.1642 6.84123 12.2545ZM6.94695 10.2184C6.91512 10.269 6.87803 10.3171 6.83494 10.3626C6.86586 10.263 6.87845 10.1609 6.87845 10.0642C6.87845 9.82154 6.79616 9.57177 6.5841 9.39138C6.70492 9.42255 6.79022 9.46428 6.84886 9.50765C6.92921 9.57054 7.00826 9.6864 7.00826 9.96246C7.00826 10.0741 6.98397 10.1547 6.94695 10.2184Z" fill="white" stroke="#505050"/>
<path d="M8.53612 9.81409C8.51461 9.8533 8.49528 9.89384 8.47809 9.93557C8.39988 10.1181 8.36789 10.312 8.36789 10.5074V11.0074H8.37337V11.3279C8.37337 11.6093 8.43626 11.8855 8.59326 12.117C8.39191 11.9162 8.24121 11.5562 8.24121 10.9271C8.24121 10.3829 8.35991 10.035 8.53612 9.81409ZM11.1268 11.7204C11.1268 11.5189 11.0758 11.2923 10.9134 11.1085C10.9728 11.133 11.0193 11.1602 11.0551 11.1876C11.1479 11.2614 11.2308 11.3905 11.2308 11.6767C11.2308 11.9429 11.1465 12.1028 10.9926 12.2194C11.0855 12.0689 11.1268 11.8953 11.1268 11.7204Z" fill="white" stroke="#505050"/>
<path d="M14.9017 12.2272C14.8568 12.2634 14.802 12.2971 14.7352 12.3264C14.9119 12.1347 14.956 11.8893 14.956 11.693C14.956 11.4764 14.9036 11.2085 14.6955 11.0097C14.7868 11.0419 14.86 11.0855 14.9201 11.1364C14.977 11.1956 15.0225 11.2645 15.0565 11.3458C15.0875 11.4316 15.1085 11.5455 15.1085 11.693C15.1085 11.9731 15.0237 12.1261 14.9017 12.2272ZM12.4162 10.4507V10.7658H12.3701V9.33838H12.4162V9.65808V10.4507Z" fill="white" stroke="#505050"/>
<path d="M17.2508 14.0102C17.2204 14.0021 17.1901 13.9941 17.16 13.9862L17.8042 13.427L19.2118 13.8204C19.2127 13.8209 19.2137 13.8213 19.2147 13.8218C19.2346 13.8311 19.2642 13.8459 19.2988 13.8656C19.372 13.9072 19.4488 13.9605 19.5048 14.0181C19.5317 14.0458 19.548 14.0685 19.5571 14.085C19.5614 14.0929 19.5637 14.0985 19.5648 14.1019C19.5659 14.1051 19.5661 14.1067 19.5662 14.1071C19.5662 14.1073 19.5663 14.1081 19.5661 14.11C19.5658 14.112 19.5651 14.1174 19.5619 14.1264C19.5564 14.1424 19.5423 14.1737 19.5072 14.2197C19.3803 14.3391 19.323 14.3824 19.2332 14.4083C19.1305 14.4379 18.9201 14.4581 18.476 14.3442C18.3013 14.29 17.747 14.1416 17.2508 14.0102Z" fill="white" stroke="#505050"/>
<path d="M7.45228 14.5598C7.7848 14.9686 8.26625 15.2497 8.82843 15.3847L8.82867 15.3848C9.46756 15.5386 10.1624 15.5233 10.8641 15.4281L7.45228 14.5598ZM7.45228 14.5598C7.58442 14.6602 7.72544 14.7483 7.87258 14.8234C8.18074 14.9813 8.50918 15.0804 8.83477 15.1357C9.26273 15.2088 9.69202 15.2099 10.1021 15.1724L7.45228 14.5598ZM17.18 8.80906C17.3542 9.01667 17.487 9.27362 17.5204 9.58551L17.5204 9.58576C17.5959 10.2942 17.3229 10.9211 16.9698 11.4292C16.6172 11.9365 16.1524 12.372 15.7645 12.712L15.7548 12.7205L15.7546 12.7203C15.7426 12.7304 15.7304 12.741 15.7133 12.7558L15.7119 12.7571C14.539 13.7713 13.1652 14.4166 11.7057 14.8494L11.7056 14.8495C11.1937 15.0012 10.6556 15.1219 10.1022 15.1724L17.18 8.80906ZM17.18 8.80906C17.574 8.98364 17.8423 9.22725 17.9795 9.55209C18.0571 9.79891 18.0776 10.0803 18.0531 10.3678L18.0531 10.3682C18.0072 10.9126 17.7873 11.4493 17.4527 11.9346L17.4525 11.9348C16.8888 12.7535 16.0504 13.4058 15.1299 13.9493L15.1297 13.9494C14.3608 14.4038 13.5701 14.7554 12.7157 15.0114L12.7156 15.0115C12.1018 15.1955 11.4859 15.3437 10.8642 15.4281L17.18 8.80906ZM6.61075 13.472L6.61099 13.4717L6.61101 13.4718L6.61075 13.472Z" fill="white" stroke="#505050"/>
<mask id="path-7-inside-1_2011_101769" fill="white">
<path fill-rule="evenodd" clip-rule="evenodd" d="M7.53906 13.1983C7.53906 13.1983 9.70557 15.0856 13.4252 13.0635C13.0105 13.5351 8.37938 15.6921 7.53906 13.1983Z"/>
</mask>
<path fill-rule="evenodd" clip-rule="evenodd" d="M7.53906 13.1983C7.53906 13.1983 9.70557 15.0856 13.4252 13.0635C13.0105 13.5351 8.37938 15.6921 7.53906 13.1983Z" fill="white"/>
<path d="M7.53906 13.1983L8.1959 12.4443L5.41279 10.0199L6.59142 13.5177L7.53906 13.1983ZM13.4252 13.0635L14.1762 13.7238L12.9476 12.1849L13.4252 13.0635ZM7.53906 13.1983C6.88222 13.9524 6.88274 13.9528 6.88326 13.9533C6.88345 13.9534 6.88399 13.9539 6.88436 13.9542C6.88511 13.9549 6.8859 13.9556 6.88672 13.9563C6.88836 13.9577 6.89015 13.9592 6.89207 13.9608C6.89593 13.9641 6.90036 13.9679 6.90536 13.972C6.91536 13.9804 6.92765 13.9904 6.94222 14.002C6.97134 14.0251 7.00963 14.0544 7.05695 14.0883C7.1515 14.1561 7.28273 14.2427 7.44952 14.3355C7.78295 14.521 8.26165 14.7329 8.87463 14.8663C10.1226 15.1379 11.8385 15.0643 13.9028 13.942L12.9476 12.1849C11.2922 13.0848 10.0651 13.0786 9.29991 12.9121C8.90631 12.8264 8.61091 12.6929 8.42187 12.5878C8.32744 12.5352 8.26035 12.4902 8.22189 12.4626C8.2027 12.4489 8.19081 12.4396 8.18638 12.4361C8.18417 12.4343 8.18384 12.434 8.18542 12.4353C8.18621 12.436 8.18747 12.4371 8.18922 12.4385C8.19009 12.4393 8.19109 12.4401 8.1922 12.4411C8.19276 12.4416 8.19334 12.4421 8.19396 12.4426C8.19427 12.4429 8.19476 12.4433 8.19491 12.4434C8.1954 12.4439 8.1959 12.4443 7.53906 13.1983ZM12.6742 12.4032C12.7387 12.3298 12.7489 12.3456 12.579 12.446C12.4476 12.5236 12.2622 12.6206 12.0353 12.7237C11.5792 12.9308 11.0029 13.1408 10.4288 13.2659C9.83753 13.3947 9.34242 13.4126 8.99977 13.3261C8.71532 13.2542 8.57124 13.1299 8.48671 12.879L6.59142 13.5177C6.92705 14.5137 7.67697 15.0548 8.51015 15.2652C9.28514 15.4609 10.1313 15.3776 10.8547 15.22C11.5952 15.0586 12.307 14.7968 12.8621 14.5447C13.1408 14.4182 13.3918 14.2888 13.5964 14.1679C13.7624 14.0698 14.008 13.9151 14.1762 13.7238L12.6742 12.4032Z" fill="#505050" mask="url(#path-7-inside-1_2011_101769)"/>
</g>
<defs>
<clipPath id="clip0_2011_101769">
<rect width="24" height="24" fill="white" transform="translate(0.0664062)"/>
</clipPath>
</defs>
</svg>
