<svg width="24" height="24" viewBox="0 0 24 24" fill="none" xmlns="http://www.w3.org/2000/svg">
<path d="M21.2995 7.57969H15.7195C15.3295 7.57969 15.0195 7.26969 15.0195 6.87969C15.0195 6.48969 15.3295 6.17969 15.7195 6.17969H21.2995C21.6895 6.17969 21.9995 6.48969 21.9995 6.87969C21.9995 7.26969 21.6895 7.57969 21.2995 7.57969Z" fill="#474747"/>
<path d="M6.42 7.57969H2.7C2.31 7.57969 2 7.26969 2 6.87969C2 6.48969 2.31 6.17969 2.7 6.17969H6.42C6.81 6.17969 7.12 6.48969 7.12 6.87969C7.12 7.26969 6.8 7.57969 6.42 7.57969Z" fill="#474747"/>
<path d="M10.1404 10.8297C12.322 10.8297 14.0904 9.06121 14.0904 6.87969C14.0904 4.69816 12.322 2.92969 10.1404 2.92969C7.95891 2.92969 6.19043 4.69816 6.19043 6.87969C6.19043 9.06121 7.95891 10.8297 10.1404 10.8297Z" fill="#474747"/>
<path d="M21.2999 17.8102H17.5799C17.1899 17.8102 16.8799 17.5002 16.8799 17.1102C16.8799 16.7202 17.1899 16.4102 17.5799 16.4102H21.2999C21.6899 16.4102 21.9999 16.7202 21.9999 17.1102C21.9999 17.5002 21.6899 17.8102 21.2999 17.8102Z" fill="#474747"/>
<path d="M8.28 17.8102H2.7C2.31 17.8102 2 17.5002 2 17.1102C2 16.7202 2.31 16.4102 2.7 16.4102H8.28C8.67 16.4102 8.98 16.7202 8.98 17.1102C8.98 17.5002 8.66 17.8102 8.28 17.8102Z" fill="#474747"/>
<path d="M13.8602 21.0699C16.0417 21.0699 17.8102 19.3014 17.8102 17.1199C17.8102 14.9384 16.0417 13.1699 13.8602 13.1699C11.6786 13.1699 9.91016 14.9384 9.91016 17.1199C9.91016 19.3014 11.6786 21.0699 13.8602 21.0699Z" fill="#474747"/>
</svg>
