<svg width="25" height="24" viewBox="0 0 25 24" fill="none" xmlns="http://www.w3.org/2000/svg">
<path d="M18.0665 7.16C18.0065 7.15 17.9365 7.15 17.8765 7.16C16.4965 7.11 15.3965 5.98 15.3965 4.58C15.3965 3.15 16.5465 2 17.9765 2C19.4065 2 20.5565 3.16 20.5565 4.58C20.5465 5.98 19.4465 7.11 18.0665 7.16Z" stroke="#505050" stroke-width="1.5" stroke-linecap="round" stroke-linejoin="round"/>
<path d="M17.0364 14.4402C18.4064 14.6702 19.9164 14.4302 20.9764 13.7202C22.3864 12.7802 22.3864 11.2402 20.9764 10.3002C19.9064 9.59016 18.3763 9.35016 17.0063 9.59016" stroke="#505050" stroke-width="1.5" stroke-linecap="round" stroke-linejoin="round"/>
<path d="M6.03639 7.16C6.09639 7.15 6.16639 7.15 6.22639 7.16C7.60639 7.11 8.70639 5.98 8.70639 4.58C8.70639 3.15 7.55639 2 6.12639 2C4.69639 2 3.54639 3.16 3.54639 4.58C3.55639 5.98 4.65639 7.11 6.03639 7.16Z" stroke="#505050" stroke-width="1.5" stroke-linecap="round" stroke-linejoin="round"/>
<path d="M7.06635 14.4402C5.69635 14.6702 4.18635 14.4302 3.12635 13.7202C1.71635 12.7802 1.71635 11.2402 3.12635 10.3002C4.19635 9.59016 5.72634 9.35016 7.09634 9.59016" stroke="#505050" stroke-width="1.5" stroke-linecap="round" stroke-linejoin="round"/>
<path d="M12.0665 14.6302C12.0065 14.6202 11.9365 14.6202 11.8765 14.6302C10.4965 14.5802 9.39648 13.4502 9.39648 12.0502C9.39648 10.6202 10.5465 9.47021 11.9765 9.47021C13.4065 9.47021 14.5565 10.6302 14.5565 12.0502C14.5465 13.4502 13.4465 14.5902 12.0665 14.6302Z" stroke="#505050" stroke-width="1.5" stroke-linecap="round" stroke-linejoin="round"/>
<path d="M9.15662 17.7804C7.74662 18.7204 7.74662 20.2603 9.15662 21.2003C10.7566 22.2703 13.3766 22.2703 14.9766 21.2003C16.3866 20.2603 16.3866 18.7204 14.9766 17.7804C13.3866 16.7204 10.7566 16.7204 9.15662 17.7804Z" stroke="#505050" stroke-width="1.5" stroke-linecap="round" stroke-linejoin="round"/>
</svg>
