<svg width="25" height="24" viewBox="0 0 25 24" fill="none" xmlns="http://www.w3.org/2000/svg">
<path d="M12.0663 1C11.8243 1 11.5851 1.00825 11.3472 1.02338L11.4352 2.39563C11.8555 2.36847 12.2771 2.36847 12.6974 2.39563L12.7855 1.02338C12.5461 1.00785 12.3062 1.00006 12.0663 1V1ZM9.9213 1.209C9.44555 1.30388 8.9808 1.429 8.52979 1.58025L8.97117 2.88376C9.3658 2.74901 9.77143 2.64039 10.1867 2.55788L9.9213 1.21038V1.209ZM15.6028 1.58163C15.1481 1.42747 14.6837 1.30345 14.2127 1.21038L13.946 2.55788C14.3612 2.64039 14.7668 2.75039 15.1615 2.88376L15.6028 1.58163ZM18.1782 2.85351C17.7792 2.58641 17.363 2.34573 16.9325 2.13301L16.3234 3.36501C16.7015 3.55202 17.0659 3.76377 17.4137 3.99614L18.1782 2.85351ZM7.19878 2.13301C6.76703 2.34613 6.35178 2.58676 5.9544 2.85351L6.7189 3.99477C7.06837 3.76151 7.4326 3.55115 7.80929 3.36501L7.19878 2.13301ZM4.81314 3.72939C4.45289 4.04564 4.11188 4.38665 3.79563 4.7469L4.82964 5.6544C5.10739 5.33815 5.40439 5.04115 5.72065 4.7634L4.81314 3.72939ZM20.337 4.7469C20.0202 4.38604 19.6804 4.04615 19.3195 3.72939L18.412 4.7634C18.7282 5.04115 19.0266 5.33815 19.303 5.6544L20.337 4.7469ZM21.9334 7.13254C21.7207 6.70244 21.48 6.28675 21.2129 5.88815L20.0716 6.65266C20.304 7.00054 20.5144 7.36491 20.7014 7.74304L21.9334 7.13391V7.13254ZM2.91975 5.88815C2.653 6.28553 2.41099 6.70079 2.19924 7.13391L3.43125 7.74304C3.61825 7.36491 3.83001 7.00054 4.06238 6.65266L2.91975 5.88815ZM1.64786 8.46355C1.4937 8.91826 1.36968 9.38265 1.27661 9.85368L2.62412 10.1204C2.70662 9.70518 2.81662 9.29955 2.95 8.90492L1.64786 8.46355ZM22.8574 9.85505C22.7644 9.38356 22.6404 8.91871 22.4862 8.46355L21.1826 8.90492C21.3174 9.29955 21.426 9.70518 21.5085 10.1204L22.856 9.85368L22.8574 9.85505ZM1.08961 11.2809C1.05867 11.7599 1.05867 12.2403 1.08961 12.7192L2.46187 12.6312C2.43471 12.2109 2.43471 11.7893 2.46187 11.3689L1.08961 11.2809ZM23.0664 12.0001C23.0664 11.7602 23.0586 11.5203 23.043 11.2809L21.6708 11.3689C21.698 11.7893 21.698 12.2109 21.6708 12.6312L23.043 12.7192C23.0586 12.4798 23.0664 12.24 23.0664 12.0001ZM1.27524 14.1451C1.37011 14.6208 1.49524 15.0856 1.64649 15.5366L2.95 15.0952C2.81476 14.6976 2.7059 14.2916 2.62412 13.8797L1.27661 14.1465L1.27524 14.1451ZM22.4848 15.5366C22.6388 15.0856 22.7625 14.6208 22.856 14.1465L21.5085 13.8797C21.426 14.295 21.316 14.7006 21.1826 15.0952L22.4848 15.5366ZM2.19924 16.8676C2.41201 17.2977 2.6527 17.7133 2.91975 18.112L4.06101 17.3475C3.82751 16.9982 3.61714 16.6339 3.43125 16.2571L2.19924 16.8662V16.8676ZM21.2129 18.112C21.4796 17.7146 21.7216 17.2993 21.9334 16.8662L20.7014 16.2571C20.5144 16.6352 20.3026 16.9996 20.0703 17.3475L21.2129 18.112ZM3.79563 19.2532C4.11188 19.6135 4.45289 19.9545 4.81314 20.2707L5.72065 19.2367C5.40463 18.9594 5.10699 18.6618 4.82964 18.3457L3.79563 19.2532ZM19.3195 20.2707C19.6798 19.9545 20.0208 19.6135 20.337 19.2532L19.303 18.3457C19.0266 18.662 18.7282 18.9604 18.412 19.2367L19.3195 20.2707ZM16.9339 21.8671C17.3656 21.654 17.7809 21.4134 18.1782 21.1466L17.4137 20.0054C17.0643 20.2386 16.7 20.449 16.3234 20.6351L16.9325 21.8671H16.9339ZM5.9544 21.1466C6.35178 21.4134 6.76703 21.6554 7.20016 21.8671L7.80929 20.6351C7.43243 20.4488 7.06819 20.238 6.7189 20.004L5.9544 21.1466ZM8.52979 22.4185C8.9808 22.5725 9.44555 22.6963 9.91993 22.7898L10.1867 21.4423C9.77479 21.3604 9.36874 21.2516 8.97117 21.1164L8.52979 22.4185ZM14.2113 22.7911C14.6828 22.6981 15.1477 22.5741 15.6028 22.4199L15.1615 21.1164C14.7639 21.2516 14.3578 21.3604 13.946 21.4423L14.2127 22.7898L14.2113 22.7911ZM11.3472 22.9768C11.8261 23.0077 12.3065 23.0077 12.7855 22.9768L12.6974 21.6045C12.2771 21.6317 11.8555 21.6317 11.4352 21.6045L11.3472 22.9768ZM12.7538 7.18754C12.7538 7.0052 12.6814 6.83033 12.5525 6.7014C12.4235 6.57247 12.2487 6.50003 12.0663 6.50003C11.884 6.50003 11.7091 6.57247 11.5802 6.7014C11.4512 6.83033 11.3788 7.0052 11.3788 7.18754V11.3126H7.25378C7.07144 11.3126 6.89658 11.385 6.76764 11.5139C6.63871 11.6429 6.56628 11.8177 6.56628 12.0001C6.56628 12.1824 6.63871 12.3573 6.76764 12.4862C6.89658 12.6151 7.07144 12.6876 7.25378 12.6876H11.3788V16.8126C11.3788 16.9949 11.4512 17.1698 11.5802 17.2987C11.7091 17.4277 11.884 17.5001 12.0663 17.5001C12.2487 17.5001 12.4235 17.4277 12.5525 17.2987C12.6814 17.1698 12.7538 16.9949 12.7538 16.8126V12.6876H16.8789C17.0612 12.6876 17.2361 12.6151 17.365 12.4862C17.4939 12.3573 17.5664 12.1824 17.5664 12.0001C17.5664 11.8177 17.4939 11.6429 17.365 11.5139C17.2361 11.385 17.0612 11.3126 16.8789 11.3126H12.7538V7.18754Z" fill="#5B5B5B"/>
</svg>
