<svg width="25" height="24" viewBox="0 0 25 24" fill="none" xmlns="http://www.w3.org/2000/svg">
<path d="M16.062 15.4057L21.4584 10.0981L21.5268 10.0201C21.6281 9.88411 21.6769 9.71618 21.6644 9.54711C21.6518 9.37804 21.5787 9.21918 21.4584 9.09967L16.062 3.79447L15.9876 3.73087C15.5556 3.40687 14.9196 3.71887 14.9196 4.29367V6.84967L14.6496 6.86767C10.374 7.20607 7.86962 9.91207 7.27202 14.8201C7.19522 15.4501 7.91762 15.8449 8.38562 15.4273C10.1028 13.8937 11.8776 12.9409 13.7196 12.5593C14.0148 12.4981 14.3112 12.4513 14.61 12.4189L14.9196 12.3913V14.9065L14.9256 15.0049C14.9976 15.5485 15.6564 15.8041 16.062 15.4057ZM14.7372 8.06407L16.1196 7.97167V5.53207L20.2548 9.59767L16.1196 13.6657V11.0773L14.4924 11.2237H14.4828C12.4392 11.4433 10.5108 12.2617 8.69042 13.6261C9.04802 12.0193 9.65882 10.8109 10.4616 9.94567C11.4576 8.87167 12.8496 8.21407 14.7372 8.06287V8.06407ZM6.66602 4.80007C5.87037 4.80007 5.1073 5.11615 4.5447 5.67875C3.98209 6.24136 3.66602 7.00443 3.66602 7.80007V17.4001C3.66602 18.1957 3.98209 18.9588 4.5447 19.5214C5.1073 20.084 5.87037 20.4001 6.66602 20.4001H16.266C17.0617 20.4001 17.8247 20.084 18.3873 19.5214C18.9499 18.9588 19.266 18.1957 19.266 17.4001V16.2001C19.266 16.0409 19.2028 15.8883 19.0903 15.7758C18.9778 15.6633 18.8251 15.6001 18.666 15.6001C18.5069 15.6001 18.3543 15.6633 18.2418 15.7758C18.1292 15.8883 18.066 16.0409 18.066 16.2001V17.4001C18.066 17.8775 17.8764 18.3353 17.5388 18.6729C17.2012 19.0104 16.7434 19.2001 16.266 19.2001H6.66602C6.18863 19.2001 5.73079 19.0104 5.39322 18.6729C5.05566 18.3353 4.86602 17.8775 4.86602 17.4001V7.80007C4.86602 7.32268 5.05566 6.86485 5.39322 6.52728C5.73079 6.18972 6.18863 6.00007 6.66602 6.00007H10.266C10.4251 6.00007 10.5778 5.93686 10.6903 5.82434C10.8028 5.71182 10.866 5.5592 10.866 5.40007C10.866 5.24094 10.8028 5.08833 10.6903 4.97581C10.5778 4.86329 10.4251 4.80007 10.266 4.80007H6.66602Z" fill="#505050"/>
</svg>
