<svg width="26" height="26" viewBox="0 0 26 26" fill="none" xmlns="http://www.w3.org/2000/svg">
<g clip-path="url(#clip0_2050_18344)">
<path d="M13.4733 21.7526C12.717 21.7399 11.9878 21.4248 11.4094 20.8607L7.5997 16.9754C7.30952 16.6661 6.93461 16.4848 6.54057 16.4631C6.14654 16.4415 5.75846 16.5809 5.44426 16.8569L0.00177323 21.4657V24.4654C-0.0158848 24.8506 0.0988975 25.2281 0.321035 25.5156C0.543173 25.8031 0.854603 25.9771 1.18727 25.9996H20.5054C20.8835 26.0208 21.254 25.8726 21.54 25.5857C21.8261 25.2988 22.0055 24.8953 22.0412 24.4592V16.6074L15.1545 21.2038C14.6493 21.5645 14.0669 21.7546 13.4733 21.7526Z" fill="#33A348"/>
<path d="M13.1896 13.9013C14.0407 13.9013 14.7307 13.1027 14.7307 12.1176C14.7307 11.1325 14.0407 10.334 13.1896 10.334C12.3384 10.334 11.6484 11.1325 11.6484 12.1176C11.6484 13.1027 12.3384 13.9013 13.1896 13.9013Z" fill="#33A348"/>
<path d="M25.6781 3.17491C25.5705 2.99683 25.4301 2.84855 25.267 2.74072C25.104 2.63289 24.9223 2.56819 24.7351 2.55126L5.67561 0.000530601C5.30766 -0.0561939 4.93529 0.0584021 4.64028 0.319156C4.34526 0.579909 4.15172 0.965504 4.10214 1.39127L3.77344 4.54694H20.4781C21.2455 4.56864 21.9769 4.92863 22.5227 5.55339C23.0685 6.17814 23.3877 7.02051 23.4149 7.90842V22.1963C23.4149 22.1152 23.7328 22.0341 23.8729 21.872C24.0153 21.7406 24.13 21.5736 24.2084 21.3834C24.2868 21.1933 24.3269 20.985 24.3256 20.7743L25.996 4.36609C26.0154 4.15297 25.9972 3.93752 25.9426 3.73278C25.8879 3.52803 25.798 3.33825 25.6781 3.17491Z" fill="#33A348"/>
<path d="M8.50329 15.7597L12.3507 19.6451C12.6331 19.9246 12.9839 20.0948 13.3541 20.1317C13.7243 20.1686 14.0951 20.0704 14.4146 19.8509L22.0395 14.712V7.90795C22.0116 7.44537 21.8363 7.01123 21.5476 6.68974C21.2588 6.36825 20.8772 6.1823 20.4768 6.16797H1.29873C1.11505 6.18139 0.935493 6.2369 0.770487 6.33126C0.605482 6.42562 0.458307 6.55696 0.3375 6.71766C0.216694 6.87836 0.12466 7.06522 0.0667371 7.26741C0.00881437 7.4696 -0.0138442 7.68308 7.57859e-05 7.89548V19.4455L4.6235 15.5913C5.18844 15.0992 5.88262 14.8472 6.58924 14.8779C7.29585 14.9085 7.97178 15.22 8.50329 15.7597ZM13.1914 8.73117C13.772 8.73488 14.3386 8.93768 14.8196 9.31395C15.3007 9.69022 15.6746 10.2231 15.8941 10.8452C16.1135 11.4673 16.1688 12.1507 16.0528 12.8092C15.9367 13.4676 15.6547 14.0714 15.2423 14.5444C14.8298 15.0174 14.3055 15.3382 13.7356 15.4665C13.1656 15.5947 12.5757 15.5245 12.0402 15.2648C11.5047 15.0051 11.0477 14.5675 10.727 14.0073C10.4063 13.4472 10.2363 12.7896 10.2384 12.1176C10.2398 11.6707 10.3174 11.2286 10.4666 10.8164C10.6158 10.4042 10.8338 10.0302 11.1081 9.71565C11.3824 9.40111 11.7076 9.15225 12.065 8.98332C12.4225 8.81439 12.8053 8.72871 13.1914 8.73117Z" fill="#33A348"/>
</g>
<defs>
<clipPath id="clip0_2050_18344">
<rect width="26" height="26" fill="white"/>
</clipPath>
</defs>
</svg>
