<svg width="20" height="20" viewBox="0 0 20 20" fill="none" xmlns="http://www.w3.org/2000/svg">
<path d="M17.6247 5.14232C17.283 4.95898 16.5663 4.76732 15.5913 5.45065L14.3663 6.31732C14.2747 3.72565 13.1497 2.70898 10.4163 2.70898H5.41634C2.56634 2.70898 1.45801 3.81732 1.45801 6.66732V13.334C1.45801 15.2507 2.49967 17.2923 5.41634 17.2923H10.4163C13.1497 17.2923 14.2747 16.2757 14.3663 13.684L15.5913 14.5506C16.108 14.9173 16.558 15.034 16.9163 15.034C17.2247 15.034 17.4663 14.9423 17.6247 14.859C17.9663 14.684 18.5413 14.209 18.5413 13.0173V6.98398C18.5413 5.79232 17.9663 5.31732 17.6247 5.14232ZM9.16634 9.48398C8.30801 9.48398 7.59967 8.78398 7.59967 7.91732C7.59967 7.05065 8.30801 6.35065 9.16634 6.35065C10.0247 6.35065 10.733 7.05065 10.733 7.91732C10.733 8.78398 10.0247 9.48398 9.16634 9.48398Z" fill="#474747"/>
</svg>
