<svg width="40" height="40" viewBox="0 0 40 40" fill="none" xmlns="http://www.w3.org/2000/svg">
<circle cx="20" cy="20" r="20" fill="#EEEEEE"/>
<path d="M10 11.25H26.25V20H28.75V11.25C28.75 9.87125 27.6287 8.75 26.25 8.75H10C8.62125 8.75 7.5 9.87125 7.5 11.25V26.25C7.5 27.6287 8.62125 28.75 10 28.75H20V26.25H10V11.25Z" fill="#474747"/>
<path d="M15 18.75L11.25 23.75H25L20 16.25L16.25 21.25L15 18.75Z" fill="#474747"/>
<path d="M28.75 22.5H26.25V26.25H22.5V28.75H26.25V32.5H28.75V28.75H32.5V26.25H28.75V22.5Z" fill="#474747"/>
</svg>
