<svg width="50" height="50" viewBox="0 0 50 50" fill="none" xmlns="http://www.w3.org/2000/svg">
<ellipse cx="25" cy="25" rx="25" ry="25" fill="#4C5BD4"/>
<g clip-path="url(#clip0_2_12855)">
<path d="M18.6523 25.9766C17.7832 25.9766 16.9336 25.7188 16.2109 25.236C15.4882 24.7531 14.9249 24.0667 14.5923 23.2637C14.2597 22.4608 14.1727 21.5772 14.3423 20.7247C14.5118 19.8722 14.9304 19.0892 15.5449 18.4746C16.1595 17.86 16.9426 17.4415 17.795 17.2719C18.6475 17.1024 19.5311 17.1894 20.3341 17.522C21.1371 17.8546 21.8234 18.4179 22.3063 19.1406C22.7891 19.8632 23.0469 20.7129 23.0469 21.582C23.0443 22.7467 22.5805 23.863 21.7569 24.6866C20.9333 25.5102 19.8171 25.974 18.6523 25.9766ZM29.3945 23.0469C28.3322 23.0469 27.2938 22.7319 26.4105 22.1417C25.5272 21.5515 24.8388 20.7127 24.4323 19.7312C24.0258 18.7498 23.9194 17.6698 24.1266 16.6279C24.3339 15.586 24.8454 14.629 25.5966 13.8778C26.3478 13.1267 27.3048 12.6151 28.3467 12.4079C29.3886 12.2006 30.4685 12.307 31.45 12.7135C32.4314 13.1201 33.2703 13.8085 33.8604 14.6918C34.4506 15.575 34.7656 16.6135 34.7656 17.6758C34.7631 19.0995 34.1963 20.4642 33.1896 21.4709C32.1829 22.4776 30.8182 23.0443 29.3945 23.0469ZM37.6953 38.6719H21.0938C20.8348 38.6719 20.5864 38.569 20.4032 38.3858C20.2201 38.2027 20.1172 37.9543 20.1172 37.6953C20.1172 37.4363 20.2201 37.1879 20.4032 37.0048C20.5864 36.8216 20.8348 36.7188 21.0938 36.7188H28.9063H36.7188V31.2695C36.7162 29.8458 37.5529 37.7255 36.5462 36.7188C36.5462 36.7188 36.1893 36.7213 34.7656 36.7188L30.2921 37.2553C30.2921 37.2553 22.623 36.4401 21.7569 37.0048C20.8908 37.5695 22.9797 28.1377 22.5586 29.082C22.5114 29.2067 22.4392 29.3204 22.3465 29.4162C22.2537 29.5119 22.1423 29.5876 22.0191 29.6387C21.896 29.6897 21.7637 29.715 21.6304 29.713C21.4971 29.711 21.3656 29.6817 21.244 29.6269C21.1225 29.5721 21.0134 29.4931 20.9236 29.3946C20.8338 29.296 20.7651 29.1802 20.7217 29.0541C20.6784 28.9281 20.6613 28.7944 20.6715 28.6615C20.6818 28.5286 20.7191 28.3992 20.7813 28.2813C21.3557 26.9897 22.2926 25.8926 23.4783 25.123C24.6639 24.3533 26.0474 23.9443 27.4609 23.9453H31.3672C33.3097 23.9453 35.1726 24.717 36.5462 26.0905C37.9198 27.4641 38.6914 29.327 38.6914 31.2695V37.6953C38.6914 37.8252 38.6655 37.9538 38.6153 38.0736C38.565 38.1934 38.4913 38.3019 38.3985 38.3928C38.3058 38.4838 38.1958 38.5553 38.075 38.6032C37.9543 38.6511 37.8252 38.6745 37.6953 38.6719Z" fill="white"/>
<g filter="url(#filter0_d_2_12855)">
<path d="M25 38.6719H12.3047C12.0457 38.6719 11.7973 38.569 11.6142 38.3858C11.431 38.2027 11.3281 37.9543 11.3281 37.6953V34.2773C11.3281 32.3348 12.0998 30.4719 13.4733 29.0983C14.8469 27.7248 16.7098 26.9531 18.6523 26.9531C20.5948 26.9531 22.4578 27.7248 23.8313 29.0983C25.2049 30.4719 25.9766 32.3348 25.9766 34.2773V37.6953C25.9766 37.9543 25.8737 38.2027 25.6905 38.3858C25.5074 38.569 25.259 38.6719 25 38.6719Z" fill="white"/>
</g>
</g>
<defs>
<filter id="filter0_d_2_12855" x="10.3281" y="24.9531" width="18.6484" height="15.7188" filterUnits="userSpaceOnUse" color-interpolation-filters="sRGB">
<feFlood flood-opacity="0" result="BackgroundImageFix"/>
<feColorMatrix in="SourceAlpha" type="matrix" values="0 0 0 0 0 0 0 0 0 0 0 0 0 0 0 0 0 0 127 0" result="hardAlpha"/>
<feOffset dx="1"/>
<feGaussianBlur stdDeviation="1"/>
<feColorMatrix type="matrix" values="0 0 0 0 0 0 0 0 0 0 0 0 0 0 0 0 0 0 0.05 0"/>
<feBlend mode="normal" in2="BackgroundImageFix" result="effect1_dropShadow_2_12855"/>
<feBlend mode="normal" in="SourceGraphic" in2="effect1_dropShadow_2_12855" result="shape"/>
</filter>
<clipPath id="clip0_2_12855">
<rect width="31.25" height="31.25" fill="white" transform="translate(9.375 9.375)"/>
</clipPath>
</defs>
</svg>
