<svg width="27" height="27" viewBox="0 0 27 27" fill="none" xmlns="http://www.w3.org/2000/svg">
<path d="M14.8037 1.39237C14.2952 0.883675 13.6054 0.59781 12.8861 0.597656H3.15961C2.44026 0.597656 1.75036 0.883421 1.24169 1.39208C0.73303 1.90075 0.447266 2.59065 0.447266 3.31001V13.0365C0.447419 13.7558 0.733285 14.4456 1.24198 14.9541L12.0914 25.8035C12.6 26.312 13.2898 26.5977 14.009 26.5977C14.7282 26.5977 15.418 26.312 15.9266 25.8035L25.6531 16.077C26.1616 15.5684 26.4473 14.8786 26.4473 14.1594C26.4473 13.4402 26.1616 12.7504 25.6531 12.2418L14.8037 1.39237ZM7.22814 10.0909C6.5086 10.0907 5.8186 9.80469 5.30994 9.29577C4.80127 8.78685 4.51561 8.09671 4.51579 7.37717C4.51597 6.65763 4.80198 5.96764 5.3109 5.45897C5.81981 4.95031 6.50995 4.66464 7.22949 4.66482C7.94903 4.665 8.63903 4.95101 9.1477 5.45993C9.65636 5.96885 9.94202 6.65899 9.94184 7.37853C9.94166 8.09807 9.65566 8.78807 9.14674 9.29673C8.63782 9.8054 7.94768 10.0911 7.22814 10.0909Z" fill="#FFA800"/>
</svg>
