<svg width="41" height="40" viewBox="0 0 41 40" fill="none" xmlns="http://www.w3.org/2000/svg">
<circle cx="20.0664" cy="20" r="20" fill="#EEEEEE"/>
<path d="M10.0664 11.25H26.3164V20H28.8164V11.25C28.8164 9.87125 27.6952 8.75 26.3164 8.75H10.0664C8.68766 8.75 7.56641 9.87125 7.56641 11.25V26.25C7.56641 27.6287 8.68766 28.75 10.0664 28.75H20.0664V26.25H10.0664V11.25Z" fill="#474747"/>
<path d="M15.0664 18.75L11.3164 23.75H25.0664L20.0664 16.25L16.3164 21.25L15.0664 18.75Z" fill="#474747"/>
<path d="M28.8164 22.5H26.3164V26.25H22.5664V28.75H26.3164V32.5H28.8164V28.75H32.5664V26.25H28.8164V22.5Z" fill="#474747"/>
</svg>
