<svg width="18" height="18" viewBox="0 0 18 18" fill="none" xmlns="http://www.w3.org/2000/svg">
<path d="M8.94792 0.431641C4.16461 0.431641 0.28125 4.315 0.28125 9.09831C0.28125 13.8816 4.16461 17.765 8.94792 17.765C13.7226 17.765 17.5992 13.8955 17.6132 9.12396C17.6141 9.11544 17.6145 9.10688 17.6146 9.09831C17.6146 9.09061 17.6142 9.08292 17.6135 9.07525C17.6011 4.30252 13.7236 0.431641 8.94792 0.431641ZM8.94792 0.951641C9.02592 0.951641 9.1027 0.955107 9.18018 0.957361C9.31764 0.987001 9.43793 1.01803 9.4927 1.05287C9.69516 1.00069 9.74386 0.995667 9.73294 0.989947C10.7178 1.08364 11.6772 1.35705 12.5635 1.79664C12.5631 1.82195 12.5635 1.84829 12.5676 1.88123C12.2591 1.95749 12.9649 2.54908 12.6827 2.91689C12.6455 3.42424 12.0462 4.04044 11.7632 4.01028C12.1282 4.49561 12.0631 5.35153 11.4278 5.28359C10.952 5.3004 10.7397 5.7788 10.4013 6.03343C10.5542 5.56577 10.1196 5.5344 10.1734 5.19016C9.87178 5.40371 9.90316 5.54029 9.64056 5.15775C9.90749 4.96153 9.5012 4.47741 9.39893 4.42628C9.16025 4.56061 8.91082 4.49128 9.28176 4.77468C8.34004 5.05375 9.67384 5.69508 9.15037 6.30001C8.82624 7.06788 8.04658 7.50763 7.24977 7.60296C7.4803 8.13267 6.43198 8.42577 6.83637 7.77196C7.08822 7.26513 5.84802 7.98984 6.54656 8.28485C6.96845 8.63031 7.09828 9.50685 6.45486 9.69787C6.09086 10.1151 5.92966 9.8894 5.67053 9.51985C5.38782 8.71073 4.87233 9.55729 5.26926 9.99305C5.82272 10.4305 5.83658 10.9511 6.01893 11.5151C5.87732 11.9093 7.00537 11.9959 6.47428 12.1998C5.76309 12.2136 6.94973 12.9416 7.08996 12.6093C7.48897 12.8262 8.35356 12.774 7.92074 12.9933C8.39949 13.0498 9.22126 13.1475 8.65273 12.5062C8.44872 12.1793 8.60281 11.5607 9.06093 11.2995C9.444 11.7065 10.0358 10.7587 9.88842 11.4003C9.5811 11.6447 9.36236 11.8687 9.93106 11.889C10.1602 12.3908 10.7787 11.9418 10.6656 11.6018C10.996 11.5087 11.6814 11.6163 11.9972 11.7363C12.5201 11.7357 13.3774 11.8503 13.6002 12.2147C13.7801 11.9963 14.3639 12.146 14.1977 11.7448C13.89 11.633 14.0463 11.2213 14.3237 11.6028C14.6996 11.6278 14.9296 12.2594 15.4015 12.2521C15.7603 12.8886 14.97 12.479 15.0759 12.3259C14.8062 12.9413 14.6991 11.4867 14.4289 12.0592C14.1316 12.2195 13.4397 12.6884 14.0443 12.6634C14.4407 12.5183 13.964 13.4729 13.5274 12.9798C12.98 12.3667 12.617 13.5372 13.119 13.7022C13.135 14.113 13.4837 14.3576 13.6477 14.6968C14.0798 15.1274 13.0975 15.8165 12.7463 16.1606C12.5782 16.2317 12.4066 16.4076 12.2444 16.5492C12.1019 16.6123 11.9578 16.6721 11.8114 16.7271C11.7576 16.7 11.7079 16.6449 11.6634 16.5477C11.195 16.5244 10.8938 16.1901 10.3505 16.1928C9.62322 16.2485 8.76228 16.7267 8.10586 16.3982C8.16029 15.9282 7.16328 15.1329 8.12666 14.9185C8.87494 14.9708 9.23322 14.3732 9.76952 14.0045C10.1337 13.8116 10.6708 14.2323 10.6582 13.6462C10.6819 13.2857 11.7547 13.4625 11.8871 13.4861C11.7393 13.9581 11.6349 14.1534 12.2622 14.1064C12.3654 14.4484 12.8789 13.0942 12.591 13.0855C12.3503 12.8718 11.6623 13.137 12.1976 12.7081C11.9466 12.1114 11.0444 12.6707 11.0244 11.9697C10.5412 11.9177 11.4748 12.6934 10.7378 12.3003C10.0933 12.5613 9.77576 11.9957 9.22716 12.0081C9.51697 12.2954 9.86606 12.952 9.22993 12.7007C8.86766 12.1205 8.9734 12.8889 9.10634 13.0373C9.18954 12.6066 9.21589 13.3245 9.59757 13C9.9016 12.7376 10.9211 13.1318 10.2365 13.0624C10.3153 13.1141 8.96438 13.9757 9.44452 13.3051C9.44798 13.0971 8.77354 13.3751 9.22716 13.4672C8.7394 13.5466 8.1804 13.1441 7.59713 13.1602C6.93084 13.085 6.21376 12.9952 5.765 12.4506C5.41885 11.9489 4.87996 12.059 4.80074 11.3669C4.68322 11.0254 4.2771 10.5843 4.32044 10.2274C4.79312 10.1754 5.42128 11.3714 5.10685 10.4196C4.77474 10.008 4.67352 9.38275 4.84945 8.88944C4.90006 8.38816 4.69622 8.39405 4.37053 8.46148C4.28456 8.07061 4.37486 7.02923 3.63646 7.32615C3.21908 7.77335 2.47149 8.02364 2.45676 8.69895C2.26089 8.96363 2.85196 10.1626 2.27216 9.81643C2.31046 9.31116 2.21582 9.41845 2.00817 9.41984C1.79618 8.68023 1.80728 7.87284 1.8988 7.12976C1.52041 6.77529 2.12725 6.31561 1.4256 6.22409C1.26665 5.90776 1.29872 6.88501 1.02572 7.19996C1.88025 3.61525 5.09957 0.951641 8.94792 0.951641ZM11.876 1.76041C11.8589 1.7587 11.8416 1.75928 11.8246 1.76215C11.7466 1.77567 11.697 1.84188 11.7639 1.96755C11.2997 1.77341 10.1162 2.22183 11.1047 2.47333C11.0674 2.21559 12.0086 3.18643 11.5821 3.09872C11.7758 3.34537 11.8076 3.43793 11.6512 3.42112C11.7225 3.58059 11.9246 3.63432 12.0776 3.56828C12.8628 3.25316 12.478 2.53071 12.0391 2.10431C12.1473 1.89405 12.0012 1.77237 11.876 1.76041ZM13.8439 2.58513C13.8855 2.61633 13.9254 2.64961 13.9664 2.68151C13.8215 2.66192 13.8129 2.62933 13.8439 2.58513ZM11.237 2.78048C11.2165 2.77337 11.2227 2.85172 11.2768 3.06752C11.239 3.70816 10.6858 3.87837 10.2878 4.05171C9.75132 4.42472 10.5003 4.65941 10.3758 5.16953C10.3268 5.2614 10.492 5.26365 10.4954 5.1912C10.7658 4.76497 11.1815 4.94507 11.3933 4.62093C11.7667 4.5828 11.3191 3.95464 11.5614 3.74265C11.5971 3.59185 11.2976 2.8018 11.2368 2.78048H11.237ZM9.1157 6.84133C9.22889 6.84879 9.29164 6.9696 9.14274 7.26947C9.07566 7.40519 9.21277 7.59533 8.87425 7.4428C8.59796 7.1308 8.92694 6.82868 9.1157 6.84133ZM9.06284 7.93923C9.2353 7.92189 9.40708 8.13371 9.33566 8.50221C8.9129 8.82115 9.83556 8.83033 9.7891 9.16608C10.1016 9.47877 10.4264 10.7261 9.68337 10.6089C9.37345 9.89755 9.18244 10.8382 8.6841 10.8103C8.15752 10.9753 8.91516 11.3749 8.55705 11.5817C8.24401 11.6142 8.24748 12.5873 8.00585 12.4509C7.83321 12.2909 6.96828 12.4209 6.85492 11.9533C6.4611 11.7179 6.77778 11.0597 6.52246 10.6758C6.77206 10.7197 6.91108 11.6309 7.22394 10.9812C7.92629 10.8169 8.13256 10.0717 8.57508 9.62541C9.01968 9.26436 8.72882 8.91735 8.77441 8.42976C8.79452 8.10476 8.92868 7.95257 9.06284 7.93923ZM8.9734 9.40875C8.84582 9.81244 7.88729 10.2407 8.68878 10.5735L8.81844 10.5744L8.85934 10.5363C9.29406 10.3825 9.19422 9.84884 9.19076 9.51673C8.98414 9.58173 9.04221 9.61519 8.9734 9.40875ZM10.4836 11.1663C10.5785 11.1762 10.6185 11.3142 10.4719 11.6447C10.5734 11.8432 10.302 12.1686 10.1682 11.8872C10.0165 11.4903 10.3259 11.1502 10.4836 11.1665V11.1663Z" fill="#666666"/>
</svg>
