<svg width="25" height="24" viewBox="0 0 25 24" fill="none" xmlns="http://www.w3.org/2000/svg">
<path d="M21.2022 2.85967C18.791 0.379637 14.9363 0.380176 12.5257 2.86089L2.41546 13.4888C0.587328 15.4559 0.622266 18.6083 2.4935 20.53C4.33395 22.4202 7.27327 22.4202 9.11372 20.53L18.2687 10.9063C19.4589 9.65521 19.4589 7.62673 18.2687 6.37564C17.0786 5.12454 15.1489 5.12454 13.9587 6.37564L5.20174 15.5809C4.89631 15.9133 4.90508 16.4431 5.22134 16.7642C5.52985 17.0774 6.01893 17.0774 6.32744 16.7642L15.0844 7.55892C15.6651 6.97414 16.5868 6.99498 17.143 7.6054C17.6825 8.19739 17.6825 9.13104 17.143 9.72303L7.98807 19.3467C6.75131 20.6283 4.76034 20.6133 3.54116 19.3132C2.3343 18.0263 2.3343 15.959 3.54116 14.6721L13.6514 4.04418C15.4523 2.15039 18.3726 2.14985 20.1741 4.0429C21.9757 5.93595 21.9762 9.00581 20.1754 10.8996L10.0651 21.5275C9.73112 21.8281 9.69222 22.3564 9.97821 22.7075C10.2642 23.0585 10.7668 23.0994 11.1007 22.7988C11.1318 22.7707 11.1609 22.7402 11.1875 22.7075L21.2978 12.0795C23.6934 9.50581 23.6506 5.3779 21.2022 2.85967Z" fill="#474747"/>
</svg>
