<svg width="20" height="21" viewBox="0 0 20 21" fill="none" xmlns="http://www.w3.org/2000/svg">
<path d="M14.1673 1.76367H5.83398C4.41732 1.76367 3.33398 2.84701 3.33398 4.26367V9.26367H10.5007L8.58398 7.34701C8.25065 7.01367 8.25065 6.51367 8.58398 6.18034C8.91732 5.84701 9.41732 5.84701 9.75065 6.18034L13.084 9.51367C13.4173 9.84701 13.4173 10.347 13.084 10.6803L9.75065 14.0137C9.41732 14.347 8.91732 14.347 8.58398 14.0137C8.25065 13.6803 8.25065 13.1803 8.58398 12.847L10.5007 10.9303H3.33398V15.9303C3.33398 17.347 4.41732 18.4303 5.83398 18.4303H14.1673C15.584 18.4303 16.6673 17.347 16.6673 15.9303V4.26367C16.6673 2.84701 15.584 1.76367 14.1673 1.76367Z" fill="#474747"/>
</svg>
