<svg width="20" height="21" viewBox="0 0 20 21" fill="none" xmlns="http://www.w3.org/2000/svg">
<g clip-path="url(#clip0_2_22705)">
<path d="M6.22568 9.34127C7.4353 8.13165 9.54492 8.13165 10.7545 9.34127L11.5093 10.0961L13.019 8.58646L12.2642 7.83165C11.2574 6.82381 9.91645 6.26758 8.49011 6.26758C7.06376 6.26758 5.72283 6.82381 4.71606 7.83165L2.45056 10.0961C1.45158 11.0983 0.890625 12.4556 0.890625 13.8707C0.890625 15.2857 1.45158 16.643 2.45056 17.6452C2.9458 18.1412 3.53416 18.5344 4.18184 18.8023C4.82951 19.0701 5.52373 19.2074 6.22461 19.2061C6.92568 19.2076 7.62012 19.0704 8.26799 18.8026C8.91587 18.5347 9.50439 18.1414 9.99973 17.6452L10.7545 16.8904L9.24492 15.3808L8.49011 16.1356C7.88847 16.7346 7.07409 17.0708 6.22514 17.0708C5.3762 17.0708 4.56182 16.7346 3.96018 16.1356C3.36071 15.5343 3.02409 14.7198 3.02409 13.8707C3.02409 13.0215 3.36071 12.2071 3.96018 11.6057L6.22568 9.34127Z" fill="#474747"/>
<path d="M9.99776 2.54714L9.24295 3.30195L10.7526 4.81157L11.5074 4.05676C12.109 3.45782 12.9234 3.12156 13.7723 3.12156C14.6213 3.12156 15.4357 3.45782 16.0373 4.05676C16.6368 4.65813 16.9734 5.47261 16.9734 6.32173C16.9734 7.17084 16.6368 7.98533 16.0373 8.58669L13.7718 10.8511C12.5622 12.0607 10.4526 12.0607 9.24295 10.8511L8.48814 10.0963L6.97852 11.6059L7.73333 12.3607C8.74009 13.3686 10.081 13.9248 11.5074 13.9248C12.9337 13.9248 14.2747 13.3686 15.2814 12.3607L17.5469 10.0963C18.5459 9.09412 19.1069 7.73677 19.1069 6.32173C19.1069 4.90668 18.5459 3.54934 17.5469 2.54714C16.545 1.54764 15.1876 0.986328 13.7723 0.986328C12.3571 0.986328 10.9997 1.54764 9.99776 2.54714Z" fill="#474747"/>
</g>
<defs>
<clipPath id="clip0_2_22705">
<rect width="20" height="20" fill="white" transform="translate(0 0.0957031)"/>
</clipPath>
</defs>
</svg>
