<svg width="25" height="24" viewBox="0 0 25 24" fill="none" xmlns="http://www.w3.org/2000/svg">
<path d="M2.96089 5.94033H3.46089V5.44033V4.17717C3.46089 2.36405 4.93724 0.887695 6.75036 0.887695H20.6451C22.4582 0.887695 23.9346 2.36405 23.9346 4.17717V19.3351C23.9346 21.1482 22.4582 22.6245 20.6451 22.6245H6.75036C4.93724 22.6245 3.46089 21.1482 3.46089 19.3351V18.0719V17.5719H2.96089H1.69773C1.49533 17.5719 1.30121 17.4915 1.15809 17.3484L0.804541 17.7019L1.15809 17.3484C1.01497 17.2053 0.93457 17.0112 0.93457 16.8087C0.93457 16.6063 1.01497 16.4122 1.15809 16.2691C1.30121 16.126 1.49533 16.0456 1.69773 16.0456H2.96089H3.46089V15.5456V13.0193V12.5193H2.96089H1.69773C1.49533 12.5193 1.30121 12.4389 1.15809 12.2958C1.01497 12.1526 0.93457 11.9585 0.93457 11.7561C0.93457 11.5537 1.01497 11.3596 1.15809 11.2165C1.30121 11.0734 1.49533 10.993 1.69773 10.993H2.96089H3.46089V10.493V7.96664V7.46664H2.96089H1.69773C1.49533 7.46664 1.30121 7.38624 1.15809 7.24312C1.01497 7.1 0.93457 6.90589 0.93457 6.70349C0.93457 6.50108 1.01497 6.30697 1.15809 6.16385C1.30121 6.02073 1.49533 5.94033 1.69773 5.94033H2.96089ZM7.25036 2.91401V2.41401H6.75036C5.77822 2.41401 4.9872 3.20503 4.9872 4.17717V5.44033V5.94033H5.4872H6.75036H7.25036V5.44033V2.91401ZM5.4872 7.46664H4.9872V7.96664V10.493V10.993H5.4872H6.75036H7.25036V10.493V7.96664V7.46664H6.75036H5.4872ZM5.4872 12.5193H4.9872V13.0193V15.5456V16.0456H5.4872H6.75036H7.25036V15.5456V13.0193V12.5193H6.75036H5.4872ZM5.4872 17.5719H4.9872V18.0719V19.3351C4.9872 20.3072 5.77822 21.0982 6.75036 21.0982H7.25036V20.5982V18.0719V17.5719H6.75036H5.4872ZM7.51352 20.5982V21.0982H8.01352H20.6451C21.6172 21.0982 22.4083 20.3072 22.4083 19.3351V4.17717C22.4083 3.20503 21.6172 2.41401 20.6451 2.41401H8.01352H7.51352V2.91401V20.5982ZM16.3563 9.22993C16.3563 10.349 15.4491 11.2562 14.33 11.2562C13.2109 11.2562 12.3037 10.349 12.3037 9.22993C12.3037 8.11083 13.2109 7.20361 14.33 7.20361C15.4491 7.20361 16.3563 8.11083 16.3563 9.22993ZM11.6857 14.5731C11.6825 14.5707 11.6795 14.5684 11.6766 14.5662C11.7077 14.3542 11.8701 14.0783 12.2745 13.8261C12.7213 13.5475 13.414 13.3375 14.3288 13.3375C15.2147 13.3375 15.9093 13.5465 16.3655 13.8275C16.774 14.0792 16.9423 14.3509 16.9788 14.5564C16.9752 14.559 16.9713 14.5618 16.9671 14.5647C16.8758 14.6286 16.7099 14.7086 16.457 14.7852C15.9576 14.9367 15.2192 15.0457 14.3288 15.0457C13.3748 15.0457 12.6389 14.9358 12.1589 14.786C11.9161 14.7102 11.7651 14.6323 11.6857 14.5731ZM17.0223 14.5185C17.0226 14.5185 17.0211 14.5205 17.0173 14.5244C17.0201 14.5204 17.022 14.5185 17.0223 14.5185ZM11.6447 14.5381C11.6421 14.5352 11.6411 14.5337 11.6412 14.5337C11.6414 14.5337 11.6427 14.5351 11.6447 14.5381Z" fill="#4C5BD4" stroke="#4C5BD4"/>
</svg>
