<svg width="31" height="26" viewBox="0 0 31 26" fill="none" xmlns="http://www.w3.org/2000/svg">
<path d="M30.2177 18.7358C30.2177 17.0388 29.7095 15.4003 28.748 13.9972C28.0564 12.988 27.1658 12.15 26.1338 11.5272C27.3489 10.3765 28.1091 8.75011 28.1091 6.94845C28.1091 3.46953 25.2787 0.63916 21.7999 0.63916C19.737 0.63916 17.8047 1.65938 16.6309 3.33414C16.3326 3.2907 16.0279 3.26726 15.7177 3.26726C15.4076 3.26726 15.1029 3.29078 14.8046 3.33414C13.6308 1.65938 11.6984 0.63916 9.63563 0.63916C6.15672 0.63916 3.32634 3.46953 3.32634 6.94845C3.32634 8.75011 4.08661 10.3765 5.30178 11.5272C4.26965 12.1499 3.37905 12.988 2.68754 13.9971C1.72602 15.4003 1.21777 17.0388 1.21777 18.7358V22.2451H7.29995V24.8731H24.1357V22.2451H30.2178V18.7358H30.2177ZM21.7999 2.19636C24.4202 2.19636 26.552 4.32813 26.552 6.94853C26.552 9.56892 24.4202 11.7007 21.7999 11.7007C21.753 11.7007 21.706 11.7 21.659 11.6986C21.6626 11.6886 21.6655 11.6784 21.669 11.6685C21.7502 11.4385 21.8178 11.2023 21.8721 10.961C21.8759 10.9439 21.8803 10.9269 21.8839 10.9097C21.898 10.8446 21.9104 10.7789 21.9225 10.713C21.9281 10.6819 21.934 10.6508 21.9392 10.6196C21.949 10.5608 21.9579 10.5018 21.9661 10.4425C21.9717 10.4014 21.9769 10.3602 21.9818 10.3189C21.9879 10.2666 21.9939 10.2142 21.9988 10.1615C22.0038 10.1077 22.0076 10.0538 22.0111 9.99986C22.0139 9.95735 22.0174 9.91499 22.0194 9.87225C22.0237 9.78061 22.0261 9.68882 22.0264 9.59695C22.0264 9.59018 22.0269 9.58356 22.0269 9.57671C22.0269 9.57305 22.0266 9.56939 22.0266 9.56573C22.0265 9.47191 22.0238 9.37864 22.0195 9.28568C22.0183 9.25867 22.0167 9.23173 22.0151 9.20479C22.0105 9.12577 22.0045 9.04713 21.9971 8.96889C21.9954 8.95114 21.994 8.93338 21.9922 8.91571C21.7569 6.64162 20.3203 4.69514 18.2477 3.79482C19.1408 2.79149 20.4326 2.19636 21.7999 2.19636ZM14.0735 5.11767C14.0887 5.11214 14.104 5.10692 14.1192 5.10147C14.1665 5.08458 14.2141 5.06854 14.262 5.05305C14.2983 5.04145 14.3348 5.03023 14.3715 5.01949C14.3982 5.01163 14.425 5.00407 14.4519 4.9966C14.4998 4.98344 14.548 4.9706 14.5967 4.95884C14.9564 4.87149 15.3315 4.82407 15.7176 4.82407C16.104 4.82438 16.4792 4.87187 16.839 4.95923C16.8874 4.97091 16.9352 4.98368 16.983 4.99676C17.0102 5.00431 17.0375 5.01194 17.0645 5.01996C17.1008 5.03062 17.1369 5.04168 17.1728 5.05312C17.2213 5.06877 17.2695 5.08497 17.3173 5.10209C17.332 5.10731 17.3467 5.11229 17.3614 5.11767C18.9506 5.7054 20.1422 7.11981 20.4119 8.8363C20.414 8.85 20.416 8.86378 20.4181 8.87756C20.4267 8.93572 20.4339 8.99435 20.4404 9.05313C20.4427 9.07477 20.4452 9.09634 20.4473 9.11806C20.4525 9.1717 20.4563 9.22573 20.4597 9.27992C20.4611 9.30312 20.4631 9.32624 20.4641 9.34952C20.4674 9.41874 20.4692 9.48834 20.4694 9.55833C20.4694 9.56441 20.4698 9.57032 20.4698 9.5764C20.4698 9.5792 20.4697 9.58208 20.4697 9.58488C20.4695 9.65262 20.4675 9.71988 20.4645 9.78692C20.4636 9.80802 20.4627 9.82912 20.4614 9.85014C20.4578 9.91491 20.4529 9.97938 20.4467 10.0434C20.4443 10.0681 20.441 10.0928 20.4382 10.1175C20.4335 10.1589 20.4282 10.2003 20.4224 10.2414C20.4179 10.2734 20.4134 10.3054 20.4082 10.3373C20.4004 10.3858 20.3917 10.434 20.3823 10.482C20.374 10.5248 20.3649 10.5673 20.3554 10.6099C20.3497 10.6355 20.3438 10.6611 20.3376 10.6865C20.3224 10.7497 20.3058 10.8124 20.288 10.875C20.2809 10.8998 20.2743 10.9248 20.2669 10.9494C20.256 10.9852 20.2444 11.0207 20.2328 11.0562C20.2234 11.0846 20.2138 11.1129 20.2039 11.1411C20.1927 11.1731 20.1817 11.2051 20.1698 11.2369C20.1497 11.2909 20.1285 11.3443 20.1065 11.3974C20.0967 11.421 20.0862 11.4445 20.076 11.4681C20.0568 11.5122 20.037 11.5561 20.0165 11.5996C20.0141 11.6047 20.0116 11.6098 20.0092 11.615C20.0018 11.6304 19.9945 11.6459 19.987 11.6613C19.9639 11.7083 19.9399 11.7548 19.9153 11.8009C19.9058 11.8188 19.8965 11.8369 19.8867 11.8548C19.8861 11.8559 19.8854 11.857 19.8848 11.8581C19.8579 11.9072 19.8298 11.9554 19.8012 12.0034C19.7898 12.0224 19.7786 12.0415 19.767 12.0602C19.7359 12.1108 19.7039 12.1607 19.6709 12.21C19.6505 12.2405 19.6291 12.2705 19.6079 12.3007C19.5899 12.3262 19.572 12.3518 19.5535 12.377C19.5296 12.4095 19.5053 12.4417 19.4805 12.4736C19.4637 12.4954 19.4467 12.5169 19.4296 12.5384C19.4034 12.5711 19.377 12.6037 19.3501 12.6357C19.3334 12.6555 19.3162 12.675 19.2991 12.6945C19.2711 12.7267 19.2431 12.7589 19.2143 12.7903C19.1972 12.8089 19.1794 12.8268 19.162 12.8452C19.1151 12.8946 19.0672 12.943 19.0183 12.9904C18.9892 13.0185 18.9604 13.0467 18.9306 13.074C18.9101 13.0929 18.889 13.1113 18.868 13.1299C18.8339 13.1602 18.7996 13.1902 18.7646 13.2194C18.7469 13.2343 18.729 13.249 18.711 13.2637C18.6687 13.2981 18.6259 13.3318 18.5824 13.3648C18.5705 13.3737 18.5589 13.3828 18.5469 13.3917C17.7559 13.9798 16.7768 14.3283 15.7177 14.3283C14.6584 14.3283 13.6792 13.9797 12.8881 13.3915C12.8765 13.3828 12.865 13.3738 12.8534 13.365C12.8097 13.3319 12.7667 13.298 12.7243 13.2634C12.7064 13.2489 12.6886 13.2343 12.671 13.2195C12.6359 13.1901 12.6015 13.1599 12.5672 13.1296C12.5464 13.1111 12.5254 13.0928 12.5049 13.074C12.4751 13.0466 12.4462 13.0183 12.417 12.9902C12.3679 12.9427 12.3199 12.8941 12.2728 12.8446C12.2556 12.8264 12.238 12.8087 12.2211 12.7904C12.1923 12.7589 12.1643 12.7266 12.1363 12.6944C12.1192 12.6749 12.1021 12.6555 12.0854 12.6357C12.0584 12.6037 12.032 12.5711 12.0059 12.5385C11.9887 12.517 11.9717 12.4954 11.9549 12.4736C11.9302 12.4417 11.9058 12.4096 11.8819 12.377C11.8635 12.3518 11.8455 12.3261 11.8275 12.3005C11.8063 12.2704 11.785 12.2405 11.7646 12.21C11.7315 12.1606 11.6994 12.1105 11.6681 12.0598C11.6567 12.0412 11.6456 12.0224 11.6344 12.0036C11.6054 11.955 11.577 11.9061 11.5496 11.8563C11.5396 11.838 11.5301 11.8194 11.5202 11.8011C11.4956 11.7548 11.4716 11.7082 11.4484 11.6611C11.4402 11.6443 11.4322 11.6274 11.4241 11.6106C11.4229 11.608 11.4217 11.6055 11.4206 11.6029C11.399 11.5574 11.3784 11.5115 11.3582 11.4652C11.3486 11.4431 11.3389 11.4212 11.3297 11.3991C11.3071 11.3449 11.2856 11.2902 11.2649 11.2351C11.2538 11.2054 11.2435 11.1753 11.233 11.1453C11.2222 11.1146 11.2117 11.0836 11.2015 11.0525C11.1906 11.0189 11.1795 10.9853 11.1692 10.9515C11.1539 10.901 11.1394 10.8501 11.1258 10.799C11.1162 10.7631 11.1076 10.7269 11.0988 10.6907C11.0919 10.6623 11.0853 10.6339 11.079 10.6053C11.0712 10.5703 11.0634 10.5353 11.0563 10.5002C11.0455 10.4453 11.0356 10.3902 11.0268 10.3348C11.0219 10.3049 11.0177 10.2749 11.0134 10.245C11.0071 10.2007 11.0015 10.1562 10.9964 10.1115C10.9939 10.0895 10.991 10.0674 10.9888 10.0454C10.9823 9.97977 10.9774 9.91367 10.9737 9.84733C10.9726 9.82826 10.9717 9.80919 10.9709 9.79011C10.9677 9.71918 10.9654 9.64802 10.9654 9.5764C10.9654 9.49963 10.9676 9.42341 10.9712 9.3475C10.9723 9.32687 10.974 9.30639 10.9751 9.28584C10.9786 9.22885 10.9827 9.17201 10.9881 9.11549C10.99 9.09579 10.9923 9.07617 10.9944 9.05655C11.0011 8.99536 11.0086 8.93447 11.0177 8.87398C11.0194 8.86222 11.0211 8.85039 11.0229 8.83863C11.2918 7.12113 12.4836 5.70579 14.0735 5.11767ZM4.88346 6.94853C4.88346 4.32821 7.01524 2.19636 9.63563 2.19636C11.003 2.19636 12.2947 2.79156 13.1878 3.79466C11.1146 4.6953 9.6776 6.64271 9.44302 8.91774C9.44138 8.93315 9.44021 8.94864 9.43873 8.96414C9.43095 9.04519 9.4248 9.12654 9.42013 9.20837C9.41872 9.23329 9.41717 9.25812 9.416 9.28311C9.41156 9.38051 9.40853 9.47822 9.40853 9.57663C9.40853 9.67597 9.41141 9.77508 9.41608 9.87412C9.41795 9.91398 9.42122 9.95345 9.42379 9.99308C9.4276 10.0501 9.43149 10.1071 9.43679 10.1639C9.44146 10.2144 9.44722 10.2646 9.45314 10.3149C9.45828 10.3586 9.46373 10.4022 9.4698 10.4458C9.47774 10.503 9.4863 10.56 9.49572 10.6168C9.50141 10.6505 9.50764 10.6841 9.51379 10.7178C9.52547 10.7813 9.53738 10.8447 9.55092 10.9075C9.55544 10.9282 9.56058 10.9488 9.56525 10.9694C9.61811 11.2032 9.68375 11.4321 9.76191 11.6553C9.7669 11.6697 9.77126 11.6843 9.77632 11.6986C9.72937 11.7 9.68235 11.7007 9.63548 11.7007C7.01524 11.7006 4.88346 9.56884 4.88346 6.94853ZM8.60536 16.8752C8.58824 16.9022 8.57189 16.9297 8.55507 16.9569C8.51949 17.0144 8.48422 17.072 8.45012 17.1301C8.43104 17.1626 8.41267 17.1953 8.39414 17.228C8.36347 17.282 8.33318 17.3361 8.30375 17.3906C8.28522 17.425 8.267 17.4595 8.24894 17.494C8.2206 17.5482 8.19296 17.6028 8.16587 17.6575C8.14882 17.6919 8.13184 17.7263 8.11534 17.7608C8.08778 17.8185 8.06123 17.8767 8.03499 17.9349C8.02074 17.9666 8.00611 17.9981 7.99233 18.0299C7.96196 18.0997 7.933 18.17 7.90458 18.2405C7.89625 18.2611 7.88738 18.2815 7.87928 18.3022C7.84323 18.3938 7.80874 18.4861 7.77604 18.5788C7.76857 18.6001 7.76187 18.6215 7.75448 18.6428C7.72987 18.7143 7.70589 18.786 7.68324 18.858C7.67288 18.8911 7.66331 18.9243 7.65334 18.9575C7.63505 19.0185 7.61706 19.0796 7.60017 19.1412C7.59012 19.1777 7.58055 19.2144 7.57097 19.2512C7.55555 19.3102 7.54076 19.3693 7.52675 19.4288C7.51779 19.4664 7.50907 19.504 7.50074 19.5416C7.48735 19.6018 7.47482 19.6622 7.46275 19.7227C7.45551 19.7591 7.44804 19.7955 7.44126 19.832C7.42904 19.8978 7.41806 19.964 7.4074 20.0303C7.40241 20.0614 7.39688 20.0924 7.39221 20.1235C7.37773 20.2209 7.36457 20.3184 7.35352 20.4164C7.35336 20.4176 7.35329 20.4188 7.35321 20.4199C7.34316 20.5091 7.33452 20.5984 7.32728 20.688H2.77489V18.7358C2.77489 16.0686 4.30819 13.6741 6.71035 12.536C7.58545 12.996 8.58022 13.2578 9.63555 13.2578C9.94075 13.2578 10.2469 13.2352 10.5507 13.1905C10.598 13.258 10.6461 13.3248 10.696 13.3904C10.7128 13.4124 10.7302 13.4339 10.7473 13.4557C10.7965 13.5186 10.8464 13.5808 10.898 13.6418C10.9191 13.6668 10.9407 13.6912 10.9622 13.7159C11.0105 13.7714 11.0595 13.8261 11.1097 13.8797C11.136 13.908 11.1628 13.9358 11.1896 13.9636C11.2354 14.0108 11.2819 14.0574 11.3292 14.1033C11.3469 14.1205 11.3636 14.1387 11.3815 14.1557C11.3139 14.1966 11.2469 14.2385 11.1804 14.2812C11.1696 14.2882 11.159 14.2955 11.1483 14.3025C11.0819 14.3456 11.0162 14.3897 10.9511 14.4346C10.9286 14.4502 10.9062 14.4659 10.8837 14.4816C10.8257 14.5225 10.7684 14.5641 10.7114 14.6064C10.6935 14.6197 10.6752 14.6328 10.6574 14.6464C10.585 14.7011 10.5135 14.7569 10.4428 14.8138C10.4274 14.8263 10.4123 14.8391 10.3969 14.8518C10.3407 14.8978 10.285 14.9446 10.2301 14.9921C10.2087 15.0104 10.1876 15.029 10.1664 15.0476C10.1113 15.0961 10.057 15.1453 10.0032 15.1952C9.98917 15.2082 9.97485 15.221 9.96091 15.2341C9.89489 15.2962 9.82988 15.3595 9.76581 15.4239C9.74915 15.4407 9.73287 15.4577 9.71637 15.4745C9.66732 15.5246 9.61881 15.5752 9.57093 15.6265C9.55194 15.6469 9.53294 15.6673 9.5141 15.6879C9.46022 15.7468 9.40712 15.8064 9.35488 15.8669C9.34671 15.8764 9.33822 15.8856 9.33005 15.8952C9.27049 15.9647 9.21225 16.0356 9.15479 16.1071C9.13875 16.127 9.12311 16.1473 9.1073 16.1674C9.06409 16.2223 9.0215 16.2778 8.97962 16.3337C8.96342 16.3554 8.94715 16.3769 8.93119 16.3987C8.87638 16.4734 8.82227 16.5488 8.76972 16.6255C8.71327 16.7078 8.65862 16.7912 8.60536 16.8752ZM8.85707 23.3161V22.2452V21.3639C8.85707 21.2774 8.85871 21.1913 8.8619 21.1055C8.86291 21.0772 8.86517 21.0492 8.86657 21.021C8.86937 20.9637 8.87202 20.9063 8.87622 20.8492C8.87879 20.8146 8.88269 20.7803 8.8858 20.7457C8.89032 20.6954 8.89436 20.645 8.89997 20.595C8.9041 20.5584 8.90947 20.5221 8.91414 20.4856C8.92021 20.438 8.9259 20.3903 8.9329 20.343C8.93859 20.3053 8.94544 20.268 8.95167 20.2304C8.9593 20.1848 8.96638 20.139 8.97495 20.0936C8.98219 20.0553 8.99059 20.0173 8.99846 19.979C9.00749 19.935 9.01613 19.8907 9.02602 19.847C9.03474 19.8084 9.0447 19.7701 9.05405 19.7317C9.06456 19.6889 9.0746 19.6458 9.08589 19.6032C9.09617 19.5645 9.10753 19.5262 9.11843 19.4878C9.13027 19.446 9.14179 19.4041 9.1544 19.3626C9.16616 19.324 9.17908 19.2857 9.19146 19.2473C9.2047 19.2066 9.21755 19.1658 9.23148 19.1254C9.24472 19.0872 9.25896 19.0493 9.27282 19.0114C9.28746 18.9713 9.30179 18.9312 9.31712 18.8915C9.33176 18.8537 9.34733 18.8164 9.36251 18.7789C9.37847 18.7397 9.3942 18.7003 9.41086 18.6615C9.42698 18.624 9.44395 18.587 9.46069 18.5499C9.47789 18.5117 9.49495 18.4733 9.51285 18.4355C9.53037 18.3985 9.54874 18.362 9.56688 18.3253C9.58541 18.2879 9.60371 18.2505 9.62286 18.2135C9.64178 18.1771 9.66148 18.1411 9.68102 18.105C9.7008 18.0685 9.72034 18.032 9.74074 17.9959C9.76098 17.9601 9.782 17.9248 9.80279 17.8894C9.82381 17.8537 9.84467 17.818 9.8664 17.7826C9.88796 17.7475 9.91023 17.713 9.93242 17.6782C9.95468 17.6434 9.9768 17.6086 9.99969 17.5742C10.0226 17.5398 10.0461 17.5059 10.0696 17.4719C10.093 17.4381 10.1164 17.4042 10.1404 17.3707C10.1645 17.3371 10.1893 17.3039 10.2142 17.2707C10.2388 17.2377 10.2633 17.2048 10.2885 17.1723C10.3138 17.1396 10.3398 17.1072 10.3658 17.0749C10.3916 17.0428 10.4175 17.0108 10.4438 16.9792C10.4703 16.9474 10.4974 16.916 10.5245 16.8847C10.5515 16.8535 10.5786 16.8223 10.6063 16.7915C10.6339 16.7606 10.6622 16.7303 10.6903 16.6999C10.7185 16.6696 10.7467 16.6395 10.7754 16.6097C10.8042 16.5798 10.8336 16.5504 10.863 16.5211C10.8924 16.4917 10.9219 16.4625 10.9518 16.4336C10.9816 16.4049 11.0119 16.3766 11.0423 16.3483C11.0729 16.32 11.1035 16.2917 11.1346 16.2638C11.1656 16.2361 11.1969 16.2088 11.2284 16.1816C11.26 16.1543 11.2919 16.1271 11.324 16.1003C11.356 16.0737 11.3883 16.0475 11.4209 16.0214C11.4536 15.9951 11.4867 15.969 11.52 15.9432C11.5529 15.9178 11.5862 15.8928 11.6196 15.8679C11.6535 15.8426 11.6877 15.8176 11.7222 15.7929C11.756 15.7687 11.7901 15.7448 11.8245 15.7212C11.8597 15.697 11.895 15.6731 11.9307 15.6495C11.9653 15.6266 12.0003 15.6039 12.0354 15.5816C12.0717 15.5585 12.1083 15.5356 12.1452 15.5132C12.1807 15.4916 12.2164 15.4702 12.2524 15.4491C12.2897 15.4273 12.3274 15.4057 12.3653 15.3844C12.4017 15.364 12.4383 15.3439 12.4751 15.3241C12.5137 15.3034 12.5525 15.2831 12.5916 15.263C12.6286 15.2439 12.6659 15.2252 12.7034 15.2067C12.7329 15.1922 12.7627 15.1782 12.7925 15.1641C13.6676 15.6241 14.6625 15.8858 15.7177 15.8858C16.7731 15.8858 17.7679 15.6241 18.6429 15.1641C18.6725 15.1781 18.7021 15.1921 18.7314 15.2064C18.7694 15.2251 18.807 15.2441 18.8445 15.2633C18.8831 15.2832 18.9216 15.3032 18.9597 15.3237C18.9969 15.3437 19.0339 15.3641 19.0707 15.3848C19.1081 15.4058 19.1453 15.427 19.1822 15.4487C19.2188 15.47 19.255 15.4917 19.2909 15.5137C19.3273 15.5359 19.3633 15.5583 19.3992 15.5811C19.4348 15.6038 19.4702 15.6267 19.5053 15.6499C19.5405 15.6732 19.5755 15.6969 19.6102 15.7208C19.6449 15.7447 19.6794 15.7687 19.7135 15.7932C19.7477 15.8176 19.7815 15.8424 19.8151 15.8675C19.8489 15.8925 19.8825 15.9178 19.9157 15.9435C19.9487 15.9691 19.9814 15.9949 20.014 16.021C20.0467 16.0472 20.0792 16.0736 20.1115 16.1004C20.1435 16.127 20.1751 16.1541 20.2065 16.1812C20.2382 16.2086 20.2697 16.236 20.3009 16.264C20.3317 16.2916 20.3622 16.3197 20.3924 16.3478C20.4231 16.3763 20.4537 16.4049 20.4838 16.4339C20.5135 16.4625 20.5427 16.4915 20.5717 16.5205C20.6013 16.5501 20.6309 16.5798 20.6599 16.6098C20.6884 16.6394 20.7166 16.6693 20.7445 16.6994C20.773 16.73 20.8014 16.7606 20.8293 16.7917C20.8567 16.8222 20.8836 16.8531 20.9103 16.8841C20.9377 16.9156 20.965 16.9472 20.9917 16.9793C21.0179 17.0107 21.0435 17.0425 21.0692 17.0744C21.0953 17.1069 21.1215 17.1394 21.147 17.1724C21.1721 17.2047 21.1965 17.2375 21.2209 17.2703C21.2458 17.3036 21.2707 17.337 21.295 17.3708C21.3189 17.404 21.3422 17.4378 21.3655 17.4715C21.3891 17.5056 21.4127 17.5397 21.4357 17.5743C21.4584 17.6085 21.4804 17.643 21.5025 17.6776C21.5248 17.7126 21.5473 17.7475 21.569 17.7828C21.5905 17.8178 21.6112 17.8533 21.6321 17.8886C21.6531 17.9243 21.6743 17.9598 21.6946 17.9959C21.7149 18.0319 21.7344 18.0683 21.7541 18.1046C21.7737 18.1408 21.7935 18.1769 21.8124 18.2134C21.8315 18.2503 21.8497 18.2878 21.8683 18.3251C21.8864 18.3617 21.9049 18.3983 21.9224 18.4354C21.9403 18.4732 21.9573 18.5115 21.9744 18.5496C21.9912 18.5869 22.0083 18.624 22.0244 18.6616C22.041 18.7001 22.0564 18.7391 22.0723 18.778C22.0877 18.8159 22.1035 18.8536 22.1182 18.8917C22.1334 18.9312 22.1477 18.9711 22.1623 19.011C22.1762 19.049 22.1904 19.087 22.2037 19.1253C22.2177 19.1659 22.2306 19.2069 22.2438 19.2478C22.2562 19.286 22.2691 19.3241 22.2808 19.3626C22.2934 19.4041 22.3049 19.4461 22.3168 19.4879C22.3277 19.5263 22.3391 19.5645 22.3493 19.6032C22.3606 19.6458 22.3707 19.6888 22.3812 19.7317C22.3906 19.7701 22.4005 19.8084 22.4092 19.847C22.4191 19.8907 22.4277 19.9349 22.4368 19.9789C22.4446 20.0171 22.453 20.0552 22.4603 20.0936C22.4688 20.1386 22.4758 20.184 22.4834 20.2293C22.4897 20.2673 22.4967 20.3049 22.5024 20.3431C22.5094 20.39 22.515 20.4374 22.5211 20.4846C22.5258 20.5214 22.5313 20.558 22.5354 20.595C22.541 20.6449 22.5451 20.6953 22.5496 20.7456C22.5527 20.7802 22.5566 20.8145 22.5592 20.8492C22.5634 20.9062 22.566 20.9637 22.5688 21.0211C22.5702 21.0492 22.5725 21.0772 22.5735 21.1054C22.5767 21.1913 22.5783 21.2774 22.5783 21.3638V22.245V23.3161H8.85707ZM24.1086 20.688C24.0933 20.4983 24.0714 20.3098 24.0435 20.1225C24.039 20.0929 24.0338 20.0634 24.029 20.0338C24.0182 19.966 24.0069 19.8984 23.9944 19.831C23.9877 19.7955 23.9805 19.7601 23.9734 19.7247C23.9612 19.6631 23.9484 19.6017 23.9348 19.5405C23.9265 19.5036 23.918 19.4667 23.9093 19.4299C23.895 19.3698 23.8801 19.3099 23.8645 19.2502C23.8551 19.214 23.8457 19.1779 23.8357 19.1418C23.8186 19.0796 23.8004 19.0178 23.7819 18.9561C23.7721 18.9235 23.7627 18.8909 23.7525 18.8585C23.7296 18.7853 23.7053 18.7126 23.6803 18.6401C23.6733 18.6198 23.6669 18.5993 23.6597 18.5791C23.6269 18.4861 23.5924 18.3936 23.5562 18.3016C23.5484 18.2819 23.5399 18.2625 23.532 18.2428C23.5032 18.1714 23.4738 18.1001 23.4431 18.0294C23.4294 17.9981 23.415 17.9671 23.401 17.9359C23.3745 17.877 23.3478 17.8184 23.3199 17.7601C23.3036 17.726 23.2868 17.6922 23.2701 17.6583C23.2427 17.603 23.2148 17.548 23.1862 17.4933C23.1683 17.459 23.1503 17.4249 23.132 17.3909C23.1024 17.3361 23.072 17.2818 23.0412 17.2276C23.0226 17.1951 23.0043 17.1625 22.9854 17.1302C22.9512 17.0717 22.9157 17.0139 22.8799 16.9561C22.8633 16.9292 22.8471 16.902 22.8301 16.8753C22.7768 16.7913 22.7221 16.7079 22.6656 16.6255C22.613 16.5487 22.5589 16.4733 22.504 16.3986C22.4882 16.377 22.472 16.3555 22.4559 16.3341C22.4138 16.2778 22.3711 16.2222 22.3277 16.1671C22.312 16.1472 22.2966 16.1271 22.2807 16.1074C22.2231 16.0356 22.1647 15.9646 22.105 15.8949C22.0972 15.8859 22.0891 15.8771 22.0814 15.8681C22.0287 15.8071 21.9752 15.747 21.9209 15.6877C21.9022 15.6673 21.8835 15.6471 21.8646 15.6269C21.8165 15.5753 21.7677 15.5243 21.7183 15.474C21.702 15.4574 21.6861 15.4407 21.6697 15.4242C21.6054 15.3598 21.5402 15.2962 21.474 15.234C21.4604 15.2211 21.4464 15.2086 21.4327 15.1959C21.3786 15.1457 21.3239 15.0962 21.2686 15.0475C21.2476 15.029 21.2264 15.0106 21.2053 14.9922C21.1501 14.9446 21.0945 14.8978 21.0382 14.8518C21.0228 14.8392 21.0078 14.8264 20.9924 14.8139C20.9219 14.7569 20.8503 14.7012 20.778 14.6465C20.7599 14.6329 20.7415 14.6197 20.7234 14.6062C20.6667 14.5642 20.6097 14.5227 20.5519 14.4821C20.5292 14.4661 20.5066 14.4503 20.4838 14.4345C20.4194 14.3901 20.3544 14.3465 20.2887 14.3038C20.2771 14.2963 20.2658 14.2885 20.2543 14.2812C20.188 14.2386 20.1212 14.1968 20.0536 14.156C20.071 14.1394 20.0874 14.1217 20.1046 14.1049C20.1529 14.0582 20.2003 14.0107 20.247 13.9624C20.2731 13.9355 20.299 13.9085 20.3245 13.8811C20.3755 13.8266 20.4252 13.771 20.4743 13.7147C20.4951 13.6908 20.5161 13.667 20.5365 13.6427C20.5888 13.5809 20.6396 13.5178 20.6895 13.4539C20.7058 13.433 20.7225 13.4124 20.7386 13.3913C20.7886 13.3255 20.837 13.2584 20.8846 13.1907C21.1884 13.2353 21.4945 13.2579 21.7997 13.2579C22.855 13.2579 23.8499 12.9961 24.7249 12.5361C27.1271 13.6742 28.6603 16.0686 28.6603 18.7358V20.688H24.1086Z" fill="#4C5BD4" stroke="#4C5BD4"/>
</svg>
