<svg width="24" height="28" viewBox="0 0 24 28" fill="none" xmlns="http://www.w3.org/2000/svg">
<path d="M9.52902 2.16941C9.72823 1.67703 10.0699 1.25536 10.5104 0.958456C10.9508 0.661549 11.4698 0.50293 12.001 0.50293C12.5321 0.50293 13.0512 0.661549 13.4916 0.958456C13.932 1.25536 14.2737 1.67703 14.4729 2.16941C16.4446 2.71164 19.4232 5.51246 19.4232 5.51246C20.7169 7.77201 21.1796 8.49496 21.3342 11.1719V17.4345L23.7768 21.0984C23.9108 21.2992 23.9877 21.5326 23.9994 21.7737C24.0111 22.0148 23.9572 22.2546 23.8433 22.4674C23.7294 22.6803 23.5599 22.8582 23.3528 22.9822C23.1457 23.1063 22.9089 23.1718 22.6675 23.1717H16.6209C16.4604 24.2825 15.905 25.2983 15.0565 26.0329C14.2081 26.7676 13.1233 27.172 12.001 27.172C10.8786 27.172 9.79389 26.7676 8.94543 26.0329C8.09696 25.2983 7.54159 24.2825 7.38105 23.1717H1.33449C1.0931 23.1718 0.856233 23.1063 0.649153 22.9822C0.442074 22.8582 0.272553 22.6803 0.158675 22.4674C0.0447972 22.2546 -0.00916427 22.0148 0.002547 21.7737C0.0142583 21.5326 0.091203 21.2992 0.225173 21.0984L2.6678 17.4345V11.1719C2.6678 6.87333 5.57442 3.25205 9.52902 2.16941ZM10.1157 23.1717C10.2534 23.5619 10.5087 23.8998 10.8465 24.1388C11.1843 24.3778 11.5879 24.5061 12.0016 24.5061C12.4154 24.5061 12.819 24.3778 13.1568 24.1388C13.4946 23.8998 13.7499 23.5619 13.8876 23.1717H10.1143H10.1157ZM12.001 4.50537C10.2329 4.50537 8.53723 5.20773 7.28701 6.45796C6.03679 7.70818 5.33442 9.40384 5.33442 11.1719V17.8385C5.33448 18.1019 5.25654 18.3593 5.11042 18.5785L3.82645 20.5051H20.1742L18.8902 18.5785C18.7446 18.3592 18.6671 18.1017 18.6675 17.8385V11.1719C18.6675 9.40384 17.9652 7.70818 16.7149 6.45796C15.4647 5.20773 13.7691 4.50537 12.001 4.50537Z" fill="#4C5BD4"/>
</svg>
