<svg width="21" height="21" viewBox="0 0 21 21" fill="none" xmlns="http://www.w3.org/2000/svg">
<path d="M19.6011 10.9428C19.6011 15.9192 15.5691 19.9512 10.6094 19.9512C5.63307 19.9512 1.60107 15.9192 1.60107 10.9428C1.60107 5.98317 5.63307 1.95117 10.6094 1.95117C15.5691 1.95117 19.6011 5.98317 19.6011 10.9428Z" fill="#474747"/>
<path d="M11.9345 12.8319C10.1621 12.8319 8.72021 11.39 8.72021 9.61761C8.72021 7.84525 10.1621 6.40332 11.9345 6.40332C13.7069 6.40332 15.1488 7.84525 15.1488 9.61761C15.1488 11.39 13.7069 12.8319 11.9345 12.8319ZM11.9345 7.04618C10.5164 7.04618 9.36307 8.19946 9.36307 9.61761C9.36307 11.0357 10.5164 12.189 11.9345 12.189C13.3526 12.189 14.5059 11.0357 14.5059 9.61761C14.5059 8.19946 13.352 7.04618 11.9345 7.04618Z" fill="white" stroke="white"/>
<path d="M6.26009 15.4995C6.21929 15.4995 6.17942 15.4867 6.14549 15.4629C6.11157 15.439 6.08511 15.4051 6.06948 15.3654C6.05384 15.3257 6.04972 15.2821 6.05763 15.2399C6.06555 15.1978 6.08514 15.159 6.11394 15.1286L8.37014 12.7524C8.40908 12.7128 8.46122 12.6909 8.51534 12.6914C8.56946 12.6919 8.62124 12.7148 8.65951 12.7551C8.69778 12.7954 8.71949 12.8499 8.71996 12.9069C8.72043 12.9639 8.69963 13.0188 8.66203 13.0598L6.40624 15.4356C6.38707 15.4558 6.36429 15.4719 6.33921 15.4829C6.31413 15.4938 6.28724 15.4995 6.26009 15.4995Z" fill="white" stroke="white"/>
</svg>
