<svg width="26" height="26" viewBox="0 0 26 26" fill="none" xmlns="http://www.w3.org/2000/svg">
<circle cx="13.375" cy="13.2012" r="12.5" fill="#4C5BD4"/>
<path d="M7.43748 10.9512C6.57625 10.9512 5.875 11.6524 5.875 12.5137V17.5136C5.875 18.3749 6.57625 19.0761 7.43748 19.0761H9.31247C9.66435 19.0761 9.98808 18.9574 10.25 18.7599V10.9512H7.43748Z" fill="white"/>
<path d="M20.8749 13.2949C20.8749 12.9192 20.7262 12.5692 20.4681 12.3111C20.7599 11.9917 20.9087 11.5636 20.868 11.118C20.7949 10.3236 20.0793 9.70112 19.2381 9.70112H15.3775C15.5687 9.12049 15.875 8.05614 15.875 7.20115C15.875 5.84553 14.7231 4.70117 14 4.70117C13.3506 4.70117 12.8868 5.06679 12.8669 5.08179C12.7931 5.14118 12.75 5.23118 12.75 5.32616V7.44551L10.95 11.3449L10.875 11.383V18.0817C11.3837 18.3217 12.0275 18.4511 12.4375 18.4511H18.1743C18.855 18.4511 19.4506 17.9923 19.5906 17.3592C19.6624 17.0336 19.6206 16.7055 19.4774 16.4205C19.9393 16.188 20.2499 15.7123 20.2499 15.1699C20.2499 14.9486 20.1993 14.7367 20.1031 14.5449C20.5649 14.3124 20.8749 13.8367 20.8749 13.2949Z" fill="white"/>
</svg>
