<svg width="24" height="25" viewBox="0 0 24 25" fill="none" xmlns="http://www.w3.org/2000/svg">
<path d="M23.6351 22.3602L17.7187 16.4194C19.2399 14.6735 20.0734 12.4768 20.0734 10.19C20.0734 4.84701 15.5708 0.5 10.0367 0.5C4.50255 0.5 0 4.84701 0 10.19C0 15.533 4.50255 19.88 10.0367 19.88C12.1143 19.88 14.0941 19.275 15.7868 18.1265L21.7482 24.1124C21.9974 24.3622 22.3325 24.5 22.6916 24.5C23.0316 24.5 23.3541 24.3749 23.5989 24.1474C24.119 23.6641 24.1356 22.8628 23.6351 22.3602ZM10.0367 3.02782C14.1273 3.02782 17.4551 6.24069 17.4551 10.19C17.4551 14.1393 14.1273 17.3522 10.0367 17.3522C5.94608 17.3522 2.61827 14.1393 2.61827 10.19C2.61827 6.24069 5.94608 3.02782 10.0367 3.02782Z" fill="#666666"/>
</svg>
