<svg width="21" height="20" viewBox="0 0 21 20" fill="none" xmlns="http://www.w3.org/2000/svg">
<path d="M14.6437 0H7.26187C6.97282 0 6.68377 0.122222 6.48366 0.322222L1.26967 5.53333C1.06956 5.73333 0.947266 6.02222 0.947266 6.31111V13.6778C0.947266 13.9778 1.06956 14.2556 1.26967 14.4667L6.47254 19.6667C6.68377 19.8778 6.97282 20 7.26187 20H14.6326C14.9328 20 15.2107 19.8778 15.4219 19.6778L20.6248 14.4778C20.7283 14.3743 20.8102 14.2513 20.8655 14.1158C20.9209 13.9803 20.9487 13.8352 20.9472 13.6889V6.31111C20.9472 6.01111 20.8249 5.73333 20.6248 5.52222L15.4219 0.322222C15.2218 0.122222 14.9328 0 14.6437 0ZM10.9528 15.8889C10.1524 15.8889 9.50755 15.2444 9.50755 14.4444C9.50755 13.6444 10.1524 13 10.9528 13C11.7532 13 12.398 13.6444 12.398 14.4444C12.398 15.2444 11.7532 15.8889 10.9528 15.8889ZM10.9528 11.1111C10.3413 11.1111 9.84107 10.6111 9.84107 10V5.55556C9.84107 4.94444 10.3413 4.44444 10.9528 4.44444C11.5642 4.44444 12.0645 4.94444 12.0645 5.55556V10C12.0645 10.6111 11.5642 11.1111 10.9528 11.1111Z" fill="#474747"/>
</svg>
