<svg width="28" height="22" viewBox="0 0 28 22" fill="none" xmlns="http://www.w3.org/2000/svg">
<path d="M25.9167 12.391H2.08333C1.4875 12.391 1 11.8717 1 11.237C1 10.6023 1.4875 10.083 2.08333 10.083H25.9167C26.5125 10.083 27 10.6023 27 11.237C27 11.8717 26.5125 12.391 25.9167 12.391Z" fill="#4C5BD4" stroke="#4C5BD4"/>
<path d="M25.9167 3.54137H2.08333C1.4875 3.54137 1 3.02208 1 2.38738C1 1.75269 1.4875 1.2334 2.08333 1.2334H25.9167C26.5125 1.2334 27 1.75269 27 2.38738C27 3.02208 26.5125 3.54137 25.9167 3.54137Z" fill="#4C5BD4" stroke="#4C5BD4"/>
<path d="M25.9167 21.2338H2.08333C1.4875 21.2338 1 20.7145 1 20.0798C1 19.4451 1.4875 18.9258 2.08333 18.9258H25.9167C26.5125 18.9258 27 19.4451 27 20.0798C27 20.7145 26.5125 21.2338 25.9167 21.2338Z" fill="#4C5BD4" stroke="#4C5BD4"/>
</svg>
