<svg width="20" height="20" viewBox="0 0 20 20" fill="none" xmlns="http://www.w3.org/2000/svg">
<path d="M10 18.75C7.67936 18.75 5.45376 17.8281 3.81282 16.1872C2.17187 14.5462 1.25 12.3206 1.25 10C1.25 7.67936 2.17187 5.45376 3.81282 3.81282C5.45376 2.17187 7.67936 1.25 10 1.25C12.3206 1.25 14.5462 2.17187 16.1872 3.81282C17.8281 5.45376 18.75 7.67936 18.75 10C18.75 12.3206 17.8281 14.5462 16.1872 16.1872C14.5462 17.8281 12.3206 18.75 10 18.75ZM10 20C12.6522 20 15.1957 18.9464 17.0711 17.0711C18.9464 15.1957 20 12.6522 20 10C20 7.34784 18.9464 4.8043 17.0711 2.92893C15.1957 1.05357 12.6522 0 10 0C7.34784 0 4.8043 1.05357 2.92893 2.92893C1.05357 4.8043 0 7.34784 0 10C0 12.6522 1.05357 15.1957 2.92893 17.0711C4.8043 18.9464 7.34784 20 10 20Z" fill="#666666"/>
<path d="M5.80752 5.80764C5.86558 5.74944 5.93454 5.70326 6.01048 5.67175C6.08641 5.64024 6.16781 5.62402 6.25002 5.62402C6.33223 5.62402 6.41363 5.64024 6.48956 5.67175C6.56549 5.70326 6.63446 5.74944 6.69252 5.80764L10 9.11639L13.3075 5.80764C13.3656 5.74953 13.4346 5.70343 13.5105 5.67199C13.5865 5.64054 13.6678 5.62435 13.75 5.62435C13.8322 5.62435 13.9136 5.64054 13.9895 5.67199C14.0654 5.70343 14.1344 5.74953 14.1925 5.80764C14.2506 5.86575 14.2967 5.93474 14.3282 6.01066C14.3596 6.08659 14.3758 6.16796 14.3758 6.25014C14.3758 6.33232 14.3596 6.4137 14.3282 6.48962C14.2967 6.56554 14.2506 6.63453 14.1925 6.69264L10.8838 10.0001L14.1925 13.3076C14.2506 13.3658 14.2967 13.4347 14.3282 13.5107C14.3596 13.5866 14.3758 13.668 14.3758 13.7501C14.3758 13.8323 14.3596 13.9137 14.3282 13.9896C14.2967 14.0655 14.2506 14.1345 14.1925 14.1926C14.1344 14.2508 14.0654 14.2968 13.9895 14.3283C13.9136 14.3597 13.8322 14.3759 13.75 14.3759C13.6678 14.3759 13.5865 14.3597 13.5105 14.3283C13.4346 14.2968 13.3656 14.2508 13.3075 14.1926L10 10.8839L6.69252 14.1926C6.63441 14.2508 6.56542 14.2968 6.4895 14.3283C6.41357 14.3597 6.3322 14.3759 6.25002 14.3759C6.16784 14.3759 6.08646 14.3597 6.01054 14.3283C5.93461 14.2968 5.86563 14.2508 5.80752 14.1926C5.74941 14.1345 5.70331 14.0655 5.67186 13.9896C5.64042 13.9137 5.62423 13.8323 5.62423 13.7501C5.62423 13.668 5.64042 13.5866 5.67186 13.5107C5.70331 13.4347 5.74941 13.3658 5.80752 13.3076L9.11627 10.0001L5.80752 6.69264C5.74931 6.63458 5.70314 6.56561 5.67163 6.48968C5.64012 6.41375 5.6239 6.33235 5.6239 6.25014C5.6239 6.16793 5.64012 6.08653 5.67163 6.0106C5.70314 5.93467 5.74931 5.8657 5.80752 5.80764Z" fill="#666666"/>
</svg>
