<svg width="48" height="48" viewBox="0 0 48 48" fill="none" xmlns="http://www.w3.org/2000/svg">
<g filter="url(#filter0_d_91_29336)">
<rect x="4" y="2" width="40" height="40" rx="6" fill="white"/>
</g>
<path d="M12.3333 23.4583H21.0833C21.4701 23.4583 21.841 23.3047 22.1145 23.0312C22.388 22.7577 22.5417 22.3868 22.5417 22V10.3333C22.5417 9.94656 22.388 9.57563 22.1145 9.30214C21.841 9.02865 21.4701 8.875 21.0833 8.875H12.3333C11.9466 8.875 11.5756 9.02865 11.3021 9.30214C11.0286 9.57563 10.875 9.94656 10.875 10.3333V22C10.875 22.3868 11.0286 22.7577 11.3021 23.0312C11.5756 23.3047 11.9466 23.4583 12.3333 23.4583ZM10.875 33.6667C10.875 34.0534 11.0286 34.4244 11.3021 34.6979C11.5756 34.9714 11.9466 35.125 12.3333 35.125H21.0833C21.4701 35.125 21.841 34.9714 22.1145 34.6979C22.388 34.4244 22.5417 34.0534 22.5417 33.6667V27.8333C22.5417 27.4466 22.388 27.0756 22.1145 26.8021C21.841 26.5286 21.4701 26.375 21.0833 26.375H12.3333C11.9466 26.375 11.5756 26.5286 11.3021 26.8021C11.0286 27.0756 10.875 27.4466 10.875 27.8333V33.6667ZM25.4583 33.6667C25.4583 34.0534 25.612 34.4244 25.8855 34.6979C26.159 34.9714 26.5299 35.125 26.9167 35.125H35.6667C36.0534 35.125 36.4244 34.9714 36.6979 34.6979C36.9714 34.4244 37.125 34.0534 37.125 33.6667V23.4583C37.125 23.0716 36.9714 22.7006 36.6979 22.4271C36.4244 22.1536 36.0534 22 35.6667 22H26.9167C26.5299 22 26.159 22.1536 25.8855 22.4271C25.612 22.7006 25.4583 23.0716 25.4583 23.4583V33.6667ZM26.9167 19.0833H35.6667C36.0534 19.0833 36.4244 18.9297 36.6979 18.6562C36.9714 18.3827 37.125 18.0118 37.125 17.625V10.3333C37.125 9.94656 36.9714 9.57563 36.6979 9.30214C36.4244 9.02865 36.0534 8.875 35.6667 8.875H26.9167C26.5299 8.875 26.159 9.02865 25.8855 9.30214C25.612 9.57563 25.4583 9.94656 25.4583 10.3333V17.625C25.4583 18.0118 25.612 18.3827 25.8855 18.6562C26.159 18.9297 26.5299 19.0833 26.9167 19.0833Z" fill="#4C5BD4"/>
<rect x="7" y="5" width="34" height="34" rx="5.5" stroke="#4C5BD4"/>
<defs>
<filter id="filter0_d_91_29336" x="0" y="0" width="48" height="48" filterUnits="userSpaceOnUse" color-interpolation-filters="sRGB">
<feFlood flood-opacity="0" result="BackgroundImageFix"/>
<feColorMatrix in="SourceAlpha" type="matrix" values="0 0 0 0 0 0 0 0 0 0 0 0 0 0 0 0 0 0 127 0" result="hardAlpha"/>
<feOffset dy="2"/>
<feGaussianBlur stdDeviation="2"/>
<feComposite in2="hardAlpha" operator="out"/>
<feColorMatrix type="matrix" values="0 0 0 0 0 0 0 0 0 0 0 0 0 0 0 0 0 0 0.25 0"/>
<feBlend mode="normal" in2="BackgroundImageFix" result="effect1_dropShadow_91_29336"/>
<feBlend mode="normal" in="SourceGraphic" in2="effect1_dropShadow_91_29336" result="shape"/>
</filter>
</defs>
</svg>
