<svg width="24" height="25" viewBox="0 0 24 25" fill="none" xmlns="http://www.w3.org/2000/svg">
<g clip-path="url(#clip0_2_20772)">
<path d="M12.68 5.97613C13.38 5.73613 13.9 5.07613 13.98 4.33613C14.03 3.86613 13.93 3.42613 13.7 3.06613L12.42 0.846133C12.23 0.516133 11.75 0.516133 11.55 0.846133L10.27 3.06613C10.1 3.36613 10 3.71613 10 4.09613C10 5.41613 11.3 6.44613 12.68 5.97613ZM16.53 16.0161L15.53 15.0161L14.45 16.0861C13.15 17.3861 10.87 17.3961 9.56 16.0861L8.49 15.0161L7.4 16.0861C6.75 16.7361 5.88 17.0961 4.96 17.0961C4.23 17.0961 3.56 16.8661 3 16.4861V20.0961C3 21.1961 3.9 22.0961 5 22.0961H19C20.1 22.0961 21 21.1961 21 20.0961V16.4861C20.25 16.9961 19.29 17.2361 18.26 17.0061C17.6 16.8661 17.01 16.4961 16.53 16.0161ZM18 9.09613H13V8.09613C13 7.54613 12.55 7.09613 12 7.09613C11.45 7.09613 11 7.54613 11 8.09613V9.09613H6C4.34 9.09613 3 10.4361 3 12.0961V13.5561C3 14.4061 3.5 15.2261 4.31 15.4961C5.04 15.7361 5.83 15.5561 6.34 15.0361L8.48 12.9061L10.61 15.0361C11.37 15.7961 12.62 15.7961 13.38 15.0361L15.52 12.9061L17.65 15.0361C18.08 15.4661 18.68 15.6661 19.3 15.5861C20.29 15.4561 20.99 14.5261 20.99 13.5261V12.1061C21 10.4361 19.66 9.09613 18 9.09613Z" fill="#666666"/>
</g>
<defs>
<clipPath id="clip0_2_20772">
<rect width="24" height="24" fill="white" transform="translate(0 0.0957031)"/>
</clipPath>
</defs>
</svg>
