<svg width="24" height="25" viewBox="0 0 24 25" fill="none" xmlns="http://www.w3.org/2000/svg">
<path d="M9.72034 13.7697C11.0492 15.1177 12.6571 16.1585 14.4311 16.8189L16.831 14.9092C16.9021 14.8602 16.9865 14.8339 17.0729 14.8339C17.1593 14.8339 17.2436 14.8602 17.3148 14.9092L21.7709 17.7802C21.9401 17.8819 22.0833 18.0215 22.1892 18.1881C22.2951 18.3546 22.3609 18.5436 22.3812 18.7399C22.4016 18.9362 22.3761 19.1346 22.3066 19.3194C22.2371 19.5041 22.1256 19.6702 21.981 19.8045L19.893 21.867C19.5939 22.1625 19.2264 22.3793 18.8232 22.4982C18.42 22.617 17.9936 22.6342 17.5822 22.5482C13.4776 21.7005 9.69433 19.7151 6.66473 16.8189C3.70238 13.894 1.65244 10.1722 0.763594 6.1052C0.675788 5.7001 0.694114 5.27919 0.816797 4.88326C0.939481 4.48732 1.16236 4.1298 1.46384 3.84532L3.62823 1.75732C3.76216 1.61969 3.9255 1.51413 4.10601 1.44857C4.28652 1.383 4.47953 1.35912 4.67058 1.37871C4.86162 1.39831 5.04576 1.46087 5.20921 1.56171C5.37265 1.66256 5.51116 1.79907 5.61437 1.96103L8.58085 6.35983C8.63202 6.4289 8.65964 6.51259 8.65964 6.59855C8.65964 6.68451 8.63202 6.7682 8.58085 6.83727L6.62654 9.18627C7.30487 10.9247 8.3617 12.4904 9.72034 13.7697Z" fill="#666666"/>
</svg>
