<svg width="19" height="19" viewBox="0 0 19 19" fill="none" xmlns="http://www.w3.org/2000/svg">
<path d="M7.49955 9.54102C7.49955 10.0632 7.70697 10.5639 8.07619 10.9331C8.4454 11.3023 8.94616 11.5098 9.4683 11.5098C9.99045 11.5098 10.4912 11.3023 10.8604 10.9331C11.2296 10.5639 11.4371 10.0632 11.4371 9.54102C11.4371 9.01887 11.2296 8.51811 10.8604 8.1489C10.4912 7.77969 9.99045 7.57227 9.4683 7.57227C8.94616 7.57227 8.4454 7.77969 8.07619 8.1489C7.70697 8.51811 7.49955 9.01887 7.49955 9.54102ZM17.1007 9.0875C15.4343 5.57715 12.9154 3.81055 9.53861 3.81055C6.1601 3.81055 3.64291 5.57715 1.97651 9.08926C1.90967 9.23079 1.875 9.38537 1.875 9.54189C1.875 9.69842 1.90967 9.853 1.97651 9.99453C3.64291 13.5049 6.16186 15.2715 9.53861 15.2715C12.9171 15.2715 15.4343 13.5049 17.1007 9.99277C17.2361 9.70801 17.2361 9.37754 17.1007 9.0875ZM9.4683 12.6348C7.75971 12.6348 6.37455 11.2496 6.37455 9.54102C6.37455 7.83242 7.75971 6.44727 9.4683 6.44727C11.1769 6.44727 12.5621 7.83242 12.5621 9.54102C12.5621 11.2496 11.1769 12.6348 9.4683 12.6348Z" fill="white"/>
</svg>
