<svg width="24" height="25" viewBox="0 0 24 25" fill="none" xmlns="http://www.w3.org/2000/svg">
<path d="M12.2614 4.84328C12.1916 4.77652 12.0988 4.73926 12.0022 4.73926C11.9056 4.73926 11.8128 4.77652 11.743 4.84328L3.11328 13.0872C3.07663 13.1222 3.04748 13.1644 3.02757 13.211C3.00767 13.2577 2.99744 13.3079 2.9975 13.3586L2.99609 21.0958C2.99609 21.4936 3.15413 21.8751 3.43543 22.1564C3.71674 22.4377 4.09827 22.5958 4.49609 22.5958H9.00078C9.19969 22.5958 9.39046 22.5168 9.53111 22.3761C9.67176 22.2355 9.75078 22.0447 9.75078 21.8458V15.4708C9.75078 15.3713 9.79029 15.2759 9.86062 15.2056C9.93094 15.1353 10.0263 15.0958 10.1258 15.0958H13.8758C13.9752 15.0958 14.0706 15.1353 14.1409 15.2056C14.2113 15.2759 14.2508 15.3713 14.2508 15.4708V21.8458C14.2508 22.0447 14.3298 22.2355 14.4705 22.3761C14.6111 22.5168 14.8019 22.5958 15.0008 22.5958H19.5036C19.9014 22.5958 20.2829 22.4377 20.5643 22.1564C20.8456 21.8751 21.0036 21.4936 21.0036 21.0958V13.3586C21.0037 13.3079 20.9934 13.2577 20.9735 13.211C20.9536 13.1644 20.9245 13.1222 20.8878 13.0872L12.2614 4.84328Z" fill="#666666"/>
<path d="M23.0114 11.5402L19.5052 8.18587V3.09571C19.5052 2.89679 19.4262 2.70603 19.2855 2.56537C19.1449 2.42472 18.9541 2.3457 18.7552 2.3457H16.5052C16.3063 2.3457 16.1155 2.42472 15.9748 2.56537C15.8342 2.70603 15.7552 2.89679 15.7552 3.09571V4.59571L13.0402 1.99977C12.7861 1.74289 12.4083 1.5957 12 1.5957C11.5931 1.5957 11.2163 1.74289 10.9622 2.00023L0.991893 11.5393C0.70033 11.8206 0.663768 12.2832 0.92908 12.5879C0.995704 12.6648 1.07728 12.7274 1.16885 12.7717C1.26041 12.8161 1.36005 12.8414 1.46169 12.846C1.56334 12.8507 1.66487 12.8346 1.7601 12.7988C1.85533 12.7629 1.94228 12.7081 2.01564 12.6376L11.7422 3.34321C11.812 3.27645 11.9048 3.23919 12.0014 3.23919C12.098 3.23919 12.1909 3.27645 12.2606 3.34321L21.9881 12.6376C22.1314 12.775 22.3234 12.85 22.5219 12.8461C22.7204 12.8423 22.9092 12.7599 23.0471 12.617C23.3349 12.3188 23.311 11.8267 23.0114 11.5402Z" fill="#666666"/>
</svg>
