<svg width="23" height="23" viewBox="0 0 23 23" fill="none" xmlns="http://www.w3.org/2000/svg">
<path d="M21.7433 20.3002L16.5072 14.8545C17.8535 13.2541 18.5912 11.2405 18.5912 9.14421C18.5912 4.24648 14.6064 0.261719 9.70866 0.261719C4.81094 0.261719 0.826172 4.24648 0.826172 9.14421C0.826172 14.0419 4.81094 18.0267 9.70866 18.0267C11.5473 18.0267 13.2995 17.4721 14.7976 16.4194L20.0734 21.9064C20.2939 22.1354 20.5905 22.2617 20.9083 22.2617C21.2092 22.2617 21.4946 22.147 21.7112 21.9385C22.1716 21.4955 22.1862 20.761 21.7433 20.3002ZM9.70866 2.57889C13.3289 2.57889 16.274 5.52402 16.274 9.14421C16.274 12.7644 13.3289 15.7095 9.70866 15.7095C6.08847 15.7095 3.14334 12.7644 3.14334 9.14421C3.14334 5.52402 6.08847 2.57889 9.70866 2.57889Z" fill="#666666"/>
</svg>
