<svg width="24" height="25" viewBox="0 0 24 25" fill="none" xmlns="http://www.w3.org/2000/svg">
<path d="M7.70482 4.17139H1.56494C1.46549 4.17139 1.3701 4.2109 1.29978 4.28122C1.22945 4.35155 1.18994 4.44693 1.18994 4.54639V9.17126C1.18994 9.27072 1.22945 9.3661 1.29978 9.43643C1.3701 9.50675 1.46549 9.54626 1.56494 9.54626H7.70482C7.80427 9.54626 7.89966 9.50675 7.96998 9.43643C8.04031 9.3661 8.07982 9.27072 8.07982 9.17126V4.54639C8.07982 4.44693 8.04031 4.35155 7.96998 4.28122C7.89966 4.2109 7.80427 4.17139 7.70482 4.17139ZM1.56494 10.7099H7.58932C7.68877 10.7099 7.78416 10.6704 7.85448 10.6001C7.92481 10.5297 7.96432 10.4343 7.96432 10.3349C7.96432 10.2354 7.92481 10.14 7.85448 10.0697C7.78416 9.9994 7.68877 9.95989 7.58932 9.95989H1.56494C1.46549 9.95989 1.3701 9.9994 1.29978 10.0697C1.22945 10.14 1.18994 10.2354 1.18994 10.3349C1.18994 10.4343 1.22945 10.5297 1.29978 10.6001C1.3701 10.6704 1.46549 10.7099 1.56494 10.7099ZM1.56494 12.0494H7.58932C7.68877 12.0494 7.78416 12.0099 7.85448 11.9396C7.92481 11.8692 7.96432 11.7738 7.96432 11.6744C7.96432 11.5749 7.92481 11.4795 7.85448 11.4092C7.78416 11.3389 7.68877 11.2994 7.58932 11.2994H1.56494C1.46549 11.2994 1.3701 11.3389 1.29978 11.4092C1.22945 11.4795 1.18994 11.5749 1.18994 11.6744C1.18994 11.7738 1.22945 11.8692 1.29978 11.9396C1.3701 12.0099 1.46549 12.0494 1.56494 12.0494ZM15.0702 4.17139H8.92994C8.83049 4.17139 8.7351 4.2109 8.66478 4.28122C8.59445 4.35155 8.55494 4.44693 8.55494 4.54639V9.17126C8.55494 9.27072 8.59445 9.3661 8.66478 9.43643C8.7351 9.50675 8.83049 9.54626 8.92994 9.54626H15.0702C15.1696 9.54626 15.265 9.50675 15.3354 9.43643C15.4057 9.3661 15.4452 9.27072 15.4452 9.17126V4.54639C15.4452 4.44693 15.4057 4.35155 15.3354 4.28122C15.265 4.2109 15.1696 4.17139 15.0702 4.17139ZM8.92994 10.7099H14.9547C15.0541 10.7099 15.1495 10.6704 15.2199 10.6001C15.2902 10.5297 15.3297 10.4343 15.3297 10.3349C15.3297 10.2354 15.2902 10.14 15.2199 10.0697C15.1495 9.9994 15.0541 9.95989 14.9547 9.95989H8.92994C8.83049 9.95989 8.7351 9.9994 8.66478 10.0697C8.59445 10.14 8.55494 10.2354 8.55494 10.3349C8.55494 10.4343 8.59445 10.5297 8.66478 10.6001C8.7351 10.6704 8.83049 10.7099 8.92994 10.7099ZM8.92994 12.0494H14.9547C15.0541 12.0494 15.1495 12.0099 15.2199 11.9396C15.2902 11.8692 15.3297 11.7738 15.3297 11.6744C15.3297 11.5749 15.2902 11.4795 15.2199 11.4092C15.1495 11.3389 15.0541 11.2994 14.9547 11.2994H8.92994C8.83049 11.2994 8.7351 11.3389 8.66478 11.4092C8.59445 11.4795 8.55494 11.5749 8.55494 11.6744C8.55494 11.7738 8.59445 11.8692 8.66478 11.9396C8.7351 12.0099 8.83049 12.0494 8.92994 12.0494ZM22.4352 4.17139H16.2953C16.1959 4.17139 16.1005 4.2109 16.0302 4.28122C15.9598 4.35155 15.9203 4.44693 15.9203 4.54639V9.17126C15.9203 9.27072 15.9598 9.3661 16.0302 9.43643C16.1005 9.50675 16.1959 9.54626 16.2953 9.54626H22.4352C22.5346 9.54626 22.63 9.50675 22.7004 9.43643C22.7707 9.3661 22.8102 9.27072 22.8102 9.17126V4.54639C22.8102 4.44693 22.7707 4.35155 22.7004 4.28122C22.63 4.2109 22.5346 4.17139 22.4352 4.17139ZM16.2953 10.7099H22.3197C22.4191 10.7099 22.5145 10.6704 22.5849 10.6001C22.6552 10.5297 22.6947 10.4343 22.6947 10.3349C22.6947 10.2354 22.6552 10.14 22.5849 10.0697C22.5145 9.9994 22.4191 9.95989 22.3197 9.95989H16.2953C16.1959 9.95989 16.1005 9.9994 16.0302 10.0697C15.9598 10.14 15.9203 10.2354 15.9203 10.3349C15.9203 10.4343 15.9598 10.5297 16.0302 10.6001C16.1005 10.6704 16.1959 10.7099 16.2953 10.7099ZM16.2953 12.0494H22.3197C22.4191 12.0494 22.5145 12.0099 22.5849 11.9396C22.6552 11.8692 22.6947 11.7738 22.6947 11.6744C22.6947 11.5749 22.6552 11.4795 22.5849 11.4092C22.5145 11.3389 22.4191 11.2994 22.3197 11.2994H16.2953C16.1959 11.2994 16.1005 11.3389 16.0302 11.4092C15.9598 11.4795 15.9203 11.5749 15.9203 11.6744C15.9203 11.7738 15.9598 11.8692 16.0302 11.9396C16.1005 12.0099 16.1959 12.0494 16.2953 12.0494ZM7.70482 13.9739H1.56494C1.46549 13.9739 1.3701 14.0134 1.29978 14.0837C1.22945 14.154 1.18994 14.2494 1.18994 14.3489V18.9738C1.18994 19.0732 1.22945 19.1686 1.29978 19.2389C1.3701 19.3093 1.46549 19.3488 1.56494 19.3488H7.70482C7.80427 19.3488 7.89966 19.3093 7.96998 19.2389C8.04031 19.1686 8.07982 19.0732 8.07982 18.9738V14.3489C8.07982 14.2494 8.04031 14.154 7.96998 14.0837C7.89966 14.0134 7.80427 13.9739 7.70482 13.9739ZM7.58932 19.7624H1.56494C1.46549 19.7624 1.3701 19.8019 1.29978 19.8722C1.22945 19.9425 1.18994 20.0379 1.18994 20.1374C1.18994 20.2368 1.22945 20.3322 1.29978 20.4026C1.3701 20.4729 1.46549 20.5124 1.56494 20.5124H7.58932C7.68877 20.5124 7.78416 20.4729 7.85448 20.4026C7.92481 20.3322 7.96432 20.2368 7.96432 20.1374C7.96432 20.0379 7.92481 19.9425 7.85448 19.8722C7.78416 19.8019 7.68877 19.7624 7.58932 19.7624ZM7.58932 21.103H1.56494C1.46549 21.103 1.3701 21.1425 1.29978 21.2128C1.22945 21.2832 1.18994 21.3786 1.18994 21.478C1.18994 21.5775 1.22945 21.6729 1.29978 21.7432C1.3701 21.8135 1.46549 21.853 1.56494 21.853H7.58932C7.68877 21.853 7.78416 21.8135 7.85448 21.7432C7.92481 21.6729 7.96432 21.5775 7.96432 21.478C7.96432 21.3786 7.92481 21.2832 7.85448 21.2128C7.78416 21.1425 7.68877 21.103 7.58932 21.103ZM15.0702 13.9739H8.92994C8.83049 13.9739 8.7351 14.0134 8.66478 14.0837C8.59445 14.154 8.55494 14.2494 8.55494 14.3489V18.9738C8.55494 19.0732 8.59445 19.1686 8.66478 19.2389C8.7351 19.3093 8.83049 19.3488 8.92994 19.3488H15.0702C15.1696 19.3488 15.265 19.3093 15.3354 19.2389C15.4057 19.1686 15.4452 19.0732 15.4452 18.9738V14.3489C15.4452 14.2494 15.4057 14.154 15.3354 14.0837C15.265 14.0134 15.1696 13.9739 15.0702 13.9739ZM14.9547 19.7624H8.92994C8.83049 19.7624 8.7351 19.8019 8.66478 19.8722C8.59445 19.9425 8.55494 20.0379 8.55494 20.1374C8.55494 20.2368 8.59445 20.3322 8.66478 20.4026C8.7351 20.4729 8.83049 20.5124 8.92994 20.5124H14.9547C15.0541 20.5124 15.1495 20.4729 15.2199 20.4026C15.2902 20.3322 15.3297 20.2368 15.3297 20.1374C15.3297 20.0379 15.2902 19.9425 15.2199 19.8722C15.1495 19.8019 15.0541 19.7624 14.9547 19.7624ZM14.9547 21.103H8.92994C8.83049 21.103 8.7351 21.1425 8.66478 21.2128C8.59445 21.2832 8.55494 21.3786 8.55494 21.478C8.55494 21.5775 8.59445 21.6729 8.66478 21.7432C8.7351 21.8135 8.83049 21.853 8.92994 21.853H14.9547C15.0541 21.853 15.1495 21.8135 15.2199 21.7432C15.2902 21.6729 15.3297 21.5775 15.3297 21.478C15.3297 21.3786 15.2902 21.2832 15.2199 21.2128C15.1495 21.1425 15.0541 21.103 14.9547 21.103ZM22.4352 13.9739H16.2953C16.1959 13.9739 16.1005 14.0134 16.0302 14.0837C15.9598 14.154 15.9203 14.2494 15.9203 14.3489V18.9738C15.9203 19.0732 15.9598 19.1686 16.0302 19.2389C16.1005 19.3093 16.1959 19.3488 16.2953 19.3488H22.4352C22.5346 19.3488 22.63 19.3093 22.7004 19.2389C22.7707 19.1686 22.8102 19.0732 22.8102 18.9738V14.3489C22.8102 14.2494 22.7707 14.154 22.7004 14.0837C22.63 14.0134 22.5346 13.9739 22.4352 13.9739ZM22.3197 19.7624H16.2953C16.1959 19.7624 16.1005 19.8019 16.0302 19.8722C15.9598 19.9425 15.9203 20.0379 15.9203 20.1374C15.9203 20.2368 15.9598 20.3322 16.0302 20.4026C16.1005 20.4729 16.1959 20.5124 16.2953 20.5124H22.3197C22.4191 20.5124 22.5145 20.4729 22.5849 20.4026C22.6552 20.3322 22.6947 20.2368 22.6947 20.1374C22.6947 20.0379 22.6552 19.9425 22.5849 19.8722C22.5145 19.8019 22.4191 19.7624 22.3197 19.7624ZM22.3197 21.103H16.2953C16.1959 21.103 16.1005 21.1425 16.0302 21.2128C15.9598 21.2832 15.9203 21.3786 15.9203 21.478C15.9203 21.5775 15.9598 21.6729 16.0302 21.7432C16.1005 21.8135 16.1959 21.853 16.2953 21.853H22.3197C22.4191 21.853 22.5145 21.8135 22.5849 21.7432C22.6552 21.6729 22.6947 21.5775 22.6947 21.478C22.6947 21.3786 22.6552 21.2832 22.5849 21.2128C22.5145 21.1425 22.4191 21.103 22.3197 21.103Z" fill="#474747"/>
</svg>
