<svg width="98" height="99" viewBox="0 0 98 99" fill="none" xmlns="http://www.w3.org/2000/svg">
<path d="M48.9997 0.617676C21.9814 0.617676 0 22.5986 0 49.6174C0 76.6362 21.9814 98.6177 48.9997 98.6177C76.018 98.6177 97.9995 76.6362 97.9995 49.6174C97.9995 22.5986 76.0186 0.617676 48.9997 0.617676ZM77.1363 41.341L46.3522 72.125C45.0433 73.4339 43.3033 74.1544 41.4524 74.1544C39.6015 74.1544 37.8615 73.4339 36.5526 72.125L20.8632 56.4356C19.5543 55.1267 18.8334 53.3867 18.8334 51.5358C18.8334 49.6844 19.5543 47.9444 20.8632 46.6355C22.1717 45.3266 23.9116 44.6056 25.7631 44.6056C27.614 44.6056 29.3544 45.3266 30.6629 46.636L41.4519 57.4245L67.3356 31.5408C68.6445 30.2319 70.3845 29.5114 72.2354 29.5114C74.0863 29.5114 75.8263 30.2319 77.1352 31.5408C79.838 34.2435 79.838 38.6392 77.1363 41.341Z" fill="#34B632"/>
</svg>
