<svg width="40" height="40" viewBox="0 0 40 40" fill="none" xmlns="http://www.w3.org/2000/svg">
<path d="M20.0002 1.81836C30.0417 1.81836 38.182 9.95864 38.182 20.0002C38.182 30.0417 30.0417 38.182 20.0002 38.182C9.95864 38.182 1.81836 30.0417 1.81836 20.0002C1.81836 9.95864 9.95864 1.81836 20.0002 1.81836ZM18.4897 10.9093C17.6529 10.9093 16.9745 11.5876 16.9745 12.4244V21.5153C16.9745 22.3521 17.6529 23.0305 18.4897 23.0305H24.5456C25.3824 23.0305 26.0608 22.3521 26.0608 21.5153C26.0608 20.6785 25.3824 20.0002 24.5456 20.0002H20.0048V12.4244C20.0048 11.5876 19.3264 10.9093 18.4897 10.9093Z" fill="#474747"/>
</svg>
