<svg width="21" height="20" viewBox="0 0 21 20" fill="none" xmlns="http://www.w3.org/2000/svg">
<path d="M10.9473 0C16.4701 0 20.9473 4.47715 20.9473 10C20.9473 15.5228 16.4701 20 10.9473 20C5.42442 20 0.947266 15.5228 0.947266 10C0.947266 4.47715 5.42442 0 10.9473 0ZM10.1165 5C9.65624 5 9.28314 5.3731 9.28314 5.83333V10.8333C9.28314 11.2936 9.65624 11.6667 10.1165 11.6667H13.4473C13.9075 11.6667 14.2806 11.2936 14.2806 10.8333C14.2806 10.3731 13.9075 10 13.4473 10H10.9498V5.83333C10.9498 5.3731 10.5767 5 10.1165 5Z" fill="#474747"/>
</svg>
