<svg width="77" height="77" viewBox="0 0 77 77" fill="none" xmlns="http://www.w3.org/2000/svg">
<g filter="url(#filter0_d_2_22731)">
<circle cx="38.5" cy="36.0957" r="30" fill="white"/>
</g>
<path d="M41.5003 28.1012C42.0529 28.1012 42.5546 28.4042 42.8152 28.8793L42.9012 29.0653L47.4424 40.9369L47.4949 41.0575L47.5366 41.1835L49.0326 45.0943C49.8452 45.1105 50.5 45.7731 50.5021 46.5901C50.5041 47.3494 49.9412 47.9784 49.2093 48.0796L49.0058 48.0939L46.004 48.1015C45.1756 48.1037 44.5024 47.4337 44.5002 46.6053C44.4984 45.9042 44.9779 45.3142 45.6276 45.1481L45.8272 45.1113L45.0554 43.0939H37.9451L37.179 45.0967C37.9224 45.1841 38.5001 45.8153 38.5021 46.5825C38.504 47.3418 37.9413 47.971 37.2094 48.0721L37.0059 48.0863L35.0965 48.0911L35.0041 48.0942L34.911 48.0917L34.004 48.0939C33.1756 48.0961 32.5023 47.4261 32.5002 46.5977C32.4983 45.8471 33.0482 45.2238 33.7677 45.1118L33.9679 45.0943L40.0993 29.0653C40.3214 28.4847 40.8787 28.1012 41.5003 28.1012ZM41.5003 33.7997L39.0927 40.0939H43.908L41.5003 33.7997ZM32.2558 24.127C32.8759 24.127 33.432 24.5086 33.6552 25.0871L36.7783 33.1828L35.1697 37.3226L35.1008 37.1696L34.493 35.594H30.0176L29.4096 37.1698C29.1114 37.9426 28.2431 38.3274 27.4702 38.0292C26.6973 37.731 26.3125 36.8627 26.6107 36.0898L30.8563 25.087C31.0795 24.5085 31.6357 24.127 32.2558 24.127ZM32.2556 29.7942L31.1752 32.594H33.3357L32.2556 29.7942Z" fill="#474747"/>
<defs>
<filter id="filter0_d_2_22731" x="0.5" y="0.0957031" width="76" height="76" filterUnits="userSpaceOnUse" color-interpolation-filters="sRGB">
<feFlood flood-opacity="0" result="BackgroundImageFix"/>
<feColorMatrix in="SourceAlpha" type="matrix" values="0 0 0 0 0 0 0 0 0 0 0 0 0 0 0 0 0 0 127 0" result="hardAlpha"/>
<feOffset dy="2"/>
<feGaussianBlur stdDeviation="4"/>
<feColorMatrix type="matrix" values="0 0 0 0 0 0 0 0 0 0 0 0 0 0 0 0 0 0 0.15 0"/>
<feBlend mode="normal" in2="BackgroundImageFix" result="effect1_dropShadow_2_22731"/>
<feBlend mode="normal" in="SourceGraphic" in2="effect1_dropShadow_2_22731" result="shape"/>
</filter>
</defs>
</svg>
