<svg width="77" height="77" viewBox="0 0 77 77" fill="none" xmlns="http://www.w3.org/2000/svg">
<g filter="url(#filter0_d_2_22723)">
<circle cx="38.5" cy="36.0957" r="30" fill="white"/>
</g>
<g clip-path="url(#clip0_2_22723)">
<path d="M52.5 26.0957H50.5V22.0957C50.5 21.5653 50.2893 21.0566 49.9142 20.6815C49.5391 20.3064 49.0304 20.0957 48.5 20.0957H24.5C23.9696 20.0957 23.4609 20.3064 23.0858 20.6815C22.7107 21.0566 22.5 21.5653 22.5 22.0957V44.0957C22.5 44.6261 22.7107 45.1348 23.0858 45.5099C23.4609 45.885 23.9696 46.0957 24.5 46.0957H26.5V50.0957C26.5 50.6261 26.7107 51.1348 27.0858 51.5099C27.4609 51.885 27.9696 52.0957 28.5 52.0957H52.5C53.0304 52.0957 53.5391 51.885 53.9142 51.5099C54.2893 51.1348 54.5 50.6261 54.5 50.0957V28.0957C54.5 27.5653 54.2893 27.0566 53.9142 26.6815C53.5391 26.3064 53.0304 26.0957 52.5 26.0957ZM24.5 44.0957V22.0957H48.5V44.0957H24.5ZM52.5 50.0957H28.5V46.0957H30.5V48.0957H50.5V28.0957H52.5V50.0957ZM37.29 28.2837C37.29 28.649 37.362 29.0108 37.5018 29.3483C37.6416 29.6859 37.8465 29.9925 38.1048 30.2509C38.3632 30.5092 38.6698 30.7141 39.0074 30.8539C39.3449 30.9937 39.7067 31.0657 40.072 31.0657C40.8098 31.0657 41.5174 30.7726 42.0392 30.2509C42.5609 29.7291 42.854 29.0215 42.854 28.2837C42.854 27.5459 42.5609 26.8383 42.0392 26.3165C41.5174 25.7948 40.8098 25.5017 40.072 25.5017C39.3342 25.5017 38.6266 25.7948 38.1048 26.3165C37.5831 26.8383 37.29 27.5459 37.29 28.2837ZM32.5 30.0957L26.5 34.0957V42.0957H46.5V32.0957L38.5 36.0957L32.5 30.0957Z" fill="#474747"/>
</g>
<defs>
<filter id="filter0_d_2_22723" x="0.5" y="0.0957031" width="76" height="76" filterUnits="userSpaceOnUse" color-interpolation-filters="sRGB">
<feFlood flood-opacity="0" result="BackgroundImageFix"/>
<feColorMatrix in="SourceAlpha" type="matrix" values="0 0 0 0 0 0 0 0 0 0 0 0 0 0 0 0 0 0 127 0" result="hardAlpha"/>
<feOffset dy="2"/>
<feGaussianBlur stdDeviation="4"/>
<feColorMatrix type="matrix" values="0 0 0 0 0 0 0 0 0 0 0 0 0 0 0 0 0 0 0.15 0"/>
<feBlend mode="normal" in2="BackgroundImageFix" result="effect1_dropShadow_2_22723"/>
<feBlend mode="normal" in="SourceGraphic" in2="effect1_dropShadow_2_22723" result="shape"/>
</filter>
<clipPath id="clip0_2_22723">
<rect width="32" height="32" fill="white" transform="translate(22.5 20.0957)"/>
</clipPath>
</defs>
</svg>
