<svg width="20" height="21" viewBox="0 0 20 21" fill="none" xmlns="http://www.w3.org/2000/svg">
<g clip-path="url(#clip0_62_14025)">
<path d="M5.875 19.9588C5.69977 19.9588 5.53171 19.8892 5.4078 19.7653C5.2839 19.6414 5.21429 19.4734 5.21429 19.2981V16.6553H4.22321C3.43494 16.6544 2.6792 16.3409 2.1218 15.7835C1.5644 15.2261 1.25087 14.4703 1.25 13.6821V5.75349C1.25087 4.96521 1.5644 4.20947 2.1218 3.65207C2.6792 3.09468 3.43494 2.78115 4.22321 2.78027H16.7768C17.5651 2.78115 18.3208 3.09468 18.8782 3.65207C19.4356 4.20947 19.7491 4.96521 19.75 5.75349V13.6821C19.7491 14.4703 19.4356 15.2261 18.8782 15.7835C18.3208 16.3409 17.5651 16.6544 16.7768 16.6553H10.0763L6.29827 19.8056C6.17937 19.9045 6.02964 19.9587 5.875 19.9588Z" fill="#474747"/>
<line y1="-0.5" x2="27.4874" y2="-0.5" transform="matrix(0.707287 0.706926 -0.707287 0.706926 0 1.56885)" stroke="#474747"/>
<line y1="-0.5" x2="27.4561" y2="-0.5" transform="matrix(0.707287 0.706926 -0.707287 0.706926 0.708008 0.905273)" stroke="white"/>
</g>
<defs>
<clipPath id="clip0_62_14025">
<rect width="20" height="20" fill="white" transform="translate(0 0.905273)"/>
</clipPath>
</defs>
</svg>
