<svg width="20" height="21" viewBox="0 0 20 21" fill="none" xmlns="http://www.w3.org/2000/svg">
<g clip-path="url(#clip0_75_11588)">
<path d="M5.875 19.9906C5.69977 19.9906 5.53171 19.921 5.4078 19.7971C5.2839 19.6732 5.21429 19.5051 5.21429 19.3299V16.687H4.22321C3.43494 16.6861 2.6792 16.3726 2.1218 15.8152C1.5644 15.2578 1.25087 14.5021 1.25 13.7138V5.78523C1.25087 4.99695 1.5644 4.24121 2.1218 3.68381C2.6792 3.12642 3.43494 2.81289 4.22321 2.81201H16.7768C17.5651 2.81289 18.3208 3.12642 18.8782 3.68381C19.4356 4.24121 19.7491 4.99695 19.75 5.78523V13.7138C19.7491 14.5021 19.4356 15.2578 18.8782 15.8152C18.3208 16.3726 17.5651 16.6861 16.7768 16.687H10.0763L6.29827 19.8374C6.17937 19.9363 6.02964 19.9905 5.875 19.9906Z" fill="#474747"/>
<line y1="-0.5" x2="27.4874" y2="-0.5" transform="matrix(0.707287 0.706926 -0.707287 0.706926 0 1.60059)" stroke="#474747"/>
<line y1="-0.5" x2="27.4561" y2="-0.5" transform="matrix(0.707287 0.706926 -0.707287 0.706926 0.708984 0.937012)" stroke="white"/>
</g>
<defs>
<clipPath id="clip0_75_11588">
<rect width="20" height="20" fill="white" transform="translate(0 0.937012)"/>
</clipPath>
</defs>
</svg>
