<svg width="40" height="41" viewBox="0 0 40 41" fill="none" xmlns="http://www.w3.org/2000/svg">
<ellipse cx="20" cy="20.0957" rx="20" ry="20" fill="#CCCCCC"/>
<path d="M22.4007 13.7009C22.8427 13.7009 23.2441 13.9433 23.4525 14.3234L23.5214 14.4722L27.1543 23.9694L27.1963 24.066L27.2297 24.1667L28.4265 27.2953C29.0766 27.3083 29.6004 27.8384 29.602 28.492C29.6036 29.0995 29.1534 29.6026 28.5679 29.6836L28.4051 29.695L26.0036 29.7011C25.3409 29.7029 24.8023 29.1669 24.8006 28.5041C24.7991 27.9433 25.1827 27.4713 25.7024 27.3384L25.8622 27.3089L25.2447 25.695H19.5565L18.9436 27.2973C19.5383 27.3672 20.0005 27.8721 20.002 28.4859C20.0036 29.0934 19.5534 29.5967 18.9679 29.6776L18.8051 29.6889L17.2776 29.6928L17.2036 29.6953L17.1292 29.6933L16.4036 29.695C15.7409 29.6968 15.2023 29.1608 15.2006 28.4981C15.1991 27.8976 15.6389 27.3989 16.2146 27.3094L16.3747 27.2953L21.2798 14.4722C21.4575 14.0076 21.9033 13.7009 22.4007 13.7009ZM22.4006 18.2597L20.4745 23.295H24.3268L22.4006 18.2597ZM15.005 10.5215C15.5011 10.5215 15.946 10.8268 16.1246 11.2896L18.623 17.7661L17.3362 21.078L17.281 20.9556L16.7948 19.6951H13.2145L12.7281 20.9557C12.4895 21.574 11.7948 21.8819 11.1765 21.6433C10.5582 21.4047 10.2504 20.71 10.489 20.0917L13.8854 11.2895C14.064 10.8267 14.509 10.5215 15.005 10.5215ZM15.0049 15.0552L14.1406 17.2951H15.8689L15.0049 15.0552Z" fill="#474747"/>
</svg>
