<svg width="20" height="21" viewBox="0 0 20 21" fill="none" xmlns="http://www.w3.org/2000/svg">
<path d="M10 18.8457C14.8325 18.8457 18.75 14.9282 18.75 10.0957C18.75 5.2632 14.8325 1.3457 10 1.3457C5.1675 1.3457 1.25 5.2632 1.25 10.0957C1.25 14.9282 5.1675 18.8457 10 18.8457ZM9.375 6.9707C9.375 6.80494 9.44085 6.64597 9.55806 6.52876C9.67527 6.41155 9.83424 6.3457 10 6.3457C10.1658 6.3457 10.3247 6.41155 10.4419 6.52876C10.5592 6.64597 10.625 6.80494 10.625 6.9707V9.4707H13.125C13.2908 9.4707 13.4497 9.53655 13.5669 9.65376C13.6842 9.77097 13.75 9.92994 13.75 10.0957C13.75 10.2615 13.6842 10.4204 13.5669 10.5376C13.4497 10.6549 13.2908 10.7207 13.125 10.7207H10.625V13.2207C10.625 13.3865 10.5592 13.5454 10.4419 13.6626C10.3247 13.7799 10.1658 13.8457 10 13.8457C9.83424 13.8457 9.67527 13.7799 9.55806 13.6626C9.44085 13.5454 9.375 13.3865 9.375 13.2207V10.7207H6.875C6.70924 10.7207 6.55027 10.6549 6.43306 10.5376C6.31585 10.4204 6.25 10.2615 6.25 10.0957C6.25 9.92994 6.31585 9.77097 6.43306 9.65376C6.55027 9.53655 6.70924 9.4707 6.875 9.4707H9.375V6.9707Z" fill="#474747"/>
</svg>
