<svg width="40" height="41" viewBox="0 0 40 41" fill="none" xmlns="http://www.w3.org/2000/svg">
<path d="M26.721 2.31836H13.2995C12.7739 2.31836 12.2484 2.54058 11.8845 2.90422L2.40454 12.379C2.0407 12.7426 1.81836 13.2679 1.81836 13.7931V27.187C1.81836 27.7325 2.0407 28.2376 2.40454 28.6214L11.8643 38.0759C12.2484 38.4598 12.7739 38.682 13.2995 38.682H26.7008C27.2466 38.682 27.7519 38.4598 28.1359 38.0961L37.5957 28.6416C37.784 28.4535 37.9328 28.2297 38.0334 27.9835C38.1341 27.7372 38.1846 27.4733 38.1819 27.2072V13.7931C38.1819 13.2477 37.9596 12.7426 37.5957 12.3588L28.1359 2.90422C27.7721 2.54058 27.2466 2.31836 26.721 2.31836ZM20.0102 31.2072C18.5549 31.2072 17.3825 30.0355 17.3825 28.581C17.3825 27.1264 18.5549 25.9547 20.0102 25.9547C21.4656 25.9547 22.6379 27.1264 22.6379 28.581C22.6379 30.0355 21.4656 31.2072 20.0102 31.2072ZM20.0102 22.5204C18.8985 22.5204 17.9889 21.6113 17.9889 20.5002V12.4194C17.9889 11.3083 18.8985 10.3992 20.0102 10.3992C21.122 10.3992 22.0316 11.3083 22.0316 12.4194V20.5002C22.0316 21.6113 21.122 22.5204 20.0102 22.5204Z" fill="#474747"/>
</svg>
