<svg width="24" height="25" viewBox="0 0 24 25" fill="none" xmlns="http://www.w3.org/2000/svg">
<path d="M23.6351 22.5516L17.7187 16.6108C19.2399 14.8649 20.0734 12.6682 20.0734 10.3814C20.0734 5.03842 15.5708 0.691406 10.0367 0.691406C4.50255 0.691406 0 5.03842 0 10.3814C0 15.7244 4.50255 20.0714 10.0367 20.0714C12.1143 20.0714 14.0941 19.4664 15.7868 18.3179L21.7482 24.3038C21.9974 24.5536 22.3325 24.6914 22.6916 24.6914C23.0316 24.6914 23.3541 24.5663 23.5989 24.3388C24.119 23.8555 24.1356 23.0542 23.6351 22.5516ZM10.0367 3.21923C14.1273 3.21923 17.4551 6.43209 17.4551 10.3814C17.4551 14.3307 14.1273 17.5436 10.0367 17.5436C5.94608 17.5436 2.61827 14.3307 2.61827 10.3814C2.61827 6.43209 5.94608 3.21923 10.0367 3.21923Z" fill="#666666"/>
</svg>
