<svg width="20" height="21" viewBox="0 0 20 21" fill="none" xmlns="http://www.w3.org/2000/svg">
<path d="M19 10.0878C19 15.0642 14.968 19.0962 10.0084 19.0962C5.032 19.0962 1 15.0642 1 10.0878C1 5.12819 5.032 1.09619 10.0084 1.09619C14.968 1.09619 19 5.12819 19 10.0878Z" fill="#474747"/>
<path d="M11.3334 11.9764C9.56107 11.9764 8.11914 10.5345 8.11914 8.76214C8.11914 6.98978 9.56107 5.54785 11.3334 5.54785C13.1058 5.54785 14.5477 6.98978 14.5477 8.76214C14.5477 10.5345 13.1058 11.9764 11.3334 11.9764ZM11.3334 6.19071C9.91528 6.19071 8.762 7.34399 8.762 8.76214C8.762 10.1803 9.91528 11.3336 11.3334 11.3336C12.7516 11.3336 13.9049 10.1803 13.9049 8.76214C13.9049 7.34399 12.7509 6.19071 11.3334 6.19071Z" fill="white" stroke="white"/>
<path d="M5.6595 14.6445C5.61871 14.6445 5.57883 14.6318 5.54491 14.6079C5.51098 14.584 5.48453 14.5501 5.46889 14.5104C5.45325 14.4707 5.44913 14.4271 5.45705 14.3849C5.46496 14.3428 5.48456 14.304 5.51336 14.2736L7.76956 11.8975C7.80849 11.8579 7.86063 11.8359 7.91476 11.8364C7.96888 11.8369 8.02065 11.8598 8.05892 11.9001C8.0972 11.9404 8.11891 11.9949 8.11938 12.0519C8.11985 12.1089 8.09904 12.1639 8.06144 12.2049L5.80565 14.5806C5.78648 14.6008 5.7637 14.6169 5.73862 14.6279C5.71355 14.6388 5.68666 14.6445 5.6595 14.6445Z" fill="white" stroke="white"/>
</svg>
