<svg width="24" height="25" viewBox="0 0 24 25" fill="none" xmlns="http://www.w3.org/2000/svg">
<path d="M22.8902 8.8236L12.3902 4.91613C12.1426 4.82613 11.8576 4.82613 11.6101 4.91613L1.11013 8.8236C0.675164 8.98863 0.382656 9.39361 0.375149 9.85861C0.367641 10.3236 0.645141 10.7436 1.07264 10.9161L4.76263 12.4461V17.5836C4.76263 18.0111 5.00263 18.4011 5.38514 18.5886L6.13514 18.9636C7.97265 19.8861 9.98265 20.3436 12.0001 20.3436C14.0176 20.3436 16.0276 19.8861 17.8652 18.9636L18.6152 18.5886C18.9977 18.4011 19.2377 18.0111 19.2377 17.5836V12.4461L20.5952 11.8836V16.2411C20.5952 16.8636 21.0977 17.3661 21.7202 17.3661C22.3426 17.3661 22.8452 16.8636 22.8452 16.2411V10.9536L22.9277 10.9161C23.3552 10.7436 23.6327 10.3236 23.6252 9.85861C23.6176 9.39362 23.3251 8.98863 22.8902 8.8236ZM16.9877 16.8861L16.8601 16.9536C13.8151 18.4761 10.1852 18.4761 7.14016 16.9536L7.01263 16.8861V13.3761L11.5726 15.2586C11.7076 15.3186 11.8576 15.3411 12.0001 15.3411C12.1426 15.3411 12.2927 15.3186 12.4277 15.2586L16.9877 13.3761V16.8861H16.9877Z" fill="#666666"/>
</svg>
