<svg width="24" height="25" viewBox="0 0 24 25" fill="none" xmlns="http://www.w3.org/2000/svg">
<path d="M22.8902 8.3236L12.3902 4.41613C12.1426 4.32613 11.8576 4.32613 11.6101 4.41613L1.11013 8.3236C0.675164 8.48863 0.382656 8.89361 0.375149 9.35861C0.367641 9.82361 0.645141 10.2436 1.07264 10.4161L4.76263 11.9461V17.0836C4.76263 17.5111 5.00263 17.9011 5.38514 18.0886L6.13514 18.4636C7.97265 19.3861 9.98265 19.8436 12.0001 19.8436C14.0176 19.8436 16.0276 19.3861 17.8652 18.4636L18.6152 18.0886C18.9977 17.9011 19.2377 17.5111 19.2377 17.0836V11.9461L20.5952 11.3836V15.7411C20.5952 16.3636 21.0977 16.8661 21.7202 16.8661C22.3426 16.8661 22.8452 16.3636 22.8452 15.7411V10.4536L22.9277 10.4161C23.3552 10.2436 23.6327 9.8236 23.6252 9.35861C23.6176 8.89362 23.3251 8.48863 22.8902 8.3236ZM16.9877 16.3861L16.8601 16.4536C13.8151 17.9761 10.1852 17.9761 7.14016 16.4536L7.01263 16.3861V12.8761L11.5726 14.7586C11.7076 14.8186 11.8576 14.8411 12.0001 14.8411C12.1426 14.8411 12.2927 14.8186 12.4277 14.7586L16.9877 12.8761V16.3861H16.9877Z" fill="#666666"/>
</svg>
