<svg width="18" height="18" viewBox="0 0 18 18" fill="none" xmlns="http://www.w3.org/2000/svg">
<path d="M10.7124 8.5293L17.6858 1.55596C18.0344 1.20729 18.0344 0.639464 17.6858 0.290797C17.3371 -0.0578698 16.7693 -0.0578698 16.4206 0.290797L9.44727 7.26413L2.47393 0.290797C2.12526 -0.0578698 1.55743 -0.0578698 1.20877 0.290797C0.860099 0.639464 0.860099 1.20729 1.20877 1.55596L8.1821 8.5293L1.20877 15.5026C0.860099 15.8513 0.860099 16.4191 1.20877 16.7678C1.55743 17.1165 2.12526 17.1165 2.47393 16.7678L9.44727 9.79446L16.4206 16.7678C16.7693 17.1165 17.3371 17.1165 17.6858 16.7678C18.0344 16.4191 18.0344 15.8513 17.6858 15.5026L10.7124 8.5293Z" fill="white"/>
</svg>
