<svg width="30" height="31" viewBox="0 0 30 31" fill="none" xmlns="http://www.w3.org/2000/svg">
<path d="M15 28.7041C11.519 28.7041 8.18064 27.3213 5.71922 24.8599C3.25781 22.3985 1.875 19.0601 1.875 15.5791C1.875 12.0981 3.25781 8.75974 5.71922 6.29833C8.18064 3.83691 11.519 2.4541 15 2.4541C18.481 2.4541 21.8194 3.83691 24.2808 6.29833C26.7422 8.75974 28.125 12.0981 28.125 15.5791C28.125 19.0601 26.7422 22.3985 24.2808 24.8599C21.8194 27.3213 18.481 28.7041 15 28.7041ZM15 30.5791C18.9782 30.5791 22.7936 28.9987 25.6066 26.1857C28.4196 23.3727 30 19.5573 30 15.5791C30 11.6009 28.4196 7.78555 25.6066 4.9725C22.7936 2.15945 18.9782 0.579102 15 0.579102C11.0218 0.579102 7.20644 2.15945 4.3934 4.9725C1.58035 7.78555 0 11.6009 0 15.5791C0 19.5573 1.58035 23.3727 4.3934 26.1857C7.20644 28.9987 11.0218 30.5791 15 30.5791Z" fill="#666666"/>
<path d="M8.71097 9.29007C8.79806 9.20277 8.90151 9.1335 9.01541 9.08624C9.12931 9.03898 9.25141 9.01465 9.37472 9.01465C9.49804 9.01465 9.62014 9.03898 9.73404 9.08624C9.84793 9.1335 9.95139 9.20277 10.0385 9.29007L14.9997 14.2532L19.961 9.29007C20.0481 9.20291 20.1516 9.13377 20.2655 9.08659C20.3794 9.03942 20.5015 9.01514 20.6247 9.01514C20.748 9.01514 20.8701 9.03942 20.9839 9.08659C21.0978 9.13377 21.2013 9.20291 21.2885 9.29007C21.3756 9.37724 21.4448 9.48072 21.492 9.5946C21.5391 9.70849 21.5634 9.83055 21.5634 9.95382C21.5634 10.0771 21.5391 10.1992 21.492 10.313C21.4448 10.4269 21.3756 10.5304 21.2885 10.6176L16.3253 15.5788L21.2885 20.5401C21.3756 20.6272 21.4448 20.7307 21.492 20.8446C21.5391 20.9585 21.5634 21.0806 21.5634 21.2038C21.5634 21.3271 21.5391 21.4492 21.492 21.563C21.4448 21.6769 21.3756 21.7804 21.2885 21.8676C21.2013 21.9547 21.0978 22.0239 20.9839 22.0711C20.8701 22.1182 20.748 22.1425 20.6247 22.1425C20.5015 22.1425 20.3794 22.1182 20.2655 22.0711C20.1516 22.0239 20.0481 21.9547 19.961 21.8676L14.9997 16.9044L10.0385 21.8676C9.95131 21.9547 9.84783 22.0239 9.73394 22.0711C9.62006 22.1182 9.49799 22.1425 9.37472 22.1425C9.25145 22.1425 9.12939 22.1182 9.0155 22.0711C8.90162 22.0239 8.79814 21.9547 8.71097 21.8676C8.62381 21.7804 8.55466 21.6769 8.50749 21.563C8.46032 21.4492 8.43604 21.3271 8.43604 21.2038C8.43604 21.0806 8.46032 20.9585 8.50749 20.8446C8.55466 20.7307 8.62381 20.6272 8.71097 20.5401L13.6741 15.5788L8.71097 10.6176C8.62367 10.5305 8.5544 10.427 8.50714 10.3131C8.45987 10.1992 8.43555 10.0771 8.43555 9.95382C8.43555 9.83051 8.45987 9.70841 8.50714 9.59451C8.5544 9.48061 8.62367 9.37716 8.71097 9.29007Z" fill="#666666"/>
</svg>
