<svg width="20" height="20" viewBox="0 0 20 20" fill="none" xmlns="http://www.w3.org/2000/svg">
<path d="M18.3048 1.60826C16.1128 -0.536498 12.6086 -0.536031 10.4171 1.60932L1.22597 10.8005C-0.43597 12.5016 -0.404208 15.2279 1.29691 16.8898C2.97005 18.5244 5.64216 18.5244 7.3153 16.8898L15.638 8.5671C16.72 7.48514 16.72 5.73088 15.638 4.64892C14.5561 3.56695 12.8018 3.56695 11.7198 4.64892L3.75895 12.6097C3.48129 12.8973 3.48926 13.3554 3.77676 13.6331C4.05723 13.9039 4.50185 13.9039 4.78232 13.6331L12.7432 5.67224C13.2711 5.16651 14.109 5.18454 14.6147 5.71244C15.1051 6.22439 15.1051 7.03183 14.6147 7.54378L6.29198 15.8665C5.16765 16.9748 3.35767 16.9618 2.24933 15.8375C1.15219 14.7245 1.15219 12.9368 2.24933 11.8238L11.4405 2.63264C13.0776 0.994875 15.7325 0.994409 17.3702 2.63154C19.008 4.26867 19.0085 6.92352 17.3713 8.56129L8.18015 17.7525C7.87657 18.0124 7.84121 18.4693 8.10119 18.7729C8.36118 19.0765 8.81805 19.1118 9.12163 18.8519C9.14995 18.8276 9.17633 18.8012 9.20059 18.7729L18.3918 9.58173C20.5696 7.35593 20.5307 3.78606 18.3048 1.60826Z" fill="#4C5BD4"/>
</svg>
