<svg width="31" height="27" viewBox="0 0 31 27" fill="none" xmlns="http://www.w3.org/2000/svg">
<path d="M12.091 8.95564C12.091 9.69445 11.7975 10.403 11.275 10.9254C10.7526 11.4479 10.0441 11.7414 9.30524 11.7414C8.56643 11.7414 7.85787 11.4479 7.33545 10.9254C6.81302 10.403 6.51953 9.69445 6.51953 8.95564C6.51953 8.21682 6.81302 7.50826 7.33545 6.98584C7.85787 6.46342 8.56643 6.16992 9.30524 6.16992C10.0441 6.16992 10.7526 6.46342 11.275 6.98584C11.7975 7.50826 12.091 8.21682 12.091 8.95564Z" fill="#76B51B"/>
<path d="M4.66155 0.597656C3.67646 0.597656 2.73172 0.988982 2.03515 1.68555C1.33859 2.38211 0.947266 3.32685 0.947266 4.31194V22.8834C0.947266 23.8685 1.33859 24.8132 2.03515 25.5098C2.73172 26.2063 3.67646 26.5977 4.66155 26.5977H26.9473C27.9324 26.5977 28.8771 26.2063 29.5737 25.5098C30.2702 24.8132 30.6616 23.8685 30.6616 22.8834V4.31194C30.6616 3.32685 30.2702 2.38211 29.5737 1.68555C28.8771 0.988982 27.9324 0.597656 26.9473 0.597656H4.66155ZM26.9473 2.4548C27.4398 2.4548 27.9122 2.65046 28.2605 2.99874C28.6087 3.34703 28.8044 3.8194 28.8044 4.31194V16.3834L21.79 12.7675C21.6158 12.6803 21.4186 12.65 21.2263 12.681C21.034 12.712 20.8563 12.8027 20.7184 12.9402L13.8284 19.8302L8.88841 16.5394C8.71005 16.4206 8.49611 16.3672 8.28287 16.3882C8.06962 16.4092 7.8702 16.5033 7.71841 16.6545L2.80441 21.0262V4.31194C2.80441 3.8194 3.00007 3.34703 3.34835 2.99874C3.69664 2.65046 4.16901 2.4548 4.66155 2.4548H26.9473Z" fill="#76B51B"/>
</svg>
