<svg width="41" height="41" viewBox="0 0 41 41" fill="none" xmlns="http://www.w3.org/2000/svg">
<ellipse cx="20.5" cy="20.332" rx="20" ry="19.9961" fill="#EEEEEE"/>
<path d="M10.5 11.5854H26.75V20.3337H29.25V11.5854C29.25 10.207 28.1287 9.08594 26.75 9.08594H10.5C9.12125 9.08594 8 10.207 8 11.5854V26.5825C8 27.961 9.12125 29.082 10.5 29.082H20.5V26.5825H10.5V11.5854Z" fill="#474747"/>
<path d="M15.5 19.0835L11.75 24.0825H25.5L20.5 16.584L16.75 21.583L15.5 19.0835Z" fill="#474747"/>
<path d="M29.25 22.832H26.75V26.5813H23V29.0808H26.75V32.8301H29.25V29.0808H33V26.5813H29.25V22.832Z" fill="#474747"/>
</svg>
