<svg width="26" height="33" viewBox="0 0 26 33" fill="none" xmlns="http://www.w3.org/2000/svg">
<path d="M12.9928 9.43335C14.588 9.43335 15.8801 8.14131 15.8801 6.54604C15.8801 6.00467 15.7285 5.4922 15.4686 5.05911L12.9928 0.771484L10.5169 5.05911C10.2571 5.4922 10.1055 6.00467 10.1055 6.54604C10.1055 8.14131 11.3976 9.43335 12.9928 9.43335Z" fill="#4C5BD4"/>
<path d="M21.6547 13.7638H14.4364V10.8765H11.5491V13.7638H4.33093C1.94168 13.7638 0 15.7054 0 18.0947V20.3179C0 21.877 1.27038 23.1474 2.82952 23.1474C3.58743 23.1474 4.29479 22.8515 4.82899 22.3173L7.91836 19.2351L11.0006 22.31C12.0689 23.3783 13.9312 23.3783 14.9994 22.31L18.0888 19.2351L21.171 22.31C21.7051 22.8442 22.4126 23.1401 23.1705 23.1401C24.7296 23.1401 26 21.8698 26 20.3106V18.0947C25.9856 15.7054 24.0439 13.7638 21.6547 13.7638Z" fill="#4C5BD4"/>
<path d="M19.6264 23.8483L18.0745 22.2964L16.5153 23.8483C14.6314 25.7322 11.3399 25.7322 9.45591 23.8483L7.90395 22.2964L6.34481 23.8483C5.41366 24.7938 4.16493 25.3135 2.82952 25.3135C1.78285 25.3135 0.808395 24.9815 0 24.4257V31.0881C0 31.8821 0.64964 32.5317 1.44362 32.5317H24.5419C25.3359 32.5317 25.9855 31.8821 25.9855 31.0881V24.4258C25.1771 24.9816 24.2098 25.3136 23.156 25.3136C21.8207 25.3136 20.5719 24.7939 19.6264 23.8483Z" fill="#4C5BD4"/>
</svg>
