<svg width="19" height="19" viewBox="0 0 19 19" fill="none" xmlns="http://www.w3.org/2000/svg">
<path d="M18.5875 8.60948L2.08754 0.359482C1.95821 0.294807 1.81295 0.268894 1.66924 0.284861C1.52554 0.300829 1.38951 0.357997 1.27754 0.449482C1.1706 0.539102 1.09079 0.656772 1.04707 0.789265C1.00334 0.921758 0.997446 1.06382 1.03004 1.19948L3.01754 8.52698H11.5V10.027H3.01754L1.00004 17.332C0.969455 17.4453 0.965886 17.5642 0.989614 17.6791C1.01334 17.794 1.06371 17.9018 1.13665 17.9937C1.2096 18.0856 1.3031 18.1591 1.40964 18.2083C1.51617 18.2575 1.63276 18.281 1.75004 18.277C1.86744 18.2763 1.98304 18.248 2.08754 18.1945L18.5875 9.94448C18.7104 9.88154 18.8135 9.78592 18.8855 9.66815C18.9575 9.55037 18.9956 9.41502 18.9956 9.27698C18.9956 9.13895 18.9575 9.00359 18.8855 8.88582C18.8135 8.76804 18.7104 8.67242 18.5875 8.60948V8.60948Z" fill="url(#paint0_linear_3:1000)"/>
<defs>
<linearGradient id="paint0_linear_3:1000" x1="9.98484" y1="0.280273" x2="9.98484" y2="18.2774" gradientUnits="userSpaceOnUse">
<stop stop-color="#4250C2"/>
<stop offset="1" stop-color="#00A1FF"/>
</linearGradient>
</defs>
</svg>
