<svg width="20" height="18" viewBox="0 0 20 18" fill="none" xmlns="http://www.w3.org/2000/svg">
<path d="M13.9792 2.9987L17.1111 6.13064C17.2431 6.26259 17.2431 6.47786 17.1111 6.60981L9.52778 14.1931L6.30556 14.5508C5.875 14.5994 5.51042 14.2348 5.55903 13.8043L5.91667 10.582L13.5 2.9987C13.6319 2.86675 13.8472 2.86675 13.9792 2.9987ZM19.6042 2.20356L17.9097 0.509115C17.3819 -0.0186632 16.5243 -0.0186632 15.9931 0.509115L14.7639 1.73828C14.6319 1.87023 14.6319 2.0855 14.7639 2.21745L17.8958 5.34939C18.0278 5.48134 18.2431 5.48134 18.375 5.34939L19.6042 4.12023C20.1319 3.58898 20.1319 2.73134 19.6042 2.20356ZM13.3333 12.1306V15.6654H2.22222V4.55425H10.2014C10.3125 4.55425 10.4167 4.50911 10.4965 4.43273L11.8854 3.04384C12.1493 2.77995 11.9618 2.33203 11.5903 2.33203H1.66667C0.746528 2.33203 0 3.07856 0 3.9987V16.2209C0 17.1411 0.746528 17.8876 1.66667 17.8876H13.8889C14.809 17.8876 15.5556 17.1411 15.5556 16.2209V10.7418C15.5556 10.3702 15.1076 10.1862 14.8438 10.4466L13.4549 11.8355C13.3785 11.9154 13.3333 12.0195 13.3333 12.1306Z" fill="#474747"/>
</svg>
