<svg width="25" height="25" viewBox="0 0 25 25" fill="none" xmlns="http://www.w3.org/2000/svg">
<path d="M3.5 16.5273H2V3.02734C2.0004 2.62964 2.15856 2.24834 2.43978 1.96712C2.721 1.6859 3.1023 1.52774 3.5 1.52734H17V3.02734H3.5V16.5273Z" fill="#666666"/>
<path d="M16.25 12.7773C16.695 12.7773 17.13 12.6454 17.5 12.3982C17.87 12.1509 18.1584 11.7995 18.3287 11.3884C18.499 10.9772 18.5436 10.5248 18.4568 10.0884C18.37 9.65193 18.1557 9.25102 17.841 8.93635C17.5263 8.62169 17.1254 8.40739 16.689 8.32058C16.2525 8.23376 15.8001 8.27832 15.389 8.44862C14.9778 8.61891 14.6264 8.9073 14.3792 9.27731C14.132 9.64732 14 10.0823 14 10.5273C14.0006 11.1239 14.2378 11.6959 14.6597 12.1177C15.0815 12.5395 15.6534 12.7768 16.25 12.7773ZM16.25 9.77735C16.3983 9.77735 16.5433 9.82133 16.6667 9.90374C16.79 9.98615 16.8861 10.1033 16.9429 10.2403C16.9997 10.3774 17.0145 10.5282 16.9856 10.6737C16.9567 10.8191 16.8852 10.9528 16.7803 11.0577C16.6754 11.1626 16.5418 11.234 16.3963 11.2629C16.2508 11.2919 16.1 11.277 15.963 11.2203C15.8259 11.1635 15.7088 11.0674 15.6264 10.944C15.544 10.8207 15.5 10.6757 15.5 10.5273C15.5 10.3284 15.579 10.1377 15.7197 9.99702C15.8603 9.85636 16.0511 9.77735 16.25 9.77735Z" fill="#666666"/>
<path d="M21.5 5.27734H7.25C6.8523 5.27774 6.471 5.4359 6.18978 5.71712C5.90856 5.99834 5.7504 6.37964 5.75 6.77734V21.0273C5.7504 21.425 5.90856 21.8063 6.18978 22.0876C6.471 22.3688 6.8523 22.5269 7.25 22.5273H21.5C21.8977 22.5269 22.279 22.3688 22.5602 22.0876C22.8414 21.8063 22.9996 21.425 23 21.0273V6.77734C22.9996 6.37964 22.8414 5.99834 22.5602 5.71712C22.279 5.4359 21.8977 5.27774 21.5 5.27734ZM21.5 21.0273H7.25V16.5273L10.25 13.5296L14.4395 17.7191C14.7208 18.0003 15.1023 18.1583 15.5 18.1583C15.8977 18.1583 16.2792 18.0003 16.5605 17.7191L17.75 16.5296L21.5 20.2773V21.0273ZM21.5 18.1563L18.8105 15.4668C18.5292 15.1856 18.1477 15.0277 17.75 15.0277C17.3523 15.0277 16.9708 15.1856 16.6895 15.4668L15.5 16.6563L11.3105 12.4668C11.0292 12.1856 10.6477 12.0277 10.25 12.0277C9.85225 12.0277 9.47079 12.1856 9.1895 12.4668L7.25 14.4063V6.77734H21.5V18.1563Z" fill="#666666"/>
</svg>
