<svg width="20" height="21" viewBox="0 0 20 21" fill="none" xmlns="http://www.w3.org/2000/svg">
<path d="M11.2652 10.7773L18.2385 3.80401C18.5872 3.45534 18.5872 2.88751 18.2385 2.53884C17.8898 2.19018 17.322 2.19018 16.9733 2.53884L10 9.51218L3.02666 2.53884C2.678 2.19018 2.11017 2.19018 1.7615 2.53884C1.41283 2.88751 1.41283 3.45534 1.7615 3.80401L8.73484 10.7773L1.7615 17.7507C1.41283 18.0993 1.41283 18.6672 1.7615 19.0158C2.11017 19.3645 2.678 19.3645 3.02666 19.0158L10 12.0425L16.9733 19.0158C17.322 19.3645 17.8898 19.3645 18.2385 19.0158C18.5872 18.6672 18.5872 18.0993 18.2385 17.7507L11.2652 10.7773Z" fill="white"/>
</svg>
