<svg width="16" height="16" viewBox="0 0 16 16" fill="none" xmlns="http://www.w3.org/2000/svg">
<path d="M0.814703 0.464667C0.914208 0.36491 1.03242 0.285764 1.16256 0.231762C1.2927 0.17776 1.43221 0.149963 1.57311 0.149963C1.71401 0.149963 1.85352 0.17776 1.98366 0.231762C2.1138 0.285764 2.23201 0.36491 2.33152 0.464667L8.00028 6.13557L13.669 0.464667C13.7686 0.365071 13.8869 0.286068 14.017 0.232167C14.1471 0.178267 14.2866 0.150524 14.4275 0.150524C14.5683 0.150524 14.7078 0.178267 14.8379 0.232167C14.968 0.286068 15.0863 0.365071 15.1859 0.464667C15.2855 0.564262 15.3645 0.682499 15.4184 0.812626C15.4723 0.942754 15.5 1.08222 15.5 1.22307C15.5 1.36392 15.4723 1.50339 15.4184 1.63352C15.3645 1.76365 15.2855 1.88188 15.1859 1.98148L9.51495 7.65024L15.1859 13.319C15.2855 13.4186 15.3645 13.5368 15.4184 13.667C15.4723 13.7971 15.5 13.9366 15.5 14.0774C15.5 14.2183 15.4723 14.3577 15.4184 14.4879C15.3645 14.618 15.2855 14.7362 15.1859 14.8358C15.0863 14.9354 14.968 15.0144 14.8379 15.0683C14.7078 15.1222 14.5683 15.15 14.4275 15.15C14.2866 15.15 14.1471 15.1222 14.017 15.0683C13.8869 15.0144 13.7686 14.9354 13.669 14.8358L8.00028 9.16491L2.33152 14.8358C2.23192 14.9354 2.11368 15.0144 1.98356 15.0683C1.85343 15.1222 1.71396 15.15 1.57311 15.15C1.43226 15.15 1.29279 15.1222 1.16266 15.0683C1.03254 15.0144 0.914299 14.9354 0.814703 14.8358C0.715108 14.7362 0.636104 14.618 0.582204 14.4879C0.528303 14.3577 0.500561 14.2183 0.500561 14.0774C0.500561 13.9366 0.528303 13.7971 0.582204 13.667C0.636104 13.5368 0.715108 13.4186 0.814703 13.319L6.48561 7.65024L0.814703 1.98148C0.714947 1.88197 0.6358 1.76377 0.581798 1.63363C0.527796 1.50349 0.5 1.36397 0.5 1.22307C0.5 1.08217 0.527796 0.942659 0.581798 0.812519C0.6358 0.682379 0.714947 0.564171 0.814703 0.464667Z" fill="white"/>
</svg>
