<svg width="24" height="42" viewBox="0 0 24 42" fill="none" xmlns="http://www.w3.org/2000/svg">
<path d="M1.06685 1.67078C0.728973 2.00796 0.460914 2.40847 0.278017 2.84939C0.0951201 3.2903 0.000976562 3.76295 0.000976562 4.24029C0.000976562 4.71764 0.0951201 5.19029 0.278017 5.6312C0.460914 6.07212 0.728973 6.47263 1.06685 6.80981L15.2083 20.9513L1.06685 35.0928C0.385372 35.7742 0.00251985 36.6985 0.00251985 37.6623C0.00251985 38.626 0.385372 39.5503 1.06685 40.2318C1.74833 40.9133 2.67261 41.2961 3.63637 41.2961C4.60013 41.2961 5.52441 40.9133 6.20589 40.2318L22.9351 23.5026C23.273 23.1654 23.541 22.7649 23.7239 22.324C23.9068 21.8831 24.001 21.4104 24.001 20.9331C24.001 20.4557 23.9068 19.9831 23.7239 19.5422C23.541 19.1012 23.273 18.7007 22.9351 18.3635L6.20589 1.63433C4.8209 0.249338 2.48829 0.249339 1.06685 1.67078Z" fill="white"/>
</svg>
