<svg width="21" height="21" viewBox="0 0 21 21" fill="none" xmlns="http://www.w3.org/2000/svg">
<g clip-path="url(#clip0_67:37428)">
<path d="M10.5 20.2734C13.1522 20.2734 15.6957 19.2201 17.5711 17.3451C19.4464 15.4701 20.5 12.927 20.5 10.2754C20.5 7.62375 19.4464 5.0807 17.5711 3.2057C15.6957 1.33071 13.1522 0.277344 10.5 0.277344C7.84784 0.277344 5.3043 1.33071 3.42893 3.2057C1.55357 5.0807 0.5 7.62375 0.5 10.2754C0.5 12.927 1.55357 15.4701 3.42893 17.3451C5.3043 19.2201 7.84784 20.2734 10.5 20.2734Z" fill="white"/>
<path d="M10.5 19.0237C8.17936 19.0237 5.95376 18.102 4.31282 16.4614C2.67187 14.8207 1.75 12.5956 1.75 10.2754C1.75 7.9552 2.67187 5.73004 4.31282 4.08942C5.95376 2.44879 8.17936 1.5271 10.5 1.5271C12.8206 1.5271 15.0462 2.44879 16.6872 4.08942C18.3281 5.73004 19.25 7.9552 19.25 10.2754C19.25 12.5956 18.3281 14.8207 16.6872 16.4614C15.0462 18.102 12.8206 19.0237 10.5 19.0237ZM10.5 20.2734C13.1522 20.2734 15.6957 19.2201 17.5711 17.3451C19.4464 15.4701 20.5 12.927 20.5 10.2754C20.5 7.62375 19.4464 5.0807 17.5711 3.2057C15.6957 1.33071 13.1522 0.277344 10.5 0.277344C7.84784 0.277344 5.3043 1.33071 3.42893 3.2057C1.55357 5.0807 0.5 7.62375 0.5 10.2754C0.5 12.927 1.55357 15.4701 3.42893 17.3451C5.3043 19.2201 7.84784 20.2734 10.5 20.2734V20.2734Z" fill="#474747"/>
<path d="M6.30764 6.08397C6.3657 6.02578 6.43467 5.97961 6.5106 5.94811C6.58653 5.91661 6.66793 5.90039 6.75014 5.90039C6.83235 5.90039 6.91375 5.91661 6.98968 5.94811C7.06561 5.97961 7.13458 6.02578 7.19264 6.08397L10.5001 9.39208L13.8076 6.08397C13.8657 6.02587 13.9347 5.97979 14.0107 5.94834C14.0866 5.9169 14.168 5.90072 14.2501 5.90072C14.3323 5.90072 14.4137 5.9169 14.4896 5.94834C14.5655 5.97979 14.6345 6.02587 14.6926 6.08397C14.7507 6.14207 14.7968 6.21104 14.8283 6.28695C14.8597 6.36286 14.8759 6.44422 14.8759 6.52639C14.8759 6.60855 14.8597 6.68991 14.8283 6.76582C14.7968 6.84173 14.7507 6.9107 14.6926 6.9688L11.3839 10.2757L14.6926 13.5825C14.7507 13.6406 14.7968 13.7096 14.8283 13.7855C14.8597 13.8614 14.8759 13.9428 14.8759 14.0249C14.8759 14.1071 14.8597 14.1884 14.8283 14.2644C14.7968 14.3403 14.7507 14.4092 14.6926 14.4673C14.6345 14.5254 14.5655 14.5715 14.4896 14.603C14.4137 14.6344 14.3323 14.6506 14.2501 14.6506C14.168 14.6506 14.0866 14.6344 14.0107 14.603C13.9347 14.5715 13.8657 14.5254 13.8076 14.4673L10.5001 11.1592L7.19264 14.4673C7.13453 14.5254 7.06554 14.5715 6.98962 14.603C6.9137 14.6344 6.83232 14.6506 6.75014 14.6506C6.66796 14.6506 6.58659 14.6344 6.51066 14.603C6.43474 14.5715 6.36575 14.5254 6.30764 14.4673C6.24953 14.4092 6.20343 14.3403 6.17199 14.2644C6.14054 14.1884 6.12435 14.1071 6.12435 14.0249C6.12435 13.9428 6.14054 13.8614 6.17199 13.7855C6.20343 13.7096 6.24953 13.6406 6.30764 13.5825L9.61639 10.2757L6.30764 6.9688C6.24944 6.91075 6.20326 6.8418 6.17175 6.76588C6.14024 6.68996 6.12402 6.60858 6.12402 6.52639C6.12402 6.44419 6.14024 6.36281 6.17175 6.28689C6.20326 6.21097 6.24944 6.14202 6.30764 6.08397Z" fill="#474747"/>
</g>
<defs>
<clipPath id="clip0_67:37428">
<rect width="20" height="19.9961" fill="white" transform="translate(0.5 0.277344)"/>
</clipPath>
</defs>
</svg>
