<svg width="19" height="19" viewBox="0 0 19 19" fill="none" xmlns="http://www.w3.org/2000/svg">
<circle cx="9.08398" cy="9.5" r="9" fill="white"/>
<path fill-rule="evenodd" clip-rule="evenodd" d="M9.08398 0.5C4.11353 0.5 0.0839844 4.52955 0.0839844 9.5C0.0839844 14.4705 4.11353 18.5 9.08398 18.5C14.0544 18.5 18.084 14.4705 18.084 9.5C18.084 4.52955 14.0544 0.5 9.08398 0.5ZM12.117 7.62391C12.266 7.4696 12.3485 7.26292 12.3466 7.0484C12.3448 6.83387 12.2587 6.62866 12.107 6.47697C11.9553 6.32527 11.7501 6.23922 11.5356 6.23736C11.3211 6.23549 11.1144 6.31796 10.9601 6.467L9.08398 8.34309L7.20789 6.467C7.13242 6.38886 7.04214 6.32652 6.94232 6.28364C6.84249 6.24076 6.73513 6.21819 6.62649 6.21725C6.51786 6.21631 6.41012 6.23701 6.30957 6.27815C6.20902 6.31928 6.11766 6.38004 6.04084 6.45686C5.96402 6.53368 5.90327 6.62503 5.86213 6.72558C5.82099 6.82613 5.80029 6.93387 5.80123 7.04251C5.80218 7.15115 5.82475 7.25851 5.86763 7.35833C5.91051 7.45815 5.97284 7.54843 6.05098 7.62391L7.92708 9.5L6.05098 11.3761C5.97284 11.4516 5.91051 11.5418 5.86763 11.6417C5.82475 11.7415 5.80218 11.8489 5.80123 11.9575C5.80029 12.0661 5.82099 12.1739 5.86213 12.2744C5.90327 12.375 5.96402 12.4663 6.04084 12.5431C6.11766 12.62 6.20902 12.6807 6.30957 12.7219C6.41012 12.763 6.51786 12.7837 6.62649 12.7828C6.73513 12.7818 6.84249 12.7592 6.94232 12.7164C7.04214 12.6735 7.13242 12.6111 7.20789 12.533L9.08398 10.6569L10.9601 12.533C11.1144 12.682 11.3211 12.7645 11.5356 12.7626C11.7501 12.7608 11.9553 12.6747 12.107 12.523C12.2587 12.3713 12.3448 12.1661 12.3466 11.9516C12.3485 11.7371 12.266 11.5304 12.117 11.3761L10.2409 9.5L12.117 7.62391Z" fill="#FF3333"/>
</svg>
