<svg width="24" height="42" viewBox="0 0 24 42" fill="none" xmlns="http://www.w3.org/2000/svg">
<path d="M22.9331 1.67078C23.271 2.00796 23.5391 2.40847 23.722 2.84939C23.9049 3.2903 23.999 3.76295 23.999 4.24029C23.999 4.71764 23.9049 5.19029 23.722 5.6312C23.5391 6.07212 23.271 6.47263 22.9331 6.80981L8.79168 20.9513L22.9331 35.0928C23.6146 35.7742 23.9975 36.6985 23.9975 37.6623C23.9975 38.626 23.6146 39.5503 22.9331 40.2318C22.2517 40.9133 21.3274 41.2961 20.3636 41.2961C19.3999 41.2961 18.4756 40.9133 17.7941 40.2318L1.06489 23.5026C0.727015 23.1654 0.458954 22.7649 0.276058 22.324C0.0931606 21.8831 -0.00097847 21.4104 -0.00097847 20.9331C-0.00097847 20.4557 0.0931606 19.9831 0.276058 19.5422C0.458954 19.1012 0.727015 18.7007 1.06489 18.3635L17.7941 1.63433C19.1791 0.249338 21.5117 0.249339 22.9331 1.67078Z" fill="white"/>
</svg>
