<svg width="31" height="31" viewBox="0 0 31 31" fill="none" xmlns="http://www.w3.org/2000/svg">
<path d="M15.5 30.2773C23.7843 30.2773 30.5 23.5616 30.5 15.2773C30.5 6.99307 23.7843 0.277344 15.5 0.277344C7.21573 0.277344 0.5 6.99307 0.5 15.2773C0.5 23.5616 7.21573 30.2773 15.5 30.2773Z" fill="#FFD54F"/>
<path d="M24.9216 9.93062C24.6266 9.88562 24.3291 9.98437 24.1178 10.1944L10.4178 23.8944C10.2078 24.1044 10.1091 24.4031 10.1541 24.6981C10.1991 24.9919 10.3803 25.2481 10.6441 25.3869C14.9716 27.6644 20.1991 26.8769 23.6491 23.4256C27.0991 19.9744 27.8878 14.7481 25.6103 10.4206C25.4716 10.1569 25.2166 9.97562 24.9216 9.93062Z" fill="#E53935"/>
<path d="M8.76281 19.8259C8.11531 20.7621 6.00656 23.9396 6.00781 25.5371C6.00781 27.4809 7.59031 29.0634 9.53406 29.0634C10.5066 29.0634 11.3878 28.6684 12.0266 28.0296C12.6641 27.3921 13.0603 26.5096 13.0603 25.5371C13.0603 23.9384 10.9516 20.7621 10.3053 19.8259C10.1316 19.5721 9.84281 19.4209 9.53406 19.4209C9.22531 19.4209 8.93531 19.5734 8.76281 19.8259Z" fill="#00BCD4"/>
<path d="M25.76 5.78516C24.1625 5.78516 20.985 7.89391 20.0487 8.54016C19.7937 8.71516 19.6437 9.00391 19.6437 9.31141C19.6437 9.61891 19.795 9.90766 20.0487 10.0827C20.9837 10.7302 24.1612 12.8389 25.76 12.8377C26.7325 12.8377 27.6137 12.4414 28.2512 11.8039C28.89 11.1652 29.2862 10.2839 29.2862 9.31141C29.2862 7.36766 27.7037 5.78516 25.76 5.78516Z" fill="#00BCD4"/>
<path d="M9.97634 19.0332C9.76759 19.242 9.46259 19.3495 9.15009 19.2945C8.64009 19.2045 8.29884 18.7182 8.39009 18.2082L8.82009 15.7707L6.38259 16.2007C5.87259 16.292 5.38634 15.9507 5.29634 15.4407C5.20384 14.9307 5.54634 14.4457 6.05634 14.3557L9.81259 13.6932C10.1138 13.6395 10.4226 13.737 10.6388 13.9532C10.8551 14.1695 10.9526 14.477 10.8988 14.7795L10.2363 18.5357C10.2013 18.7307 10.1076 18.902 9.97634 19.0332Z" fill="#6D4C41"/>
<path d="M19.2562 9.75336C19.125 9.88461 18.9537 9.97836 18.7575 10.0121L15 10.6759C14.6987 10.7296 14.39 10.6321 14.1737 10.4159C13.9575 10.1996 13.86 9.89211 13.9137 9.58961L14.5762 5.83336C14.6662 5.32336 15.1525 4.98211 15.6612 5.07336C16.1712 5.16336 16.5125 5.64961 16.4212 6.15961L15.9912 8.59711L18.4287 8.16711C18.9387 8.07586 19.425 8.41711 19.515 8.92711C19.5725 9.23961 19.465 9.54461 19.2562 9.75336Z" fill="#6D4C41"/>
</svg>
