<svg width="31" height="30" viewBox="0 0 31 30" fill="none" xmlns="http://www.w3.org/2000/svg">
<path d="M3.62496 12.7764C1.90249 12.7764 0.5 14.1789 0.5 15.9013V25.9013C0.5 27.6238 1.90249 29.0263 3.62496 29.0263H7.37494C8.07871 29.0263 8.72616 28.7888 9.24993 28.3937V12.7764H3.62496Z" fill="#4C5BD4"/>
<path d="M30.5 17.4647C30.5 16.7135 30.2026 16.0135 29.6863 15.4972C30.2701 14.8585 30.5675 14.0022 30.4863 13.111C30.34 11.5222 28.9088 10.2772 27.2263 10.2772H19.5051C19.8876 9.11598 20.5001 6.98729 20.5001 5.2773C20.5001 2.56606 18.1964 0.277344 16.7501 0.277344C15.4514 0.277344 14.5239 1.00859 14.4839 1.03859C14.3364 1.15736 14.2502 1.33736 14.2502 1.52732V5.76602L10.6502 13.5647L10.5002 13.641V27.0384C11.5177 27.5184 12.8051 27.7772 13.6251 27.7772H25.0988C26.4601 27.7772 27.6514 26.8596 27.9313 25.5934C28.075 24.9422 27.9913 24.2859 27.7051 23.7159C28.6288 23.2509 29.2501 22.2997 29.2501 21.2147C29.2501 20.7722 29.1488 20.3485 28.9563 19.9647C29.8801 19.4997 30.5 18.5485 30.5 17.4647Z" fill="#4C5BD4"/>
</svg>
