<svg width="31" height="30" viewBox="0 0 31 30" fill="none" xmlns="http://www.w3.org/2000/svg">
<path d="M7.37494 0.277344H3.62496C1.90249 0.277344 0.5 1.67984 0.5 3.40231V13.4023C0.5 15.1247 1.90249 16.5272 3.62496 16.5272H9.24993V0.909801C8.72622 0.514823 8.07871 0.277344 7.37494 0.277344Z" fill="#4C5BD4"/>
<path d="M30.5 11.8388C30.5 10.7551 29.8801 9.8038 28.9563 9.3388C29.1488 8.95507 29.25 8.53004 29.25 8.08883C29.25 7.00385 28.6287 6.05259 27.705 5.58759C27.9913 5.0176 28.075 4.36135 27.9313 3.71008C27.6513 2.44388 26.4601 1.52637 25.0988 1.52637H13.6251C12.8051 1.52637 11.5177 1.78512 10.5002 2.26511V15.6626L10.6502 15.7388L14.2502 23.5387V27.7762C14.2502 27.9662 14.3364 28.1462 14.4839 28.2649C14.5239 28.2949 15.4514 29.0262 16.7501 29.0262C18.1964 29.0262 20.5001 26.7375 20.5001 24.0262C20.5001 22.3162 19.8876 20.1875 19.5051 19.0263H27.2263C28.9088 19.0263 30.34 17.7813 30.4863 16.1925C30.5675 15.3013 30.27 14.445 29.6863 13.8063C30.2026 13.29 30.5 12.59 30.5 11.8388Z" fill="#4C5BD4"/>
</svg>
