<svg width="31" height="31" viewBox="0 0 31 31" fill="none" xmlns="http://www.w3.org/2000/svg">
<path d="M15.5 30.2773C23.7843 30.2773 30.5 23.5616 30.5 15.2773C30.5 6.99307 23.7843 0.277344 15.5 0.277344C7.21573 0.277344 0.5 6.99307 0.5 15.2773C0.5 23.5616 7.21573 30.2773 15.5 30.2773Z" fill="#FFE17D"/>
<path d="M17.6774 28.0994C9.39313 28.0994 2.6774 21.3837 2.6774 13.0994C2.6774 9.51188 3.9384 6.21984 6.03928 3.63867C2.65994 6.38906 0.5 10.58 0.5 15.2768C0.5 23.5611 7.21572 30.2768 15.5 30.2768C20.1968 30.2768 24.3878 28.1168 27.1382 24.7375C24.557 26.8383 21.265 28.0994 17.6774 28.0994Z" fill="#FFD164"/>
<path d="M10.1771 14.4323C9.25707 14.4323 8.37963 13.9971 7.77002 13.2385C7.56066 12.9781 7.60226 12.5974 7.86265 12.3881C8.12445 12.1788 8.5039 12.2209 8.7132 12.481C9.09734 12.9592 9.61713 13.2226 10.1771 13.2226C10.737 13.2226 11.2568 12.9592 11.641 12.481C11.8504 12.2209 12.2302 12.1788 12.4916 12.3881C12.752 12.5975 12.7935 12.9781 12.5842 13.2385C11.9746 13.9971 11.0971 14.4323 10.1771 14.4323Z" fill="#AA7346"/>
<path d="M20.8248 14.4323C19.9047 14.4323 19.0273 13.9971 18.4177 13.2385C18.2083 12.9781 18.2499 12.5974 18.5103 12.3881C18.7716 12.1788 19.152 12.2209 19.3608 12.481C19.745 12.9592 20.2648 13.2226 20.8248 13.2226C21.3847 13.2226 21.9045 12.9592 22.2887 12.481C22.498 12.2209 22.8774 12.1788 23.1392 12.3881C23.3996 12.5975 23.4411 12.9781 23.2318 13.2385C22.6222 13.9971 21.7448 14.4323 20.8248 14.4323Z" fill="#AA7346"/>
<path d="M12.596 11.5293C12.5053 11.5293 12.4126 11.5087 12.3262 11.4652L7.48743 9.04591C7.1883 8.89638 7.06737 8.53322 7.21666 8.23433C7.36549 7.93591 7.72936 7.81333 8.02801 7.9638L12.8667 10.3831C13.1659 10.5327 13.2868 10.8958 13.1375 11.1947C13.0316 11.4067 12.818 11.5293 12.596 11.5293Z" fill="#AA7346"/>
<path d="M18.4034 11.5295C18.1813 11.5295 17.9677 11.4069 17.8619 11.1949C17.7126 10.896 17.8335 10.5329 18.1326 10.3834L22.9714 7.96402C23.27 7.81519 23.6334 7.93636 23.7827 8.23455C23.932 8.53343 23.8111 8.89654 23.5119 9.04613L18.6732 11.4655C18.5867 11.5087 18.4942 11.5295 18.4034 11.5295Z" fill="#AA7346"/>
<path d="M22.7571 20.7204C22.6395 20.7204 22.5209 20.6863 22.4164 20.6153C20.7124 19.4519 18.191 18.7849 15.4995 18.7849C12.808 18.7849 10.2866 19.4519 8.58266 20.6153C8.30668 20.8036 7.93057 20.7325 7.74201 20.4565C7.55346 20.1805 7.62483 19.8042 7.90033 19.6158C9.80082 18.319 12.5708 17.5752 15.4996 17.5752C18.4283 17.5752 21.1983 18.319 23.0989 19.6158C23.3744 19.8042 23.4457 20.1805 23.2572 20.4565C23.1399 20.628 22.9504 20.7204 22.7571 20.7204Z" fill="#AA7346"/>
<path d="M11.2622 23.6928L14.1048 16.798C14.1876 16.5971 13.9273 16.4332 13.7819 16.5948L8.78498 22.1499C8.4977 22.4461 8.03287 22.5251 7.69004 22.2955C7.1034 21.9028 6.32334 21.8047 5.59033 22.1586C4.94258 22.4712 4.50295 23.1285 4.43756 23.8448C4.39889 24.2685 4.48162 24.6443 4.64393 24.966C4.79475 25.2648 4.76985 25.7694 4.6277 26.0725C4.30045 26.7701 4.2428 27.601 4.55821 28.4055C5.02321 29.5914 6.25479 30.357 7.52405 30.2491C8.38502 30.1759 9.10461 29.7565 9.58537 29.1543C9.79426 28.8927 10.2357 28.647 10.5705 28.65C10.9308 28.6531 11.3045 28.561 11.6673 28.3388C12.2806 27.9631 12.6754 27.2781 12.6692 26.5588C12.662 25.7449 12.2289 25.0888 11.6171 24.7366C11.2596 24.5308 11.1238 24.0814 11.2622 23.6928Z" fill="white"/>
<path d="M6.00777 27.9126C5.69658 27.1188 5.74855 26.2993 6.06432 25.6075C6.22932 25.2461 6.27244 24.8278 6.0935 24.473C5.9435 24.1757 5.86146 23.8322 5.88045 23.4473C5.90922 22.863 6.19088 22.3181 6.62658 21.9459C6.3441 21.9322 6.05225 21.9725 5.76402 22.0831C5.00025 22.3764 4.47109 23.1229 4.43084 23.94C4.41185 24.3248 4.49394 24.6684 4.64389 24.9657C4.82283 25.3204 4.77971 25.7388 4.61476 26.1002C4.299 26.792 4.24697 27.6115 4.55822 28.4053C5.02322 29.5912 6.2548 30.3568 7.52406 30.2489C8.05533 30.2037 8.53275 30.0267 8.93348 29.7563C7.67857 29.8447 6.46785 29.0859 6.00777 27.9126Z" fill="#FFF1C4"/>
<path d="M19.7402 23.6851L16.8959 16.7982C16.8129 16.5973 17.073 16.4332 17.2185 16.5947L22.2173 22.1423C22.5046 22.4385 22.9694 22.5174 23.3122 22.2879C23.8989 21.8952 24.6789 21.7971 25.4119 22.1509C26.0597 22.4636 26.4993 23.1208 26.5647 23.8372C26.6034 24.2608 26.5206 24.6367 26.3583 24.9583C26.2075 25.2572 26.2324 25.7618 26.3746 26.0649C26.7018 26.7625 26.7595 27.5934 26.4441 28.3979C25.9791 29.5838 24.7475 30.3494 23.4782 30.2415C22.6172 30.1683 21.8977 29.7489 21.4169 29.1467C21.208 28.8851 20.7666 28.6394 20.4318 28.6424C20.0715 28.6455 19.6978 28.5534 19.335 28.3312C18.7216 27.9555 18.3268 27.2705 18.3331 26.5512C18.3402 25.7373 18.7734 25.0812 19.3852 24.729C19.7428 24.5231 19.8786 24.0738 19.7402 23.6851Z" fill="white"/>
<path d="M23.962 28.8163C23.1125 28.7441 22.4006 28.3348 21.92 27.7454C21.6689 27.4375 21.3129 27.2137 20.9156 27.2171C20.5826 27.2201 20.2382 27.1416 19.9015 26.9543C19.2642 26.5997 18.8518 25.9213 18.8224 25.2012C18.5599 25.5143 18.3842 25.9106 18.3425 26.3627C18.2675 27.1774 18.7027 27.9823 19.4177 28.38C19.7544 28.5673 20.0987 28.6458 20.4317 28.6429C20.829 28.6394 21.185 28.8632 21.4362 29.1711C21.9168 29.7604 22.6286 30.1697 23.4782 30.2419C24.7474 30.3498 25.9791 29.5842 26.4441 28.3983C26.5614 28.0992 26.6268 27.7964 26.6463 27.4982C26.0658 28.3747 25.0302 28.9071 23.962 28.8163Z" fill="#FFF1C4"/>
</svg>
