<svg width="31" height="31" viewBox="0 0 31 31" fill="none" xmlns="http://www.w3.org/2000/svg">
<path d="M15.4996 30.2765C23.7836 30.2765 30.4992 23.561 30.4992 15.2769C30.4992 6.99288 23.7836 0.277344 15.4996 0.277344C7.21554 0.277344 0.5 6.99288 0.5 15.2769C0.5 23.561 7.21554 30.2765 15.4996 30.2765Z" fill="#FFD93B"/>
<path d="M30.4992 15.2768C30.4992 23.5641 23.7822 30.2764 15.4997 30.2764C10.7842 30.2764 6.57491 28.1015 3.82343 24.6937C6.39679 26.7749 9.67326 28.0171 13.2403 28.0171C21.5229 28.0171 28.2399 21.3048 28.2399 13.0175C28.2399 9.45042 26.9978 6.17395 24.9166 3.60059C28.3196 6.35207 30.4992 10.5613 30.4992 15.2768Z" fill="#F4C534"/>
<path d="M9.77779 22.8075C11.1277 19.7907 13.2652 19.7579 15.6182 19.1241C17.9807 18.4839 20.1181 20.8866 21.4681 22.1269C21.8862 22.4194 21.4906 23.2134 20.7162 23.5771C17.3207 24.8868 13.9252 22.4344 10.5296 24.0796C9.75529 24.5334 9.35967 23.8453 9.77779 22.8075Z" fill="#3E4347"/>
<path d="M9.77779 22.8075C11.1277 19.7907 13.2652 19.7579 15.6182 19.1241C17.9807 18.4839 20.1181 20.8866 21.4681 22.1269C21.8862 22.4194 21.4906 23.2134 20.7162 23.5771C17.3207 24.8868 13.9252 22.4344 10.5296 24.0796C9.75529 24.5334 9.35967 23.8453 9.77779 22.8075Z" fill="#3E4347"/>
<path d="M18.9267 23.9586C18.8545 23.3465 18.5555 22.4521 18.2293 22.0415C17.8196 21.5268 17.0537 21.2793 16.4115 21.5896C16.1659 21.7125 15.8996 21.7996 15.6174 21.8418C15.3287 21.8821 15.0447 21.8699 14.7728 21.8053C13.7584 21.5456 12.7572 22.0115 12.5294 23.1393C12.5022 23.2677 12.4975 23.4008 12.4854 23.533C14.6322 23.3043 16.7799 24.1039 18.9267 23.9586Z" fill="#E24B4B"/>
<g opacity="0.2">
<path opacity="0.2" d="M17.4586 22.0773C17.1825 21.9565 16.8945 22.0055 16.8152 22.1867C16.7359 22.3679 16.8955 22.6127 17.1716 22.7335C17.4476 22.8542 17.7357 22.8053 17.815 22.624C17.8943 22.4428 17.7347 22.198 17.4586 22.0773Z" fill="white"/>
</g>
<path d="M28.597 28.5802C28.7123 28.6477 28.7789 28.7199 28.7789 28.7911C28.7789 28.9233 28.5755 29.0433 28.2239 29.1455C28.8511 29.2627 29.2354 29.4239 29.2354 29.6086C29.2354 29.978 27.608 30.2789 25.6065 30.2789C24.1768 30.2789 22.9403 30.1242 22.3516 29.8983C22.3516 29.8983 22.3516 29.8983 22.3459 29.8983C22.2306 29.902 22.1041 29.902 21.9831 29.902C19.976 29.902 18.3542 29.6011 18.3542 29.2317C18.3542 29.0358 18.8107 28.8586 19.5363 28.7386C18.8932 28.6186 18.492 28.4527 18.492 28.268C18.492 27.8949 20.1138 27.5977 22.1153 27.5977C22.6872 27.5977 23.2262 27.6202 23.7043 27.6652C24.3203 27.458 25.508 27.3184 26.8711 27.3184C28.8726 27.3184 30.5001 27.6202 30.5001 27.9887C30.4992 28.2408 29.7295 28.463 28.597 28.5802Z" fill="#45CBEA"/>
<path d="M26.5869 29.0387C27.1907 28.9355 27.62 28.3974 27.5769 27.7862C27.3763 24.9278 26.9151 21.9992 25.8538 19.3752C24.9642 16.9631 23.7661 14.6325 22.1255 12.4004C21.7402 12.6957 21.264 12.901 20.7015 12.9835C21.8114 15.4087 22.4564 17.7852 22.792 20.1664C23.0873 21.8361 23.1717 24.3232 22.7114 27.6006C22.6374 28.1284 22.9327 28.6496 23.4295 28.8418C24.2629 29.1624 25.2885 29.2599 26.5869 29.0387Z" fill="#45CBEA"/>
<g opacity="0.2">
<path opacity="0.2" d="M23.5861 19.8802C23.1802 17.7868 22.2043 15.0147 21.0634 12.9082C21.0503 12.912 21.0371 12.9157 21.0231 12.9185C22.0955 15.0672 22.8371 17.6312 23.3077 19.9374C23.9349 22.7226 23.9508 25.5828 23.6986 28.489C24.1899 24.4523 23.9658 21.5592 23.5861 19.8802Z" fill="white"/>
</g>
<g opacity="0.2">
<path opacity="0.2" d="M24.3914 19.75C23.6255 16.8785 22.4358 14.3707 21.474 12.7695C21.4674 12.7723 21.4608 12.7742 21.4543 12.777C22.418 14.442 23.5561 16.9919 24.2545 19.7856C25.1142 22.7977 25.1217 25.7695 24.9726 28.5894C24.9501 28.8772 25.2332 28.8997 25.2557 28.6119C25.3617 25.7432 25.2192 22.4864 24.3914 19.75Z" fill="white"/>
</g>
<g opacity="0.2">
<path opacity="0.2" d="M25.2756 19.6018C24.5472 17.2478 23.3838 14.6632 21.9551 12.5117C21.8829 12.5595 21.8069 12.6045 21.7291 12.6458C23.171 14.742 24.3719 17.2891 25.1415 19.6468C26.3556 22.9308 26.4681 26.2035 26.529 28.7113C26.5018 25.6851 26.3827 22.8202 25.2756 19.6018Z" fill="white"/>
</g>
<path d="M20.4756 13.478C19.4078 13.478 18.341 13.0552 17.4701 12.2096C17.2226 11.9686 17.217 11.574 17.457 11.3255C17.6969 11.078 18.0935 11.0724 18.341 11.3124C19.5972 12.533 21.3531 12.533 22.6102 11.3124C22.8577 11.0715 23.2534 11.078 23.4943 11.3255C23.7352 11.573 23.7287 11.9686 23.4812 12.2096C22.6102 13.0552 21.5434 13.478 20.4756 13.478Z" fill="#3E4347"/>
<path d="M2.40213 28.5773C2.28682 28.6448 2.2212 28.717 2.2212 28.7882C2.2212 28.9204 2.42463 29.0404 2.77619 29.1426C2.14995 29.2598 1.76465 29.421 1.76465 29.6057C1.76465 29.9741 3.39211 30.276 5.39361 30.276C6.82326 30.276 8.05979 30.1213 8.64852 29.8954C8.64852 29.8954 8.64852 29.8954 8.65414 29.8954C8.76945 29.8991 8.89601 29.8991 9.01695 29.8991C11.0241 29.8991 12.6459 29.5982 12.6459 29.2288C12.6459 29.0329 12.1894 28.8557 11.4638 28.7357C12.1069 28.6157 12.5081 28.4498 12.5081 28.2651C12.5081 27.892 10.8863 27.5948 8.88476 27.5948C8.3129 27.5948 7.77386 27.6173 7.29574 27.6623C6.67982 27.4551 5.49205 27.3154 4.12896 27.3154C2.12745 27.3145 0.5 27.6164 0.5 27.9857C0.5 28.2379 1.26967 28.4601 2.40213 28.5773Z" fill="#45CBEA"/>
<path d="M4.44658 28.7986C3.85129 28.6973 3.42849 28.1667 3.47067 27.5639C3.66848 24.7468 4.12315 21.8594 5.16937 19.2729C6.04591 16.8955 7.22713 14.5977 8.84521 12.3975C9.22488 12.6881 9.69362 12.8906 10.2486 12.9731C9.15457 15.3636 8.51897 17.7064 8.18804 20.0538C7.89742 21.7 7.81399 24.1506 8.26772 27.3811C8.34085 27.9014 8.04929 28.4151 7.55993 28.6045C6.73777 28.9214 5.72717 29.017 4.44658 28.7986Z" fill="#45CBEA"/>
<g opacity="0.2">
<path opacity="0.2" d="M7.40404 19.7711C7.8034 17.7077 8.76619 14.9749 9.89022 12.8984C9.90334 12.9022 9.91647 12.9059 9.92959 12.9087C8.87306 15.0265 8.14089 17.5539 7.67778 19.8273C7.05905 22.5732 7.04405 25.3921 7.29248 28.2571C6.80968 24.2784 7.03092 21.4266 7.40404 19.7711Z" fill="white"/>
</g>
<g opacity="0.2">
<path opacity="0.2" d="M6.61105 19.6448C7.36572 16.8145 8.53944 14.3424 9.48722 12.7646C9.49379 12.7675 9.50035 12.7693 9.50691 12.7721C8.55631 14.4137 7.43509 16.927 6.74699 19.6804C5.89951 22.6494 5.89295 25.579 6.0392 28.3586C6.05607 28.5686 5.7767 28.5901 5.75983 28.3811C5.65483 25.5527 5.79545 22.3428 6.61105 19.6448Z" fill="white"/>
</g>
<g opacity="0.2">
<path opacity="0.2" d="M5.73954 19.5006C6.45764 17.1803 7.60417 14.6332 9.01319 12.5117C9.08444 12.5586 9.1585 12.6027 9.23631 12.6439C7.8151 14.711 6.63201 17.2206 5.87266 19.5456C4.6755 22.7817 4.56488 26.0085 4.50488 28.4806C4.53113 25.4976 4.64832 22.673 5.73954 19.5006Z" fill="white"/>
</g>
<path d="M10.5235 13.478C9.45569 13.478 8.38884 13.0552 7.51793 12.2096C7.27044 11.9686 7.26481 11.574 7.5048 11.3255C7.7448 11.078 8.14041 11.0724 8.38884 11.3124C9.64506 12.533 11.4009 12.533 12.6581 11.3124C12.9056 11.0715 13.3012 11.078 13.5421 11.3255C13.7821 11.573 13.7765 11.9686 13.529 12.2096C12.6581 13.0552 11.5903 13.478 10.5235 13.478Z" fill="#3E4347"/>
<path d="M17.844 6.40156C17.7147 6.08189 17.8684 5.71721 18.189 5.58784C18.5087 5.45847 18.8734 5.61221 19.0028 5.93189C20.2224 8.94212 23.4201 8.48276 23.5542 8.46213C23.8917 8.41057 24.2142 8.64306 24.2676 8.9843C24.3201 9.32554 24.0867 9.64428 23.7454 9.69772C21.8958 9.98271 19.0112 9.28242 17.844 6.40156Z" fill="#E9B02C"/>
<path d="M7.25336 9.69772C6.91212 9.64522 6.67869 9.32554 6.73119 8.9843C6.78463 8.644 7.10337 8.40963 7.44367 8.46213C7.58617 8.48275 10.7867 8.91868 11.997 5.93189C12.1273 5.61221 12.491 5.45847 12.8107 5.58784C13.1304 5.71721 13.2851 6.08189 13.1548 6.40156C12.0663 9.08649 9.35143 10.0211 7.25336 9.69772Z" fill="#E9B02C"/>
<path d="M26.9291 13.6872C27.3641 14.1185 27.3678 14.8206 26.9366 15.2566C26.5054 15.6916 25.8032 15.6953 25.3673 15.2641C24.9313 14.8328 24.5404 12.8848 24.5404 12.8848C24.5404 12.8848 26.4932 13.256 26.9291 13.6872Z" fill="#45CBEA"/>
<g opacity="0.2">
<path opacity="0.2" d="M26.9116 14.3853C26.876 14.197 26.7506 14.0627 26.6316 14.0852C26.5125 14.1077 26.4449 14.2786 26.4805 14.4668C26.5161 14.655 26.6414 14.7894 26.7605 14.7669C26.8795 14.7443 26.9472 14.5735 26.9116 14.3853Z" fill="white"/>
</g>
<path d="M28.7457 17.9238C28.936 18.5059 28.6182 19.1331 28.0361 19.3234C27.4539 19.5137 26.8267 19.1959 26.6364 18.6138C26.4461 18.0316 26.988 16.1191 26.988 16.1191C26.988 16.1191 28.5545 17.3416 28.7457 17.9238Z" fill="#45CBEA"/>
<g opacity="0.2">
<path opacity="0.2" d="M28.3007 18.1378C28.1845 18.1034 28.0463 18.2246 27.9921 18.4083C27.9378 18.592 27.988 18.7688 28.1042 18.8031C28.2204 18.8374 28.3586 18.7163 28.4129 18.5326C28.4671 18.3488 28.4169 18.1721 28.3007 18.1378Z" fill="white"/>
</g>
<path d="M4.53545 13.7041C4.14827 14.1794 4.22046 14.8778 4.69576 15.265C5.17106 15.6522 5.86947 15.58 6.25665 15.1047C6.64383 14.6294 6.82382 12.6504 6.82382 12.6504C6.82382 12.6504 4.92263 13.2288 4.53545 13.7041Z" fill="#45CBEA"/>
<g opacity="0.2">
<path opacity="0.2" d="M4.86944 14.0674C4.74918 14.0578 4.63929 14.2048 4.62399 14.3957C4.60868 14.5867 4.69376 14.7493 4.81401 14.7589C4.93426 14.7686 5.04415 14.6216 5.05945 14.4306C5.07476 14.2397 4.98969 14.077 4.86944 14.0674Z" fill="white"/>
</g>
<path d="M2.00097 19.4566C1.93066 20.065 2.36658 20.6162 2.97594 20.6865C3.58436 20.7569 4.1356 20.3209 4.20591 19.7116C4.27622 19.1032 3.36406 17.3379 3.36406 17.3379C3.36406 17.3379 2.07128 18.8472 2.00097 19.4566Z" fill="#45CBEA"/>
<g opacity="0.2">
<path opacity="0.2" d="M2.83849 19.7837C2.74862 19.6145 2.58903 19.5235 2.48203 19.5803C2.37502 19.6371 2.36113 19.8204 2.45099 19.9895C2.54086 20.1587 2.70045 20.2498 2.80745 20.193C2.91446 20.1362 2.92835 19.9529 2.83849 19.7837Z" fill="white"/>
</g>
</svg>
