<svg width="20" height="21" viewBox="0 0 20 21" fill="none" xmlns="http://www.w3.org/2000/svg">
<path d="M12.1159 4.78613L2.21211 14.7012C2.16229 14.7512 2.12631 14.8144 2.10918 14.8822L1.01143 19.293C0.978597 19.4258 1.01757 19.567 1.11437 19.6639C1.18761 19.7372 1.2874 19.7778 1.38948 19.7778C1.42075 19.7778 1.45273 19.7739 1.48385 19.7661L5.88995 18.667C5.95863 18.6499 6.02101 18.614 6.07084 18.5641L15.9755 8.64981L12.1159 4.78613Z" fill="white"/>
<path d="M18.4295 3.4339L17.327 2.33028C16.5902 1.59267 15.306 1.59339 14.57 2.33028L13.2196 3.68215L17.079 7.54569L18.4295 6.19382C18.7975 5.82551 19.0003 5.3353 19.0003 4.81393C19.0003 4.29256 18.7975 3.80235 18.4295 3.4339Z" fill="white"/>
</svg>
