<svg width="27" height="28" viewBox="0 0 27 28" fill="none" xmlns="http://www.w3.org/2000/svg">
<path d="M6.16101 5.2375H8.26913C8.36617 5.2375 8.44479 5.15794 8.44479 5.05989V0.796754C8.44479 0.698632 8.36617 0.619141 8.26913 0.619141H6.16101C6.06397 0.619141 5.98535 0.6987 5.98535 0.796754V5.05989C5.98535 5.15801 6.06397 5.2375 6.16101 5.2375Z" fill="#4C5BD4"/>
<path d="M25.0986 3.81641H22.4986V4.95321C22.4986 5.62824 22.0068 6.30319 21.3392 6.30319H19.2662C18.5509 6.25192 17.9818 5.67651 17.9311 4.95321V3.81641H9.49866V4.95321C9.44795 5.67651 8.87888 6.25192 8.16353 6.30319H6.09053C5.42293 6.30319 4.93106 5.62817 4.93106 4.95321V3.81641H2.33108C1.43281 3.83579 0.714642 4.57772 0.714844 5.48619V9.85586H26.7148V5.48619C26.715 4.57772 25.9969 3.83579 25.0986 3.81641Z" fill="#4C5BD4"/>
<path d="M19.161 5.2375H21.2691C21.3662 5.2375 21.4448 5.15794 21.4448 5.05989V0.796754C21.4448 0.698632 21.3661 0.619141 21.2691 0.619141H19.161C19.064 0.619141 18.9854 0.6987 18.9854 0.796754V5.05989C18.9854 5.15801 19.064 5.2375 19.161 5.2375Z" fill="#4C5BD4"/>
<path d="M0.714844 26.0204C0.733943 26.9091 1.45198 27.6193 2.33108 27.6191H25.0986C25.9776 27.6193 26.6957 26.9091 26.7148 26.0204V10.9219H0.714844V26.0204ZM7.25 17.4587C7.30609 17.2646 7.47273 17.1242 7.67159 17.1035L11.2905 16.5351L12.9067 13.2311C13.0519 12.9761 13.3742 12.8883 13.6264 13.0351C13.707 13.0821 13.7739 13.1497 13.8203 13.2311L15.4365 16.5351L19.0554 17.1035C19.2543 17.1242 19.421 17.2647 19.477 17.4587C19.5407 17.6487 19.4853 17.8589 19.3364 17.9916L16.7365 20.5494L17.3689 24.2086C17.3933 24.4008 17.3125 24.5913 17.158 24.706C17.0657 24.773 16.9555 24.8101 16.8418 24.8125C16.7539 24.8209 16.6661 24.7956 16.5959 24.7415L13.3635 23.0362L10.1311 24.7415C9.95489 24.85 9.73041 24.8358 9.56894 24.706C9.41446 24.5912 9.33376 24.4008 9.35811 24.2086L9.99053 20.5494L7.39055 17.9916C7.24166 17.8589 7.18625 17.6487 7.25 17.4587Z" fill="#4C5BD4"/>
</svg>
