<svg width="17" height="21" viewBox="0 0 17 21" fill="none" xmlns="http://www.w3.org/2000/svg">
<path d="M15.2914 1.89979C14.843 1.57451 14.2346 1.39111 13.5995 1.38976H3.40022V1.37891C2.76419 1.37972 2.15456 1.56317 1.70534 1.88894C1.25574 2.2134 1.00226 2.65361 1.00038 3.11301V18.618C0.990785 18.9978 1.16125 19.3685 1.48335 19.6684C1.93542 20.0887 2.71844 20.2403 3.40022 20.0396C4.00003 19.8493 4.49725 19.5224 4.81613 19.1085L8.49988 14.8589L12.1836 19.1085C12.5025 19.5224 12.9997 19.8493 13.5995 20.0396C14.2839 20.2428 15.0715 20.091 15.5254 19.6684C15.8443 19.3676 16.0115 18.997 15.9994 18.618V3.11301C15.9928 2.65702 15.7385 2.22127 15.2914 1.89979ZM14.5595 19.1172C14.5004 19.1734 14.4186 19.2151 14.3255 19.2365C14.2251 19.2524 14.1204 19.2456 14.0255 19.217C13.6753 19.0953 13.3867 18.8972 13.2006 18.6505L9.00085 13.8107C8.95015 13.7496 8.87951 13.6984 8.79506 13.6618C8.51091 13.5384 8.14238 13.6051 7.97192 13.8107L3.7722 18.644C3.59011 18.8941 3.30348 19.0961 2.95325 19.2213C2.85846 19.2501 2.75369 19.2569 2.65327 19.2409C2.56013 19.2195 2.47839 19.1778 2.41929 19.1215C2.27552 18.9756 2.20368 18.7991 2.2153 18.6201V3.11518C2.2234 2.64416 2.74919 2.26376 3.40022 2.2579H8.49988H13.5995C14.2446 2.26614 14.762 2.64628 14.7635 3.11301V18.6158C14.7751 18.7947 14.7032 18.9713 14.5595 19.1172Z" fill="#666666" stroke="#666666"/>
</svg>
