<svg width="24" height="24" viewBox="0 0 24 24" fill="none" xmlns="http://www.w3.org/2000/svg">
<path d="M23.4566 11.0924L1.48279 0.105486C1.31056 0.0193555 1.11711 -0.0151552 0.925728 0.00610962C0.734344 0.0273744 0.553188 0.103508 0.404071 0.225343C0.261665 0.344694 0.155374 0.501401 0.097146 0.677848C0.0389185 0.854295 0.0310633 1.04349 0.0744637 1.22415L2.72131 10.9825H14.0179V12.9801H2.72131L0.0345113 22.7086C-0.00621371 22.8594 -0.0109676 23.0178 0.0206321 23.1708C0.0522318 23.3239 0.119303 23.4674 0.216454 23.5898C0.313604 23.7122 0.438121 23.8101 0.579995 23.8756C0.721869 23.9411 0.877139 23.9725 1.03332 23.9671C1.18968 23.9661 1.34363 23.9285 1.48279 23.8572L23.4566 12.8703C23.6202 12.7865 23.7575 12.6591 23.8534 12.5023C23.9493 12.3454 24 12.1652 24 11.9813C24 11.7975 23.9493 11.6172 23.8534 11.4604C23.7575 11.3036 23.6202 11.1762 23.4566 11.0924Z" fill="#4C5BD4"/>
</svg>
