<svg width="22" height="22" viewBox="0 0 22 22" fill="none" xmlns="http://www.w3.org/2000/svg">
<path d="M21.0187 10.2213L1.76871 0.596317C1.61783 0.520863 1.44836 0.49063 1.2807 0.509259C1.11304 0.527887 0.954343 0.594584 0.82371 0.701316C0.698956 0.805873 0.60584 0.943155 0.554831 1.09773C0.503821 1.25231 0.496939 1.41804 0.53496 1.57632L2.85371 10.1251H12.75V11.8751H2.85371L0.49996 20.3976C0.464283 20.5297 0.460118 20.6684 0.487801 20.8025C0.515484 20.9366 0.574241 21.0623 0.659349 21.1695C0.744457 21.2768 0.853539 21.3625 0.977827 21.4199C1.10211 21.4774 1.23814 21.5048 1.37496 21.5001C1.51193 21.4992 1.6468 21.4663 1.76871 21.4038L21.0187 11.7788C21.162 11.7054 21.2823 11.5938 21.3663 11.4564C21.4503 11.319 21.4947 11.1611 21.4947 11.0001C21.4947 10.839 21.4503 10.6811 21.3663 10.5437C21.2823 10.4063 21.162 10.2947 21.0187 10.2213Z" fill="#4C5BD4"/>
</svg>
