<svg width="20" height="20" viewBox="0 0 20 20" fill="none" xmlns="http://www.w3.org/2000/svg">
<path d="M14.9226 4.55236L15.5135 3.81754C16.3233 2.81315 16.1591 1.3457 15.1458 0.541323L15.1086 0.510888C14.0975 -0.293493 12.6202 -0.130443 11.8104 0.87612L11.2217 1.60876L14.9226 4.55236Z" fill="#474747"/>
<path d="M11.3267 10.7287C11.3464 10.9069 11.4361 11.0765 11.5871 11.1983C11.8913 11.4396 12.3356 11.3917 12.5786 11.0896L16.6384 6.04587C16.8857 5.73933 16.831 5.28931 16.5137 5.05017C16.2073 4.81973 15.7673 4.88495 15.5266 5.18279L15.1305 5.67411L14.452 5.13496L14.4542 5.13279L10.7555 2.18701L1.29199 13.9375L4.9929 16.8811L13.5744 6.22848L14.2528 6.76763L11.4777 10.2134C11.3552 10.3634 11.307 10.5504 11.3267 10.7287Z" fill="#474747"/>
<path d="M4.37806 17.4249L0.891631 14.6509C0.834727 14.8444 0.806276 15.0139 0.806276 15.0139L0.00743876 18.8141C-0.0494647 19.088 0.230675 19.3119 0.486741 19.1945L4.04539 17.5858C4.04321 17.5858 4.20079 17.5206 4.37806 17.4249Z" fill="#474747"/>
<path d="M19.4934 18.1047C19.4627 18.1047 19.4343 18.1069 19.4036 18.1113L14.0263 18.8026C13.7505 18.8374 13.5579 18.5374 13.7067 18.3026C13.7877 18.1786 13.8665 18.0526 13.9453 17.9265C14.1532 17.5917 13.8752 17.146 13.49 17.146C13.4638 17.146 13.4375 17.1482 13.4091 17.1525L6.36178 18.2047L5.51917 18.3308L3.22115 18.6743C2.96071 18.7135 2.78562 18.933 2.80751 19.1961C2.81626 19.3135 2.86441 19.4244 2.94101 19.507C3.03074 19.6048 3.15549 19.6592 3.29119 19.6592C3.31745 19.6592 3.34371 19.657 3.37216 19.6526L11.772 18.3982C12.0587 18.3548 12.2557 18.6765 12.0871 18.9113C12.0324 18.9852 11.9777 19.0613 11.923 19.1352C11.772 19.3396 11.807 19.6809 11.9821 19.857C12.0718 19.9483 12.1856 19.9961 12.306 19.9961C12.3192 19.9961 12.3345 19.9961 12.3476 19.9939H12.3498H12.352L19.6028 19.0765H19.605H19.6072C19.7319 19.057 19.8414 18.9852 19.9136 18.8743C19.9924 18.7526 20.0208 18.6026 19.9858 18.4678C19.9289 18.2482 19.7363 18.1047 19.4934 18.1047Z" fill="#474747"/>
</svg>
