<svg width="20" height="20" viewBox="0 0 20 20" fill="none" xmlns="http://www.w3.org/2000/svg">
<path d="M18.5136 5.69259C18.3906 4.75949 17.8951 3.75769 17.0669 2.92586C16.2387 2.09765 15.2369 1.60579 14.3002 1.48282C13.877 1.42857 13.3128 1.19349 12.9729 0.933092C12.2278 0.358047 11.1718 0 9.99638 0C8.82098 0 7.76492 0.358047 7.01627 0.933092C6.67631 1.19349 6.11212 1.42495 5.68897 1.48282C4.75588 1.60579 3.75407 2.09765 2.92586 2.92948C2.09765 3.75769 1.60217 4.75949 1.4792 5.6962C1.42495 6.11935 1.18987 6.68354 0.929476 7.02351C0.358047 7.76854 0 8.82459 0 9.99638C0 11.1718 0.358047 12.2278 0.933092 12.9765C1.19349 13.3165 1.42495 13.8807 1.48282 14.3038C1.60579 15.2369 2.10127 16.2387 2.92948 17.0705C3.75769 17.8987 4.75949 18.3942 5.69259 18.5172C6.11573 18.5714 6.67993 18.8065 7.01989 19.0669C7.76854 19.642 8.82459 20 10 20C11.1754 20 12.2315 19.642 12.9801 19.0669C13.3201 18.8065 13.8843 18.575 14.3074 18.5172C15.2405 18.3942 16.2423 17.8987 17.0705 17.0705C17.8987 16.2423 18.3942 15.2405 18.5172 14.3038C18.5714 13.8807 18.8065 13.3165 19.0669 12.9765C19.642 12.2278 20 11.1718 20 9.99638C20 8.82098 19.642 7.76492 19.0669 7.01627C18.8029 6.67993 18.5678 6.11573 18.5136 5.69259ZM11.1935 15.6673C11.1935 15.9132 10.9946 16.1085 10.7523 16.1085H9.31646C9.07053 16.1085 8.87523 15.9096 8.87523 15.6673V14.2351C8.87523 13.9892 9.07414 13.7939 9.31646 13.7939H10.7523C10.9982 13.7939 11.1935 13.9928 11.1935 14.2351V15.6673ZM13.906 8.81374C13.6166 9.26944 12.9982 9.8915 12.0542 10.6799C11.566 11.0886 11.2586 11.4141 11.1429 11.6637C11.0561 11.8481 11.0018 12.1447 10.9873 12.5497C10.9765 12.7957 10.7848 12.991 10.5389 12.991H9.32007C9.07414 12.991 8.87523 12.868 8.87161 12.7161C8.86799 12.575 8.86799 12.481 8.86799 12.4412C8.86799 11.7577 8.98011 11.1971 9.20796 10.7559C9.43219 10.3146 9.88427 9.81917 10.5606 9.26944C11.2369 8.71971 11.642 8.35805 11.7722 8.18807C11.9747 7.91682 12.0759 7.62025 12.0759 7.29476C12.0759 6.84268 11.8951 6.4557 11.5371 6.13382C11.1754 5.81194 10.6908 5.64919 10.0796 5.64919C9.66004 5.64919 9.29114 5.73599 8.96926 5.90597C8.75226 6.0217 8.44846 6.2821 8.30018 6.4774C8.13743 6.69439 8.00362 6.95841 7.90235 7.26221C7.8264 7.49367 7.59132 7.66365 7.34901 7.63472L6.09765 7.4792C5.85533 7.45027 5.66727 7.22604 5.71067 6.98734C5.85533 6.19168 6.25678 5.5009 6.91863 4.91863C7.6962 4.23146 8.71971 3.88788 9.98553 3.88788C11.3165 3.88788 12.3761 4.23508 13.1646 4.93309C13.953 5.62749 14.3436 6.44123 14.3436 7.36347C14.34 7.87342 14.1953 8.35443 13.906 8.81374Z" fill="#474747"/>
</svg>
