<svg width="20" height="22" viewBox="0 0 20 22" fill="none" xmlns="http://www.w3.org/2000/svg">
<path d="M10 0C6.6916 0 4 2.60223 4 5.80078C4 8.99933 6.6916 11.6016 10 11.6016C13.3084 11.6016 16 8.99933 16 5.80078C16 2.60223 13.3084 0 10 0Z" fill="#474747"/>
<path d="M17.4652 15.3912C15.8225 13.7787 13.6448 12.8906 11.3333 12.8906H8.66667C6.3552 12.8906 4.17751 13.7787 2.53484 15.3912C0.900222 16.9958 0 19.1139 0 21.3555C0 21.7114 0.298489 22 0.666667 22H19.3333C19.7015 22 20 21.7114 20 21.3555C20 19.1139 19.0998 16.9958 17.4652 15.3912Z" fill="#474747"/>
</svg>
