<svg width="20" height="20" viewBox="0 0 20 20" fill="none" xmlns="http://www.w3.org/2000/svg">
<path d="M12.4998 10.8333C12.039 10.8333 11.6665 11.2066 11.6665 11.6665V15C11.6665 15.4591 11.2931 15.8333 10.8331 15.8333H8.33314V3.33328C8.33314 2.62161 7.87981 1.98578 7.19821 1.74911L6.95148 1.66656H10.8331C11.2931 1.66656 11.6665 2.04071 11.6665 2.5V4.99999C11.6665 5.45989 12.039 5.83327 12.4998 5.83327C12.9606 5.83327 13.3331 5.45989 13.3331 4.99999V2.5C13.3331 1.12167 12.2114 0 10.8331 0H1.87497C1.84323 0 1.81668 0.0141907 1.78586 0.0183105C1.74573 0.0149536 1.70743 0 1.66669 0C0.747515 0 0 0.747374 0 1.66656V16.6665C0 17.3782 0.453331 18.014 1.13493 18.2507L6.14995 19.9225C6.31993 19.9749 6.489 20 6.66661 20C7.58578 20 8.33314 19.2524 8.33314 18.3333V17.5H10.8331C12.2114 17.5 13.3331 16.3783 13.3331 15V11.6665C13.3331 11.2066 12.9606 10.8333 12.4998 10.8333Z" fill="#474747"/>
<path d="M19.7554 7.74368L16.4221 4.41041C16.1839 4.17207 15.8255 4.10035 15.5139 4.22944C15.2031 4.35868 14.9997 4.66279 14.9997 4.99955V7.49954H11.6664C11.2064 7.49954 10.833 7.87277 10.833 8.33282C10.833 8.79287 11.2064 9.1661 11.6664 9.1661H14.9997V11.6661C14.9997 12.0029 15.2031 12.307 15.5139 12.4362C15.8255 12.5653 16.1839 12.4936 16.4221 12.2554L19.7554 8.92196C20.0812 8.59619 20.0812 8.06946 19.7554 7.74368Z" fill="#474747"/>
</svg>
