<svg width="20" height="20" viewBox="0 0 20 20" fill="none" xmlns="http://www.w3.org/2000/svg">
<path d="M19.5941 15.3256L12.5212 1.52169C11.9874 0.568989 11.0446 0 9.99926 0C8.95394 0 8.01113 0.568989 7.4773 1.52169C7.47327 1.52898 7.46988 1.53627 7.46585 1.54356L0.416463 15.3038C-0.128812 16.2766 -0.139124 17.4448 0.388377 18.4285C0.917089 19.4128 1.86959 20 2.93783 20H17.0216C18.0899 20 19.0815 19.4128 19.6102 18.4285C20.1377 17.4449 20.1274 16.2765 19.5941 15.3256ZM8.82621 6.32054C8.82621 5.63369 9.3514 5.07696 9.99926 5.07696C10.6471 5.07696 11.1723 5.63374 11.1723 6.32054V11.2949C11.1723 11.9816 10.6471 12.5385 9.99926 12.5385C9.3514 12.5385 8.82621 11.9816 8.82621 11.2949V6.32054ZM9.99926 17.5128C9.02898 17.5128 8.23964 16.6761 8.23964 15.6474C8.23964 14.6188 9.02894 13.7821 9.99926 13.7821C10.9695 13.7821 11.7588 14.6188 11.7588 15.6474C11.7589 16.6761 10.9696 17.5128 9.99926 17.5128Z" fill="#474747"/>
</svg>
