<svg width="22" height="22" viewBox="0 0 22 22" fill="none" xmlns="http://www.w3.org/2000/svg">
<path d="M2.29165 9.16699C1.0285 9.16699 0 10.1955 0 11.4586V18.792C0 20.0551 1.0285 21.0836 2.29165 21.0836H5.04165C5.55774 21.0836 6.03255 20.9095 6.41664 20.6198V9.16699H2.29165Z" fill="#4C5BD4"/>
<path d="M21.9996 12.6041C21.9996 12.0532 21.7815 11.5399 21.4029 11.1613C21.831 10.6929 22.0491 10.0649 21.9895 9.41139C21.8823 8.24629 20.8327 7.3333 19.5989 7.3333H13.9367C14.2171 6.4817 14.6663 4.92065 14.6663 3.66665C14.6663 1.6784 12.9769 0 11.9163 0C10.9639 0 10.2837 0.536249 10.2544 0.558249C10.1463 0.645347 10.083 0.777347 10.083 0.916651V4.02505L7.44301 9.74414L7.33301 9.80004V19.6249C8.07916 19.9769 9.02331 20.1666 9.62466 20.1666H18.0387C19.037 20.1666 19.9106 19.4938 20.1159 18.5652C20.2213 18.0876 20.1599 17.6064 19.95 17.1884C20.6274 16.8474 21.083 16.1498 21.083 15.3541C21.083 15.0296 21.0087 14.7189 20.8676 14.4375C21.545 14.0965 21.9996 13.3989 21.9996 12.6041Z" fill="#4C5BD4"/>
</svg>
