<svg width="16" height="21" viewBox="0 0 16 21" fill="none" xmlns="http://www.w3.org/2000/svg">
<path d="M8.11463 0.277344C5.76111 0.277344 3.84586 2.10256 3.84586 4.3456V10.2773C3.84586 12.5208 5.76111 14.3456 8.11463 14.3456C10.4681 14.3456 12.3834 12.5208 12.3834 10.2773V4.3456C12.3834 2.10256 10.4681 0.277344 8.11463 0.277344ZM8.11463 13.476C6.43747 13.476 5.05012 12.2704 4.82862 10.7121H11.4002C11.1791 12.2708 9.79178 13.476 8.11463 13.476ZM11.4348 9.84256H4.79447V4.3456C4.79447 2.58169 6.2838 1.14691 8.11463 1.14691C9.94546 1.14691 11.4348 2.58169 11.4348 4.3456V9.84256Z" fill="#666666"/>
<path d="M14.7549 8.10343C14.4931 8.10343 14.2806 8.29821 14.2806 8.53821V10.2773C14.2806 13.3939 11.5145 15.9295 8.11462 15.9295C4.71478 15.9295 1.94862 13.3939 1.94862 10.2773V8.53821C1.94862 8.29821 1.73613 8.10343 1.47431 8.10343C1.21249 8.10343 1 8.29821 1 8.53821V10.2773C1 13.7265 3.93834 16.5517 7.64032 16.7769V19.4078H5.26877C5.00696 19.4078 4.79447 19.6026 4.79447 19.8426C4.79447 20.0826 5.00696 20.2773 5.26877 20.2773H10.9605C11.2223 20.2773 11.4348 20.0826 11.4348 19.8426C11.4348 19.6026 11.2223 19.4078 10.9605 19.4078H8.58893V16.7769C12.2909 16.5517 15.2292 13.7265 15.2292 10.2773V8.53821C15.2292 8.29821 15.0168 8.10343 14.7549 8.10343Z" fill="#666666"/>
<path d="M8.11463 0.277344C5.76111 0.277344 3.84586 2.10256 3.84586 4.3456V10.2773C3.84586 12.5208 5.76111 14.3456 8.11463 14.3456C10.4681 14.3456 12.3834 12.5208 12.3834 10.2773V4.3456C12.3834 2.10256 10.4681 0.277344 8.11463 0.277344ZM8.11463 13.476C6.43747 13.476 5.05012 12.2704 4.82862 10.7121H11.4002C11.1791 12.2708 9.79178 13.476 8.11463 13.476ZM11.4348 9.84256H4.79447V4.3456C4.79447 2.58169 6.2838 1.14691 8.11463 1.14691C9.94546 1.14691 11.4348 2.58169 11.4348 4.3456V9.84256Z" stroke="#666666" stroke-width="0.5"/>
<path d="M14.7549 8.10343C14.4931 8.10343 14.2806 8.29821 14.2806 8.53821V10.2773C14.2806 13.3939 11.5145 15.9295 8.11462 15.9295C4.71478 15.9295 1.94862 13.3939 1.94862 10.2773V8.53821C1.94862 8.29821 1.73613 8.10343 1.47431 8.10343C1.21249 8.10343 1 8.29821 1 8.53821V10.2773C1 13.7265 3.93834 16.5517 7.64032 16.7769V19.4078H5.26877C5.00696 19.4078 4.79447 19.6026 4.79447 19.8426C4.79447 20.0826 5.00696 20.2773 5.26877 20.2773H10.9605C11.2223 20.2773 11.4348 20.0826 11.4348 19.8426C11.4348 19.6026 11.2223 19.4078 10.9605 19.4078H8.58893V16.7769C12.2909 16.5517 15.2292 13.7265 15.2292 10.2773V8.53821C15.2292 8.29821 15.0168 8.10343 14.7549 8.10343Z" stroke="#666666" stroke-width="0.5"/>
</svg>
