<svg width="4" height="19" viewBox="0 0 4 19" fill="none" xmlns="http://www.w3.org/2000/svg">
<path d="M1.99989 4.27757C0.895258 4.27757 -0.00022316 3.38209 -0.00022316 2.27745C-0.00022316 1.17282 0.895258 0.277344 1.99989 0.277344C3.10452 0.277344 4 1.17282 4 2.27745C4 3.38209 3.10452 4.27757 1.99989 4.27757Z" fill="#999999"/>
<path d="M1.99989 11.2776C0.895258 11.2776 -0.00022316 10.3821 -0.00022316 9.27746C-0.00022316 8.17282 0.895258 7.27734 1.99989 7.27734C3.10452 7.27734 4 8.17282 4 9.27746C4 10.3821 3.10452 11.2776 1.99989 11.2776Z" fill="#999999"/>
<path d="M1.99989 18.2776C0.895258 18.2776 -0.00022316 17.3821 -0.00022316 16.2775C-0.00022316 15.1728 0.895258 14.2773 1.99989 14.2773C3.10452 14.2773 4 15.1728 4 16.2775C4 17.3821 3.10452 18.2776 1.99989 18.2776Z" fill="#999999"/>
</svg>
