<svg width="17" height="17" viewBox="0 0 17 17" fill="none" xmlns="http://www.w3.org/2000/svg">
<path d="M9.76516 8.5L16.7385 1.52666C17.0872 1.178 17.0872 0.610167 16.7385 0.2615C16.3898 -0.0871667 15.822 -0.0871667 15.4733 0.2615L8.5 7.23484L1.52666 0.2615C1.178 -0.0871667 0.610167 -0.0871667 0.2615 0.2615C-0.0871667 0.610167 -0.0871667 1.178 0.2615 1.52666L7.23484 8.5L0.2615 15.4733C-0.0871667 15.822 -0.0871667 16.3898 0.2615 16.7385C0.610167 17.0872 1.178 17.0872 1.52666 16.7385L8.5 9.76516L15.4733 16.7385C15.822 17.0872 16.3898 17.0872 16.7385 16.7385C17.0872 16.3898 17.0872 15.822 16.7385 15.4733L9.76516 8.5Z" fill="#474747"/>
</svg>
