<svg width="18" height="18" viewBox="0 0 18 18" fill="none" xmlns="http://www.w3.org/2000/svg">
<path fill-rule="evenodd" clip-rule="evenodd" d="M9 0C4.02955 0 0 4.02955 0 9C0 13.9705 4.02955 18 9 18C13.9705 18 18 13.9705 18 9C18 4.02955 13.9705 0 9 0ZM12.033 7.12391C12.182 6.9696 12.2645 6.76292 12.2626 6.5484C12.2608 6.33387 12.1747 6.12866 12.023 5.97697C11.8713 5.82527 11.6661 5.73922 11.4516 5.73736C11.2371 5.73549 11.0304 5.81796 10.8761 5.967L9 7.84309L7.12391 5.967C7.04843 5.88886 6.95815 5.82652 6.85833 5.78364C6.75851 5.74076 6.65115 5.71819 6.54251 5.71725C6.43387 5.71631 6.32613 5.73701 6.22558 5.77815C6.12503 5.81928 6.03368 5.88004 5.95686 5.95686C5.88004 6.03368 5.81928 6.12503 5.77815 6.22558C5.73701 6.32613 5.71631 6.43387 5.71725 6.54251C5.71819 6.65115 5.74076 6.75851 5.78364 6.85833C5.82652 6.95815 5.88886 7.04843 5.967 7.12391L7.84309 9L5.967 10.8761C5.88886 10.9516 5.82652 11.0418 5.78364 11.1417C5.74076 11.2415 5.71819 11.3489 5.71725 11.4575C5.71631 11.5661 5.73701 11.6739 5.77815 11.7744C5.81928 11.875 5.88004 11.9663 5.95686 12.0431C6.03368 12.12 6.12503 12.1807 6.22558 12.2219C6.32613 12.263 6.43387 12.2837 6.54251 12.2828C6.65115 12.2818 6.75851 12.2592 6.85833 12.2164C6.95815 12.1735 7.04843 12.1111 7.12391 12.033L9 10.1569L10.8761 12.033C11.0304 12.182 11.2371 12.2645 11.4516 12.2626C11.6661 12.2608 11.8713 12.1747 12.023 12.023C12.1747 11.8713 12.2608 11.6661 12.2626 11.4516C12.2645 11.2371 12.182 11.0304 12.033 10.8761L10.1569 9L12.033 7.12391Z" fill="#FF3333"/>
</svg>
