<svg width="26" height="26" viewBox="0 0 26 26" fill="none" xmlns="http://www.w3.org/2000/svg">
<g clip-path="url(#clip0)">
<path d="M13.005 9.46009C12.0877 9.46009 11.2286 9.79717 10.5782 10.4132C9.93085 11.0293 9.5719 11.8429 9.5719 12.7118C9.5719 13.5806 9.93085 14.3943 10.5782 15.0103C11.2286 15.6235 12.0877 15.9634 13.005 15.9634C13.9223 15.9634 14.7814 15.6235 15.4318 15.0103C16.0791 14.3943 16.4381 13.5806 16.4381 12.7118C16.4381 11.8429 16.0791 11.0293 15.4318 10.4132C15.1141 10.11 14.736 9.86961 14.3194 9.70599C13.9028 9.54237 13.456 9.45878 13.005 9.46009ZM25.6544 16.3034L23.6479 14.679C23.743 14.1269 23.7921 13.5632 23.7921 13.0024C23.7921 12.4415 23.743 11.8749 23.6479 11.3257L25.6544 9.70128C25.8059 9.57838 25.9144 9.41469 25.9654 9.23197C26.0164 9.04926 26.0074 8.85618 25.9397 8.67841L25.9121 8.60285C25.3599 7.1403 24.5325 5.7846 23.4699 4.60146L23.4147 4.54044C23.2857 4.39675 23.1137 4.29345 22.9215 4.24417C22.7293 4.19489 22.5258 4.20194 22.3379 4.26438L19.8466 5.10418C18.9262 4.38933 17.9015 3.82559 16.7909 3.4333L16.3092 0.966205C16.2729 0.780351 16.1777 0.60937 16.0363 0.475977C15.8949 0.342583 15.714 0.253093 15.5177 0.219394L15.4348 0.204864C13.8395 -0.0682881 12.1582 -0.0682881 10.5629 0.204864L10.48 0.219394C10.2837 0.253093 10.1028 0.342583 9.96139 0.475977C9.82001 0.60937 9.72482 0.780351 9.68848 0.966205L9.20374 3.44492C8.10364 3.84034 7.07882 4.40271 6.16948 5.10999L3.65985 4.26438C3.47199 4.20144 3.26835 4.19414 3.076 4.24345C2.88365 4.29276 2.71169 4.39635 2.58299 4.54044L2.52776 4.60146C1.46713 5.78587 0.639931 7.14122 0.0856313 8.60285L0.0580193 8.67841C-0.0800409 9.04164 0.0334753 9.44847 0.343344 9.70128L2.37436 11.3431C2.27925 11.8894 2.23323 12.4473 2.23323 12.9994C2.23323 13.5574 2.27925 14.1153 2.37436 14.6558L0.34948 16.2976C0.197907 16.4205 0.0894247 16.5842 0.0384576 16.7669C-0.0125095 16.9496 -0.00354649 17.1427 0.0641552 17.3205L0.0917672 17.396C0.647076 18.8577 1.46623 20.2089 2.5339 21.3974L2.58912 21.4585C2.71814 21.6022 2.8901 21.7054 3.08234 21.7547C3.27458 21.804 3.47807 21.797 3.66599 21.7345L6.17562 20.8889C7.08988 21.6009 8.10846 22.1646 9.20987 22.554L9.69462 25.0327C9.73096 25.2185 9.82614 25.3895 9.96753 25.5229C10.1089 25.6563 10.2898 25.7458 10.4862 25.7795L10.569 25.794C12.1801 26.0687 13.8299 26.0687 15.441 25.794L15.5238 25.7795C15.7202 25.7458 15.9011 25.6563 16.0425 25.5229C16.1838 25.3895 16.279 25.2185 16.3154 25.0327L16.797 22.5656C17.9077 22.1704 18.9324 21.6096 19.8528 20.8947L22.344 21.7345C22.5319 21.7975 22.7355 21.8048 22.9278 21.7554C23.1202 21.7061 23.2922 21.6026 23.4209 21.4585L23.4761 21.3974C24.5437 20.2031 25.3629 18.8577 25.9182 17.396L25.9458 17.3205C26.0777 16.9602 25.9642 16.5562 25.6544 16.3034ZM13.005 17.8203C10.026 17.8203 7.61144 15.5334 7.61144 12.7118C7.61144 9.89016 10.026 7.60323 13.005 7.60323C15.984 7.60323 18.3985 9.89016 18.3985 12.7118C18.3985 15.5334 15.984 17.8203 13.005 17.8203Z" fill="white"/>
</g>
<defs>
<clipPath id="clip0">
<rect width="26" height="26" fill="white"/>
</clipPath>
</defs>
</svg>
