<svg width="20" height="21" viewBox="0 0 20 21" fill="none" xmlns="http://www.w3.org/2000/svg">
<path d="M8.55295 17.269C10.4506 17.2686 12.2936 16.6333 13.7884 15.4643L18.4883 20.1642L20 18.6524L15.3002 13.9526C16.4698 12.4576 17.1054 10.6142 17.1059 8.71603C17.1059 4.00015 13.2688 0.163086 8.55295 0.163086C3.83707 0.163086 0 4.00015 0 8.71603C0 13.4319 3.83707 17.269 8.55295 17.269ZM8.55295 2.30132C12.0907 2.30132 14.9677 5.17832 14.9677 8.71603C14.9677 12.2537 12.0907 15.1307 8.55295 15.1307C5.01523 15.1307 2.13824 12.2537 2.13824 8.71603C2.13824 5.17832 5.01523 2.30132 8.55295 2.30132Z" fill="#474747" fill-opacity="0.5"/>
</svg>
