<svg width="38" height="38" viewBox="0 0 38 38" fill="none" xmlns="http://www.w3.org/2000/svg">
<circle cx="18.741" cy="18.741" r="18.741" fill="#CBD3EB"/>
<path d="M29.0187 19.2213L9.76871 9.59632C9.61783 9.52086 9.44836 9.49063 9.2807 9.50926C9.11304 9.52789 8.95434 9.59458 8.82371 9.70132C8.69896 9.80587 8.60584 9.94315 8.55483 10.0977C8.50382 10.2523 8.49694 10.418 8.53496 10.5763L10.8537 19.1251H20.75V20.8751H10.8537L8.49996 29.3976C8.46428 29.5297 8.46012 29.6684 8.4878 29.8025C8.51548 29.9366 8.57424 30.0623 8.65935 30.1695C8.74446 30.2768 8.85354 30.3625 8.97783 30.4199C9.10211 30.4774 9.23814 30.5048 9.37496 30.5001C9.51193 30.4992 9.6468 30.4663 9.76871 30.4038L29.0187 20.7788C29.162 20.7054 29.2823 20.5938 29.3663 20.4564C29.4503 20.319 29.4947 20.1611 29.4947 20.0001C29.4947 19.839 29.4503 19.6811 29.3663 19.5437C29.2823 19.4063 29.162 19.2947 29.0187 19.2213Z" fill="#4C5BD4"/>
</svg>
