<svg width="21" height="21" viewBox="0 0 21 21" fill="none" xmlns="http://www.w3.org/2000/svg">
<path d="M2.18434 18.1489C2.11848 18.1493 2.05301 18.1387 1.99059 18.1177C1.86006 18.0753 1.74711 17.9911 1.66917 17.8782C1.59123 17.7652 1.55263 17.6298 1.55934 17.4927C1.55934 17.3989 2.20309 8.32394 11.3031 7.61144V4.34894C11.303 4.22468 11.3399 4.10321 11.4092 4.00004C11.4784 3.89687 11.5769 3.81669 11.6919 3.76973C11.8069 3.72278 11.9334 3.71118 12.055 3.73642C12.1767 3.76166 12.2881 3.82259 12.375 3.91144L18.5437 10.2114C18.6582 10.3283 18.7224 10.4853 18.7224 10.6489C18.7224 10.8125 18.6582 10.9696 18.5437 11.0864L12.375 17.3864C12.2881 17.4753 12.1767 17.5362 12.055 17.5615C11.9334 17.5867 11.8069 17.5751 11.6919 17.5281C11.5769 17.4812 11.4784 17.401 11.4092 17.2978C11.3399 17.1947 11.303 17.0732 11.3031 16.9489V13.7489C5.22809 13.9802 2.73747 17.8114 2.71247 17.8583C2.65608 17.9474 2.57809 18.0207 2.48576 18.0715C2.39342 18.1223 2.28973 18.149 2.18434 18.1489Z" fill="#474747"/>
</svg>
