<svg width="22" height="19" viewBox="0 0 22 19" fill="none" xmlns="http://www.w3.org/2000/svg">
<path d="M11.915 7.38269C11.915 7.20033 11.9874 7.02543 12.1164 6.89648C12.2453 6.76753 12.4202 6.69508 12.6026 6.69508H17.6451C17.8275 6.69508 18.0024 6.76753 18.1313 6.89648C18.2603 7.02543 18.3327 7.20033 18.3327 7.38269C18.3327 7.56506 18.2603 7.73996 18.1313 7.86891C18.0024 7.99786 17.8275 8.07031 17.6451 8.07031H12.6026C12.4202 8.07031 12.2453 7.99786 12.1164 7.86891C11.9874 7.73996 11.915 7.56506 11.915 7.38269ZM12.6026 10.3624C12.4202 10.3624 12.2453 10.4348 12.1164 10.5638C11.9874 10.6927 11.915 10.8676 11.915 11.05C11.915 11.2323 11.9874 11.4072 12.1164 11.5362C12.2453 11.6651 12.4202 11.7376 12.6026 11.7376H17.6451C17.8275 11.7376 18.0024 11.6651 18.1313 11.5362C18.2603 11.4072 18.3327 11.2323 18.3327 11.05C18.3327 10.8676 18.2603 10.6927 18.1313 10.5638C18.0024 10.4348 17.8275 10.3624 17.6451 10.3624H12.6026ZM8.47691 7.38269C8.47691 7.80822 8.30788 8.21631 8.00699 8.5172C7.7061 8.81809 7.298 8.98713 6.87248 8.98713C6.44696 8.98713 6.03886 8.81809 5.73797 8.5172C5.43708 8.21631 5.26804 7.80822 5.26804 7.38269C5.26804 6.95717 5.43708 6.54908 5.73797 6.24819C6.03886 5.9473 6.44696 5.77826 6.87248 5.77826C7.298 5.77826 7.7061 5.9473 8.00699 6.24819C8.30788 6.54908 8.47691 6.95717 8.47691 7.38269ZM4.58043 9.90395H9.16453C9.40768 9.90395 9.64088 10.0005 9.81282 10.1725C9.98475 10.3444 10.0813 10.5776 10.0813 10.8208V11.2792C10.0813 11.2792 9.62294 13.5712 6.87248 13.5712C4.12202 13.5712 3.66361 11.2792 3.66361 11.2792V10.8208C3.66361 10.5776 3.7602 10.3444 3.93214 10.1725C4.10408 10.0005 4.33727 9.90395 4.58043 9.90395ZM0 2.7986C0 2.12992 0.265631 1.48863 0.738458 1.0158C1.21128 0.542975 1.85258 0.277344 2.52125 0.277344H19.4787C20.1474 0.277344 20.7887 0.542975 21.2615 1.0158C21.7344 1.48863 22 2.12992 22 2.7986V16.0925C22 16.7612 21.7344 17.4024 21.2615 17.8753C20.7887 18.3481 20.1474 18.6137 19.4787 18.6137H2.52217C1.85349 18.6137 1.2122 18.3481 0.739375 17.8753C0.266548 17.4024 0.000916972 16.7612 0.000916972 16.0925V2.7986H0ZM2.52125 1.65257C1.88865 1.65257 1.37523 2.16599 1.37523 2.7986V16.0925C1.37523 16.7251 1.88865 17.2385 2.52125 17.2385H19.4787C20.1114 17.2385 20.6248 16.7251 20.6248 16.0925V2.7986C20.6248 2.16599 20.1114 1.65257 19.4787 1.65257H2.52217H2.52125Z" fill="#666666"/>
</svg>
