<svg width="22" height="18" viewBox="0 0 22 18" fill="none" xmlns="http://www.w3.org/2000/svg">
<path d="M20.0588 17.2773H1.94118C0.841176 17.2773 0 16.4273 0 15.3158V2.23888C0 1.12734 0.841176 0.277344 1.94118 0.277344H20.0588C21.1588 0.277344 22 1.12734 22 2.23888V15.3158C22 16.4273 21.1588 17.2773 20.0588 17.2773ZM1.94118 1.58504C1.55294 1.58504 1.29412 1.84657 1.29412 2.23888V15.3158C1.29412 15.7081 1.55294 15.9697 1.94118 15.9697H20.0588C20.4471 15.9697 20.7059 15.7081 20.7059 15.3158V2.23888C20.7059 1.84657 20.4471 1.58504 20.0588 1.58504H1.94118Z" fill="#666666"/>
<path d="M14.2357 8.12335C12.8122 8.12335 11.6475 6.94642 11.6475 5.50796C11.6475 4.0695 12.8122 2.89258 14.2357 2.89258C15.6592 2.89258 16.8239 4.0695 16.8239 5.50796C16.8239 6.94642 15.6592 8.12335 14.2357 8.12335ZM14.2357 4.20027C13.5239 4.20027 12.9416 4.78873 12.9416 5.50796C12.9416 6.22719 13.5239 6.81565 14.2357 6.81565C14.9475 6.81565 15.5298 6.22719 15.5298 5.50796C15.5298 4.78873 14.9475 4.20027 14.2357 4.20027Z" fill="#666666"/>
<path d="M17.6649 17.0807L7.11787 7.07686L1.10022 12.6999L0.194336 11.7846L7.11787 5.24609L18.5708 16.1653L17.6649 17.0807Z" fill="#666666"/>
<path d="M20.9648 13.8113L17.4707 10.9344L14.5589 13.3536L13.7178 12.3075L17.4707 9.23438L21.7413 12.7651L20.9648 13.8113Z" fill="#666666"/>
</svg>
