<svg width="20" height="21" viewBox="0 0 20 21" fill="none" xmlns="http://www.w3.org/2000/svg">
<path d="M18.3048 1.96795C16.1128 -0.286623 12.6086 -0.286132 10.4171 1.96907L1.22597 11.6308C-0.43597 13.419 -0.404208 16.2849 1.29691 18.0319C2.97005 19.7502 5.64216 19.7502 7.3153 18.0319L15.638 9.28308C16.72 8.14572 16.72 6.30165 15.638 5.16429C14.5561 4.02692 12.8018 4.02692 11.7198 5.16429L3.75895 13.5327C3.48129 13.8349 3.48926 14.3165 3.77676 14.6084C4.05723 14.8932 4.50185 14.8932 4.78232 14.6084L12.7432 6.24C13.2711 5.70838 14.109 5.72733 14.6147 6.28226C15.1051 6.82042 15.1051 7.6692 14.6147 8.20737L6.29198 16.9562C5.16765 18.1212 3.35767 18.1076 2.24933 16.9257C1.15219 15.7558 1.15219 13.8765 2.24933 12.7065L11.4405 3.04478C13.0776 1.32316 15.7325 1.32267 17.3702 3.04362C19.008 4.76457 19.0085 7.55535 17.3713 9.27697L8.18015 18.9387C7.87657 19.212 7.84121 19.6923 8.10119 20.0114C8.36118 20.3305 8.81805 20.3677 9.12163 20.0944C9.14995 20.0689 9.17633 20.0412 9.20059 20.0114L18.3918 10.3497C20.5696 8.00989 20.5307 4.25725 18.3048 1.96795Z" fill="#666666"/>
</svg>
