<svg width="25" height="22" viewBox="0 0 25 22" fill="none" xmlns="http://www.w3.org/2000/svg">
<path d="M9.74219 7.35352C9.74219 7.95025 9.50513 8.52255 9.08318 8.94451C8.66122 9.36646 8.08892 9.60352 7.49219 9.60352C6.89545 9.60352 6.32315 9.36646 5.9012 8.94451C5.47924 8.52255 5.24219 7.95025 5.24219 7.35352C5.24219 6.75678 5.47924 6.18448 5.9012 5.76253C6.32315 5.34057 6.89545 5.10352 7.49219 5.10352C8.08892 5.10352 8.66122 5.34057 9.08318 5.76253C9.50513 6.18448 9.74219 6.75678 9.74219 7.35352Z" fill="#666666"/>
<path d="M3.74219 0.603516C2.94654 0.603516 2.18348 0.919586 1.62087 1.4822C1.05826 2.0448 0.742188 2.80787 0.742188 3.60352V18.6035C0.742188 19.3992 1.05826 20.1622 1.62087 20.7248C2.18348 21.2874 2.94654 21.6035 3.74219 21.6035H21.7422C22.5378 21.6035 23.3009 21.2874 23.8635 20.7248C24.4261 20.1622 24.7422 19.3992 24.7422 18.6035V3.60352C24.7422 2.80787 24.4261 2.0448 23.8635 1.4822C23.3009 0.919586 22.5378 0.603516 21.7422 0.603516H3.74219ZM21.7422 2.10352C22.14 2.10352 22.5215 2.26155 22.8028 2.54286C23.0842 2.82416 23.2422 3.20569 23.2422 3.60352V13.3535L17.5767 10.433C17.436 10.3626 17.2768 10.3381 17.1214 10.3631C16.9661 10.3882 16.8226 10.4614 16.7112 10.5725L11.1462 16.1375L7.15619 13.4795C7.01213 13.3836 6.83933 13.3405 6.6671 13.3574C6.49486 13.3744 6.33379 13.4504 6.21119 13.5725L2.24219 17.1035V3.60352C2.24219 3.20569 2.40022 2.82416 2.68153 2.54286C2.96283 2.26155 3.34436 2.10352 3.74219 2.10352H21.7422Z" fill="#666666"/>
</svg>
