<svg width="20" height="21" viewBox="0 0 20 21" fill="none" xmlns="http://www.w3.org/2000/svg">
<path d="M18.2023 19.8633H1.86536C1.61539 19.8633 1.37566 19.7645 1.19891 19.5887C1.02215 19.4129 0.922852 19.1744 0.922852 18.9258V2.67578C0.922852 2.42714 1.02215 2.18868 1.19891 2.01287C1.37566 1.83705 1.61539 1.73828 1.86536 1.73828H8.77713C9.0271 1.73828 9.26683 1.83705 9.44359 2.01287C9.62034 2.18868 9.71964 2.42714 9.71964 2.67578C9.71964 2.92442 9.62034 3.16288 9.44359 3.33869C9.26683 3.51451 9.0271 3.61328 8.77713 3.61328H2.80788V17.9883H17.2598V12.0508C17.2598 11.8021 17.3591 11.5637 17.5358 11.3879C17.7126 11.2121 17.9523 11.1133 18.2023 11.1133C18.4522 11.1133 18.692 11.2121 18.8687 11.3879C19.0455 11.5637 19.1448 11.8021 19.1448 12.0508V18.9258C19.1448 19.1744 19.0455 19.4129 18.8687 19.5887C18.692 19.7645 18.4522 19.8633 18.2023 19.8633ZM16.6314 4.23828H15.2985L11.2524 8.26285C11.0756 8.43867 10.9763 8.67713 10.9763 8.92578C10.9763 9.17443 11.0756 9.41289 11.2524 9.58871C11.4291 9.76453 11.6689 9.86331 11.9188 9.86331C12.1688 9.86331 12.4086 9.76453 12.5853 9.58871L16.6314 5.5641V4.23828ZM19.1448 7.67578V2.67578C19.1448 2.42714 19.0455 2.18868 18.8687 2.01287C18.692 1.83705 18.4522 1.73828 18.2023 1.73828H13.1755C12.9256 1.73828 12.6858 1.83705 12.5091 2.01287C12.3323 2.18868 12.233 2.42714 12.233 2.67578C12.233 2.92442 12.3323 3.16288 12.5091 3.33869C12.6858 3.51451 12.9256 3.61328 13.1755 3.61328H17.2598V7.67578C17.2598 7.92442 17.3591 8.16288 17.5358 8.33869C17.7126 8.51451 17.9523 8.61328 18.2023 8.61328C18.4522 8.61328 18.692 8.51451 18.8687 8.33869C19.0455 8.16288 19.1448 7.92442 19.1448 7.67578Z" fill="white"/>
</svg>
