<svg width="18" height="19" viewBox="0 0 18 19" fill="none" xmlns="http://www.w3.org/2000/svg">
<path d="M16.2 9.94238C16.2 8.03282 15.4414 6.20148 14.0912 4.85121C12.7409 3.50095 10.9096 2.74238 9 2.74238C7.09044 2.74238 5.25909 3.50095 3.90883 4.85121C2.55857 6.20148 1.8 8.03282 1.8 9.94238C1.8 11.8519 2.55857 13.6833 3.90883 15.0336C5.25909 16.3838 7.09044 17.1424 9 17.1424C10.9096 17.1424 12.7409 16.3838 14.0912 15.0336C15.4414 13.6833 16.2 11.8519 16.2 9.94238ZM18 9.94238C18 12.3293 17.0518 14.6185 15.364 16.3063C13.6761 17.9942 11.3869 18.9424 9 18.9424C7.8181 18.9424 6.64778 18.7096 5.55585 18.2573C4.46392 17.805 3.47177 17.1421 2.63604 16.3063C0.948211 14.6185 0 12.3293 0 9.94238C0 7.55543 0.948211 5.26625 2.63604 3.57842C4.32387 1.89059 6.61305 0.942383 9 0.942383C10.1819 0.942383 11.3522 1.17517 12.4442 1.62747C13.5361 2.07976 14.5282 2.74269 15.364 3.57842C16.1997 4.41415 16.8626 5.4063 17.3149 6.49823C17.7672 7.59016 18 8.76049 18 9.94238ZM7.2 7.69238C7.2 8.41238 6.57 9.04238 5.85 9.04238C5.13 9.04238 4.5 8.41238 4.5 7.69238C4.5 6.97238 5.13 6.34238 5.85 6.34238C6.57 6.34238 7.2 6.97238 7.2 7.69238ZM13.5 7.69238C13.5 8.41238 12.87 9.04238 12.15 9.04238C11.43 9.04238 10.8 8.41238 10.8 7.69238C10.8 6.97238 11.43 6.34238 12.15 6.34238C12.87 6.34238 13.5 6.97238 13.5 7.69238ZM9 14.6494C7.425 14.6494 6.039 13.9924 5.229 13.0204L6.507 11.7424C6.912 12.3904 7.875 12.8494 9 12.8494C10.125 12.8494 11.088 12.3904 11.493 11.7424L12.771 13.0204C11.961 13.9924 10.575 14.6494 9 14.6494Z" fill="#666666"/>
</svg>
