<svg width="14" height="17" viewBox="0 0 14 17" fill="none" xmlns="http://www.w3.org/2000/svg">
<path d="M6.76562 0.0205078C5.04234 0.0225408 3.39023 0.708013 2.17168 1.92656C0.953136 3.1451 0.267665 4.79722 0.265632 6.5205C0.263568 7.92877 0.723574 9.29882 1.57509 10.4205C1.57509 10.4205 1.75236 10.6539 1.78131 10.6876L6.76562 16.5659L11.7523 10.6846C11.7783 10.6533 11.9562 10.4205 11.9562 10.4205L11.9568 10.4187C12.8078 9.29754 13.2676 7.92812 13.2656 6.5205C13.2636 4.79722 12.5781 3.1451 11.3596 1.92656C10.141 0.708013 8.48891 0.0225408 6.76562 0.0205078ZM6.76562 8.88414C6.29814 8.88414 5.84116 8.74551 5.45246 8.48579C5.06376 8.22607 4.76081 7.85692 4.58191 7.42502C4.40301 6.99313 4.35621 6.51788 4.44741 6.05938C4.53861 5.60088 4.76372 5.17972 5.09428 4.84916C5.42484 4.5186 5.846 4.29348 6.3045 4.20228C6.763 4.11108 7.23825 4.15789 7.67015 4.33679C8.10205 4.51569 8.4712 4.81864 8.73091 5.20734C8.99063 5.59603 9.12926 6.05302 9.12926 6.5205C9.12848 7.14714 8.8792 7.74788 8.4361 8.19098C7.993 8.63408 7.39226 8.88335 6.76562 8.88414Z" fill="#474747"/>
</svg>
