<svg width="20" height="21" viewBox="0 0 20 21" fill="none" xmlns="http://www.w3.org/2000/svg">
<path d="M5.875 19.3153C5.69977 19.3153 5.53171 19.2457 5.4078 19.1218C5.2839 18.9979 5.21429 18.8298 5.21429 18.6546V16.0117H4.22321C3.43494 16.0108 2.6792 15.6973 2.1218 15.1399C1.5644 14.5825 1.25087 13.8268 1.25 13.0385V5.10993C1.25087 4.32166 1.5644 3.56592 2.1218 3.00852C2.6792 2.45112 3.43494 2.13759 4.22321 2.13672H16.7768C17.5651 2.13759 18.3208 2.45112 18.8782 3.00852C19.4356 3.56592 19.7491 4.32166 19.75 5.10993V13.0385C19.7491 13.8268 19.4356 14.5825 18.8782 15.1399C18.3208 15.6973 17.5651 16.0108 16.7768 16.0117H10.0763L6.29827 19.1621C6.17937 19.261 6.02964 19.3152 5.875 19.3153Z" fill="#474747"/>
</svg>
