<svg width="15" height="14" viewBox="0 0 15 14" fill="none" xmlns="http://www.w3.org/2000/svg">
<path d="M8.1083 7L13.8511 1.25725C14.1382 0.970114 14.1382 0.50249 13.8511 0.215353C13.5639 -0.0717843 13.0963 -0.0717843 12.8092 0.215353L7.06641 5.9581L1.32366 0.215353C1.03652 -0.0717843 0.568897 -0.0717843 0.281759 0.215353C-0.0053781 0.50249 -0.0053781 0.970114 0.281759 1.25725L6.02451 7L0.281759 12.7427C-0.0053781 13.0299 -0.0053781 13.4975 0.281759 13.7846C0.568897 14.0718 1.03652 14.0718 1.32366 13.7846L7.06641 8.0419L12.8092 13.7846C13.0963 14.0718 13.5639 14.0718 13.8511 13.7846C14.1382 13.4975 14.1382 13.0299 13.8511 12.7427L8.1083 7Z" fill="white"/>
</svg>
