<svg width="24" height="25" viewBox="0 0 24 25" fill="none" xmlns="http://www.w3.org/2000/svg">
<path d="M20.6734 4.31055C21.2838 4.31055 21.8009 4.51242 22.2248 4.91618C22.6487 5.31993 22.8606 5.81251 22.8606 6.39391V18.7972C22.8606 19.3786 22.6487 19.8712 22.2248 20.2749C21.8009 20.6787 21.2838 20.8805 20.6734 20.8805H3.32788C2.71749 20.8805 2.20034 20.6787 1.77646 20.2749C1.35257 19.8712 1.14062 19.3786 1.14062 18.7972V6.39391C1.14062 5.81251 1.35257 5.31993 1.77646 4.91618C2.20034 4.51242 2.71749 4.31055 3.32788 4.31055H20.6734ZM20.6734 8.47727V6.39391L11.9752 11.5781L3.32788 6.39391V8.47727L11.9752 13.613L20.6734 8.47727Z" fill="#666666"/>
</svg>
